<?xml version="1.0" encoding="utf-8" standalone="no"?>
<!DOCTYPE svg PUBLIC "-//W3C//DTD SVG 1.1//EN"
  "http://www.w3.org/Graphics/SVG/1.1/DTD/svg11.dtd">
<svg xmlns:xlink="http://www.w3.org/1999/xlink" width="864pt" height="360pt" viewBox="0 0 864 360" xmlns="http://www.w3.org/2000/svg" version="1.1">
 <metadata>
  <rdf:RDF xmlns:dc="http://purl.org/dc/elements/1.1/" xmlns:cc="http://creativecommons.org/ns#" xmlns:rdf="http://www.w3.org/1999/02/22-rdf-syntax-ns#">
   <cc:Work>
    <dc:type rdf:resource="http://purl.org/dc/dcmitype/StillImage"/>
    <dc:date>2025-05-19T08:16:53.725459</dc:date>
    <dc:format>image/svg+xml</dc:format>
    <dc:creator>
     <cc:Agent>
      <dc:title>Matplotlib v3.10.3, https://matplotlib.org/</dc:title>
     </cc:Agent>
    </dc:creator>
   </cc:Work>
  </rdf:RDF>
 </metadata>
 <defs>
  <style type="text/css">*{stroke-linejoin: round; stroke-linecap: butt}</style>
 </defs>
 <g id="figure_1">
  <g id="patch_1">
   <path d="M 0 360 
L 864 360 
L 864 0 
L 0 0 
L 0 360 
z
" style="fill: none; opacity: 0"/>
  </g>
  <g id="axes_1">
   <g id="patch_2">
    <path d="M 108 320.4 
L 777.6 320.4 
L 777.6 43.2 
L 108 43.2 
L 108 320.4 
z
" style="fill: none; opacity: 0"/>
   </g>
   <g id="matplotlib.axis_1">
    <g id="xtick_1">
     <g id="line2d_1">
      <path d="M 128.4 320.4 
L 128.4 43.2 
" clip-path="url(#pe13c0475fe)" style="fill: none; stroke-dasharray: 5.12,1.28,0.8,1.28; stroke-dashoffset: 0; stroke: #b0b0b0; stroke-width: 0.8"/>
     </g>
     <g id="line2d_2">
      <defs>
       <path id="mda12d16094" d="M 0 0 
L 0 3.5 
" style="stroke: #a9a9a9; stroke-width: 0.8"/>
      </defs>
      <g>
       <use xlink:href="#mda12d16094" x="128.4" y="320.4" style="fill: #a9a9a9; stroke: #a9a9a9; stroke-width: 0.8"/>
      </g>
     </g>
     <g id="text_1">
      <!-- 2021-07 -->
      <g style="fill: #a9a9a9" transform="translate(107.508594 334.998438) scale(0.1 -0.1)">
       <defs>
        <path id="DejaVuSans-32" d="M 1228 531 
L 3431 531 
L 3431 0 
L 469 0 
L 469 531 
Q 828 903 1448 1529 
Q 2069 2156 2228 2338 
Q 2531 2678 2651 2914 
Q 2772 3150 2772 3378 
Q 2772 3750 2511 3984 
Q 2250 4219 1831 4219 
Q 1534 4219 1204 4116 
Q 875 4013 500 3803 
L 500 4441 
Q 881 4594 1212 4672 
Q 1544 4750 1819 4750 
Q 2544 4750 2975 4387 
Q 3406 4025 3406 3419 
Q 3406 3131 3298 2873 
Q 3191 2616 2906 2266 
Q 2828 2175 2409 1742 
Q 1991 1309 1228 531 
z
" transform="scale(0.015625)"/>
        <path id="DejaVuSans-30" d="M 2034 4250 
Q 1547 4250 1301 3770 
Q 1056 3291 1056 2328 
Q 1056 1369 1301 889 
Q 1547 409 2034 409 
Q 2525 409 2770 889 
Q 3016 1369 3016 2328 
Q 3016 3291 2770 3770 
Q 2525 4250 2034 4250 
z
M 2034 4750 
Q 2819 4750 3233 4129 
Q 3647 3509 3647 2328 
Q 3647 1150 3233 529 
Q 2819 -91 2034 -91 
Q 1250 -91 836 529 
Q 422 1150 422 2328 
Q 422 3509 836 4129 
Q 1250 4750 2034 4750 
z
" transform="scale(0.015625)"/>
        <path id="DejaVuSans-31" d="M 794 531 
L 1825 531 
L 1825 4091 
L 703 3866 
L 703 4441 
L 1819 4666 
L 2450 4666 
L 2450 531 
L 3481 531 
L 3481 0 
L 794 0 
L 794 531 
z
" transform="scale(0.015625)"/>
        <path id="DejaVuSans-2d" d="M 313 2009 
L 1997 2009 
L 1997 1497 
L 313 1497 
L 313 2009 
z
" transform="scale(0.015625)"/>
        <path id="DejaVuSans-37" d="M 525 4666 
L 3525 4666 
L 3525 4397 
L 1831 0 
L 1172 0 
L 2766 4134 
L 525 4134 
L 525 4666 
z
" transform="scale(0.015625)"/>
       </defs>
       <use xlink:href="#DejaVuSans-32"/>
       <use xlink:href="#DejaVuSans-30" transform="translate(63.623047 0)"/>
       <use xlink:href="#DejaVuSans-32" transform="translate(127.246094 0)"/>
       <use xlink:href="#DejaVuSans-31" transform="translate(190.869141 0)"/>
       <use xlink:href="#DejaVuSans-2d" transform="translate(254.492188 0)"/>
       <use xlink:href="#DejaVuSans-30" transform="translate(290.576172 0)"/>
       <use xlink:href="#DejaVuSans-37" transform="translate(354.199219 0)"/>
      </g>
     </g>
    </g>
    <g id="xtick_2">
     <g id="line2d_3">
      <path d="M 208.690909 320.4 
L 208.690909 43.2 
" clip-path="url(#pe13c0475fe)" style="fill: none; stroke-dasharray: 5.12,1.28,0.8,1.28; stroke-dashoffset: 0; stroke: #b0b0b0; stroke-width: 0.8"/>
     </g>
     <g id="line2d_4">
      <g>
       <use xlink:href="#mda12d16094" x="208.690909" y="320.4" style="fill: #a9a9a9; stroke: #a9a9a9; stroke-width: 0.8"/>
      </g>
     </g>
     <g id="text_2">
      <!-- 2022-01 -->
      <g style="fill: #a9a9a9" transform="translate(187.799503 334.998438) scale(0.1 -0.1)">
       <use xlink:href="#DejaVuSans-32"/>
       <use xlink:href="#DejaVuSans-30" transform="translate(63.623047 0)"/>
       <use xlink:href="#DejaVuSans-32" transform="translate(127.246094 0)"/>
       <use xlink:href="#DejaVuSans-32" transform="translate(190.869141 0)"/>
       <use xlink:href="#DejaVuSans-2d" transform="translate(254.492188 0)"/>
       <use xlink:href="#DejaVuSans-30" transform="translate(290.576172 0)"/>
       <use xlink:href="#DejaVuSans-31" transform="translate(354.199219 0)"/>
      </g>
     </g>
    </g>
    <g id="xtick_3">
     <g id="line2d_5">
      <path d="M 287.672727 320.4 
L 287.672727 43.2 
" clip-path="url(#pe13c0475fe)" style="fill: none; stroke-dasharray: 5.12,1.28,0.8,1.28; stroke-dashoffset: 0; stroke: #b0b0b0; stroke-width: 0.8"/>
     </g>
     <g id="line2d_6">
      <g>
       <use xlink:href="#mda12d16094" x="287.672727" y="320.4" style="fill: #a9a9a9; stroke: #a9a9a9; stroke-width: 0.8"/>
      </g>
     </g>
     <g id="text_3">
      <!-- 2022-07 -->
      <g style="fill: #a9a9a9" transform="translate(266.781321 334.998438) scale(0.1 -0.1)">
       <use xlink:href="#DejaVuSans-32"/>
       <use xlink:href="#DejaVuSans-30" transform="translate(63.623047 0)"/>
       <use xlink:href="#DejaVuSans-32" transform="translate(127.246094 0)"/>
       <use xlink:href="#DejaVuSans-32" transform="translate(190.869141 0)"/>
       <use xlink:href="#DejaVuSans-2d" transform="translate(254.492188 0)"/>
       <use xlink:href="#DejaVuSans-30" transform="translate(290.576172 0)"/>
       <use xlink:href="#DejaVuSans-37" transform="translate(354.199219 0)"/>
      </g>
     </g>
    </g>
    <g id="xtick_4">
     <g id="line2d_7">
      <path d="M 367.963636 320.4 
L 367.963636 43.2 
" clip-path="url(#pe13c0475fe)" style="fill: none; stroke-dasharray: 5.12,1.28,0.8,1.28; stroke-dashoffset: 0; stroke: #b0b0b0; stroke-width: 0.8"/>
     </g>
     <g id="line2d_8">
      <g>
       <use xlink:href="#mda12d16094" x="367.963636" y="320.4" style="fill: #a9a9a9; stroke: #a9a9a9; stroke-width: 0.8"/>
      </g>
     </g>
     <g id="text_4">
      <!-- 2023-01 -->
      <g style="fill: #a9a9a9" transform="translate(347.07223 334.998438) scale(0.1 -0.1)">
       <defs>
        <path id="DejaVuSans-33" d="M 2597 2516 
Q 3050 2419 3304 2112 
Q 3559 1806 3559 1356 
Q 3559 666 3084 287 
Q 2609 -91 1734 -91 
Q 1441 -91 1130 -33 
Q 819 25 488 141 
L 488 750 
Q 750 597 1062 519 
Q 1375 441 1716 441 
Q 2309 441 2620 675 
Q 2931 909 2931 1356 
Q 2931 1769 2642 2001 
Q 2353 2234 1838 2234 
L 1294 2234 
L 1294 2753 
L 1863 2753 
Q 2328 2753 2575 2939 
Q 2822 3125 2822 3475 
Q 2822 3834 2567 4026 
Q 2313 4219 1838 4219 
Q 1578 4219 1281 4162 
Q 984 4106 628 3988 
L 628 4550 
Q 988 4650 1302 4700 
Q 1616 4750 1894 4750 
Q 2613 4750 3031 4423 
Q 3450 4097 3450 3541 
Q 3450 3153 3228 2886 
Q 3006 2619 2597 2516 
z
" transform="scale(0.015625)"/>
       </defs>
       <use xlink:href="#DejaVuSans-32"/>
       <use xlink:href="#DejaVuSans-30" transform="translate(63.623047 0)"/>
       <use xlink:href="#DejaVuSans-32" transform="translate(127.246094 0)"/>
       <use xlink:href="#DejaVuSans-33" transform="translate(190.869141 0)"/>
       <use xlink:href="#DejaVuSans-2d" transform="translate(254.492188 0)"/>
       <use xlink:href="#DejaVuSans-30" transform="translate(290.576172 0)"/>
       <use xlink:href="#DejaVuSans-31" transform="translate(354.199219 0)"/>
      </g>
     </g>
    </g>
    <g id="xtick_5">
     <g id="line2d_9">
      <path d="M 446.945455 320.4 
L 446.945455 43.2 
" clip-path="url(#pe13c0475fe)" style="fill: none; stroke-dasharray: 5.12,1.28,0.8,1.28; stroke-dashoffset: 0; stroke: #b0b0b0; stroke-width: 0.8"/>
     </g>
     <g id="line2d_10">
      <g>
       <use xlink:href="#mda12d16094" x="446.945455" y="320.4" style="fill: #a9a9a9; stroke: #a9a9a9; stroke-width: 0.8"/>
      </g>
     </g>
     <g id="text_5">
      <!-- 2023-07 -->
      <g style="fill: #a9a9a9" transform="translate(426.054048 334.998438) scale(0.1 -0.1)">
       <use xlink:href="#DejaVuSans-32"/>
       <use xlink:href="#DejaVuSans-30" transform="translate(63.623047 0)"/>
       <use xlink:href="#DejaVuSans-32" transform="translate(127.246094 0)"/>
       <use xlink:href="#DejaVuSans-33" transform="translate(190.869141 0)"/>
       <use xlink:href="#DejaVuSans-2d" transform="translate(254.492188 0)"/>
       <use xlink:href="#DejaVuSans-30" transform="translate(290.576172 0)"/>
       <use xlink:href="#DejaVuSans-37" transform="translate(354.199219 0)"/>
      </g>
     </g>
    </g>
    <g id="xtick_6">
     <g id="line2d_11">
      <path d="M 527.236364 320.4 
L 527.236364 43.2 
" clip-path="url(#pe13c0475fe)" style="fill: none; stroke-dasharray: 5.12,1.28,0.8,1.28; stroke-dashoffset: 0; stroke: #b0b0b0; stroke-width: 0.8"/>
     </g>
     <g id="line2d_12">
      <g>
       <use xlink:href="#mda12d16094" x="527.236364" y="320.4" style="fill: #a9a9a9; stroke: #a9a9a9; stroke-width: 0.8"/>
      </g>
     </g>
     <g id="text_6">
      <!-- 2024-01 -->
      <g style="fill: #a9a9a9" transform="translate(506.344957 334.998438) scale(0.1 -0.1)">
       <defs>
        <path id="DejaVuSans-34" d="M 2419 4116 
L 825 1625 
L 2419 1625 
L 2419 4116 
z
M 2253 4666 
L 3047 4666 
L 3047 1625 
L 3713 1625 
L 3713 1100 
L 3047 1100 
L 3047 0 
L 2419 0 
L 2419 1100 
L 313 1100 
L 313 1709 
L 2253 4666 
z
" transform="scale(0.015625)"/>
       </defs>
       <use xlink:href="#DejaVuSans-32"/>
       <use xlink:href="#DejaVuSans-30" transform="translate(63.623047 0)"/>
       <use xlink:href="#DejaVuSans-32" transform="translate(127.246094 0)"/>
       <use xlink:href="#DejaVuSans-34" transform="translate(190.869141 0)"/>
       <use xlink:href="#DejaVuSans-2d" transform="translate(254.492188 0)"/>
       <use xlink:href="#DejaVuSans-30" transform="translate(290.576172 0)"/>
       <use xlink:href="#DejaVuSans-31" transform="translate(354.199219 0)"/>
      </g>
     </g>
    </g>
    <g id="xtick_7">
     <g id="line2d_13">
      <path d="M 606.654545 320.4 
L 606.654545 43.2 
" clip-path="url(#pe13c0475fe)" style="fill: none; stroke-dasharray: 5.12,1.28,0.8,1.28; stroke-dashoffset: 0; stroke: #b0b0b0; stroke-width: 0.8"/>
     </g>
     <g id="line2d_14">
      <g>
       <use xlink:href="#mda12d16094" x="606.654545" y="320.4" style="fill: #a9a9a9; stroke: #a9a9a9; stroke-width: 0.8"/>
      </g>
     </g>
     <g id="text_7">
      <!-- 2024-07 -->
      <g style="fill: #a9a9a9" transform="translate(585.763139 334.998438) scale(0.1 -0.1)">
       <use xlink:href="#DejaVuSans-32"/>
       <use xlink:href="#DejaVuSans-30" transform="translate(63.623047 0)"/>
       <use xlink:href="#DejaVuSans-32" transform="translate(127.246094 0)"/>
       <use xlink:href="#DejaVuSans-34" transform="translate(190.869141 0)"/>
       <use xlink:href="#DejaVuSans-2d" transform="translate(254.492188 0)"/>
       <use xlink:href="#DejaVuSans-30" transform="translate(290.576172 0)"/>
       <use xlink:href="#DejaVuSans-37" transform="translate(354.199219 0)"/>
      </g>
     </g>
    </g>
    <g id="xtick_8">
     <g id="line2d_15">
      <path d="M 686.945455 320.4 
L 686.945455 43.2 
" clip-path="url(#pe13c0475fe)" style="fill: none; stroke-dasharray: 5.12,1.28,0.8,1.28; stroke-dashoffset: 0; stroke: #b0b0b0; stroke-width: 0.8"/>
     </g>
     <g id="line2d_16">
      <g>
       <use xlink:href="#mda12d16094" x="686.945455" y="320.4" style="fill: #a9a9a9; stroke: #a9a9a9; stroke-width: 0.8"/>
      </g>
     </g>
     <g id="text_8">
      <!-- 2025-01 -->
      <g style="fill: #a9a9a9" transform="translate(666.054048 334.998438) scale(0.1 -0.1)">
       <defs>
        <path id="DejaVuSans-35" d="M 691 4666 
L 3169 4666 
L 3169 4134 
L 1269 4134 
L 1269 2991 
Q 1406 3038 1543 3061 
Q 1681 3084 1819 3084 
Q 2600 3084 3056 2656 
Q 3513 2228 3513 1497 
Q 3513 744 3044 326 
Q 2575 -91 1722 -91 
Q 1428 -91 1123 -41 
Q 819 9 494 109 
L 494 744 
Q 775 591 1075 516 
Q 1375 441 1709 441 
Q 2250 441 2565 725 
Q 2881 1009 2881 1497 
Q 2881 1984 2565 2268 
Q 2250 2553 1709 2553 
Q 1456 2553 1204 2497 
Q 953 2441 691 2322 
L 691 4666 
z
" transform="scale(0.015625)"/>
       </defs>
       <use xlink:href="#DejaVuSans-32"/>
       <use xlink:href="#DejaVuSans-30" transform="translate(63.623047 0)"/>
       <use xlink:href="#DejaVuSans-32" transform="translate(127.246094 0)"/>
       <use xlink:href="#DejaVuSans-35" transform="translate(190.869141 0)"/>
       <use xlink:href="#DejaVuSans-2d" transform="translate(254.492188 0)"/>
       <use xlink:href="#DejaVuSans-30" transform="translate(290.576172 0)"/>
       <use xlink:href="#DejaVuSans-31" transform="translate(354.199219 0)"/>
      </g>
     </g>
    </g>
    <g id="xtick_9">
     <g id="line2d_17">
      <path d="M 765.927273 320.4 
L 765.927273 43.2 
" clip-path="url(#pe13c0475fe)" style="fill: none; stroke-dasharray: 5.12,1.28,0.8,1.28; stroke-dashoffset: 0; stroke: #b0b0b0; stroke-width: 0.8"/>
     </g>
     <g id="line2d_18">
      <g>
       <use xlink:href="#mda12d16094" x="765.927273" y="320.4" style="fill: #a9a9a9; stroke: #a9a9a9; stroke-width: 0.8"/>
      </g>
     </g>
     <g id="text_9">
      <!-- 2025-07 -->
      <g style="fill: #a9a9a9" transform="translate(745.035866 334.998438) scale(0.1 -0.1)">
       <use xlink:href="#DejaVuSans-32"/>
       <use xlink:href="#DejaVuSans-30" transform="translate(63.623047 0)"/>
       <use xlink:href="#DejaVuSans-32" transform="translate(127.246094 0)"/>
       <use xlink:href="#DejaVuSans-35" transform="translate(190.869141 0)"/>
       <use xlink:href="#DejaVuSans-2d" transform="translate(254.492188 0)"/>
       <use xlink:href="#DejaVuSans-30" transform="translate(290.576172 0)"/>
       <use xlink:href="#DejaVuSans-37" transform="translate(354.199219 0)"/>
      </g>
     </g>
    </g>
   </g>
   <g id="matplotlib.axis_2">
    <g id="ytick_1">
     <g id="line2d_19">
      <path d="M 108 307.83298 
L 777.6 307.83298 
" clip-path="url(#pe13c0475fe)" style="fill: none; stroke-dasharray: 5.12,1.28,0.8,1.28; stroke-dashoffset: 0; stroke: #b0b0b0; stroke-width: 0.8"/>
     </g>
     <g id="line2d_20">
      <defs>
       <path id="me97836d41e" d="M 0 0 
L -3.5 0 
" style="stroke: #a9a9a9; stroke-width: 0.8"/>
      </defs>
      <g>
       <use xlink:href="#me97836d41e" x="108" y="307.83298" style="fill: #a9a9a9; stroke: #a9a9a9; stroke-width: 0.8"/>
      </g>
     </g>
     <g id="text_10">
      <!-- 0 -->
      <g style="fill: #a9a9a9" transform="translate(94.6375 311.632199) scale(0.1 -0.1)">
       <use xlink:href="#DejaVuSans-30"/>
      </g>
     </g>
    </g>
    <g id="ytick_2">
     <g id="line2d_21">
      <path d="M 108 274.853004 
L 777.6 274.853004 
" clip-path="url(#pe13c0475fe)" style="fill: none; stroke-dasharray: 5.12,1.28,0.8,1.28; stroke-dashoffset: 0; stroke: #b0b0b0; stroke-width: 0.8"/>
     </g>
     <g id="line2d_22">
      <g>
       <use xlink:href="#me97836d41e" x="108" y="274.853004" style="fill: #a9a9a9; stroke: #a9a9a9; stroke-width: 0.8"/>
      </g>
     </g>
     <g id="text_11">
      <!-- 1000 -->
      <g style="fill: #a9a9a9" transform="translate(75.55 278.652222) scale(0.1 -0.1)">
       <use xlink:href="#DejaVuSans-31"/>
       <use xlink:href="#DejaVuSans-30" transform="translate(63.623047 0)"/>
       <use xlink:href="#DejaVuSans-30" transform="translate(127.246094 0)"/>
       <use xlink:href="#DejaVuSans-30" transform="translate(190.869141 0)"/>
      </g>
     </g>
    </g>
    <g id="ytick_3">
     <g id="line2d_23">
      <path d="M 108 241.873027 
L 777.6 241.873027 
" clip-path="url(#pe13c0475fe)" style="fill: none; stroke-dasharray: 5.12,1.28,0.8,1.28; stroke-dashoffset: 0; stroke: #b0b0b0; stroke-width: 0.8"/>
     </g>
     <g id="line2d_24">
      <g>
       <use xlink:href="#me97836d41e" x="108" y="241.873027" style="fill: #a9a9a9; stroke: #a9a9a9; stroke-width: 0.8"/>
      </g>
     </g>
     <g id="text_12">
      <!-- 2000 -->
      <g style="fill: #a9a9a9" transform="translate(75.55 245.672246) scale(0.1 -0.1)">
       <use xlink:href="#DejaVuSans-32"/>
       <use xlink:href="#DejaVuSans-30" transform="translate(63.623047 0)"/>
       <use xlink:href="#DejaVuSans-30" transform="translate(127.246094 0)"/>
       <use xlink:href="#DejaVuSans-30" transform="translate(190.869141 0)"/>
      </g>
     </g>
    </g>
    <g id="ytick_4">
     <g id="line2d_25">
      <path d="M 108 208.893051 
L 777.6 208.893051 
" clip-path="url(#pe13c0475fe)" style="fill: none; stroke-dasharray: 5.12,1.28,0.8,1.28; stroke-dashoffset: 0; stroke: #b0b0b0; stroke-width: 0.8"/>
     </g>
     <g id="line2d_26">
      <g>
       <use xlink:href="#me97836d41e" x="108" y="208.893051" style="fill: #a9a9a9; stroke: #a9a9a9; stroke-width: 0.8"/>
      </g>
     </g>
     <g id="text_13">
      <!-- 3000 -->
      <g style="fill: #a9a9a9" transform="translate(75.55 212.692269) scale(0.1 -0.1)">
       <use xlink:href="#DejaVuSans-33"/>
       <use xlink:href="#DejaVuSans-30" transform="translate(63.623047 0)"/>
       <use xlink:href="#DejaVuSans-30" transform="translate(127.246094 0)"/>
       <use xlink:href="#DejaVuSans-30" transform="translate(190.869141 0)"/>
      </g>
     </g>
    </g>
    <g id="ytick_5">
     <g id="line2d_27">
      <path d="M 108 175.913074 
L 777.6 175.913074 
" clip-path="url(#pe13c0475fe)" style="fill: none; stroke-dasharray: 5.12,1.28,0.8,1.28; stroke-dashoffset: 0; stroke: #b0b0b0; stroke-width: 0.8"/>
     </g>
     <g id="line2d_28">
      <g>
       <use xlink:href="#me97836d41e" x="108" y="175.913074" style="fill: #a9a9a9; stroke: #a9a9a9; stroke-width: 0.8"/>
      </g>
     </g>
     <g id="text_14">
      <!-- 4000 -->
      <g style="fill: #a9a9a9" transform="translate(75.55 179.712293) scale(0.1 -0.1)">
       <use xlink:href="#DejaVuSans-34"/>
       <use xlink:href="#DejaVuSans-30" transform="translate(63.623047 0)"/>
       <use xlink:href="#DejaVuSans-30" transform="translate(127.246094 0)"/>
       <use xlink:href="#DejaVuSans-30" transform="translate(190.869141 0)"/>
      </g>
     </g>
    </g>
    <g id="ytick_6">
     <g id="line2d_29">
      <path d="M 108 142.933098 
L 777.6 142.933098 
" clip-path="url(#pe13c0475fe)" style="fill: none; stroke-dasharray: 5.12,1.28,0.8,1.28; stroke-dashoffset: 0; stroke: #b0b0b0; stroke-width: 0.8"/>
     </g>
     <g id="line2d_30">
      <g>
       <use xlink:href="#me97836d41e" x="108" y="142.933098" style="fill: #a9a9a9; stroke: #a9a9a9; stroke-width: 0.8"/>
      </g>
     </g>
     <g id="text_15">
      <!-- 5000 -->
      <g style="fill: #a9a9a9" transform="translate(75.55 146.732317) scale(0.1 -0.1)">
       <use xlink:href="#DejaVuSans-35"/>
       <use xlink:href="#DejaVuSans-30" transform="translate(63.623047 0)"/>
       <use xlink:href="#DejaVuSans-30" transform="translate(127.246094 0)"/>
       <use xlink:href="#DejaVuSans-30" transform="translate(190.869141 0)"/>
      </g>
     </g>
    </g>
    <g id="ytick_7">
     <g id="line2d_31">
      <path d="M 108 109.953121 
L 777.6 109.953121 
" clip-path="url(#pe13c0475fe)" style="fill: none; stroke-dasharray: 5.12,1.28,0.8,1.28; stroke-dashoffset: 0; stroke: #b0b0b0; stroke-width: 0.8"/>
     </g>
     <g id="line2d_32">
      <g>
       <use xlink:href="#me97836d41e" x="108" y="109.953121" style="fill: #a9a9a9; stroke: #a9a9a9; stroke-width: 0.8"/>
      </g>
     </g>
     <g id="text_16">
      <!-- 6000 -->
      <g style="fill: #a9a9a9" transform="translate(75.55 113.75234) scale(0.1 -0.1)">
       <defs>
        <path id="DejaVuSans-36" d="M 2113 2584 
Q 1688 2584 1439 2293 
Q 1191 2003 1191 1497 
Q 1191 994 1439 701 
Q 1688 409 2113 409 
Q 2538 409 2786 701 
Q 3034 994 3034 1497 
Q 3034 2003 2786 2293 
Q 2538 2584 2113 2584 
z
M 3366 4563 
L 3366 3988 
Q 3128 4100 2886 4159 
Q 2644 4219 2406 4219 
Q 1781 4219 1451 3797 
Q 1122 3375 1075 2522 
Q 1259 2794 1537 2939 
Q 1816 3084 2150 3084 
Q 2853 3084 3261 2657 
Q 3669 2231 3669 1497 
Q 3669 778 3244 343 
Q 2819 -91 2113 -91 
Q 1303 -91 875 529 
Q 447 1150 447 2328 
Q 447 3434 972 4092 
Q 1497 4750 2381 4750 
Q 2619 4750 2861 4703 
Q 3103 4656 3366 4563 
z
" transform="scale(0.015625)"/>
       </defs>
       <use xlink:href="#DejaVuSans-36"/>
       <use xlink:href="#DejaVuSans-30" transform="translate(63.623047 0)"/>
       <use xlink:href="#DejaVuSans-30" transform="translate(127.246094 0)"/>
       <use xlink:href="#DejaVuSans-30" transform="translate(190.869141 0)"/>
      </g>
     </g>
    </g>
    <g id="ytick_8">
     <g id="line2d_33">
      <path d="M 108 76.973145 
L 777.6 76.973145 
" clip-path="url(#pe13c0475fe)" style="fill: none; stroke-dasharray: 5.12,1.28,0.8,1.28; stroke-dashoffset: 0; stroke: #b0b0b0; stroke-width: 0.8"/>
     </g>
     <g id="line2d_34">
      <g>
       <use xlink:href="#me97836d41e" x="108" y="76.973145" style="fill: #a9a9a9; stroke: #a9a9a9; stroke-width: 0.8"/>
      </g>
     </g>
     <g id="text_17">
      <!-- 7000 -->
      <g style="fill: #a9a9a9" transform="translate(75.55 80.772364) scale(0.1 -0.1)">
       <use xlink:href="#DejaVuSans-37"/>
       <use xlink:href="#DejaVuSans-30" transform="translate(63.623047 0)"/>
       <use xlink:href="#DejaVuSans-30" transform="translate(127.246094 0)"/>
       <use xlink:href="#DejaVuSans-30" transform="translate(190.869141 0)"/>
      </g>
     </g>
    </g>
    <g id="ytick_9">
     <g id="line2d_35">
      <path d="M 108 43.993168 
L 777.6 43.993168 
" clip-path="url(#pe13c0475fe)" style="fill: none; stroke-dasharray: 5.12,1.28,0.8,1.28; stroke-dashoffset: 0; stroke: #b0b0b0; stroke-width: 0.8"/>
     </g>
     <g id="line2d_36">
      <g>
       <use xlink:href="#me97836d41e" x="108" y="43.993168" style="fill: #a9a9a9; stroke: #a9a9a9; stroke-width: 0.8"/>
      </g>
     </g>
     <g id="text_18">
      <!-- 8000 -->
      <g style="fill: #a9a9a9" transform="translate(75.55 47.792387) scale(0.1 -0.1)">
       <defs>
        <path id="DejaVuSans-38" d="M 2034 2216 
Q 1584 2216 1326 1975 
Q 1069 1734 1069 1313 
Q 1069 891 1326 650 
Q 1584 409 2034 409 
Q 2484 409 2743 651 
Q 3003 894 3003 1313 
Q 3003 1734 2745 1975 
Q 2488 2216 2034 2216 
z
M 1403 2484 
Q 997 2584 770 2862 
Q 544 3141 544 3541 
Q 544 4100 942 4425 
Q 1341 4750 2034 4750 
Q 2731 4750 3128 4425 
Q 3525 4100 3525 3541 
Q 3525 3141 3298 2862 
Q 3072 2584 2669 2484 
Q 3125 2378 3379 2068 
Q 3634 1759 3634 1313 
Q 3634 634 3220 271 
Q 2806 -91 2034 -91 
Q 1263 -91 848 271 
Q 434 634 434 1313 
Q 434 1759 690 2068 
Q 947 2378 1403 2484 
z
M 1172 3481 
Q 1172 3119 1398 2916 
Q 1625 2713 2034 2713 
Q 2441 2713 2670 2916 
Q 2900 3119 2900 3481 
Q 2900 3844 2670 4047 
Q 2441 4250 2034 4250 
Q 1625 4250 1398 4047 
Q 1172 3844 1172 3481 
z
" transform="scale(0.015625)"/>
       </defs>
       <use xlink:href="#DejaVuSans-38"/>
       <use xlink:href="#DejaVuSans-30" transform="translate(63.623047 0)"/>
       <use xlink:href="#DejaVuSans-30" transform="translate(127.246094 0)"/>
       <use xlink:href="#DejaVuSans-30" transform="translate(190.869141 0)"/>
      </g>
     </g>
    </g>
   </g>
   <g id="line2d_37">
    <path d="M 138.436364 307.73404 
L 141.054545 307.50318 
L 141.490909 307.3053 
L 143.236364 307.074441 
L 144.981818 306.711661 
L 145.854545 306.579741 
L 148.036364 306.381861 
L 148.909091 306.019081 
L 149.345455 305.425442 
L 149.781818 305.128622 
L 150.218182 304.139223 
L 150.654545 304.073263 
L 151.090909 303.710483 
L 151.963636 303.248763 
L 153.709091 301.797644 
L 155.454545 300.907185 
L 156.763636 300.280565 
L 157.2 299.555006 
L 158.072727 298.895406 
L 158.509091 298.697527 
L 162.872727 298.037927 
L 163.309091 297.840047 
L 166.363636 297.576207 
L 168.109091 297.147468 
L 171.6 296.652768 
L 172.036364 296.421908 
L 172.472727 296.355948 
L 173.345455 296.059128 
L 176.4 295.531449 
L 177.272727 295.267609 
L 181.2 294.608009 
L 182.072727 294.41013 
L 182.945455 294.37715 
L 184.690909 293.94841 
L 185.127273 293.32179 
L 186.436364 292.794111 
L 187.745455 292.431331 
L 188.181818 292.200471 
L 189.054545 292.035571 
L 190.8 291.507892 
L 191.672727 291.441932 
L 192.545455 291.211072 
L 194.290909 290.749352 
L 194.727273 290.716372 
L 195.6 290.287633 
L 196.036364 290.221673 
L 196.472727 289.990813 
L 201.272727 289.166313 
L 203.018182 288.638634 
L 203.454545 288.341814 
L 205.636364 287.616254 
L 206.509091 286.989635 
L 207.818182 286.725795 
L 217.418182 283.856537 
L 217.854545 283.823557 
L 219.163636 283.427797 
L 219.6 283.427797 
L 220.036364 283.229918 
L 220.909091 283.130978 
L 221.345455 282.966078 
L 223.090909 282.900118 
L 223.963636 282.735218 
L 224.836364 282.273498 
L 226.145455 281.778799 
L 227.018182 281.317079 
L 227.890909 280.855359 
L 228.763636 280.558539 
L 229.2 280.42662 
L 230.072727 279.86596 
L 230.509091 279.37126 
L 231.381818 277.986101 
L 231.818182 277.854181 
L 232.254545 277.854181 
L 233.563636 277.062662 
L 234 276.831802 
L 234.436364 276.732862 
L 234.872727 276.304122 
L 235.745455 275.941343 
L 236.618182 275.512603 
L 238.8 272.643345 
L 241.418182 271.192226 
L 242.290909 270.466667 
L 242.727273 270.202827 
L 243.163636 269.576207 
L 243.6 268.553828 
L 244.036364 267.861249 
L 244.472727 267.498469 
L 244.909091 267.300589 
L 248.4 264.002591 
L 249.272727 263.178092 
L 251.890909 261.496113 
L 252.327273 261.331213 
L 254.072727 260.275854 
L 254.509091 260.077974 
L 256.690909 258.033216 
L 257.563636 257.670436 
L 258.436364 257.043816 
L 258.872727 256.779976 
L 259.309091 256.714016 
L 260.618182 255.955477 
L 261.054545 255.460777 
L 263.236364 254.240518 
L 263.672727 254.075618 
L 264.981818 253.152179 
L 271.527273 250.777621 
L 272.4 249.953121 
L 273.709091 249.293522 
L 274.581818 248.732862 
L 275.454545 248.469022 
L 275.890909 248.172203 
L 276.327273 248.040283 
L 277.636364 247.149823 
L 279.818182 246.655124 
L 281.127273 245.863604 
L 282.436364 245.566784 
L 282.872727 245.467845 
L 284.181818 244.445465 
L 285.927273 243.950766 
L 286.363636 243.587986 
L 288.981818 242.664547 
L 289.854545 242.499647 
L 290.727273 242.136867 
L 293.781818 240.982568 
L 294.654545 240.850648 
L 295.963636 240.388928 
L 298.145455 239.300589 
L 299.890909 238.31119 
L 303.381818 236.827091 
L 303.818182 236.761131 
L 304.690909 236.200471 
L 305.563636 235.969611 
L 306.872727 235.441932 
L 308.618182 235.211072 
L 309.490909 234.749352 
L 309.927273 234.353592 
L 310.363636 233.562073 
L 312.109091 233.067373 
L 313.418182 232.374794 
L 314.290909 232.077974 
L 315.163636 231.616254 
L 317.781818 230.527915 
L 318.654545 230.330035 
L 319.527273 229.868316 
L 319.963636 229.670436 
L 320.4 229.604476 
L 322.581818 228.516137 
L 323.454545 227.955477 
L 324.763636 227.691637 
L 326.945455 227.130978 
L 327.381818 226.768198 
L 328.254545 226.471378 
L 330.436364 225.580919 
L 330.872727 225.251119 
L 331.309091 225.086219 
L 332.181818 224.591519 
L 333.927273 224.03086 
L 334.8 223.4702 
L 335.236364 223.008481 
L 335.672727 222.744641 
L 336.109091 222.645701 
L 336.981818 221.920141 
L 337.418182 221.854181 
L 337.854545 221.128622 
L 338.290909 220.930742 
L 338.727273 220.567962 
L 339.163636 220.502002 
L 340.036364 219.941343 
L 340.909091 219.644523 
L 341.345455 219.314723 
L 341.781818 219.149823 
L 343.527273 217.962544 
L 344.836364 217.269965 
L 345.709091 217.039105 
L 346.581818 216.544405 
L 347.018182 215.785866 
L 347.890909 215.126266 
L 348.327273 215.027326 
L 350.945455 213.741107 
L 351.818182 213.378327 
L 352.690909 212.751708 
L 353.563636 211.861249 
L 357.490909 208.761131 
L 357.927273 208.398351 
L 358.8 208.101531 
L 359.672727 207.507892 
L 360.981818 206.815312 
L 361.418182 206.749352 
L 362.727273 206.023793 
L 363.6 205.463133 
L 367.963636 203.814134 
L 368.4 203.451355 
L 370.145455 202.758775 
L 370.581818 202.626855 
L 371.454545 202.033216 
L 372.327273 201.670436 
L 373.2 201.043816 
L 374.072727 199.262898 
L 374.945455 198.207538 
L 376.254545 197.514959 
L 377.127273 197.152179 
L 377.563636 197.086219 
L 378 196.822379 
L 380.181818 196.09682 
L 380.618182 195.89894 
L 381.490909 195.3053 
L 382.8 194.744641 
L 383.672727 194.249941 
L 384.545455 193.722261 
L 384.981818 193.425442 
L 385.418182 192.930742 
L 386.727273 192.172203 
L 387.163636 192.007303 
L 388.036364 191.479623 
L 389.781818 190.523204 
L 390.218182 190.424264 
L 390.654545 190.061484 
L 393.709091 189.039105 
L 394.145455 188.709305 
L 395.018182 188.445465 
L 395.890909 188.082686 
L 396.327273 187.719906 
L 398.072727 187.093286 
L 398.945455 186.466667 
L 399.818182 186.103887 
L 400.690909 185.411307 
L 401.563636 185.147468 
L 402 184.751708 
L 402.436364 184.685748 
L 403.309091 183.993168 
L 404.181818 183.531449 
L 404.618182 183.333569 
L 405.054545 182.871849 
L 408.109091 181.61861 
L 408.981818 181.22285 
L 410.290909 180.794111 
L 411.163636 180.662191 
L 411.6 180.464311 
L 412.036364 180.398351 
L 412.909091 180.002591 
L 413.345455 179.969611 
L 415.090909 179.310012 
L 416.4 178.353592 
L 416.836364 178.188693 
L 417.709091 177.693993 
L 418.145455 177.562073 
L 420.763636 176.077974 
L 421.2 175.979034 
L 422.509091 175.187515 
L 423.818182 174.725795 
L 424.690909 174.428975 
L 426.436364 173.835336 
L 427.309091 173.538516 
L 429.054545 173.175736 
L 429.490909 172.977856 
L 430.363636 172.746996 
L 430.8 172.549117 
L 431.236364 172.483157 
L 431.672727 172.252297 
L 432.545455 172.087397 
L 433.854545 171.592697 
L 434.727273 171.493757 
L 436.036364 171.196938 
L 438.218182 170.801178 
L 449.563636 167.37126 
L 450 166.909541 
L 452.618182 165.821201 
L 454.363636 165.227562 
L 454.8 164.963722 
L 456.109091 164.567962 
L 456.981818 164.337102 
L 457.418182 164.040283 
L 457.854545 163.941343 
L 458.290909 163.545583 
L 459.6 163.281743 
L 460.472727 162.853004 
L 460.909091 162.325324 
L 462.654545 161.896584 
L 465.709091 161.236985 
L 466.145455 161.236985 
L 466.581818 161.039105 
L 468.327273 160.709305 
L 468.763636 160.511425 
L 470.509091 160.181625 
L 471.381818 159.818846 
L 472.254545 159.653946 
L 474.436364 159.093286 
L 476.181818 158.532627 
L 476.618182 158.433687 
L 477.054545 158.202827 
L 477.927273 157.971967 
L 478.8 157.609187 
L 479.672727 157.279388 
L 480.109091 156.982568 
L 480.981818 156.718728 
L 484.036364 155.564429 
L 485.781818 155.333569 
L 489.272727 154.04735 
L 489.709091 153.71755 
L 490.145455 153.61861 
L 490.581818 153.38775 
L 491.018182 153.35477 
L 495.818182 151.606832 
L 498 151.013192 
L 498.872727 150.584452 
L 500.181818 150.287633 
L 501.927273 148.836514 
L 503.672727 148.077974 
L 504.545455 147.682214 
L 507.163636 146.659835 
L 507.6 146.363015 
L 509.781818 145.637456 
L 511.090909 144.878916 
L 511.527273 144.779976 
L 513.272727 143.790577 
L 515.018182 142.999058 
L 515.454545 142.669258 
L 516.327273 142.372438 
L 518.509091 141.251119 
L 519.818182 140.789399 
L 521.563636 140.06384 
L 522.872727 139.56914 
L 523.309091 139.40424 
L 524.181818 139.27232 
L 524.618182 138.975501 
L 526.363636 138.612721 
L 527.236364 138.249941 
L 528.981818 137.425442 
L 535.090909 134.721084 
L 536.4 134.292344 
L 536.836364 133.995524 
L 537.709091 133.896584 
L 538.145455 133.599764 
L 539.018182 133.434865 
L 539.890909 133.006125 
L 540.327273 132.808245 
L 541.2 132.577385 
L 542.072727 132.313545 
L 543.381818 131.818846 
L 544.690909 131.390106 
L 546 131.093286 
L 547.745455 130.367727 
L 548.618182 129.873027 
L 550.363636 128.982568 
L 551.236364 128.784688 
L 551.672727 128.520848 
L 552.109091 128.421908 
L 553.418182 127.663369 
L 554.290909 127.300589 
L 563.890909 123.573852 
L 565.636364 122.749352 
L 570 121.034393 
L 570.872727 120.605654 
L 571.309091 120.506714 
L 571.745455 120.275854 
L 573.490909 119.781154 
L 575.236364 118.330035 
L 575.672727 118.198115 
L 576.109091 117.934276 
L 577.418182 117.571496 
L 577.854545 117.241696 
L 578.290909 117.142756 
L 579.6 116.351237 
L 580.036364 116.054417 
L 581.345455 115.559717 
L 581.781818 115.328857 
L 583.090909 115.032038 
L 585.272727 114.273498 
L 586.145455 113.976678 
L 587.454545 113.317079 
L 588.327273 112.888339 
L 589.2 112.657479 
L 590.509091 112.03086 
L 594.436364 110.546761 
L 595.745455 109.722261 
L 596.181818 109.623322 
L 597.054545 109.194582 
L 597.927273 108.864782 
L 598.363636 108.469022 
L 599.236364 108.106243 
L 600.545455 107.644523 
L 600.981818 107.281743 
L 601.418182 107.248763 
L 602.290909 106.984923 
L 603.163636 106.688104 
L 603.6 106.490224 
L 604.036364 106.424264 
L 605.345455 105.929564 
L 606.654545 105.434865 
L 608.4 104.643345 
L 609.272727 104.412485 
L 609.709091 104.148645 
L 610.581818 103.917786 
L 611.890909 103.159246 
L 612.327273 103.126266 
L 613.636364 102.697527 
L 614.509091 102.631567 
L 614.945455 102.400707 
L 615.818182 102.169847 
L 616.254545 101.938987 
L 618.436364 101.510247 
L 619.309091 101.345347 
L 620.618182 100.850648 
L 621.927273 100.553828 
L 623.236364 99.861249 
L 623.672727 99.465489 
L 624.981818 98.673969 
L 625.418182 98.34417 
L 626.727273 97.91543 
L 627.6 97.65159 
L 628.036364 97.42073 
L 628.472727 97.32179 
L 628.909091 96.959011 
L 631.527273 95.837691 
L 633.272727 95.375972 
L 634.145455 94.980212 
L 634.581818 94.749352 
L 635.454545 94.485512 
L 635.890909 94.221673 
L 636.763636 94.056773 
L 640.254545 92.539694 
L 640.690909 92.473734 
L 642 91.616254 
L 642.436364 91.550294 
L 644.181818 90.857715 
L 645.927273 90.428975 
L 646.363636 90.363015 
L 646.8 90.165135 
L 647.236364 90.132155 
L 648.109091 89.835336 
L 648.545455 89.802356 
L 649.854545 89.274676 
L 651.6 88.779976 
L 652.472727 88.120377 
L 654.218182 87.130978 
L 655.527273 86.669258 
L 659.018182 84.987279 
L 659.454545 84.756419 
L 659.890909 84.36066 
L 662.072727 83.76702 
L 663.381818 83.17338 
L 664.254545 82.942521 
L 664.690909 82.711661 
L 665.127273 82.348881 
L 666.872727 81.887161 
L 667.309091 81.557362 
L 672.981818 79.479623 
L 673.854545 79.314723 
L 676.036364 78.622144 
L 676.909091 78.259364 
L 677.781818 77.929564 
L 678.654545 77.698704 
L 679.090909 77.500824 
L 679.527273 77.500824 
L 680.4 77.138045 
L 681.272727 76.610365 
L 684.327273 75.587986 
L 686.072727 74.994346 
L 687.381818 74.697527 
L 688.690909 74.268787 
L 689.127273 74.169847 
L 689.563636 73.873027 
L 690.436364 73.675147 
L 692.181818 73.180448 
L 692.618182 73.147468 
L 693.490909 72.751708 
L 696.545455 71.993168 
L 697.418182 71.630389 
L 701.781818 70.640989 
L 703.090909 69.94841 
L 704.4 69.55265 
L 708.763636 67.936631 
L 709.2 67.606832 
L 710.509091 67.310012 
L 711.381818 67.046172 
L 712.254545 66.617432 
L 712.690909 66.254653 
L 713.563636 65.990813 
L 714 65.726973 
L 714.872727 65.628033 
L 717.927273 64.770554 
L 719.236364 64.506714 
L 721.854545 63.649234 
L 723.6 62.824735 
L 728.4 61.043816 
L 729.272727 60.911896 
L 730.145455 60.746996 
L 730.581818 60.746996 
L 732.327273 60.186337 
L 732.763636 60.120377 
L 733.636364 59.757597 
L 734.509091 59.526737 
L 737.127273 58.801178 
L 738 58.570318 
L 738.436364 58.471378 
L 738.872727 58.207538 
L 739.745455 58.042638 
L 740.618182 57.943698 
L 741.054545 57.712839 
L 741.490909 57.679859 
L 742.363636 57.119199 
L 744.109091 56.723439 
L 744.981818 56.32768 
L 745.854545 56.03086 
L 747.163636 55.8 
L 747.163636 55.8 
" clip-path="url(#pe13c0475fe)" style="fill: none; stroke: #1f77b4; stroke-width: 1.5; stroke-linecap: square"/>
   </g>
   <g id="line2d_38">
    <path d="M 138.872727 307.8 
L 142.8 307.70106 
L 146.290909 307.53616 
L 148.036364 307.53616 
L 148.472727 307.40424 
L 150.654545 307.3053 
L 153.272727 307.008481 
L 155.890909 306.909541 
L 156.763636 306.810601 
L 159.818182 306.678681 
L 162.872727 306.579741 
L 165.054545 306.513781 
L 170.727273 306.414841 
L 172.909091 306.348881 
L 176.836364 306.249941 
L 178.581818 306.216961 
L 182.945455 306.118021 
L 184.690909 305.953121 
L 186.436364 305.920141 
L 189.054545 305.821201 
L 190.8 305.788221 
L 192.981818 305.722261 
L 194.727273 305.557362 
L 198.654545 305.458422 
L 199.527273 305.392462 
L 201.272727 305.293522 
L 203.890909 305.194582 
L 205.636364 305.095642 
L 213.490909 304.600942 
L 216.545455 304.502002 
L 217.854545 304.370082 
L 220.036364 304.271143 
L 224.4 304.040283 
L 228.763636 303.974323 
L 230.509091 303.776443 
L 232.254545 303.677503 
L 237.054545 303.215783 
L 240.109091 302.853004 
L 241.418182 302.787044 
L 244.909091 302.325324 
L 247.527273 302.259364 
L 248.836364 302.127444 
L 250.145455 302.028504 
L 262.363636 301.072085 
L 263.236364 300.907185 
L 265.854545 300.808245 
L 272.836364 300.379505 
L 275.890909 300.280565 
L 277.636364 300.082686 
L 279.818182 299.983746 
L 282.436364 299.884806 
L 284.618182 299.785866 
L 286.363636 299.752886 
L 288.545455 299.686926 
L 289.418182 299.555006 
L 295.527273 299.456066 
L 296.4 299.357126 
L 301.636364 299.258186 
L 305.563636 299.060306 
L 308.618182 298.961366 
L 310.363636 298.763486 
L 313.418182 298.664547 
L 314.290909 298.499647 
L 316.472727 298.433687 
L 320.836364 298.367727 
L 322.581818 298.202827 
L 324.327273 298.169847 
L 325.636364 298.070907 
L 327.381818 297.906007 
L 331.745455 297.675147 
L 336.109091 297.576207 
L 340.036364 297.378327 
L 341.345455 297.345347 
L 342.218182 297.213428 
L 344.4 297.114488 
L 345.272727 297.048528 
L 346.145455 296.982568 
L 347.018182 296.916608 
L 350.945455 296.850648 
L 352.254545 296.751708 
L 364.036364 295.960188 
L 366.218182 295.861249 
L 368.4 295.795289 
L 374.509091 295.696349 
L 375.381818 295.564429 
L 381.490909 295.465489 
L 385.854545 295.234629 
L 386.727273 295.201649 
L 387.6 295.102709 
L 389.781818 295.003769 
L 391.963636 294.937809 
L 394.145455 294.838869 
L 396.327273 294.772909 
L 400.254545 294.673969 
L 402.872727 294.575029 
L 408.981818 294.47609 
L 413.781818 294.21225 
L 415.527273 294.14629 
L 416.836364 294.04735 
L 422.945455 293.94841 
L 425.563636 293.84947 
L 433.418182 293.75053 
L 435.163636 293.71755 
L 440.4 293.65159 
L 441.272727 293.58563 
L 447.381818 293.48669 
L 449.127273 293.45371 
L 460.472727 293.35477 
L 463.090909 293.25583 
L 481.418182 293.15689 
L 483.6 293.090931 
L 494.945455 293.024971 
L 495.818182 292.959011 
L 498 292.893051 
L 499.309091 292.761131 
L 501.927273 292.662191 
L 504.981818 292.530271 
L 508.909091 292.431331 
L 511.090909 292.365371 
L 514.145455 292.266431 
L 517.636364 292.101531 
L 519.818182 292.002591 
L 521.563636 291.969611 
L 525.490909 291.870671 
L 527.236364 291.837691 
L 532.909091 291.738751 
L 534.654545 291.705771 
L 536.836364 291.606832 
L 539.454545 291.507892 
L 542.509091 291.441932 
L 543.381818 291.375972 
L 553.854545 291.277032 
L 559.527273 290.947232 
L 561.709091 290.881272 
L 562.581818 290.782332 
L 563.454545 290.716372 
L 566.945455 290.617432 
L 569.563636 290.518492 
L 573.927273 290.419552 
L 576.109091 290.188693 
L 580.472727 290.089753 
L 581.345455 289.990813 
L 585.709091 289.891873 
L 587.890909 289.825913 
L 592.690909 289.792933 
L 593.563636 289.693993 
L 598.363636 289.595053 
L 599.236364 289.529093 
L 608.836364 289.430153 
L 611.454545 289.331213 
L 618 289.232273 
L 619.745455 289.199293 
L 623.672727 289.133333 
L 624.545455 289.034393 
L 630.218182 288.935453 
L 632.4 288.869494 
L 640.254545 288.770554 
L 641.563636 288.671614 
L 642.872727 288.572674 
L 644.181818 288.473734 
L 650.727273 288.374794 
L 653.345455 288.275854 
L 665.127273 288.176914 
L 669.054545 287.979034 
L 674.290909 287.880094 
L 675.163636 287.814134 
L 681.709091 287.748174 
L 682.581818 287.682214 
L 687.381818 287.583274 
L 689.127273 287.550294 
L 695.236364 287.451355 
L 697.854545 287.352415 
L 705.272727 287.253475 
L 707.018182 287.220495 
L 710.945455 287.121555 
L 714.436364 286.956655 
L 719.236364 286.857715 
L 722.290909 286.725795 
L 726.218182 286.626855 
L 727.090909 286.560895 
L 735.818182 286.461955 
L 738 286.395995 
L 740.618182 286.297055 
L 743.236364 286.198115 
L 747.163636 286.132155 
L 747.163636 286.132155 
" clip-path="url(#pe13c0475fe)" style="fill: none; stroke: #ff7f0e; stroke-width: 1.5; stroke-linecap: square"/>
   </g>
   <g id="patch_3">
    <path d="M 108 320.4 
L 108 43.2 
" style="fill: none; stroke: #a9a9a9; stroke-width: 0.8; stroke-linejoin: miter; stroke-linecap: square"/>
   </g>
   <g id="patch_4">
    <path d="M 777.6 320.4 
L 777.6 43.2 
" style="fill: none"/>
   </g>
   <g id="patch_5">
    <path d="M 108 320.4 
L 777.6 320.4 
" style="fill: none; stroke: #a9a9a9; stroke-width: 0.8; stroke-linejoin: miter; stroke-linecap: square"/>
   </g>
   <g id="patch_6">
    <path d="M 108 43.2 
L 777.6 43.2 
" style="fill: none"/>
   </g>
   <g id="text_19">
    <!-- get_subscribe history -->
    <g style="fill: #a9a9a9" transform="translate(378.6075 37.2) scale(0.12 -0.12)">
     <defs>
      <path id="DejaVuSans-67" d="M 2906 1791 
Q 2906 2416 2648 2759 
Q 2391 3103 1925 3103 
Q 1463 3103 1205 2759 
Q 947 2416 947 1791 
Q 947 1169 1205 825 
Q 1463 481 1925 481 
Q 2391 481 2648 825 
Q 2906 1169 2906 1791 
z
M 3481 434 
Q 3481 -459 3084 -895 
Q 2688 -1331 1869 -1331 
Q 1566 -1331 1297 -1286 
Q 1028 -1241 775 -1147 
L 775 -588 
Q 1028 -725 1275 -790 
Q 1522 -856 1778 -856 
Q 2344 -856 2625 -561 
Q 2906 -266 2906 331 
L 2906 616 
Q 2728 306 2450 153 
Q 2172 0 1784 0 
Q 1141 0 747 490 
Q 353 981 353 1791 
Q 353 2603 747 3093 
Q 1141 3584 1784 3584 
Q 2172 3584 2450 3431 
Q 2728 3278 2906 2969 
L 2906 3500 
L 3481 3500 
L 3481 434 
z
" transform="scale(0.015625)"/>
      <path id="DejaVuSans-65" d="M 3597 1894 
L 3597 1613 
L 953 1613 
Q 991 1019 1311 708 
Q 1631 397 2203 397 
Q 2534 397 2845 478 
Q 3156 559 3463 722 
L 3463 178 
Q 3153 47 2828 -22 
Q 2503 -91 2169 -91 
Q 1331 -91 842 396 
Q 353 884 353 1716 
Q 353 2575 817 3079 
Q 1281 3584 2069 3584 
Q 2775 3584 3186 3129 
Q 3597 2675 3597 1894 
z
M 3022 2063 
Q 3016 2534 2758 2815 
Q 2500 3097 2075 3097 
Q 1594 3097 1305 2825 
Q 1016 2553 972 2059 
L 3022 2063 
z
" transform="scale(0.015625)"/>
      <path id="DejaVuSans-74" d="M 1172 4494 
L 1172 3500 
L 2356 3500 
L 2356 3053 
L 1172 3053 
L 1172 1153 
Q 1172 725 1289 603 
Q 1406 481 1766 481 
L 2356 481 
L 2356 0 
L 1766 0 
Q 1100 0 847 248 
Q 594 497 594 1153 
L 594 3053 
L 172 3053 
L 172 3500 
L 594 3500 
L 594 4494 
L 1172 4494 
z
" transform="scale(0.015625)"/>
      <path id="DejaVuSans-5f" d="M 3263 -1063 
L 3263 -1509 
L -63 -1509 
L -63 -1063 
L 3263 -1063 
z
" transform="scale(0.015625)"/>
      <path id="DejaVuSans-73" d="M 2834 3397 
L 2834 2853 
Q 2591 2978 2328 3040 
Q 2066 3103 1784 3103 
Q 1356 3103 1142 2972 
Q 928 2841 928 2578 
Q 928 2378 1081 2264 
Q 1234 2150 1697 2047 
L 1894 2003 
Q 2506 1872 2764 1633 
Q 3022 1394 3022 966 
Q 3022 478 2636 193 
Q 2250 -91 1575 -91 
Q 1294 -91 989 -36 
Q 684 19 347 128 
L 347 722 
Q 666 556 975 473 
Q 1284 391 1588 391 
Q 1994 391 2212 530 
Q 2431 669 2431 922 
Q 2431 1156 2273 1281 
Q 2116 1406 1581 1522 
L 1381 1569 
Q 847 1681 609 1914 
Q 372 2147 372 2553 
Q 372 3047 722 3315 
Q 1072 3584 1716 3584 
Q 2034 3584 2315 3537 
Q 2597 3491 2834 3397 
z
" transform="scale(0.015625)"/>
      <path id="DejaVuSans-75" d="M 544 1381 
L 544 3500 
L 1119 3500 
L 1119 1403 
Q 1119 906 1312 657 
Q 1506 409 1894 409 
Q 2359 409 2629 706 
Q 2900 1003 2900 1516 
L 2900 3500 
L 3475 3500 
L 3475 0 
L 2900 0 
L 2900 538 
Q 2691 219 2414 64 
Q 2138 -91 1772 -91 
Q 1169 -91 856 284 
Q 544 659 544 1381 
z
M 1991 3584 
L 1991 3584 
z
" transform="scale(0.015625)"/>
      <path id="DejaVuSans-62" d="M 3116 1747 
Q 3116 2381 2855 2742 
Q 2594 3103 2138 3103 
Q 1681 3103 1420 2742 
Q 1159 2381 1159 1747 
Q 1159 1113 1420 752 
Q 1681 391 2138 391 
Q 2594 391 2855 752 
Q 3116 1113 3116 1747 
z
M 1159 2969 
Q 1341 3281 1617 3432 
Q 1894 3584 2278 3584 
Q 2916 3584 3314 3078 
Q 3713 2572 3713 1747 
Q 3713 922 3314 415 
Q 2916 -91 2278 -91 
Q 1894 -91 1617 61 
Q 1341 213 1159 525 
L 1159 0 
L 581 0 
L 581 4863 
L 1159 4863 
L 1159 2969 
z
" transform="scale(0.015625)"/>
      <path id="DejaVuSans-63" d="M 3122 3366 
L 3122 2828 
Q 2878 2963 2633 3030 
Q 2388 3097 2138 3097 
Q 1578 3097 1268 2742 
Q 959 2388 959 1747 
Q 959 1106 1268 751 
Q 1578 397 2138 397 
Q 2388 397 2633 464 
Q 2878 531 3122 666 
L 3122 134 
Q 2881 22 2623 -34 
Q 2366 -91 2075 -91 
Q 1284 -91 818 406 
Q 353 903 353 1747 
Q 353 2603 823 3093 
Q 1294 3584 2113 3584 
Q 2378 3584 2631 3529 
Q 2884 3475 3122 3366 
z
" transform="scale(0.015625)"/>
      <path id="DejaVuSans-72" d="M 2631 2963 
Q 2534 3019 2420 3045 
Q 2306 3072 2169 3072 
Q 1681 3072 1420 2755 
Q 1159 2438 1159 1844 
L 1159 0 
L 581 0 
L 581 3500 
L 1159 3500 
L 1159 2956 
Q 1341 3275 1631 3429 
Q 1922 3584 2338 3584 
Q 2397 3584 2469 3576 
Q 2541 3569 2628 3553 
L 2631 2963 
z
" transform="scale(0.015625)"/>
      <path id="DejaVuSans-69" d="M 603 3500 
L 1178 3500 
L 1178 0 
L 603 0 
L 603 3500 
z
M 603 4863 
L 1178 4863 
L 1178 4134 
L 603 4134 
L 603 4863 
z
" transform="scale(0.015625)"/>
      <path id="DejaVuSans-20" transform="scale(0.015625)"/>
      <path id="DejaVuSans-68" d="M 3513 2113 
L 3513 0 
L 2938 0 
L 2938 2094 
Q 2938 2591 2744 2837 
Q 2550 3084 2163 3084 
Q 1697 3084 1428 2787 
Q 1159 2491 1159 1978 
L 1159 0 
L 581 0 
L 581 4863 
L 1159 4863 
L 1159 2956 
Q 1366 3272 1645 3428 
Q 1925 3584 2291 3584 
Q 2894 3584 3203 3211 
Q 3513 2838 3513 2113 
z
" transform="scale(0.015625)"/>
      <path id="DejaVuSans-6f" d="M 1959 3097 
Q 1497 3097 1228 2736 
Q 959 2375 959 1747 
Q 959 1119 1226 758 
Q 1494 397 1959 397 
Q 2419 397 2687 759 
Q 2956 1122 2956 1747 
Q 2956 2369 2687 2733 
Q 2419 3097 1959 3097 
z
M 1959 3584 
Q 2709 3584 3137 3096 
Q 3566 2609 3566 1747 
Q 3566 888 3137 398 
Q 2709 -91 1959 -91 
Q 1206 -91 779 398 
Q 353 888 353 1747 
Q 353 2609 779 3096 
Q 1206 3584 1959 3584 
z
" transform="scale(0.015625)"/>
      <path id="DejaVuSans-79" d="M 2059 -325 
Q 1816 -950 1584 -1140 
Q 1353 -1331 966 -1331 
L 506 -1331 
L 506 -850 
L 844 -850 
Q 1081 -850 1212 -737 
Q 1344 -625 1503 -206 
L 1606 56 
L 191 3500 
L 800 3500 
L 1894 763 
L 2988 3500 
L 3597 3500 
L 2059 -325 
z
" transform="scale(0.015625)"/>
     </defs>
     <use xlink:href="#DejaVuSans-67"/>
     <use xlink:href="#DejaVuSans-65" transform="translate(63.476562 0)"/>
     <use xlink:href="#DejaVuSans-74" transform="translate(125 0)"/>
     <use xlink:href="#DejaVuSans-5f" transform="translate(164.208984 0)"/>
     <use xlink:href="#DejaVuSans-73" transform="translate(214.208984 0)"/>
     <use xlink:href="#DejaVuSans-75" transform="translate(266.308594 0)"/>
     <use xlink:href="#DejaVuSans-62" transform="translate(329.6875 0)"/>
     <use xlink:href="#DejaVuSans-73" transform="translate(393.164062 0)"/>
     <use xlink:href="#DejaVuSans-63" transform="translate(445.263672 0)"/>
     <use xlink:href="#DejaVuSans-72" transform="translate(500.244141 0)"/>
     <use xlink:href="#DejaVuSans-69" transform="translate(541.357422 0)"/>
     <use xlink:href="#DejaVuSans-62" transform="translate(569.140625 0)"/>
     <use xlink:href="#DejaVuSans-65" transform="translate(632.617188 0)"/>
     <use xlink:href="#DejaVuSans-20" transform="translate(694.140625 0)"/>
     <use xlink:href="#DejaVuSans-68" transform="translate(725.927734 0)"/>
     <use xlink:href="#DejaVuSans-69" transform="translate(789.306641 0)"/>
     <use xlink:href="#DejaVuSans-73" transform="translate(817.089844 0)"/>
     <use xlink:href="#DejaVuSans-74" transform="translate(869.189453 0)"/>
     <use xlink:href="#DejaVuSans-6f" transform="translate(908.398438 0)"/>
     <use xlink:href="#DejaVuSans-72" transform="translate(969.580078 0)"/>
     <use xlink:href="#DejaVuSans-79" transform="translate(1010.693359 0)"/>
    </g>
   </g>
   <g id="legend_1">
    <g id="line2d_39">
     <path d="M 815.08 328.498438 
L 825.08 328.498438 
L 835.08 328.498438 
" style="fill: none; stroke: #1f77b4; stroke-width: 1.5; stroke-linecap: square"/>
    </g>
    <g id="text_20">
     <!-- star -->
     <g style="fill: #a9a9a9" transform="translate(843.08 331.998438) scale(0.1 -0.1)">
      <defs>
       <path id="DejaVuSans-61" d="M 2194 1759 
Q 1497 1759 1228 1600 
Q 959 1441 959 1056 
Q 959 750 1161 570 
Q 1363 391 1709 391 
Q 2188 391 2477 730 
Q 2766 1069 2766 1631 
L 2766 1759 
L 2194 1759 
z
M 3341 1997 
L 3341 0 
L 2766 0 
L 2766 531 
Q 2569 213 2275 61 
Q 1981 -91 1556 -91 
Q 1019 -91 701 211 
Q 384 513 384 1019 
Q 384 1609 779 1909 
Q 1175 2209 1959 2209 
L 2766 2209 
L 2766 2266 
Q 2766 2663 2505 2880 
Q 2244 3097 1772 3097 
Q 1472 3097 1187 3025 
Q 903 2953 641 2809 
L 641 3341 
Q 956 3463 1253 3523 
Q 1550 3584 1831 3584 
Q 2591 3584 2966 3190 
Q 3341 2797 3341 1997 
z
" transform="scale(0.015625)"/>
      </defs>
      <use xlink:href="#DejaVuSans-73"/>
      <use xlink:href="#DejaVuSans-74" transform="translate(52.099609 0)"/>
      <use xlink:href="#DejaVuSans-61" transform="translate(91.308594 0)"/>
      <use xlink:href="#DejaVuSans-72" transform="translate(152.587891 0)"/>
     </g>
    </g>
    <g id="line2d_40">
     <path d="M 815.08 343.176562 
L 825.08 343.176562 
L 835.08 343.176562 
" style="fill: none; stroke: #ff7f0e; stroke-width: 1.5; stroke-linecap: square"/>
    </g>
    <g id="text_21">
     <!-- fork -->
     <g style="fill: #a9a9a9" transform="translate(843.08 346.676562) scale(0.1 -0.1)">
      <defs>
       <path id="DejaVuSans-66" d="M 2375 4863 
L 2375 4384 
L 1825 4384 
Q 1516 4384 1395 4259 
Q 1275 4134 1275 3809 
L 1275 3500 
L 2222 3500 
L 2222 3053 
L 1275 3053 
L 1275 0 
L 697 0 
L 697 3053 
L 147 3053 
L 147 3500 
L 697 3500 
L 697 3744 
Q 697 4328 969 4595 
Q 1241 4863 1831 4863 
L 2375 4863 
z
" transform="scale(0.015625)"/>
       <path id="DejaVuSans-6b" d="M 581 4863 
L 1159 4863 
L 1159 1991 
L 2875 3500 
L 3609 3500 
L 1753 1863 
L 3688 0 
L 2938 0 
L 1159 1709 
L 1159 0 
L 581 0 
L 581 4863 
z
" transform="scale(0.015625)"/>
      </defs>
      <use xlink:href="#DejaVuSans-66"/>
      <use xlink:href="#DejaVuSans-6f" transform="translate(35.205078 0)"/>
      <use xlink:href="#DejaVuSans-72" transform="translate(96.386719 0)"/>
      <use xlink:href="#DejaVuSans-6b" transform="translate(137.5 0)"/>
     </g>
    </g>
   </g>
  </g>
 </g>
 <defs>
  <clipPath id="pe13c0475fe">
   <rect x="108" y="43.2" width="669.6" height="277.2"/>
  </clipPath>
 </defs>
</svg>
