<?xml version="1.0" encoding="utf-8" standalone="no"?>
<!DOCTYPE svg PUBLIC "-//W3C//DTD SVG 1.1//EN"
  "http://www.w3.org/Graphics/SVG/1.1/DTD/svg11.dtd">
<svg xmlns:xlink="http://www.w3.org/1999/xlink" width="864pt" height="360pt" viewBox="0 0 864 360" xmlns="http://www.w3.org/2000/svg" version="1.1">
 <metadata>
  <rdf:RDF xmlns:dc="http://purl.org/dc/elements/1.1/" xmlns:cc="http://creativecommons.org/ns#" xmlns:rdf="http://www.w3.org/1999/02/22-rdf-syntax-ns#">
   <cc:Work>
    <dc:type rdf:resource="http://purl.org/dc/dcmitype/StillImage"/>
    <dc:date>2024-06-17T08:11:53.016314</dc:date>
    <dc:format>image/svg+xml</dc:format>
    <dc:creator>
     <cc:Agent>
      <dc:title>Matplotlib v3.9.0, https://matplotlib.org/</dc:title>
     </cc:Agent>
    </dc:creator>
   </cc:Work>
  </rdf:RDF>
 </metadata>
 <defs>
  <style type="text/css">*{stroke-linejoin: round; stroke-linecap: butt}</style>
 </defs>
 <g id="figure_1">
  <g id="patch_1">
   <path d="M 0 360 
L 864 360 
L 864 0 
L 0 0 
L 0 360 
z
" style="fill: none; opacity: 0"/>
  </g>
  <g id="axes_1">
   <g id="patch_2">
    <path d="M 108 320.4 
L 777.6 320.4 
L 777.6 43.2 
L 108 43.2 
L 108 320.4 
z
" style="fill: none; opacity: 0"/>
   </g>
   <g id="matplotlib.axis_1">
    <g id="xtick_1">
     <g id="line2d_1">
      <path d="M 160.854082 320.4 
L 160.854082 43.2 
" clip-path="url(#pea38d09e39)" style="fill: none; stroke-dasharray: 5.12,1.28,0.8,1.28; stroke-dashoffset: 0; stroke: #b0b0b0; stroke-width: 0.8"/>
     </g>
     <g id="line2d_2">
      <defs>
       <path id="mcdac406b76" d="M 0 0 
L 0 3.5 
" style="stroke: #a9a9a9; stroke-width: 0.8"/>
      </defs>
      <g>
       <use xlink:href="#mcdac406b76" x="160.854082" y="320.4" style="fill: #a9a9a9; stroke: #a9a9a9; stroke-width: 0.8"/>
      </g>
     </g>
     <g id="text_1">
      <!-- 2021-09 -->
      <g style="fill: #a9a9a9" transform="translate(139.962676 334.998438) scale(0.1 -0.1)">
       <defs>
        <path id="DejaVuSans-32" d="M 1228 531 
L 3431 531 
L 3431 0 
L 469 0 
L 469 531 
Q 828 903 1448 1529 
Q 2069 2156 2228 2338 
Q 2531 2678 2651 2914 
Q 2772 3150 2772 3378 
Q 2772 3750 2511 3984 
Q 2250 4219 1831 4219 
Q 1534 4219 1204 4116 
Q 875 4013 500 3803 
L 500 4441 
Q 881 4594 1212 4672 
Q 1544 4750 1819 4750 
Q 2544 4750 2975 4387 
Q 3406 4025 3406 3419 
Q 3406 3131 3298 2873 
Q 3191 2616 2906 2266 
Q 2828 2175 2409 1742 
Q 1991 1309 1228 531 
z
" transform="scale(0.015625)"/>
        <path id="DejaVuSans-30" d="M 2034 4250 
Q 1547 4250 1301 3770 
Q 1056 3291 1056 2328 
Q 1056 1369 1301 889 
Q 1547 409 2034 409 
Q 2525 409 2770 889 
Q 3016 1369 3016 2328 
Q 3016 3291 2770 3770 
Q 2525 4250 2034 4250 
z
M 2034 4750 
Q 2819 4750 3233 4129 
Q 3647 3509 3647 2328 
Q 3647 1150 3233 529 
Q 2819 -91 2034 -91 
Q 1250 -91 836 529 
Q 422 1150 422 2328 
Q 422 3509 836 4129 
Q 1250 4750 2034 4750 
z
" transform="scale(0.015625)"/>
        <path id="DejaVuSans-31" d="M 794 531 
L 1825 531 
L 1825 4091 
L 703 3866 
L 703 4441 
L 1819 4666 
L 2450 4666 
L 2450 531 
L 3481 531 
L 3481 0 
L 794 0 
L 794 531 
z
" transform="scale(0.015625)"/>
        <path id="DejaVuSans-2d" d="M 313 2009 
L 1997 2009 
L 1997 1497 
L 313 1497 
L 313 2009 
z
" transform="scale(0.015625)"/>
        <path id="DejaVuSans-39" d="M 703 97 
L 703 672 
Q 941 559 1184 500 
Q 1428 441 1663 441 
Q 2288 441 2617 861 
Q 2947 1281 2994 2138 
Q 2813 1869 2534 1725 
Q 2256 1581 1919 1581 
Q 1219 1581 811 2004 
Q 403 2428 403 3163 
Q 403 3881 828 4315 
Q 1253 4750 1959 4750 
Q 2769 4750 3195 4129 
Q 3622 3509 3622 2328 
Q 3622 1225 3098 567 
Q 2575 -91 1691 -91 
Q 1453 -91 1209 -44 
Q 966 3 703 97 
z
M 1959 2075 
Q 2384 2075 2632 2365 
Q 2881 2656 2881 3163 
Q 2881 3666 2632 3958 
Q 2384 4250 1959 4250 
Q 1534 4250 1286 3958 
Q 1038 3666 1038 3163 
Q 1038 2656 1286 2365 
Q 1534 2075 1959 2075 
z
" transform="scale(0.015625)"/>
       </defs>
       <use xlink:href="#DejaVuSans-32"/>
       <use xlink:href="#DejaVuSans-30" x="63.623047"/>
       <use xlink:href="#DejaVuSans-32" x="127.246094"/>
       <use xlink:href="#DejaVuSans-31" x="190.869141"/>
       <use xlink:href="#DejaVuSans-2d" x="254.492188"/>
       <use xlink:href="#DejaVuSans-30" x="290.576172"/>
       <use xlink:href="#DejaVuSans-39" x="354.199219"/>
      </g>
     </g>
    </g>
    <g id="xtick_2">
     <g id="line2d_3">
      <path d="M 230.981303 320.4 
L 230.981303 43.2 
" clip-path="url(#pea38d09e39)" style="fill: none; stroke-dasharray: 5.12,1.28,0.8,1.28; stroke-dashoffset: 0; stroke: #b0b0b0; stroke-width: 0.8"/>
     </g>
     <g id="line2d_4">
      <g>
       <use xlink:href="#mcdac406b76" x="230.981303" y="320.4" style="fill: #a9a9a9; stroke: #a9a9a9; stroke-width: 0.8"/>
      </g>
     </g>
     <g id="text_2">
      <!-- 2022-01 -->
      <g style="fill: #a9a9a9" transform="translate(210.089897 334.998438) scale(0.1 -0.1)">
       <use xlink:href="#DejaVuSans-32"/>
       <use xlink:href="#DejaVuSans-30" x="63.623047"/>
       <use xlink:href="#DejaVuSans-32" x="127.246094"/>
       <use xlink:href="#DejaVuSans-32" x="190.869141"/>
       <use xlink:href="#DejaVuSans-2d" x="254.492188"/>
       <use xlink:href="#DejaVuSans-30" x="290.576172"/>
       <use xlink:href="#DejaVuSans-31" x="354.199219"/>
      </g>
     </g>
    </g>
    <g id="xtick_3">
     <g id="line2d_5">
      <path d="M 299.958898 320.4 
L 299.958898 43.2 
" clip-path="url(#pea38d09e39)" style="fill: none; stroke-dasharray: 5.12,1.28,0.8,1.28; stroke-dashoffset: 0; stroke: #b0b0b0; stroke-width: 0.8"/>
     </g>
     <g id="line2d_6">
      <g>
       <use xlink:href="#mcdac406b76" x="299.958898" y="320.4" style="fill: #a9a9a9; stroke: #a9a9a9; stroke-width: 0.8"/>
      </g>
     </g>
     <g id="text_3">
      <!-- 2022-05 -->
      <g style="fill: #a9a9a9" transform="translate(279.067492 334.998438) scale(0.1 -0.1)">
       <defs>
        <path id="DejaVuSans-35" d="M 691 4666 
L 3169 4666 
L 3169 4134 
L 1269 4134 
L 1269 2991 
Q 1406 3038 1543 3061 
Q 1681 3084 1819 3084 
Q 2600 3084 3056 2656 
Q 3513 2228 3513 1497 
Q 3513 744 3044 326 
Q 2575 -91 1722 -91 
Q 1428 -91 1123 -41 
Q 819 9 494 109 
L 494 744 
Q 775 591 1075 516 
Q 1375 441 1709 441 
Q 2250 441 2565 725 
Q 2881 1009 2881 1497 
Q 2881 1984 2565 2268 
Q 2250 2553 1709 2553 
Q 1456 2553 1204 2497 
Q 953 2441 691 2322 
L 691 4666 
z
" transform="scale(0.015625)"/>
       </defs>
       <use xlink:href="#DejaVuSans-32"/>
       <use xlink:href="#DejaVuSans-30" x="63.623047"/>
       <use xlink:href="#DejaVuSans-32" x="127.246094"/>
       <use xlink:href="#DejaVuSans-32" x="190.869141"/>
       <use xlink:href="#DejaVuSans-2d" x="254.492188"/>
       <use xlink:href="#DejaVuSans-30" x="290.576172"/>
       <use xlink:href="#DejaVuSans-35" x="354.199219"/>
      </g>
     </g>
    </g>
    <g id="xtick_4">
     <g id="line2d_7">
      <path d="M 370.660932 320.4 
L 370.660932 43.2 
" clip-path="url(#pea38d09e39)" style="fill: none; stroke-dasharray: 5.12,1.28,0.8,1.28; stroke-dashoffset: 0; stroke: #b0b0b0; stroke-width: 0.8"/>
     </g>
     <g id="line2d_8">
      <g>
       <use xlink:href="#mcdac406b76" x="370.660932" y="320.4" style="fill: #a9a9a9; stroke: #a9a9a9; stroke-width: 0.8"/>
      </g>
     </g>
     <g id="text_4">
      <!-- 2022-09 -->
      <g style="fill: #a9a9a9" transform="translate(349.769526 334.998438) scale(0.1 -0.1)">
       <use xlink:href="#DejaVuSans-32"/>
       <use xlink:href="#DejaVuSans-30" x="63.623047"/>
       <use xlink:href="#DejaVuSans-32" x="127.246094"/>
       <use xlink:href="#DejaVuSans-32" x="190.869141"/>
       <use xlink:href="#DejaVuSans-2d" x="254.492188"/>
       <use xlink:href="#DejaVuSans-30" x="290.576172"/>
       <use xlink:href="#DejaVuSans-39" x="354.199219"/>
      </g>
     </g>
    </g>
    <g id="xtick_5">
     <g id="line2d_9">
      <path d="M 440.788153 320.4 
L 440.788153 43.2 
" clip-path="url(#pea38d09e39)" style="fill: none; stroke-dasharray: 5.12,1.28,0.8,1.28; stroke-dashoffset: 0; stroke: #b0b0b0; stroke-width: 0.8"/>
     </g>
     <g id="line2d_10">
      <g>
       <use xlink:href="#mcdac406b76" x="440.788153" y="320.4" style="fill: #a9a9a9; stroke: #a9a9a9; stroke-width: 0.8"/>
      </g>
     </g>
     <g id="text_5">
      <!-- 2023-01 -->
      <g style="fill: #a9a9a9" transform="translate(419.896747 334.998438) scale(0.1 -0.1)">
       <defs>
        <path id="DejaVuSans-33" d="M 2597 2516 
Q 3050 2419 3304 2112 
Q 3559 1806 3559 1356 
Q 3559 666 3084 287 
Q 2609 -91 1734 -91 
Q 1441 -91 1130 -33 
Q 819 25 488 141 
L 488 750 
Q 750 597 1062 519 
Q 1375 441 1716 441 
Q 2309 441 2620 675 
Q 2931 909 2931 1356 
Q 2931 1769 2642 2001 
Q 2353 2234 1838 2234 
L 1294 2234 
L 1294 2753 
L 1863 2753 
Q 2328 2753 2575 2939 
Q 2822 3125 2822 3475 
Q 2822 3834 2567 4026 
Q 2313 4219 1838 4219 
Q 1578 4219 1281 4162 
Q 984 4106 628 3988 
L 628 4550 
Q 988 4650 1302 4700 
Q 1616 4750 1894 4750 
Q 2613 4750 3031 4423 
Q 3450 4097 3450 3541 
Q 3450 3153 3228 2886 
Q 3006 2619 2597 2516 
z
" transform="scale(0.015625)"/>
       </defs>
       <use xlink:href="#DejaVuSans-32"/>
       <use xlink:href="#DejaVuSans-30" x="63.623047"/>
       <use xlink:href="#DejaVuSans-32" x="127.246094"/>
       <use xlink:href="#DejaVuSans-33" x="190.869141"/>
       <use xlink:href="#DejaVuSans-2d" x="254.492188"/>
       <use xlink:href="#DejaVuSans-30" x="290.576172"/>
       <use xlink:href="#DejaVuSans-31" x="354.199219"/>
      </g>
     </g>
    </g>
    <g id="xtick_6">
     <g id="line2d_11">
      <path d="M 509.765748 320.4 
L 509.765748 43.2 
" clip-path="url(#pea38d09e39)" style="fill: none; stroke-dasharray: 5.12,1.28,0.8,1.28; stroke-dashoffset: 0; stroke: #b0b0b0; stroke-width: 0.8"/>
     </g>
     <g id="line2d_12">
      <g>
       <use xlink:href="#mcdac406b76" x="509.765748" y="320.4" style="fill: #a9a9a9; stroke: #a9a9a9; stroke-width: 0.8"/>
      </g>
     </g>
     <g id="text_6">
      <!-- 2023-05 -->
      <g style="fill: #a9a9a9" transform="translate(488.874342 334.998438) scale(0.1 -0.1)">
       <use xlink:href="#DejaVuSans-32"/>
       <use xlink:href="#DejaVuSans-30" x="63.623047"/>
       <use xlink:href="#DejaVuSans-32" x="127.246094"/>
       <use xlink:href="#DejaVuSans-33" x="190.869141"/>
       <use xlink:href="#DejaVuSans-2d" x="254.492188"/>
       <use xlink:href="#DejaVuSans-30" x="290.576172"/>
       <use xlink:href="#DejaVuSans-35" x="354.199219"/>
      </g>
     </g>
    </g>
    <g id="xtick_7">
     <g id="line2d_13">
      <path d="M 580.467783 320.4 
L 580.467783 43.2 
" clip-path="url(#pea38d09e39)" style="fill: none; stroke-dasharray: 5.12,1.28,0.8,1.28; stroke-dashoffset: 0; stroke: #b0b0b0; stroke-width: 0.8"/>
     </g>
     <g id="line2d_14">
      <g>
       <use xlink:href="#mcdac406b76" x="580.467783" y="320.4" style="fill: #a9a9a9; stroke: #a9a9a9; stroke-width: 0.8"/>
      </g>
     </g>
     <g id="text_7">
      <!-- 2023-09 -->
      <g style="fill: #a9a9a9" transform="translate(559.576376 334.998438) scale(0.1 -0.1)">
       <use xlink:href="#DejaVuSans-32"/>
       <use xlink:href="#DejaVuSans-30" x="63.623047"/>
       <use xlink:href="#DejaVuSans-32" x="127.246094"/>
       <use xlink:href="#DejaVuSans-33" x="190.869141"/>
       <use xlink:href="#DejaVuSans-2d" x="254.492188"/>
       <use xlink:href="#DejaVuSans-30" x="290.576172"/>
       <use xlink:href="#DejaVuSans-39" x="354.199219"/>
      </g>
     </g>
    </g>
    <g id="xtick_8">
     <g id="line2d_15">
      <path d="M 650.595004 320.4 
L 650.595004 43.2 
" clip-path="url(#pea38d09e39)" style="fill: none; stroke-dasharray: 5.12,1.28,0.8,1.28; stroke-dashoffset: 0; stroke: #b0b0b0; stroke-width: 0.8"/>
     </g>
     <g id="line2d_16">
      <g>
       <use xlink:href="#mcdac406b76" x="650.595004" y="320.4" style="fill: #a9a9a9; stroke: #a9a9a9; stroke-width: 0.8"/>
      </g>
     </g>
     <g id="text_8">
      <!-- 2024-01 -->
      <g style="fill: #a9a9a9" transform="translate(629.703598 334.998438) scale(0.1 -0.1)">
       <defs>
        <path id="DejaVuSans-34" d="M 2419 4116 
L 825 1625 
L 2419 1625 
L 2419 4116 
z
M 2253 4666 
L 3047 4666 
L 3047 1625 
L 3713 1625 
L 3713 1100 
L 3047 1100 
L 3047 0 
L 2419 0 
L 2419 1100 
L 313 1100 
L 313 1709 
L 2253 4666 
z
" transform="scale(0.015625)"/>
       </defs>
       <use xlink:href="#DejaVuSans-32"/>
       <use xlink:href="#DejaVuSans-30" x="63.623047"/>
       <use xlink:href="#DejaVuSans-32" x="127.246094"/>
       <use xlink:href="#DejaVuSans-34" x="190.869141"/>
       <use xlink:href="#DejaVuSans-2d" x="254.492188"/>
       <use xlink:href="#DejaVuSans-30" x="290.576172"/>
       <use xlink:href="#DejaVuSans-31" x="354.199219"/>
      </g>
     </g>
    </g>
    <g id="xtick_9">
     <g id="line2d_17">
      <path d="M 720.147412 320.4 
L 720.147412 43.2 
" clip-path="url(#pea38d09e39)" style="fill: none; stroke-dasharray: 5.12,1.28,0.8,1.28; stroke-dashoffset: 0; stroke: #b0b0b0; stroke-width: 0.8"/>
     </g>
     <g id="line2d_18">
      <g>
       <use xlink:href="#mcdac406b76" x="720.147412" y="320.4" style="fill: #a9a9a9; stroke: #a9a9a9; stroke-width: 0.8"/>
      </g>
     </g>
     <g id="text_9">
      <!-- 2024-05 -->
      <g style="fill: #a9a9a9" transform="translate(699.256006 334.998438) scale(0.1 -0.1)">
       <use xlink:href="#DejaVuSans-32"/>
       <use xlink:href="#DejaVuSans-30" x="63.623047"/>
       <use xlink:href="#DejaVuSans-32" x="127.246094"/>
       <use xlink:href="#DejaVuSans-34" x="190.869141"/>
       <use xlink:href="#DejaVuSans-2d" x="254.492188"/>
       <use xlink:href="#DejaVuSans-30" x="290.576172"/>
       <use xlink:href="#DejaVuSans-35" x="354.199219"/>
      </g>
     </g>
    </g>
   </g>
   <g id="matplotlib.axis_2">
    <g id="ytick_1">
     <g id="line2d_19">
      <path d="M 108 307.840307 
L 777.6 307.840307 
" clip-path="url(#pea38d09e39)" style="fill: none; stroke-dasharray: 5.12,1.28,0.8,1.28; stroke-dashoffset: 0; stroke: #b0b0b0; stroke-width: 0.8"/>
     </g>
     <g id="line2d_20">
      <defs>
       <path id="m1bf3b12907" d="M 0 0 
L -3.5 0 
" style="stroke: #a9a9a9; stroke-width: 0.8"/>
      </defs>
      <g>
       <use xlink:href="#m1bf3b12907" x="108" y="307.840307" style="fill: #a9a9a9; stroke: #a9a9a9; stroke-width: 0.8"/>
      </g>
     </g>
     <g id="text_10">
      <!-- 0 -->
      <g style="fill: #a9a9a9" transform="translate(94.6375 311.639526) scale(0.1 -0.1)">
       <use xlink:href="#DejaVuSans-30"/>
      </g>
     </g>
    </g>
    <g id="ytick_2">
     <g id="line2d_21">
      <path d="M 108 275.594626 
L 777.6 275.594626 
" clip-path="url(#pea38d09e39)" style="fill: none; stroke-dasharray: 5.12,1.28,0.8,1.28; stroke-dashoffset: 0; stroke: #b0b0b0; stroke-width: 0.8"/>
     </g>
     <g id="line2d_22">
      <g>
       <use xlink:href="#m1bf3b12907" x="108" y="275.594626" style="fill: #a9a9a9; stroke: #a9a9a9; stroke-width: 0.8"/>
      </g>
     </g>
     <g id="text_11">
      <!-- 800 -->
      <g style="fill: #a9a9a9" transform="translate(81.9125 279.393844) scale(0.1 -0.1)">
       <defs>
        <path id="DejaVuSans-38" d="M 2034 2216 
Q 1584 2216 1326 1975 
Q 1069 1734 1069 1313 
Q 1069 891 1326 650 
Q 1584 409 2034 409 
Q 2484 409 2743 651 
Q 3003 894 3003 1313 
Q 3003 1734 2745 1975 
Q 2488 2216 2034 2216 
z
M 1403 2484 
Q 997 2584 770 2862 
Q 544 3141 544 3541 
Q 544 4100 942 4425 
Q 1341 4750 2034 4750 
Q 2731 4750 3128 4425 
Q 3525 4100 3525 3541 
Q 3525 3141 3298 2862 
Q 3072 2584 2669 2484 
Q 3125 2378 3379 2068 
Q 3634 1759 3634 1313 
Q 3634 634 3220 271 
Q 2806 -91 2034 -91 
Q 1263 -91 848 271 
Q 434 634 434 1313 
Q 434 1759 690 2068 
Q 947 2378 1403 2484 
z
M 1172 3481 
Q 1172 3119 1398 2916 
Q 1625 2713 2034 2713 
Q 2441 2713 2670 2916 
Q 2900 3119 2900 3481 
Q 2900 3844 2670 4047 
Q 2441 4250 2034 4250 
Q 1625 4250 1398 4047 
Q 1172 3844 1172 3481 
z
" transform="scale(0.015625)"/>
       </defs>
       <use xlink:href="#DejaVuSans-38"/>
       <use xlink:href="#DejaVuSans-30" x="63.623047"/>
       <use xlink:href="#DejaVuSans-30" x="127.246094"/>
      </g>
     </g>
    </g>
    <g id="ytick_3">
     <g id="line2d_23">
      <path d="M 108 243.348944 
L 777.6 243.348944 
" clip-path="url(#pea38d09e39)" style="fill: none; stroke-dasharray: 5.12,1.28,0.8,1.28; stroke-dashoffset: 0; stroke: #b0b0b0; stroke-width: 0.8"/>
     </g>
     <g id="line2d_24">
      <g>
       <use xlink:href="#m1bf3b12907" x="108" y="243.348944" style="fill: #a9a9a9; stroke: #a9a9a9; stroke-width: 0.8"/>
      </g>
     </g>
     <g id="text_12">
      <!-- 1600 -->
      <g style="fill: #a9a9a9" transform="translate(75.55 247.148163) scale(0.1 -0.1)">
       <defs>
        <path id="DejaVuSans-36" d="M 2113 2584 
Q 1688 2584 1439 2293 
Q 1191 2003 1191 1497 
Q 1191 994 1439 701 
Q 1688 409 2113 409 
Q 2538 409 2786 701 
Q 3034 994 3034 1497 
Q 3034 2003 2786 2293 
Q 2538 2584 2113 2584 
z
M 3366 4563 
L 3366 3988 
Q 3128 4100 2886 4159 
Q 2644 4219 2406 4219 
Q 1781 4219 1451 3797 
Q 1122 3375 1075 2522 
Q 1259 2794 1537 2939 
Q 1816 3084 2150 3084 
Q 2853 3084 3261 2657 
Q 3669 2231 3669 1497 
Q 3669 778 3244 343 
Q 2819 -91 2113 -91 
Q 1303 -91 875 529 
Q 447 1150 447 2328 
Q 447 3434 972 4092 
Q 1497 4750 2381 4750 
Q 2619 4750 2861 4703 
Q 3103 4656 3366 4563 
z
" transform="scale(0.015625)"/>
       </defs>
       <use xlink:href="#DejaVuSans-31"/>
       <use xlink:href="#DejaVuSans-36" x="63.623047"/>
       <use xlink:href="#DejaVuSans-30" x="127.246094"/>
       <use xlink:href="#DejaVuSans-30" x="190.869141"/>
      </g>
     </g>
    </g>
    <g id="ytick_4">
     <g id="line2d_25">
      <path d="M 108 211.103263 
L 777.6 211.103263 
" clip-path="url(#pea38d09e39)" style="fill: none; stroke-dasharray: 5.12,1.28,0.8,1.28; stroke-dashoffset: 0; stroke: #b0b0b0; stroke-width: 0.8"/>
     </g>
     <g id="line2d_26">
      <g>
       <use xlink:href="#m1bf3b12907" x="108" y="211.103263" style="fill: #a9a9a9; stroke: #a9a9a9; stroke-width: 0.8"/>
      </g>
     </g>
     <g id="text_13">
      <!-- 2400 -->
      <g style="fill: #a9a9a9" transform="translate(75.55 214.902482) scale(0.1 -0.1)">
       <use xlink:href="#DejaVuSans-32"/>
       <use xlink:href="#DejaVuSans-34" x="63.623047"/>
       <use xlink:href="#DejaVuSans-30" x="127.246094"/>
       <use xlink:href="#DejaVuSans-30" x="190.869141"/>
      </g>
     </g>
    </g>
    <g id="ytick_5">
     <g id="line2d_27">
      <path d="M 108 178.857582 
L 777.6 178.857582 
" clip-path="url(#pea38d09e39)" style="fill: none; stroke-dasharray: 5.12,1.28,0.8,1.28; stroke-dashoffset: 0; stroke: #b0b0b0; stroke-width: 0.8"/>
     </g>
     <g id="line2d_28">
      <g>
       <use xlink:href="#m1bf3b12907" x="108" y="178.857582" style="fill: #a9a9a9; stroke: #a9a9a9; stroke-width: 0.8"/>
      </g>
     </g>
     <g id="text_14">
      <!-- 3200 -->
      <g style="fill: #a9a9a9" transform="translate(75.55 182.6568) scale(0.1 -0.1)">
       <use xlink:href="#DejaVuSans-33"/>
       <use xlink:href="#DejaVuSans-32" x="63.623047"/>
       <use xlink:href="#DejaVuSans-30" x="127.246094"/>
       <use xlink:href="#DejaVuSans-30" x="190.869141"/>
      </g>
     </g>
    </g>
    <g id="ytick_6">
     <g id="line2d_29">
      <path d="M 108 146.6119 
L 777.6 146.6119 
" clip-path="url(#pea38d09e39)" style="fill: none; stroke-dasharray: 5.12,1.28,0.8,1.28; stroke-dashoffset: 0; stroke: #b0b0b0; stroke-width: 0.8"/>
     </g>
     <g id="line2d_30">
      <g>
       <use xlink:href="#m1bf3b12907" x="108" y="146.6119" style="fill: #a9a9a9; stroke: #a9a9a9; stroke-width: 0.8"/>
      </g>
     </g>
     <g id="text_15">
      <!-- 4000 -->
      <g style="fill: #a9a9a9" transform="translate(75.55 150.411119) scale(0.1 -0.1)">
       <use xlink:href="#DejaVuSans-34"/>
       <use xlink:href="#DejaVuSans-30" x="63.623047"/>
       <use xlink:href="#DejaVuSans-30" x="127.246094"/>
       <use xlink:href="#DejaVuSans-30" x="190.869141"/>
      </g>
     </g>
    </g>
    <g id="ytick_7">
     <g id="line2d_31">
      <path d="M 108 114.366219 
L 777.6 114.366219 
" clip-path="url(#pea38d09e39)" style="fill: none; stroke-dasharray: 5.12,1.28,0.8,1.28; stroke-dashoffset: 0; stroke: #b0b0b0; stroke-width: 0.8"/>
     </g>
     <g id="line2d_32">
      <g>
       <use xlink:href="#m1bf3b12907" x="108" y="114.366219" style="fill: #a9a9a9; stroke: #a9a9a9; stroke-width: 0.8"/>
      </g>
     </g>
     <g id="text_16">
      <!-- 4800 -->
      <g style="fill: #a9a9a9" transform="translate(75.55 118.165438) scale(0.1 -0.1)">
       <use xlink:href="#DejaVuSans-34"/>
       <use xlink:href="#DejaVuSans-38" x="63.623047"/>
       <use xlink:href="#DejaVuSans-30" x="127.246094"/>
       <use xlink:href="#DejaVuSans-30" x="190.869141"/>
      </g>
     </g>
    </g>
    <g id="ytick_8">
     <g id="line2d_33">
      <path d="M 108 82.120537 
L 777.6 82.120537 
" clip-path="url(#pea38d09e39)" style="fill: none; stroke-dasharray: 5.12,1.28,0.8,1.28; stroke-dashoffset: 0; stroke: #b0b0b0; stroke-width: 0.8"/>
     </g>
     <g id="line2d_34">
      <g>
       <use xlink:href="#m1bf3b12907" x="108" y="82.120537" style="fill: #a9a9a9; stroke: #a9a9a9; stroke-width: 0.8"/>
      </g>
     </g>
     <g id="text_17">
      <!-- 5600 -->
      <g style="fill: #a9a9a9" transform="translate(75.55 85.919756) scale(0.1 -0.1)">
       <use xlink:href="#DejaVuSans-35"/>
       <use xlink:href="#DejaVuSans-36" x="63.623047"/>
       <use xlink:href="#DejaVuSans-30" x="127.246094"/>
       <use xlink:href="#DejaVuSans-30" x="190.869141"/>
      </g>
     </g>
    </g>
    <g id="ytick_9">
     <g id="line2d_35">
      <path d="M 108 49.874856 
L 777.6 49.874856 
" clip-path="url(#pea38d09e39)" style="fill: none; stroke-dasharray: 5.12,1.28,0.8,1.28; stroke-dashoffset: 0; stroke: #b0b0b0; stroke-width: 0.8"/>
     </g>
     <g id="line2d_36">
      <g>
       <use xlink:href="#m1bf3b12907" x="108" y="49.874856" style="fill: #a9a9a9; stroke: #a9a9a9; stroke-width: 0.8"/>
      </g>
     </g>
     <g id="text_18">
      <!-- 6400 -->
      <g style="fill: #a9a9a9" transform="translate(75.55 53.674075) scale(0.1 -0.1)">
       <use xlink:href="#DejaVuSans-36"/>
       <use xlink:href="#DejaVuSans-34" x="63.623047"/>
       <use xlink:href="#DejaVuSans-30" x="127.246094"/>
       <use xlink:href="#DejaVuSans-30" x="190.869141"/>
      </g>
     </g>
    </g>
   </g>
   <g id="line2d_37">
    <path d="M 138.436364 307.719386 
L 141.885243 307.437236 
L 142.460057 307.195393 
L 144.184497 306.993858 
L 147.633376 306.308637 
L 151.082256 306.026488 
L 152.231883 305.583109 
L 152.806696 304.857582 
L 153.381509 304.454511 
L 153.956322 303.20499 
L 154.531136 303.124376 
L 155.105949 302.680998 
L 156.255576 302.116699 
L 158.554829 300.343186 
L 159.704455 299.899808 
L 160.279269 299.496737 
L 162.578522 298.48906 
L 163.153335 297.602303 
L 164.302962 296.796161 
L 164.877775 296.554319 
L 170.625908 295.748177 
L 171.200721 295.466027 
L 175.224414 295.14357 
L 176.948854 294.700192 
L 182.122174 294.014971 
L 182.696987 293.692514 
L 183.2718 293.6119 
L 183.846613 293.370058 
L 184.99624 293.168522 
L 185.571053 293.128215 
L 186.72068 292.886372 
L 187.295493 292.846065 
L 189.594746 292.281766 
L 191.319186 292.120537 
L 192.468813 291.999616 
L 193.043626 291.838388 
L 193.618439 291.798081 
L 195.342879 291.274088 
L 196.492506 291.193474 
L 197.642132 291.032246 
L 198.791759 290.790403 
L 199.366572 290.629175 
L 199.941386 289.86334 
L 201.665825 289.218426 
L 203.390265 288.775048 
L 203.965079 288.492898 
L 204.539892 288.452591 
L 207.413958 287.646449 
L 208.563585 287.565835 
L 209.138398 287.485221 
L 210.862838 286.961228 
L 213.162091 286.396929 
L 213.736904 286.155086 
L 214.311718 286.074472 
L 214.886531 285.792322 
L 220.634664 284.945873 
L 223.50873 284.139731 
L 224.083544 283.776967 
L 226.382797 283.172361 
L 228.68205 282.003455 
L 230.40649 281.600384 
L 230.981303 281.51977 
L 231.556116 281.23762 
L 232.705743 281.036084 
L 233.85537 280.512092 
L 236.729436 279.786564 
L 238.453876 279.343186 
L 239.028689 279.101344 
L 239.603502 278.980422 
L 240.178316 278.73858 
L 240.753129 278.657965 
L 241.902756 278.214587 
L 243.052382 278.133973 
L 244.202009 277.730902 
L 247.076075 277.287524 
L 247.650888 277.085988 
L 248.800515 277.045681 
L 251.099768 276.763532 
L 252.249395 276.199232 
L 258.572341 273.498656 
L 259.147154 273.1762 
L 259.721968 272.571593 
L 260.871594 270.878695 
L 261.446407 270.717466 
L 262.021221 270.717466 
L 263.170847 269.871017 
L 263.745661 269.709789 
L 264.320474 269.427639 
L 264.895287 269.306718 
L 265.4701 268.782726 
L 266.044914 268.621497 
L 267.769354 267.815355 
L 268.91898 266.203071 
L 269.493793 265.840307 
L 270.068607 264.872937 
L 270.64342 264.26833 
L 274.0923 262.494818 
L 275.241926 261.608061 
L 275.81674 261.245298 
L 276.391553 260.398848 
L 276.966366 259.149328 
L 277.54118 258.302879 
L 278.115993 257.859501 
L 278.690806 257.617658 
L 280.990059 255.602303 
L 282.139686 254.67524 
L 282.714499 254.191555 
L 283.289312 253.42572 
L 284.438939 252.418042 
L 286.738192 250.926679 
L 287.313005 250.442994 
L 287.887819 250.322073 
L 288.462632 250.08023 
L 290.187072 249.11286 
L 291.911512 248.024568 
L 293.635952 246.33167 
L 294.210765 245.968906 
L 294.785578 245.807678 
L 295.360391 245.525528 
L 296.510018 244.759693 
L 297.084831 244.437236 
L 297.659645 244.356622 
L 301.683338 241.897889 
L 303.982591 240.688676 
L 304.557404 240.164683 
L 306.856657 239.439155 
L 307.431471 239.036084 
L 308.006284 238.915163 
L 309.15591 238.512092 
L 310.88035 237.826871 
L 312.60479 237.181958 
L 313.754417 236.980422 
L 314.904043 235.972745 
L 316.628483 235.166603 
L 317.77811 234.481382 
L 318.927736 234.158925 
L 319.50255 233.796161 
L 320.077363 233.634933 
L 321.801803 232.546641 
L 324.675869 231.86142 
L 326.400309 230.853743 
L 326.975122 230.773129 
L 327.549936 230.571593 
L 328.699562 230.32975 
L 330.424002 229.039923 
L 332.148442 228.636852 
L 332.723255 228.435317 
L 333.298069 227.991939 
L 336.746948 226.86334 
L 337.321762 226.823033 
L 337.896575 226.661804 
L 339.046201 226.178119 
L 343.069894 224.76737 
L 344.219521 224.606142 
L 344.794334 224.444914 
L 345.369148 224.162764 
L 345.943961 224.041843 
L 347.668401 223.235701 
L 352.84172 220.776967 
L 353.416534 220.615739 
L 354.56616 220.011132 
L 355.715787 219.688676 
L 356.2906 219.608061 
L 357.440227 218.922841 
L 358.01504 218.842226 
L 359.164666 218.358541 
L 359.73948 218.23762 
L 360.314293 217.915163 
L 362.613546 217.552399 
L 363.763173 216.9881 
L 364.337986 216.504415 
L 364.912799 215.496737 
L 366.637239 215.17428 
L 368.936492 213.965067 
L 369.511306 213.844146 
L 374.109812 211.707869 
L 375.834252 211.345106 
L 376.983878 210.780806 
L 377.558692 210.538964 
L 378.133505 210.458349 
L 380.432758 209.450672 
L 382.157198 208.402687 
L 382.732011 208.322073 
L 383.306825 208.120537 
L 383.881638 208.08023 
L 386.180891 207.435317 
L 386.755704 207.39501 
L 387.330518 206.951631 
L 388.480144 206.54856 
L 390.204584 205.984261 
L 390.779397 205.621497 
L 391.354211 205.460269 
L 391.929024 205.057198 
L 392.503837 204.815355 
L 393.653464 204.210749 
L 395.952717 203.525528 
L 396.52753 203.243378 
L 398.25197 201.913244 
L 398.826783 201.792322 
L 399.97641 200.905566 
L 400.551223 200.824952 
L 401.126037 199.938196 
L 401.70085 199.696353 
L 402.275663 199.252975 
L 402.850476 199.172361 
L 404.000103 198.48714 
L 404.574916 198.366219 
L 405.14973 198.124376 
L 405.724543 197.680998 
L 406.299356 197.479463 
L 408.023796 196.310557 
L 410.323049 195.141651 
L 410.897862 195.061036 
L 412.047489 194.537044 
L 412.622302 194.214587 
L 413.197116 193.247217 
L 413.771929 192.763532 
L 414.346742 192.441075 
L 414.921555 192.320154 
L 416.071182 191.594626 
L 416.645995 191.473704 
L 417.795622 190.909405 
L 419.520062 190.183877 
L 420.669688 189.377735 
L 421.819315 188.168522 
L 424.693381 186.072553 
L 425.843008 185.145489 
L 426.417821 184.903647 
L 426.992635 184.258733 
L 427.567448 183.815355 
L 428.717074 183.412284 
L 429.866701 182.646449 
L 431.591141 181.8 
L 432.165954 181.719386 
L 433.890394 180.792322 
L 435.040021 180.107102 
L 440.788153 178.091747 
L 441.362967 177.608061 
L 443.087407 176.963148 
L 444.237033 176.600384 
L 444.811847 176.157006 
L 447.685913 174.625336 
L 448.83554 172.368138 
L 449.985166 171.078311 
L 451.134793 170.39309 
L 452.859233 169.707869 
L 453.434046 169.627255 
L 454.008859 169.304798 
L 456.882926 168.418042 
L 457.457739 168.1762 
L 458.607365 167.410365 
L 459.756992 167.007294 
L 463.205872 164.991939 
L 463.780685 164.387332 
L 464.930312 163.782726 
L 467.804378 162.291363 
L 471.253258 160.638772 
L 471.828071 160.51785 
L 472.977698 160.114779 
L 474.702138 159.469866 
L 475.276951 159.066795 
L 476.426577 158.744338 
L 477.576204 158.30096 
L 478.151017 157.857582 
L 479.300644 157.494818 
L 482.749524 155.761612 
L 483.89915 154.874856 
L 485.048777 154.471785 
L 485.62359 153.9881 
L 486.198403 153.907486 
L 487.34803 153.061036 
L 488.497656 152.496737 
L 489.07247 152.254894 
L 489.647283 151.690595 
L 493.096163 150.441075 
L 494.820603 149.67524 
L 496.545042 149.151248 
L 497.694669 148.990019 
L 498.269482 148.748177 
L 498.844296 148.667562 
L 499.993922 148.183877 
L 500.568736 148.14357 
L 502.867989 147.297121 
L 504.592429 146.128215 
L 505.167242 145.886372 
L 506.316868 145.281766 
L 506.891682 145.120537 
L 510.340561 143.266411 
L 510.915375 143.145489 
L 512.639815 142.178119 
L 514.364254 141.61382 
L 514.939068 141.371977 
L 516.088694 141.089827 
L 518.962761 140.162764 
L 520.687201 139.880614 
L 522.986454 139.155086 
L 523.561267 138.913244 
L 524.13608 138.83263 
L 524.710894 138.55048 
L 525.86052 138.308637 
L 527.010147 137.905566 
L 527.58496 137.704031 
L 528.734587 137.583109 
L 529.884213 137.30096 
L 531.608653 137.01881 
L 532.183466 136.817274 
L 533.333093 136.696353 
L 536.207159 135.970825 
L 537.356786 135.688676 
L 537.931599 135.366219 
L 540.805666 134.640691 
L 541.380479 134.51977 
L 542.530106 134.116699 
L 544.254545 133.512092 
L 544.829359 133.431478 
L 546.553799 132.826871 
L 547.128612 132.826871 
L 548.278238 132.4238 
L 548.853052 131.859501 
L 550.002678 131.416123 
L 551.727118 130.730902 
L 552.876745 130.327831 
L 553.451558 130.20691 
L 554.026371 129.844146 
L 554.601185 129.723225 
L 555.175998 129.400768 
L 558.050064 128.594626 
L 558.624878 128.231862 
L 559.199691 128.11094 
L 559.774504 127.627255 
L 561.498944 127.304798 
L 562.648571 126.700192 
L 563.223384 126.055278 
L 564.373011 125.813436 
L 569.54633 124.725144 
L 570.121143 124.725144 
L 570.695957 124.483301 
L 572.99521 124.08023 
L 573.570023 123.838388 
L 575.294463 123.596545 
L 577.593716 122.871017 
L 579.318156 122.467946 
L 581.042596 122.024568 
L 582.767036 121.500576 
L 585.641102 120.654127 
L 586.215916 120.33167 
L 587.940355 119.76737 
L 588.515169 119.323992 
L 589.664795 119.001536 
L 590.239609 118.759693 
L 591.389235 118.437236 
L 593.688488 117.389251 
L 595.412928 117.26833 
L 597.712181 116.623417 
L 598.286995 116.260653 
L 599.436621 115.938196 
L 602.310688 114.648369 
L 602.885501 114.608061 
L 609.208447 112.471785 
L 611.5077 111.907486 
L 612.082514 111.746257 
L 613.23214 111.222265 
L 613.806953 111.141651 
L 614.95658 110.819194 
L 615.531393 110.375816 
L 616.106207 110.093666 
L 616.68102 109.408445 
L 617.255833 109.005374 
L 618.40546 108.64261 
L 618.980273 108.199232 
L 623.578779 106.304798 
L 624.153593 106.14357 
L 624.728406 105.780806 
L 627.027659 105.095585 
L 628.177286 104.531286 
L 629.326912 103.846065 
L 629.901725 103.725144 
L 631.051352 103.039923 
L 631.626165 102.798081 
L 632.775792 102.11286 
L 634.500232 101.306718 
L 635.075045 100.903647 
L 636.224672 100.500576 
L 637.374298 99.815355 
L 637.949112 99.61382 
L 638.523925 99.210749 
L 639.673551 98.807678 
L 640.248365 98.686756 
L 642.547618 97.638772 
L 645.421684 96.631094 
L 646.571311 96.469866 
L 647.146124 96.107102 
L 647.720937 96.026488 
L 648.295751 95.824952 
L 650.020191 95.502495 
L 654.043884 93.527447 
L 654.618697 93.446833 
L 656.343137 92.51977 
L 658.64239 91.633013 
L 662.09127 90.222265 
L 662.666083 90.061036 
L 663.240896 89.698273 
L 664.390523 89.537044 
L 664.965336 89.17428 
L 665.540149 89.133973 
L 666.689776 88.771209 
L 667.839403 88.20691 
L 668.414216 88.126296 
L 668.989029 87.884453 
L 669.563842 87.763532 
L 671.288282 86.997697 
L 671.863096 86.876775 
L 672.437909 86.634933 
L 675.311975 85.949712 
L 677.036415 85.304798 
L 679.335668 84.055278 
L 680.485295 83.6119 
L 681.060108 83.249136 
L 682.209735 83.007294 
L 682.784548 82.684837 
L 683.359361 82.563916 
L 685.083801 81.677159 
L 685.658614 81.515931 
L 687.957868 80.387332 
L 689.107494 80.064875 
L 690.831934 79.500576 
L 691.406747 79.29904 
L 692.556374 78.734741 
L 693.706001 78.371977 
L 694.280814 78.251056 
L 696.580067 77.162764 
L 697.15488 77.08215 
L 697.729694 76.880614 
L 698.87932 76.235701 
L 701.178573 75.187716 
L 702.3282 74.784645 
L 703.477826 74.220345 
L 704.05264 74.139731 
L 706.926706 72.890211 
L 707.501519 72.48714 
L 709.800773 71.721305 
L 710.375586 71.721305 
L 711.525212 71.197313 
L 712.100026 70.753935 
L 713.249652 69.665643 
L 714.974092 68.859501 
L 715.548905 68.73858 
L 716.123719 68.45643 
L 716.698532 68.375816 
L 717.273345 67.972745 
L 717.848159 67.851823 
L 718.997785 67.166603 
L 720.147412 66.441075 
L 721.297038 66.118618 
L 722.446665 65.554319 
L 724.171105 65.151248 
L 724.745918 64.949712 
L 725.320731 64.869098 
L 725.895545 64.586948 
L 726.470358 64.466027 
L 727.045171 64.224184 
L 727.619985 64.103263 
L 729.344424 63.377735 
L 730.494051 62.652207 
L 731.643678 62.32975 
L 732.218491 62.168522 
L 736.242184 60.314395 
L 736.816997 60.11286 
L 737.39181 60.032246 
L 739.11625 59.306718 
L 740.84069 58.29904 
L 741.415503 58.178119 
L 742.56513 57.61382 
L 743.714757 57.210749 
L 744.28957 56.727063 
L 744.864383 56.404607 
L 746.01401 56.001536 
L 746.588823 55.8 
L 747.163636 55.8 
L 747.163636 55.8 
" clip-path="url(#pea38d09e39)" style="fill: none; stroke: #1f77b4; stroke-width: 1.5; stroke-linecap: square"/>
   </g>
   <g id="line2d_38">
    <path d="M 139.011177 307.8 
L 140.735617 307.719386 
L 142.460057 307.679079 
L 145.908936 307.598464 
L 148.783003 307.477543 
L 151.082256 307.477543 
L 151.657069 307.316315 
L 153.956322 307.235701 
L 155.680762 307.034165 
L 157.405202 306.872937 
L 160.854082 306.711708 
L 161.428895 306.711708 
L 162.003708 306.590787 
L 164.302962 306.510173 
L 165.452588 306.429559 
L 170.051095 306.348944 
L 172.925161 306.228023 
L 179.82292 306.147409 
L 182.696987 306.026488 
L 186.145867 305.945873 
L 188.44512 305.865259 
L 193.618439 305.784645 
L 195.342879 305.744338 
L 197.067319 305.704031 
L 198.791759 305.502495 
L 202.240639 305.462188 
L 203.390265 305.381574 
L 207.413958 305.30096 
L 213.736904 304.938196 
L 217.760597 304.857582 
L 218.910224 304.776967 
L 220.634664 304.696353 
L 224.083544 304.535125 
L 226.382797 304.494818 
L 228.107237 304.333589 
L 235.579809 303.890211 
L 238.453876 303.809597 
L 243.627195 303.527447 
L 245.351635 303.446833 
L 251.099768 303.124376 
L 257.422714 303.043762 
L 259.721968 302.801919 
L 260.871594 302.721305 
L 268.344167 302.116699 
L 271.793047 301.673321 
L 274.0923 301.592706 
L 278.690806 300.9881 
L 282.139686 300.907486 
L 283.864126 300.746257 
L 285.013752 300.70595 
L 286.163379 300.585029 
L 287.887819 300.504415 
L 289.037445 300.343186 
L 291.911512 300.020729 
L 294.210765 299.940115 
L 295.360391 299.859501 
L 297.659645 299.778887 
L 298.809271 299.698273 
L 301.683338 299.416123 
L 302.258151 299.254894 
L 305.707031 299.093666 
L 308.581097 299.013052 
L 316.05367 298.569674 
L 317.77811 298.48906 
L 325.250682 298.045681 
L 329.274375 297.965067 
L 329.849189 297.844146 
L 334.447695 297.763532 
L 338.471388 297.561996 
L 344.794334 297.481382 
L 348.818027 297.279846 
L 353.416534 297.199232 
L 358.01504 296.95739 
L 362.038733 296.876775 
L 372.960185 296.191555 
L 377.558692 296.11094 
L 383.306825 295.788484 
L 384.456451 295.748177 
L 386.755704 295.506334 
L 392.503837 295.183877 
L 395.952717 295.103263 
L 397.677157 295.062956 
L 399.401597 295.022649 
L 401.126037 294.86142 
L 405.724543 294.780806 
L 406.874169 294.619578 
L 408.023796 294.538964 
L 410.897862 294.418042 
L 412.047489 294.337428 
L 413.197116 294.256814 
L 418.370435 294.1762 
L 419.520062 294.055278 
L 421.819315 294.014971 
L 422.394128 293.89405 
L 423.543755 293.813436 
L 424.118568 293.692514 
L 425.843008 293.6119 
L 431.016328 293.32975 
L 432.165954 293.289443 
L 433.890394 293.128215 
L 435.614834 293.087908 
L 437.339274 293.007294 
L 440.21334 292.886372 
L 448.260726 292.805758 
L 452.284419 292.604223 
L 456.882926 292.523608 
L 459.182179 292.442994 
L 461.481432 292.402687 
L 462.631058 292.281766 
L 464.930312 292.201152 
L 470.678445 291.878695 
L 474.127324 291.838388 
L 475.851764 291.677159 
L 477.576204 291.636852 
L 481.599897 291.556238 
L 483.89915 291.475624 
L 490.79691 291.39501 
L 493.670976 291.274088 
L 497.119856 291.193474 
L 498.844296 290.991939 
L 502.293175 290.951631 
L 504.017615 290.790403 
L 506.316868 290.709789 
L 513.214628 290.629175 
L 516.088694 290.508253 
L 525.86052 290.467946 
L 527.010147 290.387332 
L 528.734587 290.347025 
L 536.207159 290.266411 
L 537.356786 290.185797 
L 543.679732 290.105182 
L 545.978985 290.024568 
L 552.876745 289.984261 
L 554.026371 289.903647 
L 562.648571 289.86334 
L 564.373011 289.702111 
L 578.743343 289.621497 
L 580.467783 289.58119 
L 595.987741 289.500576 
L 598.286995 289.419962 
L 608.05882 289.339347 
L 609.208447 289.258733 
L 612.082514 289.178119 
L 613.806953 289.016891 
L 616.68102 288.936276 
L 618.980273 288.855662 
L 622.429153 288.775048 
L 624.153593 288.734741 
L 626.452846 288.654127 
L 628.177286 288.61382 
L 631.051352 288.533205 
L 632.200979 288.452591 
L 635.649858 288.371977 
L 638.523925 288.251056 
L 639.673551 288.210749 
L 640.823178 288.130134 
L 642.547618 288.089827 
L 644.846871 288.009213 
L 647.146124 287.928599 
L 654.618697 287.847985 
L 656.91795 287.76737 
L 661.516456 287.686756 
L 665.540149 287.485221 
L 670.713469 287.404607 
L 671.863096 287.323992 
L 682.209735 287.243378 
L 683.934175 287.203071 
L 686.808241 287.162764 
L 689.107494 286.920921 
L 690.831934 286.880614 
L 694.280814 286.8 
L 700.028947 286.477543 
L 702.903013 286.396929 
L 705.202266 286.316315 
L 708.651146 286.276008 
L 709.800773 286.195393 
L 712.100026 286.114779 
L 714.399279 285.872937 
L 716.698532 285.792322 
L 720.722225 285.711708 
L 721.297038 285.590787 
L 726.470358 285.510173 
L 729.919238 285.348944 
L 736.816997 285.308637 
L 737.39181 285.187716 
L 740.84069 285.107102 
L 743.139943 285.026488 
L 747.163636 284.945873 
L 747.163636 284.945873 
" clip-path="url(#pea38d09e39)" style="fill: none; stroke: #ff7f0e; stroke-width: 1.5; stroke-linecap: square"/>
   </g>
   <g id="patch_3">
    <path d="M 108 320.4 
L 108 43.2 
" style="fill: none; stroke: #a9a9a9; stroke-width: 0.8; stroke-linejoin: miter; stroke-linecap: square"/>
   </g>
   <g id="patch_4">
    <path d="M 777.6 320.4 
L 777.6 43.2 
" style="fill: none"/>
   </g>
   <g id="patch_5">
    <path d="M 108 320.4 
L 777.6 320.4 
" style="fill: none; stroke: #a9a9a9; stroke-width: 0.8; stroke-linejoin: miter; stroke-linecap: square"/>
   </g>
   <g id="patch_6">
    <path d="M 108 43.2 
L 777.6 43.2 
" style="fill: none"/>
   </g>
   <g id="text_19">
    <!-- get_subscribe history -->
    <g style="fill: #a9a9a9" transform="translate(378.6075 37.2) scale(0.12 -0.12)">
     <defs>
      <path id="DejaVuSans-67" d="M 2906 1791 
Q 2906 2416 2648 2759 
Q 2391 3103 1925 3103 
Q 1463 3103 1205 2759 
Q 947 2416 947 1791 
Q 947 1169 1205 825 
Q 1463 481 1925 481 
Q 2391 481 2648 825 
Q 2906 1169 2906 1791 
z
M 3481 434 
Q 3481 -459 3084 -895 
Q 2688 -1331 1869 -1331 
Q 1566 -1331 1297 -1286 
Q 1028 -1241 775 -1147 
L 775 -588 
Q 1028 -725 1275 -790 
Q 1522 -856 1778 -856 
Q 2344 -856 2625 -561 
Q 2906 -266 2906 331 
L 2906 616 
Q 2728 306 2450 153 
Q 2172 0 1784 0 
Q 1141 0 747 490 
Q 353 981 353 1791 
Q 353 2603 747 3093 
Q 1141 3584 1784 3584 
Q 2172 3584 2450 3431 
Q 2728 3278 2906 2969 
L 2906 3500 
L 3481 3500 
L 3481 434 
z
" transform="scale(0.015625)"/>
      <path id="DejaVuSans-65" d="M 3597 1894 
L 3597 1613 
L 953 1613 
Q 991 1019 1311 708 
Q 1631 397 2203 397 
Q 2534 397 2845 478 
Q 3156 559 3463 722 
L 3463 178 
Q 3153 47 2828 -22 
Q 2503 -91 2169 -91 
Q 1331 -91 842 396 
Q 353 884 353 1716 
Q 353 2575 817 3079 
Q 1281 3584 2069 3584 
Q 2775 3584 3186 3129 
Q 3597 2675 3597 1894 
z
M 3022 2063 
Q 3016 2534 2758 2815 
Q 2500 3097 2075 3097 
Q 1594 3097 1305 2825 
Q 1016 2553 972 2059 
L 3022 2063 
z
" transform="scale(0.015625)"/>
      <path id="DejaVuSans-74" d="M 1172 4494 
L 1172 3500 
L 2356 3500 
L 2356 3053 
L 1172 3053 
L 1172 1153 
Q 1172 725 1289 603 
Q 1406 481 1766 481 
L 2356 481 
L 2356 0 
L 1766 0 
Q 1100 0 847 248 
Q 594 497 594 1153 
L 594 3053 
L 172 3053 
L 172 3500 
L 594 3500 
L 594 4494 
L 1172 4494 
z
" transform="scale(0.015625)"/>
      <path id="DejaVuSans-5f" d="M 3263 -1063 
L 3263 -1509 
L -63 -1509 
L -63 -1063 
L 3263 -1063 
z
" transform="scale(0.015625)"/>
      <path id="DejaVuSans-73" d="M 2834 3397 
L 2834 2853 
Q 2591 2978 2328 3040 
Q 2066 3103 1784 3103 
Q 1356 3103 1142 2972 
Q 928 2841 928 2578 
Q 928 2378 1081 2264 
Q 1234 2150 1697 2047 
L 1894 2003 
Q 2506 1872 2764 1633 
Q 3022 1394 3022 966 
Q 3022 478 2636 193 
Q 2250 -91 1575 -91 
Q 1294 -91 989 -36 
Q 684 19 347 128 
L 347 722 
Q 666 556 975 473 
Q 1284 391 1588 391 
Q 1994 391 2212 530 
Q 2431 669 2431 922 
Q 2431 1156 2273 1281 
Q 2116 1406 1581 1522 
L 1381 1569 
Q 847 1681 609 1914 
Q 372 2147 372 2553 
Q 372 3047 722 3315 
Q 1072 3584 1716 3584 
Q 2034 3584 2315 3537 
Q 2597 3491 2834 3397 
z
" transform="scale(0.015625)"/>
      <path id="DejaVuSans-75" d="M 544 1381 
L 544 3500 
L 1119 3500 
L 1119 1403 
Q 1119 906 1312 657 
Q 1506 409 1894 409 
Q 2359 409 2629 706 
Q 2900 1003 2900 1516 
L 2900 3500 
L 3475 3500 
L 3475 0 
L 2900 0 
L 2900 538 
Q 2691 219 2414 64 
Q 2138 -91 1772 -91 
Q 1169 -91 856 284 
Q 544 659 544 1381 
z
M 1991 3584 
L 1991 3584 
z
" transform="scale(0.015625)"/>
      <path id="DejaVuSans-62" d="M 3116 1747 
Q 3116 2381 2855 2742 
Q 2594 3103 2138 3103 
Q 1681 3103 1420 2742 
Q 1159 2381 1159 1747 
Q 1159 1113 1420 752 
Q 1681 391 2138 391 
Q 2594 391 2855 752 
Q 3116 1113 3116 1747 
z
M 1159 2969 
Q 1341 3281 1617 3432 
Q 1894 3584 2278 3584 
Q 2916 3584 3314 3078 
Q 3713 2572 3713 1747 
Q 3713 922 3314 415 
Q 2916 -91 2278 -91 
Q 1894 -91 1617 61 
Q 1341 213 1159 525 
L 1159 0 
L 581 0 
L 581 4863 
L 1159 4863 
L 1159 2969 
z
" transform="scale(0.015625)"/>
      <path id="DejaVuSans-63" d="M 3122 3366 
L 3122 2828 
Q 2878 2963 2633 3030 
Q 2388 3097 2138 3097 
Q 1578 3097 1268 2742 
Q 959 2388 959 1747 
Q 959 1106 1268 751 
Q 1578 397 2138 397 
Q 2388 397 2633 464 
Q 2878 531 3122 666 
L 3122 134 
Q 2881 22 2623 -34 
Q 2366 -91 2075 -91 
Q 1284 -91 818 406 
Q 353 903 353 1747 
Q 353 2603 823 3093 
Q 1294 3584 2113 3584 
Q 2378 3584 2631 3529 
Q 2884 3475 3122 3366 
z
" transform="scale(0.015625)"/>
      <path id="DejaVuSans-72" d="M 2631 2963 
Q 2534 3019 2420 3045 
Q 2306 3072 2169 3072 
Q 1681 3072 1420 2755 
Q 1159 2438 1159 1844 
L 1159 0 
L 581 0 
L 581 3500 
L 1159 3500 
L 1159 2956 
Q 1341 3275 1631 3429 
Q 1922 3584 2338 3584 
Q 2397 3584 2469 3576 
Q 2541 3569 2628 3553 
L 2631 2963 
z
" transform="scale(0.015625)"/>
      <path id="DejaVuSans-69" d="M 603 3500 
L 1178 3500 
L 1178 0 
L 603 0 
L 603 3500 
z
M 603 4863 
L 1178 4863 
L 1178 4134 
L 603 4134 
L 603 4863 
z
" transform="scale(0.015625)"/>
      <path id="DejaVuSans-20" transform="scale(0.015625)"/>
      <path id="DejaVuSans-68" d="M 3513 2113 
L 3513 0 
L 2938 0 
L 2938 2094 
Q 2938 2591 2744 2837 
Q 2550 3084 2163 3084 
Q 1697 3084 1428 2787 
Q 1159 2491 1159 1978 
L 1159 0 
L 581 0 
L 581 4863 
L 1159 4863 
L 1159 2956 
Q 1366 3272 1645 3428 
Q 1925 3584 2291 3584 
Q 2894 3584 3203 3211 
Q 3513 2838 3513 2113 
z
" transform="scale(0.015625)"/>
      <path id="DejaVuSans-6f" d="M 1959 3097 
Q 1497 3097 1228 2736 
Q 959 2375 959 1747 
Q 959 1119 1226 758 
Q 1494 397 1959 397 
Q 2419 397 2687 759 
Q 2956 1122 2956 1747 
Q 2956 2369 2687 2733 
Q 2419 3097 1959 3097 
z
M 1959 3584 
Q 2709 3584 3137 3096 
Q 3566 2609 3566 1747 
Q 3566 888 3137 398 
Q 2709 -91 1959 -91 
Q 1206 -91 779 398 
Q 353 888 353 1747 
Q 353 2609 779 3096 
Q 1206 3584 1959 3584 
z
" transform="scale(0.015625)"/>
      <path id="DejaVuSans-79" d="M 2059 -325 
Q 1816 -950 1584 -1140 
Q 1353 -1331 966 -1331 
L 506 -1331 
L 506 -850 
L 844 -850 
Q 1081 -850 1212 -737 
Q 1344 -625 1503 -206 
L 1606 56 
L 191 3500 
L 800 3500 
L 1894 763 
L 2988 3500 
L 3597 3500 
L 2059 -325 
z
" transform="scale(0.015625)"/>
     </defs>
     <use xlink:href="#DejaVuSans-67"/>
     <use xlink:href="#DejaVuSans-65" x="63.476562"/>
     <use xlink:href="#DejaVuSans-74" x="125"/>
     <use xlink:href="#DejaVuSans-5f" x="164.208984"/>
     <use xlink:href="#DejaVuSans-73" x="214.208984"/>
     <use xlink:href="#DejaVuSans-75" x="266.308594"/>
     <use xlink:href="#DejaVuSans-62" x="329.6875"/>
     <use xlink:href="#DejaVuSans-73" x="393.164062"/>
     <use xlink:href="#DejaVuSans-63" x="445.263672"/>
     <use xlink:href="#DejaVuSans-72" x="500.244141"/>
     <use xlink:href="#DejaVuSans-69" x="541.357422"/>
     <use xlink:href="#DejaVuSans-62" x="569.140625"/>
     <use xlink:href="#DejaVuSans-65" x="632.617188"/>
     <use xlink:href="#DejaVuSans-20" x="694.140625"/>
     <use xlink:href="#DejaVuSans-68" x="725.927734"/>
     <use xlink:href="#DejaVuSans-69" x="789.306641"/>
     <use xlink:href="#DejaVuSans-73" x="817.089844"/>
     <use xlink:href="#DejaVuSans-74" x="869.189453"/>
     <use xlink:href="#DejaVuSans-6f" x="908.398438"/>
     <use xlink:href="#DejaVuSans-72" x="969.580078"/>
     <use xlink:href="#DejaVuSans-79" x="1010.693359"/>
    </g>
   </g>
   <g id="legend_1">
    <g id="line2d_39">
     <path d="M 815.08 328.498438 
L 825.08 328.498438 
L 835.08 328.498438 
" style="fill: none; stroke: #1f77b4; stroke-width: 1.5; stroke-linecap: square"/>
    </g>
    <g id="text_20">
     <!-- star -->
     <g style="fill: #a9a9a9" transform="translate(843.08 331.998438) scale(0.1 -0.1)">
      <defs>
       <path id="DejaVuSans-61" d="M 2194 1759 
Q 1497 1759 1228 1600 
Q 959 1441 959 1056 
Q 959 750 1161 570 
Q 1363 391 1709 391 
Q 2188 391 2477 730 
Q 2766 1069 2766 1631 
L 2766 1759 
L 2194 1759 
z
M 3341 1997 
L 3341 0 
L 2766 0 
L 2766 531 
Q 2569 213 2275 61 
Q 1981 -91 1556 -91 
Q 1019 -91 701 211 
Q 384 513 384 1019 
Q 384 1609 779 1909 
Q 1175 2209 1959 2209 
L 2766 2209 
L 2766 2266 
Q 2766 2663 2505 2880 
Q 2244 3097 1772 3097 
Q 1472 3097 1187 3025 
Q 903 2953 641 2809 
L 641 3341 
Q 956 3463 1253 3523 
Q 1550 3584 1831 3584 
Q 2591 3584 2966 3190 
Q 3341 2797 3341 1997 
z
" transform="scale(0.015625)"/>
      </defs>
      <use xlink:href="#DejaVuSans-73"/>
      <use xlink:href="#DejaVuSans-74" x="52.099609"/>
      <use xlink:href="#DejaVuSans-61" x="91.308594"/>
      <use xlink:href="#DejaVuSans-72" x="152.587891"/>
     </g>
    </g>
    <g id="line2d_40">
     <path d="M 815.08 343.176562 
L 825.08 343.176562 
L 835.08 343.176562 
" style="fill: none; stroke: #ff7f0e; stroke-width: 1.5; stroke-linecap: square"/>
    </g>
    <g id="text_21">
     <!-- fork -->
     <g style="fill: #a9a9a9" transform="translate(843.08 346.676562) scale(0.1 -0.1)">
      <defs>
       <path id="DejaVuSans-66" d="M 2375 4863 
L 2375 4384 
L 1825 4384 
Q 1516 4384 1395 4259 
Q 1275 4134 1275 3809 
L 1275 3500 
L 2222 3500 
L 2222 3053 
L 1275 3053 
L 1275 0 
L 697 0 
L 697 3053 
L 147 3053 
L 147 3500 
L 697 3500 
L 697 3744 
Q 697 4328 969 4595 
Q 1241 4863 1831 4863 
L 2375 4863 
z
" transform="scale(0.015625)"/>
       <path id="DejaVuSans-6b" d="M 581 4863 
L 1159 4863 
L 1159 1991 
L 2875 3500 
L 3609 3500 
L 1753 1863 
L 3688 0 
L 2938 0 
L 1159 1709 
L 1159 0 
L 581 0 
L 581 4863 
z
" transform="scale(0.015625)"/>
      </defs>
      <use xlink:href="#DejaVuSans-66"/>
      <use xlink:href="#DejaVuSans-6f" x="35.205078"/>
      <use xlink:href="#DejaVuSans-72" x="96.386719"/>
      <use xlink:href="#DejaVuSans-6b" x="137.5"/>
     </g>
    </g>
   </g>
  </g>
 </g>
 <defs>
  <clipPath id="pea38d09e39">
   <rect x="108" y="43.2" width="669.6" height="277.2"/>
  </clipPath>
 </defs>
</svg>
