<?xml version="1.0" encoding="utf-8" standalone="no"?>
<!DOCTYPE svg PUBLIC "-//W3C//DTD SVG 1.1//EN"
  "http://www.w3.org/Graphics/SVG/1.1/DTD/svg11.dtd">
<svg xmlns:xlink="http://www.w3.org/1999/xlink" width="864pt" height="360pt" viewBox="0 0 864 360" xmlns="http://www.w3.org/2000/svg" version="1.1">
 <metadata>
  <rdf:RDF xmlns:dc="http://purl.org/dc/elements/1.1/" xmlns:cc="http://creativecommons.org/ns#" xmlns:rdf="http://www.w3.org/1999/02/22-rdf-syntax-ns#">
   <cc:Work>
    <dc:type rdf:resource="http://purl.org/dc/dcmitype/StillImage"/>
    <dc:date>2024-06-18T08:11:46.124775</dc:date>
    <dc:format>image/svg+xml</dc:format>
    <dc:creator>
     <cc:Agent>
      <dc:title>Matplotlib v3.9.0, https://matplotlib.org/</dc:title>
     </cc:Agent>
    </dc:creator>
   </cc:Work>
  </rdf:RDF>
 </metadata>
 <defs>
  <style type="text/css">*{stroke-linejoin: round; stroke-linecap: butt}</style>
 </defs>
 <g id="figure_1">
  <g id="patch_1">
   <path d="M 0 360 
L 864 360 
L 864 0 
L 0 0 
L 0 360 
z
" style="fill: none; opacity: 0"/>
  </g>
  <g id="axes_1">
   <g id="patch_2">
    <path d="M 108 320.4 
L 777.6 320.4 
L 777.6 43.2 
L 108 43.2 
L 108 320.4 
z
" style="fill: none; opacity: 0"/>
   </g>
   <g id="matplotlib.axis_1">
    <g id="xtick_1">
     <g id="line2d_1">
      <path d="M 160.832933 320.4 
L 160.832933 43.2 
" clip-path="url(#p00804765d2)" style="fill: none; stroke-dasharray: 5.12,1.28,0.8,1.28; stroke-dashoffset: 0; stroke: #b0b0b0; stroke-width: 0.8"/>
     </g>
     <g id="line2d_2">
      <defs>
       <path id="m01b2d2815b" d="M 0 0 
L 0 3.5 
" style="stroke: #a9a9a9; stroke-width: 0.8"/>
      </defs>
      <g>
       <use xlink:href="#m01b2d2815b" x="160.832933" y="320.4" style="fill: #a9a9a9; stroke: #a9a9a9; stroke-width: 0.8"/>
      </g>
     </g>
     <g id="text_1">
      <!-- 2021-09 -->
      <g style="fill: #a9a9a9" transform="translate(139.941527 334.998438) scale(0.1 -0.1)">
       <defs>
        <path id="DejaVuSans-32" d="M 1228 531 
L 3431 531 
L 3431 0 
L 469 0 
L 469 531 
Q 828 903 1448 1529 
Q 2069 2156 2228 2338 
Q 2531 2678 2651 2914 
Q 2772 3150 2772 3378 
Q 2772 3750 2511 3984 
Q 2250 4219 1831 4219 
Q 1534 4219 1204 4116 
Q 875 4013 500 3803 
L 500 4441 
Q 881 4594 1212 4672 
Q 1544 4750 1819 4750 
Q 2544 4750 2975 4387 
Q 3406 4025 3406 3419 
Q 3406 3131 3298 2873 
Q 3191 2616 2906 2266 
Q 2828 2175 2409 1742 
Q 1991 1309 1228 531 
z
" transform="scale(0.015625)"/>
        <path id="DejaVuSans-30" d="M 2034 4250 
Q 1547 4250 1301 3770 
Q 1056 3291 1056 2328 
Q 1056 1369 1301 889 
Q 1547 409 2034 409 
Q 2525 409 2770 889 
Q 3016 1369 3016 2328 
Q 3016 3291 2770 3770 
Q 2525 4250 2034 4250 
z
M 2034 4750 
Q 2819 4750 3233 4129 
Q 3647 3509 3647 2328 
Q 3647 1150 3233 529 
Q 2819 -91 2034 -91 
Q 1250 -91 836 529 
Q 422 1150 422 2328 
Q 422 3509 836 4129 
Q 1250 4750 2034 4750 
z
" transform="scale(0.015625)"/>
        <path id="DejaVuSans-31" d="M 794 531 
L 1825 531 
L 1825 4091 
L 703 3866 
L 703 4441 
L 1819 4666 
L 2450 4666 
L 2450 531 
L 3481 531 
L 3481 0 
L 794 0 
L 794 531 
z
" transform="scale(0.015625)"/>
        <path id="DejaVuSans-2d" d="M 313 2009 
L 1997 2009 
L 1997 1497 
L 313 1497 
L 313 2009 
z
" transform="scale(0.015625)"/>
        <path id="DejaVuSans-39" d="M 703 97 
L 703 672 
Q 941 559 1184 500 
Q 1428 441 1663 441 
Q 2288 441 2617 861 
Q 2947 1281 2994 2138 
Q 2813 1869 2534 1725 
Q 2256 1581 1919 1581 
Q 1219 1581 811 2004 
Q 403 2428 403 3163 
Q 403 3881 828 4315 
Q 1253 4750 1959 4750 
Q 2769 4750 3195 4129 
Q 3622 3509 3622 2328 
Q 3622 1225 3098 567 
Q 2575 -91 1691 -91 
Q 1453 -91 1209 -44 
Q 966 3 703 97 
z
M 1959 2075 
Q 2384 2075 2632 2365 
Q 2881 2656 2881 3163 
Q 2881 3666 2632 3958 
Q 2384 4250 1959 4250 
Q 1534 4250 1286 3958 
Q 1038 3666 1038 3163 
Q 1038 2656 1286 2365 
Q 1534 2075 1959 2075 
z
" transform="scale(0.015625)"/>
       </defs>
       <use xlink:href="#DejaVuSans-32"/>
       <use xlink:href="#DejaVuSans-30" x="63.623047"/>
       <use xlink:href="#DejaVuSans-32" x="127.246094"/>
       <use xlink:href="#DejaVuSans-31" x="190.869141"/>
       <use xlink:href="#DejaVuSans-2d" x="254.492188"/>
       <use xlink:href="#DejaVuSans-30" x="290.576172"/>
       <use xlink:href="#DejaVuSans-39" x="354.199219"/>
      </g>
     </g>
    </g>
    <g id="xtick_2">
     <g id="line2d_3">
      <path d="M 230.893997 320.4 
L 230.893997 43.2 
" clip-path="url(#p00804765d2)" style="fill: none; stroke-dasharray: 5.12,1.28,0.8,1.28; stroke-dashoffset: 0; stroke: #b0b0b0; stroke-width: 0.8"/>
     </g>
     <g id="line2d_4">
      <g>
       <use xlink:href="#m01b2d2815b" x="230.893997" y="320.4" style="fill: #a9a9a9; stroke: #a9a9a9; stroke-width: 0.8"/>
      </g>
     </g>
     <g id="text_2">
      <!-- 2022-01 -->
      <g style="fill: #a9a9a9" transform="translate(210.00259 334.998438) scale(0.1 -0.1)">
       <use xlink:href="#DejaVuSans-32"/>
       <use xlink:href="#DejaVuSans-30" x="63.623047"/>
       <use xlink:href="#DejaVuSans-32" x="127.246094"/>
       <use xlink:href="#DejaVuSans-32" x="190.869141"/>
       <use xlink:href="#DejaVuSans-2d" x="254.492188"/>
       <use xlink:href="#DejaVuSans-30" x="290.576172"/>
       <use xlink:href="#DejaVuSans-31" x="354.199219"/>
      </g>
     </g>
    </g>
    <g id="xtick_3">
     <g id="line2d_5">
      <path d="M 299.806518 320.4 
L 299.806518 43.2 
" clip-path="url(#p00804765d2)" style="fill: none; stroke-dasharray: 5.12,1.28,0.8,1.28; stroke-dashoffset: 0; stroke: #b0b0b0; stroke-width: 0.8"/>
     </g>
     <g id="line2d_6">
      <g>
       <use xlink:href="#m01b2d2815b" x="299.806518" y="320.4" style="fill: #a9a9a9; stroke: #a9a9a9; stroke-width: 0.8"/>
      </g>
     </g>
     <g id="text_3">
      <!-- 2022-05 -->
      <g style="fill: #a9a9a9" transform="translate(278.915112 334.998438) scale(0.1 -0.1)">
       <defs>
        <path id="DejaVuSans-35" d="M 691 4666 
L 3169 4666 
L 3169 4134 
L 1269 4134 
L 1269 2991 
Q 1406 3038 1543 3061 
Q 1681 3084 1819 3084 
Q 2600 3084 3056 2656 
Q 3513 2228 3513 1497 
Q 3513 744 3044 326 
Q 2575 -91 1722 -91 
Q 1428 -91 1123 -41 
Q 819 9 494 109 
L 494 744 
Q 775 591 1075 516 
Q 1375 441 1709 441 
Q 2250 441 2565 725 
Q 2881 1009 2881 1497 
Q 2881 1984 2565 2268 
Q 2250 2553 1709 2553 
Q 1456 2553 1204 2497 
Q 953 2441 691 2322 
L 691 4666 
z
" transform="scale(0.015625)"/>
       </defs>
       <use xlink:href="#DejaVuSans-32"/>
       <use xlink:href="#DejaVuSans-30" x="63.623047"/>
       <use xlink:href="#DejaVuSans-32" x="127.246094"/>
       <use xlink:href="#DejaVuSans-32" x="190.869141"/>
       <use xlink:href="#DejaVuSans-2d" x="254.492188"/>
       <use xlink:href="#DejaVuSans-30" x="290.576172"/>
       <use xlink:href="#DejaVuSans-35" x="354.199219"/>
      </g>
     </g>
    </g>
    <g id="xtick_4">
     <g id="line2d_7">
      <path d="M 370.441852 320.4 
L 370.441852 43.2 
" clip-path="url(#p00804765d2)" style="fill: none; stroke-dasharray: 5.12,1.28,0.8,1.28; stroke-dashoffset: 0; stroke: #b0b0b0; stroke-width: 0.8"/>
     </g>
     <g id="line2d_8">
      <g>
       <use xlink:href="#m01b2d2815b" x="370.441852" y="320.4" style="fill: #a9a9a9; stroke: #a9a9a9; stroke-width: 0.8"/>
      </g>
     </g>
     <g id="text_4">
      <!-- 2022-09 -->
      <g style="fill: #a9a9a9" transform="translate(349.550446 334.998438) scale(0.1 -0.1)">
       <use xlink:href="#DejaVuSans-32"/>
       <use xlink:href="#DejaVuSans-30" x="63.623047"/>
       <use xlink:href="#DejaVuSans-32" x="127.246094"/>
       <use xlink:href="#DejaVuSans-32" x="190.869141"/>
       <use xlink:href="#DejaVuSans-2d" x="254.492188"/>
       <use xlink:href="#DejaVuSans-30" x="290.576172"/>
       <use xlink:href="#DejaVuSans-39" x="354.199219"/>
      </g>
     </g>
    </g>
    <g id="xtick_5">
     <g id="line2d_9">
      <path d="M 440.502916 320.4 
L 440.502916 43.2 
" clip-path="url(#p00804765d2)" style="fill: none; stroke-dasharray: 5.12,1.28,0.8,1.28; stroke-dashoffset: 0; stroke: #b0b0b0; stroke-width: 0.8"/>
     </g>
     <g id="line2d_10">
      <g>
       <use xlink:href="#m01b2d2815b" x="440.502916" y="320.4" style="fill: #a9a9a9; stroke: #a9a9a9; stroke-width: 0.8"/>
      </g>
     </g>
     <g id="text_5">
      <!-- 2023-01 -->
      <g style="fill: #a9a9a9" transform="translate(419.61151 334.998438) scale(0.1 -0.1)">
       <defs>
        <path id="DejaVuSans-33" d="M 2597 2516 
Q 3050 2419 3304 2112 
Q 3559 1806 3559 1356 
Q 3559 666 3084 287 
Q 2609 -91 1734 -91 
Q 1441 -91 1130 -33 
Q 819 25 488 141 
L 488 750 
Q 750 597 1062 519 
Q 1375 441 1716 441 
Q 2309 441 2620 675 
Q 2931 909 2931 1356 
Q 2931 1769 2642 2001 
Q 2353 2234 1838 2234 
L 1294 2234 
L 1294 2753 
L 1863 2753 
Q 2328 2753 2575 2939 
Q 2822 3125 2822 3475 
Q 2822 3834 2567 4026 
Q 2313 4219 1838 4219 
Q 1578 4219 1281 4162 
Q 984 4106 628 3988 
L 628 4550 
Q 988 4650 1302 4700 
Q 1616 4750 1894 4750 
Q 2613 4750 3031 4423 
Q 3450 4097 3450 3541 
Q 3450 3153 3228 2886 
Q 3006 2619 2597 2516 
z
" transform="scale(0.015625)"/>
       </defs>
       <use xlink:href="#DejaVuSans-32"/>
       <use xlink:href="#DejaVuSans-30" x="63.623047"/>
       <use xlink:href="#DejaVuSans-32" x="127.246094"/>
       <use xlink:href="#DejaVuSans-33" x="190.869141"/>
       <use xlink:href="#DejaVuSans-2d" x="254.492188"/>
       <use xlink:href="#DejaVuSans-30" x="290.576172"/>
       <use xlink:href="#DejaVuSans-31" x="354.199219"/>
      </g>
     </g>
    </g>
    <g id="xtick_6">
     <g id="line2d_11">
      <path d="M 509.415437 320.4 
L 509.415437 43.2 
" clip-path="url(#p00804765d2)" style="fill: none; stroke-dasharray: 5.12,1.28,0.8,1.28; stroke-dashoffset: 0; stroke: #b0b0b0; stroke-width: 0.8"/>
     </g>
     <g id="line2d_12">
      <g>
       <use xlink:href="#m01b2d2815b" x="509.415437" y="320.4" style="fill: #a9a9a9; stroke: #a9a9a9; stroke-width: 0.8"/>
      </g>
     </g>
     <g id="text_6">
      <!-- 2023-05 -->
      <g style="fill: #a9a9a9" transform="translate(488.524031 334.998438) scale(0.1 -0.1)">
       <use xlink:href="#DejaVuSans-32"/>
       <use xlink:href="#DejaVuSans-30" x="63.623047"/>
       <use xlink:href="#DejaVuSans-32" x="127.246094"/>
       <use xlink:href="#DejaVuSans-33" x="190.869141"/>
       <use xlink:href="#DejaVuSans-2d" x="254.492188"/>
       <use xlink:href="#DejaVuSans-30" x="290.576172"/>
       <use xlink:href="#DejaVuSans-35" x="354.199219"/>
      </g>
     </g>
    </g>
    <g id="xtick_7">
     <g id="line2d_13">
      <path d="M 580.050772 320.4 
L 580.050772 43.2 
" clip-path="url(#p00804765d2)" style="fill: none; stroke-dasharray: 5.12,1.28,0.8,1.28; stroke-dashoffset: 0; stroke: #b0b0b0; stroke-width: 0.8"/>
     </g>
     <g id="line2d_14">
      <g>
       <use xlink:href="#m01b2d2815b" x="580.050772" y="320.4" style="fill: #a9a9a9; stroke: #a9a9a9; stroke-width: 0.8"/>
      </g>
     </g>
     <g id="text_7">
      <!-- 2023-09 -->
      <g style="fill: #a9a9a9" transform="translate(559.159366 334.998438) scale(0.1 -0.1)">
       <use xlink:href="#DejaVuSans-32"/>
       <use xlink:href="#DejaVuSans-30" x="63.623047"/>
       <use xlink:href="#DejaVuSans-32" x="127.246094"/>
       <use xlink:href="#DejaVuSans-33" x="190.869141"/>
       <use xlink:href="#DejaVuSans-2d" x="254.492188"/>
       <use xlink:href="#DejaVuSans-30" x="290.576172"/>
       <use xlink:href="#DejaVuSans-39" x="354.199219"/>
      </g>
     </g>
    </g>
    <g id="xtick_8">
     <g id="line2d_15">
      <path d="M 650.111835 320.4 
L 650.111835 43.2 
" clip-path="url(#p00804765d2)" style="fill: none; stroke-dasharray: 5.12,1.28,0.8,1.28; stroke-dashoffset: 0; stroke: #b0b0b0; stroke-width: 0.8"/>
     </g>
     <g id="line2d_16">
      <g>
       <use xlink:href="#m01b2d2815b" x="650.111835" y="320.4" style="fill: #a9a9a9; stroke: #a9a9a9; stroke-width: 0.8"/>
      </g>
     </g>
     <g id="text_8">
      <!-- 2024-01 -->
      <g style="fill: #a9a9a9" transform="translate(629.220429 334.998438) scale(0.1 -0.1)">
       <defs>
        <path id="DejaVuSans-34" d="M 2419 4116 
L 825 1625 
L 2419 1625 
L 2419 4116 
z
M 2253 4666 
L 3047 4666 
L 3047 1625 
L 3713 1625 
L 3713 1100 
L 3047 1100 
L 3047 0 
L 2419 0 
L 2419 1100 
L 313 1100 
L 313 1709 
L 2253 4666 
z
" transform="scale(0.015625)"/>
       </defs>
       <use xlink:href="#DejaVuSans-32"/>
       <use xlink:href="#DejaVuSans-30" x="63.623047"/>
       <use xlink:href="#DejaVuSans-32" x="127.246094"/>
       <use xlink:href="#DejaVuSans-34" x="190.869141"/>
       <use xlink:href="#DejaVuSans-2d" x="254.492188"/>
       <use xlink:href="#DejaVuSans-30" x="290.576172"/>
       <use xlink:href="#DejaVuSans-31" x="354.199219"/>
      </g>
     </g>
    </g>
    <g id="xtick_9">
     <g id="line2d_17">
      <path d="M 719.598628 320.4 
L 719.598628 43.2 
" clip-path="url(#p00804765d2)" style="fill: none; stroke-dasharray: 5.12,1.28,0.8,1.28; stroke-dashoffset: 0; stroke: #b0b0b0; stroke-width: 0.8"/>
     </g>
     <g id="line2d_18">
      <g>
       <use xlink:href="#m01b2d2815b" x="719.598628" y="320.4" style="fill: #a9a9a9; stroke: #a9a9a9; stroke-width: 0.8"/>
      </g>
     </g>
     <g id="text_9">
      <!-- 2024-05 -->
      <g style="fill: #a9a9a9" transform="translate(698.707222 334.998438) scale(0.1 -0.1)">
       <use xlink:href="#DejaVuSans-32"/>
       <use xlink:href="#DejaVuSans-30" x="63.623047"/>
       <use xlink:href="#DejaVuSans-32" x="127.246094"/>
       <use xlink:href="#DejaVuSans-34" x="190.869141"/>
       <use xlink:href="#DejaVuSans-2d" x="254.492188"/>
       <use xlink:href="#DejaVuSans-30" x="290.576172"/>
       <use xlink:href="#DejaVuSans-35" x="354.199219"/>
      </g>
     </g>
    </g>
   </g>
   <g id="matplotlib.axis_2">
    <g id="ytick_1">
     <g id="line2d_19">
      <path d="M 108 307.840256 
L 777.6 307.840256 
" clip-path="url(#p00804765d2)" style="fill: none; stroke-dasharray: 5.12,1.28,0.8,1.28; stroke-dashoffset: 0; stroke: #b0b0b0; stroke-width: 0.8"/>
     </g>
     <g id="line2d_20">
      <defs>
       <path id="m600cbe7452" d="M 0 0 
L -3.5 0 
" style="stroke: #a9a9a9; stroke-width: 0.8"/>
      </defs>
      <g>
       <use xlink:href="#m600cbe7452" x="108" y="307.840256" style="fill: #a9a9a9; stroke: #a9a9a9; stroke-width: 0.8"/>
      </g>
     </g>
     <g id="text_10">
      <!-- 0 -->
      <g style="fill: #a9a9a9" transform="translate(94.6375 311.639474) scale(0.1 -0.1)">
       <use xlink:href="#DejaVuSans-30"/>
      </g>
     </g>
    </g>
    <g id="ytick_2">
     <g id="line2d_21">
      <path d="M 108 275.635783 
L 777.6 275.635783 
" clip-path="url(#p00804765d2)" style="fill: none; stroke-dasharray: 5.12,1.28,0.8,1.28; stroke-dashoffset: 0; stroke: #b0b0b0; stroke-width: 0.8"/>
     </g>
     <g id="line2d_22">
      <g>
       <use xlink:href="#m600cbe7452" x="108" y="275.635783" style="fill: #a9a9a9; stroke: #a9a9a9; stroke-width: 0.8"/>
      </g>
     </g>
     <g id="text_11">
      <!-- 800 -->
      <g style="fill: #a9a9a9" transform="translate(81.9125 279.435001) scale(0.1 -0.1)">
       <defs>
        <path id="DejaVuSans-38" d="M 2034 2216 
Q 1584 2216 1326 1975 
Q 1069 1734 1069 1313 
Q 1069 891 1326 650 
Q 1584 409 2034 409 
Q 2484 409 2743 651 
Q 3003 894 3003 1313 
Q 3003 1734 2745 1975 
Q 2488 2216 2034 2216 
z
M 1403 2484 
Q 997 2584 770 2862 
Q 544 3141 544 3541 
Q 544 4100 942 4425 
Q 1341 4750 2034 4750 
Q 2731 4750 3128 4425 
Q 3525 4100 3525 3541 
Q 3525 3141 3298 2862 
Q 3072 2584 2669 2484 
Q 3125 2378 3379 2068 
Q 3634 1759 3634 1313 
Q 3634 634 3220 271 
Q 2806 -91 2034 -91 
Q 1263 -91 848 271 
Q 434 634 434 1313 
Q 434 1759 690 2068 
Q 947 2378 1403 2484 
z
M 1172 3481 
Q 1172 3119 1398 2916 
Q 1625 2713 2034 2713 
Q 2441 2713 2670 2916 
Q 2900 3119 2900 3481 
Q 2900 3844 2670 4047 
Q 2441 4250 2034 4250 
Q 1625 4250 1398 4047 
Q 1172 3844 1172 3481 
z
" transform="scale(0.015625)"/>
       </defs>
       <use xlink:href="#DejaVuSans-38"/>
       <use xlink:href="#DejaVuSans-30" x="63.623047"/>
       <use xlink:href="#DejaVuSans-30" x="127.246094"/>
      </g>
     </g>
    </g>
    <g id="ytick_3">
     <g id="line2d_23">
      <path d="M 108 243.43131 
L 777.6 243.43131 
" clip-path="url(#p00804765d2)" style="fill: none; stroke-dasharray: 5.12,1.28,0.8,1.28; stroke-dashoffset: 0; stroke: #b0b0b0; stroke-width: 0.8"/>
     </g>
     <g id="line2d_24">
      <g>
       <use xlink:href="#m600cbe7452" x="108" y="243.43131" style="fill: #a9a9a9; stroke: #a9a9a9; stroke-width: 0.8"/>
      </g>
     </g>
     <g id="text_12">
      <!-- 1600 -->
      <g style="fill: #a9a9a9" transform="translate(75.55 247.230529) scale(0.1 -0.1)">
       <defs>
        <path id="DejaVuSans-36" d="M 2113 2584 
Q 1688 2584 1439 2293 
Q 1191 2003 1191 1497 
Q 1191 994 1439 701 
Q 1688 409 2113 409 
Q 2538 409 2786 701 
Q 3034 994 3034 1497 
Q 3034 2003 2786 2293 
Q 2538 2584 2113 2584 
z
M 3366 4563 
L 3366 3988 
Q 3128 4100 2886 4159 
Q 2644 4219 2406 4219 
Q 1781 4219 1451 3797 
Q 1122 3375 1075 2522 
Q 1259 2794 1537 2939 
Q 1816 3084 2150 3084 
Q 2853 3084 3261 2657 
Q 3669 2231 3669 1497 
Q 3669 778 3244 343 
Q 2819 -91 2113 -91 
Q 1303 -91 875 529 
Q 447 1150 447 2328 
Q 447 3434 972 4092 
Q 1497 4750 2381 4750 
Q 2619 4750 2861 4703 
Q 3103 4656 3366 4563 
z
" transform="scale(0.015625)"/>
       </defs>
       <use xlink:href="#DejaVuSans-31"/>
       <use xlink:href="#DejaVuSans-36" x="63.623047"/>
       <use xlink:href="#DejaVuSans-30" x="127.246094"/>
       <use xlink:href="#DejaVuSans-30" x="190.869141"/>
      </g>
     </g>
    </g>
    <g id="ytick_4">
     <g id="line2d_25">
      <path d="M 108 211.226837 
L 777.6 211.226837 
" clip-path="url(#p00804765d2)" style="fill: none; stroke-dasharray: 5.12,1.28,0.8,1.28; stroke-dashoffset: 0; stroke: #b0b0b0; stroke-width: 0.8"/>
     </g>
     <g id="line2d_26">
      <g>
       <use xlink:href="#m600cbe7452" x="108" y="211.226837" style="fill: #a9a9a9; stroke: #a9a9a9; stroke-width: 0.8"/>
      </g>
     </g>
     <g id="text_13">
      <!-- 2400 -->
      <g style="fill: #a9a9a9" transform="translate(75.55 215.026056) scale(0.1 -0.1)">
       <use xlink:href="#DejaVuSans-32"/>
       <use xlink:href="#DejaVuSans-34" x="63.623047"/>
       <use xlink:href="#DejaVuSans-30" x="127.246094"/>
       <use xlink:href="#DejaVuSans-30" x="190.869141"/>
      </g>
     </g>
    </g>
    <g id="ytick_5">
     <g id="line2d_27">
      <path d="M 108 179.022364 
L 777.6 179.022364 
" clip-path="url(#p00804765d2)" style="fill: none; stroke-dasharray: 5.12,1.28,0.8,1.28; stroke-dashoffset: 0; stroke: #b0b0b0; stroke-width: 0.8"/>
     </g>
     <g id="line2d_28">
      <g>
       <use xlink:href="#m600cbe7452" x="108" y="179.022364" style="fill: #a9a9a9; stroke: #a9a9a9; stroke-width: 0.8"/>
      </g>
     </g>
     <g id="text_14">
      <!-- 3200 -->
      <g style="fill: #a9a9a9" transform="translate(75.55 182.821583) scale(0.1 -0.1)">
       <use xlink:href="#DejaVuSans-33"/>
       <use xlink:href="#DejaVuSans-32" x="63.623047"/>
       <use xlink:href="#DejaVuSans-30" x="127.246094"/>
       <use xlink:href="#DejaVuSans-30" x="190.869141"/>
      </g>
     </g>
    </g>
    <g id="ytick_6">
     <g id="line2d_29">
      <path d="M 108 146.817891 
L 777.6 146.817891 
" clip-path="url(#p00804765d2)" style="fill: none; stroke-dasharray: 5.12,1.28,0.8,1.28; stroke-dashoffset: 0; stroke: #b0b0b0; stroke-width: 0.8"/>
     </g>
     <g id="line2d_30">
      <g>
       <use xlink:href="#m600cbe7452" x="108" y="146.817891" style="fill: #a9a9a9; stroke: #a9a9a9; stroke-width: 0.8"/>
      </g>
     </g>
     <g id="text_15">
      <!-- 4000 -->
      <g style="fill: #a9a9a9" transform="translate(75.55 150.61711) scale(0.1 -0.1)">
       <use xlink:href="#DejaVuSans-34"/>
       <use xlink:href="#DejaVuSans-30" x="63.623047"/>
       <use xlink:href="#DejaVuSans-30" x="127.246094"/>
       <use xlink:href="#DejaVuSans-30" x="190.869141"/>
      </g>
     </g>
    </g>
    <g id="ytick_7">
     <g id="line2d_31">
      <path d="M 108 114.613419 
L 777.6 114.613419 
" clip-path="url(#p00804765d2)" style="fill: none; stroke-dasharray: 5.12,1.28,0.8,1.28; stroke-dashoffset: 0; stroke: #b0b0b0; stroke-width: 0.8"/>
     </g>
     <g id="line2d_32">
      <g>
       <use xlink:href="#m600cbe7452" x="108" y="114.613419" style="fill: #a9a9a9; stroke: #a9a9a9; stroke-width: 0.8"/>
      </g>
     </g>
     <g id="text_16">
      <!-- 4800 -->
      <g style="fill: #a9a9a9" transform="translate(75.55 118.412637) scale(0.1 -0.1)">
       <use xlink:href="#DejaVuSans-34"/>
       <use xlink:href="#DejaVuSans-38" x="63.623047"/>
       <use xlink:href="#DejaVuSans-30" x="127.246094"/>
       <use xlink:href="#DejaVuSans-30" x="190.869141"/>
      </g>
     </g>
    </g>
    <g id="ytick_8">
     <g id="line2d_33">
      <path d="M 108 82.408946 
L 777.6 82.408946 
" clip-path="url(#p00804765d2)" style="fill: none; stroke-dasharray: 5.12,1.28,0.8,1.28; stroke-dashoffset: 0; stroke: #b0b0b0; stroke-width: 0.8"/>
     </g>
     <g id="line2d_34">
      <g>
       <use xlink:href="#m600cbe7452" x="108" y="82.408946" style="fill: #a9a9a9; stroke: #a9a9a9; stroke-width: 0.8"/>
      </g>
     </g>
     <g id="text_17">
      <!-- 5600 -->
      <g style="fill: #a9a9a9" transform="translate(75.55 86.208164) scale(0.1 -0.1)">
       <use xlink:href="#DejaVuSans-35"/>
       <use xlink:href="#DejaVuSans-36" x="63.623047"/>
       <use xlink:href="#DejaVuSans-30" x="127.246094"/>
       <use xlink:href="#DejaVuSans-30" x="190.869141"/>
      </g>
     </g>
    </g>
    <g id="ytick_9">
     <g id="line2d_35">
      <path d="M 108 50.204473 
L 777.6 50.204473 
" clip-path="url(#p00804765d2)" style="fill: none; stroke-dasharray: 5.12,1.28,0.8,1.28; stroke-dashoffset: 0; stroke: #b0b0b0; stroke-width: 0.8"/>
     </g>
     <g id="line2d_36">
      <g>
       <use xlink:href="#m600cbe7452" x="108" y="50.204473" style="fill: #a9a9a9; stroke: #a9a9a9; stroke-width: 0.8"/>
      </g>
     </g>
     <g id="text_18">
      <!-- 6400 -->
      <g style="fill: #a9a9a9" transform="translate(75.55 54.003692) scale(0.1 -0.1)">
       <use xlink:href="#DejaVuSans-36"/>
       <use xlink:href="#DejaVuSans-34" x="63.623047"/>
       <use xlink:href="#DejaVuSans-30" x="127.246094"/>
       <use xlink:href="#DejaVuSans-30" x="190.869141"/>
      </g>
     </g>
    </g>
   </g>
   <g id="line2d_37">
    <path d="M 138.436364 307.719489 
L 141.88199 307.4377 
L 142.456261 307.196166 
L 144.179074 306.994888 
L 147.6247 306.310543 
L 151.070326 306.028754 
L 152.218868 305.585942 
L 152.793139 304.861342 
L 153.36741 304.458786 
L 153.941681 303.210863 
L 154.515952 303.130351 
L 155.090223 302.68754 
L 156.238765 302.123962 
L 158.535849 300.352716 
L 159.684391 299.909904 
L 160.258662 299.507348 
L 162.555746 298.500958 
L 163.130017 297.615335 
L 164.278559 296.810224 
L 164.85283 296.56869 
L 170.59554 295.763578 
L 171.169811 295.481789 
L 175.189708 295.159744 
L 176.912521 294.716933 
L 182.080961 294.032588 
L 182.655232 293.710543 
L 183.229503 293.630032 
L 183.803774 293.388498 
L 184.952316 293.18722 
L 185.526587 293.146965 
L 186.675129 292.905431 
L 187.2494 292.865176 
L 189.546484 292.301597 
L 191.269297 292.140575 
L 192.417839 292.019808 
L 192.99211 291.858786 
L 193.566381 291.81853 
L 195.289194 291.295208 
L 196.437736 291.214696 
L 197.586278 291.053674 
L 198.73482 290.812141 
L 199.309091 290.651118 
L 199.883362 289.886262 
L 201.606175 289.242173 
L 203.328988 288.799361 
L 203.903259 288.517572 
L 204.47753 288.477316 
L 207.348885 287.672204 
L 208.497427 287.591693 
L 209.071698 287.511182 
L 210.794511 286.987859 
L 213.091595 286.424281 
L 213.665866 286.182748 
L 214.240137 286.102236 
L 214.814408 285.820447 
L 220.557118 284.97508 
L 223.428473 284.169968 
L 224.002744 283.807668 
L 226.299828 283.203834 
L 228.596913 282.036422 
L 230.319726 281.633866 
L 230.893997 281.553355 
L 231.468268 281.271565 
L 232.61681 281.070288 
L 233.765352 280.546965 
L 236.636707 279.822364 
L 238.35952 279.379553 
L 238.933791 279.138019 
L 239.508062 279.017252 
L 240.082333 278.775719 
L 240.656604 278.695208 
L 241.805146 278.252396 
L 242.953688 278.171885 
L 244.10223 277.769329 
L 246.973585 277.326518 
L 247.547856 277.12524 
L 248.696398 277.084984 
L 250.993482 276.803195 
L 252.142024 276.239617 
L 258.459005 273.542492 
L 259.033276 273.220447 
L 259.607547 272.616613 
L 260.756089 270.925879 
L 261.33036 270.764856 
L 261.904631 270.764856 
L 263.053173 269.919489 
L 263.627444 269.758466 
L 264.201715 269.476677 
L 264.775986 269.355911 
L 265.350257 268.832588 
L 265.924528 268.671565 
L 267.647341 267.866454 
L 268.795883 266.25623 
L 269.370154 265.89393 
L 269.944425 264.927796 
L 270.518696 264.323962 
L 273.964322 262.552716 
L 275.112864 261.667093 
L 275.687136 261.304792 
L 276.261407 260.459425 
L 276.835678 259.211502 
L 277.409949 258.366134 
L 277.98422 257.923323 
L 278.558491 257.681789 
L 280.855575 255.66901 
L 282.004117 254.743131 
L 282.578388 254.260064 
L 283.152659 253.495208 
L 284.301201 252.488818 
L 286.598285 250.999361 
L 287.172556 250.516294 
L 287.746827 250.395527 
L 288.321098 250.153994 
L 290.043911 249.187859 
L 291.766724 248.100958 
L 293.489537 246.410224 
L 294.063808 246.047923 
L 294.638079 245.886901 
L 295.21235 245.605112 
L 296.360892 244.840256 
L 296.935163 244.518211 
L 297.509434 244.4377 
L 301.529331 241.982109 
L 303.826415 240.774441 
L 304.400686 240.251118 
L 306.69777 239.526518 
L 307.272041 239.123962 
L 307.846312 239.003195 
L 308.994854 238.600639 
L 310.717667 237.916294 
L 312.44048 237.272204 
L 313.589022 237.070927 
L 314.737564 236.064537 
L 316.460377 235.259425 
L 317.608919 234.57508 
L 318.757461 234.253035 
L 319.331732 233.890735 
L 319.906003 233.729712 
L 321.628816 232.642812 
L 324.500172 231.958466 
L 326.222985 230.952077 
L 326.797256 230.871565 
L 327.371527 230.670288 
L 328.520069 230.428754 
L 330.242882 229.140575 
L 331.965695 228.738019 
L 332.539966 228.536741 
L 333.114237 228.09393 
L 336.559863 226.966773 
L 337.134134 226.926518 
L 337.708405 226.765495 
L 338.856947 226.282428 
L 342.876844 224.873482 
L 344.025386 224.71246 
L 344.599657 224.551438 
L 345.173928 224.269649 
L 345.748199 224.148882 
L 347.471012 223.34377 
L 352.639451 220.888179 
L 353.213722 220.727157 
L 354.362264 220.123323 
L 355.510806 219.801278 
L 356.085077 219.720767 
L 357.233619 219.036422 
L 357.80789 218.955911 
L 358.956432 218.472843 
L 359.530703 218.352077 
L 360.104974 218.030032 
L 362.402058 217.667732 
L 363.5506 217.104153 
L 364.124871 216.621086 
L 364.699142 215.614696 
L 366.421955 215.292652 
L 368.719039 214.084984 
L 369.29331 213.964217 
L 373.887479 211.830671 
L 375.610292 211.468371 
L 376.758834 210.904792 
L 377.333105 210.663259 
L 377.907376 210.582748 
L 380.20446 209.576358 
L 381.927273 208.529712 
L 382.501544 208.449201 
L 383.075815 208.247923 
L 383.650086 208.207668 
L 385.94717 207.563578 
L 386.521441 207.523323 
L 387.095712 207.080511 
L 388.244254 206.677955 
L 389.967067 206.114377 
L 390.541338 205.752077 
L 391.115609 205.591054 
L 391.68988 205.188498 
L 392.264151 204.946965 
L 393.412693 204.343131 
L 395.709777 203.658786 
L 396.284048 203.376997 
L 398.006861 202.048562 
L 398.581132 201.927796 
L 399.729674 201.042173 
L 400.303945 200.961661 
L 400.878216 200.076038 
L 401.452487 199.834505 
L 402.026758 199.391693 
L 402.601029 199.311182 
L 403.749571 198.626837 
L 404.323842 198.50607 
L 404.898113 198.264537 
L 405.472384 197.821725 
L 406.046655 197.620447 
L 407.769468 196.453035 
L 410.066552 195.285623 
L 410.640823 195.205112 
L 411.789365 194.681789 
L 412.363636 194.359744 
L 412.937907 193.39361 
L 413.512178 192.910543 
L 414.086449 192.588498 
L 414.66072 192.467732 
L 415.809262 191.743131 
L 416.383533 191.622364 
L 417.532075 191.058786 
L 419.254889 190.334185 
L 420.403431 189.529073 
L 421.551973 188.321406 
L 424.423328 186.228115 
L 425.57187 185.302236 
L 426.146141 185.060703 
L 426.720412 184.416613 
L 427.294683 183.973802 
L 428.443225 183.571246 
L 429.591767 182.80639 
L 431.31458 181.961022 
L 431.888851 181.880511 
L 433.611664 180.954633 
L 434.760206 180.270288 
L 440.502916 178.257508 
L 441.077187 177.774441 
L 442.8 177.130351 
L 443.948542 176.768051 
L 444.522813 176.32524 
L 447.394168 174.795527 
L 448.54271 172.541214 
L 449.691252 171.253035 
L 450.839794 170.56869 
L 452.562607 169.884345 
L 453.136878 169.803834 
L 453.711149 169.481789 
L 456.582504 168.596166 
L 457.156775 168.354633 
L 458.305317 167.589776 
L 459.453859 167.18722 
L 462.899485 165.174441 
L 463.473756 164.570607 
L 464.622298 163.966773 
L 467.493654 162.477316 
L 470.93928 160.826837 
L 471.513551 160.70607 
L 472.662093 160.303514 
L 474.384906 159.659425 
L 474.959177 159.256869 
L 476.107719 158.934824 
L 477.256261 158.492013 
L 477.830532 158.049201 
L 478.979074 157.686901 
L 482.4247 155.955911 
L 483.573242 155.070288 
L 484.721784 154.667732 
L 485.296055 154.184665 
L 485.870326 154.104153 
L 487.018868 153.258786 
L 488.16741 152.695208 
L 488.741681 152.453674 
L 489.315952 151.890096 
L 492.761578 150.642173 
L 494.484391 149.877316 
L 496.207204 149.353994 
L 497.355746 149.192971 
L 497.930017 148.951438 
L 498.504288 148.870927 
L 499.65283 148.387859 
L 500.227101 148.347604 
L 502.524185 147.502236 
L 504.246998 146.334824 
L 504.821269 146.093291 
L 505.969811 145.489457 
L 506.544082 145.328435 
L 509.989708 143.476677 
L 510.563979 143.355911 
L 512.286792 142.389776 
L 514.009605 141.826198 
L 514.583877 141.584665 
L 515.732419 141.302875 
L 518.603774 140.376997 
L 520.326587 140.095208 
L 522.623671 139.370607 
L 523.197942 139.129073 
L 523.772213 139.048562 
L 524.346484 138.766773 
L 525.495026 138.52524 
L 526.643568 138.122684 
L 527.217839 137.921406 
L 528.366381 137.800639 
L 529.514923 137.51885 
L 531.237736 137.237061 
L 531.812007 137.035783 
L 532.960549 136.915016 
L 535.831904 136.190415 
L 536.980446 135.908626 
L 537.554717 135.586581 
L 540.426072 134.861981 
L 541.000343 134.741214 
L 542.148885 134.338658 
L 543.871698 133.734824 
L 544.445969 133.654313 
L 546.168782 133.050479 
L 546.743053 133.050479 
L 547.891595 132.647923 
L 548.465866 132.084345 
L 549.614408 131.641534 
L 551.337221 130.957188 
L 552.485763 130.554633 
L 553.060034 130.433866 
L 553.634305 130.071565 
L 554.208576 129.950799 
L 554.782847 129.628754 
L 557.654202 128.823642 
L 558.228473 128.461342 
L 558.802744 128.340575 
L 559.377015 127.857508 
L 561.099828 127.535463 
L 562.24837 126.931629 
L 562.822642 126.28754 
L 563.971184 126.046006 
L 569.139623 124.959105 
L 569.713894 124.959105 
L 570.288165 124.717572 
L 572.585249 124.315016 
L 573.15952 124.073482 
L 574.882333 123.831949 
L 577.179417 123.107348 
L 578.90223 122.704792 
L 580.625043 122.261981 
L 582.347856 121.738658 
L 585.219211 120.893291 
L 585.793482 120.571246 
L 587.516295 120.007668 
L 588.090566 119.564856 
L 589.239108 119.242812 
L 589.813379 119.001278 
L 590.961921 118.679233 
L 593.259005 117.632588 
L 594.981818 117.511821 
L 597.278902 116.867732 
L 597.853173 116.505431 
L 599.001715 116.183387 
L 601.87307 114.895208 
L 602.447341 114.854952 
L 608.764322 112.721406 
L 611.061407 112.157827 
L 611.635678 111.996805 
L 612.78422 111.473482 
L 613.358491 111.392971 
L 614.507033 111.070927 
L 615.081304 110.628115 
L 615.655575 110.346326 
L 616.229846 109.661981 
L 616.804117 109.259425 
L 617.952659 108.897125 
L 618.52693 108.454313 
L 623.121098 106.5623 
L 623.695369 106.401278 
L 624.26964 106.038978 
L 626.566724 105.354633 
L 627.715266 104.791054 
L 628.863808 104.106709 
L 629.438079 103.985942 
L 630.586621 103.301597 
L 631.160892 103.060064 
L 632.309434 102.375719 
L 634.032247 101.570607 
L 634.606518 101.168051 
L 635.75506 100.765495 
L 636.903602 100.08115 
L 637.477873 99.879872 
L 638.052144 99.477316 
L 639.200686 99.07476 
L 639.774957 98.953994 
L 642.072041 97.907348 
L 644.943396 96.900958 
L 646.091938 96.739936 
L 646.666209 96.377636 
L 647.24048 96.297125 
L 647.814751 96.095847 
L 649.537564 95.773802 
L 653.557461 93.801278 
L 654.131732 93.720767 
L 655.854545 92.794888 
L 658.15163 91.909265 
L 661.597256 90.500319 
L 662.171527 90.339297 
L 662.745798 89.976997 
L 663.89434 89.815974 
L 664.468611 89.453674 
L 665.042882 89.413419 
L 666.191424 89.051118 
L 667.339966 88.48754 
L 667.914237 88.407029 
L 668.488508 88.165495 
L 669.062779 88.044728 
L 670.785592 87.279872 
L 671.359863 87.159105 
L 671.934134 86.917572 
L 674.805489 86.233227 
L 676.528302 85.589137 
L 678.825386 84.341214 
L 679.973928 83.898403 
L 680.548199 83.536102 
L 681.696741 83.294569 
L 682.271012 82.972524 
L 682.845283 82.851757 
L 684.568096 81.966134 
L 685.142367 81.805112 
L 687.439451 80.677955 
L 688.587993 80.355911 
L 690.310806 79.792332 
L 690.885077 79.591054 
L 692.033619 79.027476 
L 693.182161 78.665176 
L 693.756432 78.544409 
L 696.053516 77.457508 
L 696.627787 77.376997 
L 697.202058 77.175719 
L 698.3506 76.531629 
L 700.647684 75.484984 
L 701.796226 75.082428 
L 702.944768 74.51885 
L 703.519039 74.438339 
L 706.390395 73.190415 
L 706.964666 72.787859 
L 709.26175 72.023003 
L 709.836021 72.023003 
L 710.984563 71.499681 
L 711.558834 71.056869 
L 712.707376 69.969968 
L 714.430189 69.164856 
L 715.00446 69.044089 
L 715.578731 68.7623 
L 716.153002 68.681789 
L 716.727273 68.279233 
L 717.301544 68.158466 
L 718.450086 67.474121 
L 719.598628 66.749521 
L 720.74717 66.427476 
L 721.895712 65.863898 
L 723.618525 65.461342 
L 724.192796 65.260064 
L 724.767067 65.179553 
L 725.341338 64.897764 
L 725.915609 64.776997 
L 726.48988 64.535463 
L 727.064151 64.414696 
L 728.786964 63.690096 
L 729.935506 62.965495 
L 731.084048 62.64345 
L 731.658319 62.482428 
L 735.678216 60.630671 
L 736.252487 60.429393 
L 736.826758 60.348882 
L 738.549571 59.624281 
L 740.272384 58.617891 
L 740.846655 58.497125 
L 741.995197 57.933546 
L 743.143739 57.53099 
L 743.71801 57.047923 
L 744.292281 56.725879 
L 745.440823 56.323323 
L 746.015094 56.122045 
L 746.589365 55.8 
L 747.163636 55.8 
L 747.163636 55.8 
" clip-path="url(#p00804765d2)" style="fill: none; stroke: #1f77b4; stroke-width: 1.5; stroke-linecap: square"/>
   </g>
   <g id="line2d_38">
    <path d="M 139.010635 307.8 
L 140.733448 307.719489 
L 142.456261 307.679233 
L 145.901887 307.598722 
L 148.773242 307.477955 
L 151.070326 307.477955 
L 151.644597 307.316933 
L 153.941681 307.236422 
L 155.664494 307.035144 
L 157.387307 306.874121 
L 160.832933 306.713099 
L 161.407204 306.713099 
L 161.981475 306.592332 
L 164.278559 306.511821 
L 165.427101 306.43131 
L 170.021269 306.350799 
L 172.892624 306.230032 
L 179.783877 306.149521 
L 182.655232 306.028754 
L 186.100858 305.948243 
L 188.397942 305.867732 
L 193.566381 305.78722 
L 195.289194 305.746965 
L 197.012007 305.706709 
L 198.73482 305.505431 
L 202.180446 305.465176 
L 203.328988 305.384665 
L 207.348885 305.304153 
L 213.665866 304.941853 
L 217.685763 304.861342 
L 218.834305 304.780831 
L 220.557118 304.700319 
L 224.002744 304.539297 
L 226.299828 304.499042 
L 228.022642 304.338019 
L 235.488165 303.895208 
L 238.35952 303.814696 
L 243.527959 303.532907 
L 245.250772 303.452396 
L 250.993482 303.130351 
L 257.310463 303.04984 
L 259.607547 302.808307 
L 260.756089 302.727796 
L 268.221612 302.123962 
L 271.667238 301.68115 
L 273.964322 301.600639 
L 278.558491 300.996805 
L 282.004117 300.916294 
L 283.72693 300.755272 
L 284.875472 300.715016 
L 286.024014 300.594249 
L 287.746827 300.513738 
L 288.895369 300.352716 
L 291.766724 300.030671 
L 294.063808 299.95016 
L 295.21235 299.869649 
L 297.509434 299.789137 
L 298.657976 299.708626 
L 301.529331 299.426837 
L 302.103602 299.265815 
L 305.549228 299.104792 
L 308.420583 299.024281 
L 315.886106 298.58147 
L 317.608919 298.500958 
L 325.074443 298.058147 
L 329.09434 297.977636 
L 329.668611 297.856869 
L 334.262779 297.776358 
L 338.282676 297.57508 
L 344.599657 297.494569 
L 348.619554 297.293291 
L 353.213722 297.21278 
L 357.80789 296.971246 
L 361.827787 296.890735 
L 372.738937 296.20639 
L 377.333105 296.125879 
L 383.075815 295.803834 
L 384.224357 295.763578 
L 386.521441 295.522045 
L 392.264151 295.2 
L 395.709777 295.119489 
L 397.43259 295.079233 
L 399.155403 295.038978 
L 400.878216 294.877955 
L 405.472384 294.797444 
L 406.620926 294.636422 
L 407.769468 294.555911 
L 410.640823 294.435144 
L 411.789365 294.354633 
L 412.937907 294.274121 
L 418.106346 294.19361 
L 419.254889 294.072843 
L 421.551973 294.032588 
L 422.126244 293.911821 
L 423.274786 293.83131 
L 423.849057 293.710543 
L 425.57187 293.630032 
L 430.740309 293.348243 
L 431.888851 293.307987 
L 433.611664 293.146965 
L 435.334477 293.106709 
L 437.05729 293.026198 
L 439.928645 292.905431 
L 447.968439 292.82492 
L 451.988336 292.623642 
L 456.582504 292.543131 
L 458.879588 292.46262 
L 461.176672 292.422364 
L 462.325214 292.301597 
L 464.622298 292.221086 
L 470.365009 291.899042 
L 473.810635 291.858786 
L 475.533448 291.697764 
L 477.256261 291.657508 
L 481.276158 291.576997 
L 483.573242 291.496486 
L 490.464494 291.415974 
L 493.335849 291.295208 
L 496.781475 291.214696 
L 498.504288 291.013419 
L 501.949914 290.973163 
L 503.672727 290.812141 
L 505.969811 290.731629 
L 512.861063 290.651118 
L 515.732419 290.530351 
L 525.495026 290.490096 
L 526.643568 290.409585 
L 528.366381 290.369329 
L 535.831904 290.288818 
L 536.980446 290.208307 
L 543.297427 290.127796 
L 545.594511 290.047284 
L 552.485763 290.007029 
L 553.634305 289.926518 
L 562.24837 289.886262 
L 563.971184 289.72524 
L 578.327959 289.644728 
L 580.050772 289.604473 
L 595.556089 289.523962 
L 597.853173 289.44345 
L 607.61578 289.362939 
L 608.764322 289.282428 
L 611.635678 289.201917 
L 613.358491 289.040895 
L 616.229846 288.960383 
L 618.52693 288.879872 
L 621.972556 288.799361 
L 623.695369 288.759105 
L 625.992453 288.678594 
L 627.715266 288.638339 
L 630.586621 288.557827 
L 631.735163 288.477316 
L 635.180789 288.396805 
L 638.052144 288.276038 
L 639.200686 288.235783 
L 640.349228 288.155272 
L 642.072041 288.115016 
L 644.369125 288.034505 
L 646.666209 287.953994 
L 654.131732 287.873482 
L 656.428816 287.792971 
L 661.022985 287.71246 
L 665.042882 287.511182 
L 670.211321 287.430671 
L 671.359863 287.35016 
L 681.696741 287.269649 
L 683.419554 287.229393 
L 686.290909 287.189137 
L 688.587993 286.947604 
L 690.310806 286.907348 
L 693.756432 286.826837 
L 699.499142 286.504792 
L 702.370497 286.424281 
L 704.667581 286.34377 
L 708.113208 286.303514 
L 709.26175 286.223003 
L 711.558834 286.142492 
L 713.855918 285.900958 
L 716.153002 285.820447 
L 720.172899 285.739936 
L 720.74717 285.619169 
L 725.915609 285.538658 
L 729.361235 285.377636 
L 736.252487 285.33738 
L 736.826758 285.216613 
L 740.272384 285.136102 
L 742.569468 285.055591 
L 746.015094 284.97508 
L 747.163636 284.934824 
L 747.163636 284.934824 
" clip-path="url(#p00804765d2)" style="fill: none; stroke: #ff7f0e; stroke-width: 1.5; stroke-linecap: square"/>
   </g>
   <g id="patch_3">
    <path d="M 108 320.4 
L 108 43.2 
" style="fill: none; stroke: #a9a9a9; stroke-width: 0.8; stroke-linejoin: miter; stroke-linecap: square"/>
   </g>
   <g id="patch_4">
    <path d="M 777.6 320.4 
L 777.6 43.2 
" style="fill: none"/>
   </g>
   <g id="patch_5">
    <path d="M 108 320.4 
L 777.6 320.4 
" style="fill: none; stroke: #a9a9a9; stroke-width: 0.8; stroke-linejoin: miter; stroke-linecap: square"/>
   </g>
   <g id="patch_6">
    <path d="M 108 43.2 
L 777.6 43.2 
" style="fill: none"/>
   </g>
   <g id="text_19">
    <!-- get_subscribe history -->
    <g style="fill: #a9a9a9" transform="translate(378.6075 37.2) scale(0.12 -0.12)">
     <defs>
      <path id="DejaVuSans-67" d="M 2906 1791 
Q 2906 2416 2648 2759 
Q 2391 3103 1925 3103 
Q 1463 3103 1205 2759 
Q 947 2416 947 1791 
Q 947 1169 1205 825 
Q 1463 481 1925 481 
Q 2391 481 2648 825 
Q 2906 1169 2906 1791 
z
M 3481 434 
Q 3481 -459 3084 -895 
Q 2688 -1331 1869 -1331 
Q 1566 -1331 1297 -1286 
Q 1028 -1241 775 -1147 
L 775 -588 
Q 1028 -725 1275 -790 
Q 1522 -856 1778 -856 
Q 2344 -856 2625 -561 
Q 2906 -266 2906 331 
L 2906 616 
Q 2728 306 2450 153 
Q 2172 0 1784 0 
Q 1141 0 747 490 
Q 353 981 353 1791 
Q 353 2603 747 3093 
Q 1141 3584 1784 3584 
Q 2172 3584 2450 3431 
Q 2728 3278 2906 2969 
L 2906 3500 
L 3481 3500 
L 3481 434 
z
" transform="scale(0.015625)"/>
      <path id="DejaVuSans-65" d="M 3597 1894 
L 3597 1613 
L 953 1613 
Q 991 1019 1311 708 
Q 1631 397 2203 397 
Q 2534 397 2845 478 
Q 3156 559 3463 722 
L 3463 178 
Q 3153 47 2828 -22 
Q 2503 -91 2169 -91 
Q 1331 -91 842 396 
Q 353 884 353 1716 
Q 353 2575 817 3079 
Q 1281 3584 2069 3584 
Q 2775 3584 3186 3129 
Q 3597 2675 3597 1894 
z
M 3022 2063 
Q 3016 2534 2758 2815 
Q 2500 3097 2075 3097 
Q 1594 3097 1305 2825 
Q 1016 2553 972 2059 
L 3022 2063 
z
" transform="scale(0.015625)"/>
      <path id="DejaVuSans-74" d="M 1172 4494 
L 1172 3500 
L 2356 3500 
L 2356 3053 
L 1172 3053 
L 1172 1153 
Q 1172 725 1289 603 
Q 1406 481 1766 481 
L 2356 481 
L 2356 0 
L 1766 0 
Q 1100 0 847 248 
Q 594 497 594 1153 
L 594 3053 
L 172 3053 
L 172 3500 
L 594 3500 
L 594 4494 
L 1172 4494 
z
" transform="scale(0.015625)"/>
      <path id="DejaVuSans-5f" d="M 3263 -1063 
L 3263 -1509 
L -63 -1509 
L -63 -1063 
L 3263 -1063 
z
" transform="scale(0.015625)"/>
      <path id="DejaVuSans-73" d="M 2834 3397 
L 2834 2853 
Q 2591 2978 2328 3040 
Q 2066 3103 1784 3103 
Q 1356 3103 1142 2972 
Q 928 2841 928 2578 
Q 928 2378 1081 2264 
Q 1234 2150 1697 2047 
L 1894 2003 
Q 2506 1872 2764 1633 
Q 3022 1394 3022 966 
Q 3022 478 2636 193 
Q 2250 -91 1575 -91 
Q 1294 -91 989 -36 
Q 684 19 347 128 
L 347 722 
Q 666 556 975 473 
Q 1284 391 1588 391 
Q 1994 391 2212 530 
Q 2431 669 2431 922 
Q 2431 1156 2273 1281 
Q 2116 1406 1581 1522 
L 1381 1569 
Q 847 1681 609 1914 
Q 372 2147 372 2553 
Q 372 3047 722 3315 
Q 1072 3584 1716 3584 
Q 2034 3584 2315 3537 
Q 2597 3491 2834 3397 
z
" transform="scale(0.015625)"/>
      <path id="DejaVuSans-75" d="M 544 1381 
L 544 3500 
L 1119 3500 
L 1119 1403 
Q 1119 906 1312 657 
Q 1506 409 1894 409 
Q 2359 409 2629 706 
Q 2900 1003 2900 1516 
L 2900 3500 
L 3475 3500 
L 3475 0 
L 2900 0 
L 2900 538 
Q 2691 219 2414 64 
Q 2138 -91 1772 -91 
Q 1169 -91 856 284 
Q 544 659 544 1381 
z
M 1991 3584 
L 1991 3584 
z
" transform="scale(0.015625)"/>
      <path id="DejaVuSans-62" d="M 3116 1747 
Q 3116 2381 2855 2742 
Q 2594 3103 2138 3103 
Q 1681 3103 1420 2742 
Q 1159 2381 1159 1747 
Q 1159 1113 1420 752 
Q 1681 391 2138 391 
Q 2594 391 2855 752 
Q 3116 1113 3116 1747 
z
M 1159 2969 
Q 1341 3281 1617 3432 
Q 1894 3584 2278 3584 
Q 2916 3584 3314 3078 
Q 3713 2572 3713 1747 
Q 3713 922 3314 415 
Q 2916 -91 2278 -91 
Q 1894 -91 1617 61 
Q 1341 213 1159 525 
L 1159 0 
L 581 0 
L 581 4863 
L 1159 4863 
L 1159 2969 
z
" transform="scale(0.015625)"/>
      <path id="DejaVuSans-63" d="M 3122 3366 
L 3122 2828 
Q 2878 2963 2633 3030 
Q 2388 3097 2138 3097 
Q 1578 3097 1268 2742 
Q 959 2388 959 1747 
Q 959 1106 1268 751 
Q 1578 397 2138 397 
Q 2388 397 2633 464 
Q 2878 531 3122 666 
L 3122 134 
Q 2881 22 2623 -34 
Q 2366 -91 2075 -91 
Q 1284 -91 818 406 
Q 353 903 353 1747 
Q 353 2603 823 3093 
Q 1294 3584 2113 3584 
Q 2378 3584 2631 3529 
Q 2884 3475 3122 3366 
z
" transform="scale(0.015625)"/>
      <path id="DejaVuSans-72" d="M 2631 2963 
Q 2534 3019 2420 3045 
Q 2306 3072 2169 3072 
Q 1681 3072 1420 2755 
Q 1159 2438 1159 1844 
L 1159 0 
L 581 0 
L 581 3500 
L 1159 3500 
L 1159 2956 
Q 1341 3275 1631 3429 
Q 1922 3584 2338 3584 
Q 2397 3584 2469 3576 
Q 2541 3569 2628 3553 
L 2631 2963 
z
" transform="scale(0.015625)"/>
      <path id="DejaVuSans-69" d="M 603 3500 
L 1178 3500 
L 1178 0 
L 603 0 
L 603 3500 
z
M 603 4863 
L 1178 4863 
L 1178 4134 
L 603 4134 
L 603 4863 
z
" transform="scale(0.015625)"/>
      <path id="DejaVuSans-20" transform="scale(0.015625)"/>
      <path id="DejaVuSans-68" d="M 3513 2113 
L 3513 0 
L 2938 0 
L 2938 2094 
Q 2938 2591 2744 2837 
Q 2550 3084 2163 3084 
Q 1697 3084 1428 2787 
Q 1159 2491 1159 1978 
L 1159 0 
L 581 0 
L 581 4863 
L 1159 4863 
L 1159 2956 
Q 1366 3272 1645 3428 
Q 1925 3584 2291 3584 
Q 2894 3584 3203 3211 
Q 3513 2838 3513 2113 
z
" transform="scale(0.015625)"/>
      <path id="DejaVuSans-6f" d="M 1959 3097 
Q 1497 3097 1228 2736 
Q 959 2375 959 1747 
Q 959 1119 1226 758 
Q 1494 397 1959 397 
Q 2419 397 2687 759 
Q 2956 1122 2956 1747 
Q 2956 2369 2687 2733 
Q 2419 3097 1959 3097 
z
M 1959 3584 
Q 2709 3584 3137 3096 
Q 3566 2609 3566 1747 
Q 3566 888 3137 398 
Q 2709 -91 1959 -91 
Q 1206 -91 779 398 
Q 353 888 353 1747 
Q 353 2609 779 3096 
Q 1206 3584 1959 3584 
z
" transform="scale(0.015625)"/>
      <path id="DejaVuSans-79" d="M 2059 -325 
Q 1816 -950 1584 -1140 
Q 1353 -1331 966 -1331 
L 506 -1331 
L 506 -850 
L 844 -850 
Q 1081 -850 1212 -737 
Q 1344 -625 1503 -206 
L 1606 56 
L 191 3500 
L 800 3500 
L 1894 763 
L 2988 3500 
L 3597 3500 
L 2059 -325 
z
" transform="scale(0.015625)"/>
     </defs>
     <use xlink:href="#DejaVuSans-67"/>
     <use xlink:href="#DejaVuSans-65" x="63.476562"/>
     <use xlink:href="#DejaVuSans-74" x="125"/>
     <use xlink:href="#DejaVuSans-5f" x="164.208984"/>
     <use xlink:href="#DejaVuSans-73" x="214.208984"/>
     <use xlink:href="#DejaVuSans-75" x="266.308594"/>
     <use xlink:href="#DejaVuSans-62" x="329.6875"/>
     <use xlink:href="#DejaVuSans-73" x="393.164062"/>
     <use xlink:href="#DejaVuSans-63" x="445.263672"/>
     <use xlink:href="#DejaVuSans-72" x="500.244141"/>
     <use xlink:href="#DejaVuSans-69" x="541.357422"/>
     <use xlink:href="#DejaVuSans-62" x="569.140625"/>
     <use xlink:href="#DejaVuSans-65" x="632.617188"/>
     <use xlink:href="#DejaVuSans-20" x="694.140625"/>
     <use xlink:href="#DejaVuSans-68" x="725.927734"/>
     <use xlink:href="#DejaVuSans-69" x="789.306641"/>
     <use xlink:href="#DejaVuSans-73" x="817.089844"/>
     <use xlink:href="#DejaVuSans-74" x="869.189453"/>
     <use xlink:href="#DejaVuSans-6f" x="908.398438"/>
     <use xlink:href="#DejaVuSans-72" x="969.580078"/>
     <use xlink:href="#DejaVuSans-79" x="1010.693359"/>
    </g>
   </g>
   <g id="legend_1">
    <g id="line2d_39">
     <path d="M 815.08 328.498438 
L 825.08 328.498438 
L 835.08 328.498438 
" style="fill: none; stroke: #1f77b4; stroke-width: 1.5; stroke-linecap: square"/>
    </g>
    <g id="text_20">
     <!-- star -->
     <g style="fill: #a9a9a9" transform="translate(843.08 331.998438) scale(0.1 -0.1)">
      <defs>
       <path id="DejaVuSans-61" d="M 2194 1759 
Q 1497 1759 1228 1600 
Q 959 1441 959 1056 
Q 959 750 1161 570 
Q 1363 391 1709 391 
Q 2188 391 2477 730 
Q 2766 1069 2766 1631 
L 2766 1759 
L 2194 1759 
z
M 3341 1997 
L 3341 0 
L 2766 0 
L 2766 531 
Q 2569 213 2275 61 
Q 1981 -91 1556 -91 
Q 1019 -91 701 211 
Q 384 513 384 1019 
Q 384 1609 779 1909 
Q 1175 2209 1959 2209 
L 2766 2209 
L 2766 2266 
Q 2766 2663 2505 2880 
Q 2244 3097 1772 3097 
Q 1472 3097 1187 3025 
Q 903 2953 641 2809 
L 641 3341 
Q 956 3463 1253 3523 
Q 1550 3584 1831 3584 
Q 2591 3584 2966 3190 
Q 3341 2797 3341 1997 
z
" transform="scale(0.015625)"/>
      </defs>
      <use xlink:href="#DejaVuSans-73"/>
      <use xlink:href="#DejaVuSans-74" x="52.099609"/>
      <use xlink:href="#DejaVuSans-61" x="91.308594"/>
      <use xlink:href="#DejaVuSans-72" x="152.587891"/>
     </g>
    </g>
    <g id="line2d_40">
     <path d="M 815.08 343.176562 
L 825.08 343.176562 
L 835.08 343.176562 
" style="fill: none; stroke: #ff7f0e; stroke-width: 1.5; stroke-linecap: square"/>
    </g>
    <g id="text_21">
     <!-- fork -->
     <g style="fill: #a9a9a9" transform="translate(843.08 346.676562) scale(0.1 -0.1)">
      <defs>
       <path id="DejaVuSans-66" d="M 2375 4863 
L 2375 4384 
L 1825 4384 
Q 1516 4384 1395 4259 
Q 1275 4134 1275 3809 
L 1275 3500 
L 2222 3500 
L 2222 3053 
L 1275 3053 
L 1275 0 
L 697 0 
L 697 3053 
L 147 3053 
L 147 3500 
L 697 3500 
L 697 3744 
Q 697 4328 969 4595 
Q 1241 4863 1831 4863 
L 2375 4863 
z
" transform="scale(0.015625)"/>
       <path id="DejaVuSans-6b" d="M 581 4863 
L 1159 4863 
L 1159 1991 
L 2875 3500 
L 3609 3500 
L 1753 1863 
L 3688 0 
L 2938 0 
L 1159 1709 
L 1159 0 
L 581 0 
L 581 4863 
z
" transform="scale(0.015625)"/>
      </defs>
      <use xlink:href="#DejaVuSans-66"/>
      <use xlink:href="#DejaVuSans-6f" x="35.205078"/>
      <use xlink:href="#DejaVuSans-72" x="96.386719"/>
      <use xlink:href="#DejaVuSans-6b" x="137.5"/>
     </g>
    </g>
   </g>
  </g>
 </g>
 <defs>
  <clipPath id="p00804765d2">
   <rect x="108" y="43.2" width="669.6" height="277.2"/>
  </clipPath>
 </defs>
</svg>
