<?xml version="1.0" encoding="utf-8" standalone="no"?>
<!DOCTYPE svg PUBLIC "-//W3C//DTD SVG 1.1//EN"
  "http://www.w3.org/Graphics/SVG/1.1/DTD/svg11.dtd">
<svg xmlns:xlink="http://www.w3.org/1999/xlink" width="864pt" height="360pt" viewBox="0 0 864 360" xmlns="http://www.w3.org/2000/svg" version="1.1">
 <metadata>
  <rdf:RDF xmlns:dc="http://purl.org/dc/elements/1.1/" xmlns:cc="http://creativecommons.org/ns#" xmlns:rdf="http://www.w3.org/1999/02/22-rdf-syntax-ns#">
   <cc:Work>
    <dc:type rdf:resource="http://purl.org/dc/dcmitype/StillImage"/>
    <dc:date>2024-10-01T08:15:11.741478</dc:date>
    <dc:format>image/svg+xml</dc:format>
    <dc:creator>
     <cc:Agent>
      <dc:title>Matplotlib v3.9.2, https://matplotlib.org/</dc:title>
     </cc:Agent>
    </dc:creator>
   </cc:Work>
  </rdf:RDF>
 </metadata>
 <defs>
  <style type="text/css">*{stroke-linejoin: round; stroke-linecap: butt}</style>
 </defs>
 <g id="figure_1">
  <g id="patch_1">
   <path d="M 0 360 
L 864 360 
L 864 0 
L 0 0 
L 0 360 
z
" style="fill: none; opacity: 0"/>
  </g>
  <g id="axes_1">
   <g id="patch_2">
    <path d="M 108 320.4 
L 777.6 320.4 
L 777.6 43.2 
L 108 43.2 
L 108 320.4 
z
" style="fill: none; opacity: 0"/>
   </g>
   <g id="matplotlib.axis_1">
    <g id="xtick_1">
     <g id="line2d_1">
      <path d="M 158.814358 320.4 
L 158.814358 43.2 
" clip-path="url(#p1759eb7719)" style="fill: none; stroke-dasharray: 5.12,1.28,0.8,1.28; stroke-dashoffset: 0; stroke: #b0b0b0; stroke-width: 0.8"/>
     </g>
     <g id="line2d_2">
      <defs>
       <path id="m1ee92720cd" d="M 0 0 
L 0 3.5 
" style="stroke: #a9a9a9; stroke-width: 0.8"/>
      </defs>
      <g>
       <use xlink:href="#m1ee92720cd" x="158.814358" y="320.4" style="fill: #a9a9a9; stroke: #a9a9a9; stroke-width: 0.8"/>
      </g>
     </g>
     <g id="text_1">
      <!-- 2021-09 -->
      <g style="fill: #a9a9a9" transform="translate(137.922952 334.998438) scale(0.1 -0.1)">
       <defs>
        <path id="DejaVuSans-32" d="M 1228 531 
L 3431 531 
L 3431 0 
L 469 0 
L 469 531 
Q 828 903 1448 1529 
Q 2069 2156 2228 2338 
Q 2531 2678 2651 2914 
Q 2772 3150 2772 3378 
Q 2772 3750 2511 3984 
Q 2250 4219 1831 4219 
Q 1534 4219 1204 4116 
Q 875 4013 500 3803 
L 500 4441 
Q 881 4594 1212 4672 
Q 1544 4750 1819 4750 
Q 2544 4750 2975 4387 
Q 3406 4025 3406 3419 
Q 3406 3131 3298 2873 
Q 3191 2616 2906 2266 
Q 2828 2175 2409 1742 
Q 1991 1309 1228 531 
z
" transform="scale(0.015625)"/>
        <path id="DejaVuSans-30" d="M 2034 4250 
Q 1547 4250 1301 3770 
Q 1056 3291 1056 2328 
Q 1056 1369 1301 889 
Q 1547 409 2034 409 
Q 2525 409 2770 889 
Q 3016 1369 3016 2328 
Q 3016 3291 2770 3770 
Q 2525 4250 2034 4250 
z
M 2034 4750 
Q 2819 4750 3233 4129 
Q 3647 3509 3647 2328 
Q 3647 1150 3233 529 
Q 2819 -91 2034 -91 
Q 1250 -91 836 529 
Q 422 1150 422 2328 
Q 422 3509 836 4129 
Q 1250 4750 2034 4750 
z
" transform="scale(0.015625)"/>
        <path id="DejaVuSans-31" d="M 794 531 
L 1825 531 
L 1825 4091 
L 703 3866 
L 703 4441 
L 1819 4666 
L 2450 4666 
L 2450 531 
L 3481 531 
L 3481 0 
L 794 0 
L 794 531 
z
" transform="scale(0.015625)"/>
        <path id="DejaVuSans-2d" d="M 313 2009 
L 1997 2009 
L 1997 1497 
L 313 1497 
L 313 2009 
z
" transform="scale(0.015625)"/>
        <path id="DejaVuSans-39" d="M 703 97 
L 703 672 
Q 941 559 1184 500 
Q 1428 441 1663 441 
Q 2288 441 2617 861 
Q 2947 1281 2994 2138 
Q 2813 1869 2534 1725 
Q 2256 1581 1919 1581 
Q 1219 1581 811 2004 
Q 403 2428 403 3163 
Q 403 3881 828 4315 
Q 1253 4750 1959 4750 
Q 2769 4750 3195 4129 
Q 3622 3509 3622 2328 
Q 3622 1225 3098 567 
Q 2575 -91 1691 -91 
Q 1453 -91 1209 -44 
Q 966 3 703 97 
z
M 1959 2075 
Q 2384 2075 2632 2365 
Q 2881 2656 2881 3163 
Q 2881 3666 2632 3958 
Q 2384 4250 1959 4250 
Q 1534 4250 1286 3958 
Q 1038 3666 1038 3163 
Q 1038 2656 1286 2365 
Q 1534 2075 1959 2075 
z
" transform="scale(0.015625)"/>
       </defs>
       <use xlink:href="#DejaVuSans-32"/>
       <use xlink:href="#DejaVuSans-30" x="63.623047"/>
       <use xlink:href="#DejaVuSans-32" x="127.246094"/>
       <use xlink:href="#DejaVuSans-31" x="190.869141"/>
       <use xlink:href="#DejaVuSans-2d" x="254.492188"/>
       <use xlink:href="#DejaVuSans-30" x="290.576172"/>
       <use xlink:href="#DejaVuSans-39" x="354.199219"/>
      </g>
     </g>
    </g>
    <g id="xtick_2">
     <g id="line2d_3">
      <path d="M 222.560905 320.4 
L 222.560905 43.2 
" clip-path="url(#p1759eb7719)" style="fill: none; stroke-dasharray: 5.12,1.28,0.8,1.28; stroke-dashoffset: 0; stroke: #b0b0b0; stroke-width: 0.8"/>
     </g>
     <g id="line2d_4">
      <g>
       <use xlink:href="#m1ee92720cd" x="222.560905" y="320.4" style="fill: #a9a9a9; stroke: #a9a9a9; stroke-width: 0.8"/>
      </g>
     </g>
     <g id="text_2">
      <!-- 2022-01 -->
      <g style="fill: #a9a9a9" transform="translate(201.669499 334.998438) scale(0.1 -0.1)">
       <use xlink:href="#DejaVuSans-32"/>
       <use xlink:href="#DejaVuSans-30" x="63.623047"/>
       <use xlink:href="#DejaVuSans-32" x="127.246094"/>
       <use xlink:href="#DejaVuSans-32" x="190.869141"/>
       <use xlink:href="#DejaVuSans-2d" x="254.492188"/>
       <use xlink:href="#DejaVuSans-30" x="290.576172"/>
       <use xlink:href="#DejaVuSans-31" x="354.199219"/>
      </g>
     </g>
    </g>
    <g id="xtick_3">
     <g id="line2d_5">
      <path d="M 285.262427 320.4 
L 285.262427 43.2 
" clip-path="url(#p1759eb7719)" style="fill: none; stroke-dasharray: 5.12,1.28,0.8,1.28; stroke-dashoffset: 0; stroke: #b0b0b0; stroke-width: 0.8"/>
     </g>
     <g id="line2d_6">
      <g>
       <use xlink:href="#m1ee92720cd" x="285.262427" y="320.4" style="fill: #a9a9a9; stroke: #a9a9a9; stroke-width: 0.8"/>
      </g>
     </g>
     <g id="text_3">
      <!-- 2022-05 -->
      <g style="fill: #a9a9a9" transform="translate(264.371021 334.998438) scale(0.1 -0.1)">
       <defs>
        <path id="DejaVuSans-35" d="M 691 4666 
L 3169 4666 
L 3169 4134 
L 1269 4134 
L 1269 2991 
Q 1406 3038 1543 3061 
Q 1681 3084 1819 3084 
Q 2600 3084 3056 2656 
Q 3513 2228 3513 1497 
Q 3513 744 3044 326 
Q 2575 -91 1722 -91 
Q 1428 -91 1123 -41 
Q 819 9 494 109 
L 494 744 
Q 775 591 1075 516 
Q 1375 441 1709 441 
Q 2250 441 2565 725 
Q 2881 1009 2881 1497 
Q 2881 1984 2565 2268 
Q 2250 2553 1709 2553 
Q 1456 2553 1204 2497 
Q 953 2441 691 2322 
L 691 4666 
z
" transform="scale(0.015625)"/>
       </defs>
       <use xlink:href="#DejaVuSans-32"/>
       <use xlink:href="#DejaVuSans-30" x="63.623047"/>
       <use xlink:href="#DejaVuSans-32" x="127.246094"/>
       <use xlink:href="#DejaVuSans-32" x="190.869141"/>
       <use xlink:href="#DejaVuSans-2d" x="254.492188"/>
       <use xlink:href="#DejaVuSans-30" x="290.576172"/>
       <use xlink:href="#DejaVuSans-35" x="354.199219"/>
      </g>
     </g>
    </g>
    <g id="xtick_4">
     <g id="line2d_7">
      <path d="M 349.531487 320.4 
L 349.531487 43.2 
" clip-path="url(#p1759eb7719)" style="fill: none; stroke-dasharray: 5.12,1.28,0.8,1.28; stroke-dashoffset: 0; stroke: #b0b0b0; stroke-width: 0.8"/>
     </g>
     <g id="line2d_8">
      <g>
       <use xlink:href="#m1ee92720cd" x="349.531487" y="320.4" style="fill: #a9a9a9; stroke: #a9a9a9; stroke-width: 0.8"/>
      </g>
     </g>
     <g id="text_4">
      <!-- 2022-09 -->
      <g style="fill: #a9a9a9" transform="translate(328.64008 334.998438) scale(0.1 -0.1)">
       <use xlink:href="#DejaVuSans-32"/>
       <use xlink:href="#DejaVuSans-30" x="63.623047"/>
       <use xlink:href="#DejaVuSans-32" x="127.246094"/>
       <use xlink:href="#DejaVuSans-32" x="190.869141"/>
       <use xlink:href="#DejaVuSans-2d" x="254.492188"/>
       <use xlink:href="#DejaVuSans-30" x="290.576172"/>
       <use xlink:href="#DejaVuSans-39" x="354.199219"/>
      </g>
     </g>
    </g>
    <g id="xtick_5">
     <g id="line2d_9">
      <path d="M 413.278034 320.4 
L 413.278034 43.2 
" clip-path="url(#p1759eb7719)" style="fill: none; stroke-dasharray: 5.12,1.28,0.8,1.28; stroke-dashoffset: 0; stroke: #b0b0b0; stroke-width: 0.8"/>
     </g>
     <g id="line2d_10">
      <g>
       <use xlink:href="#m1ee92720cd" x="413.278034" y="320.4" style="fill: #a9a9a9; stroke: #a9a9a9; stroke-width: 0.8"/>
      </g>
     </g>
     <g id="text_5">
      <!-- 2023-01 -->
      <g style="fill: #a9a9a9" transform="translate(392.386627 334.998438) scale(0.1 -0.1)">
       <defs>
        <path id="DejaVuSans-33" d="M 2597 2516 
Q 3050 2419 3304 2112 
Q 3559 1806 3559 1356 
Q 3559 666 3084 287 
Q 2609 -91 1734 -91 
Q 1441 -91 1130 -33 
Q 819 25 488 141 
L 488 750 
Q 750 597 1062 519 
Q 1375 441 1716 441 
Q 2309 441 2620 675 
Q 2931 909 2931 1356 
Q 2931 1769 2642 2001 
Q 2353 2234 1838 2234 
L 1294 2234 
L 1294 2753 
L 1863 2753 
Q 2328 2753 2575 2939 
Q 2822 3125 2822 3475 
Q 2822 3834 2567 4026 
Q 2313 4219 1838 4219 
Q 1578 4219 1281 4162 
Q 984 4106 628 3988 
L 628 4550 
Q 988 4650 1302 4700 
Q 1616 4750 1894 4750 
Q 2613 4750 3031 4423 
Q 3450 4097 3450 3541 
Q 3450 3153 3228 2886 
Q 3006 2619 2597 2516 
z
" transform="scale(0.015625)"/>
       </defs>
       <use xlink:href="#DejaVuSans-32"/>
       <use xlink:href="#DejaVuSans-30" x="63.623047"/>
       <use xlink:href="#DejaVuSans-32" x="127.246094"/>
       <use xlink:href="#DejaVuSans-33" x="190.869141"/>
       <use xlink:href="#DejaVuSans-2d" x="254.492188"/>
       <use xlink:href="#DejaVuSans-30" x="290.576172"/>
       <use xlink:href="#DejaVuSans-31" x="354.199219"/>
      </g>
     </g>
    </g>
    <g id="xtick_6">
     <g id="line2d_11">
      <path d="M 475.979555 320.4 
L 475.979555 43.2 
" clip-path="url(#p1759eb7719)" style="fill: none; stroke-dasharray: 5.12,1.28,0.8,1.28; stroke-dashoffset: 0; stroke: #b0b0b0; stroke-width: 0.8"/>
     </g>
     <g id="line2d_12">
      <g>
       <use xlink:href="#m1ee92720cd" x="475.979555" y="320.4" style="fill: #a9a9a9; stroke: #a9a9a9; stroke-width: 0.8"/>
      </g>
     </g>
     <g id="text_6">
      <!-- 2023-05 -->
      <g style="fill: #a9a9a9" transform="translate(455.088149 334.998438) scale(0.1 -0.1)">
       <use xlink:href="#DejaVuSans-32"/>
       <use xlink:href="#DejaVuSans-30" x="63.623047"/>
       <use xlink:href="#DejaVuSans-32" x="127.246094"/>
       <use xlink:href="#DejaVuSans-33" x="190.869141"/>
       <use xlink:href="#DejaVuSans-2d" x="254.492188"/>
       <use xlink:href="#DejaVuSans-30" x="290.576172"/>
       <use xlink:href="#DejaVuSans-35" x="354.199219"/>
      </g>
     </g>
    </g>
    <g id="xtick_7">
     <g id="line2d_13">
      <path d="M 540.248615 320.4 
L 540.248615 43.2 
" clip-path="url(#p1759eb7719)" style="fill: none; stroke-dasharray: 5.12,1.28,0.8,1.28; stroke-dashoffset: 0; stroke: #b0b0b0; stroke-width: 0.8"/>
     </g>
     <g id="line2d_14">
      <g>
       <use xlink:href="#m1ee92720cd" x="540.248615" y="320.4" style="fill: #a9a9a9; stroke: #a9a9a9; stroke-width: 0.8"/>
      </g>
     </g>
     <g id="text_7">
      <!-- 2023-09 -->
      <g style="fill: #a9a9a9" transform="translate(519.357209 334.998438) scale(0.1 -0.1)">
       <use xlink:href="#DejaVuSans-32"/>
       <use xlink:href="#DejaVuSans-30" x="63.623047"/>
       <use xlink:href="#DejaVuSans-32" x="127.246094"/>
       <use xlink:href="#DejaVuSans-33" x="190.869141"/>
       <use xlink:href="#DejaVuSans-2d" x="254.492188"/>
       <use xlink:href="#DejaVuSans-30" x="290.576172"/>
       <use xlink:href="#DejaVuSans-39" x="354.199219"/>
      </g>
     </g>
    </g>
    <g id="xtick_8">
     <g id="line2d_15">
      <path d="M 603.995162 320.4 
L 603.995162 43.2 
" clip-path="url(#p1759eb7719)" style="fill: none; stroke-dasharray: 5.12,1.28,0.8,1.28; stroke-dashoffset: 0; stroke: #b0b0b0; stroke-width: 0.8"/>
     </g>
     <g id="line2d_16">
      <g>
       <use xlink:href="#m1ee92720cd" x="603.995162" y="320.4" style="fill: #a9a9a9; stroke: #a9a9a9; stroke-width: 0.8"/>
      </g>
     </g>
     <g id="text_8">
      <!-- 2024-01 -->
      <g style="fill: #a9a9a9" transform="translate(583.103756 334.998438) scale(0.1 -0.1)">
       <defs>
        <path id="DejaVuSans-34" d="M 2419 4116 
L 825 1625 
L 2419 1625 
L 2419 4116 
z
M 2253 4666 
L 3047 4666 
L 3047 1625 
L 3713 1625 
L 3713 1100 
L 3047 1100 
L 3047 0 
L 2419 0 
L 2419 1100 
L 313 1100 
L 313 1709 
L 2253 4666 
z
" transform="scale(0.015625)"/>
       </defs>
       <use xlink:href="#DejaVuSans-32"/>
       <use xlink:href="#DejaVuSans-30" x="63.623047"/>
       <use xlink:href="#DejaVuSans-32" x="127.246094"/>
       <use xlink:href="#DejaVuSans-34" x="190.869141"/>
       <use xlink:href="#DejaVuSans-2d" x="254.492188"/>
       <use xlink:href="#DejaVuSans-30" x="290.576172"/>
       <use xlink:href="#DejaVuSans-31" x="354.199219"/>
      </g>
     </g>
    </g>
    <g id="xtick_9">
     <g id="line2d_17">
      <path d="M 667.219196 320.4 
L 667.219196 43.2 
" clip-path="url(#p1759eb7719)" style="fill: none; stroke-dasharray: 5.12,1.28,0.8,1.28; stroke-dashoffset: 0; stroke: #b0b0b0; stroke-width: 0.8"/>
     </g>
     <g id="line2d_18">
      <g>
       <use xlink:href="#m1ee92720cd" x="667.219196" y="320.4" style="fill: #a9a9a9; stroke: #a9a9a9; stroke-width: 0.8"/>
      </g>
     </g>
     <g id="text_9">
      <!-- 2024-05 -->
      <g style="fill: #a9a9a9" transform="translate(646.32779 334.998438) scale(0.1 -0.1)">
       <use xlink:href="#DejaVuSans-32"/>
       <use xlink:href="#DejaVuSans-30" x="63.623047"/>
       <use xlink:href="#DejaVuSans-32" x="127.246094"/>
       <use xlink:href="#DejaVuSans-34" x="190.869141"/>
       <use xlink:href="#DejaVuSans-2d" x="254.492188"/>
       <use xlink:href="#DejaVuSans-30" x="290.576172"/>
       <use xlink:href="#DejaVuSans-35" x="354.199219"/>
      </g>
     </g>
    </g>
    <g id="xtick_10">
     <g id="line2d_19">
      <path d="M 731.488256 320.4 
L 731.488256 43.2 
" clip-path="url(#p1759eb7719)" style="fill: none; stroke-dasharray: 5.12,1.28,0.8,1.28; stroke-dashoffset: 0; stroke: #b0b0b0; stroke-width: 0.8"/>
     </g>
     <g id="line2d_20">
      <g>
       <use xlink:href="#m1ee92720cd" x="731.488256" y="320.4" style="fill: #a9a9a9; stroke: #a9a9a9; stroke-width: 0.8"/>
      </g>
     </g>
     <g id="text_10">
      <!-- 2024-09 -->
      <g style="fill: #a9a9a9" transform="translate(710.59685 334.998438) scale(0.1 -0.1)">
       <use xlink:href="#DejaVuSans-32"/>
       <use xlink:href="#DejaVuSans-30" x="63.623047"/>
       <use xlink:href="#DejaVuSans-32" x="127.246094"/>
       <use xlink:href="#DejaVuSans-34" x="190.869141"/>
       <use xlink:href="#DejaVuSans-2d" x="254.492188"/>
       <use xlink:href="#DejaVuSans-30" x="290.576172"/>
       <use xlink:href="#DejaVuSans-39" x="354.199219"/>
      </g>
     </g>
    </g>
   </g>
   <g id="matplotlib.axis_2">
    <g id="ytick_1">
     <g id="line2d_21">
      <path d="M 108 307.837378 
L 777.6 307.837378 
" clip-path="url(#p1759eb7719)" style="fill: none; stroke-dasharray: 5.12,1.28,0.8,1.28; stroke-dashoffset: 0; stroke: #b0b0b0; stroke-width: 0.8"/>
     </g>
     <g id="line2d_22">
      <defs>
       <path id="m79916e721c" d="M 0 0 
L -3.5 0 
" style="stroke: #a9a9a9; stroke-width: 0.8"/>
      </defs>
      <g>
       <use xlink:href="#m79916e721c" x="108" y="307.837378" style="fill: #a9a9a9; stroke: #a9a9a9; stroke-width: 0.8"/>
      </g>
     </g>
     <g id="text_11">
      <!-- 0 -->
      <g style="fill: #a9a9a9" transform="translate(94.6375 311.636596) scale(0.1 -0.1)">
       <use xlink:href="#DejaVuSans-30"/>
      </g>
     </g>
    </g>
    <g id="ytick_2">
     <g id="line2d_23">
      <path d="M 108 277.935271 
L 777.6 277.935271 
" clip-path="url(#p1759eb7719)" style="fill: none; stroke-dasharray: 5.12,1.28,0.8,1.28; stroke-dashoffset: 0; stroke: #b0b0b0; stroke-width: 0.8"/>
     </g>
     <g id="line2d_24">
      <g>
       <use xlink:href="#m79916e721c" x="108" y="277.935271" style="fill: #a9a9a9; stroke: #a9a9a9; stroke-width: 0.8"/>
      </g>
     </g>
     <g id="text_12">
      <!-- 800 -->
      <g style="fill: #a9a9a9" transform="translate(81.9125 281.73449) scale(0.1 -0.1)">
       <defs>
        <path id="DejaVuSans-38" d="M 2034 2216 
Q 1584 2216 1326 1975 
Q 1069 1734 1069 1313 
Q 1069 891 1326 650 
Q 1584 409 2034 409 
Q 2484 409 2743 651 
Q 3003 894 3003 1313 
Q 3003 1734 2745 1975 
Q 2488 2216 2034 2216 
z
M 1403 2484 
Q 997 2584 770 2862 
Q 544 3141 544 3541 
Q 544 4100 942 4425 
Q 1341 4750 2034 4750 
Q 2731 4750 3128 4425 
Q 3525 4100 3525 3541 
Q 3525 3141 3298 2862 
Q 3072 2584 2669 2484 
Q 3125 2378 3379 2068 
Q 3634 1759 3634 1313 
Q 3634 634 3220 271 
Q 2806 -91 2034 -91 
Q 1263 -91 848 271 
Q 434 634 434 1313 
Q 434 1759 690 2068 
Q 947 2378 1403 2484 
z
M 1172 3481 
Q 1172 3119 1398 2916 
Q 1625 2713 2034 2713 
Q 2441 2713 2670 2916 
Q 2900 3119 2900 3481 
Q 2900 3844 2670 4047 
Q 2441 4250 2034 4250 
Q 1625 4250 1398 4047 
Q 1172 3844 1172 3481 
z
" transform="scale(0.015625)"/>
       </defs>
       <use xlink:href="#DejaVuSans-38"/>
       <use xlink:href="#DejaVuSans-30" x="63.623047"/>
       <use xlink:href="#DejaVuSans-30" x="127.246094"/>
      </g>
     </g>
    </g>
    <g id="ytick_3">
     <g id="line2d_25">
      <path d="M 108 248.033165 
L 777.6 248.033165 
" clip-path="url(#p1759eb7719)" style="fill: none; stroke-dasharray: 5.12,1.28,0.8,1.28; stroke-dashoffset: 0; stroke: #b0b0b0; stroke-width: 0.8"/>
     </g>
     <g id="line2d_26">
      <g>
       <use xlink:href="#m79916e721c" x="108" y="248.033165" style="fill: #a9a9a9; stroke: #a9a9a9; stroke-width: 0.8"/>
      </g>
     </g>
     <g id="text_13">
      <!-- 1600 -->
      <g style="fill: #a9a9a9" transform="translate(75.55 251.832384) scale(0.1 -0.1)">
       <defs>
        <path id="DejaVuSans-36" d="M 2113 2584 
Q 1688 2584 1439 2293 
Q 1191 2003 1191 1497 
Q 1191 994 1439 701 
Q 1688 409 2113 409 
Q 2538 409 2786 701 
Q 3034 994 3034 1497 
Q 3034 2003 2786 2293 
Q 2538 2584 2113 2584 
z
M 3366 4563 
L 3366 3988 
Q 3128 4100 2886 4159 
Q 2644 4219 2406 4219 
Q 1781 4219 1451 3797 
Q 1122 3375 1075 2522 
Q 1259 2794 1537 2939 
Q 1816 3084 2150 3084 
Q 2853 3084 3261 2657 
Q 3669 2231 3669 1497 
Q 3669 778 3244 343 
Q 2819 -91 2113 -91 
Q 1303 -91 875 529 
Q 447 1150 447 2328 
Q 447 3434 972 4092 
Q 1497 4750 2381 4750 
Q 2619 4750 2861 4703 
Q 3103 4656 3366 4563 
z
" transform="scale(0.015625)"/>
       </defs>
       <use xlink:href="#DejaVuSans-31"/>
       <use xlink:href="#DejaVuSans-36" x="63.623047"/>
       <use xlink:href="#DejaVuSans-30" x="127.246094"/>
       <use xlink:href="#DejaVuSans-30" x="190.869141"/>
      </g>
     </g>
    </g>
    <g id="ytick_4">
     <g id="line2d_27">
      <path d="M 108 218.131059 
L 777.6 218.131059 
" clip-path="url(#p1759eb7719)" style="fill: none; stroke-dasharray: 5.12,1.28,0.8,1.28; stroke-dashoffset: 0; stroke: #b0b0b0; stroke-width: 0.8"/>
     </g>
     <g id="line2d_28">
      <g>
       <use xlink:href="#m79916e721c" x="108" y="218.131059" style="fill: #a9a9a9; stroke: #a9a9a9; stroke-width: 0.8"/>
      </g>
     </g>
     <g id="text_14">
      <!-- 2400 -->
      <g style="fill: #a9a9a9" transform="translate(75.55 221.930278) scale(0.1 -0.1)">
       <use xlink:href="#DejaVuSans-32"/>
       <use xlink:href="#DejaVuSans-34" x="63.623047"/>
       <use xlink:href="#DejaVuSans-30" x="127.246094"/>
       <use xlink:href="#DejaVuSans-30" x="190.869141"/>
      </g>
     </g>
    </g>
    <g id="ytick_5">
     <g id="line2d_29">
      <path d="M 108 188.228953 
L 777.6 188.228953 
" clip-path="url(#p1759eb7719)" style="fill: none; stroke-dasharray: 5.12,1.28,0.8,1.28; stroke-dashoffset: 0; stroke: #b0b0b0; stroke-width: 0.8"/>
     </g>
     <g id="line2d_30">
      <g>
       <use xlink:href="#m79916e721c" x="108" y="188.228953" style="fill: #a9a9a9; stroke: #a9a9a9; stroke-width: 0.8"/>
      </g>
     </g>
     <g id="text_15">
      <!-- 3200 -->
      <g style="fill: #a9a9a9" transform="translate(75.55 192.028172) scale(0.1 -0.1)">
       <use xlink:href="#DejaVuSans-33"/>
       <use xlink:href="#DejaVuSans-32" x="63.623047"/>
       <use xlink:href="#DejaVuSans-30" x="127.246094"/>
       <use xlink:href="#DejaVuSans-30" x="190.869141"/>
      </g>
     </g>
    </g>
    <g id="ytick_6">
     <g id="line2d_31">
      <path d="M 108 158.326847 
L 777.6 158.326847 
" clip-path="url(#p1759eb7719)" style="fill: none; stroke-dasharray: 5.12,1.28,0.8,1.28; stroke-dashoffset: 0; stroke: #b0b0b0; stroke-width: 0.8"/>
     </g>
     <g id="line2d_32">
      <g>
       <use xlink:href="#m79916e721c" x="108" y="158.326847" style="fill: #a9a9a9; stroke: #a9a9a9; stroke-width: 0.8"/>
      </g>
     </g>
     <g id="text_16">
      <!-- 4000 -->
      <g style="fill: #a9a9a9" transform="translate(75.55 162.126065) scale(0.1 -0.1)">
       <use xlink:href="#DejaVuSans-34"/>
       <use xlink:href="#DejaVuSans-30" x="63.623047"/>
       <use xlink:href="#DejaVuSans-30" x="127.246094"/>
       <use xlink:href="#DejaVuSans-30" x="190.869141"/>
      </g>
     </g>
    </g>
    <g id="ytick_7">
     <g id="line2d_33">
      <path d="M 108 128.42474 
L 777.6 128.42474 
" clip-path="url(#p1759eb7719)" style="fill: none; stroke-dasharray: 5.12,1.28,0.8,1.28; stroke-dashoffset: 0; stroke: #b0b0b0; stroke-width: 0.8"/>
     </g>
     <g id="line2d_34">
      <g>
       <use xlink:href="#m79916e721c" x="108" y="128.42474" style="fill: #a9a9a9; stroke: #a9a9a9; stroke-width: 0.8"/>
      </g>
     </g>
     <g id="text_17">
      <!-- 4800 -->
      <g style="fill: #a9a9a9" transform="translate(75.55 132.223959) scale(0.1 -0.1)">
       <use xlink:href="#DejaVuSans-34"/>
       <use xlink:href="#DejaVuSans-38" x="63.623047"/>
       <use xlink:href="#DejaVuSans-30" x="127.246094"/>
       <use xlink:href="#DejaVuSans-30" x="190.869141"/>
      </g>
     </g>
    </g>
    <g id="ytick_8">
     <g id="line2d_35">
      <path d="M 108 98.522634 
L 777.6 98.522634 
" clip-path="url(#p1759eb7719)" style="fill: none; stroke-dasharray: 5.12,1.28,0.8,1.28; stroke-dashoffset: 0; stroke: #b0b0b0; stroke-width: 0.8"/>
     </g>
     <g id="line2d_36">
      <g>
       <use xlink:href="#m79916e721c" x="108" y="98.522634" style="fill: #a9a9a9; stroke: #a9a9a9; stroke-width: 0.8"/>
      </g>
     </g>
     <g id="text_18">
      <!-- 5600 -->
      <g style="fill: #a9a9a9" transform="translate(75.55 102.321853) scale(0.1 -0.1)">
       <use xlink:href="#DejaVuSans-35"/>
       <use xlink:href="#DejaVuSans-36" x="63.623047"/>
       <use xlink:href="#DejaVuSans-30" x="127.246094"/>
       <use xlink:href="#DejaVuSans-30" x="190.869141"/>
      </g>
     </g>
    </g>
    <g id="ytick_9">
     <g id="line2d_37">
      <path d="M 108 68.620528 
L 777.6 68.620528 
" clip-path="url(#p1759eb7719)" style="fill: none; stroke-dasharray: 5.12,1.28,0.8,1.28; stroke-dashoffset: 0; stroke: #b0b0b0; stroke-width: 0.8"/>
     </g>
     <g id="line2d_38">
      <g>
       <use xlink:href="#m79916e721c" x="108" y="68.620528" style="fill: #a9a9a9; stroke: #a9a9a9; stroke-width: 0.8"/>
      </g>
     </g>
     <g id="text_19">
      <!-- 6400 -->
      <g style="fill: #a9a9a9" transform="translate(75.55 72.419747) scale(0.1 -0.1)">
       <use xlink:href="#DejaVuSans-36"/>
       <use xlink:href="#DejaVuSans-34" x="63.623047"/>
       <use xlink:href="#DejaVuSans-30" x="127.246094"/>
       <use xlink:href="#DejaVuSans-30" x="190.869141"/>
      </g>
     </g>
    </g>
   </g>
   <g id="line2d_39">
    <path d="M 138.436364 307.725245 
L 141.57144 307.463601 
L 142.093952 307.239336 
L 143.66149 307.089825 
L 147.319079 306.417028 
L 149.931643 306.192762 
L 150.976668 305.781608 
L 151.499181 305.10881 
L 152.021693 304.735034 
L 152.544206 303.576327 
L 153.066719 303.501572 
L 153.589231 303.090418 
L 154.634257 302.567131 
L 156.724307 300.922516 
L 158.814358 299.913319 
L 160.381896 299.203144 
L 160.904409 298.380837 
L 161.949434 297.633284 
L 162.471947 297.409018 
L 167.697074 296.661465 
L 168.219586 296.4372 
L 171.877175 296.138179 
L 173.967226 295.652269 
L 178.147327 295.091605 
L 178.66984 294.829961 
L 179.192353 294.755206 
L 180.237378 294.418807 
L 183.894967 293.820765 
L 184.939992 293.521744 
L 189.642606 292.736814 
L 190.687632 292.512548 
L 191.732657 292.475171 
L 193.822708 291.989261 
L 194.34522 291.279086 
L 195.912758 290.681044 
L 197.480297 290.26989 
L 198.002809 290.008247 
L 198.525322 289.970869 
L 201.137885 289.223317 
L 202.182911 289.148561 
L 203.227936 288.886918 
L 205.317987 288.363631 
L 205.840499 288.326253 
L 206.885525 287.840344 
L 207.408037 287.765589 
L 207.93055 287.503945 
L 213.67819 286.569505 
L 215.76824 285.971462 
L 216.290753 285.635064 
L 218.903316 284.775378 
L 219.948342 284.065203 
L 221.51588 283.766182 
L 231.443621 280.888104 
L 232.488646 280.47695 
L 233.533671 280.402195 
L 235.10121 279.953664 
L 235.623722 279.953664 
L 236.146235 279.729398 
L 237.19126 279.617265 
L 237.713773 279.430377 
L 238.758798 279.392999 
L 240.848849 279.131356 
L 241.893874 278.608069 
L 248.164027 275.804746 
L 248.686539 275.244082 
L 249.731565 273.674221 
L 250.254077 273.524711 
L 250.77659 273.524711 
L 251.821615 272.73978 
L 253.389153 272.216494 
L 253.911666 271.730584 
L 254.956691 271.31943 
L 256.001717 270.833521 
L 257.046742 269.338416 
L 257.569255 269.002017 
L 258.091767 268.104954 
L 258.61428 267.54429 
L 261.749356 265.899674 
L 262.794382 265.077366 
L 263.316894 264.740967 
L 263.839407 263.956037 
L 264.36192 262.79733 
L 264.884432 262.0124 
L 265.406945 261.601246 
L 265.929458 261.37698 
L 269.587046 258.312014 
L 270.632072 257.078552 
L 271.677097 256.331 
L 273.244635 255.284426 
L 273.767148 254.835894 
L 274.812173 254.499496 
L 276.379711 253.602433 
L 277.947249 252.593236 
L 280.0373 250.724355 
L 281.082325 250.313201 
L 282.127351 249.603026 
L 282.649863 249.304005 
L 283.172376 249.229249 
L 286.829965 246.949214 
L 288.920016 245.827885 
L 289.442528 245.341976 
L 297.802731 242.42652 
L 298.847757 241.49208 
L 299.892782 241.00617 
L 300.937807 240.445506 
L 301.46032 240.146485 
L 302.505345 239.847464 
L 303.027858 239.511065 
L 303.550371 239.361554 
L 305.117909 238.352358 
L 307.730472 237.754316 
L 309.29801 236.857253 
L 310.865548 236.520854 
L 311.388061 236.371344 
L 312.955599 235.17526 
L 315.04565 234.614595 
L 315.568162 234.203441 
L 318.703238 233.156867 
L 319.225751 233.11949 
L 320.793289 232.558825 
L 324.450878 231.250608 
L 325.495903 231.101098 
L 327.063441 230.577811 
L 329.676005 229.344349 
L 331.766055 228.22302 
L 335.946157 226.541026 
L 336.46867 226.466271 
L 337.513695 225.830851 
L 338.036208 225.756096 
L 340.126258 224.896411 
L 342.216309 224.597389 
L 343.261334 224.074103 
L 343.783847 223.625571 
L 344.30636 222.69113 
L 346.39641 222.130466 
L 347.963948 221.345535 
L 348.486461 221.233403 
L 352.666563 219.252388 
L 354.234101 218.953367 
L 355.279126 218.43008 
L 355.801639 218.205814 
L 356.324151 218.131059 
L 358.414202 217.196618 
L 359.98174 216.2248 
L 361.549278 215.925779 
L 364.161842 215.290359 
L 364.684354 214.879205 
L 366.251892 214.31854 
L 368.341943 213.496233 
L 368.864456 213.122456 
L 369.386968 212.935568 
L 370.431994 212.374904 
L 373.044557 211.515218 
L 374.612095 210.281756 
L 375.134608 210.169623 
L 376.179633 209.347315 
L 376.702146 209.27256 
L 377.224659 208.450252 
L 377.747171 208.225986 
L 378.269684 207.814832 
L 378.792197 207.740077 
L 379.837222 207.104657 
L 380.882247 206.768259 
L 381.40476 206.357105 
L 381.927273 206.170217 
L 383.494811 205.086265 
L 385.584861 204.002314 
L 386.107374 203.927559 
L 387.674912 203.142628 
L 388.197425 202.282943 
L 388.719938 201.834411 
L 389.24245 201.53539 
L 389.764963 201.423257 
L 390.809988 200.75046 
L 391.332501 200.638327 
L 392.377526 200.11504 
L 394.467577 199.105844 
L 394.99009 198.732068 
L 396.557628 197.311718 
L 397.602653 196.713675 
L 398.125166 196.153011 
L 400.215217 194.732661 
L 400.737729 194.134619 
L 401.260242 193.723465 
L 402.305267 193.349689 
L 403.350293 192.639513 
L 404.917831 191.854583 
L 405.440343 191.779828 
L 407.007881 190.95752 
L 408.052907 190.3221 
L 413.278034 188.453219 
L 413.800546 188.042065 
L 415.890597 187.257134 
L 416.41311 187.107624 
L 416.935622 186.69647 
L 419.548186 185.27612 
L 420.593211 183.22035 
L 421.638236 182.024266 
L 422.683262 181.388846 
L 424.2508 180.753426 
L 424.773313 180.678671 
L 425.295825 180.37965 
L 427.908389 179.557342 
L 428.430901 179.333076 
L 429.475927 178.622901 
L 431.043465 177.950104 
L 432.08849 177.389439 
L 432.611003 177.015663 
L 433.133515 176.791397 
L 433.656028 176.417621 
L 434.178541 175.856956 
L 435.223566 175.296292 
L 437.83613 173.913319 
L 440.971206 172.380837 
L 442.016231 172.044438 
L 443.583769 171.558529 
L 445.67382 170.624088 
L 446.718845 170.212934 
L 447.241358 169.80178 
L 448.286383 169.465381 
L 451.421459 167.858143 
L 452.466485 167.035835 
L 453.51151 166.662059 
L 454.034023 166.213527 
L 454.556535 166.138772 
L 455.601561 165.353842 
L 456.646586 164.830555 
L 457.169099 164.606289 
L 457.691611 164.083002 
L 461.3492 162.662652 
L 462.394226 162.21412 
L 463.961764 161.728211 
L 465.006789 161.578701 
L 465.529302 161.354435 
L 466.051814 161.27968 
L 467.09684 160.831148 
L 467.619352 160.79377 
L 469.709403 160.00884 
L 471.276941 158.924889 
L 471.799454 158.738001 
L 472.844479 158.177336 
L 473.366992 158.027826 
L 476.502068 156.308454 
L 477.024581 156.196322 
L 478.592119 155.299258 
L 480.159657 154.775972 
L 481.204682 154.439573 
L 483.294733 153.766775 
L 484.339758 153.430377 
L 486.429809 153.019223 
L 486.952321 152.794957 
L 487.474834 152.720202 
L 488.51986 152.27167 
L 489.042372 152.196915 
L 489.564885 151.935271 
L 490.60991 151.748383 
L 492.177448 151.187719 
L 493.222474 151.075586 
L 494.790012 150.739187 
L 497.402575 150.290656 
L 510.987905 146.403382 
L 511.510417 145.880095 
L 512.555443 145.468941 
L 515.690519 144.347612 
L 516.213032 144.011213 
L 516.735544 143.89908 
L 517.258057 143.600059 
L 518.825595 143.151528 
L 519.87062 142.889884 
L 520.393133 142.553486 
L 520.915646 142.441353 
L 521.438158 141.992821 
L 523.005696 141.6938 
L 524.050722 141.207891 
L 524.573234 140.609849 
L 526.663285 140.123939 
L 530.320874 139.376387 
L 530.843387 139.376387 
L 531.365899 139.152121 
L 533.45595 138.778345 
L 533.978463 138.554079 
L 536.068513 138.180303 
L 537.113539 137.731771 
L 537.636052 137.694393 
L 546.518767 135.040581 
L 547.04128 134.816316 
L 547.563792 134.442539 
L 548.608818 134.143518 
L 549.653843 133.80712 
L 550.698869 133.395966 
L 552.266407 132.723168 
L 553.833945 132.611035 
L 555.923995 132.012993 
L 556.446508 131.713972 
L 557.491533 131.414951 
L 560.104097 130.256244 
L 560.626609 130.218867 
L 566.374249 128.237852 
L 568.986812 127.565055 
L 570.031838 127.079146 
L 571.599376 126.742747 
L 572.121888 126.331593 
L 572.644401 126.06995 
L 573.166914 125.43453 
L 573.689426 125.060753 
L 574.734452 124.761732 
L 575.256964 124.350578 
L 578.392041 123.191872 
L 578.914553 122.855473 
L 579.959579 122.556452 
L 580.482091 122.220053 
L 583.094655 121.360368 
L 584.662193 120.463305 
L 585.184705 120.351172 
L 586.229731 119.75313 
L 586.752243 119.528864 
L 587.797269 118.893444 
L 589.364807 118.145891 
L 589.88732 117.772115 
L 590.932345 117.435716 
L 591.97737 116.837674 
L 592.499883 116.650786 
L 593.022396 116.27701 
L 599.81506 113.922219 
L 600.337573 113.810086 
L 600.860086 113.473687 
L 602.950137 113.062533 
L 603.995162 112.651379 
L 604.517675 112.352358 
L 605.040187 112.202848 
L 607.130238 111.118896 
L 607.652751 111.044141 
L 609.220289 110.184456 
L 612.355365 108.950994 
L 614.445416 108.128686 
L 614.967928 107.979175 
L 615.490441 107.642777 
L 616.535466 107.493266 
L 617.057979 107.156867 
L 617.580492 107.11949 
L 618.625517 106.783091 
L 619.670542 106.259804 
L 620.193055 106.185049 
L 622.805618 105.138475 
L 624.373156 104.689944 
L 625.418182 104.4283 
L 626.98572 103.979769 
L 628.030745 103.568615 
L 630.120796 102.447286 
L 631.165821 102.036132 
L 631.688334 101.699733 
L 632.733359 101.475467 
L 633.255872 101.176446 
L 633.778385 101.064313 
L 635.345923 100.204628 
L 636.390948 99.793474 
L 637.958486 99.083299 
L 639.526024 98.672145 
L 642.6611 97.438683 
L 644.228638 96.915396 
L 652.066329 93.551409 
L 653.111354 93.289766 
L 657.813968 91.346129 
L 658.336481 91.346129 
L 659.381506 90.897597 
L 660.426531 89.963156 
L 660.949044 89.514625 
L 662.516582 88.767072 
L 663.039095 88.654939 
L 663.561607 88.393296 
L 664.08412 88.31854 
L 664.606633 87.944764 
L 665.129146 87.832631 
L 666.174171 87.197212 
L 667.741709 86.412281 
L 668.786734 86.001127 
L 669.309247 85.739484 
L 671.92181 85.104064 
L 672.444323 84.842421 
L 674.011861 84.393889 
L 676.101912 83.384693 
L 677.146937 82.898784 
L 678.191963 82.63714 
L 680.282013 81.665322 
L 680.804526 81.515811 
L 681.327039 81.179413 
L 684.462115 80.058084 
L 686.029653 79.123643 
L 686.552165 79.01151 
L 687.597191 78.488223 
L 688.642216 78.114447 
L 689.164729 77.665915 
L 690.209754 77.254761 
L 691.777292 76.619341 
L 692.299805 76.208187 
L 692.822318 76.17081 
L 693.867343 75.871789 
L 694.912368 75.53539 
L 695.434881 75.273747 
L 695.957394 75.198991 
L 697.524932 74.638327 
L 699.09247 74.077662 
L 700.137495 73.666508 
L 700.660008 73.255354 
L 702.227546 72.844201 
L 702.750059 72.545179 
L 703.795084 72.283536 
L 705.362622 71.42385 
L 705.885135 71.386473 
L 707.452673 70.900564 
L 708.497698 70.788431 
L 709.542723 70.377277 
L 712.677799 69.480214 
L 713.722825 69.442836 
L 716.857901 68.43364 
L 717.380414 68.358885 
L 718.947952 67.536577 
L 719.470464 67.088045 
L 721.038002 66.190982 
L 721.560515 65.779828 
L 722.60554 65.368674 
L 725.218104 64.471611 
L 725.740616 64.060457 
L 727.308155 63.350282 
L 727.830667 63.238149 
L 728.875693 62.75224 
L 730.443231 62.341086 
L 732.010769 61.668288 
L 733.055794 61.182379 
L 734.623332 60.546959 
L 735.145845 60.434826 
L 736.713383 59.687274 
L 737.235895 59.575141 
L 738.280921 58.864966 
L 739.848459 58.416434 
L 741.415997 57.369861 
L 741.93851 57.295105 
L 744.551073 56.248532 
L 746.118611 55.874755 
L 747.163636 55.8 
L 747.163636 55.8 
" clip-path="url(#p1759eb7719)" style="fill: none; stroke: #1f77b4; stroke-width: 1.5; stroke-linecap: square"/>
   </g>
   <g id="line2d_40">
    <path d="M 138.958876 307.8 
L 140.526414 307.725245 
L 142.093952 307.687867 
L 145.229028 307.613112 
L 147.841592 307.500979 
L 149.931643 307.500979 
L 150.454155 307.351468 
L 152.544206 307.276713 
L 154.111744 307.089825 
L 156.201795 306.902937 
L 157.769333 306.828182 
L 162.99446 306.52916 
L 167.174561 306.454405 
L 169.787124 306.342272 
L 176.057277 306.267517 
L 178.66984 306.155384 
L 181.804916 306.080629 
L 183.894967 306.005874 
L 188.597581 305.931118 
L 190.165119 305.893741 
L 191.732657 305.856363 
L 193.822708 305.669475 
L 195.390246 305.632097 
L 198.002809 305.557342 
L 200.09286 305.482587 
L 203.750449 305.407832 
L 205.840499 305.220943 
L 208.453063 305.146188 
L 210.020601 305.10881 
L 212.633164 305.034055 
L 214.200702 304.884545 
L 217.858291 304.809789 
L 220.470854 304.585524 
L 221.51588 304.473391 
L 226.218494 304.211747 
L 229.35357 304.136992 
L 234.056184 303.875349 
L 235.623722 303.800593 
L 240.848849 303.501572 
L 246.596488 303.426817 
L 248.686539 303.202551 
L 249.731565 303.127796 
L 256.524229 302.567131 
L 260.181818 302.155977 
L 261.749356 302.081222 
L 266.45197 301.520558 
L 269.064534 301.445802 
L 270.632072 301.296292 
L 271.677097 301.258914 
L 273.244635 301.146781 
L 274.289661 301.072026 
L 275.857199 300.84776 
L 276.379711 300.84776 
L 277.947249 300.623495 
L 280.0373 300.548739 
L 281.082325 300.473984 
L 283.172376 300.399229 
L 284.217401 300.324473 
L 286.829965 300.06283 
L 287.87499 299.875942 
L 289.442528 299.838564 
L 290.487554 299.763809 
L 293.100117 299.689054 
L 299.892782 299.2779 
L 301.46032 299.203144 
L 308.252985 298.791991 
L 311.910574 298.717235 
L 312.955599 298.605102 
L 316.613188 298.530347 
L 320.270776 298.343459 
L 326.018416 298.268704 
L 329.676005 298.081815 
L 333.856106 298.00706 
L 338.036208 297.782794 
L 341.693796 297.708039 
L 351.621537 297.072619 
L 356.846664 296.997864 
L 359.459227 296.736221 
L 362.071791 296.698843 
L 364.684354 296.4372 
L 369.386968 296.175556 
L 372.522044 296.100801 
L 374.089583 296.063423 
L 375.657121 296.026046 
L 377.224659 295.876535 
L 381.40476 295.80178 
L 382.449785 295.652269 
L 383.494811 295.577514 
L 386.107374 295.465381 
L 387.1524 295.390626 
L 388.197425 295.315871 
L 392.900039 295.241115 
L 394.467577 295.128982 
L 408.052907 294.231919 
L 410.142957 294.157164 
L 412.755521 294.045031 
L 420.070698 293.970276 
L 423.728287 293.783388 
L 427.908389 293.708632 
L 429.998439 293.633877 
L 432.08849 293.5965 
L 433.656028 293.484367 
L 438.358642 293.222723 
L 439.403668 293.147968 
L 441.493718 293.073213 
L 444.106282 292.998457 
L 446.718845 292.886325 
L 450.376434 292.811569 
L 452.466485 292.736814 
L 458.736637 292.662059 
L 461.3492 292.549926 
L 464.484276 292.475171 
L 466.574327 292.288282 
L 468.141865 292.250905 
L 470.231916 292.17615 
L 471.799454 292.064017 
L 477.547093 291.989261 
L 479.637144 291.914506 
L 486.952321 291.839751 
L 488.51986 291.802373 
L 491.654936 291.727618 
L 493.222474 291.69024 
L 500.015139 291.615485 
L 501.060164 291.54073 
L 506.807803 291.465974 
L 508.897854 291.391219 
L 518.825595 291.316464 
L 520.393133 291.279086 
L 525.095747 291.204331 
L 526.140773 291.129576 
L 538.681077 291.054821 
L 540.248615 291.017443 
L 554.356457 290.942688 
L 555.923995 290.90531 
L 565.329224 290.830555 
L 566.374249 290.755799 
L 568.986812 290.681044 
L 570.55435 290.531534 
L 573.166914 290.456778 
L 576.30199 290.307268 
L 580.482091 290.232513 
L 581.527117 290.157757 
L 585.707218 290.083002 
L 588.842294 289.933492 
L 591.454858 289.858736 
L 595.634959 289.63447 
L 598.770035 289.559715 
L 600.860086 289.48496 
L 607.652751 289.410205 
L 609.742801 289.335449 
L 613.922903 289.260694 
L 617.580492 289.073806 
L 622.283106 288.999051 
L 623.328131 288.924295 
L 632.733359 288.84954 
L 634.300897 288.812163 
L 636.913461 288.774785 
L 639.526024 288.513142 
L 643.706126 288.438386 
L 648.931252 288.139365 
L 651.543816 288.06461 
L 653.633867 287.989855 
L 659.381506 287.915099 
L 662.516582 287.578701 
L 666.174171 287.503945 
L 669.309247 287.354435 
L 672.966836 287.27968 
L 675.579399 287.167547 
L 682.372064 287.130169 
L 683.417089 287.018036 
L 687.074678 286.943281 
L 688.642216 286.905903 
L 691.25478 286.831148 
L 692.822318 286.79377 
L 701.705033 286.719015 
L 704.317597 286.606882 
L 711.632774 286.532127 
L 713.722825 286.457372 
L 719.470464 286.382616 
L 720.51549 286.270484 
L 725.218104 286.233106 
L 726.263129 286.158351 
L 728.875693 286.083595 
L 730.443231 286.046218 
L 737.235895 285.971462 
L 738.803433 285.934085 
L 739.848459 285.85933 
L 741.415997 285.821952 
L 741.93851 285.821952 
L 742.983535 285.635064 
L 747.163636 285.560309 
L 747.163636 285.560309 
" clip-path="url(#p1759eb7719)" style="fill: none; stroke: #ff7f0e; stroke-width: 1.5; stroke-linecap: square"/>
   </g>
   <g id="patch_3">
    <path d="M 108 320.4 
L 108 43.2 
" style="fill: none; stroke: #a9a9a9; stroke-width: 0.8; stroke-linejoin: miter; stroke-linecap: square"/>
   </g>
   <g id="patch_4">
    <path d="M 777.6 320.4 
L 777.6 43.2 
" style="fill: none"/>
   </g>
   <g id="patch_5">
    <path d="M 108 320.4 
L 777.6 320.4 
" style="fill: none; stroke: #a9a9a9; stroke-width: 0.8; stroke-linejoin: miter; stroke-linecap: square"/>
   </g>
   <g id="patch_6">
    <path d="M 108 43.2 
L 777.6 43.2 
" style="fill: none"/>
   </g>
   <g id="text_20">
    <!-- get_subscribe history -->
    <g style="fill: #a9a9a9" transform="translate(378.6075 37.2) scale(0.12 -0.12)">
     <defs>
      <path id="DejaVuSans-67" d="M 2906 1791 
Q 2906 2416 2648 2759 
Q 2391 3103 1925 3103 
Q 1463 3103 1205 2759 
Q 947 2416 947 1791 
Q 947 1169 1205 825 
Q 1463 481 1925 481 
Q 2391 481 2648 825 
Q 2906 1169 2906 1791 
z
M 3481 434 
Q 3481 -459 3084 -895 
Q 2688 -1331 1869 -1331 
Q 1566 -1331 1297 -1286 
Q 1028 -1241 775 -1147 
L 775 -588 
Q 1028 -725 1275 -790 
Q 1522 -856 1778 -856 
Q 2344 -856 2625 -561 
Q 2906 -266 2906 331 
L 2906 616 
Q 2728 306 2450 153 
Q 2172 0 1784 0 
Q 1141 0 747 490 
Q 353 981 353 1791 
Q 353 2603 747 3093 
Q 1141 3584 1784 3584 
Q 2172 3584 2450 3431 
Q 2728 3278 2906 2969 
L 2906 3500 
L 3481 3500 
L 3481 434 
z
" transform="scale(0.015625)"/>
      <path id="DejaVuSans-65" d="M 3597 1894 
L 3597 1613 
L 953 1613 
Q 991 1019 1311 708 
Q 1631 397 2203 397 
Q 2534 397 2845 478 
Q 3156 559 3463 722 
L 3463 178 
Q 3153 47 2828 -22 
Q 2503 -91 2169 -91 
Q 1331 -91 842 396 
Q 353 884 353 1716 
Q 353 2575 817 3079 
Q 1281 3584 2069 3584 
Q 2775 3584 3186 3129 
Q 3597 2675 3597 1894 
z
M 3022 2063 
Q 3016 2534 2758 2815 
Q 2500 3097 2075 3097 
Q 1594 3097 1305 2825 
Q 1016 2553 972 2059 
L 3022 2063 
z
" transform="scale(0.015625)"/>
      <path id="DejaVuSans-74" d="M 1172 4494 
L 1172 3500 
L 2356 3500 
L 2356 3053 
L 1172 3053 
L 1172 1153 
Q 1172 725 1289 603 
Q 1406 481 1766 481 
L 2356 481 
L 2356 0 
L 1766 0 
Q 1100 0 847 248 
Q 594 497 594 1153 
L 594 3053 
L 172 3053 
L 172 3500 
L 594 3500 
L 594 4494 
L 1172 4494 
z
" transform="scale(0.015625)"/>
      <path id="DejaVuSans-5f" d="M 3263 -1063 
L 3263 -1509 
L -63 -1509 
L -63 -1063 
L 3263 -1063 
z
" transform="scale(0.015625)"/>
      <path id="DejaVuSans-73" d="M 2834 3397 
L 2834 2853 
Q 2591 2978 2328 3040 
Q 2066 3103 1784 3103 
Q 1356 3103 1142 2972 
Q 928 2841 928 2578 
Q 928 2378 1081 2264 
Q 1234 2150 1697 2047 
L 1894 2003 
Q 2506 1872 2764 1633 
Q 3022 1394 3022 966 
Q 3022 478 2636 193 
Q 2250 -91 1575 -91 
Q 1294 -91 989 -36 
Q 684 19 347 128 
L 347 722 
Q 666 556 975 473 
Q 1284 391 1588 391 
Q 1994 391 2212 530 
Q 2431 669 2431 922 
Q 2431 1156 2273 1281 
Q 2116 1406 1581 1522 
L 1381 1569 
Q 847 1681 609 1914 
Q 372 2147 372 2553 
Q 372 3047 722 3315 
Q 1072 3584 1716 3584 
Q 2034 3584 2315 3537 
Q 2597 3491 2834 3397 
z
" transform="scale(0.015625)"/>
      <path id="DejaVuSans-75" d="M 544 1381 
L 544 3500 
L 1119 3500 
L 1119 1403 
Q 1119 906 1312 657 
Q 1506 409 1894 409 
Q 2359 409 2629 706 
Q 2900 1003 2900 1516 
L 2900 3500 
L 3475 3500 
L 3475 0 
L 2900 0 
L 2900 538 
Q 2691 219 2414 64 
Q 2138 -91 1772 -91 
Q 1169 -91 856 284 
Q 544 659 544 1381 
z
M 1991 3584 
L 1991 3584 
z
" transform="scale(0.015625)"/>
      <path id="DejaVuSans-62" d="M 3116 1747 
Q 3116 2381 2855 2742 
Q 2594 3103 2138 3103 
Q 1681 3103 1420 2742 
Q 1159 2381 1159 1747 
Q 1159 1113 1420 752 
Q 1681 391 2138 391 
Q 2594 391 2855 752 
Q 3116 1113 3116 1747 
z
M 1159 2969 
Q 1341 3281 1617 3432 
Q 1894 3584 2278 3584 
Q 2916 3584 3314 3078 
Q 3713 2572 3713 1747 
Q 3713 922 3314 415 
Q 2916 -91 2278 -91 
Q 1894 -91 1617 61 
Q 1341 213 1159 525 
L 1159 0 
L 581 0 
L 581 4863 
L 1159 4863 
L 1159 2969 
z
" transform="scale(0.015625)"/>
      <path id="DejaVuSans-63" d="M 3122 3366 
L 3122 2828 
Q 2878 2963 2633 3030 
Q 2388 3097 2138 3097 
Q 1578 3097 1268 2742 
Q 959 2388 959 1747 
Q 959 1106 1268 751 
Q 1578 397 2138 397 
Q 2388 397 2633 464 
Q 2878 531 3122 666 
L 3122 134 
Q 2881 22 2623 -34 
Q 2366 -91 2075 -91 
Q 1284 -91 818 406 
Q 353 903 353 1747 
Q 353 2603 823 3093 
Q 1294 3584 2113 3584 
Q 2378 3584 2631 3529 
Q 2884 3475 3122 3366 
z
" transform="scale(0.015625)"/>
      <path id="DejaVuSans-72" d="M 2631 2963 
Q 2534 3019 2420 3045 
Q 2306 3072 2169 3072 
Q 1681 3072 1420 2755 
Q 1159 2438 1159 1844 
L 1159 0 
L 581 0 
L 581 3500 
L 1159 3500 
L 1159 2956 
Q 1341 3275 1631 3429 
Q 1922 3584 2338 3584 
Q 2397 3584 2469 3576 
Q 2541 3569 2628 3553 
L 2631 2963 
z
" transform="scale(0.015625)"/>
      <path id="DejaVuSans-69" d="M 603 3500 
L 1178 3500 
L 1178 0 
L 603 0 
L 603 3500 
z
M 603 4863 
L 1178 4863 
L 1178 4134 
L 603 4134 
L 603 4863 
z
" transform="scale(0.015625)"/>
      <path id="DejaVuSans-20" transform="scale(0.015625)"/>
      <path id="DejaVuSans-68" d="M 3513 2113 
L 3513 0 
L 2938 0 
L 2938 2094 
Q 2938 2591 2744 2837 
Q 2550 3084 2163 3084 
Q 1697 3084 1428 2787 
Q 1159 2491 1159 1978 
L 1159 0 
L 581 0 
L 581 4863 
L 1159 4863 
L 1159 2956 
Q 1366 3272 1645 3428 
Q 1925 3584 2291 3584 
Q 2894 3584 3203 3211 
Q 3513 2838 3513 2113 
z
" transform="scale(0.015625)"/>
      <path id="DejaVuSans-6f" d="M 1959 3097 
Q 1497 3097 1228 2736 
Q 959 2375 959 1747 
Q 959 1119 1226 758 
Q 1494 397 1959 397 
Q 2419 397 2687 759 
Q 2956 1122 2956 1747 
Q 2956 2369 2687 2733 
Q 2419 3097 1959 3097 
z
M 1959 3584 
Q 2709 3584 3137 3096 
Q 3566 2609 3566 1747 
Q 3566 888 3137 398 
Q 2709 -91 1959 -91 
Q 1206 -91 779 398 
Q 353 888 353 1747 
Q 353 2609 779 3096 
Q 1206 3584 1959 3584 
z
" transform="scale(0.015625)"/>
      <path id="DejaVuSans-79" d="M 2059 -325 
Q 1816 -950 1584 -1140 
Q 1353 -1331 966 -1331 
L 506 -1331 
L 506 -850 
L 844 -850 
Q 1081 -850 1212 -737 
Q 1344 -625 1503 -206 
L 1606 56 
L 191 3500 
L 800 3500 
L 1894 763 
L 2988 3500 
L 3597 3500 
L 2059 -325 
z
" transform="scale(0.015625)"/>
     </defs>
     <use xlink:href="#DejaVuSans-67"/>
     <use xlink:href="#DejaVuSans-65" x="63.476562"/>
     <use xlink:href="#DejaVuSans-74" x="125"/>
     <use xlink:href="#DejaVuSans-5f" x="164.208984"/>
     <use xlink:href="#DejaVuSans-73" x="214.208984"/>
     <use xlink:href="#DejaVuSans-75" x="266.308594"/>
     <use xlink:href="#DejaVuSans-62" x="329.6875"/>
     <use xlink:href="#DejaVuSans-73" x="393.164062"/>
     <use xlink:href="#DejaVuSans-63" x="445.263672"/>
     <use xlink:href="#DejaVuSans-72" x="500.244141"/>
     <use xlink:href="#DejaVuSans-69" x="541.357422"/>
     <use xlink:href="#DejaVuSans-62" x="569.140625"/>
     <use xlink:href="#DejaVuSans-65" x="632.617188"/>
     <use xlink:href="#DejaVuSans-20" x="694.140625"/>
     <use xlink:href="#DejaVuSans-68" x="725.927734"/>
     <use xlink:href="#DejaVuSans-69" x="789.306641"/>
     <use xlink:href="#DejaVuSans-73" x="817.089844"/>
     <use xlink:href="#DejaVuSans-74" x="869.189453"/>
     <use xlink:href="#DejaVuSans-6f" x="908.398438"/>
     <use xlink:href="#DejaVuSans-72" x="969.580078"/>
     <use xlink:href="#DejaVuSans-79" x="1010.693359"/>
    </g>
   </g>
   <g id="legend_1">
    <g id="line2d_41">
     <path d="M 815.08 328.498438 
L 825.08 328.498438 
L 835.08 328.498438 
" style="fill: none; stroke: #1f77b4; stroke-width: 1.5; stroke-linecap: square"/>
    </g>
    <g id="text_21">
     <!-- star -->
     <g style="fill: #a9a9a9" transform="translate(843.08 331.998438) scale(0.1 -0.1)">
      <defs>
       <path id="DejaVuSans-61" d="M 2194 1759 
Q 1497 1759 1228 1600 
Q 959 1441 959 1056 
Q 959 750 1161 570 
Q 1363 391 1709 391 
Q 2188 391 2477 730 
Q 2766 1069 2766 1631 
L 2766 1759 
L 2194 1759 
z
M 3341 1997 
L 3341 0 
L 2766 0 
L 2766 531 
Q 2569 213 2275 61 
Q 1981 -91 1556 -91 
Q 1019 -91 701 211 
Q 384 513 384 1019 
Q 384 1609 779 1909 
Q 1175 2209 1959 2209 
L 2766 2209 
L 2766 2266 
Q 2766 2663 2505 2880 
Q 2244 3097 1772 3097 
Q 1472 3097 1187 3025 
Q 903 2953 641 2809 
L 641 3341 
Q 956 3463 1253 3523 
Q 1550 3584 1831 3584 
Q 2591 3584 2966 3190 
Q 3341 2797 3341 1997 
z
" transform="scale(0.015625)"/>
      </defs>
      <use xlink:href="#DejaVuSans-73"/>
      <use xlink:href="#DejaVuSans-74" x="52.099609"/>
      <use xlink:href="#DejaVuSans-61" x="91.308594"/>
      <use xlink:href="#DejaVuSans-72" x="152.587891"/>
     </g>
    </g>
    <g id="line2d_42">
     <path d="M 815.08 343.176562 
L 825.08 343.176562 
L 835.08 343.176562 
" style="fill: none; stroke: #ff7f0e; stroke-width: 1.5; stroke-linecap: square"/>
    </g>
    <g id="text_22">
     <!-- fork -->
     <g style="fill: #a9a9a9" transform="translate(843.08 346.676562) scale(0.1 -0.1)">
      <defs>
       <path id="DejaVuSans-66" d="M 2375 4863 
L 2375 4384 
L 1825 4384 
Q 1516 4384 1395 4259 
Q 1275 4134 1275 3809 
L 1275 3500 
L 2222 3500 
L 2222 3053 
L 1275 3053 
L 1275 0 
L 697 0 
L 697 3053 
L 147 3053 
L 147 3500 
L 697 3500 
L 697 3744 
Q 697 4328 969 4595 
Q 1241 4863 1831 4863 
L 2375 4863 
z
" transform="scale(0.015625)"/>
       <path id="DejaVuSans-6b" d="M 581 4863 
L 1159 4863 
L 1159 1991 
L 2875 3500 
L 3609 3500 
L 1753 1863 
L 3688 0 
L 2938 0 
L 1159 1709 
L 1159 0 
L 581 0 
L 581 4863 
z
" transform="scale(0.015625)"/>
      </defs>
      <use xlink:href="#DejaVuSans-66"/>
      <use xlink:href="#DejaVuSans-6f" x="35.205078"/>
      <use xlink:href="#DejaVuSans-72" x="96.386719"/>
      <use xlink:href="#DejaVuSans-6b" x="137.5"/>
     </g>
    </g>
   </g>
  </g>
 </g>
 <defs>
  <clipPath id="p1759eb7719">
   <rect x="108" y="43.2" width="669.6" height="277.2"/>
  </clipPath>
 </defs>
</svg>
