<?xml version="1.0" encoding="utf-8" standalone="no"?>
<!DOCTYPE svg PUBLIC "-//W3C//DTD SVG 1.1//EN"
  "http://www.w3.org/Graphics/SVG/1.1/DTD/svg11.dtd">
<svg xmlns:xlink="http://www.w3.org/1999/xlink" width="864pt" height="360pt" viewBox="0 0 864 360" xmlns="http://www.w3.org/2000/svg" version="1.1">
 <metadata>
  <rdf:RDF xmlns:dc="http://purl.org/dc/elements/1.1/" xmlns:cc="http://creativecommons.org/ns#" xmlns:rdf="http://www.w3.org/1999/02/22-rdf-syntax-ns#">
   <cc:Work>
    <dc:type rdf:resource="http://purl.org/dc/dcmitype/StillImage"/>
    <dc:date>2025-05-21T20:06:44.493405</dc:date>
    <dc:format>image/svg+xml</dc:format>
    <dc:creator>
     <cc:Agent>
      <dc:title>Matplotlib v3.10.3, https://matplotlib.org/</dc:title>
     </cc:Agent>
    </dc:creator>
   </cc:Work>
  </rdf:RDF>
 </metadata>
 <defs>
  <style type="text/css">*{stroke-linejoin: round; stroke-linecap: butt}</style>
 </defs>
 <g id="figure_1">
  <g id="patch_1">
   <path d="M 0 360 
L 864 360 
L 864 0 
L 0 0 
L 0 360 
z
" style="fill: none; opacity: 0"/>
  </g>
  <g id="axes_1">
   <g id="patch_2">
    <path d="M 108 320.4 
L 777.6 320.4 
L 777.6 43.2 
L 108 43.2 
L 108 320.4 
z
" style="fill: none; opacity: 0"/>
   </g>
   <g id="matplotlib.axis_1">
    <g id="xtick_1">
     <g id="line2d_1">
      <path d="M 128.414368 320.4 
L 128.414368 43.2 
" clip-path="url(#p3f04c3ea1d)" style="fill: none; stroke-dasharray: 5.12,1.28,0.8,1.28; stroke-dashoffset: 0; stroke: #b0b0b0; stroke-width: 0.8"/>
     </g>
     <g id="line2d_2">
      <defs>
       <path id="mda3390472b" d="M 0 0 
L 0 3.5 
" style="stroke: #a9a9a9; stroke-width: 0.8"/>
      </defs>
      <g>
       <use xlink:href="#mda3390472b" x="128.414368" y="320.4" style="fill: #a9a9a9; stroke: #a9a9a9; stroke-width: 0.8"/>
      </g>
     </g>
     <g id="text_1">
      <!-- 2021-07 -->
      <g style="fill: #a9a9a9" transform="translate(107.522962 334.998438) scale(0.1 -0.1)">
       <defs>
        <path id="DejaVuSans-32" d="M 1228 531 
L 3431 531 
L 3431 0 
L 469 0 
L 469 531 
Q 828 903 1448 1529 
Q 2069 2156 2228 2338 
Q 2531 2678 2651 2914 
Q 2772 3150 2772 3378 
Q 2772 3750 2511 3984 
Q 2250 4219 1831 4219 
Q 1534 4219 1204 4116 
Q 875 4013 500 3803 
L 500 4441 
Q 881 4594 1212 4672 
Q 1544 4750 1819 4750 
Q 2544 4750 2975 4387 
Q 3406 4025 3406 3419 
Q 3406 3131 3298 2873 
Q 3191 2616 2906 2266 
Q 2828 2175 2409 1742 
Q 1991 1309 1228 531 
z
" transform="scale(0.015625)"/>
        <path id="DejaVuSans-30" d="M 2034 4250 
Q 1547 4250 1301 3770 
Q 1056 3291 1056 2328 
Q 1056 1369 1301 889 
Q 1547 409 2034 409 
Q 2525 409 2770 889 
Q 3016 1369 3016 2328 
Q 3016 3291 2770 3770 
Q 2525 4250 2034 4250 
z
M 2034 4750 
Q 2819 4750 3233 4129 
Q 3647 3509 3647 2328 
Q 3647 1150 3233 529 
Q 2819 -91 2034 -91 
Q 1250 -91 836 529 
Q 422 1150 422 2328 
Q 422 3509 836 4129 
Q 1250 4750 2034 4750 
z
" transform="scale(0.015625)"/>
        <path id="DejaVuSans-31" d="M 794 531 
L 1825 531 
L 1825 4091 
L 703 3866 
L 703 4441 
L 1819 4666 
L 2450 4666 
L 2450 531 
L 3481 531 
L 3481 0 
L 794 0 
L 794 531 
z
" transform="scale(0.015625)"/>
        <path id="DejaVuSans-2d" d="M 313 2009 
L 1997 2009 
L 1997 1497 
L 313 1497 
L 313 2009 
z
" transform="scale(0.015625)"/>
        <path id="DejaVuSans-37" d="M 525 4666 
L 3525 4666 
L 3525 4397 
L 1831 0 
L 1172 0 
L 2766 4134 
L 525 4134 
L 525 4666 
z
" transform="scale(0.015625)"/>
       </defs>
       <use xlink:href="#DejaVuSans-32"/>
       <use xlink:href="#DejaVuSans-30" transform="translate(63.623047 0)"/>
       <use xlink:href="#DejaVuSans-32" transform="translate(127.246094 0)"/>
       <use xlink:href="#DejaVuSans-31" transform="translate(190.869141 0)"/>
       <use xlink:href="#DejaVuSans-2d" transform="translate(254.492188 0)"/>
       <use xlink:href="#DejaVuSans-30" transform="translate(290.576172 0)"/>
       <use xlink:href="#DejaVuSans-37" transform="translate(354.199219 0)"/>
      </g>
     </g>
    </g>
    <g id="xtick_2">
     <g id="line2d_3">
      <path d="M 208.59033 320.4 
L 208.59033 43.2 
" clip-path="url(#p3f04c3ea1d)" style="fill: none; stroke-dasharray: 5.12,1.28,0.8,1.28; stroke-dashoffset: 0; stroke: #b0b0b0; stroke-width: 0.8"/>
     </g>
     <g id="line2d_4">
      <g>
       <use xlink:href="#mda3390472b" x="208.59033" y="320.4" style="fill: #a9a9a9; stroke: #a9a9a9; stroke-width: 0.8"/>
      </g>
     </g>
     <g id="text_2">
      <!-- 2022-01 -->
      <g style="fill: #a9a9a9" transform="translate(187.698924 334.998438) scale(0.1 -0.1)">
       <use xlink:href="#DejaVuSans-32"/>
       <use xlink:href="#DejaVuSans-30" transform="translate(63.623047 0)"/>
       <use xlink:href="#DejaVuSans-32" transform="translate(127.246094 0)"/>
       <use xlink:href="#DejaVuSans-32" transform="translate(190.869141 0)"/>
       <use xlink:href="#DejaVuSans-2d" transform="translate(254.492188 0)"/>
       <use xlink:href="#DejaVuSans-30" transform="translate(290.576172 0)"/>
       <use xlink:href="#DejaVuSans-31" transform="translate(354.199219 0)"/>
      </g>
     </g>
    </g>
    <g id="xtick_3">
     <g id="line2d_5">
      <path d="M 287.459075 320.4 
L 287.459075 43.2 
" clip-path="url(#p3f04c3ea1d)" style="fill: none; stroke-dasharray: 5.12,1.28,0.8,1.28; stroke-dashoffset: 0; stroke: #b0b0b0; stroke-width: 0.8"/>
     </g>
     <g id="line2d_6">
      <g>
       <use xlink:href="#mda3390472b" x="287.459075" y="320.4" style="fill: #a9a9a9; stroke: #a9a9a9; stroke-width: 0.8"/>
      </g>
     </g>
     <g id="text_3">
      <!-- 2022-07 -->
      <g style="fill: #a9a9a9" transform="translate(266.567668 334.998438) scale(0.1 -0.1)">
       <use xlink:href="#DejaVuSans-32"/>
       <use xlink:href="#DejaVuSans-30" transform="translate(63.623047 0)"/>
       <use xlink:href="#DejaVuSans-32" transform="translate(127.246094 0)"/>
       <use xlink:href="#DejaVuSans-32" transform="translate(190.869141 0)"/>
       <use xlink:href="#DejaVuSans-2d" transform="translate(254.492188 0)"/>
       <use xlink:href="#DejaVuSans-30" transform="translate(290.576172 0)"/>
       <use xlink:href="#DejaVuSans-37" transform="translate(354.199219 0)"/>
      </g>
     </g>
    </g>
    <g id="xtick_4">
     <g id="line2d_7">
      <path d="M 367.635036 320.4 
L 367.635036 43.2 
" clip-path="url(#p3f04c3ea1d)" style="fill: none; stroke-dasharray: 5.12,1.28,0.8,1.28; stroke-dashoffset: 0; stroke: #b0b0b0; stroke-width: 0.8"/>
     </g>
     <g id="line2d_8">
      <g>
       <use xlink:href="#mda3390472b" x="367.635036" y="320.4" style="fill: #a9a9a9; stroke: #a9a9a9; stroke-width: 0.8"/>
      </g>
     </g>
     <g id="text_4">
      <!-- 2023-01 -->
      <g style="fill: #a9a9a9" transform="translate(346.74363 334.998438) scale(0.1 -0.1)">
       <defs>
        <path id="DejaVuSans-33" d="M 2597 2516 
Q 3050 2419 3304 2112 
Q 3559 1806 3559 1356 
Q 3559 666 3084 287 
Q 2609 -91 1734 -91 
Q 1441 -91 1130 -33 
Q 819 25 488 141 
L 488 750 
Q 750 597 1062 519 
Q 1375 441 1716 441 
Q 2309 441 2620 675 
Q 2931 909 2931 1356 
Q 2931 1769 2642 2001 
Q 2353 2234 1838 2234 
L 1294 2234 
L 1294 2753 
L 1863 2753 
Q 2328 2753 2575 2939 
Q 2822 3125 2822 3475 
Q 2822 3834 2567 4026 
Q 2313 4219 1838 4219 
Q 1578 4219 1281 4162 
Q 984 4106 628 3988 
L 628 4550 
Q 988 4650 1302 4700 
Q 1616 4750 1894 4750 
Q 2613 4750 3031 4423 
Q 3450 4097 3450 3541 
Q 3450 3153 3228 2886 
Q 3006 2619 2597 2516 
z
" transform="scale(0.015625)"/>
       </defs>
       <use xlink:href="#DejaVuSans-32"/>
       <use xlink:href="#DejaVuSans-30" transform="translate(63.623047 0)"/>
       <use xlink:href="#DejaVuSans-32" transform="translate(127.246094 0)"/>
       <use xlink:href="#DejaVuSans-33" transform="translate(190.869141 0)"/>
       <use xlink:href="#DejaVuSans-2d" transform="translate(254.492188 0)"/>
       <use xlink:href="#DejaVuSans-30" transform="translate(290.576172 0)"/>
       <use xlink:href="#DejaVuSans-31" transform="translate(354.199219 0)"/>
      </g>
     </g>
    </g>
    <g id="xtick_5">
     <g id="line2d_9">
      <path d="M 446.503781 320.4 
L 446.503781 43.2 
" clip-path="url(#p3f04c3ea1d)" style="fill: none; stroke-dasharray: 5.12,1.28,0.8,1.28; stroke-dashoffset: 0; stroke: #b0b0b0; stroke-width: 0.8"/>
     </g>
     <g id="line2d_10">
      <g>
       <use xlink:href="#mda3390472b" x="446.503781" y="320.4" style="fill: #a9a9a9; stroke: #a9a9a9; stroke-width: 0.8"/>
      </g>
     </g>
     <g id="text_5">
      <!-- 2023-07 -->
      <g style="fill: #a9a9a9" transform="translate(425.612375 334.998438) scale(0.1 -0.1)">
       <use xlink:href="#DejaVuSans-32"/>
       <use xlink:href="#DejaVuSans-30" transform="translate(63.623047 0)"/>
       <use xlink:href="#DejaVuSans-32" transform="translate(127.246094 0)"/>
       <use xlink:href="#DejaVuSans-33" transform="translate(190.869141 0)"/>
       <use xlink:href="#DejaVuSans-2d" transform="translate(254.492188 0)"/>
       <use xlink:href="#DejaVuSans-30" transform="translate(290.576172 0)"/>
       <use xlink:href="#DejaVuSans-37" transform="translate(354.199219 0)"/>
      </g>
     </g>
    </g>
    <g id="xtick_6">
     <g id="line2d_11">
      <path d="M 526.679742 320.4 
L 526.679742 43.2 
" clip-path="url(#p3f04c3ea1d)" style="fill: none; stroke-dasharray: 5.12,1.28,0.8,1.28; stroke-dashoffset: 0; stroke: #b0b0b0; stroke-width: 0.8"/>
     </g>
     <g id="line2d_12">
      <g>
       <use xlink:href="#mda3390472b" x="526.679742" y="320.4" style="fill: #a9a9a9; stroke: #a9a9a9; stroke-width: 0.8"/>
      </g>
     </g>
     <g id="text_6">
      <!-- 2024-01 -->
      <g style="fill: #a9a9a9" transform="translate(505.788336 334.998438) scale(0.1 -0.1)">
       <defs>
        <path id="DejaVuSans-34" d="M 2419 4116 
L 825 1625 
L 2419 1625 
L 2419 4116 
z
M 2253 4666 
L 3047 4666 
L 3047 1625 
L 3713 1625 
L 3713 1100 
L 3047 1100 
L 3047 0 
L 2419 0 
L 2419 1100 
L 313 1100 
L 313 1709 
L 2253 4666 
z
" transform="scale(0.015625)"/>
       </defs>
       <use xlink:href="#DejaVuSans-32"/>
       <use xlink:href="#DejaVuSans-30" transform="translate(63.623047 0)"/>
       <use xlink:href="#DejaVuSans-32" transform="translate(127.246094 0)"/>
       <use xlink:href="#DejaVuSans-34" transform="translate(190.869141 0)"/>
       <use xlink:href="#DejaVuSans-2d" transform="translate(254.492188 0)"/>
       <use xlink:href="#DejaVuSans-30" transform="translate(290.576172 0)"/>
       <use xlink:href="#DejaVuSans-31" transform="translate(354.199219 0)"/>
      </g>
     </g>
    </g>
    <g id="xtick_7">
     <g id="line2d_13">
      <path d="M 605.984226 320.4 
L 605.984226 43.2 
" clip-path="url(#p3f04c3ea1d)" style="fill: none; stroke-dasharray: 5.12,1.28,0.8,1.28; stroke-dashoffset: 0; stroke: #b0b0b0; stroke-width: 0.8"/>
     </g>
     <g id="line2d_14">
      <g>
       <use xlink:href="#mda3390472b" x="605.984226" y="320.4" style="fill: #a9a9a9; stroke: #a9a9a9; stroke-width: 0.8"/>
      </g>
     </g>
     <g id="text_7">
      <!-- 2024-07 -->
      <g style="fill: #a9a9a9" transform="translate(585.09282 334.998438) scale(0.1 -0.1)">
       <use xlink:href="#DejaVuSans-32"/>
       <use xlink:href="#DejaVuSans-30" transform="translate(63.623047 0)"/>
       <use xlink:href="#DejaVuSans-32" transform="translate(127.246094 0)"/>
       <use xlink:href="#DejaVuSans-34" transform="translate(190.869141 0)"/>
       <use xlink:href="#DejaVuSans-2d" transform="translate(254.492188 0)"/>
       <use xlink:href="#DejaVuSans-30" transform="translate(290.576172 0)"/>
       <use xlink:href="#DejaVuSans-37" transform="translate(354.199219 0)"/>
      </g>
     </g>
    </g>
    <g id="xtick_8">
     <g id="line2d_15">
      <path d="M 686.160187 320.4 
L 686.160187 43.2 
" clip-path="url(#p3f04c3ea1d)" style="fill: none; stroke-dasharray: 5.12,1.28,0.8,1.28; stroke-dashoffset: 0; stroke: #b0b0b0; stroke-width: 0.8"/>
     </g>
     <g id="line2d_16">
      <g>
       <use xlink:href="#mda3390472b" x="686.160187" y="320.4" style="fill: #a9a9a9; stroke: #a9a9a9; stroke-width: 0.8"/>
      </g>
     </g>
     <g id="text_8">
      <!-- 2025-01 -->
      <g style="fill: #a9a9a9" transform="translate(665.268781 334.998438) scale(0.1 -0.1)">
       <defs>
        <path id="DejaVuSans-35" d="M 691 4666 
L 3169 4666 
L 3169 4134 
L 1269 4134 
L 1269 2991 
Q 1406 3038 1543 3061 
Q 1681 3084 1819 3084 
Q 2600 3084 3056 2656 
Q 3513 2228 3513 1497 
Q 3513 744 3044 326 
Q 2575 -91 1722 -91 
Q 1428 -91 1123 -41 
Q 819 9 494 109 
L 494 744 
Q 775 591 1075 516 
Q 1375 441 1709 441 
Q 2250 441 2565 725 
Q 2881 1009 2881 1497 
Q 2881 1984 2565 2268 
Q 2250 2553 1709 2553 
Q 1456 2553 1204 2497 
Q 953 2441 691 2322 
L 691 4666 
z
" transform="scale(0.015625)"/>
       </defs>
       <use xlink:href="#DejaVuSans-32"/>
       <use xlink:href="#DejaVuSans-30" transform="translate(63.623047 0)"/>
       <use xlink:href="#DejaVuSans-32" transform="translate(127.246094 0)"/>
       <use xlink:href="#DejaVuSans-35" transform="translate(190.869141 0)"/>
       <use xlink:href="#DejaVuSans-2d" transform="translate(254.492188 0)"/>
       <use xlink:href="#DejaVuSans-30" transform="translate(290.576172 0)"/>
       <use xlink:href="#DejaVuSans-31" transform="translate(354.199219 0)"/>
      </g>
     </g>
    </g>
    <g id="xtick_9">
     <g id="line2d_17">
      <path d="M 765.028932 320.4 
L 765.028932 43.2 
" clip-path="url(#p3f04c3ea1d)" style="fill: none; stroke-dasharray: 5.12,1.28,0.8,1.28; stroke-dashoffset: 0; stroke: #b0b0b0; stroke-width: 0.8"/>
     </g>
     <g id="line2d_18">
      <g>
       <use xlink:href="#mda3390472b" x="765.028932" y="320.4" style="fill: #a9a9a9; stroke: #a9a9a9; stroke-width: 0.8"/>
      </g>
     </g>
     <g id="text_9">
      <!-- 2025-07 -->
      <g style="fill: #a9a9a9" transform="translate(744.137526 334.998438) scale(0.1 -0.1)">
       <use xlink:href="#DejaVuSans-32"/>
       <use xlink:href="#DejaVuSans-30" transform="translate(63.623047 0)"/>
       <use xlink:href="#DejaVuSans-32" transform="translate(127.246094 0)"/>
       <use xlink:href="#DejaVuSans-35" transform="translate(190.869141 0)"/>
       <use xlink:href="#DejaVuSans-2d" transform="translate(254.492188 0)"/>
       <use xlink:href="#DejaVuSans-30" transform="translate(290.576172 0)"/>
       <use xlink:href="#DejaVuSans-37" transform="translate(354.199219 0)"/>
      </g>
     </g>
    </g>
   </g>
   <g id="matplotlib.axis_2">
    <g id="ytick_1">
     <g id="line2d_19">
      <path d="M 108 307.832915 
L 777.6 307.832915 
" clip-path="url(#p3f04c3ea1d)" style="fill: none; stroke-dasharray: 5.12,1.28,0.8,1.28; stroke-dashoffset: 0; stroke: #b0b0b0; stroke-width: 0.8"/>
     </g>
     <g id="line2d_20">
      <defs>
       <path id="m2a3cd27844" d="M 0 0 
L -3.5 0 
" style="stroke: #a9a9a9; stroke-width: 0.8"/>
      </defs>
      <g>
       <use xlink:href="#m2a3cd27844" x="108" y="307.832915" style="fill: #a9a9a9; stroke: #a9a9a9; stroke-width: 0.8"/>
      </g>
     </g>
     <g id="text_10">
      <!-- 0 -->
      <g style="fill: #a9a9a9" transform="translate(94.6375 311.632134) scale(0.1 -0.1)">
       <use xlink:href="#DejaVuSans-30"/>
      </g>
     </g>
    </g>
    <g id="ytick_2">
     <g id="line2d_21">
      <path d="M 108 274.917555 
L 777.6 274.917555 
" clip-path="url(#p3f04c3ea1d)" style="fill: none; stroke-dasharray: 5.12,1.28,0.8,1.28; stroke-dashoffset: 0; stroke: #b0b0b0; stroke-width: 0.8"/>
     </g>
     <g id="line2d_22">
      <g>
       <use xlink:href="#m2a3cd27844" x="108" y="274.917555" style="fill: #a9a9a9; stroke: #a9a9a9; stroke-width: 0.8"/>
      </g>
     </g>
     <g id="text_11">
      <!-- 1000 -->
      <g style="fill: #a9a9a9" transform="translate(75.55 278.716774) scale(0.1 -0.1)">
       <use xlink:href="#DejaVuSans-31"/>
       <use xlink:href="#DejaVuSans-30" transform="translate(63.623047 0)"/>
       <use xlink:href="#DejaVuSans-30" transform="translate(127.246094 0)"/>
       <use xlink:href="#DejaVuSans-30" transform="translate(190.869141 0)"/>
      </g>
     </g>
    </g>
    <g id="ytick_3">
     <g id="line2d_23">
      <path d="M 108 242.002194 
L 777.6 242.002194 
" clip-path="url(#p3f04c3ea1d)" style="fill: none; stroke-dasharray: 5.12,1.28,0.8,1.28; stroke-dashoffset: 0; stroke: #b0b0b0; stroke-width: 0.8"/>
     </g>
     <g id="line2d_24">
      <g>
       <use xlink:href="#m2a3cd27844" x="108" y="242.002194" style="fill: #a9a9a9; stroke: #a9a9a9; stroke-width: 0.8"/>
      </g>
     </g>
     <g id="text_12">
      <!-- 2000 -->
      <g style="fill: #a9a9a9" transform="translate(75.55 245.801413) scale(0.1 -0.1)">
       <use xlink:href="#DejaVuSans-32"/>
       <use xlink:href="#DejaVuSans-30" transform="translate(63.623047 0)"/>
       <use xlink:href="#DejaVuSans-30" transform="translate(127.246094 0)"/>
       <use xlink:href="#DejaVuSans-30" transform="translate(190.869141 0)"/>
      </g>
     </g>
    </g>
    <g id="ytick_4">
     <g id="line2d_25">
      <path d="M 108 209.086834 
L 777.6 209.086834 
" clip-path="url(#p3f04c3ea1d)" style="fill: none; stroke-dasharray: 5.12,1.28,0.8,1.28; stroke-dashoffset: 0; stroke: #b0b0b0; stroke-width: 0.8"/>
     </g>
     <g id="line2d_26">
      <g>
       <use xlink:href="#m2a3cd27844" x="108" y="209.086834" style="fill: #a9a9a9; stroke: #a9a9a9; stroke-width: 0.8"/>
      </g>
     </g>
     <g id="text_13">
      <!-- 3000 -->
      <g style="fill: #a9a9a9" transform="translate(75.55 212.886053) scale(0.1 -0.1)">
       <use xlink:href="#DejaVuSans-33"/>
       <use xlink:href="#DejaVuSans-30" transform="translate(63.623047 0)"/>
       <use xlink:href="#DejaVuSans-30" transform="translate(127.246094 0)"/>
       <use xlink:href="#DejaVuSans-30" transform="translate(190.869141 0)"/>
      </g>
     </g>
    </g>
    <g id="ytick_5">
     <g id="line2d_27">
      <path d="M 108 176.171473 
L 777.6 176.171473 
" clip-path="url(#p3f04c3ea1d)" style="fill: none; stroke-dasharray: 5.12,1.28,0.8,1.28; stroke-dashoffset: 0; stroke: #b0b0b0; stroke-width: 0.8"/>
     </g>
     <g id="line2d_28">
      <g>
       <use xlink:href="#m2a3cd27844" x="108" y="176.171473" style="fill: #a9a9a9; stroke: #a9a9a9; stroke-width: 0.8"/>
      </g>
     </g>
     <g id="text_14">
      <!-- 4000 -->
      <g style="fill: #a9a9a9" transform="translate(75.55 179.970692) scale(0.1 -0.1)">
       <use xlink:href="#DejaVuSans-34"/>
       <use xlink:href="#DejaVuSans-30" transform="translate(63.623047 0)"/>
       <use xlink:href="#DejaVuSans-30" transform="translate(127.246094 0)"/>
       <use xlink:href="#DejaVuSans-30" transform="translate(190.869141 0)"/>
      </g>
     </g>
    </g>
    <g id="ytick_6">
     <g id="line2d_29">
      <path d="M 108 143.256113 
L 777.6 143.256113 
" clip-path="url(#p3f04c3ea1d)" style="fill: none; stroke-dasharray: 5.12,1.28,0.8,1.28; stroke-dashoffset: 0; stroke: #b0b0b0; stroke-width: 0.8"/>
     </g>
     <g id="line2d_30">
      <g>
       <use xlink:href="#m2a3cd27844" x="108" y="143.256113" style="fill: #a9a9a9; stroke: #a9a9a9; stroke-width: 0.8"/>
      </g>
     </g>
     <g id="text_15">
      <!-- 5000 -->
      <g style="fill: #a9a9a9" transform="translate(75.55 147.055332) scale(0.1 -0.1)">
       <use xlink:href="#DejaVuSans-35"/>
       <use xlink:href="#DejaVuSans-30" transform="translate(63.623047 0)"/>
       <use xlink:href="#DejaVuSans-30" transform="translate(127.246094 0)"/>
       <use xlink:href="#DejaVuSans-30" transform="translate(190.869141 0)"/>
      </g>
     </g>
    </g>
    <g id="ytick_7">
     <g id="line2d_31">
      <path d="M 108 110.340752 
L 777.6 110.340752 
" clip-path="url(#p3f04c3ea1d)" style="fill: none; stroke-dasharray: 5.12,1.28,0.8,1.28; stroke-dashoffset: 0; stroke: #b0b0b0; stroke-width: 0.8"/>
     </g>
     <g id="line2d_32">
      <g>
       <use xlink:href="#m2a3cd27844" x="108" y="110.340752" style="fill: #a9a9a9; stroke: #a9a9a9; stroke-width: 0.8"/>
      </g>
     </g>
     <g id="text_16">
      <!-- 6000 -->
      <g style="fill: #a9a9a9" transform="translate(75.55 114.139971) scale(0.1 -0.1)">
       <defs>
        <path id="DejaVuSans-36" d="M 2113 2584 
Q 1688 2584 1439 2293 
Q 1191 2003 1191 1497 
Q 1191 994 1439 701 
Q 1688 409 2113 409 
Q 2538 409 2786 701 
Q 3034 994 3034 1497 
Q 3034 2003 2786 2293 
Q 2538 2584 2113 2584 
z
M 3366 4563 
L 3366 3988 
Q 3128 4100 2886 4159 
Q 2644 4219 2406 4219 
Q 1781 4219 1451 3797 
Q 1122 3375 1075 2522 
Q 1259 2794 1537 2939 
Q 1816 3084 2150 3084 
Q 2853 3084 3261 2657 
Q 3669 2231 3669 1497 
Q 3669 778 3244 343 
Q 2819 -91 2113 -91 
Q 1303 -91 875 529 
Q 447 1150 447 2328 
Q 447 3434 972 4092 
Q 1497 4750 2381 4750 
Q 2619 4750 2861 4703 
Q 3103 4656 3366 4563 
z
" transform="scale(0.015625)"/>
       </defs>
       <use xlink:href="#DejaVuSans-36"/>
       <use xlink:href="#DejaVuSans-30" transform="translate(63.623047 0)"/>
       <use xlink:href="#DejaVuSans-30" transform="translate(127.246094 0)"/>
       <use xlink:href="#DejaVuSans-30" transform="translate(190.869141 0)"/>
      </g>
     </g>
    </g>
    <g id="ytick_8">
     <g id="line2d_33">
      <path d="M 108 77.425392 
L 777.6 77.425392 
" clip-path="url(#p3f04c3ea1d)" style="fill: none; stroke-dasharray: 5.12,1.28,0.8,1.28; stroke-dashoffset: 0; stroke: #b0b0b0; stroke-width: 0.8"/>
     </g>
     <g id="line2d_34">
      <g>
       <use xlink:href="#m2a3cd27844" x="108" y="77.425392" style="fill: #a9a9a9; stroke: #a9a9a9; stroke-width: 0.8"/>
      </g>
     </g>
     <g id="text_17">
      <!-- 7000 -->
      <g style="fill: #a9a9a9" transform="translate(75.55 81.224611) scale(0.1 -0.1)">
       <use xlink:href="#DejaVuSans-37"/>
       <use xlink:href="#DejaVuSans-30" transform="translate(63.623047 0)"/>
       <use xlink:href="#DejaVuSans-30" transform="translate(127.246094 0)"/>
       <use xlink:href="#DejaVuSans-30" transform="translate(190.869141 0)"/>
      </g>
     </g>
    </g>
    <g id="ytick_9">
     <g id="line2d_35">
      <path d="M 108 44.510031 
L 777.6 44.510031 
" clip-path="url(#p3f04c3ea1d)" style="fill: none; stroke-dasharray: 5.12,1.28,0.8,1.28; stroke-dashoffset: 0; stroke: #b0b0b0; stroke-width: 0.8"/>
     </g>
     <g id="line2d_36">
      <g>
       <use xlink:href="#m2a3cd27844" x="108" y="44.510031" style="fill: #a9a9a9; stroke: #a9a9a9; stroke-width: 0.8"/>
      </g>
     </g>
     <g id="text_18">
      <!-- 8000 -->
      <g style="fill: #a9a9a9" transform="translate(75.55 48.30925) scale(0.1 -0.1)">
       <defs>
        <path id="DejaVuSans-38" d="M 2034 2216 
Q 1584 2216 1326 1975 
Q 1069 1734 1069 1313 
Q 1069 891 1326 650 
Q 1584 409 2034 409 
Q 2484 409 2743 651 
Q 3003 894 3003 1313 
Q 3003 1734 2745 1975 
Q 2488 2216 2034 2216 
z
M 1403 2484 
Q 997 2584 770 2862 
Q 544 3141 544 3541 
Q 544 4100 942 4425 
Q 1341 4750 2034 4750 
Q 2731 4750 3128 4425 
Q 3525 4100 3525 3541 
Q 3525 3141 3298 2862 
Q 3072 2584 2669 2484 
Q 3125 2378 3379 2068 
Q 3634 1759 3634 1313 
Q 3634 634 3220 271 
Q 2806 -91 2034 -91 
Q 1263 -91 848 271 
Q 434 634 434 1313 
Q 434 1759 690 2068 
Q 947 2378 1403 2484 
z
M 1172 3481 
Q 1172 3119 1398 2916 
Q 1625 2713 2034 2713 
Q 2441 2713 2670 2916 
Q 2900 3119 2900 3481 
Q 2900 3844 2670 4047 
Q 2441 4250 2034 4250 
Q 1625 4250 1398 4047 
Q 1172 3844 1172 3481 
z
" transform="scale(0.015625)"/>
       </defs>
       <use xlink:href="#DejaVuSans-38"/>
       <use xlink:href="#DejaVuSans-30" transform="translate(63.623047 0)"/>
       <use xlink:href="#DejaVuSans-30" transform="translate(127.246094 0)"/>
       <use xlink:href="#DejaVuSans-30" transform="translate(190.869141 0)"/>
      </g>
     </g>
    </g>
   </g>
   <g id="line2d_37">
    <path d="M 138.436364 307.734169 
L 141.050797 307.503762 
L 141.486536 307.30627 
L 143.229492 307.075862 
L 144.972447 306.713793 
L 145.843925 306.582132 
L 148.02262 306.384639 
L 148.894098 306.022571 
L 149.329837 305.430094 
L 149.765576 305.133856 
L 150.201315 304.146395 
L 150.637053 304.080564 
L 151.072792 303.718495 
L 151.94427 303.25768 
L 153.687226 301.809404 
L 155.430182 300.92069 
L 156.737398 300.295298 
L 157.173137 299.57116 
L 158.044615 298.912853 
L 158.480354 298.715361 
L 162.837743 298.057053 
L 163.273482 297.859561 
L 166.323655 297.596238 
L 168.06661 297.168339 
L 171.552522 296.674608 
L 171.988261 296.444201 
L 172.423999 296.37837 
L 173.295477 296.082132 
L 176.34565 295.555486 
L 177.217128 295.292163 
L 181.138778 294.633856 
L 182.010256 294.436364 
L 182.881734 294.403448 
L 184.624689 293.975549 
L 185.060428 293.350157 
L 186.367645 292.823511 
L 187.674862 292.461442 
L 188.110601 292.231034 
L 188.982078 292.066458 
L 190.725034 291.539812 
L 191.596512 291.473981 
L 192.46799 291.243574 
L 194.210946 290.782759 
L 194.646684 290.749843 
L 195.518162 290.321944 
L 195.953901 290.256113 
L 196.38964 290.025705 
L 201.182768 289.202821 
L 202.925724 288.676176 
L 203.361463 288.379937 
L 205.540157 287.655799 
L 206.411635 287.030408 
L 207.718852 286.767085 
L 217.305108 283.903448 
L 217.740847 283.870533 
L 219.048064 283.475549 
L 219.483803 283.475549 
L 219.919542 283.278056 
L 220.79102 283.17931 
L 221.226759 283.014734 
L 222.969714 282.948903 
L 223.841192 282.784326 
L 224.71267 282.323511 
L 226.019887 281.829781 
L 226.891365 281.368966 
L 227.762842 280.90815 
L 228.63432 280.611912 
L 229.070059 280.480251 
L 229.941537 279.92069 
L 230.377276 279.426959 
L 231.248754 278.044514 
L 231.684493 277.912853 
L 232.120232 277.912853 
L 233.427448 277.122884 
L 233.863187 276.892476 
L 234.298926 276.79373 
L 234.734665 276.365831 
L 235.606143 276.003762 
L 236.477621 275.575862 
L 238.656315 272.712226 
L 241.270749 271.26395 
L 242.142227 270.539812 
L 242.577966 270.276489 
L 243.013705 269.651097 
L 243.449444 268.630721 
L 243.885183 267.939498 
L 244.320921 267.577429 
L 244.75666 267.379937 
L 248.242572 264.088401 
L 249.11405 263.265517 
L 251.728483 261.586834 
L 252.164222 261.422257 
L 253.907178 260.368966 
L 254.342917 260.171473 
L 256.521611 258.130721 
L 257.393089 257.768652 
L 258.264567 257.14326 
L 258.700306 256.879937 
L 259.136045 256.814107 
L 260.443262 256.057053 
L 260.879 255.563323 
L 263.057695 254.345455 
L 263.493434 254.180878 
L 264.800651 253.259248 
L 271.336735 250.889342 
L 272.208212 250.066458 
L 273.515429 249.40815 
L 274.386907 248.848589 
L 275.258385 248.585266 
L 275.694124 248.289028 
L 276.129863 248.157367 
L 277.437079 247.268652 
L 279.615774 246.774922 
L 280.922991 245.984953 
L 282.230208 245.688715 
L 282.665947 245.589969 
L 283.973163 244.569592 
L 285.716119 244.075862 
L 286.151858 243.713793 
L 288.766291 242.792163 
L 289.637769 242.627586 
L 290.509247 242.265517 
L 293.55942 241.11348 
L 294.430897 240.981818 
L 295.738114 240.521003 
L 297.916809 239.434796 
L 299.659764 238.447335 
L 303.145676 236.966144 
L 303.581415 236.900313 
L 304.452893 236.340752 
L 305.32437 236.110345 
L 306.631587 235.583699 
L 308.374543 235.353292 
L 309.246021 234.892476 
L 309.68176 234.497492 
L 310.117499 233.707524 
L 311.860454 233.213793 
L 313.167671 232.522571 
L 314.039149 232.226332 
L 314.910627 231.765517 
L 317.52506 230.67931 
L 318.396538 230.481818 
L 319.268016 230.021003 
L 319.703755 229.823511 
L 320.139494 229.75768 
L 322.318188 228.671473 
L 323.189666 228.111912 
L 324.496883 227.848589 
L 326.675578 227.289028 
L 327.111316 226.926959 
L 327.982794 226.630721 
L 330.161489 225.742006 
L 330.597228 225.412853 
L 331.032967 225.248276 
L 331.904445 224.754545 
L 333.6474 224.194984 
L 334.518878 223.635423 
L 334.954617 223.174608 
L 335.390356 222.911285 
L 335.826095 222.812539 
L 336.697573 222.088401 
L 337.133312 222.022571 
L 337.569051 221.298433 
L 338.004789 221.10094 
L 338.440528 220.738871 
L 338.876267 220.673041 
L 339.747745 220.11348 
L 340.619223 219.817241 
L 341.054962 219.488088 
L 341.490701 219.323511 
L 343.233657 218.138558 
L 344.540873 217.447335 
L 345.412351 217.216928 
L 346.283829 216.723197 
L 346.719568 215.966144 
L 347.591046 215.307837 
L 348.026785 215.209091 
L 350.641218 213.925392 
L 351.512696 213.563323 
L 352.384174 212.937931 
L 353.255652 212.049216 
L 357.177302 208.955172 
L 357.613041 208.593103 
L 358.484519 208.296865 
L 359.355997 207.704389 
L 360.663213 207.013166 
L 361.098952 206.947335 
L 362.406169 206.223197 
L 363.277647 205.663636 
L 367.635036 204.017868 
L 368.070775 203.655799 
L 369.813731 202.964577 
L 370.24947 202.832915 
L 371.120947 202.240439 
L 371.992425 201.87837 
L 372.863903 201.252978 
L 373.735381 199.475549 
L 374.606859 198.422257 
L 375.914076 197.731034 
L 376.785553 197.368966 
L 377.221292 197.303135 
L 377.657031 197.039812 
L 379.835726 196.315674 
L 380.271465 196.118182 
L 381.142943 195.525705 
L 382.450159 194.966144 
L 383.321637 194.472414 
L 384.193115 193.945768 
L 384.628854 193.64953 
L 385.064593 193.155799 
L 386.37181 192.398746 
L 386.807549 192.234169 
L 387.679026 191.707524 
L 389.421982 190.752978 
L 389.857721 190.654232 
L 390.29346 190.292163 
L 393.343632 189.271787 
L 393.779371 188.942633 
L 394.650849 188.67931 
L 395.522327 188.317241 
L 395.958066 187.955172 
L 397.701022 187.329781 
L 398.5725 186.704389 
L 399.443977 186.34232 
L 400.315455 185.651097 
L 401.186933 185.387774 
L 401.622672 184.99279 
L 402.058411 184.926959 
L 402.929889 184.235737 
L 403.801367 183.774922 
L 404.237105 183.577429 
L 404.672844 183.116614 
L 407.723017 181.865831 
L 408.594495 181.470846 
L 409.901711 181.042947 
L 410.773189 180.911285 
L 411.208928 180.713793 
L 411.644667 180.647962 
L 412.516145 180.252978 
L 412.951884 180.220063 
L 414.69484 179.561755 
L 416.002056 178.60721 
L 416.437795 178.442633 
L 417.309273 177.948903 
L 417.745012 177.817241 
L 420.359446 176.33605 
L 420.795184 176.237304 
L 422.102401 175.447335 
L 423.409618 174.98652 
L 424.281096 174.690282 
L 426.024052 174.097806 
L 426.895529 173.801567 
L 428.638485 173.439498 
L 429.074224 173.242006 
L 429.945702 173.011599 
L 430.381441 172.814107 
L 430.81718 172.748276 
L 431.252919 172.517868 
L 432.124396 172.353292 
L 433.431613 171.859561 
L 434.303091 171.760815 
L 435.610308 171.464577 
L 437.789002 171.069592 
L 449.118214 167.646395 
L 449.553953 167.18558 
L 452.168387 166.099373 
L 453.911342 165.506897 
L 454.347081 165.243574 
L 455.654298 164.848589 
L 456.525776 164.618182 
L 456.961515 164.321944 
L 457.397254 164.223197 
L 457.832993 163.828213 
L 459.14021 163.56489 
L 460.011687 163.136991 
L 460.447426 162.610345 
L 462.190382 162.182445 
L 465.240554 161.524138 
L 465.676293 161.524138 
L 466.112032 161.326646 
L 467.854988 160.997492 
L 468.290727 160.8 
L 470.033683 160.470846 
L 470.90516 160.108777 
L 471.776638 159.944201 
L 473.955333 159.384639 
L 475.698289 158.825078 
L 476.134027 158.726332 
L 476.569766 158.495925 
L 477.441244 158.265517 
L 478.312722 157.903448 
L 479.1842 157.574295 
L 479.619939 157.278056 
L 480.491417 157.014734 
L 483.541589 155.862696 
L 485.284545 155.632288 
L 488.770456 154.348589 
L 489.206195 154.019436 
L 489.641934 153.92069 
L 490.077673 153.690282 
L 490.513412 153.657367 
L 495.30654 151.912853 
L 497.485235 151.320376 
L 498.356712 150.892476 
L 499.663929 150.596238 
L 501.406885 149.147962 
L 503.149841 148.390909 
L 504.021318 147.995925 
L 506.635752 146.975549 
L 507.071491 146.67931 
L 509.250185 145.955172 
L 510.557402 145.198119 
L 510.993141 145.099373 
L 512.736097 144.111912 
L 514.479053 143.321944 
L 514.914791 142.99279 
L 515.786269 142.696552 
L 517.964964 141.577429 
L 519.272181 141.116614 
L 521.015136 140.392476 
L 522.322353 139.898746 
L 522.758092 139.734169 
L 523.62957 139.602508 
L 524.065309 139.30627 
L 525.808264 138.944201 
L 526.679742 138.582132 
L 528.422698 137.759248 
L 534.523043 135.060188 
L 535.83026 134.632288 
L 536.265999 134.33605 
L 537.137476 134.237304 
L 537.573215 133.941066 
L 538.444693 133.776489 
L 539.316171 133.348589 
L 539.75191 133.151097 
L 540.623388 132.92069 
L 541.494866 132.657367 
L 542.802082 132.163636 
L 544.109299 131.735737 
L 545.416516 131.439498 
L 547.159472 130.715361 
L 548.030949 130.22163 
L 549.773905 129.332915 
L 550.645383 129.135423 
L 551.081122 128.8721 
L 551.516861 128.773354 
L 552.824078 128.016301 
L 553.695555 127.654232 
L 563.281812 123.934796 
L 565.024767 123.111912 
L 569.382157 121.400313 
L 570.253634 120.972414 
L 570.689373 120.873668 
L 571.125112 120.64326 
L 572.868068 120.14953 
L 574.611024 118.701254 
L 575.046763 118.569592 
L 575.482501 118.30627 
L 576.789718 117.944201 
L 577.225457 117.615047 
L 577.661196 117.516301 
L 578.968413 116.726332 
L 579.404152 116.430094 
L 580.711369 115.936364 
L 581.147107 115.705956 
L 582.454324 115.409718 
L 584.633019 114.652665 
L 585.504497 114.356426 
L 586.811713 113.698119 
L 587.683191 113.270219 
L 588.554669 113.039812 
L 589.861886 112.41442 
L 593.783536 110.933229 
L 595.090753 110.110345 
L 595.526492 110.011599 
L 596.39797 109.583699 
L 597.269448 109.254545 
L 597.705186 108.859561 
L 598.576664 108.497492 
L 599.883881 108.036677 
L 600.31962 107.674608 
L 600.755359 107.641693 
L 601.626837 107.37837 
L 602.498315 107.082132 
L 602.934053 106.884639 
L 603.369792 106.818809 
L 604.677009 106.325078 
L 605.984226 105.831348 
L 607.727182 105.041379 
L 608.598659 104.810972 
L 609.034398 104.547649 
L 609.905876 104.317241 
L 611.213093 103.560188 
L 611.648832 103.527273 
L 612.956049 103.099373 
L 613.827527 103.033542 
L 614.263265 102.803135 
L 615.134743 102.572727 
L 615.570482 102.34232 
L 617.749177 101.91442 
L 618.620655 101.749843 
L 619.927871 101.256113 
L 621.235088 100.959875 
L 622.542305 100.268652 
L 622.978044 99.873668 
L 624.285261 99.083699 
L 624.721 98.754545 
L 626.028216 98.326646 
L 626.899694 98.063323 
L 627.335433 97.832915 
L 627.771172 97.734169 
L 628.206911 97.3721 
L 630.821344 96.252978 
L 632.5643 95.792163 
L 633.435778 95.397179 
L 633.871517 95.166771 
L 634.742995 94.903448 
L 635.178734 94.640125 
L 636.050211 94.475549 
L 639.536123 92.961442 
L 639.971862 92.895611 
L 641.279079 92.039812 
L 641.714817 91.973981 
L 643.457773 91.282759 
L 645.200729 90.854859 
L 645.636468 90.789028 
L 646.072207 90.591536 
L 646.507946 90.558621 
L 647.379423 90.262382 
L 647.815162 90.229467 
L 649.122379 89.702821 
L 650.865335 89.209091 
L 651.736813 88.550784 
L 653.479768 87.563323 
L 654.786985 87.102508 
L 658.272896 85.423824 
L 658.708635 85.193417 
L 659.144374 84.798433 
L 661.323069 84.205956 
L 662.630286 83.61348 
L 663.501764 83.383072 
L 663.937502 83.152665 
L 664.373241 82.790596 
L 666.116197 82.329781 
L 666.551936 82.000627 
L 672.216542 79.926959 
L 673.08802 79.762382 
L 675.266714 79.07116 
L 676.138192 78.709091 
L 677.00967 78.379937 
L 677.881148 78.14953 
L 678.316887 77.952038 
L 678.752626 77.952038 
L 679.624104 77.589969 
L 680.495581 77.063323 
L 683.545754 76.042947 
L 685.28871 75.45047 
L 686.595926 75.154232 
L 687.903143 74.726332 
L 688.338882 74.627586 
L 688.774621 74.331348 
L 689.646099 74.133856 
L 691.389054 73.640125 
L 691.824793 73.60721 
L 692.696271 73.212226 
L 695.746444 72.455172 
L 696.617922 72.093103 
L 700.975311 71.105643 
L 702.282527 70.41442 
L 703.589744 70.019436 
L 707.947133 68.406583 
L 708.382872 68.077429 
L 709.690089 67.781191 
L 710.561567 67.517868 
L 711.433045 67.089969 
L 711.868784 66.7279 
L 712.740262 66.464577 
L 713.176001 66.201254 
L 714.047478 66.102508 
L 717.097651 65.246708 
L 718.404868 64.983386 
L 721.019301 64.127586 
L 722.762257 63.304702 
L 727.555385 61.527273 
L 728.426863 61.395611 
L 729.298341 61.231034 
L 729.73408 61.231034 
L 731.477035 60.671473 
L 731.912774 60.605643 
L 732.784252 60.243574 
L 733.65573 60.013166 
L 736.270163 59.289028 
L 737.141641 59.058621 
L 737.57738 58.959875 
L 738.013119 58.696552 
L 738.884597 58.531975 
L 739.756075 58.433229 
L 740.191814 58.202821 
L 740.627553 58.169906 
L 741.49903 57.610345 
L 743.241986 57.215361 
L 744.113464 56.820376 
L 744.984942 56.524138 
L 745.85642 56.29373 
L 746.727897 55.898746 
L 747.163636 55.8 
L 747.163636 55.8 
" clip-path="url(#p3f04c3ea1d)" style="fill: none; stroke: #1f77b4; stroke-width: 1.5; stroke-linecap: square"/>
   </g>
   <g id="line2d_38">
    <path d="M 138.872103 307.8 
L 142.793753 307.701254 
L 146.279664 307.536677 
L 148.02262 307.536677 
L 148.458359 307.405016 
L 150.637053 307.30627 
L 153.251487 307.010031 
L 155.86592 306.911285 
L 156.737398 306.812539 
L 159.787571 306.680878 
L 162.837743 306.582132 
L 165.016438 306.516301 
L 170.681044 306.417555 
L 172.859738 306.351724 
L 176.781389 306.252978 
L 178.524344 306.220063 
L 182.881734 306.121317 
L 184.624689 305.95674 
L 186.367645 305.923824 
L 188.982078 305.825078 
L 190.725034 305.792163 
L 192.903729 305.726332 
L 194.646684 305.561755 
L 198.568335 305.463009 
L 199.439813 305.397179 
L 201.182768 305.298433 
L 203.797202 305.199687 
L 205.540157 305.10094 
L 213.383458 304.60721 
L 216.433631 304.508464 
L 217.740847 304.376803 
L 219.919542 304.278056 
L 224.276931 304.047649 
L 228.63432 303.981818 
L 230.377276 303.784326 
L 232.120232 303.68558 
L 236.91336 303.224765 
L 239.963532 302.862696 
L 241.270749 302.796865 
L 244.75666 302.33605 
L 247.371094 302.270219 
L 248.678311 302.138558 
L 249.985527 302.039812 
L 262.186217 301.085266 
L 263.057695 300.92069 
L 265.672129 300.821944 
L 272.643951 300.394044 
L 275.694124 300.295298 
L 277.437079 300.097806 
L 279.615774 299.99906 
L 282.230208 299.900313 
L 284.408902 299.801567 
L 286.151858 299.768652 
L 288.330552 299.702821 
L 289.20203 299.57116 
L 295.302375 299.472414 
L 296.173853 299.373668 
L 301.40272 299.274922 
L 305.32437 299.077429 
L 308.374543 298.978683 
L 310.117499 298.781191 
L 313.167671 298.682445 
L 314.039149 298.517868 
L 316.217843 298.452038 
L 320.575233 298.386207 
L 322.318188 298.22163 
L 324.061144 298.188715 
L 325.368361 298.089969 
L 327.111316 297.925392 
L 331.468706 297.694984 
L 335.826095 297.596238 
L 339.747745 297.398746 
L 341.054962 297.365831 
L 341.92644 297.234169 
L 344.105134 297.135423 
L 344.976612 297.069592 
L 345.84809 297.003762 
L 346.719568 296.937931 
L 350.641218 296.8721 
L 351.948435 296.773354 
L 363.713386 295.983386 
L 365.89208 295.884639 
L 368.070775 295.818809 
L 374.17112 295.720063 
L 375.042598 295.588401 
L 381.142943 295.489655 
L 385.500332 295.259248 
L 386.37181 295.226332 
L 387.243288 295.127586 
L 389.421982 295.02884 
L 391.600677 294.963009 
L 393.779371 294.864263 
L 395.958066 294.798433 
L 399.879716 294.699687 
L 402.49415 294.60094 
L 408.594495 294.502194 
L 413.387623 294.238871 
L 415.130579 294.173041 
L 416.437795 294.074295 
L 422.53814 293.975549 
L 425.152574 293.876803 
L 432.995874 293.778056 
L 434.73883 293.745141 
L 439.967697 293.67931 
L 440.839175 293.61348 
L 446.93952 293.514734 
L 448.682475 293.481818 
L 460.011687 293.383072 
L 462.626121 293.284326 
L 480.927156 293.18558 
L 483.10585 293.119749 
L 494.435062 293.053918 
L 495.30654 292.988088 
L 497.485235 292.922257 
L 498.792451 292.790596 
L 501.406885 292.69185 
L 504.457057 292.560188 
L 508.378708 292.461442 
L 510.557402 292.395611 
L 513.607575 292.296865 
L 517.093486 292.132288 
L 519.272181 292.033542 
L 521.015136 292.000627 
L 524.936787 291.901881 
L 526.679742 291.868966 
L 532.344348 291.770219 
L 534.087304 291.737304 
L 536.265999 291.638558 
L 538.880432 291.539812 
L 541.930605 291.473981 
L 542.802082 291.40815 
L 553.259816 291.309404 
L 558.924422 290.980251 
L 561.103117 290.91442 
L 561.974595 290.815674 
L 562.846073 290.749843 
L 566.331984 290.651097 
L 568.946418 290.552351 
L 573.303807 290.453605 
L 575.482501 290.223197 
L 579.839891 290.124451 
L 580.711369 290.025705 
L 585.068758 289.926959 
L 587.247452 289.861129 
L 592.04058 289.828213 
L 592.912058 289.729467 
L 597.705186 289.630721 
L 598.576664 289.56489 
L 608.162921 289.466144 
L 610.777354 289.367398 
L 617.313438 289.268652 
L 619.056394 289.235737 
L 622.978044 289.169906 
L 623.849522 289.07116 
L 629.514128 288.972414 
L 631.692822 288.906583 
L 639.536123 288.807837 
L 640.84334 288.709091 
L 642.150556 288.610345 
L 643.457773 288.511599 
L 649.993857 288.412853 
L 652.60829 288.314107 
L 664.373241 288.215361 
L 668.294892 288.017868 
L 673.523759 287.919122 
L 674.395237 287.853292 
L 680.93132 287.787461 
L 681.802798 287.72163 
L 686.595926 287.622884 
L 688.338882 287.589969 
L 694.439227 287.491223 
L 697.05366 287.392476 
L 704.461222 287.29373 
L 706.204178 287.260815 
L 710.125828 287.162069 
L 713.611739 286.997492 
L 718.404868 286.898746 
L 721.45504 286.767085 
L 725.37669 286.668339 
L 726.248168 286.602508 
L 734.962947 286.503762 
L 737.141641 286.437931 
L 739.756075 286.339185 
L 742.370508 286.240439 
L 747.163636 286.174608 
L 747.163636 286.174608 
" clip-path="url(#p3f04c3ea1d)" style="fill: none; stroke: #ff7f0e; stroke-width: 1.5; stroke-linecap: square"/>
   </g>
   <g id="patch_3">
    <path d="M 108 320.4 
L 108 43.2 
" style="fill: none; stroke: #a9a9a9; stroke-width: 0.8; stroke-linejoin: miter; stroke-linecap: square"/>
   </g>
   <g id="patch_4">
    <path d="M 777.6 320.4 
L 777.6 43.2 
" style="fill: none"/>
   </g>
   <g id="patch_5">
    <path d="M 108 320.4 
L 777.6 320.4 
" style="fill: none; stroke: #a9a9a9; stroke-width: 0.8; stroke-linejoin: miter; stroke-linecap: square"/>
   </g>
   <g id="patch_6">
    <path d="M 108 43.2 
L 777.6 43.2 
" style="fill: none"/>
   </g>
   <g id="text_19">
    <!-- get_subscribe history -->
    <g style="fill: #a9a9a9" transform="translate(378.6075 37.2) scale(0.12 -0.12)">
     <defs>
      <path id="DejaVuSans-67" d="M 2906 1791 
Q 2906 2416 2648 2759 
Q 2391 3103 1925 3103 
Q 1463 3103 1205 2759 
Q 947 2416 947 1791 
Q 947 1169 1205 825 
Q 1463 481 1925 481 
Q 2391 481 2648 825 
Q 2906 1169 2906 1791 
z
M 3481 434 
Q 3481 -459 3084 -895 
Q 2688 -1331 1869 -1331 
Q 1566 -1331 1297 -1286 
Q 1028 -1241 775 -1147 
L 775 -588 
Q 1028 -725 1275 -790 
Q 1522 -856 1778 -856 
Q 2344 -856 2625 -561 
Q 2906 -266 2906 331 
L 2906 616 
Q 2728 306 2450 153 
Q 2172 0 1784 0 
Q 1141 0 747 490 
Q 353 981 353 1791 
Q 353 2603 747 3093 
Q 1141 3584 1784 3584 
Q 2172 3584 2450 3431 
Q 2728 3278 2906 2969 
L 2906 3500 
L 3481 3500 
L 3481 434 
z
" transform="scale(0.015625)"/>
      <path id="DejaVuSans-65" d="M 3597 1894 
L 3597 1613 
L 953 1613 
Q 991 1019 1311 708 
Q 1631 397 2203 397 
Q 2534 397 2845 478 
Q 3156 559 3463 722 
L 3463 178 
Q 3153 47 2828 -22 
Q 2503 -91 2169 -91 
Q 1331 -91 842 396 
Q 353 884 353 1716 
Q 353 2575 817 3079 
Q 1281 3584 2069 3584 
Q 2775 3584 3186 3129 
Q 3597 2675 3597 1894 
z
M 3022 2063 
Q 3016 2534 2758 2815 
Q 2500 3097 2075 3097 
Q 1594 3097 1305 2825 
Q 1016 2553 972 2059 
L 3022 2063 
z
" transform="scale(0.015625)"/>
      <path id="DejaVuSans-74" d="M 1172 4494 
L 1172 3500 
L 2356 3500 
L 2356 3053 
L 1172 3053 
L 1172 1153 
Q 1172 725 1289 603 
Q 1406 481 1766 481 
L 2356 481 
L 2356 0 
L 1766 0 
Q 1100 0 847 248 
Q 594 497 594 1153 
L 594 3053 
L 172 3053 
L 172 3500 
L 594 3500 
L 594 4494 
L 1172 4494 
z
" transform="scale(0.015625)"/>
      <path id="DejaVuSans-5f" d="M 3263 -1063 
L 3263 -1509 
L -63 -1509 
L -63 -1063 
L 3263 -1063 
z
" transform="scale(0.015625)"/>
      <path id="DejaVuSans-73" d="M 2834 3397 
L 2834 2853 
Q 2591 2978 2328 3040 
Q 2066 3103 1784 3103 
Q 1356 3103 1142 2972 
Q 928 2841 928 2578 
Q 928 2378 1081 2264 
Q 1234 2150 1697 2047 
L 1894 2003 
Q 2506 1872 2764 1633 
Q 3022 1394 3022 966 
Q 3022 478 2636 193 
Q 2250 -91 1575 -91 
Q 1294 -91 989 -36 
Q 684 19 347 128 
L 347 722 
Q 666 556 975 473 
Q 1284 391 1588 391 
Q 1994 391 2212 530 
Q 2431 669 2431 922 
Q 2431 1156 2273 1281 
Q 2116 1406 1581 1522 
L 1381 1569 
Q 847 1681 609 1914 
Q 372 2147 372 2553 
Q 372 3047 722 3315 
Q 1072 3584 1716 3584 
Q 2034 3584 2315 3537 
Q 2597 3491 2834 3397 
z
" transform="scale(0.015625)"/>
      <path id="DejaVuSans-75" d="M 544 1381 
L 544 3500 
L 1119 3500 
L 1119 1403 
Q 1119 906 1312 657 
Q 1506 409 1894 409 
Q 2359 409 2629 706 
Q 2900 1003 2900 1516 
L 2900 3500 
L 3475 3500 
L 3475 0 
L 2900 0 
L 2900 538 
Q 2691 219 2414 64 
Q 2138 -91 1772 -91 
Q 1169 -91 856 284 
Q 544 659 544 1381 
z
M 1991 3584 
L 1991 3584 
z
" transform="scale(0.015625)"/>
      <path id="DejaVuSans-62" d="M 3116 1747 
Q 3116 2381 2855 2742 
Q 2594 3103 2138 3103 
Q 1681 3103 1420 2742 
Q 1159 2381 1159 1747 
Q 1159 1113 1420 752 
Q 1681 391 2138 391 
Q 2594 391 2855 752 
Q 3116 1113 3116 1747 
z
M 1159 2969 
Q 1341 3281 1617 3432 
Q 1894 3584 2278 3584 
Q 2916 3584 3314 3078 
Q 3713 2572 3713 1747 
Q 3713 922 3314 415 
Q 2916 -91 2278 -91 
Q 1894 -91 1617 61 
Q 1341 213 1159 525 
L 1159 0 
L 581 0 
L 581 4863 
L 1159 4863 
L 1159 2969 
z
" transform="scale(0.015625)"/>
      <path id="DejaVuSans-63" d="M 3122 3366 
L 3122 2828 
Q 2878 2963 2633 3030 
Q 2388 3097 2138 3097 
Q 1578 3097 1268 2742 
Q 959 2388 959 1747 
Q 959 1106 1268 751 
Q 1578 397 2138 397 
Q 2388 397 2633 464 
Q 2878 531 3122 666 
L 3122 134 
Q 2881 22 2623 -34 
Q 2366 -91 2075 -91 
Q 1284 -91 818 406 
Q 353 903 353 1747 
Q 353 2603 823 3093 
Q 1294 3584 2113 3584 
Q 2378 3584 2631 3529 
Q 2884 3475 3122 3366 
z
" transform="scale(0.015625)"/>
      <path id="DejaVuSans-72" d="M 2631 2963 
Q 2534 3019 2420 3045 
Q 2306 3072 2169 3072 
Q 1681 3072 1420 2755 
Q 1159 2438 1159 1844 
L 1159 0 
L 581 0 
L 581 3500 
L 1159 3500 
L 1159 2956 
Q 1341 3275 1631 3429 
Q 1922 3584 2338 3584 
Q 2397 3584 2469 3576 
Q 2541 3569 2628 3553 
L 2631 2963 
z
" transform="scale(0.015625)"/>
      <path id="DejaVuSans-69" d="M 603 3500 
L 1178 3500 
L 1178 0 
L 603 0 
L 603 3500 
z
M 603 4863 
L 1178 4863 
L 1178 4134 
L 603 4134 
L 603 4863 
z
" transform="scale(0.015625)"/>
      <path id="DejaVuSans-20" transform="scale(0.015625)"/>
      <path id="DejaVuSans-68" d="M 3513 2113 
L 3513 0 
L 2938 0 
L 2938 2094 
Q 2938 2591 2744 2837 
Q 2550 3084 2163 3084 
Q 1697 3084 1428 2787 
Q 1159 2491 1159 1978 
L 1159 0 
L 581 0 
L 581 4863 
L 1159 4863 
L 1159 2956 
Q 1366 3272 1645 3428 
Q 1925 3584 2291 3584 
Q 2894 3584 3203 3211 
Q 3513 2838 3513 2113 
z
" transform="scale(0.015625)"/>
      <path id="DejaVuSans-6f" d="M 1959 3097 
Q 1497 3097 1228 2736 
Q 959 2375 959 1747 
Q 959 1119 1226 758 
Q 1494 397 1959 397 
Q 2419 397 2687 759 
Q 2956 1122 2956 1747 
Q 2956 2369 2687 2733 
Q 2419 3097 1959 3097 
z
M 1959 3584 
Q 2709 3584 3137 3096 
Q 3566 2609 3566 1747 
Q 3566 888 3137 398 
Q 2709 -91 1959 -91 
Q 1206 -91 779 398 
Q 353 888 353 1747 
Q 353 2609 779 3096 
Q 1206 3584 1959 3584 
z
" transform="scale(0.015625)"/>
      <path id="DejaVuSans-79" d="M 2059 -325 
Q 1816 -950 1584 -1140 
Q 1353 -1331 966 -1331 
L 506 -1331 
L 506 -850 
L 844 -850 
Q 1081 -850 1212 -737 
Q 1344 -625 1503 -206 
L 1606 56 
L 191 3500 
L 800 3500 
L 1894 763 
L 2988 3500 
L 3597 3500 
L 2059 -325 
z
" transform="scale(0.015625)"/>
     </defs>
     <use xlink:href="#DejaVuSans-67"/>
     <use xlink:href="#DejaVuSans-65" transform="translate(63.476562 0)"/>
     <use xlink:href="#DejaVuSans-74" transform="translate(125 0)"/>
     <use xlink:href="#DejaVuSans-5f" transform="translate(164.208984 0)"/>
     <use xlink:href="#DejaVuSans-73" transform="translate(214.208984 0)"/>
     <use xlink:href="#DejaVuSans-75" transform="translate(266.308594 0)"/>
     <use xlink:href="#DejaVuSans-62" transform="translate(329.6875 0)"/>
     <use xlink:href="#DejaVuSans-73" transform="translate(393.164062 0)"/>
     <use xlink:href="#DejaVuSans-63" transform="translate(445.263672 0)"/>
     <use xlink:href="#DejaVuSans-72" transform="translate(500.244141 0)"/>
     <use xlink:href="#DejaVuSans-69" transform="translate(541.357422 0)"/>
     <use xlink:href="#DejaVuSans-62" transform="translate(569.140625 0)"/>
     <use xlink:href="#DejaVuSans-65" transform="translate(632.617188 0)"/>
     <use xlink:href="#DejaVuSans-20" transform="translate(694.140625 0)"/>
     <use xlink:href="#DejaVuSans-68" transform="translate(725.927734 0)"/>
     <use xlink:href="#DejaVuSans-69" transform="translate(789.306641 0)"/>
     <use xlink:href="#DejaVuSans-73" transform="translate(817.089844 0)"/>
     <use xlink:href="#DejaVuSans-74" transform="translate(869.189453 0)"/>
     <use xlink:href="#DejaVuSans-6f" transform="translate(908.398438 0)"/>
     <use xlink:href="#DejaVuSans-72" transform="translate(969.580078 0)"/>
     <use xlink:href="#DejaVuSans-79" transform="translate(1010.693359 0)"/>
    </g>
   </g>
   <g id="legend_1">
    <g id="line2d_39">
     <path d="M 815.08 328.498438 
L 825.08 328.498438 
L 835.08 328.498438 
" style="fill: none; stroke: #1f77b4; stroke-width: 1.5; stroke-linecap: square"/>
    </g>
    <g id="text_20">
     <!-- star -->
     <g style="fill: #a9a9a9" transform="translate(843.08 331.998438) scale(0.1 -0.1)">
      <defs>
       <path id="DejaVuSans-61" d="M 2194 1759 
Q 1497 1759 1228 1600 
Q 959 1441 959 1056 
Q 959 750 1161 570 
Q 1363 391 1709 391 
Q 2188 391 2477 730 
Q 2766 1069 2766 1631 
L 2766 1759 
L 2194 1759 
z
M 3341 1997 
L 3341 0 
L 2766 0 
L 2766 531 
Q 2569 213 2275 61 
Q 1981 -91 1556 -91 
Q 1019 -91 701 211 
Q 384 513 384 1019 
Q 384 1609 779 1909 
Q 1175 2209 1959 2209 
L 2766 2209 
L 2766 2266 
Q 2766 2663 2505 2880 
Q 2244 3097 1772 3097 
Q 1472 3097 1187 3025 
Q 903 2953 641 2809 
L 641 3341 
Q 956 3463 1253 3523 
Q 1550 3584 1831 3584 
Q 2591 3584 2966 3190 
Q 3341 2797 3341 1997 
z
" transform="scale(0.015625)"/>
      </defs>
      <use xlink:href="#DejaVuSans-73"/>
      <use xlink:href="#DejaVuSans-74" transform="translate(52.099609 0)"/>
      <use xlink:href="#DejaVuSans-61" transform="translate(91.308594 0)"/>
      <use xlink:href="#DejaVuSans-72" transform="translate(152.587891 0)"/>
     </g>
    </g>
    <g id="line2d_40">
     <path d="M 815.08 343.176562 
L 825.08 343.176562 
L 835.08 343.176562 
" style="fill: none; stroke: #ff7f0e; stroke-width: 1.5; stroke-linecap: square"/>
    </g>
    <g id="text_21">
     <!-- fork -->
     <g style="fill: #a9a9a9" transform="translate(843.08 346.676562) scale(0.1 -0.1)">
      <defs>
       <path id="DejaVuSans-66" d="M 2375 4863 
L 2375 4384 
L 1825 4384 
Q 1516 4384 1395 4259 
Q 1275 4134 1275 3809 
L 1275 3500 
L 2222 3500 
L 2222 3053 
L 1275 3053 
L 1275 0 
L 697 0 
L 697 3053 
L 147 3053 
L 147 3500 
L 697 3500 
L 697 3744 
Q 697 4328 969 4595 
Q 1241 4863 1831 4863 
L 2375 4863 
z
" transform="scale(0.015625)"/>
       <path id="DejaVuSans-6b" d="M 581 4863 
L 1159 4863 
L 1159 1991 
L 2875 3500 
L 3609 3500 
L 1753 1863 
L 3688 0 
L 2938 0 
L 1159 1709 
L 1159 0 
L 581 0 
L 581 4863 
z
" transform="scale(0.015625)"/>
      </defs>
      <use xlink:href="#DejaVuSans-66"/>
      <use xlink:href="#DejaVuSans-6f" transform="translate(35.205078 0)"/>
      <use xlink:href="#DejaVuSans-72" transform="translate(96.386719 0)"/>
      <use xlink:href="#DejaVuSans-6b" transform="translate(137.5 0)"/>
     </g>
    </g>
   </g>
  </g>
 </g>
 <defs>
  <clipPath id="p3f04c3ea1d">
   <rect x="108" y="43.2" width="669.6" height="277.2"/>
  </clipPath>
 </defs>
</svg>
