<?xml version="1.0" encoding="utf-8" standalone="no"?>
<!DOCTYPE svg PUBLIC "-//W3C//DTD SVG 1.1//EN"
  "http://www.w3.org/Graphics/SVG/1.1/DTD/svg11.dtd">
<svg xmlns:xlink="http://www.w3.org/1999/xlink" width="864pt" height="360pt" viewBox="0 0 864 360" xmlns="http://www.w3.org/2000/svg" version="1.1">
 <metadata>
  <rdf:RDF xmlns:dc="http://purl.org/dc/elements/1.1/" xmlns:cc="http://creativecommons.org/ns#" xmlns:rdf="http://www.w3.org/1999/02/22-rdf-syntax-ns#">
   <cc:Work>
    <dc:type rdf:resource="http://purl.org/dc/dcmitype/StillImage"/>
    <dc:date>2024-09-30T20:05:57.095061</dc:date>
    <dc:format>image/svg+xml</dc:format>
    <dc:creator>
     <cc:Agent>
      <dc:title>Matplotlib v3.9.2, https://matplotlib.org/</dc:title>
     </cc:Agent>
    </dc:creator>
   </cc:Work>
  </rdf:RDF>
 </metadata>
 <defs>
  <style type="text/css">*{stroke-linejoin: round; stroke-linecap: butt}</style>
 </defs>
 <g id="figure_1">
  <g id="patch_1">
   <path d="M 0 360 
L 864 360 
L 864 0 
L 0 0 
L 0 360 
z
" style="fill: none; opacity: 0"/>
  </g>
  <g id="axes_1">
   <g id="patch_2">
    <path d="M 108 320.4 
L 777.6 320.4 
L 777.6 43.2 
L 108 43.2 
L 108 320.4 
z
" style="fill: none; opacity: 0"/>
   </g>
   <g id="matplotlib.axis_1">
    <g id="xtick_1">
     <g id="line2d_1">
      <path d="M 158.831865 320.4 
L 158.831865 43.2 
" clip-path="url(#p93a8512af9)" style="fill: none; stroke-dasharray: 5.12,1.28,0.8,1.28; stroke-dashoffset: 0; stroke: #b0b0b0; stroke-width: 0.8"/>
     </g>
     <g id="line2d_2">
      <defs>
       <path id="m93a2a956a2" d="M 0 0 
L 0 3.5 
" style="stroke: #a9a9a9; stroke-width: 0.8"/>
      </defs>
      <g>
       <use xlink:href="#m93a2a956a2" x="158.831865" y="320.4" style="fill: #a9a9a9; stroke: #a9a9a9; stroke-width: 0.8"/>
      </g>
     </g>
     <g id="text_1">
      <!-- 2021-09 -->
      <g style="fill: #a9a9a9" transform="translate(137.940459 334.998438) scale(0.1 -0.1)">
       <defs>
        <path id="DejaVuSans-32" d="M 1228 531 
L 3431 531 
L 3431 0 
L 469 0 
L 469 531 
Q 828 903 1448 1529 
Q 2069 2156 2228 2338 
Q 2531 2678 2651 2914 
Q 2772 3150 2772 3378 
Q 2772 3750 2511 3984 
Q 2250 4219 1831 4219 
Q 1534 4219 1204 4116 
Q 875 4013 500 3803 
L 500 4441 
Q 881 4594 1212 4672 
Q 1544 4750 1819 4750 
Q 2544 4750 2975 4387 
Q 3406 4025 3406 3419 
Q 3406 3131 3298 2873 
Q 3191 2616 2906 2266 
Q 2828 2175 2409 1742 
Q 1991 1309 1228 531 
z
" transform="scale(0.015625)"/>
        <path id="DejaVuSans-30" d="M 2034 4250 
Q 1547 4250 1301 3770 
Q 1056 3291 1056 2328 
Q 1056 1369 1301 889 
Q 1547 409 2034 409 
Q 2525 409 2770 889 
Q 3016 1369 3016 2328 
Q 3016 3291 2770 3770 
Q 2525 4250 2034 4250 
z
M 2034 4750 
Q 2819 4750 3233 4129 
Q 3647 3509 3647 2328 
Q 3647 1150 3233 529 
Q 2819 -91 2034 -91 
Q 1250 -91 836 529 
Q 422 1150 422 2328 
Q 422 3509 836 4129 
Q 1250 4750 2034 4750 
z
" transform="scale(0.015625)"/>
        <path id="DejaVuSans-31" d="M 794 531 
L 1825 531 
L 1825 4091 
L 703 3866 
L 703 4441 
L 1819 4666 
L 2450 4666 
L 2450 531 
L 3481 531 
L 3481 0 
L 794 0 
L 794 531 
z
" transform="scale(0.015625)"/>
        <path id="DejaVuSans-2d" d="M 313 2009 
L 1997 2009 
L 1997 1497 
L 313 1497 
L 313 2009 
z
" transform="scale(0.015625)"/>
        <path id="DejaVuSans-39" d="M 703 97 
L 703 672 
Q 941 559 1184 500 
Q 1428 441 1663 441 
Q 2288 441 2617 861 
Q 2947 1281 2994 2138 
Q 2813 1869 2534 1725 
Q 2256 1581 1919 1581 
Q 1219 1581 811 2004 
Q 403 2428 403 3163 
Q 403 3881 828 4315 
Q 1253 4750 1959 4750 
Q 2769 4750 3195 4129 
Q 3622 3509 3622 2328 
Q 3622 1225 3098 567 
Q 2575 -91 1691 -91 
Q 1453 -91 1209 -44 
Q 966 3 703 97 
z
M 1959 2075 
Q 2384 2075 2632 2365 
Q 2881 2656 2881 3163 
Q 2881 3666 2632 3958 
Q 2384 4250 1959 4250 
Q 1534 4250 1286 3958 
Q 1038 3666 1038 3163 
Q 1038 2656 1286 2365 
Q 1534 2075 1959 2075 
z
" transform="scale(0.015625)"/>
       </defs>
       <use xlink:href="#DejaVuSans-32"/>
       <use xlink:href="#DejaVuSans-30" x="63.623047"/>
       <use xlink:href="#DejaVuSans-32" x="127.246094"/>
       <use xlink:href="#DejaVuSans-31" x="190.869141"/>
       <use xlink:href="#DejaVuSans-2d" x="254.492188"/>
       <use xlink:href="#DejaVuSans-30" x="290.576172"/>
       <use xlink:href="#DejaVuSans-39" x="354.199219"/>
      </g>
     </g>
    </g>
    <g id="xtick_2">
     <g id="line2d_3">
      <path d="M 222.633177 320.4 
L 222.633177 43.2 
" clip-path="url(#p93a8512af9)" style="fill: none; stroke-dasharray: 5.12,1.28,0.8,1.28; stroke-dashoffset: 0; stroke: #b0b0b0; stroke-width: 0.8"/>
     </g>
     <g id="line2d_4">
      <g>
       <use xlink:href="#m93a2a956a2" x="222.633177" y="320.4" style="fill: #a9a9a9; stroke: #a9a9a9; stroke-width: 0.8"/>
      </g>
     </g>
     <g id="text_2">
      <!-- 2022-01 -->
      <g style="fill: #a9a9a9" transform="translate(201.741771 334.998438) scale(0.1 -0.1)">
       <use xlink:href="#DejaVuSans-32"/>
       <use xlink:href="#DejaVuSans-30" x="63.623047"/>
       <use xlink:href="#DejaVuSans-32" x="127.246094"/>
       <use xlink:href="#DejaVuSans-32" x="190.869141"/>
       <use xlink:href="#DejaVuSans-2d" x="254.492188"/>
       <use xlink:href="#DejaVuSans-30" x="290.576172"/>
       <use xlink:href="#DejaVuSans-31" x="354.199219"/>
      </g>
     </g>
    </g>
    <g id="xtick_3">
     <g id="line2d_5">
      <path d="M 285.388566 320.4 
L 285.388566 43.2 
" clip-path="url(#p93a8512af9)" style="fill: none; stroke-dasharray: 5.12,1.28,0.8,1.28; stroke-dashoffset: 0; stroke: #b0b0b0; stroke-width: 0.8"/>
     </g>
     <g id="line2d_6">
      <g>
       <use xlink:href="#m93a2a956a2" x="285.388566" y="320.4" style="fill: #a9a9a9; stroke: #a9a9a9; stroke-width: 0.8"/>
      </g>
     </g>
     <g id="text_3">
      <!-- 2022-05 -->
      <g style="fill: #a9a9a9" transform="translate(264.49716 334.998438) scale(0.1 -0.1)">
       <defs>
        <path id="DejaVuSans-35" d="M 691 4666 
L 3169 4666 
L 3169 4134 
L 1269 4134 
L 1269 2991 
Q 1406 3038 1543 3061 
Q 1681 3084 1819 3084 
Q 2600 3084 3056 2656 
Q 3513 2228 3513 1497 
Q 3513 744 3044 326 
Q 2575 -91 1722 -91 
Q 1428 -91 1123 -41 
Q 819 9 494 109 
L 494 744 
Q 775 591 1075 516 
Q 1375 441 1709 441 
Q 2250 441 2565 725 
Q 2881 1009 2881 1497 
Q 2881 1984 2565 2268 
Q 2250 2553 1709 2553 
Q 1456 2553 1204 2497 
Q 953 2441 691 2322 
L 691 4666 
z
" transform="scale(0.015625)"/>
       </defs>
       <use xlink:href="#DejaVuSans-32"/>
       <use xlink:href="#DejaVuSans-30" x="63.623047"/>
       <use xlink:href="#DejaVuSans-32" x="127.246094"/>
       <use xlink:href="#DejaVuSans-32" x="190.869141"/>
       <use xlink:href="#DejaVuSans-2d" x="254.492188"/>
       <use xlink:href="#DejaVuSans-30" x="290.576172"/>
       <use xlink:href="#DejaVuSans-35" x="354.199219"/>
      </g>
     </g>
    </g>
    <g id="xtick_4">
     <g id="line2d_7">
      <path d="M 349.71284 320.4 
L 349.71284 43.2 
" clip-path="url(#p93a8512af9)" style="fill: none; stroke-dasharray: 5.12,1.28,0.8,1.28; stroke-dashoffset: 0; stroke: #b0b0b0; stroke-width: 0.8"/>
     </g>
     <g id="line2d_8">
      <g>
       <use xlink:href="#m93a2a956a2" x="349.71284" y="320.4" style="fill: #a9a9a9; stroke: #a9a9a9; stroke-width: 0.8"/>
      </g>
     </g>
     <g id="text_4">
      <!-- 2022-09 -->
      <g style="fill: #a9a9a9" transform="translate(328.821433 334.998438) scale(0.1 -0.1)">
       <use xlink:href="#DejaVuSans-32"/>
       <use xlink:href="#DejaVuSans-30" x="63.623047"/>
       <use xlink:href="#DejaVuSans-32" x="127.246094"/>
       <use xlink:href="#DejaVuSans-32" x="190.869141"/>
       <use xlink:href="#DejaVuSans-2d" x="254.492188"/>
       <use xlink:href="#DejaVuSans-30" x="290.576172"/>
       <use xlink:href="#DejaVuSans-39" x="354.199219"/>
      </g>
     </g>
    </g>
    <g id="xtick_5">
     <g id="line2d_9">
      <path d="M 413.514152 320.4 
L 413.514152 43.2 
" clip-path="url(#p93a8512af9)" style="fill: none; stroke-dasharray: 5.12,1.28,0.8,1.28; stroke-dashoffset: 0; stroke: #b0b0b0; stroke-width: 0.8"/>
     </g>
     <g id="line2d_10">
      <g>
       <use xlink:href="#m93a2a956a2" x="413.514152" y="320.4" style="fill: #a9a9a9; stroke: #a9a9a9; stroke-width: 0.8"/>
      </g>
     </g>
     <g id="text_5">
      <!-- 2023-01 -->
      <g style="fill: #a9a9a9" transform="translate(392.622746 334.998438) scale(0.1 -0.1)">
       <defs>
        <path id="DejaVuSans-33" d="M 2597 2516 
Q 3050 2419 3304 2112 
Q 3559 1806 3559 1356 
Q 3559 666 3084 287 
Q 2609 -91 1734 -91 
Q 1441 -91 1130 -33 
Q 819 25 488 141 
L 488 750 
Q 750 597 1062 519 
Q 1375 441 1716 441 
Q 2309 441 2620 675 
Q 2931 909 2931 1356 
Q 2931 1769 2642 2001 
Q 2353 2234 1838 2234 
L 1294 2234 
L 1294 2753 
L 1863 2753 
Q 2328 2753 2575 2939 
Q 2822 3125 2822 3475 
Q 2822 3834 2567 4026 
Q 2313 4219 1838 4219 
Q 1578 4219 1281 4162 
Q 984 4106 628 3988 
L 628 4550 
Q 988 4650 1302 4700 
Q 1616 4750 1894 4750 
Q 2613 4750 3031 4423 
Q 3450 4097 3450 3541 
Q 3450 3153 3228 2886 
Q 3006 2619 2597 2516 
z
" transform="scale(0.015625)"/>
       </defs>
       <use xlink:href="#DejaVuSans-32"/>
       <use xlink:href="#DejaVuSans-30" x="63.623047"/>
       <use xlink:href="#DejaVuSans-32" x="127.246094"/>
       <use xlink:href="#DejaVuSans-33" x="190.869141"/>
       <use xlink:href="#DejaVuSans-2d" x="254.492188"/>
       <use xlink:href="#DejaVuSans-30" x="290.576172"/>
       <use xlink:href="#DejaVuSans-31" x="354.199219"/>
      </g>
     </g>
    </g>
    <g id="xtick_6">
     <g id="line2d_11">
      <path d="M 476.269541 320.4 
L 476.269541 43.2 
" clip-path="url(#p93a8512af9)" style="fill: none; stroke-dasharray: 5.12,1.28,0.8,1.28; stroke-dashoffset: 0; stroke: #b0b0b0; stroke-width: 0.8"/>
     </g>
     <g id="line2d_12">
      <g>
       <use xlink:href="#m93a2a956a2" x="476.269541" y="320.4" style="fill: #a9a9a9; stroke: #a9a9a9; stroke-width: 0.8"/>
      </g>
     </g>
     <g id="text_6">
      <!-- 2023-05 -->
      <g style="fill: #a9a9a9" transform="translate(455.378135 334.998438) scale(0.1 -0.1)">
       <use xlink:href="#DejaVuSans-32"/>
       <use xlink:href="#DejaVuSans-30" x="63.623047"/>
       <use xlink:href="#DejaVuSans-32" x="127.246094"/>
       <use xlink:href="#DejaVuSans-33" x="190.869141"/>
       <use xlink:href="#DejaVuSans-2d" x="254.492188"/>
       <use xlink:href="#DejaVuSans-30" x="290.576172"/>
       <use xlink:href="#DejaVuSans-35" x="354.199219"/>
      </g>
     </g>
    </g>
    <g id="xtick_7">
     <g id="line2d_13">
      <path d="M 540.593814 320.4 
L 540.593814 43.2 
" clip-path="url(#p93a8512af9)" style="fill: none; stroke-dasharray: 5.12,1.28,0.8,1.28; stroke-dashoffset: 0; stroke: #b0b0b0; stroke-width: 0.8"/>
     </g>
     <g id="line2d_14">
      <g>
       <use xlink:href="#m93a2a956a2" x="540.593814" y="320.4" style="fill: #a9a9a9; stroke: #a9a9a9; stroke-width: 0.8"/>
      </g>
     </g>
     <g id="text_7">
      <!-- 2023-09 -->
      <g style="fill: #a9a9a9" transform="translate(519.702408 334.998438) scale(0.1 -0.1)">
       <use xlink:href="#DejaVuSans-32"/>
       <use xlink:href="#DejaVuSans-30" x="63.623047"/>
       <use xlink:href="#DejaVuSans-32" x="127.246094"/>
       <use xlink:href="#DejaVuSans-33" x="190.869141"/>
       <use xlink:href="#DejaVuSans-2d" x="254.492188"/>
       <use xlink:href="#DejaVuSans-30" x="290.576172"/>
       <use xlink:href="#DejaVuSans-39" x="354.199219"/>
      </g>
     </g>
    </g>
    <g id="xtick_8">
     <g id="line2d_15">
      <path d="M 604.395127 320.4 
L 604.395127 43.2 
" clip-path="url(#p93a8512af9)" style="fill: none; stroke-dasharray: 5.12,1.28,0.8,1.28; stroke-dashoffset: 0; stroke: #b0b0b0; stroke-width: 0.8"/>
     </g>
     <g id="line2d_16">
      <g>
       <use xlink:href="#m93a2a956a2" x="604.395127" y="320.4" style="fill: #a9a9a9; stroke: #a9a9a9; stroke-width: 0.8"/>
      </g>
     </g>
     <g id="text_8">
      <!-- 2024-01 -->
      <g style="fill: #a9a9a9" transform="translate(583.50372 334.998438) scale(0.1 -0.1)">
       <defs>
        <path id="DejaVuSans-34" d="M 2419 4116 
L 825 1625 
L 2419 1625 
L 2419 4116 
z
M 2253 4666 
L 3047 4666 
L 3047 1625 
L 3713 1625 
L 3713 1100 
L 3047 1100 
L 3047 0 
L 2419 0 
L 2419 1100 
L 313 1100 
L 313 1709 
L 2253 4666 
z
" transform="scale(0.015625)"/>
       </defs>
       <use xlink:href="#DejaVuSans-32"/>
       <use xlink:href="#DejaVuSans-30" x="63.623047"/>
       <use xlink:href="#DejaVuSans-32" x="127.246094"/>
       <use xlink:href="#DejaVuSans-34" x="190.869141"/>
       <use xlink:href="#DejaVuSans-2d" x="254.492188"/>
       <use xlink:href="#DejaVuSans-30" x="290.576172"/>
       <use xlink:href="#DejaVuSans-31" x="354.199219"/>
      </g>
     </g>
    </g>
    <g id="xtick_9">
     <g id="line2d_17">
      <path d="M 667.673477 320.4 
L 667.673477 43.2 
" clip-path="url(#p93a8512af9)" style="fill: none; stroke-dasharray: 5.12,1.28,0.8,1.28; stroke-dashoffset: 0; stroke: #b0b0b0; stroke-width: 0.8"/>
     </g>
     <g id="line2d_18">
      <g>
       <use xlink:href="#m93a2a956a2" x="667.673477" y="320.4" style="fill: #a9a9a9; stroke: #a9a9a9; stroke-width: 0.8"/>
      </g>
     </g>
     <g id="text_9">
      <!-- 2024-05 -->
      <g style="fill: #a9a9a9" transform="translate(646.782071 334.998438) scale(0.1 -0.1)">
       <use xlink:href="#DejaVuSans-32"/>
       <use xlink:href="#DejaVuSans-30" x="63.623047"/>
       <use xlink:href="#DejaVuSans-32" x="127.246094"/>
       <use xlink:href="#DejaVuSans-34" x="190.869141"/>
       <use xlink:href="#DejaVuSans-2d" x="254.492188"/>
       <use xlink:href="#DejaVuSans-30" x="290.576172"/>
       <use xlink:href="#DejaVuSans-35" x="354.199219"/>
      </g>
     </g>
    </g>
    <g id="xtick_10">
     <g id="line2d_19">
      <path d="M 731.997751 320.4 
L 731.997751 43.2 
" clip-path="url(#p93a8512af9)" style="fill: none; stroke-dasharray: 5.12,1.28,0.8,1.28; stroke-dashoffset: 0; stroke: #b0b0b0; stroke-width: 0.8"/>
     </g>
     <g id="line2d_20">
      <g>
       <use xlink:href="#m93a2a956a2" x="731.997751" y="320.4" style="fill: #a9a9a9; stroke: #a9a9a9; stroke-width: 0.8"/>
      </g>
     </g>
     <g id="text_10">
      <!-- 2024-09 -->
      <g style="fill: #a9a9a9" transform="translate(711.106344 334.998438) scale(0.1 -0.1)">
       <use xlink:href="#DejaVuSans-32"/>
       <use xlink:href="#DejaVuSans-30" x="63.623047"/>
       <use xlink:href="#DejaVuSans-32" x="127.246094"/>
       <use xlink:href="#DejaVuSans-34" x="190.869141"/>
       <use xlink:href="#DejaVuSans-2d" x="254.492188"/>
       <use xlink:href="#DejaVuSans-30" x="290.576172"/>
       <use xlink:href="#DejaVuSans-39" x="354.199219"/>
      </g>
     </g>
    </g>
   </g>
   <g id="matplotlib.axis_2">
    <g id="ytick_1">
     <g id="line2d_21">
      <path d="M 108 307.837372 
L 777.6 307.837372 
" clip-path="url(#p93a8512af9)" style="fill: none; stroke-dasharray: 5.12,1.28,0.8,1.28; stroke-dashoffset: 0; stroke: #b0b0b0; stroke-width: 0.8"/>
     </g>
     <g id="line2d_22">
      <defs>
       <path id="m2a478ce04c" d="M 0 0 
L -3.5 0 
" style="stroke: #a9a9a9; stroke-width: 0.8"/>
      </defs>
      <g>
       <use xlink:href="#m2a478ce04c" x="108" y="307.837372" style="fill: #a9a9a9; stroke: #a9a9a9; stroke-width: 0.8"/>
      </g>
     </g>
     <g id="text_11">
      <!-- 0 -->
      <g style="fill: #a9a9a9" transform="translate(94.6375 311.636591) scale(0.1 -0.1)">
       <use xlink:href="#DejaVuSans-30"/>
      </g>
     </g>
    </g>
    <g id="ytick_2">
     <g id="line2d_23">
      <path d="M 108 277.9397 
L 777.6 277.9397 
" clip-path="url(#p93a8512af9)" style="fill: none; stroke-dasharray: 5.12,1.28,0.8,1.28; stroke-dashoffset: 0; stroke: #b0b0b0; stroke-width: 0.8"/>
     </g>
     <g id="line2d_24">
      <g>
       <use xlink:href="#m2a478ce04c" x="108" y="277.9397" style="fill: #a9a9a9; stroke: #a9a9a9; stroke-width: 0.8"/>
      </g>
     </g>
     <g id="text_12">
      <!-- 800 -->
      <g style="fill: #a9a9a9" transform="translate(81.9125 281.738919) scale(0.1 -0.1)">
       <defs>
        <path id="DejaVuSans-38" d="M 2034 2216 
Q 1584 2216 1326 1975 
Q 1069 1734 1069 1313 
Q 1069 891 1326 650 
Q 1584 409 2034 409 
Q 2484 409 2743 651 
Q 3003 894 3003 1313 
Q 3003 1734 2745 1975 
Q 2488 2216 2034 2216 
z
M 1403 2484 
Q 997 2584 770 2862 
Q 544 3141 544 3541 
Q 544 4100 942 4425 
Q 1341 4750 2034 4750 
Q 2731 4750 3128 4425 
Q 3525 4100 3525 3541 
Q 3525 3141 3298 2862 
Q 3072 2584 2669 2484 
Q 3125 2378 3379 2068 
Q 3634 1759 3634 1313 
Q 3634 634 3220 271 
Q 2806 -91 2034 -91 
Q 1263 -91 848 271 
Q 434 634 434 1313 
Q 434 1759 690 2068 
Q 947 2378 1403 2484 
z
M 1172 3481 
Q 1172 3119 1398 2916 
Q 1625 2713 2034 2713 
Q 2441 2713 2670 2916 
Q 2900 3119 2900 3481 
Q 2900 3844 2670 4047 
Q 2441 4250 2034 4250 
Q 1625 4250 1398 4047 
Q 1172 3844 1172 3481 
z
" transform="scale(0.015625)"/>
       </defs>
       <use xlink:href="#DejaVuSans-38"/>
       <use xlink:href="#DejaVuSans-30" x="63.623047"/>
       <use xlink:href="#DejaVuSans-30" x="127.246094"/>
      </g>
     </g>
    </g>
    <g id="ytick_3">
     <g id="line2d_25">
      <path d="M 108 248.042029 
L 777.6 248.042029 
" clip-path="url(#p93a8512af9)" style="fill: none; stroke-dasharray: 5.12,1.28,0.8,1.28; stroke-dashoffset: 0; stroke: #b0b0b0; stroke-width: 0.8"/>
     </g>
     <g id="line2d_26">
      <g>
       <use xlink:href="#m2a478ce04c" x="108" y="248.042029" style="fill: #a9a9a9; stroke: #a9a9a9; stroke-width: 0.8"/>
      </g>
     </g>
     <g id="text_13">
      <!-- 1600 -->
      <g style="fill: #a9a9a9" transform="translate(75.55 251.841248) scale(0.1 -0.1)">
       <defs>
        <path id="DejaVuSans-36" d="M 2113 2584 
Q 1688 2584 1439 2293 
Q 1191 2003 1191 1497 
Q 1191 994 1439 701 
Q 1688 409 2113 409 
Q 2538 409 2786 701 
Q 3034 994 3034 1497 
Q 3034 2003 2786 2293 
Q 2538 2584 2113 2584 
z
M 3366 4563 
L 3366 3988 
Q 3128 4100 2886 4159 
Q 2644 4219 2406 4219 
Q 1781 4219 1451 3797 
Q 1122 3375 1075 2522 
Q 1259 2794 1537 2939 
Q 1816 3084 2150 3084 
Q 2853 3084 3261 2657 
Q 3669 2231 3669 1497 
Q 3669 778 3244 343 
Q 2819 -91 2113 -91 
Q 1303 -91 875 529 
Q 447 1150 447 2328 
Q 447 3434 972 4092 
Q 1497 4750 2381 4750 
Q 2619 4750 2861 4703 
Q 3103 4656 3366 4563 
z
" transform="scale(0.015625)"/>
       </defs>
       <use xlink:href="#DejaVuSans-31"/>
       <use xlink:href="#DejaVuSans-36" x="63.623047"/>
       <use xlink:href="#DejaVuSans-30" x="127.246094"/>
       <use xlink:href="#DejaVuSans-30" x="190.869141"/>
      </g>
     </g>
    </g>
    <g id="ytick_4">
     <g id="line2d_27">
      <path d="M 108 218.144357 
L 777.6 218.144357 
" clip-path="url(#p93a8512af9)" style="fill: none; stroke-dasharray: 5.12,1.28,0.8,1.28; stroke-dashoffset: 0; stroke: #b0b0b0; stroke-width: 0.8"/>
     </g>
     <g id="line2d_28">
      <g>
       <use xlink:href="#m2a478ce04c" x="108" y="218.144357" style="fill: #a9a9a9; stroke: #a9a9a9; stroke-width: 0.8"/>
      </g>
     </g>
     <g id="text_14">
      <!-- 2400 -->
      <g style="fill: #a9a9a9" transform="translate(75.55 221.943576) scale(0.1 -0.1)">
       <use xlink:href="#DejaVuSans-32"/>
       <use xlink:href="#DejaVuSans-34" x="63.623047"/>
       <use xlink:href="#DejaVuSans-30" x="127.246094"/>
       <use xlink:href="#DejaVuSans-30" x="190.869141"/>
      </g>
     </g>
    </g>
    <g id="ytick_5">
     <g id="line2d_29">
      <path d="M 108 188.246685 
L 777.6 188.246685 
" clip-path="url(#p93a8512af9)" style="fill: none; stroke-dasharray: 5.12,1.28,0.8,1.28; stroke-dashoffset: 0; stroke: #b0b0b0; stroke-width: 0.8"/>
     </g>
     <g id="line2d_30">
      <g>
       <use xlink:href="#m2a478ce04c" x="108" y="188.246685" style="fill: #a9a9a9; stroke: #a9a9a9; stroke-width: 0.8"/>
      </g>
     </g>
     <g id="text_15">
      <!-- 3200 -->
      <g style="fill: #a9a9a9" transform="translate(75.55 192.045904) scale(0.1 -0.1)">
       <use xlink:href="#DejaVuSans-33"/>
       <use xlink:href="#DejaVuSans-32" x="63.623047"/>
       <use xlink:href="#DejaVuSans-30" x="127.246094"/>
       <use xlink:href="#DejaVuSans-30" x="190.869141"/>
      </g>
     </g>
    </g>
    <g id="ytick_6">
     <g id="line2d_31">
      <path d="M 108 158.349014 
L 777.6 158.349014 
" clip-path="url(#p93a8512af9)" style="fill: none; stroke-dasharray: 5.12,1.28,0.8,1.28; stroke-dashoffset: 0; stroke: #b0b0b0; stroke-width: 0.8"/>
     </g>
     <g id="line2d_32">
      <g>
       <use xlink:href="#m2a478ce04c" x="108" y="158.349014" style="fill: #a9a9a9; stroke: #a9a9a9; stroke-width: 0.8"/>
      </g>
     </g>
     <g id="text_16">
      <!-- 4000 -->
      <g style="fill: #a9a9a9" transform="translate(75.55 162.148233) scale(0.1 -0.1)">
       <use xlink:href="#DejaVuSans-34"/>
       <use xlink:href="#DejaVuSans-30" x="63.623047"/>
       <use xlink:href="#DejaVuSans-30" x="127.246094"/>
       <use xlink:href="#DejaVuSans-30" x="190.869141"/>
      </g>
     </g>
    </g>
    <g id="ytick_7">
     <g id="line2d_33">
      <path d="M 108 128.451342 
L 777.6 128.451342 
" clip-path="url(#p93a8512af9)" style="fill: none; stroke-dasharray: 5.12,1.28,0.8,1.28; stroke-dashoffset: 0; stroke: #b0b0b0; stroke-width: 0.8"/>
     </g>
     <g id="line2d_34">
      <g>
       <use xlink:href="#m2a478ce04c" x="108" y="128.451342" style="fill: #a9a9a9; stroke: #a9a9a9; stroke-width: 0.8"/>
      </g>
     </g>
     <g id="text_17">
      <!-- 4800 -->
      <g style="fill: #a9a9a9" transform="translate(75.55 132.250561) scale(0.1 -0.1)">
       <use xlink:href="#DejaVuSans-34"/>
       <use xlink:href="#DejaVuSans-38" x="63.623047"/>
       <use xlink:href="#DejaVuSans-30" x="127.246094"/>
       <use xlink:href="#DejaVuSans-30" x="190.869141"/>
      </g>
     </g>
    </g>
    <g id="ytick_8">
     <g id="line2d_35">
      <path d="M 108 98.55367 
L 777.6 98.55367 
" clip-path="url(#p93a8512af9)" style="fill: none; stroke-dasharray: 5.12,1.28,0.8,1.28; stroke-dashoffset: 0; stroke: #b0b0b0; stroke-width: 0.8"/>
     </g>
     <g id="line2d_36">
      <g>
       <use xlink:href="#m2a478ce04c" x="108" y="98.55367" style="fill: #a9a9a9; stroke: #a9a9a9; stroke-width: 0.8"/>
      </g>
     </g>
     <g id="text_18">
      <!-- 5600 -->
      <g style="fill: #a9a9a9" transform="translate(75.55 102.352889) scale(0.1 -0.1)">
       <use xlink:href="#DejaVuSans-35"/>
       <use xlink:href="#DejaVuSans-36" x="63.623047"/>
       <use xlink:href="#DejaVuSans-30" x="127.246094"/>
       <use xlink:href="#DejaVuSans-30" x="190.869141"/>
      </g>
     </g>
    </g>
    <g id="ytick_9">
     <g id="line2d_37">
      <path d="M 108 68.655999 
L 777.6 68.655999 
" clip-path="url(#p93a8512af9)" style="fill: none; stroke-dasharray: 5.12,1.28,0.8,1.28; stroke-dashoffset: 0; stroke: #b0b0b0; stroke-width: 0.8"/>
     </g>
     <g id="line2d_38">
      <g>
       <use xlink:href="#m2a478ce04c" x="108" y="68.655999" style="fill: #a9a9a9; stroke: #a9a9a9; stroke-width: 0.8"/>
      </g>
     </g>
     <g id="text_19">
      <!-- 6400 -->
      <g style="fill: #a9a9a9" transform="translate(75.55 72.455218) scale(0.1 -0.1)">
       <use xlink:href="#DejaVuSans-36"/>
       <use xlink:href="#DejaVuSans-34" x="63.623047"/>
       <use xlink:href="#DejaVuSans-30" x="127.246094"/>
       <use xlink:href="#DejaVuSans-30" x="190.869141"/>
      </g>
     </g>
    </g>
   </g>
   <g id="line2d_39">
    <path d="M 138.436364 307.725256 
L 141.574133 307.463651 
L 142.097095 307.239419 
L 143.665979 307.08993 
L 147.32671 306.417233 
L 149.941518 306.193 
L 150.987441 305.781907 
L 151.510403 305.10921 
L 152.033365 304.735489 
L 152.556326 303.576954 
L 153.079288 303.50221 
L 153.602249 303.091117 
L 154.648172 302.567907 
L 156.740019 300.923536 
L 158.831865 299.914489 
L 160.40075 299.204419 
L 160.923711 298.382233 
L 161.969634 297.634792 
L 162.492596 297.410559 
L 167.722212 296.663117 
L 168.245173 296.438885 
L 171.905904 296.139908 
L 173.997751 295.654071 
L 178.181443 295.09349 
L 178.704405 294.831885 
L 179.227366 294.757141 
L 180.27329 294.420792 
L 183.934021 293.822838 
L 184.979944 293.523862 
L 189.686598 292.739048 
L 190.732521 292.514815 
L 191.778444 292.477443 
L 193.870291 291.991606 
L 194.393252 291.281536 
L 195.962137 290.683583 
L 197.531022 290.27249 
L 198.053983 290.010885 
L 198.576945 289.973513 
L 201.191753 289.226071 
L 202.237676 289.151327 
L 203.283599 288.889723 
L 205.375445 288.366513 
L 205.898407 288.329141 
L 206.94433 287.843304 
L 207.467291 287.76856 
L 207.990253 287.506955 
L 213.74283 286.572653 
L 215.834677 285.9747 
L 216.357638 285.638351 
L 218.972446 284.778793 
L 220.018369 284.068723 
L 221.587254 283.769746 
L 231.523524 280.892096 
L 232.569447 280.481003 
L 233.61537 280.406258 
L 235.184255 279.957793 
L 235.707216 279.957793 
L 236.230178 279.733561 
L 237.276101 279.621444 
L 237.799063 279.434584 
L 238.844986 279.397212 
L 240.936832 279.135607 
L 241.982755 278.612398 
L 248.258294 275.809491 
L 248.781256 275.24891 
L 249.827179 273.679282 
L 250.350141 273.529794 
L 250.873102 273.529794 
L 251.919025 272.74498 
L 253.48791 272.221771 
L 254.010872 271.735934 
L 255.056795 271.324841 
L 256.102718 270.839003 
L 257.148641 269.34412 
L 257.671603 269.007771 
L 258.194564 268.110841 
L 258.717526 267.55026 
L 261.855295 265.905888 
L 262.901218 265.083702 
L 263.42418 264.747353 
L 263.947142 263.962539 
L 264.470103 262.804004 
L 264.993065 262.01919 
L 265.516026 261.608097 
L 266.038988 261.383865 
L 269.699719 258.319353 
L 270.745642 257.086074 
L 271.791565 256.338633 
L 273.36045 255.292214 
L 273.883411 254.843749 
L 274.929335 254.5074 
L 276.498219 253.61047 
L 278.067104 252.601424 
L 280.15895 250.732819 
L 281.204873 250.321726 
L 282.250797 249.611657 
L 282.773758 249.31268 
L 283.29672 249.237936 
L 286.957451 246.958238 
L 289.049297 245.837075 
L 289.572259 245.351238 
L 297.939644 242.436215 
L 298.985567 241.501913 
L 300.03149 241.016076 
L 301.077413 240.455495 
L 301.600375 240.156518 
L 302.646298 239.857541 
L 303.16926 239.521192 
L 303.692221 239.371704 
L 305.261106 238.362658 
L 307.875914 237.764704 
L 309.444799 236.867774 
L 311.013683 236.531425 
L 311.536645 236.381937 
L 313.10553 235.18603 
L 315.197376 234.625449 
L 315.720337 234.214356 
L 318.858107 233.167937 
L 319.381068 233.130565 
L 320.949953 232.569984 
L 324.610684 231.261961 
L 325.656607 231.112472 
L 327.225492 230.589263 
L 329.8403 229.355984 
L 331.932146 228.234821 
L 336.115839 226.553077 
L 336.6388 226.478333 
L 337.684724 225.843008 
L 338.207685 225.768263 
L 340.299531 224.908705 
L 342.391378 224.609729 
L 343.437301 224.086519 
L 343.960262 223.638054 
L 344.483224 222.703752 
L 346.57507 222.143171 
L 348.143955 221.358357 
L 348.666917 221.246241 
L 352.850609 219.26552 
L 354.419494 218.929171 
L 355.465417 218.405962 
L 355.988379 218.181729 
L 356.51134 218.106985 
L 358.603187 217.172683 
L 360.172071 216.201008 
L 361.740956 215.902032 
L 364.355764 215.266706 
L 364.878725 214.855613 
L 366.44761 214.295032 
L 368.539456 213.472846 
L 369.062418 213.099125 
L 369.58538 212.912265 
L 370.631303 212.351683 
L 373.246111 211.492125 
L 374.814995 210.258846 
L 375.337957 210.14673 
L 376.38388 209.324544 
L 376.906842 209.2498 
L 377.429803 208.427614 
L 377.952765 208.203381 
L 378.475726 207.792288 
L 378.998688 207.717544 
L 380.044611 207.082219 
L 381.090534 206.74587 
L 381.613496 206.334777 
L 382.136457 206.147916 
L 383.705342 205.064126 
L 385.797188 203.980335 
L 386.32015 203.905591 
L 387.889035 203.120777 
L 388.411996 202.261219 
L 388.934958 201.812754 
L 389.457919 201.513777 
L 389.980881 201.401661 
L 391.026804 200.728963 
L 391.549766 200.616847 
L 392.595689 200.093638 
L 394.687535 199.084591 
L 395.210497 198.710871 
L 396.779381 197.290731 
L 397.825305 196.692778 
L 398.348266 196.132196 
L 400.440112 194.712057 
L 400.963074 194.114104 
L 401.486036 193.703011 
L 402.531959 193.32929 
L 403.577882 192.61922 
L 405.146767 191.834406 
L 405.669728 191.759662 
L 407.238613 190.937476 
L 408.284536 190.30215 
L 413.514152 188.433546 
L 414.037113 188.022453 
L 416.12896 187.237639 
L 416.651921 187.088151 
L 417.174883 186.677058 
L 419.789691 185.256918 
L 420.835614 183.201453 
L 421.881537 182.005546 
L 422.92746 181.370221 
L 424.496345 180.734895 
L 425.019306 180.660151 
L 425.542268 180.361175 
L 428.157076 179.538989 
L 428.680037 179.314756 
L 429.725961 178.604686 
L 431.294845 177.931989 
L 432.340769 177.371407 
L 432.86373 176.997686 
L 433.386692 176.773454 
L 433.909653 176.399733 
L 434.432615 175.839152 
L 435.478538 175.27857 
L 438.093346 173.895803 
L 441.231115 172.363547 
L 442.277038 172.027199 
L 443.845923 171.541361 
L 445.937769 170.607059 
L 446.983693 170.195966 
L 447.506654 169.784873 
L 448.552577 169.448524 
L 451.690347 167.841525 
L 452.73627 167.019339 
L 453.782193 166.645618 
L 454.305155 166.197153 
L 454.828116 166.122408 
L 455.874039 165.337595 
L 456.919963 164.814385 
L 457.442924 164.590153 
L 457.965886 164.066943 
L 461.626617 162.646804 
L 462.67254 162.198339 
L 464.241425 161.712502 
L 465.287348 161.563013 
L 465.810309 161.338781 
L 466.333271 161.264037 
L 467.379194 160.815572 
L 467.902156 160.7782 
L 469.994002 159.993386 
L 471.562887 158.909595 
L 472.085848 158.722735 
L 473.131771 158.162153 
L 473.654733 158.012665 
L 476.792502 156.293549 
L 477.315464 156.181433 
L 478.884349 155.284502 
L 480.453233 154.761293 
L 481.499157 154.424944 
L 483.591003 153.752247 
L 484.636926 153.415898 
L 486.728772 153.004805 
L 487.251734 152.780572 
L 487.774695 152.705828 
L 488.820619 152.257363 
L 489.34358 152.182619 
L 489.866542 151.921014 
L 490.912465 151.734154 
L 492.48135 151.173573 
L 493.527273 151.061456 
L 495.096157 150.725108 
L 497.710965 150.276642 
L 511.307966 146.389945 
L 511.830928 145.866736 
L 512.876851 145.455643 
L 516.01462 144.33448 
L 516.537582 143.998131 
L 517.060544 143.886015 
L 517.583505 143.587038 
L 519.15239 143.138573 
L 520.198313 142.876969 
L 520.721275 142.54062 
L 521.244236 142.428504 
L 521.767198 141.980039 
L 523.336082 141.681062 
L 524.382006 141.195225 
L 524.904967 140.597271 
L 526.996813 140.111434 
L 530.657545 139.363992 
L 531.180506 139.363992 
L 531.703468 139.13976 
L 533.795314 138.766039 
L 534.318276 138.541806 
L 536.410122 138.168085 
L 537.456045 137.71962 
L 537.979007 137.682248 
L 546.869353 135.02883 
L 547.392315 134.804597 
L 547.915276 134.430876 
L 548.9612 134.1319 
L 550.007123 133.795551 
L 551.053046 133.384458 
L 552.621931 132.71176 
L 554.190815 132.599644 
L 556.282662 132.001691 
L 556.805623 131.702714 
L 557.851546 131.403737 
L 560.466354 130.245202 
L 560.989316 130.20783 
L 566.741893 128.22711 
L 569.356701 127.554412 
L 570.402624 127.068575 
L 571.971509 126.732226 
L 572.49447 126.321133 
L 573.017432 126.059528 
L 573.540394 125.424203 
L 574.063355 125.050482 
L 575.109278 124.751505 
L 575.63224 124.340412 
L 578.770009 123.181878 
L 579.292971 122.845529 
L 580.338894 122.546552 
L 580.861856 122.210203 
L 583.476664 121.350645 
L 585.045548 120.453715 
L 585.56851 120.341599 
L 586.614433 119.743645 
L 587.137395 119.519413 
L 588.183318 118.884087 
L 589.752202 118.136645 
L 590.275164 117.762925 
L 591.321087 117.426576 
L 592.36701 116.828622 
L 592.889972 116.641762 
L 593.412933 116.268041 
L 600.211434 113.913599 
L 600.734396 113.801483 
L 601.257357 113.465134 
L 603.349203 113.054041 
L 604.395127 112.642948 
L 604.918088 112.343972 
L 605.44105 112.194483 
L 607.532896 111.110693 
L 608.055858 111.035948 
L 609.624742 110.17639 
L 612.762512 108.943111 
L 614.854358 108.120925 
L 615.37732 107.971437 
L 615.900281 107.635088 
L 616.946204 107.4856 
L 617.469166 107.149251 
L 617.992127 107.111879 
L 619.038051 106.77553 
L 620.083974 106.252321 
L 620.606935 106.177577 
L 623.221743 105.131158 
L 624.790628 104.682693 
L 625.836551 104.421089 
L 627.405436 103.972623 
L 628.451359 103.56153 
L 630.543205 102.440368 
L 631.589128 102.029275 
L 632.11209 101.692926 
L 633.158013 101.468693 
L 633.680975 101.169717 
L 634.203936 101.0576 
L 635.772821 100.198042 
L 636.818744 99.786949 
L 638.387629 99.07688 
L 639.956514 98.665787 
L 643.094283 97.432508 
L 644.663168 96.909299 
L 652.507591 93.54581 
L 653.553515 93.284206 
L 658.260169 91.340857 
L 658.78313 91.340857 
L 659.829053 90.892392 
L 660.874977 89.95809 
L 661.397938 89.509625 
L 662.966823 88.762183 
L 663.489784 88.650067 
L 664.012746 88.388462 
L 664.535708 88.313718 
L 665.058669 87.939997 
L 665.581631 87.827881 
L 666.627554 87.192555 
L 668.196439 86.407741 
L 669.242362 85.996648 
L 669.765323 85.735044 
L 672.380131 85.099718 
L 672.903093 84.838114 
L 674.471978 84.389649 
L 676.563824 83.380602 
L 677.609747 82.894765 
L 678.65567 82.63316 
L 680.747516 81.661486 
L 681.270478 81.511998 
L 681.79344 81.175649 
L 684.931209 80.054486 
L 686.500094 79.120184 
L 687.023055 79.008068 
L 688.068978 78.484858 
L 689.114902 78.111137 
L 689.637863 77.662672 
L 690.160825 77.363696 
L 691.729709 76.877859 
L 692.775633 76.167789 
L 693.298594 76.130417 
L 694.344517 75.83144 
L 695.39044 75.495091 
L 695.913402 75.233487 
L 696.436364 75.158742 
L 698.005248 74.598161 
L 699.574133 74.03758 
L 700.620056 73.626487 
L 701.143018 73.215394 
L 702.711903 72.804301 
L 703.234864 72.505324 
L 704.280787 72.243719 
L 705.849672 71.384161 
L 706.372634 71.346789 
L 707.941518 70.860952 
L 708.987441 70.748836 
L 710.033365 70.337743 
L 713.171134 69.440813 
L 714.217057 69.403441 
L 717.354827 68.394394 
L 717.877788 68.31965 
L 719.446673 67.497464 
L 719.969634 67.048999 
L 721.538519 66.152069 
L 722.061481 65.740976 
L 723.107404 65.329883 
L 725.722212 64.432953 
L 726.245173 64.02186 
L 727.814058 63.31179 
L 728.33702 63.199674 
L 729.382943 62.713837 
L 730.951828 62.302744 
L 732.520712 61.630046 
L 733.566635 61.144209 
L 735.13552 60.508883 
L 735.658482 60.396767 
L 737.227366 59.649325 
L 737.750328 59.537209 
L 738.796251 58.827139 
L 740.365136 58.378674 
L 741.934021 57.332256 
L 742.456982 57.257511 
L 745.07179 56.211093 
L 746.640675 55.837372 
L 747.163636 55.8 
L 747.163636 55.8 
" clip-path="url(#p93a8512af9)" style="fill: none; stroke: #1f77b4; stroke-width: 1.5; stroke-linecap: square"/>
   </g>
   <g id="line2d_40">
    <path d="M 138.959325 307.8 
L 140.52821 307.725256 
L 142.097095 307.687884 
L 145.234864 307.61314 
L 147.849672 307.501023 
L 149.941518 307.501023 
L 150.46448 307.351535 
L 152.556326 307.276791 
L 154.125211 307.08993 
L 156.217057 306.90307 
L 157.785942 306.828326 
L 163.015558 306.529349 
L 167.19925 306.454605 
L 169.814058 306.342489 
L 176.089597 306.267744 
L 178.704405 306.155628 
L 181.842174 306.080884 
L 183.934021 306.00614 
L 188.640675 305.931396 
L 190.20956 305.894023 
L 191.778444 305.856651 
L 193.870291 305.669791 
L 195.439175 305.632419 
L 198.053983 305.557675 
L 200.145829 305.48293 
L 203.80656 305.408186 
L 205.898407 305.221326 
L 208.513215 305.146582 
L 210.082099 305.10921 
L 212.696907 305.034465 
L 214.265792 304.884977 
L 217.926523 304.810233 
L 220.541331 304.586 
L 221.587254 304.473884 
L 226.293908 304.212279 
L 229.431678 304.137535 
L 234.138332 303.875931 
L 235.707216 303.801186 
L 240.936832 303.50221 
L 246.68941 303.427466 
L 248.781256 303.203233 
L 249.827179 303.128489 
L 256.625679 302.567907 
L 260.28641 302.156814 
L 261.855295 302.08207 
L 266.561949 301.521489 
L 269.176757 301.446745 
L 270.745642 301.297256 
L 271.791565 301.259884 
L 273.36045 301.147768 
L 274.406373 301.073024 
L 275.975258 300.848791 
L 276.498219 300.848791 
L 278.067104 300.624559 
L 280.15895 300.549815 
L 281.204873 300.47507 
L 283.29672 300.400326 
L 284.342643 300.325582 
L 286.957451 300.063977 
L 288.003374 299.877117 
L 289.572259 299.839745 
L 290.618182 299.765001 
L 293.23299 299.690257 
L 300.03149 299.279164 
L 301.600375 299.204419 
L 308.398875 298.793326 
L 312.059606 298.718582 
L 313.10553 298.606466 
L 316.766261 298.531722 
L 320.426992 298.344861 
L 326.179569 298.270117 
L 329.8403 298.083257 
L 334.023993 298.008513 
L 338.207685 297.78428 
L 341.868416 297.709536 
L 351.804686 297.07421 
L 357.034302 296.999466 
L 359.64911 296.737861 
L 362.263918 296.700489 
L 364.878725 296.438885 
L 369.58538 296.17728 
L 372.723149 296.102536 
L 374.292034 296.065164 
L 375.860918 296.027792 
L 377.429803 295.878303 
L 381.613496 295.803559 
L 382.659419 295.654071 
L 383.705342 295.579327 
L 386.32015 295.46721 
L 387.366073 295.392466 
L 388.411996 295.317722 
L 393.11865 295.242978 
L 394.687535 295.130862 
L 408.284536 294.233931 
L 410.376382 294.159187 
L 412.99119 294.047071 
L 420.312652 293.972327 
L 423.973383 293.785466 
L 428.157076 293.710722 
L 430.248922 293.635978 
L 432.340769 293.598606 
L 433.909653 293.48649 
L 438.616307 293.224885 
L 439.662231 293.150141 
L 441.754077 293.075397 
L 444.368885 293.000653 
L 446.983693 292.888536 
L 450.644424 292.813792 
L 452.73627 292.739048 
L 459.011809 292.664304 
L 461.626617 292.552187 
L 464.764386 292.477443 
L 466.856232 292.290583 
L 468.425117 292.253211 
L 470.516963 292.178467 
L 472.085848 292.06635 
L 477.838425 291.991606 
L 479.930272 291.916862 
L 487.251734 291.842118 
L 488.820619 291.804746 
L 491.958388 291.730001 
L 493.527273 291.692629 
L 500.325773 291.617885 
L 501.371696 291.543141 
L 507.124274 291.468397 
L 509.21612 291.393653 
L 519.15239 291.318908 
L 520.721275 291.281536 
L 525.427929 291.206792 
L 526.473852 291.132048 
L 539.02493 291.057304 
L 540.593814 291.019932 
L 554.713777 290.945188 
L 556.282662 290.907816 
L 565.69597 290.833071 
L 566.741893 290.758327 
L 569.356701 290.683583 
L 570.925586 290.534095 
L 573.540394 290.45935 
L 576.678163 290.309862 
L 580.861856 290.235118 
L 581.907779 290.160374 
L 586.091471 290.08563 
L 589.229241 289.936141 
L 591.844049 289.861397 
L 596.027741 289.637164 
L 599.165511 289.56242 
L 601.257357 289.487676 
L 608.055858 289.412932 
L 610.147704 289.338188 
L 614.331396 289.263444 
L 617.992127 289.076583 
L 622.698782 289.001839 
L 623.744705 288.927095 
L 633.158013 288.852351 
L 634.726898 288.814978 
L 637.341706 288.777606 
L 639.956514 288.516002 
L 644.140206 288.441258 
L 649.369822 288.142281 
L 651.98463 288.067537 
L 654.076476 287.992793 
L 659.829053 287.918048 
L 662.966823 287.5817 
L 666.627554 287.506955 
L 669.765323 287.357467 
L 673.426054 287.282723 
L 676.040862 287.170607 
L 682.839363 287.133234 
L 683.885286 287.021118 
L 687.546017 286.946374 
L 689.114902 286.909002 
L 691.729709 286.834258 
L 693.298594 286.796886 
L 702.188941 286.722141 
L 704.803749 286.610025 
L 712.125211 286.535281 
L 714.217057 286.460537 
L 719.969634 286.385793 
L 721.015558 286.273676 
L 725.722212 286.236304 
L 726.768135 286.16156 
L 729.382943 286.086816 
L 730.951828 286.049444 
L 737.750328 285.9747 
L 739.319213 285.937328 
L 740.365136 285.862583 
L 741.934021 285.825211 
L 742.456982 285.825211 
L 743.502905 285.638351 
L 747.163636 285.563607 
L 747.163636 285.563607 
" clip-path="url(#p93a8512af9)" style="fill: none; stroke: #ff7f0e; stroke-width: 1.5; stroke-linecap: square"/>
   </g>
   <g id="patch_3">
    <path d="M 108 320.4 
L 108 43.2 
" style="fill: none; stroke: #a9a9a9; stroke-width: 0.8; stroke-linejoin: miter; stroke-linecap: square"/>
   </g>
   <g id="patch_4">
    <path d="M 777.6 320.4 
L 777.6 43.2 
" style="fill: none"/>
   </g>
   <g id="patch_5">
    <path d="M 108 320.4 
L 777.6 320.4 
" style="fill: none; stroke: #a9a9a9; stroke-width: 0.8; stroke-linejoin: miter; stroke-linecap: square"/>
   </g>
   <g id="patch_6">
    <path d="M 108 43.2 
L 777.6 43.2 
" style="fill: none"/>
   </g>
   <g id="text_20">
    <!-- get_subscribe history -->
    <g style="fill: #a9a9a9" transform="translate(378.6075 37.2) scale(0.12 -0.12)">
     <defs>
      <path id="DejaVuSans-67" d="M 2906 1791 
Q 2906 2416 2648 2759 
Q 2391 3103 1925 3103 
Q 1463 3103 1205 2759 
Q 947 2416 947 1791 
Q 947 1169 1205 825 
Q 1463 481 1925 481 
Q 2391 481 2648 825 
Q 2906 1169 2906 1791 
z
M 3481 434 
Q 3481 -459 3084 -895 
Q 2688 -1331 1869 -1331 
Q 1566 -1331 1297 -1286 
Q 1028 -1241 775 -1147 
L 775 -588 
Q 1028 -725 1275 -790 
Q 1522 -856 1778 -856 
Q 2344 -856 2625 -561 
Q 2906 -266 2906 331 
L 2906 616 
Q 2728 306 2450 153 
Q 2172 0 1784 0 
Q 1141 0 747 490 
Q 353 981 353 1791 
Q 353 2603 747 3093 
Q 1141 3584 1784 3584 
Q 2172 3584 2450 3431 
Q 2728 3278 2906 2969 
L 2906 3500 
L 3481 3500 
L 3481 434 
z
" transform="scale(0.015625)"/>
      <path id="DejaVuSans-65" d="M 3597 1894 
L 3597 1613 
L 953 1613 
Q 991 1019 1311 708 
Q 1631 397 2203 397 
Q 2534 397 2845 478 
Q 3156 559 3463 722 
L 3463 178 
Q 3153 47 2828 -22 
Q 2503 -91 2169 -91 
Q 1331 -91 842 396 
Q 353 884 353 1716 
Q 353 2575 817 3079 
Q 1281 3584 2069 3584 
Q 2775 3584 3186 3129 
Q 3597 2675 3597 1894 
z
M 3022 2063 
Q 3016 2534 2758 2815 
Q 2500 3097 2075 3097 
Q 1594 3097 1305 2825 
Q 1016 2553 972 2059 
L 3022 2063 
z
" transform="scale(0.015625)"/>
      <path id="DejaVuSans-74" d="M 1172 4494 
L 1172 3500 
L 2356 3500 
L 2356 3053 
L 1172 3053 
L 1172 1153 
Q 1172 725 1289 603 
Q 1406 481 1766 481 
L 2356 481 
L 2356 0 
L 1766 0 
Q 1100 0 847 248 
Q 594 497 594 1153 
L 594 3053 
L 172 3053 
L 172 3500 
L 594 3500 
L 594 4494 
L 1172 4494 
z
" transform="scale(0.015625)"/>
      <path id="DejaVuSans-5f" d="M 3263 -1063 
L 3263 -1509 
L -63 -1509 
L -63 -1063 
L 3263 -1063 
z
" transform="scale(0.015625)"/>
      <path id="DejaVuSans-73" d="M 2834 3397 
L 2834 2853 
Q 2591 2978 2328 3040 
Q 2066 3103 1784 3103 
Q 1356 3103 1142 2972 
Q 928 2841 928 2578 
Q 928 2378 1081 2264 
Q 1234 2150 1697 2047 
L 1894 2003 
Q 2506 1872 2764 1633 
Q 3022 1394 3022 966 
Q 3022 478 2636 193 
Q 2250 -91 1575 -91 
Q 1294 -91 989 -36 
Q 684 19 347 128 
L 347 722 
Q 666 556 975 473 
Q 1284 391 1588 391 
Q 1994 391 2212 530 
Q 2431 669 2431 922 
Q 2431 1156 2273 1281 
Q 2116 1406 1581 1522 
L 1381 1569 
Q 847 1681 609 1914 
Q 372 2147 372 2553 
Q 372 3047 722 3315 
Q 1072 3584 1716 3584 
Q 2034 3584 2315 3537 
Q 2597 3491 2834 3397 
z
" transform="scale(0.015625)"/>
      <path id="DejaVuSans-75" d="M 544 1381 
L 544 3500 
L 1119 3500 
L 1119 1403 
Q 1119 906 1312 657 
Q 1506 409 1894 409 
Q 2359 409 2629 706 
Q 2900 1003 2900 1516 
L 2900 3500 
L 3475 3500 
L 3475 0 
L 2900 0 
L 2900 538 
Q 2691 219 2414 64 
Q 2138 -91 1772 -91 
Q 1169 -91 856 284 
Q 544 659 544 1381 
z
M 1991 3584 
L 1991 3584 
z
" transform="scale(0.015625)"/>
      <path id="DejaVuSans-62" d="M 3116 1747 
Q 3116 2381 2855 2742 
Q 2594 3103 2138 3103 
Q 1681 3103 1420 2742 
Q 1159 2381 1159 1747 
Q 1159 1113 1420 752 
Q 1681 391 2138 391 
Q 2594 391 2855 752 
Q 3116 1113 3116 1747 
z
M 1159 2969 
Q 1341 3281 1617 3432 
Q 1894 3584 2278 3584 
Q 2916 3584 3314 3078 
Q 3713 2572 3713 1747 
Q 3713 922 3314 415 
Q 2916 -91 2278 -91 
Q 1894 -91 1617 61 
Q 1341 213 1159 525 
L 1159 0 
L 581 0 
L 581 4863 
L 1159 4863 
L 1159 2969 
z
" transform="scale(0.015625)"/>
      <path id="DejaVuSans-63" d="M 3122 3366 
L 3122 2828 
Q 2878 2963 2633 3030 
Q 2388 3097 2138 3097 
Q 1578 3097 1268 2742 
Q 959 2388 959 1747 
Q 959 1106 1268 751 
Q 1578 397 2138 397 
Q 2388 397 2633 464 
Q 2878 531 3122 666 
L 3122 134 
Q 2881 22 2623 -34 
Q 2366 -91 2075 -91 
Q 1284 -91 818 406 
Q 353 903 353 1747 
Q 353 2603 823 3093 
Q 1294 3584 2113 3584 
Q 2378 3584 2631 3529 
Q 2884 3475 3122 3366 
z
" transform="scale(0.015625)"/>
      <path id="DejaVuSans-72" d="M 2631 2963 
Q 2534 3019 2420 3045 
Q 2306 3072 2169 3072 
Q 1681 3072 1420 2755 
Q 1159 2438 1159 1844 
L 1159 0 
L 581 0 
L 581 3500 
L 1159 3500 
L 1159 2956 
Q 1341 3275 1631 3429 
Q 1922 3584 2338 3584 
Q 2397 3584 2469 3576 
Q 2541 3569 2628 3553 
L 2631 2963 
z
" transform="scale(0.015625)"/>
      <path id="DejaVuSans-69" d="M 603 3500 
L 1178 3500 
L 1178 0 
L 603 0 
L 603 3500 
z
M 603 4863 
L 1178 4863 
L 1178 4134 
L 603 4134 
L 603 4863 
z
" transform="scale(0.015625)"/>
      <path id="DejaVuSans-20" transform="scale(0.015625)"/>
      <path id="DejaVuSans-68" d="M 3513 2113 
L 3513 0 
L 2938 0 
L 2938 2094 
Q 2938 2591 2744 2837 
Q 2550 3084 2163 3084 
Q 1697 3084 1428 2787 
Q 1159 2491 1159 1978 
L 1159 0 
L 581 0 
L 581 4863 
L 1159 4863 
L 1159 2956 
Q 1366 3272 1645 3428 
Q 1925 3584 2291 3584 
Q 2894 3584 3203 3211 
Q 3513 2838 3513 2113 
z
" transform="scale(0.015625)"/>
      <path id="DejaVuSans-6f" d="M 1959 3097 
Q 1497 3097 1228 2736 
Q 959 2375 959 1747 
Q 959 1119 1226 758 
Q 1494 397 1959 397 
Q 2419 397 2687 759 
Q 2956 1122 2956 1747 
Q 2956 2369 2687 2733 
Q 2419 3097 1959 3097 
z
M 1959 3584 
Q 2709 3584 3137 3096 
Q 3566 2609 3566 1747 
Q 3566 888 3137 398 
Q 2709 -91 1959 -91 
Q 1206 -91 779 398 
Q 353 888 353 1747 
Q 353 2609 779 3096 
Q 1206 3584 1959 3584 
z
" transform="scale(0.015625)"/>
      <path id="DejaVuSans-79" d="M 2059 -325 
Q 1816 -950 1584 -1140 
Q 1353 -1331 966 -1331 
L 506 -1331 
L 506 -850 
L 844 -850 
Q 1081 -850 1212 -737 
Q 1344 -625 1503 -206 
L 1606 56 
L 191 3500 
L 800 3500 
L 1894 763 
L 2988 3500 
L 3597 3500 
L 2059 -325 
z
" transform="scale(0.015625)"/>
     </defs>
     <use xlink:href="#DejaVuSans-67"/>
     <use xlink:href="#DejaVuSans-65" x="63.476562"/>
     <use xlink:href="#DejaVuSans-74" x="125"/>
     <use xlink:href="#DejaVuSans-5f" x="164.208984"/>
     <use xlink:href="#DejaVuSans-73" x="214.208984"/>
     <use xlink:href="#DejaVuSans-75" x="266.308594"/>
     <use xlink:href="#DejaVuSans-62" x="329.6875"/>
     <use xlink:href="#DejaVuSans-73" x="393.164062"/>
     <use xlink:href="#DejaVuSans-63" x="445.263672"/>
     <use xlink:href="#DejaVuSans-72" x="500.244141"/>
     <use xlink:href="#DejaVuSans-69" x="541.357422"/>
     <use xlink:href="#DejaVuSans-62" x="569.140625"/>
     <use xlink:href="#DejaVuSans-65" x="632.617188"/>
     <use xlink:href="#DejaVuSans-20" x="694.140625"/>
     <use xlink:href="#DejaVuSans-68" x="725.927734"/>
     <use xlink:href="#DejaVuSans-69" x="789.306641"/>
     <use xlink:href="#DejaVuSans-73" x="817.089844"/>
     <use xlink:href="#DejaVuSans-74" x="869.189453"/>
     <use xlink:href="#DejaVuSans-6f" x="908.398438"/>
     <use xlink:href="#DejaVuSans-72" x="969.580078"/>
     <use xlink:href="#DejaVuSans-79" x="1010.693359"/>
    </g>
   </g>
   <g id="legend_1">
    <g id="line2d_41">
     <path d="M 815.08 328.498438 
L 825.08 328.498438 
L 835.08 328.498438 
" style="fill: none; stroke: #1f77b4; stroke-width: 1.5; stroke-linecap: square"/>
    </g>
    <g id="text_21">
     <!-- star -->
     <g style="fill: #a9a9a9" transform="translate(843.08 331.998438) scale(0.1 -0.1)">
      <defs>
       <path id="DejaVuSans-61" d="M 2194 1759 
Q 1497 1759 1228 1600 
Q 959 1441 959 1056 
Q 959 750 1161 570 
Q 1363 391 1709 391 
Q 2188 391 2477 730 
Q 2766 1069 2766 1631 
L 2766 1759 
L 2194 1759 
z
M 3341 1997 
L 3341 0 
L 2766 0 
L 2766 531 
Q 2569 213 2275 61 
Q 1981 -91 1556 -91 
Q 1019 -91 701 211 
Q 384 513 384 1019 
Q 384 1609 779 1909 
Q 1175 2209 1959 2209 
L 2766 2209 
L 2766 2266 
Q 2766 2663 2505 2880 
Q 2244 3097 1772 3097 
Q 1472 3097 1187 3025 
Q 903 2953 641 2809 
L 641 3341 
Q 956 3463 1253 3523 
Q 1550 3584 1831 3584 
Q 2591 3584 2966 3190 
Q 3341 2797 3341 1997 
z
" transform="scale(0.015625)"/>
      </defs>
      <use xlink:href="#DejaVuSans-73"/>
      <use xlink:href="#DejaVuSans-74" x="52.099609"/>
      <use xlink:href="#DejaVuSans-61" x="91.308594"/>
      <use xlink:href="#DejaVuSans-72" x="152.587891"/>
     </g>
    </g>
    <g id="line2d_42">
     <path d="M 815.08 343.176562 
L 825.08 343.176562 
L 835.08 343.176562 
" style="fill: none; stroke: #ff7f0e; stroke-width: 1.5; stroke-linecap: square"/>
    </g>
    <g id="text_22">
     <!-- fork -->
     <g style="fill: #a9a9a9" transform="translate(843.08 346.676562) scale(0.1 -0.1)">
      <defs>
       <path id="DejaVuSans-66" d="M 2375 4863 
L 2375 4384 
L 1825 4384 
Q 1516 4384 1395 4259 
Q 1275 4134 1275 3809 
L 1275 3500 
L 2222 3500 
L 2222 3053 
L 1275 3053 
L 1275 0 
L 697 0 
L 697 3053 
L 147 3053 
L 147 3500 
L 697 3500 
L 697 3744 
Q 697 4328 969 4595 
Q 1241 4863 1831 4863 
L 2375 4863 
z
" transform="scale(0.015625)"/>
       <path id="DejaVuSans-6b" d="M 581 4863 
L 1159 4863 
L 1159 1991 
L 2875 3500 
L 3609 3500 
L 1753 1863 
L 3688 0 
L 2938 0 
L 1159 1709 
L 1159 0 
L 581 0 
L 581 4863 
z
" transform="scale(0.015625)"/>
      </defs>
      <use xlink:href="#DejaVuSans-66"/>
      <use xlink:href="#DejaVuSans-6f" x="35.205078"/>
      <use xlink:href="#DejaVuSans-72" x="96.386719"/>
      <use xlink:href="#DejaVuSans-6b" x="137.5"/>
     </g>
    </g>
   </g>
  </g>
 </g>
 <defs>
  <clipPath id="p93a8512af9">
   <rect x="108" y="43.2" width="669.6" height="277.2"/>
  </clipPath>
 </defs>
</svg>
