<?xml version="1.0" encoding="utf-8" standalone="no"?>
<!DOCTYPE svg PUBLIC "-//W3C//DTD SVG 1.1//EN"
  "http://www.w3.org/Graphics/SVG/1.1/DTD/svg11.dtd">
<svg xmlns:xlink="http://www.w3.org/1999/xlink" width="864pt" height="360pt" viewBox="0 0 864 360" xmlns="http://www.w3.org/2000/svg" version="1.1">
 <metadata>
  <rdf:RDF xmlns:dc="http://purl.org/dc/elements/1.1/" xmlns:cc="http://creativecommons.org/ns#" xmlns:rdf="http://www.w3.org/1999/02/22-rdf-syntax-ns#">
   <cc:Work>
    <dc:type rdf:resource="http://purl.org/dc/dcmitype/StillImage"/>
    <dc:date>2024-10-01T20:05:40.941330</dc:date>
    <dc:format>image/svg+xml</dc:format>
    <dc:creator>
     <cc:Agent>
      <dc:title>Matplotlib v3.9.2, https://matplotlib.org/</dc:title>
     </cc:Agent>
    </dc:creator>
   </cc:Work>
  </rdf:RDF>
 </metadata>
 <defs>
  <style type="text/css">*{stroke-linejoin: round; stroke-linecap: butt}</style>
 </defs>
 <g id="figure_1">
  <g id="patch_1">
   <path d="M 0 360 
L 864 360 
L 864 0 
L 0 0 
L 0 360 
z
" style="fill: none; opacity: 0"/>
  </g>
  <g id="axes_1">
   <g id="patch_2">
    <path d="M 108 320.4 
L 777.6 320.4 
L 777.6 43.2 
L 108 43.2 
L 108 320.4 
z
" style="fill: none; opacity: 0"/>
   </g>
   <g id="matplotlib.axis_1">
    <g id="xtick_1">
     <g id="line2d_1">
      <path d="M 158.814358 320.4 
L 158.814358 43.2 
" clip-path="url(#p5792901a9a)" style="fill: none; stroke-dasharray: 5.12,1.28,0.8,1.28; stroke-dashoffset: 0; stroke: #b0b0b0; stroke-width: 0.8"/>
     </g>
     <g id="line2d_2">
      <defs>
       <path id="m2e4670c7e6" d="M 0 0 
L 0 3.5 
" style="stroke: #a9a9a9; stroke-width: 0.8"/>
      </defs>
      <g>
       <use xlink:href="#m2e4670c7e6" x="158.814358" y="320.4" style="fill: #a9a9a9; stroke: #a9a9a9; stroke-width: 0.8"/>
      </g>
     </g>
     <g id="text_1">
      <!-- 2021-09 -->
      <g style="fill: #a9a9a9" transform="translate(137.922952 334.998438) scale(0.1 -0.1)">
       <defs>
        <path id="DejaVuSans-32" d="M 1228 531 
L 3431 531 
L 3431 0 
L 469 0 
L 469 531 
Q 828 903 1448 1529 
Q 2069 2156 2228 2338 
Q 2531 2678 2651 2914 
Q 2772 3150 2772 3378 
Q 2772 3750 2511 3984 
Q 2250 4219 1831 4219 
Q 1534 4219 1204 4116 
Q 875 4013 500 3803 
L 500 4441 
Q 881 4594 1212 4672 
Q 1544 4750 1819 4750 
Q 2544 4750 2975 4387 
Q 3406 4025 3406 3419 
Q 3406 3131 3298 2873 
Q 3191 2616 2906 2266 
Q 2828 2175 2409 1742 
Q 1991 1309 1228 531 
z
" transform="scale(0.015625)"/>
        <path id="DejaVuSans-30" d="M 2034 4250 
Q 1547 4250 1301 3770 
Q 1056 3291 1056 2328 
Q 1056 1369 1301 889 
Q 1547 409 2034 409 
Q 2525 409 2770 889 
Q 3016 1369 3016 2328 
Q 3016 3291 2770 3770 
Q 2525 4250 2034 4250 
z
M 2034 4750 
Q 2819 4750 3233 4129 
Q 3647 3509 3647 2328 
Q 3647 1150 3233 529 
Q 2819 -91 2034 -91 
Q 1250 -91 836 529 
Q 422 1150 422 2328 
Q 422 3509 836 4129 
Q 1250 4750 2034 4750 
z
" transform="scale(0.015625)"/>
        <path id="DejaVuSans-31" d="M 794 531 
L 1825 531 
L 1825 4091 
L 703 3866 
L 703 4441 
L 1819 4666 
L 2450 4666 
L 2450 531 
L 3481 531 
L 3481 0 
L 794 0 
L 794 531 
z
" transform="scale(0.015625)"/>
        <path id="DejaVuSans-2d" d="M 313 2009 
L 1997 2009 
L 1997 1497 
L 313 1497 
L 313 2009 
z
" transform="scale(0.015625)"/>
        <path id="DejaVuSans-39" d="M 703 97 
L 703 672 
Q 941 559 1184 500 
Q 1428 441 1663 441 
Q 2288 441 2617 861 
Q 2947 1281 2994 2138 
Q 2813 1869 2534 1725 
Q 2256 1581 1919 1581 
Q 1219 1581 811 2004 
Q 403 2428 403 3163 
Q 403 3881 828 4315 
Q 1253 4750 1959 4750 
Q 2769 4750 3195 4129 
Q 3622 3509 3622 2328 
Q 3622 1225 3098 567 
Q 2575 -91 1691 -91 
Q 1453 -91 1209 -44 
Q 966 3 703 97 
z
M 1959 2075 
Q 2384 2075 2632 2365 
Q 2881 2656 2881 3163 
Q 2881 3666 2632 3958 
Q 2384 4250 1959 4250 
Q 1534 4250 1286 3958 
Q 1038 3666 1038 3163 
Q 1038 2656 1286 2365 
Q 1534 2075 1959 2075 
z
" transform="scale(0.015625)"/>
       </defs>
       <use xlink:href="#DejaVuSans-32"/>
       <use xlink:href="#DejaVuSans-30" x="63.623047"/>
       <use xlink:href="#DejaVuSans-32" x="127.246094"/>
       <use xlink:href="#DejaVuSans-31" x="190.869141"/>
       <use xlink:href="#DejaVuSans-2d" x="254.492188"/>
       <use xlink:href="#DejaVuSans-30" x="290.576172"/>
       <use xlink:href="#DejaVuSans-39" x="354.199219"/>
      </g>
     </g>
    </g>
    <g id="xtick_2">
     <g id="line2d_3">
      <path d="M 222.560905 320.4 
L 222.560905 43.2 
" clip-path="url(#p5792901a9a)" style="fill: none; stroke-dasharray: 5.12,1.28,0.8,1.28; stroke-dashoffset: 0; stroke: #b0b0b0; stroke-width: 0.8"/>
     </g>
     <g id="line2d_4">
      <g>
       <use xlink:href="#m2e4670c7e6" x="222.560905" y="320.4" style="fill: #a9a9a9; stroke: #a9a9a9; stroke-width: 0.8"/>
      </g>
     </g>
     <g id="text_2">
      <!-- 2022-01 -->
      <g style="fill: #a9a9a9" transform="translate(201.669499 334.998438) scale(0.1 -0.1)">
       <use xlink:href="#DejaVuSans-32"/>
       <use xlink:href="#DejaVuSans-30" x="63.623047"/>
       <use xlink:href="#DejaVuSans-32" x="127.246094"/>
       <use xlink:href="#DejaVuSans-32" x="190.869141"/>
       <use xlink:href="#DejaVuSans-2d" x="254.492188"/>
       <use xlink:href="#DejaVuSans-30" x="290.576172"/>
       <use xlink:href="#DejaVuSans-31" x="354.199219"/>
      </g>
     </g>
    </g>
    <g id="xtick_3">
     <g id="line2d_5">
      <path d="M 285.262427 320.4 
L 285.262427 43.2 
" clip-path="url(#p5792901a9a)" style="fill: none; stroke-dasharray: 5.12,1.28,0.8,1.28; stroke-dashoffset: 0; stroke: #b0b0b0; stroke-width: 0.8"/>
     </g>
     <g id="line2d_6">
      <g>
       <use xlink:href="#m2e4670c7e6" x="285.262427" y="320.4" style="fill: #a9a9a9; stroke: #a9a9a9; stroke-width: 0.8"/>
      </g>
     </g>
     <g id="text_3">
      <!-- 2022-05 -->
      <g style="fill: #a9a9a9" transform="translate(264.371021 334.998438) scale(0.1 -0.1)">
       <defs>
        <path id="DejaVuSans-35" d="M 691 4666 
L 3169 4666 
L 3169 4134 
L 1269 4134 
L 1269 2991 
Q 1406 3038 1543 3061 
Q 1681 3084 1819 3084 
Q 2600 3084 3056 2656 
Q 3513 2228 3513 1497 
Q 3513 744 3044 326 
Q 2575 -91 1722 -91 
Q 1428 -91 1123 -41 
Q 819 9 494 109 
L 494 744 
Q 775 591 1075 516 
Q 1375 441 1709 441 
Q 2250 441 2565 725 
Q 2881 1009 2881 1497 
Q 2881 1984 2565 2268 
Q 2250 2553 1709 2553 
Q 1456 2553 1204 2497 
Q 953 2441 691 2322 
L 691 4666 
z
" transform="scale(0.015625)"/>
       </defs>
       <use xlink:href="#DejaVuSans-32"/>
       <use xlink:href="#DejaVuSans-30" x="63.623047"/>
       <use xlink:href="#DejaVuSans-32" x="127.246094"/>
       <use xlink:href="#DejaVuSans-32" x="190.869141"/>
       <use xlink:href="#DejaVuSans-2d" x="254.492188"/>
       <use xlink:href="#DejaVuSans-30" x="290.576172"/>
       <use xlink:href="#DejaVuSans-35" x="354.199219"/>
      </g>
     </g>
    </g>
    <g id="xtick_4">
     <g id="line2d_7">
      <path d="M 349.531487 320.4 
L 349.531487 43.2 
" clip-path="url(#p5792901a9a)" style="fill: none; stroke-dasharray: 5.12,1.28,0.8,1.28; stroke-dashoffset: 0; stroke: #b0b0b0; stroke-width: 0.8"/>
     </g>
     <g id="line2d_8">
      <g>
       <use xlink:href="#m2e4670c7e6" x="349.531487" y="320.4" style="fill: #a9a9a9; stroke: #a9a9a9; stroke-width: 0.8"/>
      </g>
     </g>
     <g id="text_4">
      <!-- 2022-09 -->
      <g style="fill: #a9a9a9" transform="translate(328.64008 334.998438) scale(0.1 -0.1)">
       <use xlink:href="#DejaVuSans-32"/>
       <use xlink:href="#DejaVuSans-30" x="63.623047"/>
       <use xlink:href="#DejaVuSans-32" x="127.246094"/>
       <use xlink:href="#DejaVuSans-32" x="190.869141"/>
       <use xlink:href="#DejaVuSans-2d" x="254.492188"/>
       <use xlink:href="#DejaVuSans-30" x="290.576172"/>
       <use xlink:href="#DejaVuSans-39" x="354.199219"/>
      </g>
     </g>
    </g>
    <g id="xtick_5">
     <g id="line2d_9">
      <path d="M 413.278034 320.4 
L 413.278034 43.2 
" clip-path="url(#p5792901a9a)" style="fill: none; stroke-dasharray: 5.12,1.28,0.8,1.28; stroke-dashoffset: 0; stroke: #b0b0b0; stroke-width: 0.8"/>
     </g>
     <g id="line2d_10">
      <g>
       <use xlink:href="#m2e4670c7e6" x="413.278034" y="320.4" style="fill: #a9a9a9; stroke: #a9a9a9; stroke-width: 0.8"/>
      </g>
     </g>
     <g id="text_5">
      <!-- 2023-01 -->
      <g style="fill: #a9a9a9" transform="translate(392.386627 334.998438) scale(0.1 -0.1)">
       <defs>
        <path id="DejaVuSans-33" d="M 2597 2516 
Q 3050 2419 3304 2112 
Q 3559 1806 3559 1356 
Q 3559 666 3084 287 
Q 2609 -91 1734 -91 
Q 1441 -91 1130 -33 
Q 819 25 488 141 
L 488 750 
Q 750 597 1062 519 
Q 1375 441 1716 441 
Q 2309 441 2620 675 
Q 2931 909 2931 1356 
Q 2931 1769 2642 2001 
Q 2353 2234 1838 2234 
L 1294 2234 
L 1294 2753 
L 1863 2753 
Q 2328 2753 2575 2939 
Q 2822 3125 2822 3475 
Q 2822 3834 2567 4026 
Q 2313 4219 1838 4219 
Q 1578 4219 1281 4162 
Q 984 4106 628 3988 
L 628 4550 
Q 988 4650 1302 4700 
Q 1616 4750 1894 4750 
Q 2613 4750 3031 4423 
Q 3450 4097 3450 3541 
Q 3450 3153 3228 2886 
Q 3006 2619 2597 2516 
z
" transform="scale(0.015625)"/>
       </defs>
       <use xlink:href="#DejaVuSans-32"/>
       <use xlink:href="#DejaVuSans-30" x="63.623047"/>
       <use xlink:href="#DejaVuSans-32" x="127.246094"/>
       <use xlink:href="#DejaVuSans-33" x="190.869141"/>
       <use xlink:href="#DejaVuSans-2d" x="254.492188"/>
       <use xlink:href="#DejaVuSans-30" x="290.576172"/>
       <use xlink:href="#DejaVuSans-31" x="354.199219"/>
      </g>
     </g>
    </g>
    <g id="xtick_6">
     <g id="line2d_11">
      <path d="M 475.979555 320.4 
L 475.979555 43.2 
" clip-path="url(#p5792901a9a)" style="fill: none; stroke-dasharray: 5.12,1.28,0.8,1.28; stroke-dashoffset: 0; stroke: #b0b0b0; stroke-width: 0.8"/>
     </g>
     <g id="line2d_12">
      <g>
       <use xlink:href="#m2e4670c7e6" x="475.979555" y="320.4" style="fill: #a9a9a9; stroke: #a9a9a9; stroke-width: 0.8"/>
      </g>
     </g>
     <g id="text_6">
      <!-- 2023-05 -->
      <g style="fill: #a9a9a9" transform="translate(455.088149 334.998438) scale(0.1 -0.1)">
       <use xlink:href="#DejaVuSans-32"/>
       <use xlink:href="#DejaVuSans-30" x="63.623047"/>
       <use xlink:href="#DejaVuSans-32" x="127.246094"/>
       <use xlink:href="#DejaVuSans-33" x="190.869141"/>
       <use xlink:href="#DejaVuSans-2d" x="254.492188"/>
       <use xlink:href="#DejaVuSans-30" x="290.576172"/>
       <use xlink:href="#DejaVuSans-35" x="354.199219"/>
      </g>
     </g>
    </g>
    <g id="xtick_7">
     <g id="line2d_13">
      <path d="M 540.248615 320.4 
L 540.248615 43.2 
" clip-path="url(#p5792901a9a)" style="fill: none; stroke-dasharray: 5.12,1.28,0.8,1.28; stroke-dashoffset: 0; stroke: #b0b0b0; stroke-width: 0.8"/>
     </g>
     <g id="line2d_14">
      <g>
       <use xlink:href="#m2e4670c7e6" x="540.248615" y="320.4" style="fill: #a9a9a9; stroke: #a9a9a9; stroke-width: 0.8"/>
      </g>
     </g>
     <g id="text_7">
      <!-- 2023-09 -->
      <g style="fill: #a9a9a9" transform="translate(519.357209 334.998438) scale(0.1 -0.1)">
       <use xlink:href="#DejaVuSans-32"/>
       <use xlink:href="#DejaVuSans-30" x="63.623047"/>
       <use xlink:href="#DejaVuSans-32" x="127.246094"/>
       <use xlink:href="#DejaVuSans-33" x="190.869141"/>
       <use xlink:href="#DejaVuSans-2d" x="254.492188"/>
       <use xlink:href="#DejaVuSans-30" x="290.576172"/>
       <use xlink:href="#DejaVuSans-39" x="354.199219"/>
      </g>
     </g>
    </g>
    <g id="xtick_8">
     <g id="line2d_15">
      <path d="M 603.995162 320.4 
L 603.995162 43.2 
" clip-path="url(#p5792901a9a)" style="fill: none; stroke-dasharray: 5.12,1.28,0.8,1.28; stroke-dashoffset: 0; stroke: #b0b0b0; stroke-width: 0.8"/>
     </g>
     <g id="line2d_16">
      <g>
       <use xlink:href="#m2e4670c7e6" x="603.995162" y="320.4" style="fill: #a9a9a9; stroke: #a9a9a9; stroke-width: 0.8"/>
      </g>
     </g>
     <g id="text_8">
      <!-- 2024-01 -->
      <g style="fill: #a9a9a9" transform="translate(583.103756 334.998438) scale(0.1 -0.1)">
       <defs>
        <path id="DejaVuSans-34" d="M 2419 4116 
L 825 1625 
L 2419 1625 
L 2419 4116 
z
M 2253 4666 
L 3047 4666 
L 3047 1625 
L 3713 1625 
L 3713 1100 
L 3047 1100 
L 3047 0 
L 2419 0 
L 2419 1100 
L 313 1100 
L 313 1709 
L 2253 4666 
z
" transform="scale(0.015625)"/>
       </defs>
       <use xlink:href="#DejaVuSans-32"/>
       <use xlink:href="#DejaVuSans-30" x="63.623047"/>
       <use xlink:href="#DejaVuSans-32" x="127.246094"/>
       <use xlink:href="#DejaVuSans-34" x="190.869141"/>
       <use xlink:href="#DejaVuSans-2d" x="254.492188"/>
       <use xlink:href="#DejaVuSans-30" x="290.576172"/>
       <use xlink:href="#DejaVuSans-31" x="354.199219"/>
      </g>
     </g>
    </g>
    <g id="xtick_9">
     <g id="line2d_17">
      <path d="M 667.219196 320.4 
L 667.219196 43.2 
" clip-path="url(#p5792901a9a)" style="fill: none; stroke-dasharray: 5.12,1.28,0.8,1.28; stroke-dashoffset: 0; stroke: #b0b0b0; stroke-width: 0.8"/>
     </g>
     <g id="line2d_18">
      <g>
       <use xlink:href="#m2e4670c7e6" x="667.219196" y="320.4" style="fill: #a9a9a9; stroke: #a9a9a9; stroke-width: 0.8"/>
      </g>
     </g>
     <g id="text_9">
      <!-- 2024-05 -->
      <g style="fill: #a9a9a9" transform="translate(646.32779 334.998438) scale(0.1 -0.1)">
       <use xlink:href="#DejaVuSans-32"/>
       <use xlink:href="#DejaVuSans-30" x="63.623047"/>
       <use xlink:href="#DejaVuSans-32" x="127.246094"/>
       <use xlink:href="#DejaVuSans-34" x="190.869141"/>
       <use xlink:href="#DejaVuSans-2d" x="254.492188"/>
       <use xlink:href="#DejaVuSans-30" x="290.576172"/>
       <use xlink:href="#DejaVuSans-35" x="354.199219"/>
      </g>
     </g>
    </g>
    <g id="xtick_10">
     <g id="line2d_19">
      <path d="M 731.488256 320.4 
L 731.488256 43.2 
" clip-path="url(#p5792901a9a)" style="fill: none; stroke-dasharray: 5.12,1.28,0.8,1.28; stroke-dashoffset: 0; stroke: #b0b0b0; stroke-width: 0.8"/>
     </g>
     <g id="line2d_20">
      <g>
       <use xlink:href="#m2e4670c7e6" x="731.488256" y="320.4" style="fill: #a9a9a9; stroke: #a9a9a9; stroke-width: 0.8"/>
      </g>
     </g>
     <g id="text_10">
      <!-- 2024-09 -->
      <g style="fill: #a9a9a9" transform="translate(710.59685 334.998438) scale(0.1 -0.1)">
       <use xlink:href="#DejaVuSans-32"/>
       <use xlink:href="#DejaVuSans-30" x="63.623047"/>
       <use xlink:href="#DejaVuSans-32" x="127.246094"/>
       <use xlink:href="#DejaVuSans-34" x="190.869141"/>
       <use xlink:href="#DejaVuSans-2d" x="254.492188"/>
       <use xlink:href="#DejaVuSans-30" x="290.576172"/>
       <use xlink:href="#DejaVuSans-39" x="354.199219"/>
      </g>
     </g>
    </g>
   </g>
   <g id="matplotlib.axis_2">
    <g id="ytick_1">
     <g id="line2d_21">
      <path d="M 108 307.837361 
L 777.6 307.837361 
" clip-path="url(#p5792901a9a)" style="fill: none; stroke-dasharray: 5.12,1.28,0.8,1.28; stroke-dashoffset: 0; stroke: #b0b0b0; stroke-width: 0.8"/>
     </g>
     <g id="line2d_22">
      <defs>
       <path id="m9307a30091" d="M 0 0 
L -3.5 0 
" style="stroke: #a9a9a9; stroke-width: 0.8"/>
      </defs>
      <g>
       <use xlink:href="#m9307a30091" x="108" y="307.837361" style="fill: #a9a9a9; stroke: #a9a9a9; stroke-width: 0.8"/>
      </g>
     </g>
     <g id="text_11">
      <!-- 0 -->
      <g style="fill: #a9a9a9" transform="translate(94.6375 311.63658) scale(0.1 -0.1)">
       <use xlink:href="#DejaVuSans-30"/>
      </g>
     </g>
    </g>
    <g id="ytick_2">
     <g id="line2d_23">
      <path d="M 108 277.948554 
L 777.6 277.948554 
" clip-path="url(#p5792901a9a)" style="fill: none; stroke-dasharray: 5.12,1.28,0.8,1.28; stroke-dashoffset: 0; stroke: #b0b0b0; stroke-width: 0.8"/>
     </g>
     <g id="line2d_24">
      <g>
       <use xlink:href="#m9307a30091" x="108" y="277.948554" style="fill: #a9a9a9; stroke: #a9a9a9; stroke-width: 0.8"/>
      </g>
     </g>
     <g id="text_12">
      <!-- 800 -->
      <g style="fill: #a9a9a9" transform="translate(81.9125 281.747773) scale(0.1 -0.1)">
       <defs>
        <path id="DejaVuSans-38" d="M 2034 2216 
Q 1584 2216 1326 1975 
Q 1069 1734 1069 1313 
Q 1069 891 1326 650 
Q 1584 409 2034 409 
Q 2484 409 2743 651 
Q 3003 894 3003 1313 
Q 3003 1734 2745 1975 
Q 2488 2216 2034 2216 
z
M 1403 2484 
Q 997 2584 770 2862 
Q 544 3141 544 3541 
Q 544 4100 942 4425 
Q 1341 4750 2034 4750 
Q 2731 4750 3128 4425 
Q 3525 4100 3525 3541 
Q 3525 3141 3298 2862 
Q 3072 2584 2669 2484 
Q 3125 2378 3379 2068 
Q 3634 1759 3634 1313 
Q 3634 634 3220 271 
Q 2806 -91 2034 -91 
Q 1263 -91 848 271 
Q 434 634 434 1313 
Q 434 1759 690 2068 
Q 947 2378 1403 2484 
z
M 1172 3481 
Q 1172 3119 1398 2916 
Q 1625 2713 2034 2713 
Q 2441 2713 2670 2916 
Q 2900 3119 2900 3481 
Q 2900 3844 2670 4047 
Q 2441 4250 2034 4250 
Q 1625 4250 1398 4047 
Q 1172 3844 1172 3481 
z
" transform="scale(0.015625)"/>
       </defs>
       <use xlink:href="#DejaVuSans-38"/>
       <use xlink:href="#DejaVuSans-30" x="63.623047"/>
       <use xlink:href="#DejaVuSans-30" x="127.246094"/>
      </g>
     </g>
    </g>
    <g id="ytick_3">
     <g id="line2d_25">
      <path d="M 108 248.059748 
L 777.6 248.059748 
" clip-path="url(#p5792901a9a)" style="fill: none; stroke-dasharray: 5.12,1.28,0.8,1.28; stroke-dashoffset: 0; stroke: #b0b0b0; stroke-width: 0.8"/>
     </g>
     <g id="line2d_26">
      <g>
       <use xlink:href="#m9307a30091" x="108" y="248.059748" style="fill: #a9a9a9; stroke: #a9a9a9; stroke-width: 0.8"/>
      </g>
     </g>
     <g id="text_13">
      <!-- 1600 -->
      <g style="fill: #a9a9a9" transform="translate(75.55 251.858967) scale(0.1 -0.1)">
       <defs>
        <path id="DejaVuSans-36" d="M 2113 2584 
Q 1688 2584 1439 2293 
Q 1191 2003 1191 1497 
Q 1191 994 1439 701 
Q 1688 409 2113 409 
Q 2538 409 2786 701 
Q 3034 994 3034 1497 
Q 3034 2003 2786 2293 
Q 2538 2584 2113 2584 
z
M 3366 4563 
L 3366 3988 
Q 3128 4100 2886 4159 
Q 2644 4219 2406 4219 
Q 1781 4219 1451 3797 
Q 1122 3375 1075 2522 
Q 1259 2794 1537 2939 
Q 1816 3084 2150 3084 
Q 2853 3084 3261 2657 
Q 3669 2231 3669 1497 
Q 3669 778 3244 343 
Q 2819 -91 2113 -91 
Q 1303 -91 875 529 
Q 447 1150 447 2328 
Q 447 3434 972 4092 
Q 1497 4750 2381 4750 
Q 2619 4750 2861 4703 
Q 3103 4656 3366 4563 
z
" transform="scale(0.015625)"/>
       </defs>
       <use xlink:href="#DejaVuSans-31"/>
       <use xlink:href="#DejaVuSans-36" x="63.623047"/>
       <use xlink:href="#DejaVuSans-30" x="127.246094"/>
       <use xlink:href="#DejaVuSans-30" x="190.869141"/>
      </g>
     </g>
    </g>
    <g id="ytick_4">
     <g id="line2d_27">
      <path d="M 108 218.170941 
L 777.6 218.170941 
" clip-path="url(#p5792901a9a)" style="fill: none; stroke-dasharray: 5.12,1.28,0.8,1.28; stroke-dashoffset: 0; stroke: #b0b0b0; stroke-width: 0.8"/>
     </g>
     <g id="line2d_28">
      <g>
       <use xlink:href="#m9307a30091" x="108" y="218.170941" style="fill: #a9a9a9; stroke: #a9a9a9; stroke-width: 0.8"/>
      </g>
     </g>
     <g id="text_14">
      <!-- 2400 -->
      <g style="fill: #a9a9a9" transform="translate(75.55 221.97016) scale(0.1 -0.1)">
       <use xlink:href="#DejaVuSans-32"/>
       <use xlink:href="#DejaVuSans-34" x="63.623047"/>
       <use xlink:href="#DejaVuSans-30" x="127.246094"/>
       <use xlink:href="#DejaVuSans-30" x="190.869141"/>
      </g>
     </g>
    </g>
    <g id="ytick_5">
     <g id="line2d_29">
      <path d="M 108 188.282135 
L 777.6 188.282135 
" clip-path="url(#p5792901a9a)" style="fill: none; stroke-dasharray: 5.12,1.28,0.8,1.28; stroke-dashoffset: 0; stroke: #b0b0b0; stroke-width: 0.8"/>
     </g>
     <g id="line2d_30">
      <g>
       <use xlink:href="#m9307a30091" x="108" y="188.282135" style="fill: #a9a9a9; stroke: #a9a9a9; stroke-width: 0.8"/>
      </g>
     </g>
     <g id="text_15">
      <!-- 3200 -->
      <g style="fill: #a9a9a9" transform="translate(75.55 192.081354) scale(0.1 -0.1)">
       <use xlink:href="#DejaVuSans-33"/>
       <use xlink:href="#DejaVuSans-32" x="63.623047"/>
       <use xlink:href="#DejaVuSans-30" x="127.246094"/>
       <use xlink:href="#DejaVuSans-30" x="190.869141"/>
      </g>
     </g>
    </g>
    <g id="ytick_6">
     <g id="line2d_31">
      <path d="M 108 158.393328 
L 777.6 158.393328 
" clip-path="url(#p5792901a9a)" style="fill: none; stroke-dasharray: 5.12,1.28,0.8,1.28; stroke-dashoffset: 0; stroke: #b0b0b0; stroke-width: 0.8"/>
     </g>
     <g id="line2d_32">
      <g>
       <use xlink:href="#m9307a30091" x="108" y="158.393328" style="fill: #a9a9a9; stroke: #a9a9a9; stroke-width: 0.8"/>
      </g>
     </g>
     <g id="text_16">
      <!-- 4000 -->
      <g style="fill: #a9a9a9" transform="translate(75.55 162.192547) scale(0.1 -0.1)">
       <use xlink:href="#DejaVuSans-34"/>
       <use xlink:href="#DejaVuSans-30" x="63.623047"/>
       <use xlink:href="#DejaVuSans-30" x="127.246094"/>
       <use xlink:href="#DejaVuSans-30" x="190.869141"/>
      </g>
     </g>
    </g>
    <g id="ytick_7">
     <g id="line2d_33">
      <path d="M 108 128.504522 
L 777.6 128.504522 
" clip-path="url(#p5792901a9a)" style="fill: none; stroke-dasharray: 5.12,1.28,0.8,1.28; stroke-dashoffset: 0; stroke: #b0b0b0; stroke-width: 0.8"/>
     </g>
     <g id="line2d_34">
      <g>
       <use xlink:href="#m9307a30091" x="108" y="128.504522" style="fill: #a9a9a9; stroke: #a9a9a9; stroke-width: 0.8"/>
      </g>
     </g>
     <g id="text_17">
      <!-- 4800 -->
      <g style="fill: #a9a9a9" transform="translate(75.55 132.303741) scale(0.1 -0.1)">
       <use xlink:href="#DejaVuSans-34"/>
       <use xlink:href="#DejaVuSans-38" x="63.623047"/>
       <use xlink:href="#DejaVuSans-30" x="127.246094"/>
       <use xlink:href="#DejaVuSans-30" x="190.869141"/>
      </g>
     </g>
    </g>
    <g id="ytick_8">
     <g id="line2d_35">
      <path d="M 108 98.615715 
L 777.6 98.615715 
" clip-path="url(#p5792901a9a)" style="fill: none; stroke-dasharray: 5.12,1.28,0.8,1.28; stroke-dashoffset: 0; stroke: #b0b0b0; stroke-width: 0.8"/>
     </g>
     <g id="line2d_36">
      <g>
       <use xlink:href="#m9307a30091" x="108" y="98.615715" style="fill: #a9a9a9; stroke: #a9a9a9; stroke-width: 0.8"/>
      </g>
     </g>
     <g id="text_18">
      <!-- 5600 -->
      <g style="fill: #a9a9a9" transform="translate(75.55 102.414934) scale(0.1 -0.1)">
       <use xlink:href="#DejaVuSans-35"/>
       <use xlink:href="#DejaVuSans-36" x="63.623047"/>
       <use xlink:href="#DejaVuSans-30" x="127.246094"/>
       <use xlink:href="#DejaVuSans-30" x="190.869141"/>
      </g>
     </g>
    </g>
    <g id="ytick_9">
     <g id="line2d_37">
      <path d="M 108 68.726909 
L 777.6 68.726909 
" clip-path="url(#p5792901a9a)" style="fill: none; stroke-dasharray: 5.12,1.28,0.8,1.28; stroke-dashoffset: 0; stroke: #b0b0b0; stroke-width: 0.8"/>
     </g>
     <g id="line2d_38">
      <g>
       <use xlink:href="#m9307a30091" x="108" y="68.726909" style="fill: #a9a9a9; stroke: #a9a9a9; stroke-width: 0.8"/>
      </g>
     </g>
     <g id="text_19">
      <!-- 6400 -->
      <g style="fill: #a9a9a9" transform="translate(75.55 72.526128) scale(0.1 -0.1)">
       <use xlink:href="#DejaVuSans-36"/>
       <use xlink:href="#DejaVuSans-34" x="63.623047"/>
       <use xlink:href="#DejaVuSans-30" x="127.246094"/>
       <use xlink:href="#DejaVuSans-30" x="190.869141"/>
      </g>
     </g>
    </g>
   </g>
   <g id="line2d_39">
    <path d="M 138.436364 307.725278 
L 141.57144 307.463751 
L 142.093952 307.239585 
L 143.66149 307.090141 
L 147.319079 306.417643 
L 149.931643 306.193477 
L 150.976668 305.782506 
L 151.499181 305.110007 
L 152.021693 304.736397 
L 152.544206 303.578206 
L 153.066719 303.503484 
L 153.589231 303.092513 
L 154.634257 302.569459 
L 156.724307 300.925574 
L 158.814358 299.916827 
L 160.381896 299.206968 
L 160.904409 298.385026 
L 161.949434 297.637806 
L 162.471947 297.41364 
L 167.697074 296.66642 
L 168.219586 296.442254 
L 171.877175 296.143365 
L 173.967226 295.657672 
L 178.147327 295.097257 
L 178.66984 294.83573 
L 179.192353 294.761008 
L 180.237378 294.424759 
L 183.894967 293.826983 
L 184.939992 293.528095 
L 189.642606 292.743514 
L 190.687632 292.519348 
L 191.732657 292.481987 
L 193.822708 291.996294 
L 194.34522 291.286434 
L 195.912758 290.688658 
L 197.480297 290.277687 
L 198.002809 290.01616 
L 198.525322 289.978799 
L 201.137885 289.231579 
L 202.182911 289.156857 
L 203.227936 288.89533 
L 205.317987 288.372276 
L 205.840499 288.334915 
L 206.885525 287.849222 
L 207.408037 287.7745 
L 207.93055 287.512973 
L 213.67819 286.578947 
L 215.76824 285.981171 
L 216.290753 285.644922 
L 218.903316 284.785619 
L 219.948342 284.07576 
L 221.51588 283.776872 
L 231.443621 280.900074 
L 232.488646 280.489103 
L 233.533671 280.414381 
L 235.10121 279.966049 
L 235.623722 279.966049 
L 236.146235 279.741883 
L 237.19126 279.6298 
L 237.713773 279.442995 
L 238.758798 279.405634 
L 240.848849 279.144107 
L 241.893874 278.621053 
L 248.164027 275.818977 
L 248.686539 275.258562 
L 249.731565 273.6894 
L 250.254077 273.539956 
L 250.77659 273.539956 
L 251.821615 272.755374 
L 253.389153 272.23232 
L 253.911666 271.746627 
L 254.956691 271.335656 
L 256.001717 270.849963 
L 257.046742 269.355523 
L 257.569255 269.019274 
L 258.091767 268.122609 
L 258.61428 267.562194 
L 261.749356 265.91831 
L 262.794382 265.096368 
L 263.316894 264.760119 
L 263.839407 263.975537 
L 264.36192 262.817346 
L 264.884432 262.032765 
L 265.406945 261.621794 
L 265.929458 261.397628 
L 269.587046 258.334025 
L 270.632072 257.101112 
L 271.677097 256.353892 
L 273.244635 255.307784 
L 273.767148 254.859451 
L 274.812173 254.523202 
L 276.379711 253.626538 
L 277.947249 252.617791 
L 280.0373 250.749741 
L 281.082325 250.338769 
L 282.127351 249.62891 
L 282.649863 249.330022 
L 283.172376 249.2553 
L 286.829965 246.976279 
L 288.920016 245.855448 
L 289.442528 245.369755 
L 297.802731 242.455597 
L 298.847757 241.521572 
L 299.892782 241.035878 
L 300.937807 240.475463 
L 301.46032 240.176575 
L 302.505345 239.877687 
L 303.027858 239.541438 
L 303.550371 239.391994 
L 305.117909 238.383247 
L 307.730472 237.785471 
L 309.29801 236.888807 
L 310.865548 236.552557 
L 311.388061 236.403113 
L 312.955599 235.207561 
L 315.04565 234.647146 
L 315.568162 234.236175 
L 318.703238 233.190067 
L 319.225751 233.152706 
L 320.793289 232.592291 
L 324.450878 231.284655 
L 325.495903 231.135211 
L 327.063441 230.612157 
L 329.676005 229.379244 
L 331.766055 228.258414 
L 335.946157 226.577168 
L 336.46867 226.502446 
L 337.513695 225.867309 
L 338.036208 225.792587 
L 340.126258 224.933284 
L 342.216309 224.634396 
L 343.261334 224.111342 
L 343.783847 223.66301 
L 344.30636 222.728984 
L 346.39641 222.168569 
L 347.963948 221.383988 
L 348.486461 221.271905 
L 352.666563 219.291772 
L 354.234101 218.992884 
L 355.279126 218.46983 
L 355.801639 218.245663 
L 356.324151 218.170941 
L 358.414202 217.236916 
L 359.98174 216.26553 
L 361.549278 215.966642 
L 364.161842 215.331505 
L 364.684354 214.920534 
L 366.251892 214.360119 
L 368.341943 213.538176 
L 368.864456 213.164566 
L 369.386968 212.977761 
L 370.431994 212.417346 
L 373.044557 211.558043 
L 374.612095 210.32513 
L 375.134608 210.213047 
L 376.179633 209.391105 
L 376.702146 209.316383 
L 377.224659 208.49444 
L 377.747171 208.270274 
L 378.269684 207.859303 
L 378.792197 207.784581 
L 379.837222 207.149444 
L 380.882247 206.813195 
L 381.40476 206.402224 
L 381.927273 206.215419 
L 383.494811 205.13195 
L 385.584861 204.04848 
L 386.107374 203.973758 
L 387.674912 203.189177 
L 388.197425 202.329874 
L 388.719938 201.881542 
L 389.24245 201.582654 
L 389.764963 201.470571 
L 390.809988 200.798073 
L 391.332501 200.68599 
L 392.377526 200.162936 
L 394.467577 199.154188 
L 394.99009 198.780578 
L 396.557628 197.36086 
L 397.602653 196.763084 
L 398.125166 196.202669 
L 400.215217 194.78295 
L 400.737729 194.185174 
L 401.260242 193.774203 
L 402.305267 193.400593 
L 403.350293 192.690734 
L 404.917831 191.906153 
L 405.440343 191.831431 
L 407.007881 191.009489 
L 408.052907 190.374351 
L 413.278034 188.506301 
L 413.800546 188.09533 
L 415.890597 187.310749 
L 416.41311 187.161305 
L 416.935622 186.750334 
L 419.548186 185.330615 
L 420.593211 183.27576 
L 421.638236 182.080208 
L 422.683262 181.44507 
L 424.2508 180.809933 
L 424.773313 180.735211 
L 425.295825 180.436323 
L 427.908389 179.614381 
L 428.430901 179.390215 
L 429.475927 178.680356 
L 431.043465 178.007858 
L 432.08849 177.447443 
L 432.611003 177.073832 
L 433.133515 176.849666 
L 433.656028 176.476056 
L 434.178541 175.915641 
L 435.223566 175.355226 
L 437.83613 173.972869 
L 440.971206 172.441067 
L 442.016231 172.104818 
L 443.583769 171.619125 
L 445.67382 170.6851 
L 446.718845 170.274129 
L 447.241358 169.863158 
L 448.286383 169.526909 
L 451.421459 167.920385 
L 452.466485 167.098443 
L 453.51151 166.724833 
L 454.034023 166.276501 
L 454.556535 166.201779 
L 455.601561 165.417198 
L 456.646586 164.894144 
L 457.169099 164.669978 
L 457.691611 164.146924 
L 461.3492 162.727205 
L 462.394226 162.278873 
L 463.961764 161.79318 
L 465.006789 161.643736 
L 465.529302 161.41957 
L 466.051814 161.344848 
L 467.09684 160.896516 
L 467.619352 160.859155 
L 469.709403 160.074574 
L 471.276941 158.991105 
L 471.799454 158.804299 
L 472.844479 158.243884 
L 473.366992 158.09444 
L 476.502068 156.375834 
L 477.024581 156.263751 
L 478.592119 155.367087 
L 480.159657 154.844033 
L 481.204682 154.507784 
L 483.294733 153.835285 
L 484.339758 153.499036 
L 486.429809 153.088065 
L 486.952321 152.863899 
L 487.474834 152.789177 
L 488.51986 152.340845 
L 489.042372 152.266123 
L 489.564885 152.004596 
L 490.60991 151.817791 
L 492.177448 151.257376 
L 493.222474 151.145293 
L 494.790012 150.809044 
L 497.402575 150.360712 
L 510.987905 146.475167 
L 511.510417 145.952113 
L 512.555443 145.541142 
L 515.690519 144.420311 
L 516.213032 144.084062 
L 516.735544 143.971979 
L 517.258057 143.673091 
L 518.825595 143.224759 
L 519.87062 142.963232 
L 520.393133 142.626983 
L 520.915646 142.5149 
L 521.438158 142.066568 
L 523.005696 141.76768 
L 524.050722 141.281987 
L 524.573234 140.684211 
L 526.663285 140.198517 
L 530.320874 139.451297 
L 530.843387 139.451297 
L 531.365899 139.227131 
L 533.45595 138.853521 
L 533.978463 138.629355 
L 536.068513 138.255745 
L 537.113539 137.807413 
L 537.636052 137.770052 
L 546.518767 135.11742 
L 547.04128 134.893254 
L 547.563792 134.519644 
L 548.608818 134.220756 
L 549.653843 133.884507 
L 550.698869 133.473536 
L 552.266407 132.801038 
L 553.833945 132.688955 
L 555.923995 132.091179 
L 556.446508 131.792291 
L 557.491533 131.493403 
L 560.104097 130.335211 
L 560.626609 130.29785 
L 566.374249 128.317717 
L 568.986812 127.645219 
L 570.031838 127.159526 
L 571.599376 126.823277 
L 572.121888 126.412305 
L 572.644401 126.150778 
L 573.166914 125.515641 
L 573.689426 125.142031 
L 574.734452 124.843143 
L 575.256964 124.432172 
L 578.392041 123.273981 
L 578.914553 122.937732 
L 579.959579 122.638844 
L 580.482091 122.302595 
L 583.094655 121.443291 
L 584.662193 120.546627 
L 585.184705 120.434544 
L 586.229731 119.836768 
L 586.752243 119.612602 
L 587.797269 118.977465 
L 589.364807 118.230245 
L 589.88732 117.856635 
L 590.932345 117.520385 
L 591.97737 116.922609 
L 592.499883 116.735804 
L 593.022396 116.362194 
L 599.81506 114.008451 
L 600.337573 113.896368 
L 600.860086 113.560119 
L 602.950137 113.149148 
L 603.995162 112.738176 
L 604.517675 112.439288 
L 605.040187 112.289844 
L 607.130238 111.206375 
L 607.652751 111.131653 
L 609.220289 110.27235 
L 612.355365 109.039437 
L 614.445416 108.217494 
L 614.967928 108.06805 
L 615.490441 107.731801 
L 616.535466 107.582357 
L 617.057979 107.246108 
L 617.580492 107.208747 
L 618.625517 106.872498 
L 619.670542 106.349444 
L 620.193055 106.274722 
L 622.805618 105.228614 
L 624.373156 104.780282 
L 625.418182 104.518755 
L 626.98572 104.070423 
L 628.030745 103.659451 
L 630.120796 102.538621 
L 631.165821 102.12765 
L 631.688334 101.791401 
L 632.733359 101.567235 
L 633.255872 101.268347 
L 633.778385 101.156264 
L 635.345923 100.296961 
L 636.390948 99.88599 
L 637.958486 99.17613 
L 639.526024 98.765159 
L 642.6611 97.532246 
L 644.228638 97.009192 
L 652.066329 93.646701 
L 653.111354 93.385174 
L 657.813968 91.442402 
L 658.336481 91.442402 
L 659.381506 90.99407 
L 660.426531 90.060044 
L 660.949044 89.611712 
L 662.516582 88.864492 
L 663.039095 88.752409 
L 663.561607 88.490882 
L 664.08412 88.41616 
L 664.606633 88.04255 
L 665.129146 87.930467 
L 666.174171 87.29533 
L 667.741709 86.510749 
L 668.786734 86.099778 
L 669.309247 85.838251 
L 671.92181 85.203113 
L 672.444323 84.941586 
L 674.011861 84.493254 
L 676.101912 83.484507 
L 677.146937 82.998814 
L 678.191963 82.737287 
L 680.282013 81.765901 
L 680.804526 81.616457 
L 681.327039 81.280208 
L 684.462115 80.159377 
L 686.029653 79.225352 
L 686.552165 79.113269 
L 687.597191 78.590215 
L 688.642216 78.216605 
L 689.164729 77.768273 
L 690.209754 77.357302 
L 691.777292 76.722165 
L 692.299805 76.311193 
L 692.822318 76.273832 
L 693.867343 75.974944 
L 694.912368 75.638695 
L 695.434881 75.377168 
L 695.957394 75.302446 
L 697.524932 74.742031 
L 699.09247 74.181616 
L 700.137495 73.770645 
L 700.660008 73.359674 
L 702.227546 72.948703 
L 702.750059 72.649815 
L 703.795084 72.388288 
L 705.362622 71.528984 
L 705.885135 71.491623 
L 707.452673 71.00593 
L 708.497698 70.893847 
L 709.542723 70.482876 
L 712.677799 69.586212 
L 713.722825 69.548851 
L 716.857901 68.540104 
L 717.380414 68.465382 
L 718.947952 67.64344 
L 719.470464 67.195107 
L 721.038002 66.298443 
L 721.560515 65.887472 
L 722.60554 65.476501 
L 725.218104 64.579837 
L 725.740616 64.168866 
L 727.308155 63.459007 
L 727.830667 63.346924 
L 728.875693 62.861231 
L 730.443231 62.450259 
L 732.010769 61.777761 
L 733.055794 61.292068 
L 734.623332 60.656931 
L 735.145845 60.544848 
L 736.713383 59.797628 
L 737.235895 59.685545 
L 738.280921 58.975686 
L 739.848459 58.527354 
L 741.415997 57.481245 
L 741.93851 57.406523 
L 744.551073 56.360415 
L 746.118611 55.986805 
L 747.163636 55.8 
L 747.163636 55.8 
" clip-path="url(#p5792901a9a)" style="fill: none; stroke: #1f77b4; stroke-width: 1.5; stroke-linecap: square"/>
   </g>
   <g id="line2d_40">
    <path d="M 138.958876 307.8 
L 140.526414 307.725278 
L 142.093952 307.687917 
L 145.229028 307.613195 
L 147.841592 307.501112 
L 149.931643 307.501112 
L 150.454155 307.351668 
L 152.544206 307.276946 
L 154.111744 307.090141 
L 156.201795 306.903336 
L 157.769333 306.828614 
L 162.99446 306.529726 
L 167.174561 306.455004 
L 169.787124 306.342921 
L 176.057277 306.268199 
L 178.66984 306.156116 
L 181.804916 306.081394 
L 183.894967 306.006672 
L 188.597581 305.93195 
L 190.165119 305.894589 
L 191.732657 305.857228 
L 193.822708 305.670423 
L 195.390246 305.633062 
L 198.002809 305.55834 
L 200.09286 305.483617 
L 203.750449 305.408895 
L 205.840499 305.22209 
L 208.453063 305.147368 
L 210.020601 305.110007 
L 212.633164 305.035285 
L 214.200702 304.885841 
L 217.858291 304.811119 
L 220.470854 304.586953 
L 221.51588 304.47487 
L 226.218494 304.213343 
L 229.35357 304.138621 
L 234.056184 303.877094 
L 235.623722 303.802372 
L 240.848849 303.503484 
L 246.596488 303.428762 
L 248.686539 303.204596 
L 249.731565 303.129874 
L 256.524229 302.569459 
L 260.181818 302.158488 
L 261.749356 302.083766 
L 266.45197 301.523351 
L 269.064534 301.448629 
L 270.632072 301.299185 
L 271.677097 301.261824 
L 273.244635 301.149741 
L 274.289661 301.075019 
L 275.857199 300.850852 
L 276.379711 300.850852 
L 277.947249 300.626686 
L 280.0373 300.551964 
L 281.082325 300.477242 
L 283.172376 300.40252 
L 284.217401 300.327798 
L 286.829965 300.066271 
L 287.87499 299.879466 
L 289.442528 299.842105 
L 290.487554 299.767383 
L 293.100117 299.692661 
L 299.892782 299.28169 
L 301.46032 299.206968 
L 308.252985 298.795997 
L 311.910574 298.721275 
L 312.955599 298.609192 
L 316.613188 298.53447 
L 320.270776 298.347665 
L 326.018416 298.272943 
L 329.676005 298.086138 
L 333.856106 298.011416 
L 338.036208 297.78725 
L 341.693796 297.712528 
L 351.621537 297.077391 
L 356.846664 297.002669 
L 359.459227 296.741142 
L 362.071791 296.703781 
L 364.684354 296.442254 
L 369.386968 296.180726 
L 372.522044 296.106004 
L 374.089583 296.068643 
L 375.657121 296.031282 
L 377.224659 295.881838 
L 381.40476 295.807116 
L 382.449785 295.657672 
L 383.494811 295.58295 
L 386.107374 295.470867 
L 387.1524 295.396145 
L 388.197425 295.321423 
L 392.900039 295.246701 
L 394.467577 295.134618 
L 408.052907 294.237954 
L 410.142957 294.163232 
L 412.755521 294.051149 
L 420.070698 293.976427 
L 423.728287 293.789622 
L 427.908389 293.7149 
L 429.998439 293.640178 
L 432.08849 293.602817 
L 433.656028 293.490734 
L 438.358642 293.229207 
L 439.403668 293.154485 
L 441.493718 293.079763 
L 444.106282 293.005041 
L 446.718845 292.892958 
L 450.376434 292.818236 
L 452.466485 292.743514 
L 458.736637 292.668792 
L 461.3492 292.556709 
L 464.484276 292.481987 
L 466.574327 292.295182 
L 468.141865 292.257821 
L 470.231916 292.183099 
L 471.799454 292.071016 
L 477.547093 291.996294 
L 479.637144 291.921572 
L 486.952321 291.84685 
L 488.51986 291.809489 
L 491.654936 291.734766 
L 493.222474 291.697405 
L 500.015139 291.622683 
L 501.060164 291.547961 
L 506.807803 291.473239 
L 508.897854 291.398517 
L 518.825595 291.323795 
L 520.393133 291.286434 
L 525.095747 291.211712 
L 526.140773 291.13699 
L 538.681077 291.062268 
L 540.248615 291.024907 
L 554.356457 290.950185 
L 555.923995 290.912824 
L 565.329224 290.838102 
L 566.374249 290.76338 
L 568.986812 290.688658 
L 570.55435 290.539214 
L 573.166914 290.464492 
L 576.30199 290.315048 
L 580.482091 290.240326 
L 581.527117 290.165604 
L 585.707218 290.090882 
L 588.842294 289.941438 
L 591.454858 289.866716 
L 595.634959 289.64255 
L 598.770035 289.567828 
L 600.860086 289.493106 
L 607.652751 289.418384 
L 609.742801 289.343662 
L 613.922903 289.26894 
L 617.580492 289.082135 
L 622.283106 289.007413 
L 623.328131 288.932691 
L 632.733359 288.857969 
L 634.300897 288.820608 
L 636.913461 288.783247 
L 639.526024 288.52172 
L 643.706126 288.446998 
L 648.931252 288.14811 
L 651.543816 288.073388 
L 653.633867 287.998666 
L 659.381506 287.923944 
L 662.516582 287.587695 
L 666.174171 287.512973 
L 669.309247 287.363529 
L 672.966836 287.288807 
L 675.579399 287.176723 
L 682.372064 287.139362 
L 683.417089 287.027279 
L 687.074678 286.952557 
L 688.642216 286.915196 
L 691.25478 286.840474 
L 692.822318 286.803113 
L 701.705033 286.728391 
L 704.317597 286.616308 
L 711.632774 286.541586 
L 713.722825 286.466864 
L 719.470464 286.392142 
L 720.51549 286.280059 
L 725.218104 286.242698 
L 726.263129 286.167976 
L 728.875693 286.093254 
L 730.443231 286.055893 
L 737.235895 285.981171 
L 738.803433 285.94381 
L 739.848459 285.869088 
L 741.415997 285.831727 
L 741.93851 285.831727 
L 742.983535 285.644922 
L 747.163636 285.5702 
L 747.163636 285.5702 
" clip-path="url(#p5792901a9a)" style="fill: none; stroke: #ff7f0e; stroke-width: 1.5; stroke-linecap: square"/>
   </g>
   <g id="patch_3">
    <path d="M 108 320.4 
L 108 43.2 
" style="fill: none; stroke: #a9a9a9; stroke-width: 0.8; stroke-linejoin: miter; stroke-linecap: square"/>
   </g>
   <g id="patch_4">
    <path d="M 777.6 320.4 
L 777.6 43.2 
" style="fill: none"/>
   </g>
   <g id="patch_5">
    <path d="M 108 320.4 
L 777.6 320.4 
" style="fill: none; stroke: #a9a9a9; stroke-width: 0.8; stroke-linejoin: miter; stroke-linecap: square"/>
   </g>
   <g id="patch_6">
    <path d="M 108 43.2 
L 777.6 43.2 
" style="fill: none"/>
   </g>
   <g id="text_20">
    <!-- get_subscribe history -->
    <g style="fill: #a9a9a9" transform="translate(378.6075 37.2) scale(0.12 -0.12)">
     <defs>
      <path id="DejaVuSans-67" d="M 2906 1791 
Q 2906 2416 2648 2759 
Q 2391 3103 1925 3103 
Q 1463 3103 1205 2759 
Q 947 2416 947 1791 
Q 947 1169 1205 825 
Q 1463 481 1925 481 
Q 2391 481 2648 825 
Q 2906 1169 2906 1791 
z
M 3481 434 
Q 3481 -459 3084 -895 
Q 2688 -1331 1869 -1331 
Q 1566 -1331 1297 -1286 
Q 1028 -1241 775 -1147 
L 775 -588 
Q 1028 -725 1275 -790 
Q 1522 -856 1778 -856 
Q 2344 -856 2625 -561 
Q 2906 -266 2906 331 
L 2906 616 
Q 2728 306 2450 153 
Q 2172 0 1784 0 
Q 1141 0 747 490 
Q 353 981 353 1791 
Q 353 2603 747 3093 
Q 1141 3584 1784 3584 
Q 2172 3584 2450 3431 
Q 2728 3278 2906 2969 
L 2906 3500 
L 3481 3500 
L 3481 434 
z
" transform="scale(0.015625)"/>
      <path id="DejaVuSans-65" d="M 3597 1894 
L 3597 1613 
L 953 1613 
Q 991 1019 1311 708 
Q 1631 397 2203 397 
Q 2534 397 2845 478 
Q 3156 559 3463 722 
L 3463 178 
Q 3153 47 2828 -22 
Q 2503 -91 2169 -91 
Q 1331 -91 842 396 
Q 353 884 353 1716 
Q 353 2575 817 3079 
Q 1281 3584 2069 3584 
Q 2775 3584 3186 3129 
Q 3597 2675 3597 1894 
z
M 3022 2063 
Q 3016 2534 2758 2815 
Q 2500 3097 2075 3097 
Q 1594 3097 1305 2825 
Q 1016 2553 972 2059 
L 3022 2063 
z
" transform="scale(0.015625)"/>
      <path id="DejaVuSans-74" d="M 1172 4494 
L 1172 3500 
L 2356 3500 
L 2356 3053 
L 1172 3053 
L 1172 1153 
Q 1172 725 1289 603 
Q 1406 481 1766 481 
L 2356 481 
L 2356 0 
L 1766 0 
Q 1100 0 847 248 
Q 594 497 594 1153 
L 594 3053 
L 172 3053 
L 172 3500 
L 594 3500 
L 594 4494 
L 1172 4494 
z
" transform="scale(0.015625)"/>
      <path id="DejaVuSans-5f" d="M 3263 -1063 
L 3263 -1509 
L -63 -1509 
L -63 -1063 
L 3263 -1063 
z
" transform="scale(0.015625)"/>
      <path id="DejaVuSans-73" d="M 2834 3397 
L 2834 2853 
Q 2591 2978 2328 3040 
Q 2066 3103 1784 3103 
Q 1356 3103 1142 2972 
Q 928 2841 928 2578 
Q 928 2378 1081 2264 
Q 1234 2150 1697 2047 
L 1894 2003 
Q 2506 1872 2764 1633 
Q 3022 1394 3022 966 
Q 3022 478 2636 193 
Q 2250 -91 1575 -91 
Q 1294 -91 989 -36 
Q 684 19 347 128 
L 347 722 
Q 666 556 975 473 
Q 1284 391 1588 391 
Q 1994 391 2212 530 
Q 2431 669 2431 922 
Q 2431 1156 2273 1281 
Q 2116 1406 1581 1522 
L 1381 1569 
Q 847 1681 609 1914 
Q 372 2147 372 2553 
Q 372 3047 722 3315 
Q 1072 3584 1716 3584 
Q 2034 3584 2315 3537 
Q 2597 3491 2834 3397 
z
" transform="scale(0.015625)"/>
      <path id="DejaVuSans-75" d="M 544 1381 
L 544 3500 
L 1119 3500 
L 1119 1403 
Q 1119 906 1312 657 
Q 1506 409 1894 409 
Q 2359 409 2629 706 
Q 2900 1003 2900 1516 
L 2900 3500 
L 3475 3500 
L 3475 0 
L 2900 0 
L 2900 538 
Q 2691 219 2414 64 
Q 2138 -91 1772 -91 
Q 1169 -91 856 284 
Q 544 659 544 1381 
z
M 1991 3584 
L 1991 3584 
z
" transform="scale(0.015625)"/>
      <path id="DejaVuSans-62" d="M 3116 1747 
Q 3116 2381 2855 2742 
Q 2594 3103 2138 3103 
Q 1681 3103 1420 2742 
Q 1159 2381 1159 1747 
Q 1159 1113 1420 752 
Q 1681 391 2138 391 
Q 2594 391 2855 752 
Q 3116 1113 3116 1747 
z
M 1159 2969 
Q 1341 3281 1617 3432 
Q 1894 3584 2278 3584 
Q 2916 3584 3314 3078 
Q 3713 2572 3713 1747 
Q 3713 922 3314 415 
Q 2916 -91 2278 -91 
Q 1894 -91 1617 61 
Q 1341 213 1159 525 
L 1159 0 
L 581 0 
L 581 4863 
L 1159 4863 
L 1159 2969 
z
" transform="scale(0.015625)"/>
      <path id="DejaVuSans-63" d="M 3122 3366 
L 3122 2828 
Q 2878 2963 2633 3030 
Q 2388 3097 2138 3097 
Q 1578 3097 1268 2742 
Q 959 2388 959 1747 
Q 959 1106 1268 751 
Q 1578 397 2138 397 
Q 2388 397 2633 464 
Q 2878 531 3122 666 
L 3122 134 
Q 2881 22 2623 -34 
Q 2366 -91 2075 -91 
Q 1284 -91 818 406 
Q 353 903 353 1747 
Q 353 2603 823 3093 
Q 1294 3584 2113 3584 
Q 2378 3584 2631 3529 
Q 2884 3475 3122 3366 
z
" transform="scale(0.015625)"/>
      <path id="DejaVuSans-72" d="M 2631 2963 
Q 2534 3019 2420 3045 
Q 2306 3072 2169 3072 
Q 1681 3072 1420 2755 
Q 1159 2438 1159 1844 
L 1159 0 
L 581 0 
L 581 3500 
L 1159 3500 
L 1159 2956 
Q 1341 3275 1631 3429 
Q 1922 3584 2338 3584 
Q 2397 3584 2469 3576 
Q 2541 3569 2628 3553 
L 2631 2963 
z
" transform="scale(0.015625)"/>
      <path id="DejaVuSans-69" d="M 603 3500 
L 1178 3500 
L 1178 0 
L 603 0 
L 603 3500 
z
M 603 4863 
L 1178 4863 
L 1178 4134 
L 603 4134 
L 603 4863 
z
" transform="scale(0.015625)"/>
      <path id="DejaVuSans-20" transform="scale(0.015625)"/>
      <path id="DejaVuSans-68" d="M 3513 2113 
L 3513 0 
L 2938 0 
L 2938 2094 
Q 2938 2591 2744 2837 
Q 2550 3084 2163 3084 
Q 1697 3084 1428 2787 
Q 1159 2491 1159 1978 
L 1159 0 
L 581 0 
L 581 4863 
L 1159 4863 
L 1159 2956 
Q 1366 3272 1645 3428 
Q 1925 3584 2291 3584 
Q 2894 3584 3203 3211 
Q 3513 2838 3513 2113 
z
" transform="scale(0.015625)"/>
      <path id="DejaVuSans-6f" d="M 1959 3097 
Q 1497 3097 1228 2736 
Q 959 2375 959 1747 
Q 959 1119 1226 758 
Q 1494 397 1959 397 
Q 2419 397 2687 759 
Q 2956 1122 2956 1747 
Q 2956 2369 2687 2733 
Q 2419 3097 1959 3097 
z
M 1959 3584 
Q 2709 3584 3137 3096 
Q 3566 2609 3566 1747 
Q 3566 888 3137 398 
Q 2709 -91 1959 -91 
Q 1206 -91 779 398 
Q 353 888 353 1747 
Q 353 2609 779 3096 
Q 1206 3584 1959 3584 
z
" transform="scale(0.015625)"/>
      <path id="DejaVuSans-79" d="M 2059 -325 
Q 1816 -950 1584 -1140 
Q 1353 -1331 966 -1331 
L 506 -1331 
L 506 -850 
L 844 -850 
Q 1081 -850 1212 -737 
Q 1344 -625 1503 -206 
L 1606 56 
L 191 3500 
L 800 3500 
L 1894 763 
L 2988 3500 
L 3597 3500 
L 2059 -325 
z
" transform="scale(0.015625)"/>
     </defs>
     <use xlink:href="#DejaVuSans-67"/>
     <use xlink:href="#DejaVuSans-65" x="63.476562"/>
     <use xlink:href="#DejaVuSans-74" x="125"/>
     <use xlink:href="#DejaVuSans-5f" x="164.208984"/>
     <use xlink:href="#DejaVuSans-73" x="214.208984"/>
     <use xlink:href="#DejaVuSans-75" x="266.308594"/>
     <use xlink:href="#DejaVuSans-62" x="329.6875"/>
     <use xlink:href="#DejaVuSans-73" x="393.164062"/>
     <use xlink:href="#DejaVuSans-63" x="445.263672"/>
     <use xlink:href="#DejaVuSans-72" x="500.244141"/>
     <use xlink:href="#DejaVuSans-69" x="541.357422"/>
     <use xlink:href="#DejaVuSans-62" x="569.140625"/>
     <use xlink:href="#DejaVuSans-65" x="632.617188"/>
     <use xlink:href="#DejaVuSans-20" x="694.140625"/>
     <use xlink:href="#DejaVuSans-68" x="725.927734"/>
     <use xlink:href="#DejaVuSans-69" x="789.306641"/>
     <use xlink:href="#DejaVuSans-73" x="817.089844"/>
     <use xlink:href="#DejaVuSans-74" x="869.189453"/>
     <use xlink:href="#DejaVuSans-6f" x="908.398438"/>
     <use xlink:href="#DejaVuSans-72" x="969.580078"/>
     <use xlink:href="#DejaVuSans-79" x="1010.693359"/>
    </g>
   </g>
   <g id="legend_1">
    <g id="line2d_41">
     <path d="M 815.08 328.498438 
L 825.08 328.498438 
L 835.08 328.498438 
" style="fill: none; stroke: #1f77b4; stroke-width: 1.5; stroke-linecap: square"/>
    </g>
    <g id="text_21">
     <!-- star -->
     <g style="fill: #a9a9a9" transform="translate(843.08 331.998438) scale(0.1 -0.1)">
      <defs>
       <path id="DejaVuSans-61" d="M 2194 1759 
Q 1497 1759 1228 1600 
Q 959 1441 959 1056 
Q 959 750 1161 570 
Q 1363 391 1709 391 
Q 2188 391 2477 730 
Q 2766 1069 2766 1631 
L 2766 1759 
L 2194 1759 
z
M 3341 1997 
L 3341 0 
L 2766 0 
L 2766 531 
Q 2569 213 2275 61 
Q 1981 -91 1556 -91 
Q 1019 -91 701 211 
Q 384 513 384 1019 
Q 384 1609 779 1909 
Q 1175 2209 1959 2209 
L 2766 2209 
L 2766 2266 
Q 2766 2663 2505 2880 
Q 2244 3097 1772 3097 
Q 1472 3097 1187 3025 
Q 903 2953 641 2809 
L 641 3341 
Q 956 3463 1253 3523 
Q 1550 3584 1831 3584 
Q 2591 3584 2966 3190 
Q 3341 2797 3341 1997 
z
" transform="scale(0.015625)"/>
      </defs>
      <use xlink:href="#DejaVuSans-73"/>
      <use xlink:href="#DejaVuSans-74" x="52.099609"/>
      <use xlink:href="#DejaVuSans-61" x="91.308594"/>
      <use xlink:href="#DejaVuSans-72" x="152.587891"/>
     </g>
    </g>
    <g id="line2d_42">
     <path d="M 815.08 343.176562 
L 825.08 343.176562 
L 835.08 343.176562 
" style="fill: none; stroke: #ff7f0e; stroke-width: 1.5; stroke-linecap: square"/>
    </g>
    <g id="text_22">
     <!-- fork -->
     <g style="fill: #a9a9a9" transform="translate(843.08 346.676562) scale(0.1 -0.1)">
      <defs>
       <path id="DejaVuSans-66" d="M 2375 4863 
L 2375 4384 
L 1825 4384 
Q 1516 4384 1395 4259 
Q 1275 4134 1275 3809 
L 1275 3500 
L 2222 3500 
L 2222 3053 
L 1275 3053 
L 1275 0 
L 697 0 
L 697 3053 
L 147 3053 
L 147 3500 
L 697 3500 
L 697 3744 
Q 697 4328 969 4595 
Q 1241 4863 1831 4863 
L 2375 4863 
z
" transform="scale(0.015625)"/>
       <path id="DejaVuSans-6b" d="M 581 4863 
L 1159 4863 
L 1159 1991 
L 2875 3500 
L 3609 3500 
L 1753 1863 
L 3688 0 
L 2938 0 
L 1159 1709 
L 1159 0 
L 581 0 
L 581 4863 
z
" transform="scale(0.015625)"/>
      </defs>
      <use xlink:href="#DejaVuSans-66"/>
      <use xlink:href="#DejaVuSans-6f" x="35.205078"/>
      <use xlink:href="#DejaVuSans-72" x="96.386719"/>
      <use xlink:href="#DejaVuSans-6b" x="137.5"/>
     </g>
    </g>
   </g>
  </g>
 </g>
 <defs>
  <clipPath id="p5792901a9a">
   <rect x="108" y="43.2" width="669.6" height="277.2"/>
  </clipPath>
 </defs>
</svg>
