<?xml version="1.0" encoding="utf-8" standalone="no"?>
<!DOCTYPE svg PUBLIC "-//W3C//DTD SVG 1.1//EN"
  "http://www.w3.org/Graphics/SVG/1.1/DTD/svg11.dtd">
<svg xmlns:xlink="http://www.w3.org/1999/xlink" width="864pt" height="360pt" viewBox="0 0 864 360" xmlns="http://www.w3.org/2000/svg" version="1.1">
 <metadata>
  <rdf:RDF xmlns:dc="http://purl.org/dc/elements/1.1/" xmlns:cc="http://creativecommons.org/ns#" xmlns:rdf="http://www.w3.org/1999/02/22-rdf-syntax-ns#">
   <cc:Work>
    <dc:type rdf:resource="http://purl.org/dc/dcmitype/StillImage"/>
    <dc:date>2024-10-02T08:13:56.882021</dc:date>
    <dc:format>image/svg+xml</dc:format>
    <dc:creator>
     <cc:Agent>
      <dc:title>Matplotlib v3.9.2, https://matplotlib.org/</dc:title>
     </cc:Agent>
    </dc:creator>
   </cc:Work>
  </rdf:RDF>
 </metadata>
 <defs>
  <style type="text/css">*{stroke-linejoin: round; stroke-linecap: butt}</style>
 </defs>
 <g id="figure_1">
  <g id="patch_1">
   <path d="M 0 360 
L 864 360 
L 864 0 
L 0 0 
L 0 360 
z
" style="fill: none; opacity: 0"/>
  </g>
  <g id="axes_1">
   <g id="patch_2">
    <path d="M 108 320.4 
L 777.6 320.4 
L 777.6 43.2 
L 108 43.2 
L 108 320.4 
z
" style="fill: none; opacity: 0"/>
   </g>
   <g id="matplotlib.axis_1">
    <g id="xtick_1">
     <g id="line2d_1">
      <path d="M 158.796881 320.4 
L 158.796881 43.2 
" clip-path="url(#pdd9c46e123)" style="fill: none; stroke-dasharray: 5.12,1.28,0.8,1.28; stroke-dashoffset: 0; stroke: #b0b0b0; stroke-width: 0.8"/>
     </g>
     <g id="line2d_2">
      <defs>
       <path id="mf86e573f96" d="M 0 0 
L 0 3.5 
" style="stroke: #a9a9a9; stroke-width: 0.8"/>
      </defs>
      <g>
       <use xlink:href="#mf86e573f96" x="158.796881" y="320.4" style="fill: #a9a9a9; stroke: #a9a9a9; stroke-width: 0.8"/>
      </g>
     </g>
     <g id="text_1">
      <!-- 2021-09 -->
      <g style="fill: #a9a9a9" transform="translate(137.905475 334.998438) scale(0.1 -0.1)">
       <defs>
        <path id="DejaVuSans-32" d="M 1228 531 
L 3431 531 
L 3431 0 
L 469 0 
L 469 531 
Q 828 903 1448 1529 
Q 2069 2156 2228 2338 
Q 2531 2678 2651 2914 
Q 2772 3150 2772 3378 
Q 2772 3750 2511 3984 
Q 2250 4219 1831 4219 
Q 1534 4219 1204 4116 
Q 875 4013 500 3803 
L 500 4441 
Q 881 4594 1212 4672 
Q 1544 4750 1819 4750 
Q 2544 4750 2975 4387 
Q 3406 4025 3406 3419 
Q 3406 3131 3298 2873 
Q 3191 2616 2906 2266 
Q 2828 2175 2409 1742 
Q 1991 1309 1228 531 
z
" transform="scale(0.015625)"/>
        <path id="DejaVuSans-30" d="M 2034 4250 
Q 1547 4250 1301 3770 
Q 1056 3291 1056 2328 
Q 1056 1369 1301 889 
Q 1547 409 2034 409 
Q 2525 409 2770 889 
Q 3016 1369 3016 2328 
Q 3016 3291 2770 3770 
Q 2525 4250 2034 4250 
z
M 2034 4750 
Q 2819 4750 3233 4129 
Q 3647 3509 3647 2328 
Q 3647 1150 3233 529 
Q 2819 -91 2034 -91 
Q 1250 -91 836 529 
Q 422 1150 422 2328 
Q 422 3509 836 4129 
Q 1250 4750 2034 4750 
z
" transform="scale(0.015625)"/>
        <path id="DejaVuSans-31" d="M 794 531 
L 1825 531 
L 1825 4091 
L 703 3866 
L 703 4441 
L 1819 4666 
L 2450 4666 
L 2450 531 
L 3481 531 
L 3481 0 
L 794 0 
L 794 531 
z
" transform="scale(0.015625)"/>
        <path id="DejaVuSans-2d" d="M 313 2009 
L 1997 2009 
L 1997 1497 
L 313 1497 
L 313 2009 
z
" transform="scale(0.015625)"/>
        <path id="DejaVuSans-39" d="M 703 97 
L 703 672 
Q 941 559 1184 500 
Q 1428 441 1663 441 
Q 2288 441 2617 861 
Q 2947 1281 2994 2138 
Q 2813 1869 2534 1725 
Q 2256 1581 1919 1581 
Q 1219 1581 811 2004 
Q 403 2428 403 3163 
Q 403 3881 828 4315 
Q 1253 4750 1959 4750 
Q 2769 4750 3195 4129 
Q 3622 3509 3622 2328 
Q 3622 1225 3098 567 
Q 2575 -91 1691 -91 
Q 1453 -91 1209 -44 
Q 966 3 703 97 
z
M 1959 2075 
Q 2384 2075 2632 2365 
Q 2881 2656 2881 3163 
Q 2881 3666 2632 3958 
Q 2384 4250 1959 4250 
Q 1534 4250 1286 3958 
Q 1038 3666 1038 3163 
Q 1038 2656 1286 2365 
Q 1534 2075 1959 2075 
z
" transform="scale(0.015625)"/>
       </defs>
       <use xlink:href="#DejaVuSans-32"/>
       <use xlink:href="#DejaVuSans-30" x="63.623047"/>
       <use xlink:href="#DejaVuSans-32" x="127.246094"/>
       <use xlink:href="#DejaVuSans-31" x="190.869141"/>
       <use xlink:href="#DejaVuSans-2d" x="254.492188"/>
       <use xlink:href="#DejaVuSans-30" x="290.576172"/>
       <use xlink:href="#DejaVuSans-39" x="354.199219"/>
      </g>
     </g>
    </g>
    <g id="xtick_2">
     <g id="line2d_3">
      <path d="M 222.488757 320.4 
L 222.488757 43.2 
" clip-path="url(#pdd9c46e123)" style="fill: none; stroke-dasharray: 5.12,1.28,0.8,1.28; stroke-dashoffset: 0; stroke: #b0b0b0; stroke-width: 0.8"/>
     </g>
     <g id="line2d_4">
      <g>
       <use xlink:href="#mf86e573f96" x="222.488757" y="320.4" style="fill: #a9a9a9; stroke: #a9a9a9; stroke-width: 0.8"/>
      </g>
     </g>
     <g id="text_2">
      <!-- 2022-01 -->
      <g style="fill: #a9a9a9" transform="translate(201.597351 334.998438) scale(0.1 -0.1)">
       <use xlink:href="#DejaVuSans-32"/>
       <use xlink:href="#DejaVuSans-30" x="63.623047"/>
       <use xlink:href="#DejaVuSans-32" x="127.246094"/>
       <use xlink:href="#DejaVuSans-32" x="190.869141"/>
       <use xlink:href="#DejaVuSans-2d" x="254.492188"/>
       <use xlink:href="#DejaVuSans-30" x="290.576172"/>
       <use xlink:href="#DejaVuSans-31" x="354.199219"/>
      </g>
     </g>
    </g>
    <g id="xtick_3">
     <g id="line2d_5">
      <path d="M 285.136504 320.4 
L 285.136504 43.2 
" clip-path="url(#pdd9c46e123)" style="fill: none; stroke-dasharray: 5.12,1.28,0.8,1.28; stroke-dashoffset: 0; stroke: #b0b0b0; stroke-width: 0.8"/>
     </g>
     <g id="line2d_6">
      <g>
       <use xlink:href="#mf86e573f96" x="285.136504" y="320.4" style="fill: #a9a9a9; stroke: #a9a9a9; stroke-width: 0.8"/>
      </g>
     </g>
     <g id="text_3">
      <!-- 2022-05 -->
      <g style="fill: #a9a9a9" transform="translate(264.245098 334.998438) scale(0.1 -0.1)">
       <defs>
        <path id="DejaVuSans-35" d="M 691 4666 
L 3169 4666 
L 3169 4134 
L 1269 4134 
L 1269 2991 
Q 1406 3038 1543 3061 
Q 1681 3084 1819 3084 
Q 2600 3084 3056 2656 
Q 3513 2228 3513 1497 
Q 3513 744 3044 326 
Q 2575 -91 1722 -91 
Q 1428 -91 1123 -41 
Q 819 9 494 109 
L 494 744 
Q 775 591 1075 516 
Q 1375 441 1709 441 
Q 2250 441 2565 725 
Q 2881 1009 2881 1497 
Q 2881 1984 2565 2268 
Q 2250 2553 1709 2553 
Q 1456 2553 1204 2497 
Q 953 2441 691 2322 
L 691 4666 
z
" transform="scale(0.015625)"/>
       </defs>
       <use xlink:href="#DejaVuSans-32"/>
       <use xlink:href="#DejaVuSans-30" x="63.623047"/>
       <use xlink:href="#DejaVuSans-32" x="127.246094"/>
       <use xlink:href="#DejaVuSans-32" x="190.869141"/>
       <use xlink:href="#DejaVuSans-2d" x="254.492188"/>
       <use xlink:href="#DejaVuSans-30" x="290.576172"/>
       <use xlink:href="#DejaVuSans-35" x="354.199219"/>
      </g>
     </g>
    </g>
    <g id="xtick_4">
     <g id="line2d_7">
      <path d="M 349.350444 320.4 
L 349.350444 43.2 
" clip-path="url(#pdd9c46e123)" style="fill: none; stroke-dasharray: 5.12,1.28,0.8,1.28; stroke-dashoffset: 0; stroke: #b0b0b0; stroke-width: 0.8"/>
     </g>
     <g id="line2d_8">
      <g>
       <use xlink:href="#mf86e573f96" x="349.350444" y="320.4" style="fill: #a9a9a9; stroke: #a9a9a9; stroke-width: 0.8"/>
      </g>
     </g>
     <g id="text_4">
      <!-- 2022-09 -->
      <g style="fill: #a9a9a9" transform="translate(328.459038 334.998438) scale(0.1 -0.1)">
       <use xlink:href="#DejaVuSans-32"/>
       <use xlink:href="#DejaVuSans-30" x="63.623047"/>
       <use xlink:href="#DejaVuSans-32" x="127.246094"/>
       <use xlink:href="#DejaVuSans-32" x="190.869141"/>
       <use xlink:href="#DejaVuSans-2d" x="254.492188"/>
       <use xlink:href="#DejaVuSans-30" x="290.576172"/>
       <use xlink:href="#DejaVuSans-39" x="354.199219"/>
      </g>
     </g>
    </g>
    <g id="xtick_5">
     <g id="line2d_9">
      <path d="M 413.04232 320.4 
L 413.04232 43.2 
" clip-path="url(#pdd9c46e123)" style="fill: none; stroke-dasharray: 5.12,1.28,0.8,1.28; stroke-dashoffset: 0; stroke: #b0b0b0; stroke-width: 0.8"/>
     </g>
     <g id="line2d_10">
      <g>
       <use xlink:href="#mf86e573f96" x="413.04232" y="320.4" style="fill: #a9a9a9; stroke: #a9a9a9; stroke-width: 0.8"/>
      </g>
     </g>
     <g id="text_5">
      <!-- 2023-01 -->
      <g style="fill: #a9a9a9" transform="translate(392.150914 334.998438) scale(0.1 -0.1)">
       <defs>
        <path id="DejaVuSans-33" d="M 2597 2516 
Q 3050 2419 3304 2112 
Q 3559 1806 3559 1356 
Q 3559 666 3084 287 
Q 2609 -91 1734 -91 
Q 1441 -91 1130 -33 
Q 819 25 488 141 
L 488 750 
Q 750 597 1062 519 
Q 1375 441 1716 441 
Q 2309 441 2620 675 
Q 2931 909 2931 1356 
Q 2931 1769 2642 2001 
Q 2353 2234 1838 2234 
L 1294 2234 
L 1294 2753 
L 1863 2753 
Q 2328 2753 2575 2939 
Q 2822 3125 2822 3475 
Q 2822 3834 2567 4026 
Q 2313 4219 1838 4219 
Q 1578 4219 1281 4162 
Q 984 4106 628 3988 
L 628 4550 
Q 988 4650 1302 4700 
Q 1616 4750 1894 4750 
Q 2613 4750 3031 4423 
Q 3450 4097 3450 3541 
Q 3450 3153 3228 2886 
Q 3006 2619 2597 2516 
z
" transform="scale(0.015625)"/>
       </defs>
       <use xlink:href="#DejaVuSans-32"/>
       <use xlink:href="#DejaVuSans-30" x="63.623047"/>
       <use xlink:href="#DejaVuSans-32" x="127.246094"/>
       <use xlink:href="#DejaVuSans-33" x="190.869141"/>
       <use xlink:href="#DejaVuSans-2d" x="254.492188"/>
       <use xlink:href="#DejaVuSans-30" x="290.576172"/>
       <use xlink:href="#DejaVuSans-31" x="354.199219"/>
      </g>
     </g>
    </g>
    <g id="xtick_6">
     <g id="line2d_11">
      <path d="M 475.690067 320.4 
L 475.690067 43.2 
" clip-path="url(#pdd9c46e123)" style="fill: none; stroke-dasharray: 5.12,1.28,0.8,1.28; stroke-dashoffset: 0; stroke: #b0b0b0; stroke-width: 0.8"/>
     </g>
     <g id="line2d_12">
      <g>
       <use xlink:href="#mf86e573f96" x="475.690067" y="320.4" style="fill: #a9a9a9; stroke: #a9a9a9; stroke-width: 0.8"/>
      </g>
     </g>
     <g id="text_6">
      <!-- 2023-05 -->
      <g style="fill: #a9a9a9" transform="translate(454.798661 334.998438) scale(0.1 -0.1)">
       <use xlink:href="#DejaVuSans-32"/>
       <use xlink:href="#DejaVuSans-30" x="63.623047"/>
       <use xlink:href="#DejaVuSans-32" x="127.246094"/>
       <use xlink:href="#DejaVuSans-33" x="190.869141"/>
       <use xlink:href="#DejaVuSans-2d" x="254.492188"/>
       <use xlink:href="#DejaVuSans-30" x="290.576172"/>
       <use xlink:href="#DejaVuSans-35" x="354.199219"/>
      </g>
     </g>
    </g>
    <g id="xtick_7">
     <g id="line2d_13">
      <path d="M 539.904007 320.4 
L 539.904007 43.2 
" clip-path="url(#pdd9c46e123)" style="fill: none; stroke-dasharray: 5.12,1.28,0.8,1.28; stroke-dashoffset: 0; stroke: #b0b0b0; stroke-width: 0.8"/>
     </g>
     <g id="line2d_14">
      <g>
       <use xlink:href="#mf86e573f96" x="539.904007" y="320.4" style="fill: #a9a9a9; stroke: #a9a9a9; stroke-width: 0.8"/>
      </g>
     </g>
     <g id="text_7">
      <!-- 2023-09 -->
      <g style="fill: #a9a9a9" transform="translate(519.012601 334.998438) scale(0.1 -0.1)">
       <use xlink:href="#DejaVuSans-32"/>
       <use xlink:href="#DejaVuSans-30" x="63.623047"/>
       <use xlink:href="#DejaVuSans-32" x="127.246094"/>
       <use xlink:href="#DejaVuSans-33" x="190.869141"/>
       <use xlink:href="#DejaVuSans-2d" x="254.492188"/>
       <use xlink:href="#DejaVuSans-30" x="290.576172"/>
       <use xlink:href="#DejaVuSans-39" x="354.199219"/>
      </g>
     </g>
    </g>
    <g id="xtick_8">
     <g id="line2d_15">
      <path d="M 603.595883 320.4 
L 603.595883 43.2 
" clip-path="url(#pdd9c46e123)" style="fill: none; stroke-dasharray: 5.12,1.28,0.8,1.28; stroke-dashoffset: 0; stroke: #b0b0b0; stroke-width: 0.8"/>
     </g>
     <g id="line2d_16">
      <g>
       <use xlink:href="#mf86e573f96" x="603.595883" y="320.4" style="fill: #a9a9a9; stroke: #a9a9a9; stroke-width: 0.8"/>
      </g>
     </g>
     <g id="text_8">
      <!-- 2024-01 -->
      <g style="fill: #a9a9a9" transform="translate(582.704477 334.998438) scale(0.1 -0.1)">
       <defs>
        <path id="DejaVuSans-34" d="M 2419 4116 
L 825 1625 
L 2419 1625 
L 2419 4116 
z
M 2253 4666 
L 3047 4666 
L 3047 1625 
L 3713 1625 
L 3713 1100 
L 3047 1100 
L 3047 0 
L 2419 0 
L 2419 1100 
L 313 1100 
L 313 1709 
L 2253 4666 
z
" transform="scale(0.015625)"/>
       </defs>
       <use xlink:href="#DejaVuSans-32"/>
       <use xlink:href="#DejaVuSans-30" x="63.623047"/>
       <use xlink:href="#DejaVuSans-32" x="127.246094"/>
       <use xlink:href="#DejaVuSans-34" x="190.869141"/>
       <use xlink:href="#DejaVuSans-2d" x="254.492188"/>
       <use xlink:href="#DejaVuSans-30" x="290.576172"/>
       <use xlink:href="#DejaVuSans-31" x="354.199219"/>
      </g>
     </g>
    </g>
    <g id="xtick_9">
     <g id="line2d_17">
      <path d="M 666.765695 320.4 
L 666.765695 43.2 
" clip-path="url(#pdd9c46e123)" style="fill: none; stroke-dasharray: 5.12,1.28,0.8,1.28; stroke-dashoffset: 0; stroke: #b0b0b0; stroke-width: 0.8"/>
     </g>
     <g id="line2d_18">
      <g>
       <use xlink:href="#mf86e573f96" x="666.765695" y="320.4" style="fill: #a9a9a9; stroke: #a9a9a9; stroke-width: 0.8"/>
      </g>
     </g>
     <g id="text_9">
      <!-- 2024-05 -->
      <g style="fill: #a9a9a9" transform="translate(645.874288 334.998438) scale(0.1 -0.1)">
       <use xlink:href="#DejaVuSans-32"/>
       <use xlink:href="#DejaVuSans-30" x="63.623047"/>
       <use xlink:href="#DejaVuSans-32" x="127.246094"/>
       <use xlink:href="#DejaVuSans-34" x="190.869141"/>
       <use xlink:href="#DejaVuSans-2d" x="254.492188"/>
       <use xlink:href="#DejaVuSans-30" x="290.576172"/>
       <use xlink:href="#DejaVuSans-35" x="354.199219"/>
      </g>
     </g>
    </g>
    <g id="xtick_10">
     <g id="line2d_19">
      <path d="M 730.979635 320.4 
L 730.979635 43.2 
" clip-path="url(#pdd9c46e123)" style="fill: none; stroke-dasharray: 5.12,1.28,0.8,1.28; stroke-dashoffset: 0; stroke: #b0b0b0; stroke-width: 0.8"/>
     </g>
     <g id="line2d_20">
      <g>
       <use xlink:href="#mf86e573f96" x="730.979635" y="320.4" style="fill: #a9a9a9; stroke: #a9a9a9; stroke-width: 0.8"/>
      </g>
     </g>
     <g id="text_10">
      <!-- 2024-09 -->
      <g style="fill: #a9a9a9" transform="translate(710.088229 334.998438) scale(0.1 -0.1)">
       <use xlink:href="#DejaVuSans-32"/>
       <use xlink:href="#DejaVuSans-30" x="63.623047"/>
       <use xlink:href="#DejaVuSans-32" x="127.246094"/>
       <use xlink:href="#DejaVuSans-34" x="190.869141"/>
       <use xlink:href="#DejaVuSans-2d" x="254.492188"/>
       <use xlink:href="#DejaVuSans-30" x="290.576172"/>
       <use xlink:href="#DejaVuSans-39" x="354.199219"/>
      </g>
     </g>
    </g>
   </g>
   <g id="matplotlib.axis_2">
    <g id="ytick_1">
     <g id="line2d_21">
      <path d="M 108 307.837344 
L 777.6 307.837344 
" clip-path="url(#pdd9c46e123)" style="fill: none; stroke-dasharray: 5.12,1.28,0.8,1.28; stroke-dashoffset: 0; stroke: #b0b0b0; stroke-width: 0.8"/>
     </g>
     <g id="line2d_22">
      <defs>
       <path id="mc1e4abec7a" d="M 0 0 
L -3.5 0 
" style="stroke: #a9a9a9; stroke-width: 0.8"/>
      </defs>
      <g>
       <use xlink:href="#mc1e4abec7a" x="108" y="307.837344" style="fill: #a9a9a9; stroke: #a9a9a9; stroke-width: 0.8"/>
      </g>
     </g>
     <g id="text_11">
      <!-- 0 -->
      <g style="fill: #a9a9a9" transform="translate(94.6375 311.636563) scale(0.1 -0.1)">
       <use xlink:href="#DejaVuSans-30"/>
      </g>
     </g>
    </g>
    <g id="ytick_2">
     <g id="line2d_23">
      <path d="M 108 277.961826 
L 777.6 277.961826 
" clip-path="url(#pdd9c46e123)" style="fill: none; stroke-dasharray: 5.12,1.28,0.8,1.28; stroke-dashoffset: 0; stroke: #b0b0b0; stroke-width: 0.8"/>
     </g>
     <g id="line2d_24">
      <g>
       <use xlink:href="#mc1e4abec7a" x="108" y="277.961826" style="fill: #a9a9a9; stroke: #a9a9a9; stroke-width: 0.8"/>
      </g>
     </g>
     <g id="text_12">
      <!-- 800 -->
      <g style="fill: #a9a9a9" transform="translate(81.9125 281.761044) scale(0.1 -0.1)">
       <defs>
        <path id="DejaVuSans-38" d="M 2034 2216 
Q 1584 2216 1326 1975 
Q 1069 1734 1069 1313 
Q 1069 891 1326 650 
Q 1584 409 2034 409 
Q 2484 409 2743 651 
Q 3003 894 3003 1313 
Q 3003 1734 2745 1975 
Q 2488 2216 2034 2216 
z
M 1403 2484 
Q 997 2584 770 2862 
Q 544 3141 544 3541 
Q 544 4100 942 4425 
Q 1341 4750 2034 4750 
Q 2731 4750 3128 4425 
Q 3525 4100 3525 3541 
Q 3525 3141 3298 2862 
Q 3072 2584 2669 2484 
Q 3125 2378 3379 2068 
Q 3634 1759 3634 1313 
Q 3634 634 3220 271 
Q 2806 -91 2034 -91 
Q 1263 -91 848 271 
Q 434 634 434 1313 
Q 434 1759 690 2068 
Q 947 2378 1403 2484 
z
M 1172 3481 
Q 1172 3119 1398 2916 
Q 1625 2713 2034 2713 
Q 2441 2713 2670 2916 
Q 2900 3119 2900 3481 
Q 2900 3844 2670 4047 
Q 2441 4250 2034 4250 
Q 1625 4250 1398 4047 
Q 1172 3844 1172 3481 
z
" transform="scale(0.015625)"/>
       </defs>
       <use xlink:href="#DejaVuSans-38"/>
       <use xlink:href="#DejaVuSans-30" x="63.623047"/>
       <use xlink:href="#DejaVuSans-30" x="127.246094"/>
      </g>
     </g>
    </g>
    <g id="ytick_3">
     <g id="line2d_25">
      <path d="M 108 248.086307 
L 777.6 248.086307 
" clip-path="url(#pdd9c46e123)" style="fill: none; stroke-dasharray: 5.12,1.28,0.8,1.28; stroke-dashoffset: 0; stroke: #b0b0b0; stroke-width: 0.8"/>
     </g>
     <g id="line2d_26">
      <g>
       <use xlink:href="#mc1e4abec7a" x="108" y="248.086307" style="fill: #a9a9a9; stroke: #a9a9a9; stroke-width: 0.8"/>
      </g>
     </g>
     <g id="text_13">
      <!-- 1600 -->
      <g style="fill: #a9a9a9" transform="translate(75.55 251.885526) scale(0.1 -0.1)">
       <defs>
        <path id="DejaVuSans-36" d="M 2113 2584 
Q 1688 2584 1439 2293 
Q 1191 2003 1191 1497 
Q 1191 994 1439 701 
Q 1688 409 2113 409 
Q 2538 409 2786 701 
Q 3034 994 3034 1497 
Q 3034 2003 2786 2293 
Q 2538 2584 2113 2584 
z
M 3366 4563 
L 3366 3988 
Q 3128 4100 2886 4159 
Q 2644 4219 2406 4219 
Q 1781 4219 1451 3797 
Q 1122 3375 1075 2522 
Q 1259 2794 1537 2939 
Q 1816 3084 2150 3084 
Q 2853 3084 3261 2657 
Q 3669 2231 3669 1497 
Q 3669 778 3244 343 
Q 2819 -91 2113 -91 
Q 1303 -91 875 529 
Q 447 1150 447 2328 
Q 447 3434 972 4092 
Q 1497 4750 2381 4750 
Q 2619 4750 2861 4703 
Q 3103 4656 3366 4563 
z
" transform="scale(0.015625)"/>
       </defs>
       <use xlink:href="#DejaVuSans-31"/>
       <use xlink:href="#DejaVuSans-36" x="63.623047"/>
       <use xlink:href="#DejaVuSans-30" x="127.246094"/>
       <use xlink:href="#DejaVuSans-30" x="190.869141"/>
      </g>
     </g>
    </g>
    <g id="ytick_4">
     <g id="line2d_27">
      <path d="M 108 218.210788 
L 777.6 218.210788 
" clip-path="url(#pdd9c46e123)" style="fill: none; stroke-dasharray: 5.12,1.28,0.8,1.28; stroke-dashoffset: 0; stroke: #b0b0b0; stroke-width: 0.8"/>
     </g>
     <g id="line2d_28">
      <g>
       <use xlink:href="#mc1e4abec7a" x="108" y="218.210788" style="fill: #a9a9a9; stroke: #a9a9a9; stroke-width: 0.8"/>
      </g>
     </g>
     <g id="text_14">
      <!-- 2400 -->
      <g style="fill: #a9a9a9" transform="translate(75.55 222.010007) scale(0.1 -0.1)">
       <use xlink:href="#DejaVuSans-32"/>
       <use xlink:href="#DejaVuSans-34" x="63.623047"/>
       <use xlink:href="#DejaVuSans-30" x="127.246094"/>
       <use xlink:href="#DejaVuSans-30" x="190.869141"/>
      </g>
     </g>
    </g>
    <g id="ytick_5">
     <g id="line2d_29">
      <path d="M 108 188.33527 
L 777.6 188.33527 
" clip-path="url(#pdd9c46e123)" style="fill: none; stroke-dasharray: 5.12,1.28,0.8,1.28; stroke-dashoffset: 0; stroke: #b0b0b0; stroke-width: 0.8"/>
     </g>
     <g id="line2d_30">
      <g>
       <use xlink:href="#mc1e4abec7a" x="108" y="188.33527" style="fill: #a9a9a9; stroke: #a9a9a9; stroke-width: 0.8"/>
      </g>
     </g>
     <g id="text_15">
      <!-- 3200 -->
      <g style="fill: #a9a9a9" transform="translate(75.55 192.134488) scale(0.1 -0.1)">
       <use xlink:href="#DejaVuSans-33"/>
       <use xlink:href="#DejaVuSans-32" x="63.623047"/>
       <use xlink:href="#DejaVuSans-30" x="127.246094"/>
       <use xlink:href="#DejaVuSans-30" x="190.869141"/>
      </g>
     </g>
    </g>
    <g id="ytick_6">
     <g id="line2d_31">
      <path d="M 108 158.459751 
L 777.6 158.459751 
" clip-path="url(#pdd9c46e123)" style="fill: none; stroke-dasharray: 5.12,1.28,0.8,1.28; stroke-dashoffset: 0; stroke: #b0b0b0; stroke-width: 0.8"/>
     </g>
     <g id="line2d_32">
      <g>
       <use xlink:href="#mc1e4abec7a" x="108" y="158.459751" style="fill: #a9a9a9; stroke: #a9a9a9; stroke-width: 0.8"/>
      </g>
     </g>
     <g id="text_16">
      <!-- 4000 -->
      <g style="fill: #a9a9a9" transform="translate(75.55 162.25897) scale(0.1 -0.1)">
       <use xlink:href="#DejaVuSans-34"/>
       <use xlink:href="#DejaVuSans-30" x="63.623047"/>
       <use xlink:href="#DejaVuSans-30" x="127.246094"/>
       <use xlink:href="#DejaVuSans-30" x="190.869141"/>
      </g>
     </g>
    </g>
    <g id="ytick_7">
     <g id="line2d_33">
      <path d="M 108 128.584232 
L 777.6 128.584232 
" clip-path="url(#pdd9c46e123)" style="fill: none; stroke-dasharray: 5.12,1.28,0.8,1.28; stroke-dashoffset: 0; stroke: #b0b0b0; stroke-width: 0.8"/>
     </g>
     <g id="line2d_34">
      <g>
       <use xlink:href="#mc1e4abec7a" x="108" y="128.584232" style="fill: #a9a9a9; stroke: #a9a9a9; stroke-width: 0.8"/>
      </g>
     </g>
     <g id="text_17">
      <!-- 4800 -->
      <g style="fill: #a9a9a9" transform="translate(75.55 132.383451) scale(0.1 -0.1)">
       <use xlink:href="#DejaVuSans-34"/>
       <use xlink:href="#DejaVuSans-38" x="63.623047"/>
       <use xlink:href="#DejaVuSans-30" x="127.246094"/>
       <use xlink:href="#DejaVuSans-30" x="190.869141"/>
      </g>
     </g>
    </g>
    <g id="ytick_8">
     <g id="line2d_35">
      <path d="M 108 98.708714 
L 777.6 98.708714 
" clip-path="url(#pdd9c46e123)" style="fill: none; stroke-dasharray: 5.12,1.28,0.8,1.28; stroke-dashoffset: 0; stroke: #b0b0b0; stroke-width: 0.8"/>
     </g>
     <g id="line2d_36">
      <g>
       <use xlink:href="#mc1e4abec7a" x="108" y="98.708714" style="fill: #a9a9a9; stroke: #a9a9a9; stroke-width: 0.8"/>
      </g>
     </g>
     <g id="text_18">
      <!-- 5600 -->
      <g style="fill: #a9a9a9" transform="translate(75.55 102.507932) scale(0.1 -0.1)">
       <use xlink:href="#DejaVuSans-35"/>
       <use xlink:href="#DejaVuSans-36" x="63.623047"/>
       <use xlink:href="#DejaVuSans-30" x="127.246094"/>
       <use xlink:href="#DejaVuSans-30" x="190.869141"/>
      </g>
     </g>
    </g>
    <g id="ytick_9">
     <g id="line2d_37">
      <path d="M 108 68.833195 
L 777.6 68.833195 
" clip-path="url(#pdd9c46e123)" style="fill: none; stroke-dasharray: 5.12,1.28,0.8,1.28; stroke-dashoffset: 0; stroke: #b0b0b0; stroke-width: 0.8"/>
     </g>
     <g id="line2d_38">
      <g>
       <use xlink:href="#mc1e4abec7a" x="108" y="68.833195" style="fill: #a9a9a9; stroke: #a9a9a9; stroke-width: 0.8"/>
      </g>
     </g>
     <g id="text_19">
      <!-- 6400 -->
      <g style="fill: #a9a9a9" transform="translate(75.55 72.632414) scale(0.1 -0.1)">
       <use xlink:href="#DejaVuSans-36"/>
       <use xlink:href="#DejaVuSans-34" x="63.623047"/>
       <use xlink:href="#DejaVuSans-30" x="127.246094"/>
       <use xlink:href="#DejaVuSans-30" x="190.869141"/>
      </g>
     </g>
    </g>
   </g>
   <g id="line2d_39">
    <path d="M 138.436364 307.725311 
L 141.568751 307.4639 
L 142.090816 307.239834 
L 143.657009 307.090456 
L 147.311461 306.418257 
L 149.921784 306.194191 
L 150.965913 305.783402 
L 151.487978 305.111203 
L 152.010042 304.737759 
L 152.532107 303.580083 
L 153.054171 303.505394 
L 153.576236 303.094606 
L 154.620365 302.571784 
L 156.708623 300.928631 
L 158.796881 299.920332 
L 160.363075 299.210788 
L 160.88514 298.389212 
L 161.929269 297.642324 
L 162.451333 297.418257 
L 167.671979 296.671369 
L 168.194043 296.447303 
L 171.848495 296.148548 
L 173.936753 295.663071 
L 178.11327 295.102905 
L 178.635334 294.841494 
L 179.157399 294.766805 
L 180.201528 294.430705 
L 183.85598 293.833195 
L 184.900109 293.53444 
L 189.59869 292.750207 
L 190.642819 292.526141 
L 191.686948 292.488797 
L 193.775207 292.00332 
L 194.297271 291.293776 
L 195.863465 290.696266 
L 197.429659 290.285477 
L 197.951723 290.024066 
L 198.473788 289.986722 
L 201.08411 289.239834 
L 202.12824 289.165145 
L 203.172369 288.903734 
L 205.260627 288.380913 
L 205.782691 288.343568 
L 206.826821 287.858091 
L 207.348885 287.783402 
L 207.87095 287.521992 
L 213.61366 286.588382 
L 215.701918 285.990871 
L 216.223983 285.654772 
L 218.834305 284.795851 
L 219.878434 284.086307 
L 221.444628 283.787552 
L 231.363855 280.912033 
L 232.407984 280.501245 
L 233.452113 280.426556 
L 235.018307 279.978423 
L 235.540371 279.978423 
L 236.062436 279.754357 
L 237.106565 279.642324 
L 237.628629 279.455602 
L 238.672758 279.418257 
L 240.761017 279.156846 
L 241.805146 278.634025 
L 248.06992 275.833195 
L 248.591985 275.273029 
L 249.636114 273.704564 
L 250.158179 273.555187 
L 250.680243 273.555187 
L 251.724372 272.770954 
L 253.290566 272.248133 
L 253.812631 271.762656 
L 254.85676 271.351867 
L 255.900889 270.86639 
L 256.945018 269.372614 
L 257.467082 269.036515 
L 257.989147 268.140249 
L 258.511212 267.580083 
L 261.643599 265.936929 
L 262.687728 265.115353 
L 263.209793 264.779253 
L 263.731857 263.995021 
L 264.253922 262.837344 
L 264.775986 262.053112 
L 265.298051 261.642324 
L 265.820115 261.418257 
L 269.474567 258.356017 
L 270.518696 257.123651 
L 271.562826 256.376763 
L 273.129019 255.33112 
L 273.651084 254.882988 
L 274.695213 254.546888 
L 276.261407 253.650622 
L 277.8276 252.642324 
L 279.915858 250.775104 
L 280.959988 250.364315 
L 282.004117 249.654772 
L 282.526181 249.356017 
L 283.048246 249.281328 
L 286.702698 247.00332 
L 288.790956 245.882988 
L 289.31302 245.39751 
L 297.666053 242.484647 
L 298.710182 241.551037 
L 299.754312 241.06556 
L 300.798441 240.505394 
L 301.320505 240.206639 
L 302.364634 239.907884 
L 302.886699 239.571784 
L 303.408763 239.422407 
L 304.974957 238.414108 
L 307.58528 237.816598 
L 309.151474 236.920332 
L 310.717667 236.584232 
L 311.239732 236.434855 
L 312.805925 235.239834 
L 314.894184 234.679668 
L 315.416248 234.26888 
L 318.548636 233.223237 
L 319.0707 233.185892 
L 320.636894 232.625726 
L 324.291346 231.318672 
L 325.335475 231.169295 
L 326.901668 230.646473 
L 329.511991 229.414108 
L 331.600249 228.293776 
L 335.776766 226.613278 
L 336.298831 226.538589 
L 337.34296 225.903734 
L 337.865024 225.829046 
L 339.953282 224.970124 
L 342.041541 224.671369 
L 343.08567 224.148548 
L 343.607734 223.700415 
L 344.129799 222.766805 
L 346.218057 222.206639 
L 347.784251 221.422407 
L 348.306315 221.310373 
L 352.482832 219.33112 
L 354.049025 219.032365 
L 355.093155 218.509544 
L 355.615219 218.285477 
L 356.137284 218.210788 
L 358.225542 217.277178 
L 359.791736 216.306224 
L 361.357929 216.007469 
L 363.968252 215.372614 
L 364.490317 214.961826 
L 366.05651 214.40166 
L 368.144768 213.580083 
L 368.666833 213.206639 
L 369.188898 213.019917 
L 370.233027 212.459751 
L 372.843349 211.60083 
L 374.409543 210.368465 
L 374.931608 210.256432 
L 375.975737 209.434855 
L 376.497801 209.360166 
L 377.019866 208.538589 
L 377.54193 208.314523 
L 378.063995 207.903734 
L 378.58606 207.829046 
L 379.630189 207.194191 
L 380.674318 206.858091 
L 381.196382 206.447303 
L 381.718447 206.260581 
L 383.284641 205.177593 
L 385.372899 204.094606 
L 385.894963 204.019917 
L 387.461157 203.235685 
L 387.983222 202.376763 
L 388.505286 201.928631 
L 389.027351 201.629876 
L 389.549415 201.517842 
L 390.593544 200.845643 
L 391.115609 200.73361 
L 392.159738 200.210788 
L 394.247996 199.20249 
L 394.770061 198.829046 
L 396.336254 197.409959 
L 397.380384 196.812448 
L 397.902448 196.252282 
L 399.990706 194.833195 
L 400.512771 194.235685 
L 401.034835 193.824896 
L 402.078965 193.451452 
L 403.123094 192.741909 
L 404.689287 191.957676 
L 405.211352 191.882988 
L 406.777546 191.061411 
L 407.821675 190.426556 
L 413.04232 188.559336 
L 413.564385 188.148548 
L 415.652643 187.364315 
L 416.174708 187.214938 
L 416.696772 186.804149 
L 419.307095 185.385062 
L 420.351224 183.33112 
L 421.395353 182.1361 
L 422.439482 181.501245 
L 424.005676 180.86639 
L 424.527741 180.791701 
L 425.049805 180.492946 
L 427.660128 179.671369 
L 428.182192 179.447303 
L 429.226322 178.737759 
L 430.792515 178.06556 
L 431.836644 177.505394 
L 432.358709 177.13195 
L 432.880773 176.907884 
L 433.402838 176.53444 
L 433.924903 175.974274 
L 434.969032 175.414108 
L 437.579354 174.032365 
L 440.711742 172.501245 
L 441.755871 172.165145 
L 443.322065 171.679668 
L 445.410323 170.746058 
L 446.454452 170.33527 
L 446.976516 169.924481 
L 448.020646 169.588382 
L 451.153033 167.982573 
L 452.197162 167.160996 
L 453.241291 166.787552 
L 453.763356 166.339419 
L 454.28542 166.26473 
L 455.329549 165.480498 
L 456.373678 164.957676 
L 456.895743 164.73361 
L 457.417808 164.210788 
L 461.072259 162.791701 
L 462.116389 162.343568 
L 463.682582 161.858091 
L 464.726711 161.708714 
L 465.248776 161.484647 
L 465.77084 161.409959 
L 466.81497 160.961826 
L 467.337034 160.924481 
L 469.425292 160.140249 
L 470.991486 159.057261 
L 471.513551 158.870539 
L 472.55768 158.310373 
L 473.079744 158.160996 
L 476.212132 156.443154 
L 476.734196 156.33112 
L 478.30039 155.434855 
L 479.866584 154.912033 
L 480.910713 154.575934 
L 482.998971 153.903734 
L 484.0431 153.567635 
L 486.131358 153.156846 
L 486.653423 152.93278 
L 487.175487 152.858091 
L 488.219616 152.409959 
L 488.741681 152.33527 
L 489.263746 152.073859 
L 490.307875 151.887137 
L 491.874068 151.326971 
L 492.918197 151.214938 
L 494.484391 150.878838 
L 497.094714 150.430705 
L 510.668392 146.546888 
L 511.190457 146.024066 
L 512.234586 145.613278 
L 515.366973 144.492946 
L 515.889038 144.156846 
L 516.411102 144.044813 
L 516.933167 143.746058 
L 518.499361 143.297925 
L 519.54349 143.036515 
L 520.065554 142.700415 
L 520.587619 142.588382 
L 521.109683 142.140249 
L 522.675877 141.841494 
L 523.720006 141.356017 
L 524.242071 140.758506 
L 526.330329 140.273029 
L 529.984781 139.526141 
L 530.506845 139.526141 
L 531.02891 139.302075 
L 533.117168 138.928631 
L 533.639233 138.704564 
L 535.727491 138.33112 
L 536.77162 137.882988 
L 537.293685 137.845643 
L 546.168782 135.194191 
L 546.690847 134.970124 
L 547.212911 134.59668 
L 548.25704 134.297925 
L 549.301169 133.961826 
L 550.345299 133.551037 
L 551.911492 132.878838 
L 553.477686 132.766805 
L 555.565944 132.169295 
L 556.088009 131.870539 
L 557.132138 131.571784 
L 559.742461 130.414108 
L 560.264525 130.376763 
L 566.007235 128.39751 
L 568.617558 127.725311 
L 569.661687 127.239834 
L 571.227881 126.903734 
L 571.749945 126.492946 
L 572.27201 126.231535 
L 572.794075 125.59668 
L 573.316139 125.223237 
L 574.360268 124.924481 
L 574.882333 124.513693 
L 578.01472 123.356017 
L 578.536785 123.019917 
L 579.580914 122.721162 
L 580.102978 122.385062 
L 582.713301 121.526141 
L 584.279495 120.629876 
L 584.801559 120.517842 
L 585.845688 119.920332 
L 586.367753 119.696266 
L 587.411882 119.061411 
L 588.978076 118.314523 
L 589.50014 117.941079 
L 590.544269 117.604979 
L 591.588399 117.007469 
L 592.110463 116.820747 
L 592.632528 116.447303 
L 599.419367 114.094606 
L 599.941431 113.982573 
L 600.463496 113.646473 
L 602.551754 113.235685 
L 603.595883 112.824896 
L 604.117948 112.526141 
L 604.640012 112.376763 
L 606.728271 111.293776 
L 607.250335 111.219087 
L 608.816529 110.360166 
L 611.948916 109.127801 
L 614.037174 108.306224 
L 614.559239 108.156846 
L 615.081304 107.820747 
L 616.125433 107.671369 
L 616.647497 107.33527 
L 617.169562 107.297925 
L 618.213691 106.961826 
L 619.25782 106.439004 
L 619.779885 106.364315 
L 622.390207 105.318672 
L 623.956401 104.870539 
L 625.00053 104.609129 
L 626.566724 104.160996 
L 627.610853 103.750207 
L 629.699111 102.629876 
L 630.74324 102.219087 
L 631.265305 101.882988 
L 632.309434 101.658921 
L 632.831499 101.360166 
L 633.353563 101.248133 
L 634.919757 100.389212 
L 635.963886 99.978423 
L 637.53008 99.26888 
L 639.096273 98.858091 
L 642.228661 97.625726 
L 643.794854 97.102905 
L 651.625823 93.741909 
L 652.669952 93.480498 
L 657.368533 91.538589 
L 657.890597 91.538589 
L 658.934726 91.090456 
L 659.978855 90.156846 
L 660.50092 89.708714 
L 662.067114 88.961826 
L 662.589178 88.849793 
L 663.111243 88.588382 
L 663.633307 88.513693 
L 664.155372 88.140249 
L 664.677436 88.028216 
L 665.721566 87.393361 
L 667.287759 86.609129 
L 668.331888 86.19834 
L 668.853953 85.936929 
L 671.464276 85.302075 
L 671.98634 85.040664 
L 673.552534 84.592531 
L 675.640792 83.584232 
L 676.684921 83.098755 
L 677.72905 82.837344 
L 679.817309 81.86639 
L 680.339373 81.717012 
L 680.861438 81.380913 
L 683.993825 80.260581 
L 685.560019 79.326971 
L 686.082083 79.214938 
L 687.126212 78.692116 
L 688.170341 78.318672 
L 688.692406 77.870539 
L 689.736535 77.459751 
L 691.302729 76.824896 
L 691.824793 76.414108 
L 692.346858 76.376763 
L 693.390987 76.078008 
L 694.435116 75.741909 
L 694.957181 75.480498 
L 695.479245 75.405809 
L 697.045439 74.845643 
L 698.611633 74.285477 
L 699.655762 73.874689 
L 700.177826 73.4639 
L 701.74402 73.053112 
L 702.266085 72.754357 
L 703.310214 72.492946 
L 704.876407 71.634025 
L 705.398472 71.59668 
L 706.964666 71.111203 
L 708.008795 70.99917 
L 709.052924 70.588382 
L 712.185311 69.692116 
L 713.22944 69.654772 
L 716.361828 68.646473 
L 716.883892 68.571784 
L 718.450086 67.750207 
L 718.97215 67.302075 
L 720.538344 66.405809 
L 721.060409 65.995021 
L 722.104538 65.584232 
L 724.71486 64.687967 
L 725.236925 64.277178 
L 726.803119 63.567635 
L 727.325183 63.455602 
L 728.369312 62.970124 
L 729.935506 62.559336 
L 731.5017 61.887137 
L 732.545829 61.40166 
L 734.112022 60.766805 
L 734.634087 60.654772 
L 736.200281 59.907884 
L 736.722345 59.795851 
L 737.766474 59.086307 
L 739.332668 58.638174 
L 740.898862 57.592531 
L 741.420926 57.517842 
L 744.031249 56.472199 
L 745.597443 56.098755 
L 746.119507 56.024066 
L 746.641572 55.8 
L 747.163636 55.8 
L 747.163636 55.8 
" clip-path="url(#pdd9c46e123)" style="fill: none; stroke: #1f77b4; stroke-width: 1.5; stroke-linecap: square"/>
   </g>
   <g id="line2d_40">
    <path d="M 138.958428 307.8 
L 140.524622 307.725311 
L 142.090816 307.687967 
L 145.223203 307.613278 
L 147.833526 307.501245 
L 149.921784 307.501245 
L 150.443848 307.351867 
L 152.532107 307.277178 
L 154.0983 307.090456 
L 156.186559 306.903734 
L 157.752752 306.829046 
L 162.973398 306.53029 
L 167.149914 306.455602 
L 169.760237 306.343568 
L 176.025012 306.26888 
L 178.635334 306.156846 
L 181.767722 306.082158 
L 183.85598 306.007469 
L 188.554561 305.93278 
L 190.120755 305.895436 
L 191.686948 305.858091 
L 193.775207 305.671369 
L 195.3414 305.634025 
L 197.951723 305.559336 
L 200.039981 305.484647 
L 203.694433 305.409959 
L 205.782691 305.223237 
L 208.393014 305.148548 
L 209.959208 305.111203 
L 212.569531 305.036515 
L 214.135724 304.887137 
L 217.790176 304.812448 
L 220.400499 304.588382 
L 221.444628 304.476349 
L 226.143209 304.214938 
L 229.275596 304.140249 
L 233.974177 303.878838 
L 235.540371 303.804149 
L 240.761017 303.505394 
L 246.503727 303.430705 
L 248.591985 303.206639 
L 249.636114 303.13195 
L 256.422953 302.571784 
L 260.077405 302.160996 
L 261.643599 302.086307 
L 266.34218 301.526141 
L 268.952503 301.451452 
L 270.518696 301.302075 
L 271.562826 301.26473 
L 273.129019 301.152697 
L 274.173148 301.078008 
L 275.739342 300.853942 
L 276.261407 300.853942 
L 277.8276 300.629876 
L 279.915858 300.555187 
L 280.959988 300.480498 
L 283.048246 300.405809 
L 284.092375 300.33112 
L 286.702698 300.06971 
L 287.746827 299.882988 
L 289.31302 299.845643 
L 290.35715 299.770954 
L 292.967472 299.696266 
L 299.754312 299.285477 
L 301.320505 299.210788 
L 308.107344 298.8 
L 311.761796 298.725311 
L 312.805925 298.613278 
L 316.460377 298.538589 
L 320.114829 298.351867 
L 325.857539 298.277178 
L 329.511991 298.090456 
L 333.688508 298.015768 
L 337.865024 297.791701 
L 341.519476 297.717012 
L 351.438703 297.082158 
L 356.659348 297.007469 
L 359.269671 296.746058 
L 361.879994 296.708714 
L 364.490317 296.447303 
L 369.188898 296.185892 
L 372.321285 296.111203 
L 373.887479 296.073859 
L 375.453672 296.036515 
L 377.019866 295.887137 
L 381.196382 295.812448 
L 382.240511 295.663071 
L 383.284641 295.588382 
L 385.894963 295.476349 
L 386.939092 295.40166 
L 387.983222 295.326971 
L 392.681803 295.252282 
L 394.247996 295.140249 
L 407.821675 294.243983 
L 409.909933 294.169295 
L 412.520256 294.057261 
L 419.82916 293.982573 
L 423.483611 293.795851 
L 427.660128 293.721162 
L 429.748386 293.646473 
L 431.836644 293.609129 
L 433.402838 293.497095 
L 438.101419 293.235685 
L 439.145548 293.160996 
L 441.233806 293.086307 
L 443.844129 293.011618 
L 446.454452 292.899585 
L 450.108904 292.824896 
L 452.197162 292.750207 
L 458.461937 292.675519 
L 461.072259 292.563485 
L 464.204647 292.488797 
L 466.292905 292.302075 
L 467.859099 292.26473 
L 469.947357 292.190041 
L 471.513551 292.078008 
L 477.256261 292.00332 
L 479.344519 291.928631 
L 486.653423 291.853942 
L 488.219616 291.816598 
L 491.352004 291.741909 
L 492.918197 291.704564 
L 499.705037 291.629876 
L 500.749166 291.555187 
L 506.491876 291.480498 
L 508.580134 291.405809 
L 518.499361 291.33112 
L 520.065554 291.293776 
L 524.764135 291.219087 
L 525.808264 291.144398 
L 538.337814 291.06971 
L 539.904007 291.032365 
L 553.999751 290.957676 
L 555.565944 290.920332 
L 564.963106 290.845643 
L 566.007235 290.770954 
L 568.617558 290.696266 
L 570.183752 290.546888 
L 572.794075 290.472199 
L 575.926462 290.322822 
L 580.102978 290.248133 
L 581.147107 290.173444 
L 585.323624 290.098755 
L 588.456011 289.949378 
L 591.066334 289.874689 
L 595.24285 289.650622 
L 598.375238 289.575934 
L 600.463496 289.501245 
L 607.250335 289.426556 
L 609.338593 289.351867 
L 613.51511 289.277178 
L 617.169562 289.090456 
L 621.868143 289.015768 
L 622.912272 288.941079 
L 632.309434 288.86639 
L 633.875628 288.829046 
L 636.48595 288.791701 
L 639.096273 288.53029 
L 643.27279 288.455602 
L 648.493435 288.156846 
L 651.103758 288.082158 
L 653.192016 288.007469 
L 658.934726 287.93278 
L 662.067114 287.59668 
L 665.721566 287.521992 
L 668.853953 287.372614 
L 672.508405 287.297925 
L 675.118728 287.185892 
L 681.905567 287.148548 
L 682.949696 287.036515 
L 686.604148 286.961826 
L 688.170341 286.924481 
L 690.780664 286.849793 
L 692.346858 286.812448 
L 701.221955 286.737759 
L 703.832278 286.625726 
L 711.141182 286.551037 
L 713.22944 286.476349 
L 718.97215 286.40166 
L 720.016279 286.289627 
L 724.71486 286.252282 
L 725.75899 286.177593 
L 728.369312 286.102905 
L 729.935506 286.06556 
L 736.722345 285.990871 
L 738.288539 285.953527 
L 739.332668 285.878838 
L 740.898862 285.841494 
L 741.420926 285.841494 
L 742.465055 285.654772 
L 747.163636 285.580083 
L 747.163636 285.580083 
" clip-path="url(#pdd9c46e123)" style="fill: none; stroke: #ff7f0e; stroke-width: 1.5; stroke-linecap: square"/>
   </g>
   <g id="patch_3">
    <path d="M 108 320.4 
L 108 43.2 
" style="fill: none; stroke: #a9a9a9; stroke-width: 0.8; stroke-linejoin: miter; stroke-linecap: square"/>
   </g>
   <g id="patch_4">
    <path d="M 777.6 320.4 
L 777.6 43.2 
" style="fill: none"/>
   </g>
   <g id="patch_5">
    <path d="M 108 320.4 
L 777.6 320.4 
" style="fill: none; stroke: #a9a9a9; stroke-width: 0.8; stroke-linejoin: miter; stroke-linecap: square"/>
   </g>
   <g id="patch_6">
    <path d="M 108 43.2 
L 777.6 43.2 
" style="fill: none"/>
   </g>
   <g id="text_20">
    <!-- get_subscribe history -->
    <g style="fill: #a9a9a9" transform="translate(378.6075 37.2) scale(0.12 -0.12)">
     <defs>
      <path id="DejaVuSans-67" d="M 2906 1791 
Q 2906 2416 2648 2759 
Q 2391 3103 1925 3103 
Q 1463 3103 1205 2759 
Q 947 2416 947 1791 
Q 947 1169 1205 825 
Q 1463 481 1925 481 
Q 2391 481 2648 825 
Q 2906 1169 2906 1791 
z
M 3481 434 
Q 3481 -459 3084 -895 
Q 2688 -1331 1869 -1331 
Q 1566 -1331 1297 -1286 
Q 1028 -1241 775 -1147 
L 775 -588 
Q 1028 -725 1275 -790 
Q 1522 -856 1778 -856 
Q 2344 -856 2625 -561 
Q 2906 -266 2906 331 
L 2906 616 
Q 2728 306 2450 153 
Q 2172 0 1784 0 
Q 1141 0 747 490 
Q 353 981 353 1791 
Q 353 2603 747 3093 
Q 1141 3584 1784 3584 
Q 2172 3584 2450 3431 
Q 2728 3278 2906 2969 
L 2906 3500 
L 3481 3500 
L 3481 434 
z
" transform="scale(0.015625)"/>
      <path id="DejaVuSans-65" d="M 3597 1894 
L 3597 1613 
L 953 1613 
Q 991 1019 1311 708 
Q 1631 397 2203 397 
Q 2534 397 2845 478 
Q 3156 559 3463 722 
L 3463 178 
Q 3153 47 2828 -22 
Q 2503 -91 2169 -91 
Q 1331 -91 842 396 
Q 353 884 353 1716 
Q 353 2575 817 3079 
Q 1281 3584 2069 3584 
Q 2775 3584 3186 3129 
Q 3597 2675 3597 1894 
z
M 3022 2063 
Q 3016 2534 2758 2815 
Q 2500 3097 2075 3097 
Q 1594 3097 1305 2825 
Q 1016 2553 972 2059 
L 3022 2063 
z
" transform="scale(0.015625)"/>
      <path id="DejaVuSans-74" d="M 1172 4494 
L 1172 3500 
L 2356 3500 
L 2356 3053 
L 1172 3053 
L 1172 1153 
Q 1172 725 1289 603 
Q 1406 481 1766 481 
L 2356 481 
L 2356 0 
L 1766 0 
Q 1100 0 847 248 
Q 594 497 594 1153 
L 594 3053 
L 172 3053 
L 172 3500 
L 594 3500 
L 594 4494 
L 1172 4494 
z
" transform="scale(0.015625)"/>
      <path id="DejaVuSans-5f" d="M 3263 -1063 
L 3263 -1509 
L -63 -1509 
L -63 -1063 
L 3263 -1063 
z
" transform="scale(0.015625)"/>
      <path id="DejaVuSans-73" d="M 2834 3397 
L 2834 2853 
Q 2591 2978 2328 3040 
Q 2066 3103 1784 3103 
Q 1356 3103 1142 2972 
Q 928 2841 928 2578 
Q 928 2378 1081 2264 
Q 1234 2150 1697 2047 
L 1894 2003 
Q 2506 1872 2764 1633 
Q 3022 1394 3022 966 
Q 3022 478 2636 193 
Q 2250 -91 1575 -91 
Q 1294 -91 989 -36 
Q 684 19 347 128 
L 347 722 
Q 666 556 975 473 
Q 1284 391 1588 391 
Q 1994 391 2212 530 
Q 2431 669 2431 922 
Q 2431 1156 2273 1281 
Q 2116 1406 1581 1522 
L 1381 1569 
Q 847 1681 609 1914 
Q 372 2147 372 2553 
Q 372 3047 722 3315 
Q 1072 3584 1716 3584 
Q 2034 3584 2315 3537 
Q 2597 3491 2834 3397 
z
" transform="scale(0.015625)"/>
      <path id="DejaVuSans-75" d="M 544 1381 
L 544 3500 
L 1119 3500 
L 1119 1403 
Q 1119 906 1312 657 
Q 1506 409 1894 409 
Q 2359 409 2629 706 
Q 2900 1003 2900 1516 
L 2900 3500 
L 3475 3500 
L 3475 0 
L 2900 0 
L 2900 538 
Q 2691 219 2414 64 
Q 2138 -91 1772 -91 
Q 1169 -91 856 284 
Q 544 659 544 1381 
z
M 1991 3584 
L 1991 3584 
z
" transform="scale(0.015625)"/>
      <path id="DejaVuSans-62" d="M 3116 1747 
Q 3116 2381 2855 2742 
Q 2594 3103 2138 3103 
Q 1681 3103 1420 2742 
Q 1159 2381 1159 1747 
Q 1159 1113 1420 752 
Q 1681 391 2138 391 
Q 2594 391 2855 752 
Q 3116 1113 3116 1747 
z
M 1159 2969 
Q 1341 3281 1617 3432 
Q 1894 3584 2278 3584 
Q 2916 3584 3314 3078 
Q 3713 2572 3713 1747 
Q 3713 922 3314 415 
Q 2916 -91 2278 -91 
Q 1894 -91 1617 61 
Q 1341 213 1159 525 
L 1159 0 
L 581 0 
L 581 4863 
L 1159 4863 
L 1159 2969 
z
" transform="scale(0.015625)"/>
      <path id="DejaVuSans-63" d="M 3122 3366 
L 3122 2828 
Q 2878 2963 2633 3030 
Q 2388 3097 2138 3097 
Q 1578 3097 1268 2742 
Q 959 2388 959 1747 
Q 959 1106 1268 751 
Q 1578 397 2138 397 
Q 2388 397 2633 464 
Q 2878 531 3122 666 
L 3122 134 
Q 2881 22 2623 -34 
Q 2366 -91 2075 -91 
Q 1284 -91 818 406 
Q 353 903 353 1747 
Q 353 2603 823 3093 
Q 1294 3584 2113 3584 
Q 2378 3584 2631 3529 
Q 2884 3475 3122 3366 
z
" transform="scale(0.015625)"/>
      <path id="DejaVuSans-72" d="M 2631 2963 
Q 2534 3019 2420 3045 
Q 2306 3072 2169 3072 
Q 1681 3072 1420 2755 
Q 1159 2438 1159 1844 
L 1159 0 
L 581 0 
L 581 3500 
L 1159 3500 
L 1159 2956 
Q 1341 3275 1631 3429 
Q 1922 3584 2338 3584 
Q 2397 3584 2469 3576 
Q 2541 3569 2628 3553 
L 2631 2963 
z
" transform="scale(0.015625)"/>
      <path id="DejaVuSans-69" d="M 603 3500 
L 1178 3500 
L 1178 0 
L 603 0 
L 603 3500 
z
M 603 4863 
L 1178 4863 
L 1178 4134 
L 603 4134 
L 603 4863 
z
" transform="scale(0.015625)"/>
      <path id="DejaVuSans-20" transform="scale(0.015625)"/>
      <path id="DejaVuSans-68" d="M 3513 2113 
L 3513 0 
L 2938 0 
L 2938 2094 
Q 2938 2591 2744 2837 
Q 2550 3084 2163 3084 
Q 1697 3084 1428 2787 
Q 1159 2491 1159 1978 
L 1159 0 
L 581 0 
L 581 4863 
L 1159 4863 
L 1159 2956 
Q 1366 3272 1645 3428 
Q 1925 3584 2291 3584 
Q 2894 3584 3203 3211 
Q 3513 2838 3513 2113 
z
" transform="scale(0.015625)"/>
      <path id="DejaVuSans-6f" d="M 1959 3097 
Q 1497 3097 1228 2736 
Q 959 2375 959 1747 
Q 959 1119 1226 758 
Q 1494 397 1959 397 
Q 2419 397 2687 759 
Q 2956 1122 2956 1747 
Q 2956 2369 2687 2733 
Q 2419 3097 1959 3097 
z
M 1959 3584 
Q 2709 3584 3137 3096 
Q 3566 2609 3566 1747 
Q 3566 888 3137 398 
Q 2709 -91 1959 -91 
Q 1206 -91 779 398 
Q 353 888 353 1747 
Q 353 2609 779 3096 
Q 1206 3584 1959 3584 
z
" transform="scale(0.015625)"/>
      <path id="DejaVuSans-79" d="M 2059 -325 
Q 1816 -950 1584 -1140 
Q 1353 -1331 966 -1331 
L 506 -1331 
L 506 -850 
L 844 -850 
Q 1081 -850 1212 -737 
Q 1344 -625 1503 -206 
L 1606 56 
L 191 3500 
L 800 3500 
L 1894 763 
L 2988 3500 
L 3597 3500 
L 2059 -325 
z
" transform="scale(0.015625)"/>
     </defs>
     <use xlink:href="#DejaVuSans-67"/>
     <use xlink:href="#DejaVuSans-65" x="63.476562"/>
     <use xlink:href="#DejaVuSans-74" x="125"/>
     <use xlink:href="#DejaVuSans-5f" x="164.208984"/>
     <use xlink:href="#DejaVuSans-73" x="214.208984"/>
     <use xlink:href="#DejaVuSans-75" x="266.308594"/>
     <use xlink:href="#DejaVuSans-62" x="329.6875"/>
     <use xlink:href="#DejaVuSans-73" x="393.164062"/>
     <use xlink:href="#DejaVuSans-63" x="445.263672"/>
     <use xlink:href="#DejaVuSans-72" x="500.244141"/>
     <use xlink:href="#DejaVuSans-69" x="541.357422"/>
     <use xlink:href="#DejaVuSans-62" x="569.140625"/>
     <use xlink:href="#DejaVuSans-65" x="632.617188"/>
     <use xlink:href="#DejaVuSans-20" x="694.140625"/>
     <use xlink:href="#DejaVuSans-68" x="725.927734"/>
     <use xlink:href="#DejaVuSans-69" x="789.306641"/>
     <use xlink:href="#DejaVuSans-73" x="817.089844"/>
     <use xlink:href="#DejaVuSans-74" x="869.189453"/>
     <use xlink:href="#DejaVuSans-6f" x="908.398438"/>
     <use xlink:href="#DejaVuSans-72" x="969.580078"/>
     <use xlink:href="#DejaVuSans-79" x="1010.693359"/>
    </g>
   </g>
   <g id="legend_1">
    <g id="line2d_41">
     <path d="M 815.08 328.498438 
L 825.08 328.498438 
L 835.08 328.498438 
" style="fill: none; stroke: #1f77b4; stroke-width: 1.5; stroke-linecap: square"/>
    </g>
    <g id="text_21">
     <!-- star -->
     <g style="fill: #a9a9a9" transform="translate(843.08 331.998438) scale(0.1 -0.1)">
      <defs>
       <path id="DejaVuSans-61" d="M 2194 1759 
Q 1497 1759 1228 1600 
Q 959 1441 959 1056 
Q 959 750 1161 570 
Q 1363 391 1709 391 
Q 2188 391 2477 730 
Q 2766 1069 2766 1631 
L 2766 1759 
L 2194 1759 
z
M 3341 1997 
L 3341 0 
L 2766 0 
L 2766 531 
Q 2569 213 2275 61 
Q 1981 -91 1556 -91 
Q 1019 -91 701 211 
Q 384 513 384 1019 
Q 384 1609 779 1909 
Q 1175 2209 1959 2209 
L 2766 2209 
L 2766 2266 
Q 2766 2663 2505 2880 
Q 2244 3097 1772 3097 
Q 1472 3097 1187 3025 
Q 903 2953 641 2809 
L 641 3341 
Q 956 3463 1253 3523 
Q 1550 3584 1831 3584 
Q 2591 3584 2966 3190 
Q 3341 2797 3341 1997 
z
" transform="scale(0.015625)"/>
      </defs>
      <use xlink:href="#DejaVuSans-73"/>
      <use xlink:href="#DejaVuSans-74" x="52.099609"/>
      <use xlink:href="#DejaVuSans-61" x="91.308594"/>
      <use xlink:href="#DejaVuSans-72" x="152.587891"/>
     </g>
    </g>
    <g id="line2d_42">
     <path d="M 815.08 343.176562 
L 825.08 343.176562 
L 835.08 343.176562 
" style="fill: none; stroke: #ff7f0e; stroke-width: 1.5; stroke-linecap: square"/>
    </g>
    <g id="text_22">
     <!-- fork -->
     <g style="fill: #a9a9a9" transform="translate(843.08 346.676562) scale(0.1 -0.1)">
      <defs>
       <path id="DejaVuSans-66" d="M 2375 4863 
L 2375 4384 
L 1825 4384 
Q 1516 4384 1395 4259 
Q 1275 4134 1275 3809 
L 1275 3500 
L 2222 3500 
L 2222 3053 
L 1275 3053 
L 1275 0 
L 697 0 
L 697 3053 
L 147 3053 
L 147 3500 
L 697 3500 
L 697 3744 
Q 697 4328 969 4595 
Q 1241 4863 1831 4863 
L 2375 4863 
z
" transform="scale(0.015625)"/>
       <path id="DejaVuSans-6b" d="M 581 4863 
L 1159 4863 
L 1159 1991 
L 2875 3500 
L 3609 3500 
L 1753 1863 
L 3688 0 
L 2938 0 
L 1159 1709 
L 1159 0 
L 581 0 
L 581 4863 
z
" transform="scale(0.015625)"/>
      </defs>
      <use xlink:href="#DejaVuSans-66"/>
      <use xlink:href="#DejaVuSans-6f" x="35.205078"/>
      <use xlink:href="#DejaVuSans-72" x="96.386719"/>
      <use xlink:href="#DejaVuSans-6b" x="137.5"/>
     </g>
    </g>
   </g>
  </g>
 </g>
 <defs>
  <clipPath id="pdd9c46e123">
   <rect x="108" y="43.2" width="669.6" height="277.2"/>
  </clipPath>
 </defs>
</svg>
