<?xml version="1.0" encoding="utf-8" standalone="no"?>
<!DOCTYPE svg PUBLIC "-//W3C//DTD SVG 1.1//EN"
  "http://www.w3.org/Graphics/SVG/1.1/DTD/svg11.dtd">
<svg xmlns:xlink="http://www.w3.org/1999/xlink" width="864pt" height="360pt" viewBox="0 0 864 360" xmlns="http://www.w3.org/2000/svg" version="1.1">
 <metadata>
  <rdf:RDF xmlns:dc="http://purl.org/dc/elements/1.1/" xmlns:cc="http://creativecommons.org/ns#" xmlns:rdf="http://www.w3.org/1999/02/22-rdf-syntax-ns#">
   <cc:Work>
    <dc:type rdf:resource="http://purl.org/dc/dcmitype/StillImage"/>
    <dc:date>2025-05-23T08:16:11.993877</dc:date>
    <dc:format>image/svg+xml</dc:format>
    <dc:creator>
     <cc:Agent>
      <dc:title>Matplotlib v3.10.3, https://matplotlib.org/</dc:title>
     </cc:Agent>
    </dc:creator>
   </cc:Work>
  </rdf:RDF>
 </metadata>
 <defs>
  <style type="text/css">*{stroke-linejoin: round; stroke-linecap: butt}</style>
 </defs>
 <g id="figure_1">
  <g id="patch_1">
   <path d="M 0 360 
L 864 360 
L 864 0 
L 0 0 
L 0 360 
z
" style="fill: none; opacity: 0"/>
  </g>
  <g id="axes_1">
   <g id="patch_2">
    <path d="M 108 320.4 
L 777.6 320.4 
L 777.6 43.2 
L 108 43.2 
L 108 320.4 
z
" style="fill: none; opacity: 0"/>
   </g>
   <g id="matplotlib.axis_1">
    <g id="xtick_1">
     <g id="line2d_1">
      <path d="M 128.428696 320.4 
L 128.428696 43.2 
" clip-path="url(#p5fe6f78ee5)" style="fill: none; stroke-dasharray: 5.12,1.28,0.8,1.28; stroke-dashoffset: 0; stroke: #b0b0b0; stroke-width: 0.8"/>
     </g>
     <g id="line2d_2">
      <defs>
       <path id="mbc5524ac3f" d="M 0 0 
L 0 3.5 
" style="stroke: #a9a9a9; stroke-width: 0.8"/>
      </defs>
      <g>
       <use xlink:href="#mbc5524ac3f" x="128.428696" y="320.4" style="fill: #a9a9a9; stroke: #a9a9a9; stroke-width: 0.8"/>
      </g>
     </g>
     <g id="text_1">
      <!-- 2021-07 -->
      <g style="fill: #a9a9a9" transform="translate(107.53729 334.998438) scale(0.1 -0.1)">
       <defs>
        <path id="DejaVuSans-32" d="M 1228 531 
L 3431 531 
L 3431 0 
L 469 0 
L 469 531 
Q 828 903 1448 1529 
Q 2069 2156 2228 2338 
Q 2531 2678 2651 2914 
Q 2772 3150 2772 3378 
Q 2772 3750 2511 3984 
Q 2250 4219 1831 4219 
Q 1534 4219 1204 4116 
Q 875 4013 500 3803 
L 500 4441 
Q 881 4594 1212 4672 
Q 1544 4750 1819 4750 
Q 2544 4750 2975 4387 
Q 3406 4025 3406 3419 
Q 3406 3131 3298 2873 
Q 3191 2616 2906 2266 
Q 2828 2175 2409 1742 
Q 1991 1309 1228 531 
z
" transform="scale(0.015625)"/>
        <path id="DejaVuSans-30" d="M 2034 4250 
Q 1547 4250 1301 3770 
Q 1056 3291 1056 2328 
Q 1056 1369 1301 889 
Q 1547 409 2034 409 
Q 2525 409 2770 889 
Q 3016 1369 3016 2328 
Q 3016 3291 2770 3770 
Q 2525 4250 2034 4250 
z
M 2034 4750 
Q 2819 4750 3233 4129 
Q 3647 3509 3647 2328 
Q 3647 1150 3233 529 
Q 2819 -91 2034 -91 
Q 1250 -91 836 529 
Q 422 1150 422 2328 
Q 422 3509 836 4129 
Q 1250 4750 2034 4750 
z
" transform="scale(0.015625)"/>
        <path id="DejaVuSans-31" d="M 794 531 
L 1825 531 
L 1825 4091 
L 703 3866 
L 703 4441 
L 1819 4666 
L 2450 4666 
L 2450 531 
L 3481 531 
L 3481 0 
L 794 0 
L 794 531 
z
" transform="scale(0.015625)"/>
        <path id="DejaVuSans-2d" d="M 313 2009 
L 1997 2009 
L 1997 1497 
L 313 1497 
L 313 2009 
z
" transform="scale(0.015625)"/>
        <path id="DejaVuSans-37" d="M 525 4666 
L 3525 4666 
L 3525 4397 
L 1831 0 
L 1172 0 
L 2766 4134 
L 525 4134 
L 525 4666 
z
" transform="scale(0.015625)"/>
       </defs>
       <use xlink:href="#DejaVuSans-32"/>
       <use xlink:href="#DejaVuSans-30" transform="translate(63.623047 0)"/>
       <use xlink:href="#DejaVuSans-32" transform="translate(127.246094 0)"/>
       <use xlink:href="#DejaVuSans-31" transform="translate(190.869141 0)"/>
       <use xlink:href="#DejaVuSans-2d" transform="translate(254.492188 0)"/>
       <use xlink:href="#DejaVuSans-30" transform="translate(290.576172 0)"/>
       <use xlink:href="#DejaVuSans-37" transform="translate(354.199219 0)"/>
      </g>
     </g>
    </g>
    <g id="xtick_2">
     <g id="line2d_3">
      <path d="M 208.490038 320.4 
L 208.490038 43.2 
" clip-path="url(#p5fe6f78ee5)" style="fill: none; stroke-dasharray: 5.12,1.28,0.8,1.28; stroke-dashoffset: 0; stroke: #b0b0b0; stroke-width: 0.8"/>
     </g>
     <g id="line2d_4">
      <g>
       <use xlink:href="#mbc5524ac3f" x="208.490038" y="320.4" style="fill: #a9a9a9; stroke: #a9a9a9; stroke-width: 0.8"/>
      </g>
     </g>
     <g id="text_2">
      <!-- 2022-01 -->
      <g style="fill: #a9a9a9" transform="translate(187.598632 334.998438) scale(0.1 -0.1)">
       <use xlink:href="#DejaVuSans-32"/>
       <use xlink:href="#DejaVuSans-30" transform="translate(63.623047 0)"/>
       <use xlink:href="#DejaVuSans-32" transform="translate(127.246094 0)"/>
       <use xlink:href="#DejaVuSans-32" transform="translate(190.869141 0)"/>
       <use xlink:href="#DejaVuSans-2d" transform="translate(254.492188 0)"/>
       <use xlink:href="#DejaVuSans-30" transform="translate(290.576172 0)"/>
       <use xlink:href="#DejaVuSans-31" transform="translate(354.199219 0)"/>
      </g>
     </g>
    </g>
    <g id="xtick_3">
     <g id="line2d_5">
      <path d="M 287.246033 320.4 
L 287.246033 43.2 
" clip-path="url(#p5fe6f78ee5)" style="fill: none; stroke-dasharray: 5.12,1.28,0.8,1.28; stroke-dashoffset: 0; stroke: #b0b0b0; stroke-width: 0.8"/>
     </g>
     <g id="line2d_6">
      <g>
       <use xlink:href="#mbc5524ac3f" x="287.246033" y="320.4" style="fill: #a9a9a9; stroke: #a9a9a9; stroke-width: 0.8"/>
      </g>
     </g>
     <g id="text_3">
      <!-- 2022-07 -->
      <g style="fill: #a9a9a9" transform="translate(266.354627 334.998438) scale(0.1 -0.1)">
       <use xlink:href="#DejaVuSans-32"/>
       <use xlink:href="#DejaVuSans-30" transform="translate(63.623047 0)"/>
       <use xlink:href="#DejaVuSans-32" transform="translate(127.246094 0)"/>
       <use xlink:href="#DejaVuSans-32" transform="translate(190.869141 0)"/>
       <use xlink:href="#DejaVuSans-2d" transform="translate(254.492188 0)"/>
       <use xlink:href="#DejaVuSans-30" transform="translate(290.576172 0)"/>
       <use xlink:href="#DejaVuSans-37" transform="translate(354.199219 0)"/>
      </g>
     </g>
    </g>
    <g id="xtick_4">
     <g id="line2d_7">
      <path d="M 367.307375 320.4 
L 367.307375 43.2 
" clip-path="url(#p5fe6f78ee5)" style="fill: none; stroke-dasharray: 5.12,1.28,0.8,1.28; stroke-dashoffset: 0; stroke: #b0b0b0; stroke-width: 0.8"/>
     </g>
     <g id="line2d_8">
      <g>
       <use xlink:href="#mbc5524ac3f" x="367.307375" y="320.4" style="fill: #a9a9a9; stroke: #a9a9a9; stroke-width: 0.8"/>
      </g>
     </g>
     <g id="text_4">
      <!-- 2023-01 -->
      <g style="fill: #a9a9a9" transform="translate(346.415969 334.998438) scale(0.1 -0.1)">
       <defs>
        <path id="DejaVuSans-33" d="M 2597 2516 
Q 3050 2419 3304 2112 
Q 3559 1806 3559 1356 
Q 3559 666 3084 287 
Q 2609 -91 1734 -91 
Q 1441 -91 1130 -33 
Q 819 25 488 141 
L 488 750 
Q 750 597 1062 519 
Q 1375 441 1716 441 
Q 2309 441 2620 675 
Q 2931 909 2931 1356 
Q 2931 1769 2642 2001 
Q 2353 2234 1838 2234 
L 1294 2234 
L 1294 2753 
L 1863 2753 
Q 2328 2753 2575 2939 
Q 2822 3125 2822 3475 
Q 2822 3834 2567 4026 
Q 2313 4219 1838 4219 
Q 1578 4219 1281 4162 
Q 984 4106 628 3988 
L 628 4550 
Q 988 4650 1302 4700 
Q 1616 4750 1894 4750 
Q 2613 4750 3031 4423 
Q 3450 4097 3450 3541 
Q 3450 3153 3228 2886 
Q 3006 2619 2597 2516 
z
" transform="scale(0.015625)"/>
       </defs>
       <use xlink:href="#DejaVuSans-32"/>
       <use xlink:href="#DejaVuSans-30" transform="translate(63.623047 0)"/>
       <use xlink:href="#DejaVuSans-32" transform="translate(127.246094 0)"/>
       <use xlink:href="#DejaVuSans-33" transform="translate(190.869141 0)"/>
       <use xlink:href="#DejaVuSans-2d" transform="translate(254.492188 0)"/>
       <use xlink:href="#DejaVuSans-30" transform="translate(290.576172 0)"/>
       <use xlink:href="#DejaVuSans-31" transform="translate(354.199219 0)"/>
      </g>
     </g>
    </g>
    <g id="xtick_5">
     <g id="line2d_9">
      <path d="M 446.06337 320.4 
L 446.06337 43.2 
" clip-path="url(#p5fe6f78ee5)" style="fill: none; stroke-dasharray: 5.12,1.28,0.8,1.28; stroke-dashoffset: 0; stroke: #b0b0b0; stroke-width: 0.8"/>
     </g>
     <g id="line2d_10">
      <g>
       <use xlink:href="#mbc5524ac3f" x="446.06337" y="320.4" style="fill: #a9a9a9; stroke: #a9a9a9; stroke-width: 0.8"/>
      </g>
     </g>
     <g id="text_5">
      <!-- 2023-07 -->
      <g style="fill: #a9a9a9" transform="translate(425.171964 334.998438) scale(0.1 -0.1)">
       <use xlink:href="#DejaVuSans-32"/>
       <use xlink:href="#DejaVuSans-30" transform="translate(63.623047 0)"/>
       <use xlink:href="#DejaVuSans-32" transform="translate(127.246094 0)"/>
       <use xlink:href="#DejaVuSans-33" transform="translate(190.869141 0)"/>
       <use xlink:href="#DejaVuSans-2d" transform="translate(254.492188 0)"/>
       <use xlink:href="#DejaVuSans-30" transform="translate(290.576172 0)"/>
       <use xlink:href="#DejaVuSans-37" transform="translate(354.199219 0)"/>
      </g>
     </g>
    </g>
    <g id="xtick_6">
     <g id="line2d_11">
      <path d="M 526.124712 320.4 
L 526.124712 43.2 
" clip-path="url(#p5fe6f78ee5)" style="fill: none; stroke-dasharray: 5.12,1.28,0.8,1.28; stroke-dashoffset: 0; stroke: #b0b0b0; stroke-width: 0.8"/>
     </g>
     <g id="line2d_12">
      <g>
       <use xlink:href="#mbc5524ac3f" x="526.124712" y="320.4" style="fill: #a9a9a9; stroke: #a9a9a9; stroke-width: 0.8"/>
      </g>
     </g>
     <g id="text_6">
      <!-- 2024-01 -->
      <g style="fill: #a9a9a9" transform="translate(505.233306 334.998438) scale(0.1 -0.1)">
       <defs>
        <path id="DejaVuSans-34" d="M 2419 4116 
L 825 1625 
L 2419 1625 
L 2419 4116 
z
M 2253 4666 
L 3047 4666 
L 3047 1625 
L 3713 1625 
L 3713 1100 
L 3047 1100 
L 3047 0 
L 2419 0 
L 2419 1100 
L 313 1100 
L 313 1709 
L 2253 4666 
z
" transform="scale(0.015625)"/>
       </defs>
       <use xlink:href="#DejaVuSans-32"/>
       <use xlink:href="#DejaVuSans-30" transform="translate(63.623047 0)"/>
       <use xlink:href="#DejaVuSans-32" transform="translate(127.246094 0)"/>
       <use xlink:href="#DejaVuSans-34" transform="translate(190.869141 0)"/>
       <use xlink:href="#DejaVuSans-2d" transform="translate(254.492188 0)"/>
       <use xlink:href="#DejaVuSans-30" transform="translate(290.576172 0)"/>
       <use xlink:href="#DejaVuSans-31" transform="translate(354.199219 0)"/>
      </g>
     </g>
    </g>
    <g id="xtick_7">
     <g id="line2d_13">
      <path d="M 605.315823 320.4 
L 605.315823 43.2 
" clip-path="url(#p5fe6f78ee5)" style="fill: none; stroke-dasharray: 5.12,1.28,0.8,1.28; stroke-dashoffset: 0; stroke: #b0b0b0; stroke-width: 0.8"/>
     </g>
     <g id="line2d_14">
      <g>
       <use xlink:href="#mbc5524ac3f" x="605.315823" y="320.4" style="fill: #a9a9a9; stroke: #a9a9a9; stroke-width: 0.8"/>
      </g>
     </g>
     <g id="text_7">
      <!-- 2024-07 -->
      <g style="fill: #a9a9a9" transform="translate(584.424417 334.998438) scale(0.1 -0.1)">
       <use xlink:href="#DejaVuSans-32"/>
       <use xlink:href="#DejaVuSans-30" transform="translate(63.623047 0)"/>
       <use xlink:href="#DejaVuSans-32" transform="translate(127.246094 0)"/>
       <use xlink:href="#DejaVuSans-34" transform="translate(190.869141 0)"/>
       <use xlink:href="#DejaVuSans-2d" transform="translate(254.492188 0)"/>
       <use xlink:href="#DejaVuSans-30" transform="translate(290.576172 0)"/>
       <use xlink:href="#DejaVuSans-37" transform="translate(354.199219 0)"/>
      </g>
     </g>
    </g>
    <g id="xtick_8">
     <g id="line2d_15">
      <path d="M 685.377166 320.4 
L 685.377166 43.2 
" clip-path="url(#p5fe6f78ee5)" style="fill: none; stroke-dasharray: 5.12,1.28,0.8,1.28; stroke-dashoffset: 0; stroke: #b0b0b0; stroke-width: 0.8"/>
     </g>
     <g id="line2d_16">
      <g>
       <use xlink:href="#mbc5524ac3f" x="685.377166" y="320.4" style="fill: #a9a9a9; stroke: #a9a9a9; stroke-width: 0.8"/>
      </g>
     </g>
     <g id="text_8">
      <!-- 2025-01 -->
      <g style="fill: #a9a9a9" transform="translate(664.485759 334.998438) scale(0.1 -0.1)">
       <defs>
        <path id="DejaVuSans-35" d="M 691 4666 
L 3169 4666 
L 3169 4134 
L 1269 4134 
L 1269 2991 
Q 1406 3038 1543 3061 
Q 1681 3084 1819 3084 
Q 2600 3084 3056 2656 
Q 3513 2228 3513 1497 
Q 3513 744 3044 326 
Q 2575 -91 1722 -91 
Q 1428 -91 1123 -41 
Q 819 9 494 109 
L 494 744 
Q 775 591 1075 516 
Q 1375 441 1709 441 
Q 2250 441 2565 725 
Q 2881 1009 2881 1497 
Q 2881 1984 2565 2268 
Q 2250 2553 1709 2553 
Q 1456 2553 1204 2497 
Q 953 2441 691 2322 
L 691 4666 
z
" transform="scale(0.015625)"/>
       </defs>
       <use xlink:href="#DejaVuSans-32"/>
       <use xlink:href="#DejaVuSans-30" transform="translate(63.623047 0)"/>
       <use xlink:href="#DejaVuSans-32" transform="translate(127.246094 0)"/>
       <use xlink:href="#DejaVuSans-35" transform="translate(190.869141 0)"/>
       <use xlink:href="#DejaVuSans-2d" transform="translate(254.492188 0)"/>
       <use xlink:href="#DejaVuSans-30" transform="translate(290.576172 0)"/>
       <use xlink:href="#DejaVuSans-31" transform="translate(354.199219 0)"/>
      </g>
     </g>
    </g>
    <g id="xtick_9">
     <g id="line2d_17">
      <path d="M 764.13316 320.4 
L 764.13316 43.2 
" clip-path="url(#p5fe6f78ee5)" style="fill: none; stroke-dasharray: 5.12,1.28,0.8,1.28; stroke-dashoffset: 0; stroke: #b0b0b0; stroke-width: 0.8"/>
     </g>
     <g id="line2d_18">
      <g>
       <use xlink:href="#mbc5524ac3f" x="764.13316" y="320.4" style="fill: #a9a9a9; stroke: #a9a9a9; stroke-width: 0.8"/>
      </g>
     </g>
     <g id="text_9">
      <!-- 2025-07 -->
      <g style="fill: #a9a9a9" transform="translate(743.241754 334.998438) scale(0.1 -0.1)">
       <use xlink:href="#DejaVuSans-32"/>
       <use xlink:href="#DejaVuSans-30" transform="translate(63.623047 0)"/>
       <use xlink:href="#DejaVuSans-32" transform="translate(127.246094 0)"/>
       <use xlink:href="#DejaVuSans-35" transform="translate(190.869141 0)"/>
       <use xlink:href="#DejaVuSans-2d" transform="translate(254.492188 0)"/>
       <use xlink:href="#DejaVuSans-30" transform="translate(290.576172 0)"/>
       <use xlink:href="#DejaVuSans-37" transform="translate(354.199219 0)"/>
      </g>
     </g>
    </g>
   </g>
   <g id="matplotlib.axis_2">
    <g id="ytick_1">
     <g id="line2d_19">
      <path d="M 108 307.83289 
L 777.6 307.83289 
" clip-path="url(#p5fe6f78ee5)" style="fill: none; stroke-dasharray: 5.12,1.28,0.8,1.28; stroke-dashoffset: 0; stroke: #b0b0b0; stroke-width: 0.8"/>
     </g>
     <g id="line2d_20">
      <defs>
       <path id="m0cb54e619c" d="M 0 0 
L -3.5 0 
" style="stroke: #a9a9a9; stroke-width: 0.8"/>
      </defs>
      <g>
       <use xlink:href="#m0cb54e619c" x="108" y="307.83289" style="fill: #a9a9a9; stroke: #a9a9a9; stroke-width: 0.8"/>
      </g>
     </g>
     <g id="text_10">
      <!-- 0 -->
      <g style="fill: #a9a9a9" transform="translate(94.6375 311.632108) scale(0.1 -0.1)">
       <use xlink:href="#DejaVuSans-30"/>
      </g>
     </g>
    </g>
    <g id="ytick_2">
     <g id="line2d_21">
      <path d="M 108 274.943305 
L 777.6 274.943305 
" clip-path="url(#p5fe6f78ee5)" style="fill: none; stroke-dasharray: 5.12,1.28,0.8,1.28; stroke-dashoffset: 0; stroke: #b0b0b0; stroke-width: 0.8"/>
     </g>
     <g id="line2d_22">
      <g>
       <use xlink:href="#m0cb54e619c" x="108" y="274.943305" style="fill: #a9a9a9; stroke: #a9a9a9; stroke-width: 0.8"/>
      </g>
     </g>
     <g id="text_11">
      <!-- 1000 -->
      <g style="fill: #a9a9a9" transform="translate(75.55 278.742523) scale(0.1 -0.1)">
       <use xlink:href="#DejaVuSans-31"/>
       <use xlink:href="#DejaVuSans-30" transform="translate(63.623047 0)"/>
       <use xlink:href="#DejaVuSans-30" transform="translate(127.246094 0)"/>
       <use xlink:href="#DejaVuSans-30" transform="translate(190.869141 0)"/>
      </g>
     </g>
    </g>
    <g id="ytick_3">
     <g id="line2d_23">
      <path d="M 108 242.05372 
L 777.6 242.05372 
" clip-path="url(#p5fe6f78ee5)" style="fill: none; stroke-dasharray: 5.12,1.28,0.8,1.28; stroke-dashoffset: 0; stroke: #b0b0b0; stroke-width: 0.8"/>
     </g>
     <g id="line2d_24">
      <g>
       <use xlink:href="#m0cb54e619c" x="108" y="242.05372" style="fill: #a9a9a9; stroke: #a9a9a9; stroke-width: 0.8"/>
      </g>
     </g>
     <g id="text_12">
      <!-- 2000 -->
      <g style="fill: #a9a9a9" transform="translate(75.55 245.852938) scale(0.1 -0.1)">
       <use xlink:href="#DejaVuSans-32"/>
       <use xlink:href="#DejaVuSans-30" transform="translate(63.623047 0)"/>
       <use xlink:href="#DejaVuSans-30" transform="translate(127.246094 0)"/>
       <use xlink:href="#DejaVuSans-30" transform="translate(190.869141 0)"/>
      </g>
     </g>
    </g>
    <g id="ytick_4">
     <g id="line2d_25">
      <path d="M 108 209.164135 
L 777.6 209.164135 
" clip-path="url(#p5fe6f78ee5)" style="fill: none; stroke-dasharray: 5.12,1.28,0.8,1.28; stroke-dashoffset: 0; stroke: #b0b0b0; stroke-width: 0.8"/>
     </g>
     <g id="line2d_26">
      <g>
       <use xlink:href="#m0cb54e619c" x="108" y="209.164135" style="fill: #a9a9a9; stroke: #a9a9a9; stroke-width: 0.8"/>
      </g>
     </g>
     <g id="text_13">
      <!-- 3000 -->
      <g style="fill: #a9a9a9" transform="translate(75.55 212.963353) scale(0.1 -0.1)">
       <use xlink:href="#DejaVuSans-33"/>
       <use xlink:href="#DejaVuSans-30" transform="translate(63.623047 0)"/>
       <use xlink:href="#DejaVuSans-30" transform="translate(127.246094 0)"/>
       <use xlink:href="#DejaVuSans-30" transform="translate(190.869141 0)"/>
      </g>
     </g>
    </g>
    <g id="ytick_5">
     <g id="line2d_27">
      <path d="M 108 176.27455 
L 777.6 176.27455 
" clip-path="url(#p5fe6f78ee5)" style="fill: none; stroke-dasharray: 5.12,1.28,0.8,1.28; stroke-dashoffset: 0; stroke: #b0b0b0; stroke-width: 0.8"/>
     </g>
     <g id="line2d_28">
      <g>
       <use xlink:href="#m0cb54e619c" x="108" y="176.27455" style="fill: #a9a9a9; stroke: #a9a9a9; stroke-width: 0.8"/>
      </g>
     </g>
     <g id="text_14">
      <!-- 4000 -->
      <g style="fill: #a9a9a9" transform="translate(75.55 180.073768) scale(0.1 -0.1)">
       <use xlink:href="#DejaVuSans-34"/>
       <use xlink:href="#DejaVuSans-30" transform="translate(63.623047 0)"/>
       <use xlink:href="#DejaVuSans-30" transform="translate(127.246094 0)"/>
       <use xlink:href="#DejaVuSans-30" transform="translate(190.869141 0)"/>
      </g>
     </g>
    </g>
    <g id="ytick_6">
     <g id="line2d_29">
      <path d="M 108 143.384965 
L 777.6 143.384965 
" clip-path="url(#p5fe6f78ee5)" style="fill: none; stroke-dasharray: 5.12,1.28,0.8,1.28; stroke-dashoffset: 0; stroke: #b0b0b0; stroke-width: 0.8"/>
     </g>
     <g id="line2d_30">
      <g>
       <use xlink:href="#m0cb54e619c" x="108" y="143.384965" style="fill: #a9a9a9; stroke: #a9a9a9; stroke-width: 0.8"/>
      </g>
     </g>
     <g id="text_15">
      <!-- 5000 -->
      <g style="fill: #a9a9a9" transform="translate(75.55 147.184184) scale(0.1 -0.1)">
       <use xlink:href="#DejaVuSans-35"/>
       <use xlink:href="#DejaVuSans-30" transform="translate(63.623047 0)"/>
       <use xlink:href="#DejaVuSans-30" transform="translate(127.246094 0)"/>
       <use xlink:href="#DejaVuSans-30" transform="translate(190.869141 0)"/>
      </g>
     </g>
    </g>
    <g id="ytick_7">
     <g id="line2d_31">
      <path d="M 108 110.49538 
L 777.6 110.49538 
" clip-path="url(#p5fe6f78ee5)" style="fill: none; stroke-dasharray: 5.12,1.28,0.8,1.28; stroke-dashoffset: 0; stroke: #b0b0b0; stroke-width: 0.8"/>
     </g>
     <g id="line2d_32">
      <g>
       <use xlink:href="#m0cb54e619c" x="108" y="110.49538" style="fill: #a9a9a9; stroke: #a9a9a9; stroke-width: 0.8"/>
      </g>
     </g>
     <g id="text_16">
      <!-- 6000 -->
      <g style="fill: #a9a9a9" transform="translate(75.55 114.294599) scale(0.1 -0.1)">
       <defs>
        <path id="DejaVuSans-36" d="M 2113 2584 
Q 1688 2584 1439 2293 
Q 1191 2003 1191 1497 
Q 1191 994 1439 701 
Q 1688 409 2113 409 
Q 2538 409 2786 701 
Q 3034 994 3034 1497 
Q 3034 2003 2786 2293 
Q 2538 2584 2113 2584 
z
M 3366 4563 
L 3366 3988 
Q 3128 4100 2886 4159 
Q 2644 4219 2406 4219 
Q 1781 4219 1451 3797 
Q 1122 3375 1075 2522 
Q 1259 2794 1537 2939 
Q 1816 3084 2150 3084 
Q 2853 3084 3261 2657 
Q 3669 2231 3669 1497 
Q 3669 778 3244 343 
Q 2819 -91 2113 -91 
Q 1303 -91 875 529 
Q 447 1150 447 2328 
Q 447 3434 972 4092 
Q 1497 4750 2381 4750 
Q 2619 4750 2861 4703 
Q 3103 4656 3366 4563 
z
" transform="scale(0.015625)"/>
       </defs>
       <use xlink:href="#DejaVuSans-36"/>
       <use xlink:href="#DejaVuSans-30" transform="translate(63.623047 0)"/>
       <use xlink:href="#DejaVuSans-30" transform="translate(127.246094 0)"/>
       <use xlink:href="#DejaVuSans-30" transform="translate(190.869141 0)"/>
      </g>
     </g>
    </g>
    <g id="ytick_8">
     <g id="line2d_33">
      <path d="M 108 77.605795 
L 777.6 77.605795 
" clip-path="url(#p5fe6f78ee5)" style="fill: none; stroke-dasharray: 5.12,1.28,0.8,1.28; stroke-dashoffset: 0; stroke: #b0b0b0; stroke-width: 0.8"/>
     </g>
     <g id="line2d_34">
      <g>
       <use xlink:href="#m0cb54e619c" x="108" y="77.605795" style="fill: #a9a9a9; stroke: #a9a9a9; stroke-width: 0.8"/>
      </g>
     </g>
     <g id="text_17">
      <!-- 7000 -->
      <g style="fill: #a9a9a9" transform="translate(75.55 81.405014) scale(0.1 -0.1)">
       <use xlink:href="#DejaVuSans-37"/>
       <use xlink:href="#DejaVuSans-30" transform="translate(63.623047 0)"/>
       <use xlink:href="#DejaVuSans-30" transform="translate(127.246094 0)"/>
       <use xlink:href="#DejaVuSans-30" transform="translate(190.869141 0)"/>
      </g>
     </g>
    </g>
    <g id="ytick_9">
     <g id="line2d_35">
      <path d="M 108 44.71621 
L 777.6 44.71621 
" clip-path="url(#p5fe6f78ee5)" style="fill: none; stroke-dasharray: 5.12,1.28,0.8,1.28; stroke-dashoffset: 0; stroke: #b0b0b0; stroke-width: 0.8"/>
     </g>
     <g id="line2d_36">
      <g>
       <use xlink:href="#m0cb54e619c" x="108" y="44.71621" style="fill: #a9a9a9; stroke: #a9a9a9; stroke-width: 0.8"/>
      </g>
     </g>
     <g id="text_18">
      <!-- 8000 -->
      <g style="fill: #a9a9a9" transform="translate(75.55 48.515429) scale(0.1 -0.1)">
       <defs>
        <path id="DejaVuSans-38" d="M 2034 2216 
Q 1584 2216 1326 1975 
Q 1069 1734 1069 1313 
Q 1069 891 1326 650 
Q 1584 409 2034 409 
Q 2484 409 2743 651 
Q 3003 894 3003 1313 
Q 3003 1734 2745 1975 
Q 2488 2216 2034 2216 
z
M 1403 2484 
Q 997 2584 770 2862 
Q 544 3141 544 3541 
Q 544 4100 942 4425 
Q 1341 4750 2034 4750 
Q 2731 4750 3128 4425 
Q 3525 4100 3525 3541 
Q 3525 3141 3298 2862 
Q 3072 2584 2669 2484 
Q 3125 2378 3379 2068 
Q 3634 1759 3634 1313 
Q 3634 634 3220 271 
Q 2806 -91 2034 -91 
Q 1263 -91 848 271 
Q 434 634 434 1313 
Q 434 1759 690 2068 
Q 947 2378 1403 2484 
z
M 1172 3481 
Q 1172 3119 1398 2916 
Q 1625 2713 2034 2713 
Q 2441 2713 2670 2916 
Q 2900 3119 2900 3481 
Q 2900 3844 2670 4047 
Q 2441 4250 2034 4250 
Q 1625 4250 1398 4047 
Q 1172 3844 1172 3481 
z
" transform="scale(0.015625)"/>
       </defs>
       <use xlink:href="#DejaVuSans-38"/>
       <use xlink:href="#DejaVuSans-30" transform="translate(63.623047 0)"/>
       <use xlink:href="#DejaVuSans-30" transform="translate(127.246094 0)"/>
       <use xlink:href="#DejaVuSans-30" transform="translate(190.869141 0)"/>
      </g>
     </g>
    </g>
   </g>
   <g id="line2d_37">
    <path d="M 138.436364 307.734221 
L 141.04706 307.503994 
L 141.482176 307.306656 
L 143.22264 307.076429 
L 144.963104 306.714644 
L 145.833335 306.583085 
L 148.008915 306.385748 
L 148.879147 306.023962 
L 149.314263 305.43195 
L 149.749379 305.135944 
L 150.184495 304.149256 
L 150.619611 304.083477 
L 151.054727 303.721691 
L 151.924959 303.261237 
L 153.665423 301.814096 
L 155.405887 300.926077 
L 156.711235 300.301175 
L 157.146351 299.577604 
L 158.016583 298.919812 
L 158.451699 298.722475 
L 162.802859 298.064683 
L 163.237975 297.867345 
L 166.283787 297.604229 
L 168.024251 297.176664 
L 171.505179 296.68332 
L 171.940295 296.453093 
L 172.375411 296.387314 
L 173.245643 296.091308 
L 176.291455 295.565074 
L 177.161687 295.301958 
L 181.077731 294.644166 
L 181.947963 294.446829 
L 182.818195 294.413939 
L 184.558659 293.986374 
L 184.993775 293.361472 
L 186.299123 292.835239 
L 187.604471 292.473453 
L 188.039587 292.243226 
L 188.909819 292.078778 
L 190.650283 291.552545 
L 191.520515 291.486766 
L 192.390747 291.256539 
L 194.131211 290.796085 
L 194.566327 290.763195 
L 195.436559 290.33563 
L 195.871675 290.269851 
L 196.306791 290.039624 
L 201.093066 289.217384 
L 202.83353 288.691151 
L 203.268646 288.395145 
L 205.444226 287.671574 
L 206.314458 287.046672 
L 207.619806 286.783555 
L 217.192358 283.922161 
L 217.627474 283.889272 
L 218.932822 283.494597 
L 219.367938 283.494597 
L 219.803054 283.297259 
L 220.673286 283.19859 
L 221.108402 283.034143 
L 222.848866 282.968363 
L 223.719098 282.803915 
L 224.58933 282.343461 
L 225.894678 281.850117 
L 226.76491 281.389663 
L 227.635142 280.929209 
L 228.505374 280.633203 
L 228.94049 280.501644 
L 229.810722 279.942522 
L 230.245838 279.449178 
L 231.11607 278.067815 
L 231.551186 277.936257 
L 231.986302 277.936257 
L 233.29165 277.146907 
L 233.726766 276.91668 
L 234.161882 276.818011 
L 234.596998 276.390446 
L 235.46723 276.028661 
L 236.337462 275.601096 
L 238.513042 272.739702 
L 241.123738 271.292561 
L 241.99397 270.56899 
L 242.429086 270.305873 
L 242.864202 269.680971 
L 243.299318 268.661394 
L 243.734434 267.970713 
L 244.16955 267.608927 
L 244.604666 267.41159 
L 248.085594 264.122631 
L 248.955826 263.300392 
L 251.566522 261.623023 
L 252.001638 261.458575 
L 253.742102 260.406108 
L 254.177217 260.208771 
L 256.352797 258.169616 
L 257.223029 257.807831 
L 258.093261 257.182929 
L 258.528377 256.919812 
L 258.963493 256.854033 
L 260.268841 256.097572 
L 260.703957 255.604229 
L 262.879537 254.387314 
L 263.314653 254.222866 
L 264.620001 253.301958 
L 271.146741 250.933908 
L 272.016973 250.111668 
L 273.322321 249.453876 
L 274.192553 248.894753 
L 275.062785 248.631637 
L 275.497901 248.33563 
L 275.933017 248.204072 
L 277.238365 247.316053 
L 279.413945 246.822709 
L 280.719293 246.033359 
L 282.024641 245.737353 
L 282.459757 245.638684 
L 283.765105 244.619107 
L 285.505569 244.125764 
L 285.940685 243.763978 
L 288.551381 242.84307 
L 289.421613 242.678622 
L 290.291845 242.316836 
L 293.337657 241.165701 
L 294.207889 241.034143 
L 295.513237 240.573688 
L 297.688817 239.488332 
L 299.429281 238.501644 
L 302.910209 237.021613 
L 303.345325 236.955834 
L 304.215557 236.396711 
L 305.085789 236.166484 
L 306.391137 235.640251 
L 308.1316 235.410023 
L 309.001832 234.949569 
L 309.436948 234.554894 
L 309.872064 233.765544 
L 311.612528 233.2722 
L 312.917876 232.581519 
L 313.788108 232.285513 
L 314.65834 231.825059 
L 317.269036 230.739702 
L 318.139268 230.542365 
L 319.0095 230.081911 
L 319.444616 229.884573 
L 319.879732 229.818794 
L 322.055312 228.733438 
L 322.925544 228.174315 
L 324.230892 227.911198 
L 326.406472 227.352075 
L 326.841588 226.99029 
L 327.71182 226.694283 
L 329.8874 225.806265 
L 330.322516 225.477369 
L 330.757632 225.312921 
L 331.627864 224.819577 
L 333.368328 224.260454 
L 334.23856 223.701331 
L 334.673676 223.240877 
L 335.108792 222.97776 
L 335.543908 222.879092 
L 336.41414 222.155521 
L 336.849256 222.089742 
L 337.284372 221.366171 
L 337.719488 221.168833 
L 338.154604 220.807048 
L 338.58972 220.741269 
L 339.459952 220.182146 
L 340.330184 219.886139 
L 340.7653 219.557244 
L 341.200416 219.392796 
L 342.94088 218.208771 
L 344.246228 217.518089 
L 345.11646 217.287862 
L 345.986692 216.794518 
L 346.421808 216.038058 
L 347.29204 215.380266 
L 347.727156 215.281597 
L 350.337852 213.998904 
L 351.208084 213.637118 
L 352.078316 213.012216 
L 352.948548 212.124197 
L 356.864592 209.032576 
L 357.299708 208.670791 
L 358.16994 208.374785 
L 359.040172 207.782772 
L 360.34552 207.092091 
L 360.780636 207.026312 
L 362.085983 206.302741 
L 362.956215 205.743618 
L 367.307375 204.099139 
L 367.742491 203.737353 
L 369.482955 203.046672 
L 369.918071 202.915114 
L 370.788303 202.323101 
L 371.658535 201.961316 
L 372.528767 201.336413 
L 373.398999 199.560376 
L 374.269231 198.507909 
L 375.574579 197.817228 
L 376.444811 197.455442 
L 376.879927 197.389663 
L 377.315043 197.126547 
L 379.490623 196.402976 
L 379.925739 196.205638 
L 380.795971 195.613626 
L 382.101319 195.054503 
L 382.971551 194.561159 
L 383.841783 194.034926 
L 384.276899 193.738919 
L 384.712015 193.245576 
L 386.017363 192.489115 
L 386.452479 192.324667 
L 387.322711 191.798434 
L 389.063175 190.844636 
L 389.498291 190.745967 
L 389.933407 190.384182 
L 392.979219 189.364605 
L 393.414335 189.035709 
L 394.284567 188.772592 
L 395.154799 188.410807 
L 395.589915 188.049021 
L 397.330379 187.424119 
L 398.200611 186.799217 
L 399.070843 186.437431 
L 399.941075 185.74675 
L 400.811307 185.483634 
L 401.246423 185.088958 
L 401.681539 185.023179 
L 402.551771 184.332498 
L 403.422003 183.872044 
L 403.857119 183.674706 
L 404.292235 183.214252 
L 407.338047 181.964448 
L 408.208279 181.569773 
L 409.513627 181.142208 
L 410.383859 181.01065 
L 410.818975 180.813312 
L 411.254091 180.747533 
L 412.124323 180.352858 
L 412.559439 180.319969 
L 414.299903 179.662177 
L 415.605251 178.708379 
L 416.040366 178.543931 
L 416.910598 178.050587 
L 417.345714 177.919029 
L 419.95641 176.438998 
L 420.391526 176.340329 
L 421.696874 175.550979 
L 423.002222 175.090525 
L 423.872454 174.794518 
L 425.612918 174.202506 
L 426.48315 173.9065 
L 428.223614 173.544714 
L 428.65873 173.347377 
L 429.528962 173.11715 
L 429.964078 172.919812 
L 430.399194 172.854033 
L 430.83431 172.623806 
L 431.704542 172.459358 
L 433.00989 171.966014 
L 433.880122 171.867345 
L 435.18547 171.571339 
L 437.36105 171.176664 
L 448.674066 167.756147 
L 449.109182 167.295693 
L 451.719878 166.210337 
L 453.460342 165.618324 
L 453.895458 165.355208 
L 455.200806 164.960532 
L 456.071038 164.730305 
L 456.506154 164.434299 
L 456.94127 164.33563 
L 457.376386 163.940955 
L 458.681734 163.677839 
L 459.551966 163.250274 
L 459.987082 162.724041 
L 461.727546 162.296476 
L 464.773358 161.638684 
L 465.208474 161.638684 
L 465.64359 161.441347 
L 467.384054 161.112451 
L 467.81917 160.915114 
L 469.559634 160.586218 
L 470.429865 160.224432 
L 471.300097 160.059984 
L 473.475677 159.500861 
L 475.216141 158.941738 
L 475.651257 158.84307 
L 476.086373 158.612843 
L 476.956605 158.382616 
L 477.826837 158.02083 
L 478.697069 157.691934 
L 479.132185 157.395928 
L 480.002417 157.132811 
L 483.048229 155.981676 
L 484.788693 155.751449 
L 488.269621 154.468755 
L 488.704737 154.139859 
L 489.139853 154.04119 
L 489.574969 153.810963 
L 490.010085 153.778074 
L 494.796361 152.034926 
L 496.971941 151.442913 
L 497.842173 151.015348 
L 499.147521 150.719342 
L 500.887985 149.2722 
L 502.628449 148.51574 
L 503.498681 148.121065 
L 506.109377 147.101488 
L 506.544493 146.805482 
L 508.720073 146.081911 
L 510.025421 145.32545 
L 510.460537 145.226782 
L 512.201001 144.240094 
L 513.941465 143.450744 
L 514.376581 143.121848 
L 515.246813 142.825842 
L 517.422393 141.707596 
L 518.727741 141.247142 
L 520.468205 140.523571 
L 521.773553 140.030227 
L 522.208669 139.865779 
L 523.078901 139.734221 
L 523.514017 139.438215 
L 525.25448 139.076429 
L 526.124712 138.714644 
L 527.865176 137.892404 
L 533.9568 135.195458 
L 535.262148 134.767894 
L 535.697264 134.471887 
L 536.567496 134.373218 
L 537.002612 134.077212 
L 537.872844 133.912764 
L 538.743076 133.4852 
L 539.178192 133.287862 
L 540.048424 133.057635 
L 540.918656 132.794518 
L 542.224004 132.301175 
L 543.529352 131.87361 
L 544.8347 131.577604 
L 546.575164 130.854033 
L 547.445396 130.360689 
L 549.18586 129.47267 
L 550.056092 129.275333 
L 550.491208 129.012216 
L 550.926324 128.913547 
L 552.231672 128.157087 
L 553.101904 127.795301 
L 562.674456 124.078778 
L 564.41492 123.256539 
L 568.76608 121.54628 
L 569.636312 121.118716 
L 570.071428 121.020047 
L 570.506544 120.78982 
L 572.247008 120.296476 
L 573.987472 118.849334 
L 574.422588 118.717776 
L 574.857704 118.454659 
L 576.163052 118.092874 
L 576.598168 117.763978 
L 577.033284 117.665309 
L 578.338631 116.875959 
L 578.773747 116.579953 
L 580.079095 116.086609 
L 580.514211 115.856382 
L 581.819559 115.560376 
L 583.995139 114.803915 
L 584.865371 114.507909 
L 586.170719 113.850117 
L 587.040951 113.422553 
L 587.911183 113.192326 
L 589.216531 112.567424 
L 593.132575 111.087392 
L 594.437923 110.265153 
L 594.873039 110.166484 
L 595.743271 109.738919 
L 596.613503 109.410023 
L 597.048619 109.015348 
L 597.918851 108.653563 
L 599.224199 108.193109 
L 599.659315 107.831323 
L 600.094431 107.798434 
L 600.964663 107.535317 
L 601.834895 107.239311 
L 602.270011 107.041973 
L 602.705127 106.976194 
L 604.010475 106.48285 
L 605.315823 105.989507 
L 607.056287 105.200157 
L 607.926519 104.96993 
L 608.361635 104.706813 
L 609.231867 104.476586 
L 610.537215 103.720125 
L 610.972331 103.687236 
L 612.277679 103.259671 
L 613.147911 103.193892 
L 613.583027 102.963665 
L 614.453259 102.733438 
L 614.888375 102.503211 
L 617.063955 102.075646 
L 617.934187 101.911198 
L 619.239535 101.417854 
L 620.544883 101.121848 
L 621.850231 100.431167 
L 622.285347 100.036492 
L 623.590695 99.247142 
L 624.025811 98.918246 
L 625.331159 98.490681 
L 626.201391 98.227565 
L 626.636507 97.997338 
L 627.071623 97.898669 
L 627.506739 97.536883 
L 630.117435 96.418637 
L 631.857898 95.958183 
L 632.72813 95.563508 
L 633.163246 95.333281 
L 634.033478 95.070164 
L 634.468594 94.807048 
L 635.338826 94.6426 
L 638.819754 93.129679 
L 639.25487 93.0639 
L 640.560218 92.208771 
L 640.995334 92.142991 
L 642.735798 91.45231 
L 644.476262 91.024745 
L 644.911378 90.958966 
L 645.346494 90.761629 
L 645.78161 90.728739 
L 646.651842 90.432733 
L 647.086958 90.399843 
L 648.392306 89.87361 
L 650.13277 89.380266 
L 651.003002 88.722475 
L 652.743466 87.735787 
L 654.048814 87.275333 
L 657.529742 85.597964 
L 657.964858 85.367737 
L 658.399974 84.973062 
L 660.575554 84.381049 
L 661.880902 83.789037 
L 662.751134 83.55881 
L 663.18625 83.328583 
L 663.621366 82.966797 
L 665.36183 82.506343 
L 665.796946 82.177447 
L 671.453454 80.105403 
L 672.323686 79.940955 
L 674.499266 79.250274 
L 675.369498 78.888489 
L 676.23973 78.559593 
L 677.109962 78.329366 
L 677.545078 78.132028 
L 677.980194 78.132028 
L 678.850426 77.770243 
L 679.720658 77.244009 
L 682.76647 76.224432 
L 684.506934 75.63242 
L 685.812281 75.336413 
L 687.117629 74.908849 
L 687.552745 74.81018 
L 687.987861 74.514174 
L 688.858093 74.316836 
L 690.598557 73.823493 
L 691.033673 73.790603 
L 691.903905 73.395928 
L 694.949717 72.639468 
L 695.819949 72.277682 
L 700.171109 71.290995 
L 701.476457 70.600313 
L 702.781805 70.205638 
L 707.132965 68.594049 
L 707.568081 68.265153 
L 708.873429 67.969146 
L 709.743661 67.70603 
L 710.613893 67.278465 
L 711.049009 66.91668 
L 711.919241 66.653563 
L 712.354357 66.390446 
L 713.224589 66.291778 
L 716.270401 65.436648 
L 717.575749 65.173532 
L 720.186445 64.318403 
L 721.926909 63.496163 
L 726.713185 61.720125 
L 727.583417 61.588567 
L 728.453649 61.424119 
L 728.888765 61.424119 
L 730.629229 60.864996 
L 731.064345 60.799217 
L 731.934577 60.437431 
L 732.804809 60.207204 
L 735.415505 59.483634 
L 736.285737 59.253406 
L 736.720853 59.154738 
L 737.155969 58.891621 
L 738.026201 58.727173 
L 738.896433 58.628504 
L 739.331549 58.398277 
L 739.766665 58.365388 
L 740.636896 57.806265 
L 742.37736 57.41159 
L 743.247592 57.016915 
L 744.117824 56.720908 
L 744.988056 56.490681 
L 745.858288 56.096006 
L 747.163636 55.8 
L 747.163636 55.8 
" clip-path="url(#p5fe6f78ee5)" style="fill: none; stroke: #1f77b4; stroke-width: 1.5; stroke-linecap: square"/>
   </g>
   <g id="line2d_38">
    <path d="M 138.87148 307.8 
L 142.787524 307.701331 
L 146.268451 307.536883 
L 148.008915 307.536883 
L 148.444031 307.405325 
L 150.619611 307.306656 
L 153.230307 307.01065 
L 155.841003 306.911981 
L 156.711235 306.813312 
L 159.757047 306.681754 
L 162.802859 306.583085 
L 164.978439 306.517306 
L 170.634947 306.418637 
L 172.810527 306.352858 
L 176.726571 306.25419 
L 178.467035 306.2213 
L 182.818195 306.122631 
L 184.558659 305.958183 
L 186.299123 305.925294 
L 188.909819 305.826625 
L 190.650283 305.793735 
L 192.825863 305.727956 
L 194.566327 305.563508 
L 198.482371 305.464839 
L 199.352603 305.39906 
L 201.093066 305.300392 
L 203.703762 305.201723 
L 205.444226 305.103054 
L 213.276314 304.60971 
L 216.322126 304.511042 
L 217.627474 304.379483 
L 219.803054 304.280814 
L 224.154214 304.050587 
L 228.505374 303.984808 
L 230.245838 303.787471 
L 231.986302 303.688802 
L 236.772578 303.228348 
L 239.81839 302.866562 
L 241.123738 302.800783 
L 244.604666 302.340329 
L 247.215362 302.27455 
L 248.52071 302.142991 
L 249.826058 302.044323 
L 262.009305 301.090525 
L 262.879537 300.926077 
L 265.490233 300.827408 
L 272.452089 300.399843 
L 275.497901 300.301175 
L 277.238365 300.103837 
L 279.413945 300.005168 
L 282.024641 299.9065 
L 284.200221 299.807831 
L 285.940685 299.774941 
L 288.116265 299.709162 
L 288.986497 299.577604 
L 295.078121 299.478935 
L 295.948353 299.380266 
L 301.169745 299.281597 
L 305.085789 299.08426 
L 308.1316 298.985591 
L 309.872064 298.788254 
L 312.917876 298.689585 
L 313.788108 298.525137 
L 315.963688 298.459358 
L 320.314848 298.393579 
L 322.055312 298.229131 
L 323.795776 298.196241 
L 325.101124 298.097572 
L 326.841588 297.933125 
L 331.192748 297.702897 
L 335.543908 297.604229 
L 339.459952 297.406891 
L 340.7653 297.374002 
L 341.635532 297.242443 
L 343.811112 297.143774 
L 344.681344 297.077995 
L 345.551576 297.012216 
L 346.421808 296.946437 
L 350.337852 296.880658 
L 351.6432 296.781989 
L 363.391331 295.992639 
L 365.566911 295.89397 
L 367.742491 295.828191 
L 373.834115 295.729522 
L 374.704347 295.597964 
L 380.795971 295.499295 
L 385.147131 295.269068 
L 386.017363 295.236179 
L 386.887595 295.13751 
L 389.063175 295.038841 
L 391.238755 294.973062 
L 393.414335 294.874393 
L 395.589915 294.808614 
L 399.505959 294.709945 
L 402.116655 294.611276 
L 408.208279 294.512608 
L 412.994555 294.249491 
L 414.735019 294.183712 
L 416.040366 294.085043 
L 422.13199 293.986374 
L 424.742686 293.887706 
L 432.574774 293.789037 
L 434.315238 293.756147 
L 439.53663 293.690368 
L 440.406862 293.624589 
L 446.498486 293.52592 
L 448.23895 293.493031 
L 459.551966 293.394362 
L 462.162662 293.295693 
L 480.437533 293.197024 
L 482.613113 293.131245 
L 493.926129 293.065466 
L 494.796361 292.999687 
L 496.971941 292.933908 
L 498.277289 292.802349 
L 500.887985 292.703681 
L 503.933797 292.572122 
L 507.849841 292.473453 
L 510.025421 292.407674 
L 513.071233 292.309005 
L 516.552161 292.144558 
L 518.727741 292.045889 
L 520.468205 292.012999 
L 524.384248 291.91433 
L 526.124712 291.881441 
L 531.78122 291.782772 
L 533.521684 291.749883 
L 535.697264 291.651214 
L 538.30796 291.552545 
L 541.353772 291.486766 
L 542.224004 291.420987 
L 552.666788 291.322318 
L 558.323296 290.993422 
L 560.498876 290.927643 
L 561.369108 290.828974 
L 562.23934 290.763195 
L 565.720268 290.664526 
L 568.330964 290.565857 
L 572.682124 290.467189 
L 574.857704 290.236962 
L 579.208863 290.138293 
L 580.079095 290.039624 
L 584.430255 289.940955 
L 586.605835 289.875176 
L 591.392111 289.842287 
L 592.262343 289.743618 
L 597.048619 289.644949 
L 597.918851 289.57917 
L 607.491403 289.480501 
L 610.102099 289.381832 
L 616.628839 289.283164 
L 618.369303 289.250274 
L 622.285347 289.184495 
L 623.155579 289.085826 
L 628.812087 288.987157 
L 630.987667 288.921378 
L 638.819754 288.822709 
L 640.125102 288.724041 
L 641.43045 288.625372 
L 642.735798 288.526703 
L 649.262538 288.428034 
L 651.873234 288.329366 
L 663.621366 288.230697 
L 667.53741 288.033359 
L 672.758802 287.934691 
L 673.629034 287.868912 
L 680.155774 287.803132 
L 681.026006 287.737353 
L 685.812281 287.638684 
L 687.552745 287.605795 
L 693.644369 287.507126 
L 696.255065 287.408457 
L 703.652037 287.309789 
L 705.392501 287.276899 
L 709.308545 287.17823 
L 712.789473 287.013782 
L 717.575749 286.915114 
L 720.621561 286.783555 
L 724.537605 286.684886 
L 725.407837 286.619107 
L 734.110157 286.520439 
L 736.285737 286.454659 
L 738.896433 286.355991 
L 741.507128 286.257322 
L 747.163636 286.191543 
L 747.163636 286.191543 
" clip-path="url(#p5fe6f78ee5)" style="fill: none; stroke: #ff7f0e; stroke-width: 1.5; stroke-linecap: square"/>
   </g>
   <g id="patch_3">
    <path d="M 108 320.4 
L 108 43.2 
" style="fill: none; stroke: #a9a9a9; stroke-width: 0.8; stroke-linejoin: miter; stroke-linecap: square"/>
   </g>
   <g id="patch_4">
    <path d="M 777.6 320.4 
L 777.6 43.2 
" style="fill: none"/>
   </g>
   <g id="patch_5">
    <path d="M 108 320.4 
L 777.6 320.4 
" style="fill: none; stroke: #a9a9a9; stroke-width: 0.8; stroke-linejoin: miter; stroke-linecap: square"/>
   </g>
   <g id="patch_6">
    <path d="M 108 43.2 
L 777.6 43.2 
" style="fill: none"/>
   </g>
   <g id="text_19">
    <!-- get_subscribe history -->
    <g style="fill: #a9a9a9" transform="translate(378.6075 37.2) scale(0.12 -0.12)">
     <defs>
      <path id="DejaVuSans-67" d="M 2906 1791 
Q 2906 2416 2648 2759 
Q 2391 3103 1925 3103 
Q 1463 3103 1205 2759 
Q 947 2416 947 1791 
Q 947 1169 1205 825 
Q 1463 481 1925 481 
Q 2391 481 2648 825 
Q 2906 1169 2906 1791 
z
M 3481 434 
Q 3481 -459 3084 -895 
Q 2688 -1331 1869 -1331 
Q 1566 -1331 1297 -1286 
Q 1028 -1241 775 -1147 
L 775 -588 
Q 1028 -725 1275 -790 
Q 1522 -856 1778 -856 
Q 2344 -856 2625 -561 
Q 2906 -266 2906 331 
L 2906 616 
Q 2728 306 2450 153 
Q 2172 0 1784 0 
Q 1141 0 747 490 
Q 353 981 353 1791 
Q 353 2603 747 3093 
Q 1141 3584 1784 3584 
Q 2172 3584 2450 3431 
Q 2728 3278 2906 2969 
L 2906 3500 
L 3481 3500 
L 3481 434 
z
" transform="scale(0.015625)"/>
      <path id="DejaVuSans-65" d="M 3597 1894 
L 3597 1613 
L 953 1613 
Q 991 1019 1311 708 
Q 1631 397 2203 397 
Q 2534 397 2845 478 
Q 3156 559 3463 722 
L 3463 178 
Q 3153 47 2828 -22 
Q 2503 -91 2169 -91 
Q 1331 -91 842 396 
Q 353 884 353 1716 
Q 353 2575 817 3079 
Q 1281 3584 2069 3584 
Q 2775 3584 3186 3129 
Q 3597 2675 3597 1894 
z
M 3022 2063 
Q 3016 2534 2758 2815 
Q 2500 3097 2075 3097 
Q 1594 3097 1305 2825 
Q 1016 2553 972 2059 
L 3022 2063 
z
" transform="scale(0.015625)"/>
      <path id="DejaVuSans-74" d="M 1172 4494 
L 1172 3500 
L 2356 3500 
L 2356 3053 
L 1172 3053 
L 1172 1153 
Q 1172 725 1289 603 
Q 1406 481 1766 481 
L 2356 481 
L 2356 0 
L 1766 0 
Q 1100 0 847 248 
Q 594 497 594 1153 
L 594 3053 
L 172 3053 
L 172 3500 
L 594 3500 
L 594 4494 
L 1172 4494 
z
" transform="scale(0.015625)"/>
      <path id="DejaVuSans-5f" d="M 3263 -1063 
L 3263 -1509 
L -63 -1509 
L -63 -1063 
L 3263 -1063 
z
" transform="scale(0.015625)"/>
      <path id="DejaVuSans-73" d="M 2834 3397 
L 2834 2853 
Q 2591 2978 2328 3040 
Q 2066 3103 1784 3103 
Q 1356 3103 1142 2972 
Q 928 2841 928 2578 
Q 928 2378 1081 2264 
Q 1234 2150 1697 2047 
L 1894 2003 
Q 2506 1872 2764 1633 
Q 3022 1394 3022 966 
Q 3022 478 2636 193 
Q 2250 -91 1575 -91 
Q 1294 -91 989 -36 
Q 684 19 347 128 
L 347 722 
Q 666 556 975 473 
Q 1284 391 1588 391 
Q 1994 391 2212 530 
Q 2431 669 2431 922 
Q 2431 1156 2273 1281 
Q 2116 1406 1581 1522 
L 1381 1569 
Q 847 1681 609 1914 
Q 372 2147 372 2553 
Q 372 3047 722 3315 
Q 1072 3584 1716 3584 
Q 2034 3584 2315 3537 
Q 2597 3491 2834 3397 
z
" transform="scale(0.015625)"/>
      <path id="DejaVuSans-75" d="M 544 1381 
L 544 3500 
L 1119 3500 
L 1119 1403 
Q 1119 906 1312 657 
Q 1506 409 1894 409 
Q 2359 409 2629 706 
Q 2900 1003 2900 1516 
L 2900 3500 
L 3475 3500 
L 3475 0 
L 2900 0 
L 2900 538 
Q 2691 219 2414 64 
Q 2138 -91 1772 -91 
Q 1169 -91 856 284 
Q 544 659 544 1381 
z
M 1991 3584 
L 1991 3584 
z
" transform="scale(0.015625)"/>
      <path id="DejaVuSans-62" d="M 3116 1747 
Q 3116 2381 2855 2742 
Q 2594 3103 2138 3103 
Q 1681 3103 1420 2742 
Q 1159 2381 1159 1747 
Q 1159 1113 1420 752 
Q 1681 391 2138 391 
Q 2594 391 2855 752 
Q 3116 1113 3116 1747 
z
M 1159 2969 
Q 1341 3281 1617 3432 
Q 1894 3584 2278 3584 
Q 2916 3584 3314 3078 
Q 3713 2572 3713 1747 
Q 3713 922 3314 415 
Q 2916 -91 2278 -91 
Q 1894 -91 1617 61 
Q 1341 213 1159 525 
L 1159 0 
L 581 0 
L 581 4863 
L 1159 4863 
L 1159 2969 
z
" transform="scale(0.015625)"/>
      <path id="DejaVuSans-63" d="M 3122 3366 
L 3122 2828 
Q 2878 2963 2633 3030 
Q 2388 3097 2138 3097 
Q 1578 3097 1268 2742 
Q 959 2388 959 1747 
Q 959 1106 1268 751 
Q 1578 397 2138 397 
Q 2388 397 2633 464 
Q 2878 531 3122 666 
L 3122 134 
Q 2881 22 2623 -34 
Q 2366 -91 2075 -91 
Q 1284 -91 818 406 
Q 353 903 353 1747 
Q 353 2603 823 3093 
Q 1294 3584 2113 3584 
Q 2378 3584 2631 3529 
Q 2884 3475 3122 3366 
z
" transform="scale(0.015625)"/>
      <path id="DejaVuSans-72" d="M 2631 2963 
Q 2534 3019 2420 3045 
Q 2306 3072 2169 3072 
Q 1681 3072 1420 2755 
Q 1159 2438 1159 1844 
L 1159 0 
L 581 0 
L 581 3500 
L 1159 3500 
L 1159 2956 
Q 1341 3275 1631 3429 
Q 1922 3584 2338 3584 
Q 2397 3584 2469 3576 
Q 2541 3569 2628 3553 
L 2631 2963 
z
" transform="scale(0.015625)"/>
      <path id="DejaVuSans-69" d="M 603 3500 
L 1178 3500 
L 1178 0 
L 603 0 
L 603 3500 
z
M 603 4863 
L 1178 4863 
L 1178 4134 
L 603 4134 
L 603 4863 
z
" transform="scale(0.015625)"/>
      <path id="DejaVuSans-20" transform="scale(0.015625)"/>
      <path id="DejaVuSans-68" d="M 3513 2113 
L 3513 0 
L 2938 0 
L 2938 2094 
Q 2938 2591 2744 2837 
Q 2550 3084 2163 3084 
Q 1697 3084 1428 2787 
Q 1159 2491 1159 1978 
L 1159 0 
L 581 0 
L 581 4863 
L 1159 4863 
L 1159 2956 
Q 1366 3272 1645 3428 
Q 1925 3584 2291 3584 
Q 2894 3584 3203 3211 
Q 3513 2838 3513 2113 
z
" transform="scale(0.015625)"/>
      <path id="DejaVuSans-6f" d="M 1959 3097 
Q 1497 3097 1228 2736 
Q 959 2375 959 1747 
Q 959 1119 1226 758 
Q 1494 397 1959 397 
Q 2419 397 2687 759 
Q 2956 1122 2956 1747 
Q 2956 2369 2687 2733 
Q 2419 3097 1959 3097 
z
M 1959 3584 
Q 2709 3584 3137 3096 
Q 3566 2609 3566 1747 
Q 3566 888 3137 398 
Q 2709 -91 1959 -91 
Q 1206 -91 779 398 
Q 353 888 353 1747 
Q 353 2609 779 3096 
Q 1206 3584 1959 3584 
z
" transform="scale(0.015625)"/>
      <path id="DejaVuSans-79" d="M 2059 -325 
Q 1816 -950 1584 -1140 
Q 1353 -1331 966 -1331 
L 506 -1331 
L 506 -850 
L 844 -850 
Q 1081 -850 1212 -737 
Q 1344 -625 1503 -206 
L 1606 56 
L 191 3500 
L 800 3500 
L 1894 763 
L 2988 3500 
L 3597 3500 
L 2059 -325 
z
" transform="scale(0.015625)"/>
     </defs>
     <use xlink:href="#DejaVuSans-67"/>
     <use xlink:href="#DejaVuSans-65" transform="translate(63.476562 0)"/>
     <use xlink:href="#DejaVuSans-74" transform="translate(125 0)"/>
     <use xlink:href="#DejaVuSans-5f" transform="translate(164.208984 0)"/>
     <use xlink:href="#DejaVuSans-73" transform="translate(214.208984 0)"/>
     <use xlink:href="#DejaVuSans-75" transform="translate(266.308594 0)"/>
     <use xlink:href="#DejaVuSans-62" transform="translate(329.6875 0)"/>
     <use xlink:href="#DejaVuSans-73" transform="translate(393.164062 0)"/>
     <use xlink:href="#DejaVuSans-63" transform="translate(445.263672 0)"/>
     <use xlink:href="#DejaVuSans-72" transform="translate(500.244141 0)"/>
     <use xlink:href="#DejaVuSans-69" transform="translate(541.357422 0)"/>
     <use xlink:href="#DejaVuSans-62" transform="translate(569.140625 0)"/>
     <use xlink:href="#DejaVuSans-65" transform="translate(632.617188 0)"/>
     <use xlink:href="#DejaVuSans-20" transform="translate(694.140625 0)"/>
     <use xlink:href="#DejaVuSans-68" transform="translate(725.927734 0)"/>
     <use xlink:href="#DejaVuSans-69" transform="translate(789.306641 0)"/>
     <use xlink:href="#DejaVuSans-73" transform="translate(817.089844 0)"/>
     <use xlink:href="#DejaVuSans-74" transform="translate(869.189453 0)"/>
     <use xlink:href="#DejaVuSans-6f" transform="translate(908.398438 0)"/>
     <use xlink:href="#DejaVuSans-72" transform="translate(969.580078 0)"/>
     <use xlink:href="#DejaVuSans-79" transform="translate(1010.693359 0)"/>
    </g>
   </g>
   <g id="legend_1">
    <g id="line2d_39">
     <path d="M 815.08 328.498438 
L 825.08 328.498438 
L 835.08 328.498438 
" style="fill: none; stroke: #1f77b4; stroke-width: 1.5; stroke-linecap: square"/>
    </g>
    <g id="text_20">
     <!-- star -->
     <g style="fill: #a9a9a9" transform="translate(843.08 331.998438) scale(0.1 -0.1)">
      <defs>
       <path id="DejaVuSans-61" d="M 2194 1759 
Q 1497 1759 1228 1600 
Q 959 1441 959 1056 
Q 959 750 1161 570 
Q 1363 391 1709 391 
Q 2188 391 2477 730 
Q 2766 1069 2766 1631 
L 2766 1759 
L 2194 1759 
z
M 3341 1997 
L 3341 0 
L 2766 0 
L 2766 531 
Q 2569 213 2275 61 
Q 1981 -91 1556 -91 
Q 1019 -91 701 211 
Q 384 513 384 1019 
Q 384 1609 779 1909 
Q 1175 2209 1959 2209 
L 2766 2209 
L 2766 2266 
Q 2766 2663 2505 2880 
Q 2244 3097 1772 3097 
Q 1472 3097 1187 3025 
Q 903 2953 641 2809 
L 641 3341 
Q 956 3463 1253 3523 
Q 1550 3584 1831 3584 
Q 2591 3584 2966 3190 
Q 3341 2797 3341 1997 
z
" transform="scale(0.015625)"/>
      </defs>
      <use xlink:href="#DejaVuSans-73"/>
      <use xlink:href="#DejaVuSans-74" transform="translate(52.099609 0)"/>
      <use xlink:href="#DejaVuSans-61" transform="translate(91.308594 0)"/>
      <use xlink:href="#DejaVuSans-72" transform="translate(152.587891 0)"/>
     </g>
    </g>
    <g id="line2d_40">
     <path d="M 815.08 343.176562 
L 825.08 343.176562 
L 835.08 343.176562 
" style="fill: none; stroke: #ff7f0e; stroke-width: 1.5; stroke-linecap: square"/>
    </g>
    <g id="text_21">
     <!-- fork -->
     <g style="fill: #a9a9a9" transform="translate(843.08 346.676562) scale(0.1 -0.1)">
      <defs>
       <path id="DejaVuSans-66" d="M 2375 4863 
L 2375 4384 
L 1825 4384 
Q 1516 4384 1395 4259 
Q 1275 4134 1275 3809 
L 1275 3500 
L 2222 3500 
L 2222 3053 
L 1275 3053 
L 1275 0 
L 697 0 
L 697 3053 
L 147 3053 
L 147 3500 
L 697 3500 
L 697 3744 
Q 697 4328 969 4595 
Q 1241 4863 1831 4863 
L 2375 4863 
z
" transform="scale(0.015625)"/>
       <path id="DejaVuSans-6b" d="M 581 4863 
L 1159 4863 
L 1159 1991 
L 2875 3500 
L 3609 3500 
L 1753 1863 
L 3688 0 
L 2938 0 
L 1159 1709 
L 1159 0 
L 581 0 
L 581 4863 
z
" transform="scale(0.015625)"/>
      </defs>
      <use xlink:href="#DejaVuSans-66"/>
      <use xlink:href="#DejaVuSans-6f" transform="translate(35.205078 0)"/>
      <use xlink:href="#DejaVuSans-72" transform="translate(96.386719 0)"/>
      <use xlink:href="#DejaVuSans-6b" transform="translate(137.5 0)"/>
     </g>
    </g>
   </g>
  </g>
 </g>
 <defs>
  <clipPath id="p5fe6f78ee5">
   <rect x="108" y="43.2" width="669.6" height="277.2"/>
  </clipPath>
 </defs>
</svg>
