<?xml version="1.0" encoding="utf-8" standalone="no"?>
<!DOCTYPE svg PUBLIC "-//W3C//DTD SVG 1.1//EN"
  "http://www.w3.org/Graphics/SVG/1.1/DTD/svg11.dtd">
<svg xmlns:xlink="http://www.w3.org/1999/xlink" width="864pt" height="360pt" viewBox="0 0 864 360" xmlns="http://www.w3.org/2000/svg" version="1.1">
 <metadata>
  <rdf:RDF xmlns:dc="http://purl.org/dc/elements/1.1/" xmlns:cc="http://creativecommons.org/ns#" xmlns:rdf="http://www.w3.org/1999/02/22-rdf-syntax-ns#">
   <cc:Work>
    <dc:type rdf:resource="http://purl.org/dc/dcmitype/StillImage"/>
    <dc:date>2025-05-22T08:16:19.506208</dc:date>
    <dc:format>image/svg+xml</dc:format>
    <dc:creator>
     <cc:Agent>
      <dc:title>Matplotlib v3.10.3, https://matplotlib.org/</dc:title>
     </cc:Agent>
    </dc:creator>
   </cc:Work>
  </rdf:RDF>
 </metadata>
 <defs>
  <style type="text/css">*{stroke-linejoin: round; stroke-linecap: butt}</style>
 </defs>
 <g id="figure_1">
  <g id="patch_1">
   <path d="M 0 360 
L 864 360 
L 864 0 
L 0 0 
L 0 360 
z
" style="fill: none; opacity: 0"/>
  </g>
  <g id="axes_1">
   <g id="patch_2">
    <path d="M 108 320.4 
L 777.6 320.4 
L 777.6 43.2 
L 108 43.2 
L 108 320.4 
z
" style="fill: none; opacity: 0"/>
   </g>
   <g id="matplotlib.axis_1">
    <g id="xtick_1">
     <g id="line2d_1">
      <path d="M 128.421537 320.4 
L 128.421537 43.2 
" clip-path="url(#p842970c1f9)" style="fill: none; stroke-dasharray: 5.12,1.28,0.8,1.28; stroke-dashoffset: 0; stroke: #b0b0b0; stroke-width: 0.8"/>
     </g>
     <g id="line2d_2">
      <defs>
       <path id="m55e815bee1" d="M 0 0 
L 0 3.5 
" style="stroke: #a9a9a9; stroke-width: 0.8"/>
      </defs>
      <g>
       <use xlink:href="#m55e815bee1" x="128.421537" y="320.4" style="fill: #a9a9a9; stroke: #a9a9a9; stroke-width: 0.8"/>
      </g>
     </g>
     <g id="text_1">
      <!-- 2021-07 -->
      <g style="fill: #a9a9a9" transform="translate(107.530131 334.998438) scale(0.1 -0.1)">
       <defs>
        <path id="DejaVuSans-32" d="M 1228 531 
L 3431 531 
L 3431 0 
L 469 0 
L 469 531 
Q 828 903 1448 1529 
Q 2069 2156 2228 2338 
Q 2531 2678 2651 2914 
Q 2772 3150 2772 3378 
Q 2772 3750 2511 3984 
Q 2250 4219 1831 4219 
Q 1534 4219 1204 4116 
Q 875 4013 500 3803 
L 500 4441 
Q 881 4594 1212 4672 
Q 1544 4750 1819 4750 
Q 2544 4750 2975 4387 
Q 3406 4025 3406 3419 
Q 3406 3131 3298 2873 
Q 3191 2616 2906 2266 
Q 2828 2175 2409 1742 
Q 1991 1309 1228 531 
z
" transform="scale(0.015625)"/>
        <path id="DejaVuSans-30" d="M 2034 4250 
Q 1547 4250 1301 3770 
Q 1056 3291 1056 2328 
Q 1056 1369 1301 889 
Q 1547 409 2034 409 
Q 2525 409 2770 889 
Q 3016 1369 3016 2328 
Q 3016 3291 2770 3770 
Q 2525 4250 2034 4250 
z
M 2034 4750 
Q 2819 4750 3233 4129 
Q 3647 3509 3647 2328 
Q 3647 1150 3233 529 
Q 2819 -91 2034 -91 
Q 1250 -91 836 529 
Q 422 1150 422 2328 
Q 422 3509 836 4129 
Q 1250 4750 2034 4750 
z
" transform="scale(0.015625)"/>
        <path id="DejaVuSans-31" d="M 794 531 
L 1825 531 
L 1825 4091 
L 703 3866 
L 703 4441 
L 1819 4666 
L 2450 4666 
L 2450 531 
L 3481 531 
L 3481 0 
L 794 0 
L 794 531 
z
" transform="scale(0.015625)"/>
        <path id="DejaVuSans-2d" d="M 313 2009 
L 1997 2009 
L 1997 1497 
L 313 1497 
L 313 2009 
z
" transform="scale(0.015625)"/>
        <path id="DejaVuSans-37" d="M 525 4666 
L 3525 4666 
L 3525 4397 
L 1831 0 
L 1172 0 
L 2766 4134 
L 525 4134 
L 525 4666 
z
" transform="scale(0.015625)"/>
       </defs>
       <use xlink:href="#DejaVuSans-32"/>
       <use xlink:href="#DejaVuSans-30" transform="translate(63.623047 0)"/>
       <use xlink:href="#DejaVuSans-32" transform="translate(127.246094 0)"/>
       <use xlink:href="#DejaVuSans-31" transform="translate(190.869141 0)"/>
       <use xlink:href="#DejaVuSans-2d" transform="translate(254.492188 0)"/>
       <use xlink:href="#DejaVuSans-30" transform="translate(290.576172 0)"/>
       <use xlink:href="#DejaVuSans-37" transform="translate(354.199219 0)"/>
      </g>
     </g>
    </g>
    <g id="xtick_2">
     <g id="line2d_3">
      <path d="M 208.540148 320.4 
L 208.540148 43.2 
" clip-path="url(#p842970c1f9)" style="fill: none; stroke-dasharray: 5.12,1.28,0.8,1.28; stroke-dashoffset: 0; stroke: #b0b0b0; stroke-width: 0.8"/>
     </g>
     <g id="line2d_4">
      <g>
       <use xlink:href="#m55e815bee1" x="208.540148" y="320.4" style="fill: #a9a9a9; stroke: #a9a9a9; stroke-width: 0.8"/>
      </g>
     </g>
     <g id="text_2">
      <!-- 2022-01 -->
      <g style="fill: #a9a9a9" transform="translate(187.648742 334.998438) scale(0.1 -0.1)">
       <use xlink:href="#DejaVuSans-32"/>
       <use xlink:href="#DejaVuSans-30" transform="translate(63.623047 0)"/>
       <use xlink:href="#DejaVuSans-32" transform="translate(127.246094 0)"/>
       <use xlink:href="#DejaVuSans-32" transform="translate(190.869141 0)"/>
       <use xlink:href="#DejaVuSans-2d" transform="translate(254.492188 0)"/>
       <use xlink:href="#DejaVuSans-30" transform="translate(290.576172 0)"/>
       <use xlink:href="#DejaVuSans-31" transform="translate(354.199219 0)"/>
      </g>
     </g>
    </g>
    <g id="xtick_3">
     <g id="line2d_5">
      <path d="M 287.352478 320.4 
L 287.352478 43.2 
" clip-path="url(#p842970c1f9)" style="fill: none; stroke-dasharray: 5.12,1.28,0.8,1.28; stroke-dashoffset: 0; stroke: #b0b0b0; stroke-width: 0.8"/>
     </g>
     <g id="line2d_6">
      <g>
       <use xlink:href="#m55e815bee1" x="287.352478" y="320.4" style="fill: #a9a9a9; stroke: #a9a9a9; stroke-width: 0.8"/>
      </g>
     </g>
     <g id="text_3">
      <!-- 2022-07 -->
      <g style="fill: #a9a9a9" transform="translate(266.461071 334.998438) scale(0.1 -0.1)">
       <use xlink:href="#DejaVuSans-32"/>
       <use xlink:href="#DejaVuSans-30" transform="translate(63.623047 0)"/>
       <use xlink:href="#DejaVuSans-32" transform="translate(127.246094 0)"/>
       <use xlink:href="#DejaVuSans-32" transform="translate(190.869141 0)"/>
       <use xlink:href="#DejaVuSans-2d" transform="translate(254.492188 0)"/>
       <use xlink:href="#DejaVuSans-30" transform="translate(290.576172 0)"/>
       <use xlink:href="#DejaVuSans-37" transform="translate(354.199219 0)"/>
      </g>
     </g>
    </g>
    <g id="xtick_4">
     <g id="line2d_7">
      <path d="M 367.471089 320.4 
L 367.471089 43.2 
" clip-path="url(#p842970c1f9)" style="fill: none; stroke-dasharray: 5.12,1.28,0.8,1.28; stroke-dashoffset: 0; stroke: #b0b0b0; stroke-width: 0.8"/>
     </g>
     <g id="line2d_8">
      <g>
       <use xlink:href="#m55e815bee1" x="367.471089" y="320.4" style="fill: #a9a9a9; stroke: #a9a9a9; stroke-width: 0.8"/>
      </g>
     </g>
     <g id="text_4">
      <!-- 2023-01 -->
      <g style="fill: #a9a9a9" transform="translate(346.579682 334.998438) scale(0.1 -0.1)">
       <defs>
        <path id="DejaVuSans-33" d="M 2597 2516 
Q 3050 2419 3304 2112 
Q 3559 1806 3559 1356 
Q 3559 666 3084 287 
Q 2609 -91 1734 -91 
Q 1441 -91 1130 -33 
Q 819 25 488 141 
L 488 750 
Q 750 597 1062 519 
Q 1375 441 1716 441 
Q 2309 441 2620 675 
Q 2931 909 2931 1356 
Q 2931 1769 2642 2001 
Q 2353 2234 1838 2234 
L 1294 2234 
L 1294 2753 
L 1863 2753 
Q 2328 2753 2575 2939 
Q 2822 3125 2822 3475 
Q 2822 3834 2567 4026 
Q 2313 4219 1838 4219 
Q 1578 4219 1281 4162 
Q 984 4106 628 3988 
L 628 4550 
Q 988 4650 1302 4700 
Q 1616 4750 1894 4750 
Q 2613 4750 3031 4423 
Q 3450 4097 3450 3541 
Q 3450 3153 3228 2886 
Q 3006 2619 2597 2516 
z
" transform="scale(0.015625)"/>
       </defs>
       <use xlink:href="#DejaVuSans-32"/>
       <use xlink:href="#DejaVuSans-30" transform="translate(63.623047 0)"/>
       <use xlink:href="#DejaVuSans-32" transform="translate(127.246094 0)"/>
       <use xlink:href="#DejaVuSans-33" transform="translate(190.869141 0)"/>
       <use xlink:href="#DejaVuSans-2d" transform="translate(254.492188 0)"/>
       <use xlink:href="#DejaVuSans-30" transform="translate(290.576172 0)"/>
       <use xlink:href="#DejaVuSans-31" transform="translate(354.199219 0)"/>
      </g>
     </g>
    </g>
    <g id="xtick_5">
     <g id="line2d_9">
      <path d="M 446.283418 320.4 
L 446.283418 43.2 
" clip-path="url(#p842970c1f9)" style="fill: none; stroke-dasharray: 5.12,1.28,0.8,1.28; stroke-dashoffset: 0; stroke: #b0b0b0; stroke-width: 0.8"/>
     </g>
     <g id="line2d_10">
      <g>
       <use xlink:href="#m55e815bee1" x="446.283418" y="320.4" style="fill: #a9a9a9; stroke: #a9a9a9; stroke-width: 0.8"/>
      </g>
     </g>
     <g id="text_5">
      <!-- 2023-07 -->
      <g style="fill: #a9a9a9" transform="translate(425.392012 334.998438) scale(0.1 -0.1)">
       <use xlink:href="#DejaVuSans-32"/>
       <use xlink:href="#DejaVuSans-30" transform="translate(63.623047 0)"/>
       <use xlink:href="#DejaVuSans-32" transform="translate(127.246094 0)"/>
       <use xlink:href="#DejaVuSans-33" transform="translate(190.869141 0)"/>
       <use xlink:href="#DejaVuSans-2d" transform="translate(254.492188 0)"/>
       <use xlink:href="#DejaVuSans-30" transform="translate(290.576172 0)"/>
       <use xlink:href="#DejaVuSans-37" transform="translate(354.199219 0)"/>
      </g>
     </g>
    </g>
    <g id="xtick_6">
     <g id="line2d_11">
      <path d="M 526.402029 320.4 
L 526.402029 43.2 
" clip-path="url(#p842970c1f9)" style="fill: none; stroke-dasharray: 5.12,1.28,0.8,1.28; stroke-dashoffset: 0; stroke: #b0b0b0; stroke-width: 0.8"/>
     </g>
     <g id="line2d_12">
      <g>
       <use xlink:href="#m55e815bee1" x="526.402029" y="320.4" style="fill: #a9a9a9; stroke: #a9a9a9; stroke-width: 0.8"/>
      </g>
     </g>
     <g id="text_6">
      <!-- 2024-01 -->
      <g style="fill: #a9a9a9" transform="translate(505.510623 334.998438) scale(0.1 -0.1)">
       <defs>
        <path id="DejaVuSans-34" d="M 2419 4116 
L 825 1625 
L 2419 1625 
L 2419 4116 
z
M 2253 4666 
L 3047 4666 
L 3047 1625 
L 3713 1625 
L 3713 1100 
L 3047 1100 
L 3047 0 
L 2419 0 
L 2419 1100 
L 313 1100 
L 313 1709 
L 2253 4666 
z
" transform="scale(0.015625)"/>
       </defs>
       <use xlink:href="#DejaVuSans-32"/>
       <use xlink:href="#DejaVuSans-30" transform="translate(63.623047 0)"/>
       <use xlink:href="#DejaVuSans-32" transform="translate(127.246094 0)"/>
       <use xlink:href="#DejaVuSans-34" transform="translate(190.869141 0)"/>
       <use xlink:href="#DejaVuSans-2d" transform="translate(254.492188 0)"/>
       <use xlink:href="#DejaVuSans-30" transform="translate(290.576172 0)"/>
       <use xlink:href="#DejaVuSans-31" transform="translate(354.199219 0)"/>
      </g>
     </g>
    </g>
    <g id="xtick_7">
     <g id="line2d_13">
      <path d="M 605.649785 320.4 
L 605.649785 43.2 
" clip-path="url(#p842970c1f9)" style="fill: none; stroke-dasharray: 5.12,1.28,0.8,1.28; stroke-dashoffset: 0; stroke: #b0b0b0; stroke-width: 0.8"/>
     </g>
     <g id="line2d_14">
      <g>
       <use xlink:href="#m55e815bee1" x="605.649785" y="320.4" style="fill: #a9a9a9; stroke: #a9a9a9; stroke-width: 0.8"/>
      </g>
     </g>
     <g id="text_7">
      <!-- 2024-07 -->
      <g style="fill: #a9a9a9" transform="translate(584.758379 334.998438) scale(0.1 -0.1)">
       <use xlink:href="#DejaVuSans-32"/>
       <use xlink:href="#DejaVuSans-30" transform="translate(63.623047 0)"/>
       <use xlink:href="#DejaVuSans-32" transform="translate(127.246094 0)"/>
       <use xlink:href="#DejaVuSans-34" transform="translate(190.869141 0)"/>
       <use xlink:href="#DejaVuSans-2d" transform="translate(254.492188 0)"/>
       <use xlink:href="#DejaVuSans-30" transform="translate(290.576172 0)"/>
       <use xlink:href="#DejaVuSans-37" transform="translate(354.199219 0)"/>
      </g>
     </g>
    </g>
    <g id="xtick_8">
     <g id="line2d_15">
      <path d="M 685.768396 320.4 
L 685.768396 43.2 
" clip-path="url(#p842970c1f9)" style="fill: none; stroke-dasharray: 5.12,1.28,0.8,1.28; stroke-dashoffset: 0; stroke: #b0b0b0; stroke-width: 0.8"/>
     </g>
     <g id="line2d_16">
      <g>
       <use xlink:href="#m55e815bee1" x="685.768396" y="320.4" style="fill: #a9a9a9; stroke: #a9a9a9; stroke-width: 0.8"/>
      </g>
     </g>
     <g id="text_8">
      <!-- 2025-01 -->
      <g style="fill: #a9a9a9" transform="translate(664.87699 334.998438) scale(0.1 -0.1)">
       <defs>
        <path id="DejaVuSans-35" d="M 691 4666 
L 3169 4666 
L 3169 4134 
L 1269 4134 
L 1269 2991 
Q 1406 3038 1543 3061 
Q 1681 3084 1819 3084 
Q 2600 3084 3056 2656 
Q 3513 2228 3513 1497 
Q 3513 744 3044 326 
Q 2575 -91 1722 -91 
Q 1428 -91 1123 -41 
Q 819 9 494 109 
L 494 744 
Q 775 591 1075 516 
Q 1375 441 1709 441 
Q 2250 441 2565 725 
Q 2881 1009 2881 1497 
Q 2881 1984 2565 2268 
Q 2250 2553 1709 2553 
Q 1456 2553 1204 2497 
Q 953 2441 691 2322 
L 691 4666 
z
" transform="scale(0.015625)"/>
       </defs>
       <use xlink:href="#DejaVuSans-32"/>
       <use xlink:href="#DejaVuSans-30" transform="translate(63.623047 0)"/>
       <use xlink:href="#DejaVuSans-32" transform="translate(127.246094 0)"/>
       <use xlink:href="#DejaVuSans-35" transform="translate(190.869141 0)"/>
       <use xlink:href="#DejaVuSans-2d" transform="translate(254.492188 0)"/>
       <use xlink:href="#DejaVuSans-30" transform="translate(290.576172 0)"/>
       <use xlink:href="#DejaVuSans-31" transform="translate(354.199219 0)"/>
      </g>
     </g>
    </g>
    <g id="xtick_9">
     <g id="line2d_17">
      <path d="M 764.580726 320.4 
L 764.580726 43.2 
" clip-path="url(#p842970c1f9)" style="fill: none; stroke-dasharray: 5.12,1.28,0.8,1.28; stroke-dashoffset: 0; stroke: #b0b0b0; stroke-width: 0.8"/>
     </g>
     <g id="line2d_18">
      <g>
       <use xlink:href="#m55e815bee1" x="764.580726" y="320.4" style="fill: #a9a9a9; stroke: #a9a9a9; stroke-width: 0.8"/>
      </g>
     </g>
     <g id="text_9">
      <!-- 2025-07 -->
      <g style="fill: #a9a9a9" transform="translate(743.689319 334.998438) scale(0.1 -0.1)">
       <use xlink:href="#DejaVuSans-32"/>
       <use xlink:href="#DejaVuSans-30" transform="translate(63.623047 0)"/>
       <use xlink:href="#DejaVuSans-32" transform="translate(127.246094 0)"/>
       <use xlink:href="#DejaVuSans-35" transform="translate(190.869141 0)"/>
       <use xlink:href="#DejaVuSans-2d" transform="translate(254.492188 0)"/>
       <use xlink:href="#DejaVuSans-30" transform="translate(290.576172 0)"/>
       <use xlink:href="#DejaVuSans-37" transform="translate(354.199219 0)"/>
      </g>
     </g>
    </g>
   </g>
   <g id="matplotlib.axis_2">
    <g id="ytick_1">
     <g id="line2d_19">
      <path d="M 108 307.832915 
L 777.6 307.832915 
" clip-path="url(#p842970c1f9)" style="fill: none; stroke-dasharray: 5.12,1.28,0.8,1.28; stroke-dashoffset: 0; stroke: #b0b0b0; stroke-width: 0.8"/>
     </g>
     <g id="line2d_20">
      <defs>
       <path id="mf729353d65" d="M 0 0 
L -3.5 0 
" style="stroke: #a9a9a9; stroke-width: 0.8"/>
      </defs>
      <g>
       <use xlink:href="#mf729353d65" x="108" y="307.832915" style="fill: #a9a9a9; stroke: #a9a9a9; stroke-width: 0.8"/>
      </g>
     </g>
     <g id="text_10">
      <!-- 0 -->
      <g style="fill: #a9a9a9" transform="translate(94.6375 311.632134) scale(0.1 -0.1)">
       <use xlink:href="#DejaVuSans-30"/>
      </g>
     </g>
    </g>
    <g id="ytick_2">
     <g id="line2d_21">
      <path d="M 108 274.917555 
L 777.6 274.917555 
" clip-path="url(#p842970c1f9)" style="fill: none; stroke-dasharray: 5.12,1.28,0.8,1.28; stroke-dashoffset: 0; stroke: #b0b0b0; stroke-width: 0.8"/>
     </g>
     <g id="line2d_22">
      <g>
       <use xlink:href="#mf729353d65" x="108" y="274.917555" style="fill: #a9a9a9; stroke: #a9a9a9; stroke-width: 0.8"/>
      </g>
     </g>
     <g id="text_11">
      <!-- 1000 -->
      <g style="fill: #a9a9a9" transform="translate(75.55 278.716774) scale(0.1 -0.1)">
       <use xlink:href="#DejaVuSans-31"/>
       <use xlink:href="#DejaVuSans-30" transform="translate(63.623047 0)"/>
       <use xlink:href="#DejaVuSans-30" transform="translate(127.246094 0)"/>
       <use xlink:href="#DejaVuSans-30" transform="translate(190.869141 0)"/>
      </g>
     </g>
    </g>
    <g id="ytick_3">
     <g id="line2d_23">
      <path d="M 108 242.002194 
L 777.6 242.002194 
" clip-path="url(#p842970c1f9)" style="fill: none; stroke-dasharray: 5.12,1.28,0.8,1.28; stroke-dashoffset: 0; stroke: #b0b0b0; stroke-width: 0.8"/>
     </g>
     <g id="line2d_24">
      <g>
       <use xlink:href="#mf729353d65" x="108" y="242.002194" style="fill: #a9a9a9; stroke: #a9a9a9; stroke-width: 0.8"/>
      </g>
     </g>
     <g id="text_12">
      <!-- 2000 -->
      <g style="fill: #a9a9a9" transform="translate(75.55 245.801413) scale(0.1 -0.1)">
       <use xlink:href="#DejaVuSans-32"/>
       <use xlink:href="#DejaVuSans-30" transform="translate(63.623047 0)"/>
       <use xlink:href="#DejaVuSans-30" transform="translate(127.246094 0)"/>
       <use xlink:href="#DejaVuSans-30" transform="translate(190.869141 0)"/>
      </g>
     </g>
    </g>
    <g id="ytick_4">
     <g id="line2d_25">
      <path d="M 108 209.086834 
L 777.6 209.086834 
" clip-path="url(#p842970c1f9)" style="fill: none; stroke-dasharray: 5.12,1.28,0.8,1.28; stroke-dashoffset: 0; stroke: #b0b0b0; stroke-width: 0.8"/>
     </g>
     <g id="line2d_26">
      <g>
       <use xlink:href="#mf729353d65" x="108" y="209.086834" style="fill: #a9a9a9; stroke: #a9a9a9; stroke-width: 0.8"/>
      </g>
     </g>
     <g id="text_13">
      <!-- 3000 -->
      <g style="fill: #a9a9a9" transform="translate(75.55 212.886053) scale(0.1 -0.1)">
       <use xlink:href="#DejaVuSans-33"/>
       <use xlink:href="#DejaVuSans-30" transform="translate(63.623047 0)"/>
       <use xlink:href="#DejaVuSans-30" transform="translate(127.246094 0)"/>
       <use xlink:href="#DejaVuSans-30" transform="translate(190.869141 0)"/>
      </g>
     </g>
    </g>
    <g id="ytick_5">
     <g id="line2d_27">
      <path d="M 108 176.171473 
L 777.6 176.171473 
" clip-path="url(#p842970c1f9)" style="fill: none; stroke-dasharray: 5.12,1.28,0.8,1.28; stroke-dashoffset: 0; stroke: #b0b0b0; stroke-width: 0.8"/>
     </g>
     <g id="line2d_28">
      <g>
       <use xlink:href="#mf729353d65" x="108" y="176.171473" style="fill: #a9a9a9; stroke: #a9a9a9; stroke-width: 0.8"/>
      </g>
     </g>
     <g id="text_14">
      <!-- 4000 -->
      <g style="fill: #a9a9a9" transform="translate(75.55 179.970692) scale(0.1 -0.1)">
       <use xlink:href="#DejaVuSans-34"/>
       <use xlink:href="#DejaVuSans-30" transform="translate(63.623047 0)"/>
       <use xlink:href="#DejaVuSans-30" transform="translate(127.246094 0)"/>
       <use xlink:href="#DejaVuSans-30" transform="translate(190.869141 0)"/>
      </g>
     </g>
    </g>
    <g id="ytick_6">
     <g id="line2d_29">
      <path d="M 108 143.256113 
L 777.6 143.256113 
" clip-path="url(#p842970c1f9)" style="fill: none; stroke-dasharray: 5.12,1.28,0.8,1.28; stroke-dashoffset: 0; stroke: #b0b0b0; stroke-width: 0.8"/>
     </g>
     <g id="line2d_30">
      <g>
       <use xlink:href="#mf729353d65" x="108" y="143.256113" style="fill: #a9a9a9; stroke: #a9a9a9; stroke-width: 0.8"/>
      </g>
     </g>
     <g id="text_15">
      <!-- 5000 -->
      <g style="fill: #a9a9a9" transform="translate(75.55 147.055332) scale(0.1 -0.1)">
       <use xlink:href="#DejaVuSans-35"/>
       <use xlink:href="#DejaVuSans-30" transform="translate(63.623047 0)"/>
       <use xlink:href="#DejaVuSans-30" transform="translate(127.246094 0)"/>
       <use xlink:href="#DejaVuSans-30" transform="translate(190.869141 0)"/>
      </g>
     </g>
    </g>
    <g id="ytick_7">
     <g id="line2d_31">
      <path d="M 108 110.340752 
L 777.6 110.340752 
" clip-path="url(#p842970c1f9)" style="fill: none; stroke-dasharray: 5.12,1.28,0.8,1.28; stroke-dashoffset: 0; stroke: #b0b0b0; stroke-width: 0.8"/>
     </g>
     <g id="line2d_32">
      <g>
       <use xlink:href="#mf729353d65" x="108" y="110.340752" style="fill: #a9a9a9; stroke: #a9a9a9; stroke-width: 0.8"/>
      </g>
     </g>
     <g id="text_16">
      <!-- 6000 -->
      <g style="fill: #a9a9a9" transform="translate(75.55 114.139971) scale(0.1 -0.1)">
       <defs>
        <path id="DejaVuSans-36" d="M 2113 2584 
Q 1688 2584 1439 2293 
Q 1191 2003 1191 1497 
Q 1191 994 1439 701 
Q 1688 409 2113 409 
Q 2538 409 2786 701 
Q 3034 994 3034 1497 
Q 3034 2003 2786 2293 
Q 2538 2584 2113 2584 
z
M 3366 4563 
L 3366 3988 
Q 3128 4100 2886 4159 
Q 2644 4219 2406 4219 
Q 1781 4219 1451 3797 
Q 1122 3375 1075 2522 
Q 1259 2794 1537 2939 
Q 1816 3084 2150 3084 
Q 2853 3084 3261 2657 
Q 3669 2231 3669 1497 
Q 3669 778 3244 343 
Q 2819 -91 2113 -91 
Q 1303 -91 875 529 
Q 447 1150 447 2328 
Q 447 3434 972 4092 
Q 1497 4750 2381 4750 
Q 2619 4750 2861 4703 
Q 3103 4656 3366 4563 
z
" transform="scale(0.015625)"/>
       </defs>
       <use xlink:href="#DejaVuSans-36"/>
       <use xlink:href="#DejaVuSans-30" transform="translate(63.623047 0)"/>
       <use xlink:href="#DejaVuSans-30" transform="translate(127.246094 0)"/>
       <use xlink:href="#DejaVuSans-30" transform="translate(190.869141 0)"/>
      </g>
     </g>
    </g>
    <g id="ytick_8">
     <g id="line2d_33">
      <path d="M 108 77.425392 
L 777.6 77.425392 
" clip-path="url(#p842970c1f9)" style="fill: none; stroke-dasharray: 5.12,1.28,0.8,1.28; stroke-dashoffset: 0; stroke: #b0b0b0; stroke-width: 0.8"/>
     </g>
     <g id="line2d_34">
      <g>
       <use xlink:href="#mf729353d65" x="108" y="77.425392" style="fill: #a9a9a9; stroke: #a9a9a9; stroke-width: 0.8"/>
      </g>
     </g>
     <g id="text_17">
      <!-- 7000 -->
      <g style="fill: #a9a9a9" transform="translate(75.55 81.224611) scale(0.1 -0.1)">
       <use xlink:href="#DejaVuSans-37"/>
       <use xlink:href="#DejaVuSans-30" transform="translate(63.623047 0)"/>
       <use xlink:href="#DejaVuSans-30" transform="translate(127.246094 0)"/>
       <use xlink:href="#DejaVuSans-30" transform="translate(190.869141 0)"/>
      </g>
     </g>
    </g>
    <g id="ytick_9">
     <g id="line2d_35">
      <path d="M 108 44.510031 
L 777.6 44.510031 
" clip-path="url(#p842970c1f9)" style="fill: none; stroke-dasharray: 5.12,1.28,0.8,1.28; stroke-dashoffset: 0; stroke: #b0b0b0; stroke-width: 0.8"/>
     </g>
     <g id="line2d_36">
      <g>
       <use xlink:href="#mf729353d65" x="108" y="44.510031" style="fill: #a9a9a9; stroke: #a9a9a9; stroke-width: 0.8"/>
      </g>
     </g>
     <g id="text_18">
      <!-- 8000 -->
      <g style="fill: #a9a9a9" transform="translate(75.55 48.30925) scale(0.1 -0.1)">
       <defs>
        <path id="DejaVuSans-38" d="M 2034 2216 
Q 1584 2216 1326 1975 
Q 1069 1734 1069 1313 
Q 1069 891 1326 650 
Q 1584 409 2034 409 
Q 2484 409 2743 651 
Q 3003 894 3003 1313 
Q 3003 1734 2745 1975 
Q 2488 2216 2034 2216 
z
M 1403 2484 
Q 997 2584 770 2862 
Q 544 3141 544 3541 
Q 544 4100 942 4425 
Q 1341 4750 2034 4750 
Q 2731 4750 3128 4425 
Q 3525 4100 3525 3541 
Q 3525 3141 3298 2862 
Q 3072 2584 2669 2484 
Q 3125 2378 3379 2068 
Q 3634 1759 3634 1313 
Q 3634 634 3220 271 
Q 2806 -91 2034 -91 
Q 1263 -91 848 271 
Q 434 634 434 1313 
Q 434 1759 690 2068 
Q 947 2378 1403 2484 
z
M 1172 3481 
Q 1172 3119 1398 2916 
Q 1625 2713 2034 2713 
Q 2441 2713 2670 2916 
Q 2900 3119 2900 3481 
Q 2900 3844 2670 4047 
Q 2441 4250 2034 4250 
Q 1625 4250 1398 4047 
Q 1172 3844 1172 3481 
z
" transform="scale(0.015625)"/>
       </defs>
       <use xlink:href="#DejaVuSans-38"/>
       <use xlink:href="#DejaVuSans-30" transform="translate(63.623047 0)"/>
       <use xlink:href="#DejaVuSans-30" transform="translate(127.246094 0)"/>
       <use xlink:href="#DejaVuSans-30" transform="translate(190.869141 0)"/>
      </g>
     </g>
    </g>
   </g>
   <g id="line2d_37">
    <path d="M 138.436364 307.734169 
L 141.048927 307.503762 
L 141.484354 307.30627 
L 143.226063 307.075862 
L 144.967772 306.713793 
L 145.838627 306.582132 
L 148.015763 306.384639 
L 148.886617 306.022571 
L 149.322044 305.430094 
L 149.757472 305.133856 
L 150.192899 304.146395 
L 150.628326 304.080564 
L 151.063753 303.718495 
L 151.934608 303.25768 
L 153.676317 301.809404 
L 155.418026 300.92069 
L 156.724307 300.295298 
L 157.159735 299.57116 
L 158.030589 298.912853 
L 158.466016 298.715361 
L 162.820289 298.057053 
L 163.255716 297.859561 
L 166.303707 297.596238 
L 168.045416 297.168339 
L 171.528833 296.674608 
L 171.964261 296.444201 
L 172.399688 296.37837 
L 173.270542 296.082132 
L 176.318533 295.555486 
L 177.189387 295.292163 
L 181.108233 294.633856 
L 181.979087 294.436364 
L 182.849941 294.403448 
L 184.59165 293.975549 
L 185.027078 293.350157 
L 186.333359 292.823511 
L 187.639641 292.461442 
L 188.075068 292.231034 
L 188.945923 292.066458 
L 190.687632 291.539812 
L 191.558486 291.473981 
L 192.429341 291.243574 
L 194.17105 290.782759 
L 194.606477 290.749843 
L 195.477331 290.321944 
L 195.912758 290.256113 
L 196.348186 290.025705 
L 201.137885 289.202821 
L 202.879594 288.676176 
L 203.315021 288.379937 
L 205.492158 287.655799 
L 206.363012 287.030408 
L 207.669294 286.767085 
L 217.248693 283.903448 
L 217.68412 283.870533 
L 218.990402 283.475549 
L 219.425829 283.475549 
L 219.861256 283.278056 
L 220.732111 283.17931 
L 221.167538 283.014734 
L 222.909247 282.948903 
L 223.780101 282.784326 
L 224.650956 282.323511 
L 225.957238 281.829781 
L 226.828092 281.368966 
L 227.698947 280.90815 
L 228.569801 280.611912 
L 229.005228 280.480251 
L 229.876083 279.92069 
L 230.31151 279.426959 
L 231.182364 278.044514 
L 231.617792 277.912853 
L 232.053219 277.912853 
L 233.359501 277.122884 
L 233.794928 276.892476 
L 234.230355 276.79373 
L 234.665782 276.365831 
L 235.536637 276.003762 
L 236.407491 275.575862 
L 238.584627 272.712226 
L 241.197191 271.26395 
L 242.068045 270.539812 
L 242.503472 270.276489 
L 242.9389 269.651097 
L 243.374327 268.630721 
L 243.809754 267.939498 
L 244.245181 267.577429 
L 244.680609 267.379937 
L 248.164027 264.088401 
L 249.034881 263.265517 
L 251.647444 261.586834 
L 252.082872 261.422257 
L 253.824581 260.368966 
L 254.260008 260.171473 
L 256.437144 258.130721 
L 257.307998 257.768652 
L 258.178853 257.14326 
L 258.61428 256.879937 
L 259.049707 256.814107 
L 260.355989 256.057053 
L 260.791416 255.563323 
L 262.968552 254.345455 
L 263.40398 254.180878 
L 264.710261 253.259248 
L 271.24167 250.889342 
L 272.112524 250.066458 
L 273.418806 249.40815 
L 274.289661 248.848589 
L 275.160515 248.585266 
L 275.595942 248.289028 
L 276.031369 248.157367 
L 277.337651 247.268652 
L 279.514787 246.774922 
L 280.821069 245.984953 
L 282.127351 245.688715 
L 282.562778 245.589969 
L 283.86906 244.569592 
L 285.610769 244.075862 
L 286.046196 243.713793 
L 288.658759 242.792163 
L 289.529614 242.627586 
L 290.400468 242.265517 
L 293.448459 241.11348 
L 294.319313 240.981818 
L 295.625595 240.521003 
L 297.802731 239.434796 
L 299.54444 238.447335 
L 303.027858 236.966144 
L 303.463285 236.900313 
L 304.33414 236.340752 
L 305.204994 236.110345 
L 306.511276 235.583699 
L 308.252985 235.353292 
L 309.123839 234.892476 
L 309.559266 234.497492 
L 309.994694 233.707524 
L 311.736403 233.213793 
L 313.042684 232.522571 
L 313.913539 232.226332 
L 314.784393 231.765517 
L 317.396957 230.67931 
L 318.267811 230.481818 
L 319.138666 230.021003 
L 319.574093 229.823511 
L 320.00952 229.75768 
L 322.186656 228.671473 
L 323.057511 228.111912 
L 324.363792 227.848589 
L 326.540929 227.289028 
L 326.976356 226.926959 
L 327.84721 226.630721 
L 330.024346 225.742006 
L 330.459774 225.412853 
L 330.895201 225.248276 
L 331.766055 224.754545 
L 333.507764 224.194984 
L 334.378619 223.635423 
L 334.814046 223.174608 
L 335.249473 222.911285 
L 335.684901 222.812539 
L 336.555755 222.088401 
L 336.991182 222.022571 
L 337.426609 221.298433 
L 337.862037 221.10094 
L 338.297464 220.738871 
L 338.732891 220.673041 
L 339.603746 220.11348 
L 340.4746 219.817241 
L 340.910027 219.488088 
L 341.345455 219.323511 
L 343.087163 218.138558 
L 344.393445 217.447335 
L 345.2643 217.216928 
L 346.135154 216.723197 
L 346.570581 215.966144 
L 347.441436 215.307837 
L 347.876863 215.209091 
L 350.489426 213.925392 
L 351.360281 213.563323 
L 352.231135 212.937931 
L 353.10199 212.049216 
L 357.020835 208.955172 
L 357.456262 208.593103 
L 358.327117 208.296865 
L 359.197971 207.704389 
L 360.504253 207.013166 
L 360.93968 206.947335 
L 362.245962 206.223197 
L 363.116816 205.663636 
L 367.471089 204.017868 
L 367.906516 203.655799 
L 369.648225 202.964577 
L 370.083652 202.832915 
L 370.954506 202.240439 
L 371.825361 201.87837 
L 372.696215 201.252978 
L 373.56707 199.475549 
L 374.437924 198.422257 
L 375.744206 197.731034 
L 376.61506 197.368966 
L 377.050488 197.303135 
L 377.485915 197.039812 
L 379.663051 196.315674 
L 380.098478 196.118182 
L 380.969333 195.525705 
L 382.275615 194.966144 
L 383.146469 194.472414 
L 384.017323 193.945768 
L 384.452751 193.64953 
L 384.888178 193.155799 
L 386.19446 192.398746 
L 386.629887 192.234169 
L 387.500741 191.707524 
L 389.24245 190.752978 
L 389.677877 190.654232 
L 390.113305 190.292163 
L 393.161295 189.271787 
L 393.596723 188.942633 
L 394.467577 188.67931 
L 395.338432 188.317241 
L 395.773859 187.955172 
L 397.515568 187.329781 
L 398.386422 186.704389 
L 399.257277 186.34232 
L 400.128131 185.651097 
L 400.998986 185.387774 
L 401.434413 184.99279 
L 401.86984 184.926959 
L 402.740694 184.235737 
L 403.611549 183.774922 
L 404.046976 183.577429 
L 404.482403 183.116614 
L 407.530394 181.865831 
L 408.401249 181.470846 
L 409.70753 181.042947 
L 410.578385 180.911285 
L 411.013812 180.713793 
L 411.449239 180.647962 
L 412.320094 180.252978 
L 412.755521 180.220063 
L 414.49723 179.561755 
L 415.803512 178.60721 
L 416.238939 178.442633 
L 417.109793 177.948903 
L 417.54522 177.817241 
L 420.157784 176.33605 
L 420.593211 176.237304 
L 421.899493 175.447335 
L 423.205774 174.98652 
L 424.076629 174.690282 
L 425.818338 174.097806 
L 426.689192 173.801567 
L 428.430901 173.439498 
L 428.866329 173.242006 
L 429.737183 173.011599 
L 430.17261 172.814107 
L 430.608037 172.748276 
L 431.043465 172.517868 
L 431.914319 172.353292 
L 433.220601 171.859561 
L 434.091455 171.760815 
L 435.397737 171.464577 
L 437.574873 171.069592 
L 448.895981 167.646395 
L 449.331409 167.18558 
L 451.943972 166.099373 
L 453.685681 165.506897 
L 454.121108 165.243574 
L 455.42739 164.848589 
L 456.298244 164.618182 
L 456.733671 164.321944 
L 457.169099 164.223197 
L 457.604526 163.828213 
L 458.910808 163.56489 
L 459.781662 163.136991 
L 460.217089 162.610345 
L 461.958798 162.182445 
L 465.006789 161.524138 
L 465.442216 161.524138 
L 465.877643 161.326646 
L 467.619352 160.997492 
L 468.05478 160.8 
L 469.796488 160.470846 
L 470.667343 160.108777 
L 471.538197 159.944201 
L 473.715334 159.384639 
L 475.457043 158.825078 
L 475.89247 158.726332 
L 476.327897 158.495925 
L 477.198751 158.265517 
L 478.069606 157.903448 
L 478.94046 157.574295 
L 479.375888 157.278056 
L 480.246742 157.014734 
L 483.294733 155.862696 
L 485.036442 155.632288 
L 488.51986 154.348589 
L 488.955287 154.019436 
L 489.390714 153.92069 
L 489.826141 153.690282 
L 490.261568 153.657367 
L 495.051268 151.912853 
L 497.228404 151.320376 
L 498.099259 150.892476 
L 499.40554 150.596238 
L 501.147249 149.147962 
L 502.888958 148.390909 
L 503.759813 147.995925 
L 506.372376 146.975549 
L 506.807803 146.67931 
L 508.98494 145.955172 
L 510.291221 145.198119 
L 510.726648 145.099373 
L 512.468357 144.111912 
L 514.210066 143.321944 
L 514.645494 142.99279 
L 515.516348 142.696552 
L 517.693484 141.577429 
L 518.999766 141.116614 
L 520.741475 140.392476 
L 522.047757 139.898746 
L 522.483184 139.734169 
L 523.354038 139.602508 
L 523.789465 139.30627 
L 525.531174 138.944201 
L 526.402029 138.582132 
L 528.143738 137.759248 
L 534.239719 135.060188 
L 535.546001 134.632288 
L 535.981428 134.33605 
L 536.852282 134.237304 
L 537.28771 133.941066 
L 538.158564 133.776489 
L 539.029419 133.348589 
L 539.464846 133.151097 
L 540.3357 132.92069 
L 541.206555 132.657367 
L 542.512837 132.163636 
L 543.819118 131.735737 
L 545.1254 131.439498 
L 546.867109 130.715361 
L 547.737963 130.22163 
L 549.479672 129.332915 
L 550.350527 129.135423 
L 550.785954 128.8721 
L 551.221381 128.773354 
L 552.527663 128.016301 
L 553.398517 127.654232 
L 562.977917 123.934796 
L 564.719625 123.111912 
L 569.073898 121.400313 
L 569.944752 120.972414 
L 570.380179 120.873668 
L 570.815607 120.64326 
L 572.557316 120.14953 
L 574.299025 118.701254 
L 574.734452 118.569592 
L 575.169879 118.30627 
L 576.476161 117.944201 
L 576.911588 117.615047 
L 577.347015 117.516301 
L 578.653297 116.726332 
L 579.088724 116.430094 
L 580.395006 115.936364 
L 580.830433 115.705956 
L 582.136715 115.409718 
L 584.313851 114.652665 
L 585.184705 114.356426 
L 586.490987 113.698119 
L 587.361842 113.270219 
L 588.232696 113.039812 
L 589.538978 112.41442 
L 593.457823 110.933229 
L 594.764105 110.110345 
L 595.199532 110.011599 
L 596.070386 109.583699 
L 596.941241 109.254545 
L 597.376668 108.859561 
L 598.247522 108.497492 
L 599.553804 108.036677 
L 599.989231 107.674608 
L 600.424659 107.641693 
L 601.295513 107.37837 
L 602.166368 107.082132 
L 602.601795 106.884639 
L 603.037222 106.818809 
L 604.343504 106.325078 
L 605.649785 105.831348 
L 607.391494 105.041379 
L 608.262349 104.810972 
L 608.697776 104.547649 
L 609.568631 104.317241 
L 610.874912 103.560188 
L 611.310339 103.527273 
L 612.616621 103.099373 
L 613.487476 103.033542 
L 613.922903 102.803135 
L 614.793757 102.572727 
L 615.229185 102.34232 
L 617.406321 101.91442 
L 618.277175 101.749843 
L 619.583457 101.256113 
L 620.889739 100.959875 
L 622.19602 100.268652 
L 622.631448 99.873668 
L 623.937729 99.083699 
L 624.373156 98.754545 
L 625.679438 98.326646 
L 626.550293 98.063323 
L 626.98572 97.832915 
L 627.421147 97.734169 
L 627.856574 97.3721 
L 630.469138 96.252978 
L 632.210847 95.792163 
L 633.081701 95.397179 
L 633.517128 95.166771 
L 634.387983 94.903448 
L 634.82341 94.640125 
L 635.694265 94.475549 
L 639.177682 92.961442 
L 639.61311 92.895611 
L 640.919391 92.039812 
L 641.354819 91.973981 
L 643.096528 91.282759 
L 644.838236 90.854859 
L 645.273664 90.789028 
L 645.709091 90.591536 
L 646.144518 90.558621 
L 647.015373 90.262382 
L 647.4508 90.229467 
L 648.757082 89.702821 
L 650.49879 89.209091 
L 651.369645 88.550784 
L 653.111354 87.563323 
L 654.417636 87.102508 
L 657.901053 85.423824 
L 658.336481 85.193417 
L 658.771908 84.798433 
L 660.949044 84.205956 
L 662.255326 83.61348 
L 663.12618 83.383072 
L 663.561607 83.152665 
L 663.997035 82.790596 
L 665.738744 82.329781 
L 666.174171 82.000627 
L 671.834725 79.926959 
L 672.705579 79.762382 
L 674.882716 79.07116 
L 675.75357 78.709091 
L 676.624425 78.379937 
L 677.495279 78.14953 
L 677.930706 77.952038 
L 678.366133 77.952038 
L 679.236988 77.589969 
L 680.107842 77.063323 
L 683.155833 76.042947 
L 684.897542 75.45047 
L 686.203824 75.154232 
L 687.510105 74.726332 
L 687.945533 74.627586 
L 688.38096 74.331348 
L 689.251814 74.133856 
L 690.993523 73.640125 
L 691.42895 73.60721 
L 692.299805 73.212226 
L 695.347796 72.455172 
L 696.21865 72.093103 
L 700.572922 71.105643 
L 701.879204 70.41442 
L 703.185486 70.019436 
L 707.539758 68.406583 
L 707.975185 68.077429 
L 709.281467 67.781191 
L 710.152321 67.517868 
L 711.023176 67.089969 
L 711.458603 66.7279 
L 712.329458 66.464577 
L 712.764885 66.201254 
L 713.635739 66.102508 
L 716.68373 65.246708 
L 717.990012 64.983386 
L 720.602575 64.127586 
L 722.344284 63.304702 
L 727.133984 61.527273 
L 728.004838 61.395611 
L 728.875693 61.231034 
L 729.31112 61.231034 
L 731.052829 60.671473 
L 731.488256 60.605643 
L 732.35911 60.243574 
L 733.229965 60.013166 
L 735.842528 59.289028 
L 736.713383 59.058621 
L 737.14881 58.959875 
L 737.584237 58.696552 
L 738.455092 58.531975 
L 739.325946 58.433229 
L 739.761373 58.202821 
L 740.196801 58.169906 
L 741.067655 57.610345 
L 742.809364 57.215361 
L 743.680218 56.820376 
L 744.551073 56.524138 
L 745.421927 56.29373 
L 746.292782 55.898746 
L 747.163636 55.8 
L 747.163636 55.8 
" clip-path="url(#p842970c1f9)" style="fill: none; stroke: #1f77b4; stroke-width: 1.5; stroke-linecap: square"/>
   </g>
   <g id="line2d_38">
    <path d="M 138.871791 307.8 
L 142.790636 307.701254 
L 146.274054 307.536677 
L 148.015763 307.536677 
L 148.45119 307.405016 
L 150.628326 307.30627 
L 153.24089 307.010031 
L 155.853453 306.911285 
L 156.724307 306.812539 
L 159.772298 306.680878 
L 162.820289 306.582132 
L 164.997425 306.516301 
L 170.657979 306.417555 
L 172.835115 306.351724 
L 176.75396 306.252978 
L 178.495669 306.220063 
L 182.849941 306.121317 
L 184.59165 305.95674 
L 186.333359 305.923824 
L 188.945923 305.825078 
L 190.687632 305.792163 
L 192.864768 305.726332 
L 194.606477 305.561755 
L 198.525322 305.463009 
L 199.396176 305.397179 
L 201.137885 305.298433 
L 203.750449 305.199687 
L 205.492158 305.10094 
L 213.329848 304.60721 
L 216.377838 304.508464 
L 217.68412 304.376803 
L 219.861256 304.278056 
L 224.215529 304.047649 
L 228.569801 303.981818 
L 230.31151 303.784326 
L 232.053219 303.68558 
L 236.842918 303.224765 
L 239.890909 302.862696 
L 241.197191 302.796865 
L 244.680609 302.33605 
L 247.293172 302.270219 
L 248.599454 302.138558 
L 249.905735 302.039812 
L 262.097698 301.085266 
L 262.968552 300.92069 
L 265.581116 300.821944 
L 272.547952 300.394044 
L 275.595942 300.295298 
L 277.337651 300.097806 
L 279.514787 299.99906 
L 282.127351 299.900313 
L 284.304487 299.801567 
L 286.046196 299.768652 
L 288.223332 299.702821 
L 289.094187 299.57116 
L 295.190168 299.472414 
L 296.061022 299.373668 
L 301.286149 299.274922 
L 305.204994 299.077429 
L 308.252985 298.978683 
L 309.994694 298.781191 
L 313.042684 298.682445 
L 313.913539 298.517868 
L 316.090675 298.452038 
L 320.444947 298.386207 
L 322.186656 298.22163 
L 323.928365 298.188715 
L 325.234647 298.089969 
L 326.976356 297.925392 
L 331.330628 297.694984 
L 335.684901 297.596238 
L 339.603746 297.398746 
L 340.910027 297.365831 
L 341.780882 297.234169 
L 343.958018 297.135423 
L 344.828872 297.069592 
L 345.699727 297.003762 
L 346.570581 296.937931 
L 350.489426 296.8721 
L 351.795708 296.773354 
L 363.552243 295.983386 
L 365.72938 295.884639 
L 367.906516 295.818809 
L 374.002497 295.720063 
L 374.873352 295.588401 
L 380.969333 295.489655 
L 385.323605 295.259248 
L 386.19446 295.226332 
L 387.065314 295.127586 
L 389.24245 295.02884 
L 391.419586 294.963009 
L 393.596723 294.864263 
L 395.773859 294.798433 
L 399.692704 294.699687 
L 402.305267 294.60094 
L 408.401249 294.502194 
L 413.190948 294.238871 
L 414.932657 294.173041 
L 416.238939 294.074295 
L 422.33492 293.975549 
L 424.947483 293.876803 
L 432.785174 293.778056 
L 434.526883 293.745141 
L 439.752009 293.67931 
L 440.622864 293.61348 
L 446.718845 293.514734 
L 448.460554 293.481818 
L 459.781662 293.383072 
L 462.394226 293.284326 
L 480.682169 293.18558 
L 482.859306 293.119749 
L 494.180414 293.053918 
L 495.051268 292.988088 
L 497.228404 292.922257 
L 498.534686 292.790596 
L 501.147249 292.69185 
L 504.19524 292.560188 
L 508.114085 292.461442 
L 510.291221 292.395611 
L 513.339212 292.296865 
L 516.82263 292.132288 
L 518.999766 292.033542 
L 520.741475 292.000627 
L 524.66032 291.901881 
L 526.402029 291.868966 
L 532.062583 291.770219 
L 533.804292 291.737304 
L 535.981428 291.638558 
L 538.593991 291.539812 
L 541.641982 291.473981 
L 542.512837 291.40815 
L 552.96309 291.309404 
L 558.623644 290.980251 
L 560.80078 290.91442 
L 561.671635 290.815674 
L 562.542489 290.749843 
L 566.025907 290.651097 
L 568.638471 290.552351 
L 572.992743 290.453605 
L 575.169879 290.223197 
L 579.524151 290.124451 
L 580.395006 290.025705 
L 584.749278 289.926959 
L 586.926414 289.861129 
L 591.716114 289.828213 
L 592.586968 289.729467 
L 597.376668 289.630721 
L 598.247522 289.56489 
L 607.826922 289.466144 
L 610.439485 289.367398 
L 616.970893 289.268652 
L 618.712602 289.235737 
L 622.631448 289.169906 
L 623.502302 289.07116 
L 629.162856 288.972414 
L 631.339992 288.906583 
L 639.177682 288.807837 
L 640.483964 288.709091 
L 641.790246 288.610345 
L 643.096528 288.511599 
L 649.627936 288.412853 
L 652.240499 288.314107 
L 663.997035 288.215361 
L 667.91588 288.017868 
L 673.141007 287.919122 
L 674.011861 287.853292 
L 680.54327 287.787461 
L 681.414124 287.72163 
L 686.203824 287.622884 
L 687.945533 287.589969 
L 694.041514 287.491223 
L 696.654077 287.392476 
L 704.05634 287.29373 
L 705.798049 287.260815 
L 709.716894 287.162069 
L 713.200312 286.997492 
L 717.990012 286.898746 
L 721.038002 286.767085 
L 724.956847 286.668339 
L 725.827702 286.602508 
L 734.536247 286.503762 
L 736.713383 286.437931 
L 739.325946 286.339185 
L 741.93851 286.240439 
L 747.163636 286.174608 
L 747.163636 286.174608 
" clip-path="url(#p842970c1f9)" style="fill: none; stroke: #ff7f0e; stroke-width: 1.5; stroke-linecap: square"/>
   </g>
   <g id="patch_3">
    <path d="M 108 320.4 
L 108 43.2 
" style="fill: none; stroke: #a9a9a9; stroke-width: 0.8; stroke-linejoin: miter; stroke-linecap: square"/>
   </g>
   <g id="patch_4">
    <path d="M 777.6 320.4 
L 777.6 43.2 
" style="fill: none"/>
   </g>
   <g id="patch_5">
    <path d="M 108 320.4 
L 777.6 320.4 
" style="fill: none; stroke: #a9a9a9; stroke-width: 0.8; stroke-linejoin: miter; stroke-linecap: square"/>
   </g>
   <g id="patch_6">
    <path d="M 108 43.2 
L 777.6 43.2 
" style="fill: none"/>
   </g>
   <g id="text_19">
    <!-- get_subscribe history -->
    <g style="fill: #a9a9a9" transform="translate(378.6075 37.2) scale(0.12 -0.12)">
     <defs>
      <path id="DejaVuSans-67" d="M 2906 1791 
Q 2906 2416 2648 2759 
Q 2391 3103 1925 3103 
Q 1463 3103 1205 2759 
Q 947 2416 947 1791 
Q 947 1169 1205 825 
Q 1463 481 1925 481 
Q 2391 481 2648 825 
Q 2906 1169 2906 1791 
z
M 3481 434 
Q 3481 -459 3084 -895 
Q 2688 -1331 1869 -1331 
Q 1566 -1331 1297 -1286 
Q 1028 -1241 775 -1147 
L 775 -588 
Q 1028 -725 1275 -790 
Q 1522 -856 1778 -856 
Q 2344 -856 2625 -561 
Q 2906 -266 2906 331 
L 2906 616 
Q 2728 306 2450 153 
Q 2172 0 1784 0 
Q 1141 0 747 490 
Q 353 981 353 1791 
Q 353 2603 747 3093 
Q 1141 3584 1784 3584 
Q 2172 3584 2450 3431 
Q 2728 3278 2906 2969 
L 2906 3500 
L 3481 3500 
L 3481 434 
z
" transform="scale(0.015625)"/>
      <path id="DejaVuSans-65" d="M 3597 1894 
L 3597 1613 
L 953 1613 
Q 991 1019 1311 708 
Q 1631 397 2203 397 
Q 2534 397 2845 478 
Q 3156 559 3463 722 
L 3463 178 
Q 3153 47 2828 -22 
Q 2503 -91 2169 -91 
Q 1331 -91 842 396 
Q 353 884 353 1716 
Q 353 2575 817 3079 
Q 1281 3584 2069 3584 
Q 2775 3584 3186 3129 
Q 3597 2675 3597 1894 
z
M 3022 2063 
Q 3016 2534 2758 2815 
Q 2500 3097 2075 3097 
Q 1594 3097 1305 2825 
Q 1016 2553 972 2059 
L 3022 2063 
z
" transform="scale(0.015625)"/>
      <path id="DejaVuSans-74" d="M 1172 4494 
L 1172 3500 
L 2356 3500 
L 2356 3053 
L 1172 3053 
L 1172 1153 
Q 1172 725 1289 603 
Q 1406 481 1766 481 
L 2356 481 
L 2356 0 
L 1766 0 
Q 1100 0 847 248 
Q 594 497 594 1153 
L 594 3053 
L 172 3053 
L 172 3500 
L 594 3500 
L 594 4494 
L 1172 4494 
z
" transform="scale(0.015625)"/>
      <path id="DejaVuSans-5f" d="M 3263 -1063 
L 3263 -1509 
L -63 -1509 
L -63 -1063 
L 3263 -1063 
z
" transform="scale(0.015625)"/>
      <path id="DejaVuSans-73" d="M 2834 3397 
L 2834 2853 
Q 2591 2978 2328 3040 
Q 2066 3103 1784 3103 
Q 1356 3103 1142 2972 
Q 928 2841 928 2578 
Q 928 2378 1081 2264 
Q 1234 2150 1697 2047 
L 1894 2003 
Q 2506 1872 2764 1633 
Q 3022 1394 3022 966 
Q 3022 478 2636 193 
Q 2250 -91 1575 -91 
Q 1294 -91 989 -36 
Q 684 19 347 128 
L 347 722 
Q 666 556 975 473 
Q 1284 391 1588 391 
Q 1994 391 2212 530 
Q 2431 669 2431 922 
Q 2431 1156 2273 1281 
Q 2116 1406 1581 1522 
L 1381 1569 
Q 847 1681 609 1914 
Q 372 2147 372 2553 
Q 372 3047 722 3315 
Q 1072 3584 1716 3584 
Q 2034 3584 2315 3537 
Q 2597 3491 2834 3397 
z
" transform="scale(0.015625)"/>
      <path id="DejaVuSans-75" d="M 544 1381 
L 544 3500 
L 1119 3500 
L 1119 1403 
Q 1119 906 1312 657 
Q 1506 409 1894 409 
Q 2359 409 2629 706 
Q 2900 1003 2900 1516 
L 2900 3500 
L 3475 3500 
L 3475 0 
L 2900 0 
L 2900 538 
Q 2691 219 2414 64 
Q 2138 -91 1772 -91 
Q 1169 -91 856 284 
Q 544 659 544 1381 
z
M 1991 3584 
L 1991 3584 
z
" transform="scale(0.015625)"/>
      <path id="DejaVuSans-62" d="M 3116 1747 
Q 3116 2381 2855 2742 
Q 2594 3103 2138 3103 
Q 1681 3103 1420 2742 
Q 1159 2381 1159 1747 
Q 1159 1113 1420 752 
Q 1681 391 2138 391 
Q 2594 391 2855 752 
Q 3116 1113 3116 1747 
z
M 1159 2969 
Q 1341 3281 1617 3432 
Q 1894 3584 2278 3584 
Q 2916 3584 3314 3078 
Q 3713 2572 3713 1747 
Q 3713 922 3314 415 
Q 2916 -91 2278 -91 
Q 1894 -91 1617 61 
Q 1341 213 1159 525 
L 1159 0 
L 581 0 
L 581 4863 
L 1159 4863 
L 1159 2969 
z
" transform="scale(0.015625)"/>
      <path id="DejaVuSans-63" d="M 3122 3366 
L 3122 2828 
Q 2878 2963 2633 3030 
Q 2388 3097 2138 3097 
Q 1578 3097 1268 2742 
Q 959 2388 959 1747 
Q 959 1106 1268 751 
Q 1578 397 2138 397 
Q 2388 397 2633 464 
Q 2878 531 3122 666 
L 3122 134 
Q 2881 22 2623 -34 
Q 2366 -91 2075 -91 
Q 1284 -91 818 406 
Q 353 903 353 1747 
Q 353 2603 823 3093 
Q 1294 3584 2113 3584 
Q 2378 3584 2631 3529 
Q 2884 3475 3122 3366 
z
" transform="scale(0.015625)"/>
      <path id="DejaVuSans-72" d="M 2631 2963 
Q 2534 3019 2420 3045 
Q 2306 3072 2169 3072 
Q 1681 3072 1420 2755 
Q 1159 2438 1159 1844 
L 1159 0 
L 581 0 
L 581 3500 
L 1159 3500 
L 1159 2956 
Q 1341 3275 1631 3429 
Q 1922 3584 2338 3584 
Q 2397 3584 2469 3576 
Q 2541 3569 2628 3553 
L 2631 2963 
z
" transform="scale(0.015625)"/>
      <path id="DejaVuSans-69" d="M 603 3500 
L 1178 3500 
L 1178 0 
L 603 0 
L 603 3500 
z
M 603 4863 
L 1178 4863 
L 1178 4134 
L 603 4134 
L 603 4863 
z
" transform="scale(0.015625)"/>
      <path id="DejaVuSans-20" transform="scale(0.015625)"/>
      <path id="DejaVuSans-68" d="M 3513 2113 
L 3513 0 
L 2938 0 
L 2938 2094 
Q 2938 2591 2744 2837 
Q 2550 3084 2163 3084 
Q 1697 3084 1428 2787 
Q 1159 2491 1159 1978 
L 1159 0 
L 581 0 
L 581 4863 
L 1159 4863 
L 1159 2956 
Q 1366 3272 1645 3428 
Q 1925 3584 2291 3584 
Q 2894 3584 3203 3211 
Q 3513 2838 3513 2113 
z
" transform="scale(0.015625)"/>
      <path id="DejaVuSans-6f" d="M 1959 3097 
Q 1497 3097 1228 2736 
Q 959 2375 959 1747 
Q 959 1119 1226 758 
Q 1494 397 1959 397 
Q 2419 397 2687 759 
Q 2956 1122 2956 1747 
Q 2956 2369 2687 2733 
Q 2419 3097 1959 3097 
z
M 1959 3584 
Q 2709 3584 3137 3096 
Q 3566 2609 3566 1747 
Q 3566 888 3137 398 
Q 2709 -91 1959 -91 
Q 1206 -91 779 398 
Q 353 888 353 1747 
Q 353 2609 779 3096 
Q 1206 3584 1959 3584 
z
" transform="scale(0.015625)"/>
      <path id="DejaVuSans-79" d="M 2059 -325 
Q 1816 -950 1584 -1140 
Q 1353 -1331 966 -1331 
L 506 -1331 
L 506 -850 
L 844 -850 
Q 1081 -850 1212 -737 
Q 1344 -625 1503 -206 
L 1606 56 
L 191 3500 
L 800 3500 
L 1894 763 
L 2988 3500 
L 3597 3500 
L 2059 -325 
z
" transform="scale(0.015625)"/>
     </defs>
     <use xlink:href="#DejaVuSans-67"/>
     <use xlink:href="#DejaVuSans-65" transform="translate(63.476562 0)"/>
     <use xlink:href="#DejaVuSans-74" transform="translate(125 0)"/>
     <use xlink:href="#DejaVuSans-5f" transform="translate(164.208984 0)"/>
     <use xlink:href="#DejaVuSans-73" transform="translate(214.208984 0)"/>
     <use xlink:href="#DejaVuSans-75" transform="translate(266.308594 0)"/>
     <use xlink:href="#DejaVuSans-62" transform="translate(329.6875 0)"/>
     <use xlink:href="#DejaVuSans-73" transform="translate(393.164062 0)"/>
     <use xlink:href="#DejaVuSans-63" transform="translate(445.263672 0)"/>
     <use xlink:href="#DejaVuSans-72" transform="translate(500.244141 0)"/>
     <use xlink:href="#DejaVuSans-69" transform="translate(541.357422 0)"/>
     <use xlink:href="#DejaVuSans-62" transform="translate(569.140625 0)"/>
     <use xlink:href="#DejaVuSans-65" transform="translate(632.617188 0)"/>
     <use xlink:href="#DejaVuSans-20" transform="translate(694.140625 0)"/>
     <use xlink:href="#DejaVuSans-68" transform="translate(725.927734 0)"/>
     <use xlink:href="#DejaVuSans-69" transform="translate(789.306641 0)"/>
     <use xlink:href="#DejaVuSans-73" transform="translate(817.089844 0)"/>
     <use xlink:href="#DejaVuSans-74" transform="translate(869.189453 0)"/>
     <use xlink:href="#DejaVuSans-6f" transform="translate(908.398438 0)"/>
     <use xlink:href="#DejaVuSans-72" transform="translate(969.580078 0)"/>
     <use xlink:href="#DejaVuSans-79" transform="translate(1010.693359 0)"/>
    </g>
   </g>
   <g id="legend_1">
    <g id="line2d_39">
     <path d="M 815.08 328.498438 
L 825.08 328.498438 
L 835.08 328.498438 
" style="fill: none; stroke: #1f77b4; stroke-width: 1.5; stroke-linecap: square"/>
    </g>
    <g id="text_20">
     <!-- star -->
     <g style="fill: #a9a9a9" transform="translate(843.08 331.998438) scale(0.1 -0.1)">
      <defs>
       <path id="DejaVuSans-61" d="M 2194 1759 
Q 1497 1759 1228 1600 
Q 959 1441 959 1056 
Q 959 750 1161 570 
Q 1363 391 1709 391 
Q 2188 391 2477 730 
Q 2766 1069 2766 1631 
L 2766 1759 
L 2194 1759 
z
M 3341 1997 
L 3341 0 
L 2766 0 
L 2766 531 
Q 2569 213 2275 61 
Q 1981 -91 1556 -91 
Q 1019 -91 701 211 
Q 384 513 384 1019 
Q 384 1609 779 1909 
Q 1175 2209 1959 2209 
L 2766 2209 
L 2766 2266 
Q 2766 2663 2505 2880 
Q 2244 3097 1772 3097 
Q 1472 3097 1187 3025 
Q 903 2953 641 2809 
L 641 3341 
Q 956 3463 1253 3523 
Q 1550 3584 1831 3584 
Q 2591 3584 2966 3190 
Q 3341 2797 3341 1997 
z
" transform="scale(0.015625)"/>
      </defs>
      <use xlink:href="#DejaVuSans-73"/>
      <use xlink:href="#DejaVuSans-74" transform="translate(52.099609 0)"/>
      <use xlink:href="#DejaVuSans-61" transform="translate(91.308594 0)"/>
      <use xlink:href="#DejaVuSans-72" transform="translate(152.587891 0)"/>
     </g>
    </g>
    <g id="line2d_40">
     <path d="M 815.08 343.176562 
L 825.08 343.176562 
L 835.08 343.176562 
" style="fill: none; stroke: #ff7f0e; stroke-width: 1.5; stroke-linecap: square"/>
    </g>
    <g id="text_21">
     <!-- fork -->
     <g style="fill: #a9a9a9" transform="translate(843.08 346.676562) scale(0.1 -0.1)">
      <defs>
       <path id="DejaVuSans-66" d="M 2375 4863 
L 2375 4384 
L 1825 4384 
Q 1516 4384 1395 4259 
Q 1275 4134 1275 3809 
L 1275 3500 
L 2222 3500 
L 2222 3053 
L 1275 3053 
L 1275 0 
L 697 0 
L 697 3053 
L 147 3053 
L 147 3500 
L 697 3500 
L 697 3744 
Q 697 4328 969 4595 
Q 1241 4863 1831 4863 
L 2375 4863 
z
" transform="scale(0.015625)"/>
       <path id="DejaVuSans-6b" d="M 581 4863 
L 1159 4863 
L 1159 1991 
L 2875 3500 
L 3609 3500 
L 1753 1863 
L 3688 0 
L 2938 0 
L 1159 1709 
L 1159 0 
L 581 0 
L 581 4863 
z
" transform="scale(0.015625)"/>
      </defs>
      <use xlink:href="#DejaVuSans-66"/>
      <use xlink:href="#DejaVuSans-6f" transform="translate(35.205078 0)"/>
      <use xlink:href="#DejaVuSans-72" transform="translate(96.386719 0)"/>
      <use xlink:href="#DejaVuSans-6b" transform="translate(137.5 0)"/>
     </g>
    </g>
   </g>
  </g>
 </g>
 <defs>
  <clipPath id="p842970c1f9">
   <rect x="108" y="43.2" width="669.6" height="277.2"/>
  </clipPath>
 </defs>
</svg>
