<?xml version="1.0" encoding="utf-8" standalone="no"?>
<!DOCTYPE svg PUBLIC "-//W3C//DTD SVG 1.1//EN"
  "http://www.w3.org/Graphics/SVG/1.1/DTD/svg11.dtd">
<svg xmlns:xlink="http://www.w3.org/1999/xlink" width="864pt" height="360pt" viewBox="0 0 864 360" xmlns="http://www.w3.org/2000/svg" version="1.1">
 <metadata>
  <rdf:RDF xmlns:dc="http://purl.org/dc/elements/1.1/" xmlns:cc="http://creativecommons.org/ns#" xmlns:rdf="http://www.w3.org/1999/02/22-rdf-syntax-ns#">
   <cc:Work>
    <dc:type rdf:resource="http://purl.org/dc/dcmitype/StillImage"/>
    <dc:date>2025-05-23T20:06:56.900196</dc:date>
    <dc:format>image/svg+xml</dc:format>
    <dc:creator>
     <cc:Agent>
      <dc:title>Matplotlib v3.10.3, https://matplotlib.org/</dc:title>
     </cc:Agent>
    </dc:creator>
   </cc:Work>
  </rdf:RDF>
 </metadata>
 <defs>
  <style type="text/css">*{stroke-linejoin: round; stroke-linecap: butt}</style>
 </defs>
 <g id="figure_1">
  <g id="patch_1">
   <path d="M 0 360 
L 864 360 
L 864 0 
L 0 0 
L 0 360 
z
" style="fill: none; opacity: 0"/>
  </g>
  <g id="axes_1">
   <g id="patch_2">
    <path d="M 108 320.4 
L 777.6 320.4 
L 777.6 43.2 
L 108 43.2 
L 108 320.4 
z
" style="fill: none; opacity: 0"/>
   </g>
   <g id="matplotlib.axis_1">
    <g id="xtick_1">
     <g id="line2d_1">
      <path d="M 128.428696 320.4 
L 128.428696 43.2 
" clip-path="url(#pe6e5cda1ea)" style="fill: none; stroke-dasharray: 5.12,1.28,0.8,1.28; stroke-dashoffset: 0; stroke: #b0b0b0; stroke-width: 0.8"/>
     </g>
     <g id="line2d_2">
      <defs>
       <path id="md263deed07" d="M 0 0 
L 0 3.5 
" style="stroke: #a9a9a9; stroke-width: 0.8"/>
      </defs>
      <g>
       <use xlink:href="#md263deed07" x="128.428696" y="320.4" style="fill: #a9a9a9; stroke: #a9a9a9; stroke-width: 0.8"/>
      </g>
     </g>
     <g id="text_1">
      <!-- 2021-07 -->
      <g style="fill: #a9a9a9" transform="translate(107.53729 334.998438) scale(0.1 -0.1)">
       <defs>
        <path id="DejaVuSans-32" d="M 1228 531 
L 3431 531 
L 3431 0 
L 469 0 
L 469 531 
Q 828 903 1448 1529 
Q 2069 2156 2228 2338 
Q 2531 2678 2651 2914 
Q 2772 3150 2772 3378 
Q 2772 3750 2511 3984 
Q 2250 4219 1831 4219 
Q 1534 4219 1204 4116 
Q 875 4013 500 3803 
L 500 4441 
Q 881 4594 1212 4672 
Q 1544 4750 1819 4750 
Q 2544 4750 2975 4387 
Q 3406 4025 3406 3419 
Q 3406 3131 3298 2873 
Q 3191 2616 2906 2266 
Q 2828 2175 2409 1742 
Q 1991 1309 1228 531 
z
" transform="scale(0.015625)"/>
        <path id="DejaVuSans-30" d="M 2034 4250 
Q 1547 4250 1301 3770 
Q 1056 3291 1056 2328 
Q 1056 1369 1301 889 
Q 1547 409 2034 409 
Q 2525 409 2770 889 
Q 3016 1369 3016 2328 
Q 3016 3291 2770 3770 
Q 2525 4250 2034 4250 
z
M 2034 4750 
Q 2819 4750 3233 4129 
Q 3647 3509 3647 2328 
Q 3647 1150 3233 529 
Q 2819 -91 2034 -91 
Q 1250 -91 836 529 
Q 422 1150 422 2328 
Q 422 3509 836 4129 
Q 1250 4750 2034 4750 
z
" transform="scale(0.015625)"/>
        <path id="DejaVuSans-31" d="M 794 531 
L 1825 531 
L 1825 4091 
L 703 3866 
L 703 4441 
L 1819 4666 
L 2450 4666 
L 2450 531 
L 3481 531 
L 3481 0 
L 794 0 
L 794 531 
z
" transform="scale(0.015625)"/>
        <path id="DejaVuSans-2d" d="M 313 2009 
L 1997 2009 
L 1997 1497 
L 313 1497 
L 313 2009 
z
" transform="scale(0.015625)"/>
        <path id="DejaVuSans-37" d="M 525 4666 
L 3525 4666 
L 3525 4397 
L 1831 0 
L 1172 0 
L 2766 4134 
L 525 4134 
L 525 4666 
z
" transform="scale(0.015625)"/>
       </defs>
       <use xlink:href="#DejaVuSans-32"/>
       <use xlink:href="#DejaVuSans-30" transform="translate(63.623047 0)"/>
       <use xlink:href="#DejaVuSans-32" transform="translate(127.246094 0)"/>
       <use xlink:href="#DejaVuSans-31" transform="translate(190.869141 0)"/>
       <use xlink:href="#DejaVuSans-2d" transform="translate(254.492188 0)"/>
       <use xlink:href="#DejaVuSans-30" transform="translate(290.576172 0)"/>
       <use xlink:href="#DejaVuSans-37" transform="translate(354.199219 0)"/>
      </g>
     </g>
    </g>
    <g id="xtick_2">
     <g id="line2d_3">
      <path d="M 208.490038 320.4 
L 208.490038 43.2 
" clip-path="url(#pe6e5cda1ea)" style="fill: none; stroke-dasharray: 5.12,1.28,0.8,1.28; stroke-dashoffset: 0; stroke: #b0b0b0; stroke-width: 0.8"/>
     </g>
     <g id="line2d_4">
      <g>
       <use xlink:href="#md263deed07" x="208.490038" y="320.4" style="fill: #a9a9a9; stroke: #a9a9a9; stroke-width: 0.8"/>
      </g>
     </g>
     <g id="text_2">
      <!-- 2022-01 -->
      <g style="fill: #a9a9a9" transform="translate(187.598632 334.998438) scale(0.1 -0.1)">
       <use xlink:href="#DejaVuSans-32"/>
       <use xlink:href="#DejaVuSans-30" transform="translate(63.623047 0)"/>
       <use xlink:href="#DejaVuSans-32" transform="translate(127.246094 0)"/>
       <use xlink:href="#DejaVuSans-32" transform="translate(190.869141 0)"/>
       <use xlink:href="#DejaVuSans-2d" transform="translate(254.492188 0)"/>
       <use xlink:href="#DejaVuSans-30" transform="translate(290.576172 0)"/>
       <use xlink:href="#DejaVuSans-31" transform="translate(354.199219 0)"/>
      </g>
     </g>
    </g>
    <g id="xtick_3">
     <g id="line2d_5">
      <path d="M 287.246033 320.4 
L 287.246033 43.2 
" clip-path="url(#pe6e5cda1ea)" style="fill: none; stroke-dasharray: 5.12,1.28,0.8,1.28; stroke-dashoffset: 0; stroke: #b0b0b0; stroke-width: 0.8"/>
     </g>
     <g id="line2d_6">
      <g>
       <use xlink:href="#md263deed07" x="287.246033" y="320.4" style="fill: #a9a9a9; stroke: #a9a9a9; stroke-width: 0.8"/>
      </g>
     </g>
     <g id="text_3">
      <!-- 2022-07 -->
      <g style="fill: #a9a9a9" transform="translate(266.354627 334.998438) scale(0.1 -0.1)">
       <use xlink:href="#DejaVuSans-32"/>
       <use xlink:href="#DejaVuSans-30" transform="translate(63.623047 0)"/>
       <use xlink:href="#DejaVuSans-32" transform="translate(127.246094 0)"/>
       <use xlink:href="#DejaVuSans-32" transform="translate(190.869141 0)"/>
       <use xlink:href="#DejaVuSans-2d" transform="translate(254.492188 0)"/>
       <use xlink:href="#DejaVuSans-30" transform="translate(290.576172 0)"/>
       <use xlink:href="#DejaVuSans-37" transform="translate(354.199219 0)"/>
      </g>
     </g>
    </g>
    <g id="xtick_4">
     <g id="line2d_7">
      <path d="M 367.307375 320.4 
L 367.307375 43.2 
" clip-path="url(#pe6e5cda1ea)" style="fill: none; stroke-dasharray: 5.12,1.28,0.8,1.28; stroke-dashoffset: 0; stroke: #b0b0b0; stroke-width: 0.8"/>
     </g>
     <g id="line2d_8">
      <g>
       <use xlink:href="#md263deed07" x="367.307375" y="320.4" style="fill: #a9a9a9; stroke: #a9a9a9; stroke-width: 0.8"/>
      </g>
     </g>
     <g id="text_4">
      <!-- 2023-01 -->
      <g style="fill: #a9a9a9" transform="translate(346.415969 334.998438) scale(0.1 -0.1)">
       <defs>
        <path id="DejaVuSans-33" d="M 2597 2516 
Q 3050 2419 3304 2112 
Q 3559 1806 3559 1356 
Q 3559 666 3084 287 
Q 2609 -91 1734 -91 
Q 1441 -91 1130 -33 
Q 819 25 488 141 
L 488 750 
Q 750 597 1062 519 
Q 1375 441 1716 441 
Q 2309 441 2620 675 
Q 2931 909 2931 1356 
Q 2931 1769 2642 2001 
Q 2353 2234 1838 2234 
L 1294 2234 
L 1294 2753 
L 1863 2753 
Q 2328 2753 2575 2939 
Q 2822 3125 2822 3475 
Q 2822 3834 2567 4026 
Q 2313 4219 1838 4219 
Q 1578 4219 1281 4162 
Q 984 4106 628 3988 
L 628 4550 
Q 988 4650 1302 4700 
Q 1616 4750 1894 4750 
Q 2613 4750 3031 4423 
Q 3450 4097 3450 3541 
Q 3450 3153 3228 2886 
Q 3006 2619 2597 2516 
z
" transform="scale(0.015625)"/>
       </defs>
       <use xlink:href="#DejaVuSans-32"/>
       <use xlink:href="#DejaVuSans-30" transform="translate(63.623047 0)"/>
       <use xlink:href="#DejaVuSans-32" transform="translate(127.246094 0)"/>
       <use xlink:href="#DejaVuSans-33" transform="translate(190.869141 0)"/>
       <use xlink:href="#DejaVuSans-2d" transform="translate(254.492188 0)"/>
       <use xlink:href="#DejaVuSans-30" transform="translate(290.576172 0)"/>
       <use xlink:href="#DejaVuSans-31" transform="translate(354.199219 0)"/>
      </g>
     </g>
    </g>
    <g id="xtick_5">
     <g id="line2d_9">
      <path d="M 446.06337 320.4 
L 446.06337 43.2 
" clip-path="url(#pe6e5cda1ea)" style="fill: none; stroke-dasharray: 5.12,1.28,0.8,1.28; stroke-dashoffset: 0; stroke: #b0b0b0; stroke-width: 0.8"/>
     </g>
     <g id="line2d_10">
      <g>
       <use xlink:href="#md263deed07" x="446.06337" y="320.4" style="fill: #a9a9a9; stroke: #a9a9a9; stroke-width: 0.8"/>
      </g>
     </g>
     <g id="text_5">
      <!-- 2023-07 -->
      <g style="fill: #a9a9a9" transform="translate(425.171964 334.998438) scale(0.1 -0.1)">
       <use xlink:href="#DejaVuSans-32"/>
       <use xlink:href="#DejaVuSans-30" transform="translate(63.623047 0)"/>
       <use xlink:href="#DejaVuSans-32" transform="translate(127.246094 0)"/>
       <use xlink:href="#DejaVuSans-33" transform="translate(190.869141 0)"/>
       <use xlink:href="#DejaVuSans-2d" transform="translate(254.492188 0)"/>
       <use xlink:href="#DejaVuSans-30" transform="translate(290.576172 0)"/>
       <use xlink:href="#DejaVuSans-37" transform="translate(354.199219 0)"/>
      </g>
     </g>
    </g>
    <g id="xtick_6">
     <g id="line2d_11">
      <path d="M 526.124712 320.4 
L 526.124712 43.2 
" clip-path="url(#pe6e5cda1ea)" style="fill: none; stroke-dasharray: 5.12,1.28,0.8,1.28; stroke-dashoffset: 0; stroke: #b0b0b0; stroke-width: 0.8"/>
     </g>
     <g id="line2d_12">
      <g>
       <use xlink:href="#md263deed07" x="526.124712" y="320.4" style="fill: #a9a9a9; stroke: #a9a9a9; stroke-width: 0.8"/>
      </g>
     </g>
     <g id="text_6">
      <!-- 2024-01 -->
      <g style="fill: #a9a9a9" transform="translate(505.233306 334.998438) scale(0.1 -0.1)">
       <defs>
        <path id="DejaVuSans-34" d="M 2419 4116 
L 825 1625 
L 2419 1625 
L 2419 4116 
z
M 2253 4666 
L 3047 4666 
L 3047 1625 
L 3713 1625 
L 3713 1100 
L 3047 1100 
L 3047 0 
L 2419 0 
L 2419 1100 
L 313 1100 
L 313 1709 
L 2253 4666 
z
" transform="scale(0.015625)"/>
       </defs>
       <use xlink:href="#DejaVuSans-32"/>
       <use xlink:href="#DejaVuSans-30" transform="translate(63.623047 0)"/>
       <use xlink:href="#DejaVuSans-32" transform="translate(127.246094 0)"/>
       <use xlink:href="#DejaVuSans-34" transform="translate(190.869141 0)"/>
       <use xlink:href="#DejaVuSans-2d" transform="translate(254.492188 0)"/>
       <use xlink:href="#DejaVuSans-30" transform="translate(290.576172 0)"/>
       <use xlink:href="#DejaVuSans-31" transform="translate(354.199219 0)"/>
      </g>
     </g>
    </g>
    <g id="xtick_7">
     <g id="line2d_13">
      <path d="M 605.315823 320.4 
L 605.315823 43.2 
" clip-path="url(#pe6e5cda1ea)" style="fill: none; stroke-dasharray: 5.12,1.28,0.8,1.28; stroke-dashoffset: 0; stroke: #b0b0b0; stroke-width: 0.8"/>
     </g>
     <g id="line2d_14">
      <g>
       <use xlink:href="#md263deed07" x="605.315823" y="320.4" style="fill: #a9a9a9; stroke: #a9a9a9; stroke-width: 0.8"/>
      </g>
     </g>
     <g id="text_7">
      <!-- 2024-07 -->
      <g style="fill: #a9a9a9" transform="translate(584.424417 334.998438) scale(0.1 -0.1)">
       <use xlink:href="#DejaVuSans-32"/>
       <use xlink:href="#DejaVuSans-30" transform="translate(63.623047 0)"/>
       <use xlink:href="#DejaVuSans-32" transform="translate(127.246094 0)"/>
       <use xlink:href="#DejaVuSans-34" transform="translate(190.869141 0)"/>
       <use xlink:href="#DejaVuSans-2d" transform="translate(254.492188 0)"/>
       <use xlink:href="#DejaVuSans-30" transform="translate(290.576172 0)"/>
       <use xlink:href="#DejaVuSans-37" transform="translate(354.199219 0)"/>
      </g>
     </g>
    </g>
    <g id="xtick_8">
     <g id="line2d_15">
      <path d="M 685.377166 320.4 
L 685.377166 43.2 
" clip-path="url(#pe6e5cda1ea)" style="fill: none; stroke-dasharray: 5.12,1.28,0.8,1.28; stroke-dashoffset: 0; stroke: #b0b0b0; stroke-width: 0.8"/>
     </g>
     <g id="line2d_16">
      <g>
       <use xlink:href="#md263deed07" x="685.377166" y="320.4" style="fill: #a9a9a9; stroke: #a9a9a9; stroke-width: 0.8"/>
      </g>
     </g>
     <g id="text_8">
      <!-- 2025-01 -->
      <g style="fill: #a9a9a9" transform="translate(664.485759 334.998438) scale(0.1 -0.1)">
       <defs>
        <path id="DejaVuSans-35" d="M 691 4666 
L 3169 4666 
L 3169 4134 
L 1269 4134 
L 1269 2991 
Q 1406 3038 1543 3061 
Q 1681 3084 1819 3084 
Q 2600 3084 3056 2656 
Q 3513 2228 3513 1497 
Q 3513 744 3044 326 
Q 2575 -91 1722 -91 
Q 1428 -91 1123 -41 
Q 819 9 494 109 
L 494 744 
Q 775 591 1075 516 
Q 1375 441 1709 441 
Q 2250 441 2565 725 
Q 2881 1009 2881 1497 
Q 2881 1984 2565 2268 
Q 2250 2553 1709 2553 
Q 1456 2553 1204 2497 
Q 953 2441 691 2322 
L 691 4666 
z
" transform="scale(0.015625)"/>
       </defs>
       <use xlink:href="#DejaVuSans-32"/>
       <use xlink:href="#DejaVuSans-30" transform="translate(63.623047 0)"/>
       <use xlink:href="#DejaVuSans-32" transform="translate(127.246094 0)"/>
       <use xlink:href="#DejaVuSans-35" transform="translate(190.869141 0)"/>
       <use xlink:href="#DejaVuSans-2d" transform="translate(254.492188 0)"/>
       <use xlink:href="#DejaVuSans-30" transform="translate(290.576172 0)"/>
       <use xlink:href="#DejaVuSans-31" transform="translate(354.199219 0)"/>
      </g>
     </g>
    </g>
    <g id="xtick_9">
     <g id="line2d_17">
      <path d="M 764.13316 320.4 
L 764.13316 43.2 
" clip-path="url(#pe6e5cda1ea)" style="fill: none; stroke-dasharray: 5.12,1.28,0.8,1.28; stroke-dashoffset: 0; stroke: #b0b0b0; stroke-width: 0.8"/>
     </g>
     <g id="line2d_18">
      <g>
       <use xlink:href="#md263deed07" x="764.13316" y="320.4" style="fill: #a9a9a9; stroke: #a9a9a9; stroke-width: 0.8"/>
      </g>
     </g>
     <g id="text_9">
      <!-- 2025-07 -->
      <g style="fill: #a9a9a9" transform="translate(743.241754 334.998438) scale(0.1 -0.1)">
       <use xlink:href="#DejaVuSans-32"/>
       <use xlink:href="#DejaVuSans-30" transform="translate(63.623047 0)"/>
       <use xlink:href="#DejaVuSans-32" transform="translate(127.246094 0)"/>
       <use xlink:href="#DejaVuSans-35" transform="translate(190.869141 0)"/>
       <use xlink:href="#DejaVuSans-2d" transform="translate(254.492188 0)"/>
       <use xlink:href="#DejaVuSans-30" transform="translate(290.576172 0)"/>
       <use xlink:href="#DejaVuSans-37" transform="translate(354.199219 0)"/>
      </g>
     </g>
    </g>
   </g>
   <g id="matplotlib.axis_2">
    <g id="ytick_1">
     <g id="line2d_19">
      <path d="M 108 307.832881 
L 777.6 307.832881 
" clip-path="url(#pe6e5cda1ea)" style="fill: none; stroke-dasharray: 5.12,1.28,0.8,1.28; stroke-dashoffset: 0; stroke: #b0b0b0; stroke-width: 0.8"/>
     </g>
     <g id="line2d_20">
      <defs>
       <path id="m98c4c3530b" d="M 0 0 
L -3.5 0 
" style="stroke: #a9a9a9; stroke-width: 0.8"/>
      </defs>
      <g>
       <use xlink:href="#m98c4c3530b" x="108" y="307.832881" style="fill: #a9a9a9; stroke: #a9a9a9; stroke-width: 0.8"/>
      </g>
     </g>
     <g id="text_10">
      <!-- 0 -->
      <g style="fill: #a9a9a9" transform="translate(94.6375 311.6321) scale(0.1 -0.1)">
       <use xlink:href="#DejaVuSans-30"/>
      </g>
     </g>
    </g>
    <g id="ytick_2">
     <g id="line2d_21">
      <path d="M 108 274.951879 
L 777.6 274.951879 
" clip-path="url(#pe6e5cda1ea)" style="fill: none; stroke-dasharray: 5.12,1.28,0.8,1.28; stroke-dashoffset: 0; stroke: #b0b0b0; stroke-width: 0.8"/>
     </g>
     <g id="line2d_22">
      <g>
       <use xlink:href="#m98c4c3530b" x="108" y="274.951879" style="fill: #a9a9a9; stroke: #a9a9a9; stroke-width: 0.8"/>
      </g>
     </g>
     <g id="text_11">
      <!-- 1000 -->
      <g style="fill: #a9a9a9" transform="translate(75.55 278.751098) scale(0.1 -0.1)">
       <use xlink:href="#DejaVuSans-31"/>
       <use xlink:href="#DejaVuSans-30" transform="translate(63.623047 0)"/>
       <use xlink:href="#DejaVuSans-30" transform="translate(127.246094 0)"/>
       <use xlink:href="#DejaVuSans-30" transform="translate(190.869141 0)"/>
      </g>
     </g>
    </g>
    <g id="ytick_3">
     <g id="line2d_23">
      <path d="M 108 242.070877 
L 777.6 242.070877 
" clip-path="url(#pe6e5cda1ea)" style="fill: none; stroke-dasharray: 5.12,1.28,0.8,1.28; stroke-dashoffset: 0; stroke: #b0b0b0; stroke-width: 0.8"/>
     </g>
     <g id="line2d_24">
      <g>
       <use xlink:href="#m98c4c3530b" x="108" y="242.070877" style="fill: #a9a9a9; stroke: #a9a9a9; stroke-width: 0.8"/>
      </g>
     </g>
     <g id="text_12">
      <!-- 2000 -->
      <g style="fill: #a9a9a9" transform="translate(75.55 245.870096) scale(0.1 -0.1)">
       <use xlink:href="#DejaVuSans-32"/>
       <use xlink:href="#DejaVuSans-30" transform="translate(63.623047 0)"/>
       <use xlink:href="#DejaVuSans-30" transform="translate(127.246094 0)"/>
       <use xlink:href="#DejaVuSans-30" transform="translate(190.869141 0)"/>
      </g>
     </g>
    </g>
    <g id="ytick_4">
     <g id="line2d_25">
      <path d="M 108 209.189875 
L 777.6 209.189875 
" clip-path="url(#pe6e5cda1ea)" style="fill: none; stroke-dasharray: 5.12,1.28,0.8,1.28; stroke-dashoffset: 0; stroke: #b0b0b0; stroke-width: 0.8"/>
     </g>
     <g id="line2d_26">
      <g>
       <use xlink:href="#m98c4c3530b" x="108" y="209.189875" style="fill: #a9a9a9; stroke: #a9a9a9; stroke-width: 0.8"/>
      </g>
     </g>
     <g id="text_13">
      <!-- 3000 -->
      <g style="fill: #a9a9a9" transform="translate(75.55 212.989093) scale(0.1 -0.1)">
       <use xlink:href="#DejaVuSans-33"/>
       <use xlink:href="#DejaVuSans-30" transform="translate(63.623047 0)"/>
       <use xlink:href="#DejaVuSans-30" transform="translate(127.246094 0)"/>
       <use xlink:href="#DejaVuSans-30" transform="translate(190.869141 0)"/>
      </g>
     </g>
    </g>
    <g id="ytick_5">
     <g id="line2d_27">
      <path d="M 108 176.308873 
L 777.6 176.308873 
" clip-path="url(#pe6e5cda1ea)" style="fill: none; stroke-dasharray: 5.12,1.28,0.8,1.28; stroke-dashoffset: 0; stroke: #b0b0b0; stroke-width: 0.8"/>
     </g>
     <g id="line2d_28">
      <g>
       <use xlink:href="#m98c4c3530b" x="108" y="176.308873" style="fill: #a9a9a9; stroke: #a9a9a9; stroke-width: 0.8"/>
      </g>
     </g>
     <g id="text_14">
      <!-- 4000 -->
      <g style="fill: #a9a9a9" transform="translate(75.55 180.108091) scale(0.1 -0.1)">
       <use xlink:href="#DejaVuSans-34"/>
       <use xlink:href="#DejaVuSans-30" transform="translate(63.623047 0)"/>
       <use xlink:href="#DejaVuSans-30" transform="translate(127.246094 0)"/>
       <use xlink:href="#DejaVuSans-30" transform="translate(190.869141 0)"/>
      </g>
     </g>
    </g>
    <g id="ytick_6">
     <g id="line2d_29">
      <path d="M 108 143.427871 
L 777.6 143.427871 
" clip-path="url(#pe6e5cda1ea)" style="fill: none; stroke-dasharray: 5.12,1.28,0.8,1.28; stroke-dashoffset: 0; stroke: #b0b0b0; stroke-width: 0.8"/>
     </g>
     <g id="line2d_30">
      <g>
       <use xlink:href="#m98c4c3530b" x="108" y="143.427871" style="fill: #a9a9a9; stroke: #a9a9a9; stroke-width: 0.8"/>
      </g>
     </g>
     <g id="text_15">
      <!-- 5000 -->
      <g style="fill: #a9a9a9" transform="translate(75.55 147.227089) scale(0.1 -0.1)">
       <use xlink:href="#DejaVuSans-35"/>
       <use xlink:href="#DejaVuSans-30" transform="translate(63.623047 0)"/>
       <use xlink:href="#DejaVuSans-30" transform="translate(127.246094 0)"/>
       <use xlink:href="#DejaVuSans-30" transform="translate(190.869141 0)"/>
      </g>
     </g>
    </g>
    <g id="ytick_7">
     <g id="line2d_31">
      <path d="M 108 110.546868 
L 777.6 110.546868 
" clip-path="url(#pe6e5cda1ea)" style="fill: none; stroke-dasharray: 5.12,1.28,0.8,1.28; stroke-dashoffset: 0; stroke: #b0b0b0; stroke-width: 0.8"/>
     </g>
     <g id="line2d_32">
      <g>
       <use xlink:href="#m98c4c3530b" x="108" y="110.546868" style="fill: #a9a9a9; stroke: #a9a9a9; stroke-width: 0.8"/>
      </g>
     </g>
     <g id="text_16">
      <!-- 6000 -->
      <g style="fill: #a9a9a9" transform="translate(75.55 114.346087) scale(0.1 -0.1)">
       <defs>
        <path id="DejaVuSans-36" d="M 2113 2584 
Q 1688 2584 1439 2293 
Q 1191 2003 1191 1497 
Q 1191 994 1439 701 
Q 1688 409 2113 409 
Q 2538 409 2786 701 
Q 3034 994 3034 1497 
Q 3034 2003 2786 2293 
Q 2538 2584 2113 2584 
z
M 3366 4563 
L 3366 3988 
Q 3128 4100 2886 4159 
Q 2644 4219 2406 4219 
Q 1781 4219 1451 3797 
Q 1122 3375 1075 2522 
Q 1259 2794 1537 2939 
Q 1816 3084 2150 3084 
Q 2853 3084 3261 2657 
Q 3669 2231 3669 1497 
Q 3669 778 3244 343 
Q 2819 -91 2113 -91 
Q 1303 -91 875 529 
Q 447 1150 447 2328 
Q 447 3434 972 4092 
Q 1497 4750 2381 4750 
Q 2619 4750 2861 4703 
Q 3103 4656 3366 4563 
z
" transform="scale(0.015625)"/>
       </defs>
       <use xlink:href="#DejaVuSans-36"/>
       <use xlink:href="#DejaVuSans-30" transform="translate(63.623047 0)"/>
       <use xlink:href="#DejaVuSans-30" transform="translate(127.246094 0)"/>
       <use xlink:href="#DejaVuSans-30" transform="translate(190.869141 0)"/>
      </g>
     </g>
    </g>
    <g id="ytick_8">
     <g id="line2d_33">
      <path d="M 108 77.665866 
L 777.6 77.665866 
" clip-path="url(#pe6e5cda1ea)" style="fill: none; stroke-dasharray: 5.12,1.28,0.8,1.28; stroke-dashoffset: 0; stroke: #b0b0b0; stroke-width: 0.8"/>
     </g>
     <g id="line2d_34">
      <g>
       <use xlink:href="#m98c4c3530b" x="108" y="77.665866" style="fill: #a9a9a9; stroke: #a9a9a9; stroke-width: 0.8"/>
      </g>
     </g>
     <g id="text_17">
      <!-- 7000 -->
      <g style="fill: #a9a9a9" transform="translate(75.55 81.465085) scale(0.1 -0.1)">
       <use xlink:href="#DejaVuSans-37"/>
       <use xlink:href="#DejaVuSans-30" transform="translate(63.623047 0)"/>
       <use xlink:href="#DejaVuSans-30" transform="translate(127.246094 0)"/>
       <use xlink:href="#DejaVuSans-30" transform="translate(190.869141 0)"/>
      </g>
     </g>
    </g>
    <g id="ytick_9">
     <g id="line2d_35">
      <path d="M 108 44.784864 
L 777.6 44.784864 
" clip-path="url(#pe6e5cda1ea)" style="fill: none; stroke-dasharray: 5.12,1.28,0.8,1.28; stroke-dashoffset: 0; stroke: #b0b0b0; stroke-width: 0.8"/>
     </g>
     <g id="line2d_36">
      <g>
       <use xlink:href="#m98c4c3530b" x="108" y="44.784864" style="fill: #a9a9a9; stroke: #a9a9a9; stroke-width: 0.8"/>
      </g>
     </g>
     <g id="text_18">
      <!-- 8000 -->
      <g style="fill: #a9a9a9" transform="translate(75.55 48.584083) scale(0.1 -0.1)">
       <defs>
        <path id="DejaVuSans-38" d="M 2034 2216 
Q 1584 2216 1326 1975 
Q 1069 1734 1069 1313 
Q 1069 891 1326 650 
Q 1584 409 2034 409 
Q 2484 409 2743 651 
Q 3003 894 3003 1313 
Q 3003 1734 2745 1975 
Q 2488 2216 2034 2216 
z
M 1403 2484 
Q 997 2584 770 2862 
Q 544 3141 544 3541 
Q 544 4100 942 4425 
Q 1341 4750 2034 4750 
Q 2731 4750 3128 4425 
Q 3525 4100 3525 3541 
Q 3525 3141 3298 2862 
Q 3072 2584 2669 2484 
Q 3125 2378 3379 2068 
Q 3634 1759 3634 1313 
Q 3634 634 3220 271 
Q 2806 -91 2034 -91 
Q 1263 -91 848 271 
Q 434 634 434 1313 
Q 434 1759 690 2068 
Q 947 2378 1403 2484 
z
M 1172 3481 
Q 1172 3119 1398 2916 
Q 1625 2713 2034 2713 
Q 2441 2713 2670 2916 
Q 2900 3119 2900 3481 
Q 2900 3844 2670 4047 
Q 2441 4250 2034 4250 
Q 1625 4250 1398 4047 
Q 1172 3844 1172 3481 
z
" transform="scale(0.015625)"/>
       </defs>
       <use xlink:href="#DejaVuSans-38"/>
       <use xlink:href="#DejaVuSans-30" transform="translate(63.623047 0)"/>
       <use xlink:href="#DejaVuSans-30" transform="translate(127.246094 0)"/>
       <use xlink:href="#DejaVuSans-30" transform="translate(190.869141 0)"/>
      </g>
     </g>
    </g>
   </g>
   <g id="line2d_37">
    <path d="M 138.436364 307.734238 
L 141.04706 307.504071 
L 141.482176 307.306785 
L 143.22264 307.076618 
L 144.963104 306.714927 
L 145.833335 306.583403 
L 148.008915 306.386117 
L 148.879147 306.024426 
L 149.314263 305.432568 
L 149.749379 305.136639 
L 150.184495 304.150209 
L 150.619611 304.084447 
L 151.054727 303.722756 
L 151.924959 303.262422 
L 153.665423 301.815658 
L 155.405887 300.927871 
L 156.711235 300.303132 
L 157.146351 299.579749 
L 158.016583 298.922129 
L 158.451699 298.724843 
L 162.802859 298.067223 
L 163.237975 297.869937 
L 166.283787 297.606889 
L 168.024251 297.179436 
L 171.505179 296.686221 
L 171.940295 296.456054 
L 172.375411 296.390292 
L 173.245643 296.094363 
L 176.291455 295.568267 
L 177.161687 295.305219 
L 181.077731 294.647599 
L 181.947963 294.450313 
L 182.818195 294.417432 
L 184.558659 293.989979 
L 184.993775 293.36524 
L 186.299123 292.839144 
L 187.604471 292.477453 
L 188.039587 292.247286 
L 188.909819 292.082881 
L 190.650283 291.556785 
L 191.520515 291.491023 
L 192.390747 291.260856 
L 194.131211 290.800522 
L 194.566327 290.767641 
L 195.436559 290.340188 
L 195.871675 290.274426 
L 196.306791 290.044259 
L 201.093066 289.222234 
L 202.83353 288.696138 
L 203.268646 288.400209 
L 205.444226 287.676827 
L 206.314458 287.052088 
L 207.619806 286.78904 
L 217.192358 283.928392 
L 217.627474 283.895511 
L 218.932822 283.500939 
L 219.367938 283.500939 
L 219.803054 283.303653 
L 220.673286 283.20501 
L 221.108402 283.040605 
L 222.848866 282.974843 
L 223.719098 282.810438 
L 224.58933 282.350104 
L 225.894678 281.856889 
L 226.76491 281.396555 
L 227.635142 280.936221 
L 228.505374 280.640292 
L 228.94049 280.508768 
L 229.810722 279.949791 
L 230.245838 279.456576 
L 231.11607 278.075574 
L 231.551186 277.94405 
L 231.986302 277.94405 
L 233.29165 277.154906 
L 233.726766 276.924739 
L 234.161882 276.826096 
L 234.596998 276.398643 
L 235.46723 276.036952 
L 236.337462 275.609499 
L 238.513042 272.748852 
L 241.123738 271.302088 
L 241.99397 270.578706 
L 242.429086 270.315658 
L 242.864202 269.690919 
L 243.299318 268.671608 
L 243.734434 267.981106 
L 244.16955 267.619415 
L 244.604666 267.422129 
L 248.085594 264.134029 
L 248.955826 263.312004 
L 251.566522 261.635073 
L 252.001638 261.470668 
L 253.742102 260.418476 
L 254.177217 260.22119 
L 256.352797 258.182568 
L 257.223029 257.820877 
L 258.093261 257.196138 
L 258.528377 256.93309 
L 258.963493 256.867328 
L 260.268841 256.111065 
L 260.703957 255.61785 
L 262.879537 254.401253 
L 263.314653 254.236848 
L 264.620001 253.31618 
L 271.146741 250.948747 
L 272.016973 250.126722 
L 273.322321 249.469102 
L 274.192553 248.910125 
L 275.062785 248.647077 
L 275.497901 248.351148 
L 275.933017 248.219624 
L 277.238365 247.331837 
L 279.413945 246.838622 
L 280.719293 246.049478 
L 282.024641 245.753549 
L 282.459757 245.654906 
L 283.765105 244.635595 
L 285.505569 244.14238 
L 285.940685 243.780689 
L 288.551381 242.860021 
L 289.421613 242.695616 
L 290.291845 242.333925 
L 293.337657 241.18309 
L 294.207889 241.051566 
L 295.513237 240.591232 
L 297.688817 239.506159 
L 299.429281 238.519729 
L 302.910209 237.040084 
L 303.345325 236.974322 
L 304.215557 236.415344 
L 305.085789 236.185177 
L 306.391137 235.659081 
L 308.1316 235.428914 
L 309.001832 234.96858 
L 309.436948 234.574008 
L 309.872064 233.784864 
L 311.612528 233.291649 
L 312.917876 232.601148 
L 313.788108 232.305219 
L 314.65834 231.844885 
L 317.269036 230.759812 
L 318.139268 230.562526 
L 319.0095 230.102192 
L 319.444616 229.904906 
L 319.879732 229.839144 
L 322.055312 228.754071 
L 322.925544 228.195094 
L 324.230892 227.932046 
L 326.406472 227.373069 
L 326.841588 227.011378 
L 327.71182 226.715449 
L 329.8874 225.827662 
L 330.322516 225.498852 
L 330.757632 225.334447 
L 331.627864 224.841232 
L 333.368328 224.282255 
L 334.23856 223.723278 
L 334.673676 223.262944 
L 335.108792 222.999896 
L 335.543908 222.901253 
L 336.41414 222.177871 
L 336.849256 222.112109 
L 337.284372 221.388727 
L 337.719488 221.191441 
L 338.154604 220.829749 
L 338.58972 220.763987 
L 339.459952 220.20501 
L 340.330184 219.909081 
L 340.7653 219.580271 
L 341.200416 219.415866 
L 342.94088 218.23215 
L 344.246228 217.541649 
L 345.11646 217.311482 
L 345.986692 216.818267 
L 346.421808 216.062004 
L 347.29204 215.404384 
L 347.727156 215.305741 
L 350.337852 214.023382 
L 351.208084 213.661691 
L 352.078316 213.036952 
L 352.948548 212.149165 
L 356.864592 209.058351 
L 357.299708 208.69666 
L 358.16994 208.400731 
L 359.040172 207.808873 
L 360.34552 207.118372 
L 360.780636 207.05261 
L 362.085983 206.329228 
L 362.956215 205.770251 
L 367.307375 204.1262 
L 367.742491 203.764509 
L 369.482955 203.074008 
L 369.918071 202.942484 
L 370.788303 202.350626 
L 371.658535 201.988935 
L 372.528767 201.364196 
L 373.398999 199.588622 
L 374.269231 198.53643 
L 375.574579 197.845929 
L 376.444811 197.484238 
L 376.879927 197.418476 
L 377.315043 197.155428 
L 379.490623 196.432046 
L 379.925739 196.23476 
L 380.795971 195.642902 
L 382.101319 195.083925 
L 382.971551 194.59071 
L 383.841783 194.064614 
L 384.276899 193.768685 
L 384.712015 193.27547 
L 386.017363 192.519207 
L 386.452479 192.354802 
L 387.322711 191.828706 
L 389.063175 190.875157 
L 389.498291 190.776514 
L 389.933407 190.414823 
L 392.979219 189.395511 
L 393.414335 189.066701 
L 394.284567 188.803653 
L 395.154799 188.441962 
L 395.589915 188.080271 
L 397.330379 187.455532 
L 398.200611 186.830793 
L 399.070843 186.469102 
L 399.941075 185.778601 
L 400.811307 185.515553 
L 401.246423 185.120981 
L 401.681539 185.055219 
L 402.551771 184.364718 
L 403.422003 183.904384 
L 403.857119 183.707098 
L 404.292235 183.246764 
L 407.338047 181.997286 
L 408.208279 181.602714 
L 409.513627 181.175261 
L 410.383859 181.043737 
L 410.818975 180.846451 
L 411.254091 180.780689 
L 412.124323 180.386117 
L 412.559439 180.353236 
L 414.299903 179.695616 
L 415.605251 178.742067 
L 416.040366 178.577662 
L 416.910598 178.084447 
L 417.345714 177.952923 
L 419.95641 176.473278 
L 420.391526 176.374635 
L 421.696874 175.585491 
L 423.002222 175.125157 
L 423.872454 174.829228 
L 425.612918 174.23737 
L 426.48315 173.941441 
L 428.223614 173.579749 
L 428.65873 173.382463 
L 429.528962 173.152296 
L 429.964078 172.95501 
L 430.399194 172.889248 
L 430.83431 172.659081 
L 431.704542 172.494676 
L 433.00989 172.001461 
L 433.880122 171.902818 
L 435.18547 171.606889 
L 437.36105 171.212317 
L 448.674066 167.792693 
L 449.109182 167.332359 
L 451.719878 166.247286 
L 453.460342 165.655428 
L 453.895458 165.39238 
L 455.200806 164.997808 
L 456.071038 164.767641 
L 456.506154 164.471712 
L 456.94127 164.373069 
L 457.376386 163.978497 
L 458.681734 163.715449 
L 459.551966 163.287996 
L 459.987082 162.7619 
L 461.727546 162.334447 
L 464.773358 161.676827 
L 465.208474 161.676827 
L 465.64359 161.479541 
L 467.384054 161.150731 
L 467.81917 160.953445 
L 469.559634 160.624635 
L 470.429865 160.262944 
L 471.300097 160.098539 
L 473.475677 159.539562 
L 475.216141 158.980585 
L 475.651257 158.881942 
L 476.086373 158.651775 
L 476.956605 158.421608 
L 477.826837 158.059916 
L 478.697069 157.731106 
L 479.132185 157.435177 
L 480.002417 157.172129 
L 483.048229 156.021294 
L 484.788693 155.791127 
L 488.269621 154.508768 
L 488.704737 154.179958 
L 489.139853 154.081315 
L 489.574969 153.851148 
L 490.010085 153.818267 
L 494.796361 152.075574 
L 496.971941 151.483716 
L 497.842173 151.056263 
L 499.147521 150.760334 
L 500.887985 149.31357 
L 502.628449 148.557307 
L 503.498681 148.162735 
L 506.109377 147.143424 
L 506.544493 146.847495 
L 508.720073 146.124113 
L 510.025421 145.36785 
L 510.460537 145.269207 
L 512.201001 144.282777 
L 513.941465 143.493633 
L 514.376581 143.164823 
L 515.246813 142.868894 
L 517.422393 141.750939 
L 518.727741 141.290605 
L 520.468205 140.567223 
L 521.773553 140.074008 
L 522.208669 139.909603 
L 523.078901 139.778079 
L 523.514017 139.48215 
L 525.25448 139.120459 
L 526.124712 138.758768 
L 527.865176 137.936743 
L 533.9568 135.240501 
L 535.262148 134.813048 
L 535.697264 134.517119 
L 536.567496 134.418476 
L 537.002612 134.122547 
L 537.872844 133.958142 
L 538.743076 133.530689 
L 539.178192 133.333403 
L 540.048424 133.103236 
L 540.918656 132.840188 
L 542.224004 132.346973 
L 543.529352 131.91952 
L 544.8347 131.623591 
L 546.575164 130.900209 
L 547.445396 130.406994 
L 549.18586 129.519207 
L 550.056092 129.321921 
L 550.491208 129.058873 
L 550.926324 128.96023 
L 552.231672 128.203967 
L 553.101904 127.842276 
L 562.674456 124.126722 
L 564.41492 123.304697 
L 568.76608 121.594885 
L 569.636312 121.167432 
L 570.071428 121.068789 
L 570.506544 120.838622 
L 572.247008 120.345407 
L 573.987472 118.898643 
L 574.422588 118.767119 
L 574.857704 118.504071 
L 576.163052 118.14238 
L 576.598168 117.81357 
L 577.033284 117.714927 
L 578.338631 116.925783 
L 578.773747 116.629854 
L 580.079095 116.136639 
L 580.514211 115.906472 
L 581.819559 115.610543 
L 583.995139 114.85428 
L 584.865371 114.558351 
L 586.170719 113.900731 
L 587.040951 113.473278 
L 587.911183 113.243111 
L 589.216531 112.618372 
L 593.132575 111.138727 
L 594.437923 110.316701 
L 594.873039 110.218058 
L 595.743271 109.790605 
L 596.613503 109.461795 
L 597.048619 109.067223 
L 597.918851 108.705532 
L 599.224199 108.245198 
L 599.659315 107.883507 
L 600.094431 107.850626 
L 600.964663 107.587578 
L 601.834895 107.291649 
L 602.270011 107.094363 
L 602.705127 107.028601 
L 604.010475 106.535386 
L 605.315823 106.042171 
L 607.056287 105.253027 
L 607.926519 105.02286 
L 608.361635 104.759812 
L 609.231867 104.529645 
L 610.537215 103.773382 
L 610.972331 103.740501 
L 612.277679 103.313048 
L 613.147911 103.247286 
L 613.583027 103.017119 
L 614.453259 102.786952 
L 614.888375 102.556785 
L 617.063955 102.129332 
L 617.934187 101.964927 
L 619.239535 101.471712 
L 620.544883 101.175783 
L 621.850231 100.485282 
L 622.285347 100.09071 
L 623.590695 99.301566 
L 624.025811 98.972756 
L 625.331159 98.545303 
L 626.201391 98.282255 
L 626.636507 98.052088 
L 627.071623 97.953445 
L 627.506739 97.591754 
L 630.117435 96.4738 
L 631.857898 96.013466 
L 632.72813 95.618894 
L 633.163246 95.388727 
L 634.033478 95.125678 
L 634.468594 94.86263 
L 635.338826 94.698225 
L 638.819754 93.185699 
L 639.25487 93.119937 
L 640.560218 92.265031 
L 640.995334 92.199269 
L 642.735798 91.508768 
L 644.476262 91.081315 
L 644.911378 91.015553 
L 645.346494 90.818267 
L 645.78161 90.785386 
L 646.651842 90.489457 
L 647.086958 90.456576 
L 648.392306 89.93048 
L 650.13277 89.437265 
L 651.003002 88.779645 
L 652.743466 87.793215 
L 653.178582 87.694572 
L 653.613698 87.464405 
L 654.48393 87.168476 
L 654.919046 87.036952 
L 655.354162 86.675261 
L 656.65951 86.182046 
L 657.529742 85.688831 
L 657.964858 85.458664 
L 658.399974 85.064092 
L 660.575554 84.472234 
L 661.880902 83.880376 
L 662.751134 83.650209 
L 663.18625 83.420042 
L 663.621366 83.058351 
L 665.36183 82.598017 
L 665.796946 82.269207 
L 671.453454 80.197704 
L 672.323686 80.033299 
L 674.499266 79.342797 
L 675.369498 78.981106 
L 676.23973 78.652296 
L 677.109962 78.422129 
L 677.545078 78.224843 
L 677.980194 78.224843 
L 678.850426 77.863152 
L 679.720658 77.337056 
L 682.76647 76.317745 
L 684.506934 75.725887 
L 685.812281 75.429958 
L 687.117629 75.002505 
L 687.552745 74.903862 
L 687.987861 74.607933 
L 688.858093 74.410647 
L 690.598557 73.917432 
L 691.033673 73.884551 
L 691.903905 73.489979 
L 694.949717 72.733716 
L 695.819949 72.372025 
L 700.171109 71.385595 
L 701.476457 70.695094 
L 702.781805 70.300522 
L 707.132965 68.689353 
L 707.568081 68.360543 
L 708.873429 68.064614 
L 709.743661 67.801566 
L 710.613893 67.374113 
L 711.049009 67.012422 
L 711.919241 66.749374 
L 712.354357 66.486326 
L 713.224589 66.387683 
L 716.270401 65.532777 
L 717.575749 65.269729 
L 720.186445 64.414823 
L 721.926909 63.592797 
L 726.713185 61.817223 
L 727.583417 61.685699 
L 728.453649 61.521294 
L 728.888765 61.521294 
L 730.629229 60.962317 
L 731.064345 60.896555 
L 731.934577 60.534864 
L 732.804809 60.304697 
L 735.415505 59.581315 
L 736.285737 59.351148 
L 736.720853 59.252505 
L 737.155969 58.989457 
L 738.026201 58.825052 
L 738.896433 58.726409 
L 739.331549 58.496242 
L 739.766665 58.463361 
L 740.636896 57.904384 
L 742.37736 57.509812 
L 743.247592 57.11524 
L 744.117824 56.819311 
L 744.988056 56.589144 
L 745.858288 56.194572 
L 747.163636 55.8 
L 747.163636 55.8 
" clip-path="url(#pe6e5cda1ea)" style="fill: none; stroke: #1f77b4; stroke-width: 1.5; stroke-linecap: square"/>
   </g>
   <g id="line2d_38">
    <path d="M 138.87148 307.8 
L 142.787524 307.701357 
L 146.268451 307.536952 
L 148.008915 307.536952 
L 148.444031 307.405428 
L 150.619611 307.306785 
L 153.230307 307.010856 
L 155.841003 306.912213 
L 156.711235 306.81357 
L 159.757047 306.682046 
L 162.802859 306.583403 
L 164.978439 306.517641 
L 170.634947 306.418998 
L 172.810527 306.353236 
L 176.726571 306.254593 
L 178.467035 306.221712 
L 182.818195 306.123069 
L 184.558659 305.958664 
L 186.299123 305.925783 
L 188.909819 305.82714 
L 190.650283 305.794259 
L 192.825863 305.728497 
L 194.566327 305.564092 
L 198.482371 305.465449 
L 199.352603 305.399687 
L 201.093066 305.301044 
L 203.703762 305.202401 
L 205.444226 305.103758 
L 213.276314 304.610543 
L 216.322126 304.5119 
L 217.627474 304.380376 
L 219.803054 304.281733 
L 224.154214 304.051566 
L 228.505374 303.985804 
L 230.245838 303.788518 
L 231.986302 303.689875 
L 236.772578 303.229541 
L 239.81839 302.86785 
L 241.123738 302.802088 
L 244.604666 302.341754 
L 247.215362 302.275992 
L 248.52071 302.144468 
L 249.826058 302.045825 
L 262.009305 301.092276 
L 262.879537 300.927871 
L 265.490233 300.829228 
L 272.452089 300.401775 
L 275.497901 300.303132 
L 277.238365 300.105846 
L 279.413945 300.007203 
L 282.024641 299.908559 
L 284.200221 299.809916 
L 285.940685 299.777035 
L 288.116265 299.711273 
L 288.986497 299.579749 
L 295.078121 299.481106 
L 295.948353 299.382463 
L 301.169745 299.28382 
L 305.085789 299.086534 
L 308.1316 298.987891 
L 309.872064 298.790605 
L 312.917876 298.691962 
L 313.788108 298.527557 
L 315.963688 298.461795 
L 320.314848 298.396033 
L 322.055312 298.231628 
L 323.795776 298.198747 
L 325.101124 298.100104 
L 326.841588 297.935699 
L 331.192748 297.705532 
L 335.543908 297.606889 
L 339.459952 297.409603 
L 340.7653 297.376722 
L 341.635532 297.245198 
L 343.811112 297.146555 
L 344.681344 297.080793 
L 345.551576 297.015031 
L 346.421808 296.949269 
L 350.337852 296.883507 
L 351.6432 296.784864 
L 363.391331 295.99572 
L 365.566911 295.897077 
L 367.742491 295.831315 
L 373.834115 295.732672 
L 374.704347 295.601148 
L 380.795971 295.502505 
L 385.147131 295.272338 
L 386.017363 295.239457 
L 386.887595 295.140814 
L 389.063175 295.042171 
L 391.238755 294.976409 
L 393.414335 294.877766 
L 395.589915 294.812004 
L 399.505959 294.713361 
L 402.116655 294.614718 
L 408.208279 294.516075 
L 412.994555 294.253027 
L 414.735019 294.187265 
L 416.040366 294.088622 
L 422.13199 293.989979 
L 424.742686 293.891336 
L 432.574774 293.792693 
L 434.315238 293.759812 
L 439.53663 293.69405 
L 440.406862 293.628288 
L 446.498486 293.529645 
L 448.23895 293.496764 
L 459.551966 293.398121 
L 462.162662 293.299478 
L 480.437533 293.200835 
L 482.613113 293.135073 
L 493.926129 293.069311 
L 494.796361 293.003549 
L 496.971941 292.937787 
L 498.277289 292.806263 
L 500.887985 292.70762 
L 503.933797 292.576096 
L 507.849841 292.477453 
L 510.025421 292.411691 
L 513.071233 292.313048 
L 516.552161 292.148643 
L 518.727741 292.05 
L 520.468205 292.017119 
L 524.384248 291.918476 
L 526.124712 291.885595 
L 531.78122 291.786952 
L 533.521684 291.754071 
L 535.697264 291.655428 
L 538.30796 291.556785 
L 541.353772 291.491023 
L 542.224004 291.425261 
L 552.666788 291.326618 
L 558.323296 290.997808 
L 560.498876 290.932046 
L 561.369108 290.833403 
L 562.23934 290.767641 
L 565.720268 290.668998 
L 568.330964 290.570355 
L 572.682124 290.471712 
L 574.857704 290.241545 
L 579.208863 290.142902 
L 580.079095 290.044259 
L 584.430255 289.945616 
L 586.605835 289.879854 
L 591.392111 289.846973 
L 592.262343 289.74833 
L 597.048619 289.649687 
L 597.918851 289.583925 
L 607.491403 289.485282 
L 610.102099 289.386639 
L 616.628839 289.287996 
L 618.369303 289.255115 
L 622.285347 289.189353 
L 623.155579 289.09071 
L 628.812087 288.992067 
L 630.987667 288.926305 
L 638.819754 288.827662 
L 640.125102 288.729019 
L 641.43045 288.630376 
L 642.735798 288.531733 
L 649.262538 288.43309 
L 651.873234 288.334447 
L 663.621366 288.235804 
L 667.53741 288.038518 
L 672.758802 287.939875 
L 673.629034 287.874113 
L 680.155774 287.808351 
L 681.026006 287.742589 
L 685.812281 287.643946 
L 687.552745 287.611065 
L 693.644369 287.512422 
L 696.255065 287.413779 
L 703.652037 287.315136 
L 705.392501 287.282255 
L 709.308545 287.183612 
L 712.789473 287.019207 
L 717.575749 286.920564 
L 720.621561 286.78904 
L 724.537605 286.690397 
L 725.407837 286.624635 
L 734.110157 286.525992 
L 736.285737 286.46023 
L 738.896433 286.361587 
L 741.507128 286.262944 
L 747.163636 286.197182 
L 747.163636 286.197182 
" clip-path="url(#pe6e5cda1ea)" style="fill: none; stroke: #ff7f0e; stroke-width: 1.5; stroke-linecap: square"/>
   </g>
   <g id="patch_3">
    <path d="M 108 320.4 
L 108 43.2 
" style="fill: none; stroke: #a9a9a9; stroke-width: 0.8; stroke-linejoin: miter; stroke-linecap: square"/>
   </g>
   <g id="patch_4">
    <path d="M 777.6 320.4 
L 777.6 43.2 
" style="fill: none"/>
   </g>
   <g id="patch_5">
    <path d="M 108 320.4 
L 777.6 320.4 
" style="fill: none; stroke: #a9a9a9; stroke-width: 0.8; stroke-linejoin: miter; stroke-linecap: square"/>
   </g>
   <g id="patch_6">
    <path d="M 108 43.2 
L 777.6 43.2 
" style="fill: none"/>
   </g>
   <g id="text_19">
    <!-- get_subscribe history -->
    <g style="fill: #a9a9a9" transform="translate(378.6075 37.2) scale(0.12 -0.12)">
     <defs>
      <path id="DejaVuSans-67" d="M 2906 1791 
Q 2906 2416 2648 2759 
Q 2391 3103 1925 3103 
Q 1463 3103 1205 2759 
Q 947 2416 947 1791 
Q 947 1169 1205 825 
Q 1463 481 1925 481 
Q 2391 481 2648 825 
Q 2906 1169 2906 1791 
z
M 3481 434 
Q 3481 -459 3084 -895 
Q 2688 -1331 1869 -1331 
Q 1566 -1331 1297 -1286 
Q 1028 -1241 775 -1147 
L 775 -588 
Q 1028 -725 1275 -790 
Q 1522 -856 1778 -856 
Q 2344 -856 2625 -561 
Q 2906 -266 2906 331 
L 2906 616 
Q 2728 306 2450 153 
Q 2172 0 1784 0 
Q 1141 0 747 490 
Q 353 981 353 1791 
Q 353 2603 747 3093 
Q 1141 3584 1784 3584 
Q 2172 3584 2450 3431 
Q 2728 3278 2906 2969 
L 2906 3500 
L 3481 3500 
L 3481 434 
z
" transform="scale(0.015625)"/>
      <path id="DejaVuSans-65" d="M 3597 1894 
L 3597 1613 
L 953 1613 
Q 991 1019 1311 708 
Q 1631 397 2203 397 
Q 2534 397 2845 478 
Q 3156 559 3463 722 
L 3463 178 
Q 3153 47 2828 -22 
Q 2503 -91 2169 -91 
Q 1331 -91 842 396 
Q 353 884 353 1716 
Q 353 2575 817 3079 
Q 1281 3584 2069 3584 
Q 2775 3584 3186 3129 
Q 3597 2675 3597 1894 
z
M 3022 2063 
Q 3016 2534 2758 2815 
Q 2500 3097 2075 3097 
Q 1594 3097 1305 2825 
Q 1016 2553 972 2059 
L 3022 2063 
z
" transform="scale(0.015625)"/>
      <path id="DejaVuSans-74" d="M 1172 4494 
L 1172 3500 
L 2356 3500 
L 2356 3053 
L 1172 3053 
L 1172 1153 
Q 1172 725 1289 603 
Q 1406 481 1766 481 
L 2356 481 
L 2356 0 
L 1766 0 
Q 1100 0 847 248 
Q 594 497 594 1153 
L 594 3053 
L 172 3053 
L 172 3500 
L 594 3500 
L 594 4494 
L 1172 4494 
z
" transform="scale(0.015625)"/>
      <path id="DejaVuSans-5f" d="M 3263 -1063 
L 3263 -1509 
L -63 -1509 
L -63 -1063 
L 3263 -1063 
z
" transform="scale(0.015625)"/>
      <path id="DejaVuSans-73" d="M 2834 3397 
L 2834 2853 
Q 2591 2978 2328 3040 
Q 2066 3103 1784 3103 
Q 1356 3103 1142 2972 
Q 928 2841 928 2578 
Q 928 2378 1081 2264 
Q 1234 2150 1697 2047 
L 1894 2003 
Q 2506 1872 2764 1633 
Q 3022 1394 3022 966 
Q 3022 478 2636 193 
Q 2250 -91 1575 -91 
Q 1294 -91 989 -36 
Q 684 19 347 128 
L 347 722 
Q 666 556 975 473 
Q 1284 391 1588 391 
Q 1994 391 2212 530 
Q 2431 669 2431 922 
Q 2431 1156 2273 1281 
Q 2116 1406 1581 1522 
L 1381 1569 
Q 847 1681 609 1914 
Q 372 2147 372 2553 
Q 372 3047 722 3315 
Q 1072 3584 1716 3584 
Q 2034 3584 2315 3537 
Q 2597 3491 2834 3397 
z
" transform="scale(0.015625)"/>
      <path id="DejaVuSans-75" d="M 544 1381 
L 544 3500 
L 1119 3500 
L 1119 1403 
Q 1119 906 1312 657 
Q 1506 409 1894 409 
Q 2359 409 2629 706 
Q 2900 1003 2900 1516 
L 2900 3500 
L 3475 3500 
L 3475 0 
L 2900 0 
L 2900 538 
Q 2691 219 2414 64 
Q 2138 -91 1772 -91 
Q 1169 -91 856 284 
Q 544 659 544 1381 
z
M 1991 3584 
L 1991 3584 
z
" transform="scale(0.015625)"/>
      <path id="DejaVuSans-62" d="M 3116 1747 
Q 3116 2381 2855 2742 
Q 2594 3103 2138 3103 
Q 1681 3103 1420 2742 
Q 1159 2381 1159 1747 
Q 1159 1113 1420 752 
Q 1681 391 2138 391 
Q 2594 391 2855 752 
Q 3116 1113 3116 1747 
z
M 1159 2969 
Q 1341 3281 1617 3432 
Q 1894 3584 2278 3584 
Q 2916 3584 3314 3078 
Q 3713 2572 3713 1747 
Q 3713 922 3314 415 
Q 2916 -91 2278 -91 
Q 1894 -91 1617 61 
Q 1341 213 1159 525 
L 1159 0 
L 581 0 
L 581 4863 
L 1159 4863 
L 1159 2969 
z
" transform="scale(0.015625)"/>
      <path id="DejaVuSans-63" d="M 3122 3366 
L 3122 2828 
Q 2878 2963 2633 3030 
Q 2388 3097 2138 3097 
Q 1578 3097 1268 2742 
Q 959 2388 959 1747 
Q 959 1106 1268 751 
Q 1578 397 2138 397 
Q 2388 397 2633 464 
Q 2878 531 3122 666 
L 3122 134 
Q 2881 22 2623 -34 
Q 2366 -91 2075 -91 
Q 1284 -91 818 406 
Q 353 903 353 1747 
Q 353 2603 823 3093 
Q 1294 3584 2113 3584 
Q 2378 3584 2631 3529 
Q 2884 3475 3122 3366 
z
" transform="scale(0.015625)"/>
      <path id="DejaVuSans-72" d="M 2631 2963 
Q 2534 3019 2420 3045 
Q 2306 3072 2169 3072 
Q 1681 3072 1420 2755 
Q 1159 2438 1159 1844 
L 1159 0 
L 581 0 
L 581 3500 
L 1159 3500 
L 1159 2956 
Q 1341 3275 1631 3429 
Q 1922 3584 2338 3584 
Q 2397 3584 2469 3576 
Q 2541 3569 2628 3553 
L 2631 2963 
z
" transform="scale(0.015625)"/>
      <path id="DejaVuSans-69" d="M 603 3500 
L 1178 3500 
L 1178 0 
L 603 0 
L 603 3500 
z
M 603 4863 
L 1178 4863 
L 1178 4134 
L 603 4134 
L 603 4863 
z
" transform="scale(0.015625)"/>
      <path id="DejaVuSans-20" transform="scale(0.015625)"/>
      <path id="DejaVuSans-68" d="M 3513 2113 
L 3513 0 
L 2938 0 
L 2938 2094 
Q 2938 2591 2744 2837 
Q 2550 3084 2163 3084 
Q 1697 3084 1428 2787 
Q 1159 2491 1159 1978 
L 1159 0 
L 581 0 
L 581 4863 
L 1159 4863 
L 1159 2956 
Q 1366 3272 1645 3428 
Q 1925 3584 2291 3584 
Q 2894 3584 3203 3211 
Q 3513 2838 3513 2113 
z
" transform="scale(0.015625)"/>
      <path id="DejaVuSans-6f" d="M 1959 3097 
Q 1497 3097 1228 2736 
Q 959 2375 959 1747 
Q 959 1119 1226 758 
Q 1494 397 1959 397 
Q 2419 397 2687 759 
Q 2956 1122 2956 1747 
Q 2956 2369 2687 2733 
Q 2419 3097 1959 3097 
z
M 1959 3584 
Q 2709 3584 3137 3096 
Q 3566 2609 3566 1747 
Q 3566 888 3137 398 
Q 2709 -91 1959 -91 
Q 1206 -91 779 398 
Q 353 888 353 1747 
Q 353 2609 779 3096 
Q 1206 3584 1959 3584 
z
" transform="scale(0.015625)"/>
      <path id="DejaVuSans-79" d="M 2059 -325 
Q 1816 -950 1584 -1140 
Q 1353 -1331 966 -1331 
L 506 -1331 
L 506 -850 
L 844 -850 
Q 1081 -850 1212 -737 
Q 1344 -625 1503 -206 
L 1606 56 
L 191 3500 
L 800 3500 
L 1894 763 
L 2988 3500 
L 3597 3500 
L 2059 -325 
z
" transform="scale(0.015625)"/>
     </defs>
     <use xlink:href="#DejaVuSans-67"/>
     <use xlink:href="#DejaVuSans-65" transform="translate(63.476562 0)"/>
     <use xlink:href="#DejaVuSans-74" transform="translate(125 0)"/>
     <use xlink:href="#DejaVuSans-5f" transform="translate(164.208984 0)"/>
     <use xlink:href="#DejaVuSans-73" transform="translate(214.208984 0)"/>
     <use xlink:href="#DejaVuSans-75" transform="translate(266.308594 0)"/>
     <use xlink:href="#DejaVuSans-62" transform="translate(329.6875 0)"/>
     <use xlink:href="#DejaVuSans-73" transform="translate(393.164062 0)"/>
     <use xlink:href="#DejaVuSans-63" transform="translate(445.263672 0)"/>
     <use xlink:href="#DejaVuSans-72" transform="translate(500.244141 0)"/>
     <use xlink:href="#DejaVuSans-69" transform="translate(541.357422 0)"/>
     <use xlink:href="#DejaVuSans-62" transform="translate(569.140625 0)"/>
     <use xlink:href="#DejaVuSans-65" transform="translate(632.617188 0)"/>
     <use xlink:href="#DejaVuSans-20" transform="translate(694.140625 0)"/>
     <use xlink:href="#DejaVuSans-68" transform="translate(725.927734 0)"/>
     <use xlink:href="#DejaVuSans-69" transform="translate(789.306641 0)"/>
     <use xlink:href="#DejaVuSans-73" transform="translate(817.089844 0)"/>
     <use xlink:href="#DejaVuSans-74" transform="translate(869.189453 0)"/>
     <use xlink:href="#DejaVuSans-6f" transform="translate(908.398438 0)"/>
     <use xlink:href="#DejaVuSans-72" transform="translate(969.580078 0)"/>
     <use xlink:href="#DejaVuSans-79" transform="translate(1010.693359 0)"/>
    </g>
   </g>
   <g id="legend_1">
    <g id="line2d_39">
     <path d="M 815.08 328.498438 
L 825.08 328.498438 
L 835.08 328.498438 
" style="fill: none; stroke: #1f77b4; stroke-width: 1.5; stroke-linecap: square"/>
    </g>
    <g id="text_20">
     <!-- star -->
     <g style="fill: #a9a9a9" transform="translate(843.08 331.998438) scale(0.1 -0.1)">
      <defs>
       <path id="DejaVuSans-61" d="M 2194 1759 
Q 1497 1759 1228 1600 
Q 959 1441 959 1056 
Q 959 750 1161 570 
Q 1363 391 1709 391 
Q 2188 391 2477 730 
Q 2766 1069 2766 1631 
L 2766 1759 
L 2194 1759 
z
M 3341 1997 
L 3341 0 
L 2766 0 
L 2766 531 
Q 2569 213 2275 61 
Q 1981 -91 1556 -91 
Q 1019 -91 701 211 
Q 384 513 384 1019 
Q 384 1609 779 1909 
Q 1175 2209 1959 2209 
L 2766 2209 
L 2766 2266 
Q 2766 2663 2505 2880 
Q 2244 3097 1772 3097 
Q 1472 3097 1187 3025 
Q 903 2953 641 2809 
L 641 3341 
Q 956 3463 1253 3523 
Q 1550 3584 1831 3584 
Q 2591 3584 2966 3190 
Q 3341 2797 3341 1997 
z
" transform="scale(0.015625)"/>
      </defs>
      <use xlink:href="#DejaVuSans-73"/>
      <use xlink:href="#DejaVuSans-74" transform="translate(52.099609 0)"/>
      <use xlink:href="#DejaVuSans-61" transform="translate(91.308594 0)"/>
      <use xlink:href="#DejaVuSans-72" transform="translate(152.587891 0)"/>
     </g>
    </g>
    <g id="line2d_40">
     <path d="M 815.08 343.176562 
L 825.08 343.176562 
L 835.08 343.176562 
" style="fill: none; stroke: #ff7f0e; stroke-width: 1.5; stroke-linecap: square"/>
    </g>
    <g id="text_21">
     <!-- fork -->
     <g style="fill: #a9a9a9" transform="translate(843.08 346.676562) scale(0.1 -0.1)">
      <defs>
       <path id="DejaVuSans-66" d="M 2375 4863 
L 2375 4384 
L 1825 4384 
Q 1516 4384 1395 4259 
Q 1275 4134 1275 3809 
L 1275 3500 
L 2222 3500 
L 2222 3053 
L 1275 3053 
L 1275 0 
L 697 0 
L 697 3053 
L 147 3053 
L 147 3500 
L 697 3500 
L 697 3744 
Q 697 4328 969 4595 
Q 1241 4863 1831 4863 
L 2375 4863 
z
" transform="scale(0.015625)"/>
       <path id="DejaVuSans-6b" d="M 581 4863 
L 1159 4863 
L 1159 1991 
L 2875 3500 
L 3609 3500 
L 1753 1863 
L 3688 0 
L 2938 0 
L 1159 1709 
L 1159 0 
L 581 0 
L 581 4863 
z
" transform="scale(0.015625)"/>
      </defs>
      <use xlink:href="#DejaVuSans-66"/>
      <use xlink:href="#DejaVuSans-6f" transform="translate(35.205078 0)"/>
      <use xlink:href="#DejaVuSans-72" transform="translate(96.386719 0)"/>
      <use xlink:href="#DejaVuSans-6b" transform="translate(137.5 0)"/>
     </g>
    </g>
   </g>
  </g>
 </g>
 <defs>
  <clipPath id="pe6e5cda1ea">
   <rect x="108" y="43.2" width="669.6" height="277.2"/>
  </clipPath>
 </defs>
</svg>
