<?xml version="1.0" encoding="utf-8" standalone="no"?>
<!DOCTYPE svg PUBLIC "-//W3C//DTD SVG 1.1//EN"
  "http://www.w3.org/Graphics/SVG/1.1/DTD/svg11.dtd">
<svg xmlns:xlink="http://www.w3.org/1999/xlink" width="864pt" height="360pt" viewBox="0 0 864 360" xmlns="http://www.w3.org/2000/svg" version="1.1">
 <metadata>
  <rdf:RDF xmlns:dc="http://purl.org/dc/elements/1.1/" xmlns:cc="http://creativecommons.org/ns#" xmlns:rdf="http://www.w3.org/1999/02/22-rdf-syntax-ns#">
   <cc:Work>
    <dc:type rdf:resource="http://purl.org/dc/dcmitype/StillImage"/>
    <dc:date>2025-05-19T20:07:02.476404</dc:date>
    <dc:format>image/svg+xml</dc:format>
    <dc:creator>
     <cc:Agent>
      <dc:title>Matplotlib v3.10.3, https://matplotlib.org/</dc:title>
     </cc:Agent>
    </dc:creator>
   </cc:Work>
  </rdf:RDF>
 </metadata>
 <defs>
  <style type="text/css">*{stroke-linejoin: round; stroke-linecap: butt}</style>
 </defs>
 <g id="figure_1">
  <g id="patch_1">
   <path d="M 0 360 
L 864 360 
L 864 0 
L 0 0 
L 0 360 
z
" style="fill: none; opacity: 0"/>
  </g>
  <g id="axes_1">
   <g id="patch_2">
    <path d="M 108 320.4 
L 777.6 320.4 
L 777.6 43.2 
L 108 43.2 
L 108 320.4 
z
" style="fill: none; opacity: 0"/>
   </g>
   <g id="matplotlib.axis_1">
    <g id="xtick_1">
     <g id="line2d_1">
      <path d="M 128.4 320.4 
L 128.4 43.2 
" clip-path="url(#pee7e4fbeb5)" style="fill: none; stroke-dasharray: 5.12,1.28,0.8,1.28; stroke-dashoffset: 0; stroke: #b0b0b0; stroke-width: 0.8"/>
     </g>
     <g id="line2d_2">
      <defs>
       <path id="mbd3daa0983" d="M 0 0 
L 0 3.5 
" style="stroke: #a9a9a9; stroke-width: 0.8"/>
      </defs>
      <g>
       <use xlink:href="#mbd3daa0983" x="128.4" y="320.4" style="fill: #a9a9a9; stroke: #a9a9a9; stroke-width: 0.8"/>
      </g>
     </g>
     <g id="text_1">
      <!-- 2021-07 -->
      <g style="fill: #a9a9a9" transform="translate(107.508594 334.998438) scale(0.1 -0.1)">
       <defs>
        <path id="DejaVuSans-32" d="M 1228 531 
L 3431 531 
L 3431 0 
L 469 0 
L 469 531 
Q 828 903 1448 1529 
Q 2069 2156 2228 2338 
Q 2531 2678 2651 2914 
Q 2772 3150 2772 3378 
Q 2772 3750 2511 3984 
Q 2250 4219 1831 4219 
Q 1534 4219 1204 4116 
Q 875 4013 500 3803 
L 500 4441 
Q 881 4594 1212 4672 
Q 1544 4750 1819 4750 
Q 2544 4750 2975 4387 
Q 3406 4025 3406 3419 
Q 3406 3131 3298 2873 
Q 3191 2616 2906 2266 
Q 2828 2175 2409 1742 
Q 1991 1309 1228 531 
z
" transform="scale(0.015625)"/>
        <path id="DejaVuSans-30" d="M 2034 4250 
Q 1547 4250 1301 3770 
Q 1056 3291 1056 2328 
Q 1056 1369 1301 889 
Q 1547 409 2034 409 
Q 2525 409 2770 889 
Q 3016 1369 3016 2328 
Q 3016 3291 2770 3770 
Q 2525 4250 2034 4250 
z
M 2034 4750 
Q 2819 4750 3233 4129 
Q 3647 3509 3647 2328 
Q 3647 1150 3233 529 
Q 2819 -91 2034 -91 
Q 1250 -91 836 529 
Q 422 1150 422 2328 
Q 422 3509 836 4129 
Q 1250 4750 2034 4750 
z
" transform="scale(0.015625)"/>
        <path id="DejaVuSans-31" d="M 794 531 
L 1825 531 
L 1825 4091 
L 703 3866 
L 703 4441 
L 1819 4666 
L 2450 4666 
L 2450 531 
L 3481 531 
L 3481 0 
L 794 0 
L 794 531 
z
" transform="scale(0.015625)"/>
        <path id="DejaVuSans-2d" d="M 313 2009 
L 1997 2009 
L 1997 1497 
L 313 1497 
L 313 2009 
z
" transform="scale(0.015625)"/>
        <path id="DejaVuSans-37" d="M 525 4666 
L 3525 4666 
L 3525 4397 
L 1831 0 
L 1172 0 
L 2766 4134 
L 525 4134 
L 525 4666 
z
" transform="scale(0.015625)"/>
       </defs>
       <use xlink:href="#DejaVuSans-32"/>
       <use xlink:href="#DejaVuSans-30" transform="translate(63.623047 0)"/>
       <use xlink:href="#DejaVuSans-32" transform="translate(127.246094 0)"/>
       <use xlink:href="#DejaVuSans-31" transform="translate(190.869141 0)"/>
       <use xlink:href="#DejaVuSans-2d" transform="translate(254.492188 0)"/>
       <use xlink:href="#DejaVuSans-30" transform="translate(290.576172 0)"/>
       <use xlink:href="#DejaVuSans-37" transform="translate(354.199219 0)"/>
      </g>
     </g>
    </g>
    <g id="xtick_2">
     <g id="line2d_3">
      <path d="M 208.690909 320.4 
L 208.690909 43.2 
" clip-path="url(#pee7e4fbeb5)" style="fill: none; stroke-dasharray: 5.12,1.28,0.8,1.28; stroke-dashoffset: 0; stroke: #b0b0b0; stroke-width: 0.8"/>
     </g>
     <g id="line2d_4">
      <g>
       <use xlink:href="#mbd3daa0983" x="208.690909" y="320.4" style="fill: #a9a9a9; stroke: #a9a9a9; stroke-width: 0.8"/>
      </g>
     </g>
     <g id="text_2">
      <!-- 2022-01 -->
      <g style="fill: #a9a9a9" transform="translate(187.799503 334.998438) scale(0.1 -0.1)">
       <use xlink:href="#DejaVuSans-32"/>
       <use xlink:href="#DejaVuSans-30" transform="translate(63.623047 0)"/>
       <use xlink:href="#DejaVuSans-32" transform="translate(127.246094 0)"/>
       <use xlink:href="#DejaVuSans-32" transform="translate(190.869141 0)"/>
       <use xlink:href="#DejaVuSans-2d" transform="translate(254.492188 0)"/>
       <use xlink:href="#DejaVuSans-30" transform="translate(290.576172 0)"/>
       <use xlink:href="#DejaVuSans-31" transform="translate(354.199219 0)"/>
      </g>
     </g>
    </g>
    <g id="xtick_3">
     <g id="line2d_5">
      <path d="M 287.672727 320.4 
L 287.672727 43.2 
" clip-path="url(#pee7e4fbeb5)" style="fill: none; stroke-dasharray: 5.12,1.28,0.8,1.28; stroke-dashoffset: 0; stroke: #b0b0b0; stroke-width: 0.8"/>
     </g>
     <g id="line2d_6">
      <g>
       <use xlink:href="#mbd3daa0983" x="287.672727" y="320.4" style="fill: #a9a9a9; stroke: #a9a9a9; stroke-width: 0.8"/>
      </g>
     </g>
     <g id="text_3">
      <!-- 2022-07 -->
      <g style="fill: #a9a9a9" transform="translate(266.781321 334.998438) scale(0.1 -0.1)">
       <use xlink:href="#DejaVuSans-32"/>
       <use xlink:href="#DejaVuSans-30" transform="translate(63.623047 0)"/>
       <use xlink:href="#DejaVuSans-32" transform="translate(127.246094 0)"/>
       <use xlink:href="#DejaVuSans-32" transform="translate(190.869141 0)"/>
       <use xlink:href="#DejaVuSans-2d" transform="translate(254.492188 0)"/>
       <use xlink:href="#DejaVuSans-30" transform="translate(290.576172 0)"/>
       <use xlink:href="#DejaVuSans-37" transform="translate(354.199219 0)"/>
      </g>
     </g>
    </g>
    <g id="xtick_4">
     <g id="line2d_7">
      <path d="M 367.963636 320.4 
L 367.963636 43.2 
" clip-path="url(#pee7e4fbeb5)" style="fill: none; stroke-dasharray: 5.12,1.28,0.8,1.28; stroke-dashoffset: 0; stroke: #b0b0b0; stroke-width: 0.8"/>
     </g>
     <g id="line2d_8">
      <g>
       <use xlink:href="#mbd3daa0983" x="367.963636" y="320.4" style="fill: #a9a9a9; stroke: #a9a9a9; stroke-width: 0.8"/>
      </g>
     </g>
     <g id="text_4">
      <!-- 2023-01 -->
      <g style="fill: #a9a9a9" transform="translate(347.07223 334.998438) scale(0.1 -0.1)">
       <defs>
        <path id="DejaVuSans-33" d="M 2597 2516 
Q 3050 2419 3304 2112 
Q 3559 1806 3559 1356 
Q 3559 666 3084 287 
Q 2609 -91 1734 -91 
Q 1441 -91 1130 -33 
Q 819 25 488 141 
L 488 750 
Q 750 597 1062 519 
Q 1375 441 1716 441 
Q 2309 441 2620 675 
Q 2931 909 2931 1356 
Q 2931 1769 2642 2001 
Q 2353 2234 1838 2234 
L 1294 2234 
L 1294 2753 
L 1863 2753 
Q 2328 2753 2575 2939 
Q 2822 3125 2822 3475 
Q 2822 3834 2567 4026 
Q 2313 4219 1838 4219 
Q 1578 4219 1281 4162 
Q 984 4106 628 3988 
L 628 4550 
Q 988 4650 1302 4700 
Q 1616 4750 1894 4750 
Q 2613 4750 3031 4423 
Q 3450 4097 3450 3541 
Q 3450 3153 3228 2886 
Q 3006 2619 2597 2516 
z
" transform="scale(0.015625)"/>
       </defs>
       <use xlink:href="#DejaVuSans-32"/>
       <use xlink:href="#DejaVuSans-30" transform="translate(63.623047 0)"/>
       <use xlink:href="#DejaVuSans-32" transform="translate(127.246094 0)"/>
       <use xlink:href="#DejaVuSans-33" transform="translate(190.869141 0)"/>
       <use xlink:href="#DejaVuSans-2d" transform="translate(254.492188 0)"/>
       <use xlink:href="#DejaVuSans-30" transform="translate(290.576172 0)"/>
       <use xlink:href="#DejaVuSans-31" transform="translate(354.199219 0)"/>
      </g>
     </g>
    </g>
    <g id="xtick_5">
     <g id="line2d_9">
      <path d="M 446.945455 320.4 
L 446.945455 43.2 
" clip-path="url(#pee7e4fbeb5)" style="fill: none; stroke-dasharray: 5.12,1.28,0.8,1.28; stroke-dashoffset: 0; stroke: #b0b0b0; stroke-width: 0.8"/>
     </g>
     <g id="line2d_10">
      <g>
       <use xlink:href="#mbd3daa0983" x="446.945455" y="320.4" style="fill: #a9a9a9; stroke: #a9a9a9; stroke-width: 0.8"/>
      </g>
     </g>
     <g id="text_5">
      <!-- 2023-07 -->
      <g style="fill: #a9a9a9" transform="translate(426.054048 334.998438) scale(0.1 -0.1)">
       <use xlink:href="#DejaVuSans-32"/>
       <use xlink:href="#DejaVuSans-30" transform="translate(63.623047 0)"/>
       <use xlink:href="#DejaVuSans-32" transform="translate(127.246094 0)"/>
       <use xlink:href="#DejaVuSans-33" transform="translate(190.869141 0)"/>
       <use xlink:href="#DejaVuSans-2d" transform="translate(254.492188 0)"/>
       <use xlink:href="#DejaVuSans-30" transform="translate(290.576172 0)"/>
       <use xlink:href="#DejaVuSans-37" transform="translate(354.199219 0)"/>
      </g>
     </g>
    </g>
    <g id="xtick_6">
     <g id="line2d_11">
      <path d="M 527.236364 320.4 
L 527.236364 43.2 
" clip-path="url(#pee7e4fbeb5)" style="fill: none; stroke-dasharray: 5.12,1.28,0.8,1.28; stroke-dashoffset: 0; stroke: #b0b0b0; stroke-width: 0.8"/>
     </g>
     <g id="line2d_12">
      <g>
       <use xlink:href="#mbd3daa0983" x="527.236364" y="320.4" style="fill: #a9a9a9; stroke: #a9a9a9; stroke-width: 0.8"/>
      </g>
     </g>
     <g id="text_6">
      <!-- 2024-01 -->
      <g style="fill: #a9a9a9" transform="translate(506.344957 334.998438) scale(0.1 -0.1)">
       <defs>
        <path id="DejaVuSans-34" d="M 2419 4116 
L 825 1625 
L 2419 1625 
L 2419 4116 
z
M 2253 4666 
L 3047 4666 
L 3047 1625 
L 3713 1625 
L 3713 1100 
L 3047 1100 
L 3047 0 
L 2419 0 
L 2419 1100 
L 313 1100 
L 313 1709 
L 2253 4666 
z
" transform="scale(0.015625)"/>
       </defs>
       <use xlink:href="#DejaVuSans-32"/>
       <use xlink:href="#DejaVuSans-30" transform="translate(63.623047 0)"/>
       <use xlink:href="#DejaVuSans-32" transform="translate(127.246094 0)"/>
       <use xlink:href="#DejaVuSans-34" transform="translate(190.869141 0)"/>
       <use xlink:href="#DejaVuSans-2d" transform="translate(254.492188 0)"/>
       <use xlink:href="#DejaVuSans-30" transform="translate(290.576172 0)"/>
       <use xlink:href="#DejaVuSans-31" transform="translate(354.199219 0)"/>
      </g>
     </g>
    </g>
    <g id="xtick_7">
     <g id="line2d_13">
      <path d="M 606.654545 320.4 
L 606.654545 43.2 
" clip-path="url(#pee7e4fbeb5)" style="fill: none; stroke-dasharray: 5.12,1.28,0.8,1.28; stroke-dashoffset: 0; stroke: #b0b0b0; stroke-width: 0.8"/>
     </g>
     <g id="line2d_14">
      <g>
       <use xlink:href="#mbd3daa0983" x="606.654545" y="320.4" style="fill: #a9a9a9; stroke: #a9a9a9; stroke-width: 0.8"/>
      </g>
     </g>
     <g id="text_7">
      <!-- 2024-07 -->
      <g style="fill: #a9a9a9" transform="translate(585.763139 334.998438) scale(0.1 -0.1)">
       <use xlink:href="#DejaVuSans-32"/>
       <use xlink:href="#DejaVuSans-30" transform="translate(63.623047 0)"/>
       <use xlink:href="#DejaVuSans-32" transform="translate(127.246094 0)"/>
       <use xlink:href="#DejaVuSans-34" transform="translate(190.869141 0)"/>
       <use xlink:href="#DejaVuSans-2d" transform="translate(254.492188 0)"/>
       <use xlink:href="#DejaVuSans-30" transform="translate(290.576172 0)"/>
       <use xlink:href="#DejaVuSans-37" transform="translate(354.199219 0)"/>
      </g>
     </g>
    </g>
    <g id="xtick_8">
     <g id="line2d_15">
      <path d="M 686.945455 320.4 
L 686.945455 43.2 
" clip-path="url(#pee7e4fbeb5)" style="fill: none; stroke-dasharray: 5.12,1.28,0.8,1.28; stroke-dashoffset: 0; stroke: #b0b0b0; stroke-width: 0.8"/>
     </g>
     <g id="line2d_16">
      <g>
       <use xlink:href="#mbd3daa0983" x="686.945455" y="320.4" style="fill: #a9a9a9; stroke: #a9a9a9; stroke-width: 0.8"/>
      </g>
     </g>
     <g id="text_8">
      <!-- 2025-01 -->
      <g style="fill: #a9a9a9" transform="translate(666.054048 334.998438) scale(0.1 -0.1)">
       <defs>
        <path id="DejaVuSans-35" d="M 691 4666 
L 3169 4666 
L 3169 4134 
L 1269 4134 
L 1269 2991 
Q 1406 3038 1543 3061 
Q 1681 3084 1819 3084 
Q 2600 3084 3056 2656 
Q 3513 2228 3513 1497 
Q 3513 744 3044 326 
Q 2575 -91 1722 -91 
Q 1428 -91 1123 -41 
Q 819 9 494 109 
L 494 744 
Q 775 591 1075 516 
Q 1375 441 1709 441 
Q 2250 441 2565 725 
Q 2881 1009 2881 1497 
Q 2881 1984 2565 2268 
Q 2250 2553 1709 2553 
Q 1456 2553 1204 2497 
Q 953 2441 691 2322 
L 691 4666 
z
" transform="scale(0.015625)"/>
       </defs>
       <use xlink:href="#DejaVuSans-32"/>
       <use xlink:href="#DejaVuSans-30" transform="translate(63.623047 0)"/>
       <use xlink:href="#DejaVuSans-32" transform="translate(127.246094 0)"/>
       <use xlink:href="#DejaVuSans-35" transform="translate(190.869141 0)"/>
       <use xlink:href="#DejaVuSans-2d" transform="translate(254.492188 0)"/>
       <use xlink:href="#DejaVuSans-30" transform="translate(290.576172 0)"/>
       <use xlink:href="#DejaVuSans-31" transform="translate(354.199219 0)"/>
      </g>
     </g>
    </g>
    <g id="xtick_9">
     <g id="line2d_17">
      <path d="M 765.927273 320.4 
L 765.927273 43.2 
" clip-path="url(#pee7e4fbeb5)" style="fill: none; stroke-dasharray: 5.12,1.28,0.8,1.28; stroke-dashoffset: 0; stroke: #b0b0b0; stroke-width: 0.8"/>
     </g>
     <g id="line2d_18">
      <g>
       <use xlink:href="#mbd3daa0983" x="765.927273" y="320.4" style="fill: #a9a9a9; stroke: #a9a9a9; stroke-width: 0.8"/>
      </g>
     </g>
     <g id="text_9">
      <!-- 2025-07 -->
      <g style="fill: #a9a9a9" transform="translate(745.035866 334.998438) scale(0.1 -0.1)">
       <use xlink:href="#DejaVuSans-32"/>
       <use xlink:href="#DejaVuSans-30" transform="translate(63.623047 0)"/>
       <use xlink:href="#DejaVuSans-32" transform="translate(127.246094 0)"/>
       <use xlink:href="#DejaVuSans-35" transform="translate(190.869141 0)"/>
       <use xlink:href="#DejaVuSans-2d" transform="translate(254.492188 0)"/>
       <use xlink:href="#DejaVuSans-30" transform="translate(290.576172 0)"/>
       <use xlink:href="#DejaVuSans-37" transform="translate(354.199219 0)"/>
      </g>
     </g>
    </g>
   </g>
   <g id="matplotlib.axis_2">
    <g id="ytick_1">
     <g id="line2d_19">
      <path d="M 108 307.832958 
L 777.6 307.832958 
" clip-path="url(#pee7e4fbeb5)" style="fill: none; stroke-dasharray: 5.12,1.28,0.8,1.28; stroke-dashoffset: 0; stroke: #b0b0b0; stroke-width: 0.8"/>
     </g>
     <g id="line2d_20">
      <defs>
       <path id="mfdbbd72d6e" d="M 0 0 
L -3.5 0 
" style="stroke: #a9a9a9; stroke-width: 0.8"/>
      </defs>
      <g>
       <use xlink:href="#mfdbbd72d6e" x="108" y="307.832958" style="fill: #a9a9a9; stroke: #a9a9a9; stroke-width: 0.8"/>
      </g>
     </g>
     <g id="text_10">
      <!-- 0 -->
      <g style="fill: #a9a9a9" transform="translate(94.6375 311.632177) scale(0.1 -0.1)">
       <use xlink:href="#DejaVuSans-30"/>
      </g>
     </g>
    </g>
    <g id="ytick_2">
     <g id="line2d_21">
      <path d="M 108 274.874549 
L 777.6 274.874549 
" clip-path="url(#pee7e4fbeb5)" style="fill: none; stroke-dasharray: 5.12,1.28,0.8,1.28; stroke-dashoffset: 0; stroke: #b0b0b0; stroke-width: 0.8"/>
     </g>
     <g id="line2d_22">
      <g>
       <use xlink:href="#mfdbbd72d6e" x="108" y="274.874549" style="fill: #a9a9a9; stroke: #a9a9a9; stroke-width: 0.8"/>
      </g>
     </g>
     <g id="text_11">
      <!-- 1000 -->
      <g style="fill: #a9a9a9" transform="translate(75.55 278.673768) scale(0.1 -0.1)">
       <use xlink:href="#DejaVuSans-31"/>
       <use xlink:href="#DejaVuSans-30" transform="translate(63.623047 0)"/>
       <use xlink:href="#DejaVuSans-30" transform="translate(127.246094 0)"/>
       <use xlink:href="#DejaVuSans-30" transform="translate(190.869141 0)"/>
      </g>
     </g>
    </g>
    <g id="ytick_3">
     <g id="line2d_23">
      <path d="M 108 241.916139 
L 777.6 241.916139 
" clip-path="url(#pee7e4fbeb5)" style="fill: none; stroke-dasharray: 5.12,1.28,0.8,1.28; stroke-dashoffset: 0; stroke: #b0b0b0; stroke-width: 0.8"/>
     </g>
     <g id="line2d_24">
      <g>
       <use xlink:href="#mfdbbd72d6e" x="108" y="241.916139" style="fill: #a9a9a9; stroke: #a9a9a9; stroke-width: 0.8"/>
      </g>
     </g>
     <g id="text_12">
      <!-- 2000 -->
      <g style="fill: #a9a9a9" transform="translate(75.55 245.715358) scale(0.1 -0.1)">
       <use xlink:href="#DejaVuSans-32"/>
       <use xlink:href="#DejaVuSans-30" transform="translate(63.623047 0)"/>
       <use xlink:href="#DejaVuSans-30" transform="translate(127.246094 0)"/>
       <use xlink:href="#DejaVuSans-30" transform="translate(190.869141 0)"/>
      </g>
     </g>
    </g>
    <g id="ytick_4">
     <g id="line2d_25">
      <path d="M 108 208.95773 
L 777.6 208.95773 
" clip-path="url(#pee7e4fbeb5)" style="fill: none; stroke-dasharray: 5.12,1.28,0.8,1.28; stroke-dashoffset: 0; stroke: #b0b0b0; stroke-width: 0.8"/>
     </g>
     <g id="line2d_26">
      <g>
       <use xlink:href="#mfdbbd72d6e" x="108" y="208.95773" style="fill: #a9a9a9; stroke: #a9a9a9; stroke-width: 0.8"/>
      </g>
     </g>
     <g id="text_13">
      <!-- 3000 -->
      <g style="fill: #a9a9a9" transform="translate(75.55 212.756948) scale(0.1 -0.1)">
       <use xlink:href="#DejaVuSans-33"/>
       <use xlink:href="#DejaVuSans-30" transform="translate(63.623047 0)"/>
       <use xlink:href="#DejaVuSans-30" transform="translate(127.246094 0)"/>
       <use xlink:href="#DejaVuSans-30" transform="translate(190.869141 0)"/>
      </g>
     </g>
    </g>
    <g id="ytick_5">
     <g id="line2d_27">
      <path d="M 108 175.99932 
L 777.6 175.99932 
" clip-path="url(#pee7e4fbeb5)" style="fill: none; stroke-dasharray: 5.12,1.28,0.8,1.28; stroke-dashoffset: 0; stroke: #b0b0b0; stroke-width: 0.8"/>
     </g>
     <g id="line2d_28">
      <g>
       <use xlink:href="#mfdbbd72d6e" x="108" y="175.99932" style="fill: #a9a9a9; stroke: #a9a9a9; stroke-width: 0.8"/>
      </g>
     </g>
     <g id="text_14">
      <!-- 4000 -->
      <g style="fill: #a9a9a9" transform="translate(75.55 179.798539) scale(0.1 -0.1)">
       <use xlink:href="#DejaVuSans-34"/>
       <use xlink:href="#DejaVuSans-30" transform="translate(63.623047 0)"/>
       <use xlink:href="#DejaVuSans-30" transform="translate(127.246094 0)"/>
       <use xlink:href="#DejaVuSans-30" transform="translate(190.869141 0)"/>
      </g>
     </g>
    </g>
    <g id="ytick_6">
     <g id="line2d_29">
      <path d="M 108 143.04091 
L 777.6 143.04091 
" clip-path="url(#pee7e4fbeb5)" style="fill: none; stroke-dasharray: 5.12,1.28,0.8,1.28; stroke-dashoffset: 0; stroke: #b0b0b0; stroke-width: 0.8"/>
     </g>
     <g id="line2d_30">
      <g>
       <use xlink:href="#mfdbbd72d6e" x="108" y="143.04091" style="fill: #a9a9a9; stroke: #a9a9a9; stroke-width: 0.8"/>
      </g>
     </g>
     <g id="text_15">
      <!-- 5000 -->
      <g style="fill: #a9a9a9" transform="translate(75.55 146.840129) scale(0.1 -0.1)">
       <use xlink:href="#DejaVuSans-35"/>
       <use xlink:href="#DejaVuSans-30" transform="translate(63.623047 0)"/>
       <use xlink:href="#DejaVuSans-30" transform="translate(127.246094 0)"/>
       <use xlink:href="#DejaVuSans-30" transform="translate(190.869141 0)"/>
      </g>
     </g>
    </g>
    <g id="ytick_7">
     <g id="line2d_31">
      <path d="M 108 110.082501 
L 777.6 110.082501 
" clip-path="url(#pee7e4fbeb5)" style="fill: none; stroke-dasharray: 5.12,1.28,0.8,1.28; stroke-dashoffset: 0; stroke: #b0b0b0; stroke-width: 0.8"/>
     </g>
     <g id="line2d_32">
      <g>
       <use xlink:href="#mfdbbd72d6e" x="108" y="110.082501" style="fill: #a9a9a9; stroke: #a9a9a9; stroke-width: 0.8"/>
      </g>
     </g>
     <g id="text_16">
      <!-- 6000 -->
      <g style="fill: #a9a9a9" transform="translate(75.55 113.881719) scale(0.1 -0.1)">
       <defs>
        <path id="DejaVuSans-36" d="M 2113 2584 
Q 1688 2584 1439 2293 
Q 1191 2003 1191 1497 
Q 1191 994 1439 701 
Q 1688 409 2113 409 
Q 2538 409 2786 701 
Q 3034 994 3034 1497 
Q 3034 2003 2786 2293 
Q 2538 2584 2113 2584 
z
M 3366 4563 
L 3366 3988 
Q 3128 4100 2886 4159 
Q 2644 4219 2406 4219 
Q 1781 4219 1451 3797 
Q 1122 3375 1075 2522 
Q 1259 2794 1537 2939 
Q 1816 3084 2150 3084 
Q 2853 3084 3261 2657 
Q 3669 2231 3669 1497 
Q 3669 778 3244 343 
Q 2819 -91 2113 -91 
Q 1303 -91 875 529 
Q 447 1150 447 2328 
Q 447 3434 972 4092 
Q 1497 4750 2381 4750 
Q 2619 4750 2861 4703 
Q 3103 4656 3366 4563 
z
" transform="scale(0.015625)"/>
       </defs>
       <use xlink:href="#DejaVuSans-36"/>
       <use xlink:href="#DejaVuSans-30" transform="translate(63.623047 0)"/>
       <use xlink:href="#DejaVuSans-30" transform="translate(127.246094 0)"/>
       <use xlink:href="#DejaVuSans-30" transform="translate(190.869141 0)"/>
      </g>
     </g>
    </g>
    <g id="ytick_8">
     <g id="line2d_33">
      <path d="M 108 77.124091 
L 777.6 77.124091 
" clip-path="url(#pee7e4fbeb5)" style="fill: none; stroke-dasharray: 5.12,1.28,0.8,1.28; stroke-dashoffset: 0; stroke: #b0b0b0; stroke-width: 0.8"/>
     </g>
     <g id="line2d_34">
      <g>
       <use xlink:href="#mfdbbd72d6e" x="108" y="77.124091" style="fill: #a9a9a9; stroke: #a9a9a9; stroke-width: 0.8"/>
      </g>
     </g>
     <g id="text_17">
      <!-- 7000 -->
      <g style="fill: #a9a9a9" transform="translate(75.55 80.92331) scale(0.1 -0.1)">
       <use xlink:href="#DejaVuSans-37"/>
       <use xlink:href="#DejaVuSans-30" transform="translate(63.623047 0)"/>
       <use xlink:href="#DejaVuSans-30" transform="translate(127.246094 0)"/>
       <use xlink:href="#DejaVuSans-30" transform="translate(190.869141 0)"/>
      </g>
     </g>
    </g>
    <g id="ytick_9">
     <g id="line2d_35">
      <path d="M 108 44.165681 
L 777.6 44.165681 
" clip-path="url(#pee7e4fbeb5)" style="fill: none; stroke-dasharray: 5.12,1.28,0.8,1.28; stroke-dashoffset: 0; stroke: #b0b0b0; stroke-width: 0.8"/>
     </g>
     <g id="line2d_36">
      <g>
       <use xlink:href="#mfdbbd72d6e" x="108" y="44.165681" style="fill: #a9a9a9; stroke: #a9a9a9; stroke-width: 0.8"/>
      </g>
     </g>
     <g id="text_18">
      <!-- 8000 -->
      <g style="fill: #a9a9a9" transform="translate(75.55 47.9649) scale(0.1 -0.1)">
       <defs>
        <path id="DejaVuSans-38" d="M 2034 2216 
Q 1584 2216 1326 1975 
Q 1069 1734 1069 1313 
Q 1069 891 1326 650 
Q 1584 409 2034 409 
Q 2484 409 2743 651 
Q 3003 894 3003 1313 
Q 3003 1734 2745 1975 
Q 2488 2216 2034 2216 
z
M 1403 2484 
Q 997 2584 770 2862 
Q 544 3141 544 3541 
Q 544 4100 942 4425 
Q 1341 4750 2034 4750 
Q 2731 4750 3128 4425 
Q 3525 4100 3525 3541 
Q 3525 3141 3298 2862 
Q 3072 2584 2669 2484 
Q 3125 2378 3379 2068 
Q 3634 1759 3634 1313 
Q 3634 634 3220 271 
Q 2806 -91 2034 -91 
Q 1263 -91 848 271 
Q 434 634 434 1313 
Q 434 1759 690 2068 
Q 947 2378 1403 2484 
z
M 1172 3481 
Q 1172 3119 1398 2916 
Q 1625 2713 2034 2713 
Q 2441 2713 2670 2916 
Q 2900 3119 2900 3481 
Q 2900 3844 2670 4047 
Q 2441 4250 2034 4250 
Q 1625 4250 1398 4047 
Q 1172 3844 1172 3481 
z
" transform="scale(0.015625)"/>
       </defs>
       <use xlink:href="#DejaVuSans-38"/>
       <use xlink:href="#DejaVuSans-30" transform="translate(63.623047 0)"/>
       <use xlink:href="#DejaVuSans-30" transform="translate(127.246094 0)"/>
       <use xlink:href="#DejaVuSans-30" transform="translate(190.869141 0)"/>
      </g>
     </g>
    </g>
   </g>
   <g id="line2d_37">
    <path d="M 138.436364 307.734083 
L 141.054545 307.503374 
L 141.490909 307.305624 
L 143.236364 307.074915 
L 144.981818 306.712372 
L 145.854545 306.580539 
L 148.036364 306.382788 
L 148.909091 306.020246 
L 149.345455 305.426995 
L 149.781818 305.130369 
L 150.218182 304.141617 
L 150.654545 304.0757 
L 151.090909 303.713157 
L 151.963636 303.251739 
L 153.709091 301.801569 
L 155.454545 300.911692 
L 156.763636 300.285483 
L 157.2 299.560398 
L 158.072727 298.901229 
L 158.509091 298.703479 
L 162.872727 298.044311 
L 163.309091 297.84656 
L 166.363636 297.582893 
L 168.109091 297.154434 
L 171.6 296.660058 
L 172.036364 296.429349 
L 172.472727 296.363432 
L 173.345455 296.066806 
L 176.4 295.539472 
L 177.272727 295.275804 
L 181.2 294.616636 
L 182.072727 294.418886 
L 182.945455 294.385927 
L 184.690909 293.957468 
L 185.127273 293.331258 
L 186.436364 292.803924 
L 187.745455 292.441381 
L 188.181818 292.210672 
L 189.054545 292.04588 
L 190.8 291.518546 
L 191.672727 291.452629 
L 192.545455 291.22192 
L 194.290909 290.760502 
L 194.727273 290.727544 
L 195.6 290.299084 
L 196.036364 290.233168 
L 196.472727 290.002459 
L 201.272727 289.178499 
L 203.018182 288.651164 
L 203.454545 288.354538 
L 205.636364 287.629453 
L 206.509091 287.003244 
L 207.818182 286.739576 
L 217.418182 283.872195 
L 217.854545 283.839236 
L 219.163636 283.443735 
L 219.6 283.443735 
L 220.036364 283.245985 
L 220.909091 283.14711 
L 221.345455 282.982318 
L 223.090909 282.916401 
L 223.963636 282.751609 
L 224.836364 282.290191 
L 226.145455 281.795815 
L 227.018182 281.334397 
L 227.890909 280.872979 
L 228.763636 280.576354 
L 229.2 280.44452 
L 230.072727 279.884227 
L 230.509091 279.389851 
L 231.381818 278.005598 
L 231.818182 277.873764 
L 232.254545 277.873764 
L 233.563636 277.082762 
L 234 276.852053 
L 234.436364 276.753178 
L 234.872727 276.324719 
L 235.745455 275.962176 
L 236.618182 275.533717 
L 238.8 272.666335 
L 241.418182 271.216165 
L 242.290909 270.49108 
L 242.727273 270.227413 
L 243.163636 269.601203 
L 243.6 268.579493 
L 244.036364 267.887366 
L 244.472727 267.524823 
L 244.909091 267.327073 
L 248.4 264.031232 
L 249.272727 263.207272 
L 251.890909 261.526393 
L 252.327273 261.361601 
L 254.072727 260.306932 
L 254.509091 260.109181 
L 256.690909 258.06576 
L 257.563636 257.703217 
L 258.436364 257.077008 
L 258.872727 256.81334 
L 259.309091 256.747423 
L 260.618182 255.98938 
L 261.054545 255.495004 
L 263.236364 254.275543 
L 263.672727 254.110751 
L 264.981818 253.187915 
L 271.527273 250.81491 
L 272.4 249.99095 
L 273.709091 249.331781 
L 274.581818 248.771488 
L 275.454545 248.507821 
L 275.890909 248.211195 
L 276.327273 248.079362 
L 277.636364 247.189485 
L 279.818182 246.695109 
L 281.127273 245.904107 
L 282.436364 245.607481 
L 282.872727 245.508606 
L 284.181818 244.486895 
L 285.927273 243.992519 
L 286.363636 243.629976 
L 288.981818 242.707141 
L 289.854545 242.542349 
L 290.727273 242.179806 
L 293.781818 241.026262 
L 294.654545 240.894428 
L 295.963636 240.433011 
L 298.145455 239.345383 
L 299.890909 238.356631 
L 303.381818 236.873502 
L 303.818182 236.807586 
L 304.690909 236.247293 
L 305.563636 236.016584 
L 306.872727 235.489249 
L 308.618182 235.25854 
L 309.490909 234.797123 
L 309.927273 234.401622 
L 310.363636 233.61062 
L 312.109091 233.116244 
L 313.418182 232.424117 
L 314.290909 232.127491 
L 315.163636 231.666074 
L 317.781818 230.578446 
L 318.654545 230.380696 
L 319.527273 229.919278 
L 319.963636 229.721528 
L 320.4 229.655611 
L 322.581818 228.567983 
L 323.454545 228.00769 
L 324.763636 227.744023 
L 326.945455 227.18373 
L 327.381818 226.821188 
L 328.254545 226.524562 
L 330.436364 225.634685 
L 330.872727 225.305101 
L 331.309091 225.140309 
L 332.181818 224.645933 
L 333.927273 224.08564 
L 334.8 223.525347 
L 335.236364 223.063929 
L 335.672727 222.800262 
L 336.109091 222.701386 
L 336.981818 221.976301 
L 337.418182 221.910385 
L 337.854545 221.1853 
L 338.290909 220.987549 
L 338.727273 220.625007 
L 339.163636 220.55909 
L 340.036364 219.998797 
L 340.909091 219.702171 
L 341.345455 219.372587 
L 341.781818 219.207795 
L 343.527273 218.021292 
L 344.836364 217.329166 
L 345.709091 217.098457 
L 346.581818 216.604081 
L 347.018182 215.846037 
L 347.890909 215.186869 
L 348.327273 215.087994 
L 350.945455 213.802616 
L 351.818182 213.440073 
L 352.690909 212.813863 
L 353.563636 211.923986 
L 357.490909 208.825896 
L 357.927273 208.463353 
L 358.8 208.166728 
L 359.672727 207.573476 
L 360.981818 206.88135 
L 361.418182 206.815433 
L 362.727273 206.090348 
L 363.6 205.530055 
L 367.963636 203.882134 
L 368.4 203.519592 
L 370.145455 202.827465 
L 370.581818 202.695632 
L 371.454545 202.10238 
L 372.327273 201.739838 
L 373.2 201.113628 
L 374.072727 199.333874 
L 374.945455 198.279205 
L 376.254545 197.587078 
L 377.127273 197.224536 
L 377.563636 197.158619 
L 378 196.894952 
L 380.181818 196.169867 
L 380.618182 195.972116 
L 381.490909 195.378865 
L 382.8 194.818572 
L 383.672727 194.324196 
L 384.545455 193.796861 
L 384.981818 193.500235 
L 385.418182 193.005859 
L 386.727273 192.247816 
L 387.163636 192.083024 
L 388.036364 191.555689 
L 389.781818 190.599895 
L 390.218182 190.50102 
L 390.654545 190.138478 
L 393.709091 189.116767 
L 394.145455 188.787183 
L 395.018182 188.523516 
L 395.890909 188.160973 
L 396.327273 187.798431 
L 398.072727 187.172221 
L 398.945455 186.546011 
L 399.818182 186.183468 
L 400.690909 185.491342 
L 401.563636 185.227675 
L 402 184.832174 
L 402.436364 184.766257 
L 403.309091 184.07413 
L 404.181818 183.612713 
L 404.618182 183.414962 
L 405.054545 182.953544 
L 408.109091 181.701125 
L 408.981818 181.305624 
L 410.290909 180.877165 
L 411.163636 180.745331 
L 411.6 180.54758 
L 412.036364 180.481664 
L 412.909091 180.086163 
L 413.345455 180.053204 
L 415.090909 179.394036 
L 416.4 178.438242 
L 416.836364 178.27345 
L 417.709091 177.779074 
L 418.145455 177.64724 
L 420.763636 176.164112 
L 421.2 176.065237 
L 422.509091 175.274235 
L 423.818182 174.812817 
L 424.690909 174.516191 
L 426.436364 173.92294 
L 427.309091 173.626314 
L 429.054545 173.263772 
L 429.490909 173.066021 
L 430.363636 172.835313 
L 430.8 172.637562 
L 431.236364 172.571645 
L 431.672727 172.340936 
L 432.545455 172.176144 
L 433.854545 171.681768 
L 434.727273 171.582893 
L 436.036364 171.286267 
L 438.218182 170.890766 
L 449.563636 167.463092 
L 450 167.001674 
L 452.618182 165.914047 
L 454.363636 165.320795 
L 454.8 165.057128 
L 456.109091 164.661627 
L 456.981818 164.430918 
L 457.418182 164.134292 
L 457.854545 164.035417 
L 458.290909 163.639916 
L 459.6 163.376249 
L 460.472727 162.94779 
L 460.909091 162.420455 
L 462.654545 161.991996 
L 465.709091 161.332828 
L 466.145455 161.332828 
L 466.581818 161.135077 
L 468.327273 160.805493 
L 468.763636 160.607743 
L 470.509091 160.278159 
L 471.381818 159.915616 
L 472.254545 159.750824 
L 474.436364 159.190531 
L 476.181818 158.630238 
L 476.618182 158.531363 
L 477.054545 158.300654 
L 477.927273 158.069945 
L 478.8 157.707403 
L 479.672727 157.377818 
L 480.109091 157.081193 
L 480.981818 156.817526 
L 484.036364 155.663981 
L 485.781818 155.433272 
L 489.272727 154.147894 
L 489.709091 153.81831 
L 490.145455 153.719435 
L 490.581818 153.488726 
L 491.018182 153.455768 
L 495.818182 151.708972 
L 498 151.115721 
L 498.872727 150.687261 
L 500.181818 150.390636 
L 501.927273 148.940466 
L 503.672727 148.182422 
L 504.545455 147.786921 
L 507.163636 146.765211 
L 507.6 146.468585 
L 509.781818 145.7435 
L 511.090909 144.985456 
L 511.527273 144.886581 
L 513.272727 143.897829 
L 515.018182 143.106827 
L 515.454545 142.777243 
L 516.327273 142.480617 
L 518.509091 141.360031 
L 519.818182 140.898614 
L 521.563636 140.173529 
L 522.872727 139.679152 
L 523.309091 139.51436 
L 524.181818 139.382527 
L 524.618182 139.085901 
L 526.363636 138.723359 
L 527.236364 138.360816 
L 528.981818 137.536856 
L 535.090909 134.834266 
L 536.4 134.405807 
L 536.836364 134.109181 
L 537.709091 134.010306 
L 538.145455 133.71368 
L 539.018182 133.548888 
L 539.890909 133.120429 
L 540.327273 132.922679 
L 541.2 132.69197 
L 542.072727 132.428302 
L 543.381818 131.933926 
L 544.690909 131.505467 
L 546 131.208841 
L 547.745455 130.483756 
L 548.618182 129.98938 
L 550.363636 129.099503 
L 551.236364 128.901753 
L 551.672727 128.638085 
L 552.109091 128.53921 
L 553.418182 127.781167 
L 554.290909 127.418624 
L 563.890909 123.694324 
L 565.636364 122.870364 
L 570 121.156526 
L 570.872727 120.728067 
L 571.309091 120.629192 
L 571.745455 120.398483 
L 573.490909 119.904107 
L 575.236364 118.453937 
L 575.672727 118.322103 
L 576.109091 118.058436 
L 577.418182 117.695893 
L 577.854545 117.366309 
L 578.290909 117.267434 
L 579.6 116.476432 
L 580.036364 116.179806 
L 581.345455 115.68543 
L 581.781818 115.454721 
L 583.090909 115.158096 
L 585.272727 114.400052 
L 586.145455 114.103427 
L 587.454545 113.444258 
L 588.327273 113.015799 
L 589.2 112.78509 
L 590.509091 112.15888 
L 594.436364 110.675752 
L 595.745455 109.851792 
L 596.181818 109.752917 
L 597.054545 109.324457 
L 597.927273 108.994873 
L 598.363636 108.599372 
L 599.236364 108.23683 
L 600.545455 107.775412 
L 600.981818 107.412869 
L 601.418182 107.379911 
L 602.290909 107.116244 
L 603.163636 106.819618 
L 603.6 106.621868 
L 604.036364 106.555951 
L 605.345455 106.061575 
L 606.654545 105.567199 
L 608.4 104.776197 
L 609.272727 104.545488 
L 609.709091 104.281821 
L 610.581818 104.051112 
L 611.890909 103.293068 
L 612.327273 103.26011 
L 613.636364 102.831651 
L 614.509091 102.765734 
L 614.945455 102.535025 
L 615.818182 102.304316 
L 616.254545 102.073607 
L 618.436364 101.645148 
L 619.309091 101.480356 
L 620.618182 100.98598 
L 621.927273 100.689354 
L 623.236364 99.997227 
L 623.672727 99.601726 
L 624.981818 98.810725 
L 625.418182 98.48114 
L 626.727273 98.052681 
L 627.6 97.789014 
L 628.036364 97.558305 
L 628.472727 97.45943 
L 628.909091 97.096887 
L 631.527273 95.976301 
L 633.272727 95.514884 
L 634.145455 95.119383 
L 634.581818 94.888674 
L 635.454545 94.625007 
L 635.890909 94.361339 
L 636.763636 94.196547 
L 640.254545 92.68046 
L 640.690909 92.614544 
L 642 91.757625 
L 642.436364 91.691708 
L 644.181818 90.999581 
L 645.927273 90.571122 
L 646.363636 90.505205 
L 646.8 90.307455 
L 647.236364 90.274496 
L 648.109091 89.977871 
L 648.545455 89.944912 
L 649.854545 89.417578 
L 651.6 88.923202 
L 652.472727 88.264033 
L 654.218182 87.275281 
L 655.527273 86.813863 
L 659.018182 85.132985 
L 659.454545 84.902276 
L 659.890909 84.506775 
L 662.072727 83.913523 
L 663.381818 83.320272 
L 664.254545 83.089563 
L 664.690909 82.858854 
L 665.127273 82.496312 
L 666.872727 82.034894 
L 667.309091 81.70531 
L 672.981818 79.62893 
L 673.854545 79.464138 
L 676.036364 78.772012 
L 676.909091 78.409469 
L 677.781818 78.079885 
L 678.654545 77.849176 
L 679.090909 77.651426 
L 679.527273 77.651426 
L 680.4 77.288883 
L 681.272727 76.761549 
L 684.327273 75.739838 
L 686.072727 75.146586 
L 687.381818 74.849961 
L 688.690909 74.421501 
L 689.127273 74.322626 
L 689.563636 74.026001 
L 690.436364 73.82825 
L 692.181818 73.333874 
L 692.618182 73.300916 
L 693.490909 72.905415 
L 696.545455 72.147371 
L 697.418182 71.784829 
L 701.781818 70.796076 
L 703.090909 70.10395 
L 704.4 69.708449 
L 708.763636 68.093487 
L 709.2 67.763903 
L 710.509091 67.467277 
L 711.381818 67.20361 
L 712.254545 66.77515 
L 712.690909 66.412608 
L 713.563636 66.148941 
L 714 65.885273 
L 714.872727 65.786398 
L 717.927273 64.929479 
L 719.236364 64.665812 
L 721.854545 63.808894 
L 723.6 62.984933 
L 728.4 61.205179 
L 729.272727 61.073346 
L 730.145455 60.908553 
L 730.581818 60.908553 
L 732.327273 60.348261 
L 732.763636 60.282344 
L 733.636364 59.919801 
L 734.509091 59.689092 
L 737.127273 58.964007 
L 738 58.733298 
L 738.436364 58.634423 
L 738.872727 58.370756 
L 739.745455 58.205964 
L 740.618182 58.107089 
L 741.054545 57.87638 
L 741.490909 57.843421 
L 742.363636 57.283128 
L 744.109091 56.887628 
L 744.981818 56.492127 
L 745.854545 56.195501 
L 746.727273 55.964792 
L 747.163636 55.8 
L 747.163636 55.8 
" clip-path="url(#pee7e4fbeb5)" style="fill: none; stroke: #1f77b4; stroke-width: 1.5; stroke-linecap: square"/>
   </g>
   <g id="line2d_38">
    <path d="M 138.872727 307.8 
L 142.8 307.701125 
L 146.290909 307.536333 
L 148.036364 307.536333 
L 148.472727 307.404499 
L 150.654545 307.305624 
L 153.272727 307.008998 
L 155.890909 306.910123 
L 156.763636 306.811248 
L 159.818182 306.679414 
L 162.872727 306.580539 
L 165.054545 306.514622 
L 170.727273 306.415747 
L 172.909091 306.34983 
L 176.836364 306.250955 
L 178.581818 306.217996 
L 182.945455 306.119121 
L 184.690909 305.954329 
L 186.436364 305.921371 
L 189.054545 305.822495 
L 190.8 305.789537 
L 192.981818 305.72362 
L 194.727273 305.558828 
L 198.654545 305.459953 
L 199.527273 305.394036 
L 201.272727 305.295161 
L 203.890909 305.196286 
L 205.636364 305.09741 
L 213.490909 304.603034 
L 216.545455 304.504159 
L 217.854545 304.372325 
L 220.036364 304.27345 
L 224.4 304.042741 
L 228.763636 303.976824 
L 230.509091 303.779074 
L 232.254545 303.680199 
L 237.054545 303.218781 
L 240.109091 302.856239 
L 241.418182 302.790322 
L 244.909091 302.328904 
L 247.527273 302.262987 
L 248.836364 302.131154 
L 250.145455 302.032278 
L 262.363636 301.076484 
L 263.236364 300.911692 
L 265.854545 300.812817 
L 272.836364 300.384358 
L 275.890909 300.285483 
L 277.636364 300.087732 
L 279.818182 299.988857 
L 282.436364 299.889982 
L 284.618182 299.791106 
L 286.363636 299.758148 
L 288.545455 299.692231 
L 289.418182 299.560398 
L 295.527273 299.461522 
L 296.4 299.362647 
L 301.636364 299.263772 
L 305.563636 299.066021 
L 308.618182 298.967146 
L 310.363636 298.769396 
L 313.418182 298.670521 
L 314.290909 298.505728 
L 316.472727 298.439812 
L 320.836364 298.373895 
L 322.581818 298.209103 
L 324.327273 298.176144 
L 325.636364 298.077269 
L 327.381818 297.912477 
L 331.745455 297.681768 
L 336.109091 297.582893 
L 340.036364 297.385143 
L 341.345455 297.352184 
L 342.218182 297.220351 
L 344.4 297.121475 
L 345.272727 297.055558 
L 346.145455 296.989642 
L 347.018182 296.923725 
L 350.945455 296.857808 
L 352.254545 296.758933 
L 364.036364 295.967931 
L 366.218182 295.869056 
L 368.4 295.803139 
L 374.509091 295.704264 
L 375.381818 295.57243 
L 381.490909 295.473555 
L 385.854545 295.242846 
L 386.727273 295.209888 
L 387.6 295.111012 
L 389.781818 295.012137 
L 391.963636 294.94622 
L 394.145455 294.847345 
L 396.327273 294.781428 
L 400.254545 294.682553 
L 402.872727 294.583678 
L 408.981818 294.484803 
L 413.781818 294.221135 
L 415.527273 294.155218 
L 416.836364 294.056343 
L 422.945455 293.957468 
L 425.563636 293.858593 
L 433.418182 293.759717 
L 435.163636 293.726759 
L 440.4 293.660842 
L 441.272727 293.594925 
L 447.381818 293.49605 
L 449.127273 293.463092 
L 460.472727 293.364217 
L 463.090909 293.265341 
L 481.418182 293.166466 
L 483.6 293.100549 
L 494.945455 293.034632 
L 495.818182 292.968716 
L 498 292.902799 
L 499.309091 292.770965 
L 501.927273 292.67209 
L 504.981818 292.540256 
L 508.909091 292.441381 
L 511.090909 292.375464 
L 514.145455 292.276589 
L 517.636364 292.111797 
L 519.818182 292.012922 
L 521.563636 291.979963 
L 525.490909 291.881088 
L 527.236364 291.84813 
L 532.909091 291.749255 
L 534.654545 291.716296 
L 536.836364 291.617421 
L 539.454545 291.518546 
L 542.509091 291.452629 
L 543.381818 291.386712 
L 553.854545 291.287837 
L 559.527273 290.958253 
L 561.709091 290.892336 
L 562.581818 290.793461 
L 563.454545 290.727544 
L 566.945455 290.628669 
L 569.563636 290.529793 
L 573.927273 290.430918 
L 576.109091 290.200209 
L 580.472727 290.101334 
L 581.345455 290.002459 
L 585.709091 289.903584 
L 587.890909 289.837667 
L 592.690909 289.804708 
L 593.563636 289.705833 
L 598.363636 289.606958 
L 599.236364 289.541041 
L 608.836364 289.442166 
L 611.454545 289.343291 
L 618 289.244415 
L 619.745455 289.211457 
L 623.672727 289.14554 
L 624.545455 289.046665 
L 630.218182 288.94779 
L 632.4 288.881873 
L 640.254545 288.782998 
L 641.563636 288.684122 
L 642.872727 288.585247 
L 644.181818 288.486372 
L 650.727273 288.387497 
L 653.345455 288.288622 
L 665.127273 288.189746 
L 669.054545 287.991996 
L 674.290909 287.893121 
L 675.163636 287.827204 
L 681.709091 287.761287 
L 682.581818 287.69537 
L 687.381818 287.596495 
L 689.127273 287.563536 
L 695.236364 287.464661 
L 697.854545 287.365786 
L 705.272727 287.266911 
L 707.018182 287.233952 
L 710.945455 287.135077 
L 714.436364 286.970285 
L 719.236364 286.87141 
L 722.290909 286.739576 
L 726.218182 286.640701 
L 727.090909 286.574784 
L 735.818182 286.475909 
L 738 286.409992 
L 740.618182 286.311117 
L 743.236364 286.212242 
L 747.163636 286.146325 
L 747.163636 286.146325 
" clip-path="url(#pee7e4fbeb5)" style="fill: none; stroke: #ff7f0e; stroke-width: 1.5; stroke-linecap: square"/>
   </g>
   <g id="patch_3">
    <path d="M 108 320.4 
L 108 43.2 
" style="fill: none; stroke: #a9a9a9; stroke-width: 0.8; stroke-linejoin: miter; stroke-linecap: square"/>
   </g>
   <g id="patch_4">
    <path d="M 777.6 320.4 
L 777.6 43.2 
" style="fill: none"/>
   </g>
   <g id="patch_5">
    <path d="M 108 320.4 
L 777.6 320.4 
" style="fill: none; stroke: #a9a9a9; stroke-width: 0.8; stroke-linejoin: miter; stroke-linecap: square"/>
   </g>
   <g id="patch_6">
    <path d="M 108 43.2 
L 777.6 43.2 
" style="fill: none"/>
   </g>
   <g id="text_19">
    <!-- get_subscribe history -->
    <g style="fill: #a9a9a9" transform="translate(378.6075 37.2) scale(0.12 -0.12)">
     <defs>
      <path id="DejaVuSans-67" d="M 2906 1791 
Q 2906 2416 2648 2759 
Q 2391 3103 1925 3103 
Q 1463 3103 1205 2759 
Q 947 2416 947 1791 
Q 947 1169 1205 825 
Q 1463 481 1925 481 
Q 2391 481 2648 825 
Q 2906 1169 2906 1791 
z
M 3481 434 
Q 3481 -459 3084 -895 
Q 2688 -1331 1869 -1331 
Q 1566 -1331 1297 -1286 
Q 1028 -1241 775 -1147 
L 775 -588 
Q 1028 -725 1275 -790 
Q 1522 -856 1778 -856 
Q 2344 -856 2625 -561 
Q 2906 -266 2906 331 
L 2906 616 
Q 2728 306 2450 153 
Q 2172 0 1784 0 
Q 1141 0 747 490 
Q 353 981 353 1791 
Q 353 2603 747 3093 
Q 1141 3584 1784 3584 
Q 2172 3584 2450 3431 
Q 2728 3278 2906 2969 
L 2906 3500 
L 3481 3500 
L 3481 434 
z
" transform="scale(0.015625)"/>
      <path id="DejaVuSans-65" d="M 3597 1894 
L 3597 1613 
L 953 1613 
Q 991 1019 1311 708 
Q 1631 397 2203 397 
Q 2534 397 2845 478 
Q 3156 559 3463 722 
L 3463 178 
Q 3153 47 2828 -22 
Q 2503 -91 2169 -91 
Q 1331 -91 842 396 
Q 353 884 353 1716 
Q 353 2575 817 3079 
Q 1281 3584 2069 3584 
Q 2775 3584 3186 3129 
Q 3597 2675 3597 1894 
z
M 3022 2063 
Q 3016 2534 2758 2815 
Q 2500 3097 2075 3097 
Q 1594 3097 1305 2825 
Q 1016 2553 972 2059 
L 3022 2063 
z
" transform="scale(0.015625)"/>
      <path id="DejaVuSans-74" d="M 1172 4494 
L 1172 3500 
L 2356 3500 
L 2356 3053 
L 1172 3053 
L 1172 1153 
Q 1172 725 1289 603 
Q 1406 481 1766 481 
L 2356 481 
L 2356 0 
L 1766 0 
Q 1100 0 847 248 
Q 594 497 594 1153 
L 594 3053 
L 172 3053 
L 172 3500 
L 594 3500 
L 594 4494 
L 1172 4494 
z
" transform="scale(0.015625)"/>
      <path id="DejaVuSans-5f" d="M 3263 -1063 
L 3263 -1509 
L -63 -1509 
L -63 -1063 
L 3263 -1063 
z
" transform="scale(0.015625)"/>
      <path id="DejaVuSans-73" d="M 2834 3397 
L 2834 2853 
Q 2591 2978 2328 3040 
Q 2066 3103 1784 3103 
Q 1356 3103 1142 2972 
Q 928 2841 928 2578 
Q 928 2378 1081 2264 
Q 1234 2150 1697 2047 
L 1894 2003 
Q 2506 1872 2764 1633 
Q 3022 1394 3022 966 
Q 3022 478 2636 193 
Q 2250 -91 1575 -91 
Q 1294 -91 989 -36 
Q 684 19 347 128 
L 347 722 
Q 666 556 975 473 
Q 1284 391 1588 391 
Q 1994 391 2212 530 
Q 2431 669 2431 922 
Q 2431 1156 2273 1281 
Q 2116 1406 1581 1522 
L 1381 1569 
Q 847 1681 609 1914 
Q 372 2147 372 2553 
Q 372 3047 722 3315 
Q 1072 3584 1716 3584 
Q 2034 3584 2315 3537 
Q 2597 3491 2834 3397 
z
" transform="scale(0.015625)"/>
      <path id="DejaVuSans-75" d="M 544 1381 
L 544 3500 
L 1119 3500 
L 1119 1403 
Q 1119 906 1312 657 
Q 1506 409 1894 409 
Q 2359 409 2629 706 
Q 2900 1003 2900 1516 
L 2900 3500 
L 3475 3500 
L 3475 0 
L 2900 0 
L 2900 538 
Q 2691 219 2414 64 
Q 2138 -91 1772 -91 
Q 1169 -91 856 284 
Q 544 659 544 1381 
z
M 1991 3584 
L 1991 3584 
z
" transform="scale(0.015625)"/>
      <path id="DejaVuSans-62" d="M 3116 1747 
Q 3116 2381 2855 2742 
Q 2594 3103 2138 3103 
Q 1681 3103 1420 2742 
Q 1159 2381 1159 1747 
Q 1159 1113 1420 752 
Q 1681 391 2138 391 
Q 2594 391 2855 752 
Q 3116 1113 3116 1747 
z
M 1159 2969 
Q 1341 3281 1617 3432 
Q 1894 3584 2278 3584 
Q 2916 3584 3314 3078 
Q 3713 2572 3713 1747 
Q 3713 922 3314 415 
Q 2916 -91 2278 -91 
Q 1894 -91 1617 61 
Q 1341 213 1159 525 
L 1159 0 
L 581 0 
L 581 4863 
L 1159 4863 
L 1159 2969 
z
" transform="scale(0.015625)"/>
      <path id="DejaVuSans-63" d="M 3122 3366 
L 3122 2828 
Q 2878 2963 2633 3030 
Q 2388 3097 2138 3097 
Q 1578 3097 1268 2742 
Q 959 2388 959 1747 
Q 959 1106 1268 751 
Q 1578 397 2138 397 
Q 2388 397 2633 464 
Q 2878 531 3122 666 
L 3122 134 
Q 2881 22 2623 -34 
Q 2366 -91 2075 -91 
Q 1284 -91 818 406 
Q 353 903 353 1747 
Q 353 2603 823 3093 
Q 1294 3584 2113 3584 
Q 2378 3584 2631 3529 
Q 2884 3475 3122 3366 
z
" transform="scale(0.015625)"/>
      <path id="DejaVuSans-72" d="M 2631 2963 
Q 2534 3019 2420 3045 
Q 2306 3072 2169 3072 
Q 1681 3072 1420 2755 
Q 1159 2438 1159 1844 
L 1159 0 
L 581 0 
L 581 3500 
L 1159 3500 
L 1159 2956 
Q 1341 3275 1631 3429 
Q 1922 3584 2338 3584 
Q 2397 3584 2469 3576 
Q 2541 3569 2628 3553 
L 2631 2963 
z
" transform="scale(0.015625)"/>
      <path id="DejaVuSans-69" d="M 603 3500 
L 1178 3500 
L 1178 0 
L 603 0 
L 603 3500 
z
M 603 4863 
L 1178 4863 
L 1178 4134 
L 603 4134 
L 603 4863 
z
" transform="scale(0.015625)"/>
      <path id="DejaVuSans-20" transform="scale(0.015625)"/>
      <path id="DejaVuSans-68" d="M 3513 2113 
L 3513 0 
L 2938 0 
L 2938 2094 
Q 2938 2591 2744 2837 
Q 2550 3084 2163 3084 
Q 1697 3084 1428 2787 
Q 1159 2491 1159 1978 
L 1159 0 
L 581 0 
L 581 4863 
L 1159 4863 
L 1159 2956 
Q 1366 3272 1645 3428 
Q 1925 3584 2291 3584 
Q 2894 3584 3203 3211 
Q 3513 2838 3513 2113 
z
" transform="scale(0.015625)"/>
      <path id="DejaVuSans-6f" d="M 1959 3097 
Q 1497 3097 1228 2736 
Q 959 2375 959 1747 
Q 959 1119 1226 758 
Q 1494 397 1959 397 
Q 2419 397 2687 759 
Q 2956 1122 2956 1747 
Q 2956 2369 2687 2733 
Q 2419 3097 1959 3097 
z
M 1959 3584 
Q 2709 3584 3137 3096 
Q 3566 2609 3566 1747 
Q 3566 888 3137 398 
Q 2709 -91 1959 -91 
Q 1206 -91 779 398 
Q 353 888 353 1747 
Q 353 2609 779 3096 
Q 1206 3584 1959 3584 
z
" transform="scale(0.015625)"/>
      <path id="DejaVuSans-79" d="M 2059 -325 
Q 1816 -950 1584 -1140 
Q 1353 -1331 966 -1331 
L 506 -1331 
L 506 -850 
L 844 -850 
Q 1081 -850 1212 -737 
Q 1344 -625 1503 -206 
L 1606 56 
L 191 3500 
L 800 3500 
L 1894 763 
L 2988 3500 
L 3597 3500 
L 2059 -325 
z
" transform="scale(0.015625)"/>
     </defs>
     <use xlink:href="#DejaVuSans-67"/>
     <use xlink:href="#DejaVuSans-65" transform="translate(63.476562 0)"/>
     <use xlink:href="#DejaVuSans-74" transform="translate(125 0)"/>
     <use xlink:href="#DejaVuSans-5f" transform="translate(164.208984 0)"/>
     <use xlink:href="#DejaVuSans-73" transform="translate(214.208984 0)"/>
     <use xlink:href="#DejaVuSans-75" transform="translate(266.308594 0)"/>
     <use xlink:href="#DejaVuSans-62" transform="translate(329.6875 0)"/>
     <use xlink:href="#DejaVuSans-73" transform="translate(393.164062 0)"/>
     <use xlink:href="#DejaVuSans-63" transform="translate(445.263672 0)"/>
     <use xlink:href="#DejaVuSans-72" transform="translate(500.244141 0)"/>
     <use xlink:href="#DejaVuSans-69" transform="translate(541.357422 0)"/>
     <use xlink:href="#DejaVuSans-62" transform="translate(569.140625 0)"/>
     <use xlink:href="#DejaVuSans-65" transform="translate(632.617188 0)"/>
     <use xlink:href="#DejaVuSans-20" transform="translate(694.140625 0)"/>
     <use xlink:href="#DejaVuSans-68" transform="translate(725.927734 0)"/>
     <use xlink:href="#DejaVuSans-69" transform="translate(789.306641 0)"/>
     <use xlink:href="#DejaVuSans-73" transform="translate(817.089844 0)"/>
     <use xlink:href="#DejaVuSans-74" transform="translate(869.189453 0)"/>
     <use xlink:href="#DejaVuSans-6f" transform="translate(908.398438 0)"/>
     <use xlink:href="#DejaVuSans-72" transform="translate(969.580078 0)"/>
     <use xlink:href="#DejaVuSans-79" transform="translate(1010.693359 0)"/>
    </g>
   </g>
   <g id="legend_1">
    <g id="line2d_39">
     <path d="M 815.08 328.498438 
L 825.08 328.498438 
L 835.08 328.498438 
" style="fill: none; stroke: #1f77b4; stroke-width: 1.5; stroke-linecap: square"/>
    </g>
    <g id="text_20">
     <!-- star -->
     <g style="fill: #a9a9a9" transform="translate(843.08 331.998438) scale(0.1 -0.1)">
      <defs>
       <path id="DejaVuSans-61" d="M 2194 1759 
Q 1497 1759 1228 1600 
Q 959 1441 959 1056 
Q 959 750 1161 570 
Q 1363 391 1709 391 
Q 2188 391 2477 730 
Q 2766 1069 2766 1631 
L 2766 1759 
L 2194 1759 
z
M 3341 1997 
L 3341 0 
L 2766 0 
L 2766 531 
Q 2569 213 2275 61 
Q 1981 -91 1556 -91 
Q 1019 -91 701 211 
Q 384 513 384 1019 
Q 384 1609 779 1909 
Q 1175 2209 1959 2209 
L 2766 2209 
L 2766 2266 
Q 2766 2663 2505 2880 
Q 2244 3097 1772 3097 
Q 1472 3097 1187 3025 
Q 903 2953 641 2809 
L 641 3341 
Q 956 3463 1253 3523 
Q 1550 3584 1831 3584 
Q 2591 3584 2966 3190 
Q 3341 2797 3341 1997 
z
" transform="scale(0.015625)"/>
      </defs>
      <use xlink:href="#DejaVuSans-73"/>
      <use xlink:href="#DejaVuSans-74" transform="translate(52.099609 0)"/>
      <use xlink:href="#DejaVuSans-61" transform="translate(91.308594 0)"/>
      <use xlink:href="#DejaVuSans-72" transform="translate(152.587891 0)"/>
     </g>
    </g>
    <g id="line2d_40">
     <path d="M 815.08 343.176562 
L 825.08 343.176562 
L 835.08 343.176562 
" style="fill: none; stroke: #ff7f0e; stroke-width: 1.5; stroke-linecap: square"/>
    </g>
    <g id="text_21">
     <!-- fork -->
     <g style="fill: #a9a9a9" transform="translate(843.08 346.676562) scale(0.1 -0.1)">
      <defs>
       <path id="DejaVuSans-66" d="M 2375 4863 
L 2375 4384 
L 1825 4384 
Q 1516 4384 1395 4259 
Q 1275 4134 1275 3809 
L 1275 3500 
L 2222 3500 
L 2222 3053 
L 1275 3053 
L 1275 0 
L 697 0 
L 697 3053 
L 147 3053 
L 147 3500 
L 697 3500 
L 697 3744 
Q 697 4328 969 4595 
Q 1241 4863 1831 4863 
L 2375 4863 
z
" transform="scale(0.015625)"/>
       <path id="DejaVuSans-6b" d="M 581 4863 
L 1159 4863 
L 1159 1991 
L 2875 3500 
L 3609 3500 
L 1753 1863 
L 3688 0 
L 2938 0 
L 1159 1709 
L 1159 0 
L 581 0 
L 581 4863 
z
" transform="scale(0.015625)"/>
      </defs>
      <use xlink:href="#DejaVuSans-66"/>
      <use xlink:href="#DejaVuSans-6f" transform="translate(35.205078 0)"/>
      <use xlink:href="#DejaVuSans-72" transform="translate(96.386719 0)"/>
      <use xlink:href="#DejaVuSans-6b" transform="translate(137.5 0)"/>
     </g>
    </g>
   </g>
  </g>
 </g>
 <defs>
  <clipPath id="pee7e4fbeb5">
   <rect x="108" y="43.2" width="669.6" height="277.2"/>
  </clipPath>
 </defs>
</svg>
