<?xml version="1.0" encoding="utf-8" standalone="no"?>
<!DOCTYPE svg PUBLIC "-//W3C//DTD SVG 1.1//EN"
  "http://www.w3.org/Graphics/SVG/1.1/DTD/svg11.dtd">
<svg xmlns:xlink="http://www.w3.org/1999/xlink" width="864pt" height="360pt" viewBox="0 0 864 360" xmlns="http://www.w3.org/2000/svg" version="1.1">
 <metadata>
  <rdf:RDF xmlns:dc="http://purl.org/dc/elements/1.1/" xmlns:cc="http://creativecommons.org/ns#" xmlns:rdf="http://www.w3.org/1999/02/22-rdf-syntax-ns#">
   <cc:Work>
    <dc:type rdf:resource="http://purl.org/dc/dcmitype/StillImage"/>
    <dc:date>2025-05-21T08:16:15.952019</dc:date>
    <dc:format>image/svg+xml</dc:format>
    <dc:creator>
     <cc:Agent>
      <dc:title>Matplotlib v3.10.3, https://matplotlib.org/</dc:title>
     </cc:Agent>
    </dc:creator>
   </cc:Work>
  </rdf:RDF>
 </metadata>
 <defs>
  <style type="text/css">*{stroke-linejoin: round; stroke-linecap: butt}</style>
 </defs>
 <g id="figure_1">
  <g id="patch_1">
   <path d="M 0 360 
L 864 360 
L 864 0 
L 0 0 
L 0 360 
z
" style="fill: none; opacity: 0"/>
  </g>
  <g id="axes_1">
   <g id="patch_2">
    <path d="M 108 320.4 
L 777.6 320.4 
L 777.6 43.2 
L 108 43.2 
L 108 320.4 
z
" style="fill: none; opacity: 0"/>
   </g>
   <g id="matplotlib.axis_1">
    <g id="xtick_1">
     <g id="line2d_1">
      <path d="M 128.414368 320.4 
L 128.414368 43.2 
" clip-path="url(#p18204f1d11)" style="fill: none; stroke-dasharray: 5.12,1.28,0.8,1.28; stroke-dashoffset: 0; stroke: #b0b0b0; stroke-width: 0.8"/>
     </g>
     <g id="line2d_2">
      <defs>
       <path id="m9be1af7c12" d="M 0 0 
L 0 3.5 
" style="stroke: #a9a9a9; stroke-width: 0.8"/>
      </defs>
      <g>
       <use xlink:href="#m9be1af7c12" x="128.414368" y="320.4" style="fill: #a9a9a9; stroke: #a9a9a9; stroke-width: 0.8"/>
      </g>
     </g>
     <g id="text_1">
      <!-- 2021-07 -->
      <g style="fill: #a9a9a9" transform="translate(107.522962 334.998438) scale(0.1 -0.1)">
       <defs>
        <path id="DejaVuSans-32" d="M 1228 531 
L 3431 531 
L 3431 0 
L 469 0 
L 469 531 
Q 828 903 1448 1529 
Q 2069 2156 2228 2338 
Q 2531 2678 2651 2914 
Q 2772 3150 2772 3378 
Q 2772 3750 2511 3984 
Q 2250 4219 1831 4219 
Q 1534 4219 1204 4116 
Q 875 4013 500 3803 
L 500 4441 
Q 881 4594 1212 4672 
Q 1544 4750 1819 4750 
Q 2544 4750 2975 4387 
Q 3406 4025 3406 3419 
Q 3406 3131 3298 2873 
Q 3191 2616 2906 2266 
Q 2828 2175 2409 1742 
Q 1991 1309 1228 531 
z
" transform="scale(0.015625)"/>
        <path id="DejaVuSans-30" d="M 2034 4250 
Q 1547 4250 1301 3770 
Q 1056 3291 1056 2328 
Q 1056 1369 1301 889 
Q 1547 409 2034 409 
Q 2525 409 2770 889 
Q 3016 1369 3016 2328 
Q 3016 3291 2770 3770 
Q 2525 4250 2034 4250 
z
M 2034 4750 
Q 2819 4750 3233 4129 
Q 3647 3509 3647 2328 
Q 3647 1150 3233 529 
Q 2819 -91 2034 -91 
Q 1250 -91 836 529 
Q 422 1150 422 2328 
Q 422 3509 836 4129 
Q 1250 4750 2034 4750 
z
" transform="scale(0.015625)"/>
        <path id="DejaVuSans-31" d="M 794 531 
L 1825 531 
L 1825 4091 
L 703 3866 
L 703 4441 
L 1819 4666 
L 2450 4666 
L 2450 531 
L 3481 531 
L 3481 0 
L 794 0 
L 794 531 
z
" transform="scale(0.015625)"/>
        <path id="DejaVuSans-2d" d="M 313 2009 
L 1997 2009 
L 1997 1497 
L 313 1497 
L 313 2009 
z
" transform="scale(0.015625)"/>
        <path id="DejaVuSans-37" d="M 525 4666 
L 3525 4666 
L 3525 4397 
L 1831 0 
L 1172 0 
L 2766 4134 
L 525 4134 
L 525 4666 
z
" transform="scale(0.015625)"/>
       </defs>
       <use xlink:href="#DejaVuSans-32"/>
       <use xlink:href="#DejaVuSans-30" transform="translate(63.623047 0)"/>
       <use xlink:href="#DejaVuSans-32" transform="translate(127.246094 0)"/>
       <use xlink:href="#DejaVuSans-31" transform="translate(190.869141 0)"/>
       <use xlink:href="#DejaVuSans-2d" transform="translate(254.492188 0)"/>
       <use xlink:href="#DejaVuSans-30" transform="translate(290.576172 0)"/>
       <use xlink:href="#DejaVuSans-37" transform="translate(354.199219 0)"/>
      </g>
     </g>
    </g>
    <g id="xtick_2">
     <g id="line2d_3">
      <path d="M 208.59033 320.4 
L 208.59033 43.2 
" clip-path="url(#p18204f1d11)" style="fill: none; stroke-dasharray: 5.12,1.28,0.8,1.28; stroke-dashoffset: 0; stroke: #b0b0b0; stroke-width: 0.8"/>
     </g>
     <g id="line2d_4">
      <g>
       <use xlink:href="#m9be1af7c12" x="208.59033" y="320.4" style="fill: #a9a9a9; stroke: #a9a9a9; stroke-width: 0.8"/>
      </g>
     </g>
     <g id="text_2">
      <!-- 2022-01 -->
      <g style="fill: #a9a9a9" transform="translate(187.698924 334.998438) scale(0.1 -0.1)">
       <use xlink:href="#DejaVuSans-32"/>
       <use xlink:href="#DejaVuSans-30" transform="translate(63.623047 0)"/>
       <use xlink:href="#DejaVuSans-32" transform="translate(127.246094 0)"/>
       <use xlink:href="#DejaVuSans-32" transform="translate(190.869141 0)"/>
       <use xlink:href="#DejaVuSans-2d" transform="translate(254.492188 0)"/>
       <use xlink:href="#DejaVuSans-30" transform="translate(290.576172 0)"/>
       <use xlink:href="#DejaVuSans-31" transform="translate(354.199219 0)"/>
      </g>
     </g>
    </g>
    <g id="xtick_3">
     <g id="line2d_5">
      <path d="M 287.459075 320.4 
L 287.459075 43.2 
" clip-path="url(#p18204f1d11)" style="fill: none; stroke-dasharray: 5.12,1.28,0.8,1.28; stroke-dashoffset: 0; stroke: #b0b0b0; stroke-width: 0.8"/>
     </g>
     <g id="line2d_6">
      <g>
       <use xlink:href="#m9be1af7c12" x="287.459075" y="320.4" style="fill: #a9a9a9; stroke: #a9a9a9; stroke-width: 0.8"/>
      </g>
     </g>
     <g id="text_3">
      <!-- 2022-07 -->
      <g style="fill: #a9a9a9" transform="translate(266.567668 334.998438) scale(0.1 -0.1)">
       <use xlink:href="#DejaVuSans-32"/>
       <use xlink:href="#DejaVuSans-30" transform="translate(63.623047 0)"/>
       <use xlink:href="#DejaVuSans-32" transform="translate(127.246094 0)"/>
       <use xlink:href="#DejaVuSans-32" transform="translate(190.869141 0)"/>
       <use xlink:href="#DejaVuSans-2d" transform="translate(254.492188 0)"/>
       <use xlink:href="#DejaVuSans-30" transform="translate(290.576172 0)"/>
       <use xlink:href="#DejaVuSans-37" transform="translate(354.199219 0)"/>
      </g>
     </g>
    </g>
    <g id="xtick_4">
     <g id="line2d_7">
      <path d="M 367.635036 320.4 
L 367.635036 43.2 
" clip-path="url(#p18204f1d11)" style="fill: none; stroke-dasharray: 5.12,1.28,0.8,1.28; stroke-dashoffset: 0; stroke: #b0b0b0; stroke-width: 0.8"/>
     </g>
     <g id="line2d_8">
      <g>
       <use xlink:href="#m9be1af7c12" x="367.635036" y="320.4" style="fill: #a9a9a9; stroke: #a9a9a9; stroke-width: 0.8"/>
      </g>
     </g>
     <g id="text_4">
      <!-- 2023-01 -->
      <g style="fill: #a9a9a9" transform="translate(346.74363 334.998438) scale(0.1 -0.1)">
       <defs>
        <path id="DejaVuSans-33" d="M 2597 2516 
Q 3050 2419 3304 2112 
Q 3559 1806 3559 1356 
Q 3559 666 3084 287 
Q 2609 -91 1734 -91 
Q 1441 -91 1130 -33 
Q 819 25 488 141 
L 488 750 
Q 750 597 1062 519 
Q 1375 441 1716 441 
Q 2309 441 2620 675 
Q 2931 909 2931 1356 
Q 2931 1769 2642 2001 
Q 2353 2234 1838 2234 
L 1294 2234 
L 1294 2753 
L 1863 2753 
Q 2328 2753 2575 2939 
Q 2822 3125 2822 3475 
Q 2822 3834 2567 4026 
Q 2313 4219 1838 4219 
Q 1578 4219 1281 4162 
Q 984 4106 628 3988 
L 628 4550 
Q 988 4650 1302 4700 
Q 1616 4750 1894 4750 
Q 2613 4750 3031 4423 
Q 3450 4097 3450 3541 
Q 3450 3153 3228 2886 
Q 3006 2619 2597 2516 
z
" transform="scale(0.015625)"/>
       </defs>
       <use xlink:href="#DejaVuSans-32"/>
       <use xlink:href="#DejaVuSans-30" transform="translate(63.623047 0)"/>
       <use xlink:href="#DejaVuSans-32" transform="translate(127.246094 0)"/>
       <use xlink:href="#DejaVuSans-33" transform="translate(190.869141 0)"/>
       <use xlink:href="#DejaVuSans-2d" transform="translate(254.492188 0)"/>
       <use xlink:href="#DejaVuSans-30" transform="translate(290.576172 0)"/>
       <use xlink:href="#DejaVuSans-31" transform="translate(354.199219 0)"/>
      </g>
     </g>
    </g>
    <g id="xtick_5">
     <g id="line2d_9">
      <path d="M 446.503781 320.4 
L 446.503781 43.2 
" clip-path="url(#p18204f1d11)" style="fill: none; stroke-dasharray: 5.12,1.28,0.8,1.28; stroke-dashoffset: 0; stroke: #b0b0b0; stroke-width: 0.8"/>
     </g>
     <g id="line2d_10">
      <g>
       <use xlink:href="#m9be1af7c12" x="446.503781" y="320.4" style="fill: #a9a9a9; stroke: #a9a9a9; stroke-width: 0.8"/>
      </g>
     </g>
     <g id="text_5">
      <!-- 2023-07 -->
      <g style="fill: #a9a9a9" transform="translate(425.612375 334.998438) scale(0.1 -0.1)">
       <use xlink:href="#DejaVuSans-32"/>
       <use xlink:href="#DejaVuSans-30" transform="translate(63.623047 0)"/>
       <use xlink:href="#DejaVuSans-32" transform="translate(127.246094 0)"/>
       <use xlink:href="#DejaVuSans-33" transform="translate(190.869141 0)"/>
       <use xlink:href="#DejaVuSans-2d" transform="translate(254.492188 0)"/>
       <use xlink:href="#DejaVuSans-30" transform="translate(290.576172 0)"/>
       <use xlink:href="#DejaVuSans-37" transform="translate(354.199219 0)"/>
      </g>
     </g>
    </g>
    <g id="xtick_6">
     <g id="line2d_11">
      <path d="M 526.679742 320.4 
L 526.679742 43.2 
" clip-path="url(#p18204f1d11)" style="fill: none; stroke-dasharray: 5.12,1.28,0.8,1.28; stroke-dashoffset: 0; stroke: #b0b0b0; stroke-width: 0.8"/>
     </g>
     <g id="line2d_12">
      <g>
       <use xlink:href="#m9be1af7c12" x="526.679742" y="320.4" style="fill: #a9a9a9; stroke: #a9a9a9; stroke-width: 0.8"/>
      </g>
     </g>
     <g id="text_6">
      <!-- 2024-01 -->
      <g style="fill: #a9a9a9" transform="translate(505.788336 334.998438) scale(0.1 -0.1)">
       <defs>
        <path id="DejaVuSans-34" d="M 2419 4116 
L 825 1625 
L 2419 1625 
L 2419 4116 
z
M 2253 4666 
L 3047 4666 
L 3047 1625 
L 3713 1625 
L 3713 1100 
L 3047 1100 
L 3047 0 
L 2419 0 
L 2419 1100 
L 313 1100 
L 313 1709 
L 2253 4666 
z
" transform="scale(0.015625)"/>
       </defs>
       <use xlink:href="#DejaVuSans-32"/>
       <use xlink:href="#DejaVuSans-30" transform="translate(63.623047 0)"/>
       <use xlink:href="#DejaVuSans-32" transform="translate(127.246094 0)"/>
       <use xlink:href="#DejaVuSans-34" transform="translate(190.869141 0)"/>
       <use xlink:href="#DejaVuSans-2d" transform="translate(254.492188 0)"/>
       <use xlink:href="#DejaVuSans-30" transform="translate(290.576172 0)"/>
       <use xlink:href="#DejaVuSans-31" transform="translate(354.199219 0)"/>
      </g>
     </g>
    </g>
    <g id="xtick_7">
     <g id="line2d_13">
      <path d="M 605.984226 320.4 
L 605.984226 43.2 
" clip-path="url(#p18204f1d11)" style="fill: none; stroke-dasharray: 5.12,1.28,0.8,1.28; stroke-dashoffset: 0; stroke: #b0b0b0; stroke-width: 0.8"/>
     </g>
     <g id="line2d_14">
      <g>
       <use xlink:href="#m9be1af7c12" x="605.984226" y="320.4" style="fill: #a9a9a9; stroke: #a9a9a9; stroke-width: 0.8"/>
      </g>
     </g>
     <g id="text_7">
      <!-- 2024-07 -->
      <g style="fill: #a9a9a9" transform="translate(585.09282 334.998438) scale(0.1 -0.1)">
       <use xlink:href="#DejaVuSans-32"/>
       <use xlink:href="#DejaVuSans-30" transform="translate(63.623047 0)"/>
       <use xlink:href="#DejaVuSans-32" transform="translate(127.246094 0)"/>
       <use xlink:href="#DejaVuSans-34" transform="translate(190.869141 0)"/>
       <use xlink:href="#DejaVuSans-2d" transform="translate(254.492188 0)"/>
       <use xlink:href="#DejaVuSans-30" transform="translate(290.576172 0)"/>
       <use xlink:href="#DejaVuSans-37" transform="translate(354.199219 0)"/>
      </g>
     </g>
    </g>
    <g id="xtick_8">
     <g id="line2d_15">
      <path d="M 686.160187 320.4 
L 686.160187 43.2 
" clip-path="url(#p18204f1d11)" style="fill: none; stroke-dasharray: 5.12,1.28,0.8,1.28; stroke-dashoffset: 0; stroke: #b0b0b0; stroke-width: 0.8"/>
     </g>
     <g id="line2d_16">
      <g>
       <use xlink:href="#m9be1af7c12" x="686.160187" y="320.4" style="fill: #a9a9a9; stroke: #a9a9a9; stroke-width: 0.8"/>
      </g>
     </g>
     <g id="text_8">
      <!-- 2025-01 -->
      <g style="fill: #a9a9a9" transform="translate(665.268781 334.998438) scale(0.1 -0.1)">
       <defs>
        <path id="DejaVuSans-35" d="M 691 4666 
L 3169 4666 
L 3169 4134 
L 1269 4134 
L 1269 2991 
Q 1406 3038 1543 3061 
Q 1681 3084 1819 3084 
Q 2600 3084 3056 2656 
Q 3513 2228 3513 1497 
Q 3513 744 3044 326 
Q 2575 -91 1722 -91 
Q 1428 -91 1123 -41 
Q 819 9 494 109 
L 494 744 
Q 775 591 1075 516 
Q 1375 441 1709 441 
Q 2250 441 2565 725 
Q 2881 1009 2881 1497 
Q 2881 1984 2565 2268 
Q 2250 2553 1709 2553 
Q 1456 2553 1204 2497 
Q 953 2441 691 2322 
L 691 4666 
z
" transform="scale(0.015625)"/>
       </defs>
       <use xlink:href="#DejaVuSans-32"/>
       <use xlink:href="#DejaVuSans-30" transform="translate(63.623047 0)"/>
       <use xlink:href="#DejaVuSans-32" transform="translate(127.246094 0)"/>
       <use xlink:href="#DejaVuSans-35" transform="translate(190.869141 0)"/>
       <use xlink:href="#DejaVuSans-2d" transform="translate(254.492188 0)"/>
       <use xlink:href="#DejaVuSans-30" transform="translate(290.576172 0)"/>
       <use xlink:href="#DejaVuSans-31" transform="translate(354.199219 0)"/>
      </g>
     </g>
    </g>
    <g id="xtick_9">
     <g id="line2d_17">
      <path d="M 765.028932 320.4 
L 765.028932 43.2 
" clip-path="url(#p18204f1d11)" style="fill: none; stroke-dasharray: 5.12,1.28,0.8,1.28; stroke-dashoffset: 0; stroke: #b0b0b0; stroke-width: 0.8"/>
     </g>
     <g id="line2d_18">
      <g>
       <use xlink:href="#m9be1af7c12" x="765.028932" y="320.4" style="fill: #a9a9a9; stroke: #a9a9a9; stroke-width: 0.8"/>
      </g>
     </g>
     <g id="text_9">
      <!-- 2025-07 -->
      <g style="fill: #a9a9a9" transform="translate(744.137526 334.998438) scale(0.1 -0.1)">
       <use xlink:href="#DejaVuSans-32"/>
       <use xlink:href="#DejaVuSans-30" transform="translate(63.623047 0)"/>
       <use xlink:href="#DejaVuSans-32" transform="translate(127.246094 0)"/>
       <use xlink:href="#DejaVuSans-35" transform="translate(190.869141 0)"/>
       <use xlink:href="#DejaVuSans-2d" transform="translate(254.492188 0)"/>
       <use xlink:href="#DejaVuSans-30" transform="translate(290.576172 0)"/>
       <use xlink:href="#DejaVuSans-37" transform="translate(354.199219 0)"/>
      </g>
     </g>
    </g>
   </g>
   <g id="matplotlib.axis_2">
    <g id="ytick_1">
     <g id="line2d_19">
      <path d="M 108 307.832928 
L 777.6 307.832928 
" clip-path="url(#p18204f1d11)" style="fill: none; stroke-dasharray: 5.12,1.28,0.8,1.28; stroke-dashoffset: 0; stroke: #b0b0b0; stroke-width: 0.8"/>
     </g>
     <g id="line2d_20">
      <defs>
       <path id="md4f315c393" d="M 0 0 
L -3.5 0 
" style="stroke: #a9a9a9; stroke-width: 0.8"/>
      </defs>
      <g>
       <use xlink:href="#md4f315c393" x="108" y="307.832928" style="fill: #a9a9a9; stroke: #a9a9a9; stroke-width: 0.8"/>
      </g>
     </g>
     <g id="text_10">
      <!-- 0 -->
      <g style="fill: #a9a9a9" transform="translate(94.6375 311.632147) scale(0.1 -0.1)">
       <use xlink:href="#DejaVuSans-30"/>
      </g>
     </g>
    </g>
    <g id="ytick_2">
     <g id="line2d_21">
      <path d="M 108 274.904665 
L 777.6 274.904665 
" clip-path="url(#p18204f1d11)" style="fill: none; stroke-dasharray: 5.12,1.28,0.8,1.28; stroke-dashoffset: 0; stroke: #b0b0b0; stroke-width: 0.8"/>
     </g>
     <g id="line2d_22">
      <g>
       <use xlink:href="#md4f315c393" x="108" y="274.904665" style="fill: #a9a9a9; stroke: #a9a9a9; stroke-width: 0.8"/>
      </g>
     </g>
     <g id="text_11">
      <!-- 1000 -->
      <g style="fill: #a9a9a9" transform="translate(75.55 278.703884) scale(0.1 -0.1)">
       <use xlink:href="#DejaVuSans-31"/>
       <use xlink:href="#DejaVuSans-30" transform="translate(63.623047 0)"/>
       <use xlink:href="#DejaVuSans-30" transform="translate(127.246094 0)"/>
       <use xlink:href="#DejaVuSans-30" transform="translate(190.869141 0)"/>
      </g>
     </g>
    </g>
    <g id="ytick_3">
     <g id="line2d_23">
      <path d="M 108 241.976401 
L 777.6 241.976401 
" clip-path="url(#p18204f1d11)" style="fill: none; stroke-dasharray: 5.12,1.28,0.8,1.28; stroke-dashoffset: 0; stroke: #b0b0b0; stroke-width: 0.8"/>
     </g>
     <g id="line2d_24">
      <g>
       <use xlink:href="#md4f315c393" x="108" y="241.976401" style="fill: #a9a9a9; stroke: #a9a9a9; stroke-width: 0.8"/>
      </g>
     </g>
     <g id="text_12">
      <!-- 2000 -->
      <g style="fill: #a9a9a9" transform="translate(75.55 245.77562) scale(0.1 -0.1)">
       <use xlink:href="#DejaVuSans-32"/>
       <use xlink:href="#DejaVuSans-30" transform="translate(63.623047 0)"/>
       <use xlink:href="#DejaVuSans-30" transform="translate(127.246094 0)"/>
       <use xlink:href="#DejaVuSans-30" transform="translate(190.869141 0)"/>
      </g>
     </g>
    </g>
    <g id="ytick_4">
     <g id="line2d_25">
      <path d="M 108 209.048138 
L 777.6 209.048138 
" clip-path="url(#p18204f1d11)" style="fill: none; stroke-dasharray: 5.12,1.28,0.8,1.28; stroke-dashoffset: 0; stroke: #b0b0b0; stroke-width: 0.8"/>
     </g>
     <g id="line2d_26">
      <g>
       <use xlink:href="#md4f315c393" x="108" y="209.048138" style="fill: #a9a9a9; stroke: #a9a9a9; stroke-width: 0.8"/>
      </g>
     </g>
     <g id="text_13">
      <!-- 3000 -->
      <g style="fill: #a9a9a9" transform="translate(75.55 212.847357) scale(0.1 -0.1)">
       <use xlink:href="#DejaVuSans-33"/>
       <use xlink:href="#DejaVuSans-30" transform="translate(63.623047 0)"/>
       <use xlink:href="#DejaVuSans-30" transform="translate(127.246094 0)"/>
       <use xlink:href="#DejaVuSans-30" transform="translate(190.869141 0)"/>
      </g>
     </g>
    </g>
    <g id="ytick_5">
     <g id="line2d_27">
      <path d="M 108 176.119875 
L 777.6 176.119875 
" clip-path="url(#p18204f1d11)" style="fill: none; stroke-dasharray: 5.12,1.28,0.8,1.28; stroke-dashoffset: 0; stroke: #b0b0b0; stroke-width: 0.8"/>
     </g>
     <g id="line2d_28">
      <g>
       <use xlink:href="#md4f315c393" x="108" y="176.119875" style="fill: #a9a9a9; stroke: #a9a9a9; stroke-width: 0.8"/>
      </g>
     </g>
     <g id="text_14">
      <!-- 4000 -->
      <g style="fill: #a9a9a9" transform="translate(75.55 179.919093) scale(0.1 -0.1)">
       <use xlink:href="#DejaVuSans-34"/>
       <use xlink:href="#DejaVuSans-30" transform="translate(63.623047 0)"/>
       <use xlink:href="#DejaVuSans-30" transform="translate(127.246094 0)"/>
       <use xlink:href="#DejaVuSans-30" transform="translate(190.869141 0)"/>
      </g>
     </g>
    </g>
    <g id="ytick_6">
     <g id="line2d_29">
      <path d="M 108 143.191611 
L 777.6 143.191611 
" clip-path="url(#p18204f1d11)" style="fill: none; stroke-dasharray: 5.12,1.28,0.8,1.28; stroke-dashoffset: 0; stroke: #b0b0b0; stroke-width: 0.8"/>
     </g>
     <g id="line2d_30">
      <g>
       <use xlink:href="#md4f315c393" x="108" y="143.191611" style="fill: #a9a9a9; stroke: #a9a9a9; stroke-width: 0.8"/>
      </g>
     </g>
     <g id="text_15">
      <!-- 5000 -->
      <g style="fill: #a9a9a9" transform="translate(75.55 146.99083) scale(0.1 -0.1)">
       <use xlink:href="#DejaVuSans-35"/>
       <use xlink:href="#DejaVuSans-30" transform="translate(63.623047 0)"/>
       <use xlink:href="#DejaVuSans-30" transform="translate(127.246094 0)"/>
       <use xlink:href="#DejaVuSans-30" transform="translate(190.869141 0)"/>
      </g>
     </g>
    </g>
    <g id="ytick_7">
     <g id="line2d_31">
      <path d="M 108 110.263348 
L 777.6 110.263348 
" clip-path="url(#p18204f1d11)" style="fill: none; stroke-dasharray: 5.12,1.28,0.8,1.28; stroke-dashoffset: 0; stroke: #b0b0b0; stroke-width: 0.8"/>
     </g>
     <g id="line2d_32">
      <g>
       <use xlink:href="#md4f315c393" x="108" y="110.263348" style="fill: #a9a9a9; stroke: #a9a9a9; stroke-width: 0.8"/>
      </g>
     </g>
     <g id="text_16">
      <!-- 6000 -->
      <g style="fill: #a9a9a9" transform="translate(75.55 114.062566) scale(0.1 -0.1)">
       <defs>
        <path id="DejaVuSans-36" d="M 2113 2584 
Q 1688 2584 1439 2293 
Q 1191 2003 1191 1497 
Q 1191 994 1439 701 
Q 1688 409 2113 409 
Q 2538 409 2786 701 
Q 3034 994 3034 1497 
Q 3034 2003 2786 2293 
Q 2538 2584 2113 2584 
z
M 3366 4563 
L 3366 3988 
Q 3128 4100 2886 4159 
Q 2644 4219 2406 4219 
Q 1781 4219 1451 3797 
Q 1122 3375 1075 2522 
Q 1259 2794 1537 2939 
Q 1816 3084 2150 3084 
Q 2853 3084 3261 2657 
Q 3669 2231 3669 1497 
Q 3669 778 3244 343 
Q 2819 -91 2113 -91 
Q 1303 -91 875 529 
Q 447 1150 447 2328 
Q 447 3434 972 4092 
Q 1497 4750 2381 4750 
Q 2619 4750 2861 4703 
Q 3103 4656 3366 4563 
z
" transform="scale(0.015625)"/>
       </defs>
       <use xlink:href="#DejaVuSans-36"/>
       <use xlink:href="#DejaVuSans-30" transform="translate(63.623047 0)"/>
       <use xlink:href="#DejaVuSans-30" transform="translate(127.246094 0)"/>
       <use xlink:href="#DejaVuSans-30" transform="translate(190.869141 0)"/>
      </g>
     </g>
    </g>
    <g id="ytick_8">
     <g id="line2d_33">
      <path d="M 108 77.335084 
L 777.6 77.335084 
" clip-path="url(#p18204f1d11)" style="fill: none; stroke-dasharray: 5.12,1.28,0.8,1.28; stroke-dashoffset: 0; stroke: #b0b0b0; stroke-width: 0.8"/>
     </g>
     <g id="line2d_34">
      <g>
       <use xlink:href="#md4f315c393" x="108" y="77.335084" style="fill: #a9a9a9; stroke: #a9a9a9; stroke-width: 0.8"/>
      </g>
     </g>
     <g id="text_17">
      <!-- 7000 -->
      <g style="fill: #a9a9a9" transform="translate(75.55 81.134303) scale(0.1 -0.1)">
       <use xlink:href="#DejaVuSans-37"/>
       <use xlink:href="#DejaVuSans-30" transform="translate(63.623047 0)"/>
       <use xlink:href="#DejaVuSans-30" transform="translate(127.246094 0)"/>
       <use xlink:href="#DejaVuSans-30" transform="translate(190.869141 0)"/>
      </g>
     </g>
    </g>
    <g id="ytick_9">
     <g id="line2d_35">
      <path d="M 108 44.406821 
L 777.6 44.406821 
" clip-path="url(#p18204f1d11)" style="fill: none; stroke-dasharray: 5.12,1.28,0.8,1.28; stroke-dashoffset: 0; stroke: #b0b0b0; stroke-width: 0.8"/>
     </g>
     <g id="line2d_36">
      <g>
       <use xlink:href="#md4f315c393" x="108" y="44.406821" style="fill: #a9a9a9; stroke: #a9a9a9; stroke-width: 0.8"/>
      </g>
     </g>
     <g id="text_18">
      <!-- 8000 -->
      <g style="fill: #a9a9a9" transform="translate(75.55 48.20604) scale(0.1 -0.1)">
       <defs>
        <path id="DejaVuSans-38" d="M 2034 2216 
Q 1584 2216 1326 1975 
Q 1069 1734 1069 1313 
Q 1069 891 1326 650 
Q 1584 409 2034 409 
Q 2484 409 2743 651 
Q 3003 894 3003 1313 
Q 3003 1734 2745 1975 
Q 2488 2216 2034 2216 
z
M 1403 2484 
Q 997 2584 770 2862 
Q 544 3141 544 3541 
Q 544 4100 942 4425 
Q 1341 4750 2034 4750 
Q 2731 4750 3128 4425 
Q 3525 4100 3525 3541 
Q 3525 3141 3298 2862 
Q 3072 2584 2669 2484 
Q 3125 2378 3379 2068 
Q 3634 1759 3634 1313 
Q 3634 634 3220 271 
Q 2806 -91 2034 -91 
Q 1263 -91 848 271 
Q 434 634 434 1313 
Q 434 1759 690 2068 
Q 947 2378 1403 2484 
z
M 1172 3481 
Q 1172 3119 1398 2916 
Q 1625 2713 2034 2713 
Q 2441 2713 2670 2916 
Q 2900 3119 2900 3481 
Q 2900 3844 2670 4047 
Q 2441 4250 2034 4250 
Q 1625 4250 1398 4047 
Q 1172 3844 1172 3481 
z
" transform="scale(0.015625)"/>
       </defs>
       <use xlink:href="#DejaVuSans-38"/>
       <use xlink:href="#DejaVuSans-30" transform="translate(63.623047 0)"/>
       <use xlink:href="#DejaVuSans-30" transform="translate(127.246094 0)"/>
       <use xlink:href="#DejaVuSans-30" transform="translate(190.869141 0)"/>
      </g>
     </g>
    </g>
   </g>
   <g id="line2d_37">
    <path d="M 138.436364 307.734143 
L 141.050797 307.503646 
L 141.486536 307.306076 
L 143.229492 307.075578 
L 144.972447 306.713367 
L 145.843925 306.581654 
L 148.02262 306.384085 
L 148.894098 306.021874 
L 149.329837 305.429165 
L 149.765576 305.132811 
L 150.201315 304.144963 
L 150.637053 304.079106 
L 151.072792 303.716895 
L 151.94427 303.2559 
L 153.687226 301.807056 
L 155.430182 300.917993 
L 156.737398 300.292356 
L 157.173137 299.567934 
L 158.044615 298.909369 
L 158.480354 298.711799 
L 162.837743 298.053234 
L 163.273482 297.855664 
L 166.323655 297.592238 
L 168.06661 297.164171 
L 171.552522 296.670247 
L 171.988261 296.439749 
L 172.423999 296.373893 
L 173.295477 296.077538 
L 176.34565 295.550686 
L 177.217128 295.28726 
L 181.138778 294.628695 
L 182.010256 294.431125 
L 182.881734 294.398197 
L 184.624689 293.970129 
L 185.060428 293.344492 
L 186.367645 292.81764 
L 187.674862 292.455429 
L 188.110601 292.224931 
L 188.982078 292.06029 
L 190.725034 291.533438 
L 191.596512 291.467581 
L 192.46799 291.237083 
L 194.210946 290.776088 
L 194.646684 290.74316 
L 195.518162 290.315092 
L 195.953901 290.249236 
L 196.38964 290.018738 
L 201.182768 289.195531 
L 202.925724 288.668679 
L 203.361463 288.372325 
L 205.540157 287.647903 
L 206.411635 287.022266 
L 207.718852 286.75884 
L 217.305108 283.894081 
L 217.740847 283.861152 
L 219.048064 283.466013 
L 219.483803 283.466013 
L 219.919542 283.268444 
L 220.79102 283.169659 
L 221.226759 283.005018 
L 222.969714 282.939161 
L 223.841192 282.77452 
L 224.71267 282.313524 
L 226.019887 281.8196 
L 226.891365 281.358604 
L 227.762842 280.897609 
L 228.63432 280.601254 
L 229.070059 280.469541 
L 229.941537 279.909761 
L 230.377276 279.415837 
L 231.248754 278.03285 
L 231.684493 277.901137 
L 232.120232 277.901137 
L 233.427448 277.110858 
L 233.863187 276.880361 
L 234.298926 276.781576 
L 234.734665 276.353508 
L 235.606143 275.991298 
L 236.477621 275.56323 
L 238.656315 272.698471 
L 241.270749 271.249628 
L 242.142227 270.525206 
L 242.577966 270.26178 
L 243.013705 269.636143 
L 243.449444 268.615367 
L 243.885183 267.923873 
L 244.320921 267.561662 
L 244.75666 267.364093 
L 248.242572 264.071266 
L 249.11405 263.24806 
L 251.728483 261.568718 
L 252.164222 261.404077 
L 253.907178 260.350372 
L 254.342917 260.152803 
L 256.521611 258.11125 
L 257.393089 257.74904 
L 258.264567 257.123403 
L 258.700306 256.859976 
L 259.136045 256.79412 
L 260.443262 256.03677 
L 260.879 255.542846 
L 263.057695 254.3245 
L 263.493434 254.159859 
L 264.800651 253.237868 
L 271.336735 250.867033 
L 272.208212 250.043826 
L 273.515429 249.385261 
L 274.386907 248.82548 
L 275.258385 248.562054 
L 275.694124 248.2657 
L 276.129863 248.133987 
L 277.437079 247.244924 
L 279.615774 246.751 
L 280.922991 245.960721 
L 282.230208 245.664367 
L 282.665947 245.565582 
L 283.973163 244.544806 
L 285.716119 244.050882 
L 286.151858 243.688671 
L 288.766291 242.76668 
L 289.637769 242.602038 
L 290.509247 242.239828 
L 293.55942 241.087338 
L 294.430897 240.955625 
L 295.738114 240.49463 
L 297.916809 239.407997 
L 299.659764 238.420149 
L 303.145676 236.938377 
L 303.581415 236.872521 
L 304.452893 236.31274 
L 305.32437 236.082242 
L 306.631587 235.55539 
L 308.374543 235.324892 
L 309.246021 234.863897 
L 309.68176 234.468757 
L 310.117499 233.678479 
L 311.860454 233.184555 
L 313.167671 232.493062 
L 314.039149 232.196707 
L 314.910627 231.735711 
L 317.52506 230.649079 
L 318.396538 230.451509 
L 319.268016 229.990514 
L 319.703755 229.792944 
L 320.139494 229.727087 
L 322.318188 228.640455 
L 323.189666 228.080674 
L 324.496883 227.817248 
L 326.675578 227.257468 
L 327.111316 226.895257 
L 327.982794 226.598902 
L 330.161489 225.709839 
L 330.597228 225.380557 
L 331.032967 225.215915 
L 331.904445 224.721991 
L 333.6474 224.162211 
L 334.518878 223.60243 
L 334.954617 223.141435 
L 335.390356 222.878009 
L 335.826095 222.779224 
L 336.697573 222.054802 
L 337.133312 221.988946 
L 337.569051 221.264524 
L 338.004789 221.066954 
L 338.440528 220.704743 
L 338.876267 220.638887 
L 339.747745 220.079106 
L 340.619223 219.782752 
L 341.054962 219.453469 
L 341.490701 219.288828 
L 343.233657 218.10341 
L 344.540873 217.411917 
L 345.412351 217.181419 
L 346.283829 216.687495 
L 346.719568 215.930145 
L 347.591046 215.27158 
L 348.026785 215.172795 
L 350.641218 213.888593 
L 351.512696 213.526382 
L 352.384174 212.900745 
L 353.255652 212.011682 
L 357.177302 208.916425 
L 357.613041 208.554214 
L 358.484519 208.25786 
L 359.355997 207.665151 
L 360.663213 206.973657 
L 361.098952 206.907801 
L 362.406169 206.183379 
L 363.277647 205.623599 
L 367.635036 203.977185 
L 368.070775 203.614975 
L 369.813731 202.923481 
L 370.24947 202.791768 
L 371.120947 202.199059 
L 371.992425 201.836848 
L 372.863903 201.211211 
L 373.735381 199.433085 
L 374.606859 198.379381 
L 375.914076 197.687887 
L 376.785553 197.325676 
L 377.221292 197.25982 
L 377.657031 196.996394 
L 379.835726 196.271972 
L 380.271465 196.074402 
L 381.142943 195.481693 
L 382.450159 194.921913 
L 383.321637 194.427989 
L 384.193115 193.901137 
L 384.628854 193.604782 
L 385.064593 193.110858 
L 386.37181 192.353508 
L 386.807549 192.188867 
L 387.679026 191.662015 
L 389.421982 190.707095 
L 389.857721 190.60831 
L 390.29346 190.2461 
L 393.343632 189.225323 
L 393.779371 188.896041 
L 394.650849 188.632615 
L 395.522327 188.270404 
L 395.958066 187.908193 
L 397.701022 187.282556 
L 398.5725 186.656919 
L 399.443977 186.294708 
L 400.315455 185.603214 
L 401.186933 185.339788 
L 401.622672 184.944649 
L 402.058411 184.878793 
L 402.929889 184.187299 
L 403.801367 183.726303 
L 404.237105 183.528734 
L 404.672844 183.067738 
L 407.723017 181.816464 
L 408.594495 181.421325 
L 409.901711 180.993258 
L 410.773189 180.861544 
L 411.208928 180.663975 
L 411.644667 180.598118 
L 412.516145 180.202979 
L 412.951884 180.170051 
L 414.69484 179.511486 
L 416.002056 178.556566 
L 416.437795 178.391925 
L 417.309273 177.898001 
L 417.745012 177.766288 
L 420.359446 176.284516 
L 420.795184 176.185731 
L 422.102401 175.395453 
L 423.409618 174.934457 
L 424.281096 174.638103 
L 426.024052 174.045394 
L 426.895529 173.74904 
L 428.638485 173.386829 
L 429.074224 173.189259 
L 429.945702 172.958761 
L 430.381441 172.761192 
L 430.81718 172.695335 
L 431.252919 172.464837 
L 432.124396 172.300196 
L 433.431613 171.806272 
L 434.303091 171.707487 
L 435.610308 171.411133 
L 437.789002 171.015994 
L 449.118214 167.591454 
L 449.553953 167.130459 
L 452.168387 166.043826 
L 453.911342 165.451117 
L 454.347081 165.187691 
L 455.654298 164.792552 
L 456.525776 164.562054 
L 456.961515 164.2657 
L 457.397254 164.166915 
L 457.832993 163.771776 
L 459.14021 163.50835 
L 460.011687 163.080282 
L 460.447426 162.55343 
L 462.190382 162.125363 
L 465.240554 161.466797 
L 465.676293 161.466797 
L 466.112032 161.269228 
L 467.854988 160.939945 
L 468.290727 160.742376 
L 470.033683 160.413093 
L 470.90516 160.050882 
L 471.776638 159.886241 
L 473.955333 159.32646 
L 475.698289 158.76668 
L 476.134027 158.667895 
L 476.569766 158.437397 
L 477.441244 158.206899 
L 478.312722 157.844688 
L 479.1842 157.515406 
L 479.619939 157.219051 
L 480.491417 156.955625 
L 483.541589 155.803136 
L 485.284545 155.572638 
L 488.770456 154.288436 
L 489.206195 153.959153 
L 489.641934 153.860368 
L 490.077673 153.629871 
L 490.513412 153.596942 
L 495.30654 151.851744 
L 497.485235 151.259036 
L 498.356712 150.830968 
L 499.663929 150.534614 
L 501.406885 149.08577 
L 503.149841 148.32842 
L 504.021318 147.933281 
L 506.635752 146.912505 
L 507.071491 146.616151 
L 509.250185 145.891729 
L 510.557402 145.134379 
L 510.993141 145.035594 
L 512.736097 144.047746 
L 514.479053 143.257468 
L 514.914791 142.928185 
L 515.786269 142.631831 
L 517.964964 141.51227 
L 519.272181 141.051274 
L 521.015136 140.326852 
L 522.322353 139.832928 
L 522.758092 139.668287 
L 523.62957 139.536574 
L 524.065309 139.24022 
L 525.808264 138.878009 
L 526.679742 138.515798 
L 528.422698 137.692591 
L 534.523043 134.992474 
L 535.83026 134.564406 
L 536.265999 134.268052 
L 537.137476 134.169267 
L 537.573215 133.872913 
L 538.444693 133.708271 
L 539.316171 133.280204 
L 539.75191 133.082634 
L 540.623388 132.852136 
L 541.494866 132.58871 
L 542.802082 132.094786 
L 544.109299 131.666719 
L 545.416516 131.370365 
L 547.159472 130.645943 
L 548.030949 130.152019 
L 549.773905 129.262956 
L 550.645383 129.065386 
L 551.081122 128.80196 
L 551.516861 128.703175 
L 552.824078 127.945825 
L 553.695555 127.583614 
L 563.281812 123.862721 
L 565.024767 123.039514 
L 569.382157 121.327244 
L 570.253634 120.899177 
L 570.689373 120.800392 
L 571.125112 120.569894 
L 572.868068 120.07597 
L 574.611024 118.627127 
L 575.046763 118.495414 
L 575.482501 118.231987 
L 576.789718 117.869777 
L 577.225457 117.540494 
L 577.661196 117.441709 
L 578.968413 116.651431 
L 579.404152 116.355076 
L 580.711369 115.861152 
L 581.147107 115.630655 
L 582.454324 115.3343 
L 584.633019 114.57695 
L 585.504497 114.280596 
L 586.811713 113.622031 
L 587.683191 113.193963 
L 588.554669 112.963465 
L 589.861886 112.337828 
L 593.783536 110.856056 
L 595.090753 110.03285 
L 595.526492 109.934065 
L 596.39797 109.505998 
L 597.269448 109.176715 
L 597.705186 108.781576 
L 598.576664 108.419365 
L 599.883881 107.958369 
L 600.31962 107.596158 
L 600.755359 107.56323 
L 601.626837 107.299804 
L 602.498315 107.00345 
L 602.934053 106.80588 
L 603.369792 106.740024 
L 604.677009 106.2461 
L 605.984226 105.752176 
L 607.727182 104.961897 
L 608.598659 104.731399 
L 609.034398 104.467973 
L 609.905876 104.237475 
L 611.213093 103.480125 
L 611.648832 103.447197 
L 612.956049 103.01913 
L 613.827527 102.953273 
L 614.263265 102.722775 
L 615.134743 102.492278 
L 615.570482 102.26178 
L 617.749177 101.833712 
L 618.620655 101.669071 
L 619.927871 101.175147 
L 621.235088 100.878793 
L 622.542305 100.187299 
L 622.978044 99.79216 
L 624.285261 99.001882 
L 624.721 98.672599 
L 626.028216 98.244532 
L 626.899694 97.981105 
L 627.335433 97.750608 
L 627.771172 97.651823 
L 628.206911 97.289612 
L 630.821344 96.170051 
L 632.5643 95.709055 
L 633.435778 95.313916 
L 633.871517 95.083418 
L 634.742995 94.819992 
L 635.178734 94.556566 
L 636.050211 94.391925 
L 639.536123 92.877225 
L 639.971862 92.811368 
L 641.279079 91.955233 
L 641.714817 91.889377 
L 643.457773 91.197883 
L 645.200729 90.769816 
L 645.636468 90.703959 
L 646.072207 90.50639 
L 646.507946 90.473461 
L 647.379423 90.177107 
L 647.815162 90.144179 
L 649.122379 89.617327 
L 650.865335 89.123403 
L 651.736813 88.464837 
L 653.479768 87.476989 
L 654.786985 87.015994 
L 658.272896 85.336652 
L 658.708635 85.106154 
L 659.144374 84.711015 
L 661.323069 84.118307 
L 662.630286 83.525598 
L 663.501764 83.2951 
L 663.937502 83.064602 
L 664.373241 82.702391 
L 666.116197 82.241396 
L 666.551936 81.912113 
L 672.216542 79.837632 
L 673.08802 79.672991 
L 675.266714 78.981497 
L 676.138192 78.619287 
L 677.00967 78.290004 
L 677.881148 78.059506 
L 678.316887 77.861936 
L 678.752626 77.861936 
L 679.624104 77.499726 
L 680.495581 76.972873 
L 683.545754 75.952097 
L 685.28871 75.359388 
L 686.595926 75.063034 
L 687.903143 74.634967 
L 688.338882 74.536182 
L 688.774621 74.239828 
L 689.646099 74.042258 
L 691.389054 73.548334 
L 691.824793 73.515406 
L 692.696271 73.120267 
L 695.746444 72.362917 
L 696.617922 72.000706 
L 700.975311 71.012858 
L 702.282527 70.321364 
L 703.589744 69.926225 
L 707.947133 68.31274 
L 708.382872 67.983457 
L 709.690089 67.687103 
L 710.561567 67.423677 
L 711.433045 66.99561 
L 711.868784 66.633399 
L 712.740262 66.369973 
L 713.176001 66.106546 
L 714.047478 66.007762 
L 717.097651 65.151627 
L 718.404868 64.888201 
L 721.019301 64.032066 
L 722.762257 63.208859 
L 727.555385 61.430733 
L 728.426863 61.29902 
L 729.298341 61.134379 
L 729.73408 61.134379 
L 731.477035 60.574598 
L 731.912774 60.508742 
L 732.784252 60.146531 
L 733.65573 59.916033 
L 736.270163 59.191611 
L 737.141641 58.961113 
L 737.57738 58.862328 
L 738.013119 58.598902 
L 738.884597 58.434261 
L 739.756075 58.335476 
L 740.191814 58.104978 
L 740.627553 58.07205 
L 741.49903 57.51227 
L 743.241986 57.117131 
L 744.113464 56.721991 
L 744.984942 56.425637 
L 745.85642 56.195139 
L 746.727897 55.8 
L 747.163636 55.8 
L 747.163636 55.8 
" clip-path="url(#p18204f1d11)" style="fill: none; stroke: #1f77b4; stroke-width: 1.5; stroke-linecap: square"/>
   </g>
   <g id="line2d_38">
    <path d="M 138.872103 307.8 
L 142.793753 307.701215 
L 146.279664 307.536574 
L 148.02262 307.536574 
L 148.458359 307.404861 
L 150.637053 307.306076 
L 153.251487 307.009722 
L 155.86592 306.910937 
L 156.737398 306.812152 
L 159.787571 306.680439 
L 162.837743 306.581654 
L 165.016438 306.515798 
L 170.681044 306.417013 
L 172.859738 306.351156 
L 176.781389 306.252372 
L 178.524344 306.219443 
L 182.881734 306.120659 
L 184.624689 305.956017 
L 186.367645 305.923089 
L 188.982078 305.824304 
L 190.725034 305.791376 
L 192.903729 305.725519 
L 194.646684 305.560878 
L 198.568335 305.462093 
L 199.439813 305.396237 
L 201.182768 305.297452 
L 203.797202 305.198667 
L 205.540157 305.099882 
L 213.383458 304.605958 
L 216.433631 304.507174 
L 217.740847 304.375461 
L 219.919542 304.276676 
L 224.276931 304.046178 
L 228.63432 303.980321 
L 230.377276 303.782752 
L 232.120232 303.683967 
L 236.91336 303.222971 
L 239.963532 302.86076 
L 241.270749 302.794904 
L 244.75666 302.333908 
L 247.371094 302.268052 
L 248.678311 302.136339 
L 249.985527 302.037554 
L 262.186217 301.082634 
L 263.057695 300.917993 
L 265.672129 300.819208 
L 272.643951 300.391141 
L 275.694124 300.292356 
L 277.437079 300.094786 
L 279.615774 299.996002 
L 282.230208 299.897217 
L 284.408902 299.798432 
L 286.151858 299.765504 
L 288.330552 299.699647 
L 289.20203 299.567934 
L 295.302375 299.469149 
L 296.173853 299.370365 
L 301.40272 299.27158 
L 305.32437 299.07401 
L 308.374543 298.975225 
L 310.117499 298.777656 
L 313.167671 298.678871 
L 314.039149 298.51423 
L 316.217843 298.448373 
L 320.575233 298.382517 
L 322.318188 298.217875 
L 324.061144 298.184947 
L 325.368361 298.086162 
L 327.111316 297.921521 
L 331.468706 297.691023 
L 335.826095 297.592238 
L 339.747745 297.394669 
L 341.054962 297.36174 
L 341.92644 297.230027 
L 344.105134 297.131243 
L 344.976612 297.065386 
L 345.84809 296.99953 
L 346.719568 296.933673 
L 350.641218 296.867817 
L 351.948435 296.769032 
L 363.713386 295.978753 
L 365.89208 295.879969 
L 368.070775 295.814112 
L 374.17112 295.715327 
L 375.042598 295.583614 
L 381.142943 295.484829 
L 385.500332 295.254332 
L 386.37181 295.221403 
L 387.243288 295.122619 
L 389.421982 295.023834 
L 391.600677 294.957977 
L 393.779371 294.859192 
L 395.958066 294.793336 
L 399.879716 294.694551 
L 402.49415 294.595766 
L 408.594495 294.496982 
L 413.387623 294.233555 
L 415.130579 294.167699 
L 416.437795 294.068914 
L 422.53814 293.970129 
L 425.152574 293.871345 
L 432.995874 293.77256 
L 434.73883 293.739632 
L 439.967697 293.673775 
L 440.839175 293.607918 
L 446.93952 293.509134 
L 448.682475 293.476205 
L 460.011687 293.377421 
L 462.626121 293.278636 
L 480.927156 293.179851 
L 483.10585 293.113995 
L 494.435062 293.048138 
L 495.30654 292.982281 
L 497.485235 292.916425 
L 498.792451 292.784712 
L 501.406885 292.685927 
L 504.457057 292.554214 
L 508.378708 292.455429 
L 510.557402 292.389573 
L 513.607575 292.290788 
L 517.093486 292.126147 
L 519.272181 292.027362 
L 521.015136 291.994434 
L 524.936787 291.895649 
L 526.679742 291.862721 
L 532.344348 291.763936 
L 534.087304 291.731007 
L 536.265999 291.632223 
L 538.880432 291.533438 
L 541.930605 291.467581 
L 542.802082 291.401725 
L 553.259816 291.30294 
L 558.924422 290.973657 
L 561.103117 290.907801 
L 561.974595 290.809016 
L 562.846073 290.74316 
L 566.331984 290.644375 
L 568.946418 290.54559 
L 573.303807 290.446805 
L 575.482501 290.216307 
L 579.839891 290.117523 
L 580.711369 290.018738 
L 585.068758 289.919953 
L 587.247452 289.854096 
L 592.04058 289.821168 
L 592.912058 289.722383 
L 597.705186 289.623599 
L 598.576664 289.557742 
L 608.162921 289.458957 
L 610.777354 289.360172 
L 617.313438 289.261388 
L 619.056394 289.228459 
L 622.978044 289.162603 
L 623.849522 289.063818 
L 629.514128 288.965033 
L 631.692822 288.899177 
L 639.536123 288.800392 
L 640.84334 288.701607 
L 642.150556 288.602822 
L 643.457773 288.504038 
L 649.993857 288.405253 
L 652.60829 288.306468 
L 664.373241 288.207683 
L 668.294892 288.010114 
L 673.523759 287.911329 
L 674.395237 287.845472 
L 680.93132 287.779616 
L 681.802798 287.713759 
L 686.595926 287.614975 
L 688.338882 287.582046 
L 694.439227 287.483261 
L 697.05366 287.384477 
L 704.461222 287.285692 
L 706.204178 287.252764 
L 710.125828 287.153979 
L 713.611739 286.989338 
L 718.404868 286.890553 
L 721.45504 286.75884 
L 725.37669 286.660055 
L 726.248168 286.594198 
L 734.962947 286.495414 
L 737.141641 286.429557 
L 739.756075 286.330772 
L 742.370508 286.231987 
L 747.163636 286.166131 
L 747.163636 286.166131 
" clip-path="url(#p18204f1d11)" style="fill: none; stroke: #ff7f0e; stroke-width: 1.5; stroke-linecap: square"/>
   </g>
   <g id="patch_3">
    <path d="M 108 320.4 
L 108 43.2 
" style="fill: none; stroke: #a9a9a9; stroke-width: 0.8; stroke-linejoin: miter; stroke-linecap: square"/>
   </g>
   <g id="patch_4">
    <path d="M 777.6 320.4 
L 777.6 43.2 
" style="fill: none"/>
   </g>
   <g id="patch_5">
    <path d="M 108 320.4 
L 777.6 320.4 
" style="fill: none; stroke: #a9a9a9; stroke-width: 0.8; stroke-linejoin: miter; stroke-linecap: square"/>
   </g>
   <g id="patch_6">
    <path d="M 108 43.2 
L 777.6 43.2 
" style="fill: none"/>
   </g>
   <g id="text_19">
    <!-- get_subscribe history -->
    <g style="fill: #a9a9a9" transform="translate(378.6075 37.2) scale(0.12 -0.12)">
     <defs>
      <path id="DejaVuSans-67" d="M 2906 1791 
Q 2906 2416 2648 2759 
Q 2391 3103 1925 3103 
Q 1463 3103 1205 2759 
Q 947 2416 947 1791 
Q 947 1169 1205 825 
Q 1463 481 1925 481 
Q 2391 481 2648 825 
Q 2906 1169 2906 1791 
z
M 3481 434 
Q 3481 -459 3084 -895 
Q 2688 -1331 1869 -1331 
Q 1566 -1331 1297 -1286 
Q 1028 -1241 775 -1147 
L 775 -588 
Q 1028 -725 1275 -790 
Q 1522 -856 1778 -856 
Q 2344 -856 2625 -561 
Q 2906 -266 2906 331 
L 2906 616 
Q 2728 306 2450 153 
Q 2172 0 1784 0 
Q 1141 0 747 490 
Q 353 981 353 1791 
Q 353 2603 747 3093 
Q 1141 3584 1784 3584 
Q 2172 3584 2450 3431 
Q 2728 3278 2906 2969 
L 2906 3500 
L 3481 3500 
L 3481 434 
z
" transform="scale(0.015625)"/>
      <path id="DejaVuSans-65" d="M 3597 1894 
L 3597 1613 
L 953 1613 
Q 991 1019 1311 708 
Q 1631 397 2203 397 
Q 2534 397 2845 478 
Q 3156 559 3463 722 
L 3463 178 
Q 3153 47 2828 -22 
Q 2503 -91 2169 -91 
Q 1331 -91 842 396 
Q 353 884 353 1716 
Q 353 2575 817 3079 
Q 1281 3584 2069 3584 
Q 2775 3584 3186 3129 
Q 3597 2675 3597 1894 
z
M 3022 2063 
Q 3016 2534 2758 2815 
Q 2500 3097 2075 3097 
Q 1594 3097 1305 2825 
Q 1016 2553 972 2059 
L 3022 2063 
z
" transform="scale(0.015625)"/>
      <path id="DejaVuSans-74" d="M 1172 4494 
L 1172 3500 
L 2356 3500 
L 2356 3053 
L 1172 3053 
L 1172 1153 
Q 1172 725 1289 603 
Q 1406 481 1766 481 
L 2356 481 
L 2356 0 
L 1766 0 
Q 1100 0 847 248 
Q 594 497 594 1153 
L 594 3053 
L 172 3053 
L 172 3500 
L 594 3500 
L 594 4494 
L 1172 4494 
z
" transform="scale(0.015625)"/>
      <path id="DejaVuSans-5f" d="M 3263 -1063 
L 3263 -1509 
L -63 -1509 
L -63 -1063 
L 3263 -1063 
z
" transform="scale(0.015625)"/>
      <path id="DejaVuSans-73" d="M 2834 3397 
L 2834 2853 
Q 2591 2978 2328 3040 
Q 2066 3103 1784 3103 
Q 1356 3103 1142 2972 
Q 928 2841 928 2578 
Q 928 2378 1081 2264 
Q 1234 2150 1697 2047 
L 1894 2003 
Q 2506 1872 2764 1633 
Q 3022 1394 3022 966 
Q 3022 478 2636 193 
Q 2250 -91 1575 -91 
Q 1294 -91 989 -36 
Q 684 19 347 128 
L 347 722 
Q 666 556 975 473 
Q 1284 391 1588 391 
Q 1994 391 2212 530 
Q 2431 669 2431 922 
Q 2431 1156 2273 1281 
Q 2116 1406 1581 1522 
L 1381 1569 
Q 847 1681 609 1914 
Q 372 2147 372 2553 
Q 372 3047 722 3315 
Q 1072 3584 1716 3584 
Q 2034 3584 2315 3537 
Q 2597 3491 2834 3397 
z
" transform="scale(0.015625)"/>
      <path id="DejaVuSans-75" d="M 544 1381 
L 544 3500 
L 1119 3500 
L 1119 1403 
Q 1119 906 1312 657 
Q 1506 409 1894 409 
Q 2359 409 2629 706 
Q 2900 1003 2900 1516 
L 2900 3500 
L 3475 3500 
L 3475 0 
L 2900 0 
L 2900 538 
Q 2691 219 2414 64 
Q 2138 -91 1772 -91 
Q 1169 -91 856 284 
Q 544 659 544 1381 
z
M 1991 3584 
L 1991 3584 
z
" transform="scale(0.015625)"/>
      <path id="DejaVuSans-62" d="M 3116 1747 
Q 3116 2381 2855 2742 
Q 2594 3103 2138 3103 
Q 1681 3103 1420 2742 
Q 1159 2381 1159 1747 
Q 1159 1113 1420 752 
Q 1681 391 2138 391 
Q 2594 391 2855 752 
Q 3116 1113 3116 1747 
z
M 1159 2969 
Q 1341 3281 1617 3432 
Q 1894 3584 2278 3584 
Q 2916 3584 3314 3078 
Q 3713 2572 3713 1747 
Q 3713 922 3314 415 
Q 2916 -91 2278 -91 
Q 1894 -91 1617 61 
Q 1341 213 1159 525 
L 1159 0 
L 581 0 
L 581 4863 
L 1159 4863 
L 1159 2969 
z
" transform="scale(0.015625)"/>
      <path id="DejaVuSans-63" d="M 3122 3366 
L 3122 2828 
Q 2878 2963 2633 3030 
Q 2388 3097 2138 3097 
Q 1578 3097 1268 2742 
Q 959 2388 959 1747 
Q 959 1106 1268 751 
Q 1578 397 2138 397 
Q 2388 397 2633 464 
Q 2878 531 3122 666 
L 3122 134 
Q 2881 22 2623 -34 
Q 2366 -91 2075 -91 
Q 1284 -91 818 406 
Q 353 903 353 1747 
Q 353 2603 823 3093 
Q 1294 3584 2113 3584 
Q 2378 3584 2631 3529 
Q 2884 3475 3122 3366 
z
" transform="scale(0.015625)"/>
      <path id="DejaVuSans-72" d="M 2631 2963 
Q 2534 3019 2420 3045 
Q 2306 3072 2169 3072 
Q 1681 3072 1420 2755 
Q 1159 2438 1159 1844 
L 1159 0 
L 581 0 
L 581 3500 
L 1159 3500 
L 1159 2956 
Q 1341 3275 1631 3429 
Q 1922 3584 2338 3584 
Q 2397 3584 2469 3576 
Q 2541 3569 2628 3553 
L 2631 2963 
z
" transform="scale(0.015625)"/>
      <path id="DejaVuSans-69" d="M 603 3500 
L 1178 3500 
L 1178 0 
L 603 0 
L 603 3500 
z
M 603 4863 
L 1178 4863 
L 1178 4134 
L 603 4134 
L 603 4863 
z
" transform="scale(0.015625)"/>
      <path id="DejaVuSans-20" transform="scale(0.015625)"/>
      <path id="DejaVuSans-68" d="M 3513 2113 
L 3513 0 
L 2938 0 
L 2938 2094 
Q 2938 2591 2744 2837 
Q 2550 3084 2163 3084 
Q 1697 3084 1428 2787 
Q 1159 2491 1159 1978 
L 1159 0 
L 581 0 
L 581 4863 
L 1159 4863 
L 1159 2956 
Q 1366 3272 1645 3428 
Q 1925 3584 2291 3584 
Q 2894 3584 3203 3211 
Q 3513 2838 3513 2113 
z
" transform="scale(0.015625)"/>
      <path id="DejaVuSans-6f" d="M 1959 3097 
Q 1497 3097 1228 2736 
Q 959 2375 959 1747 
Q 959 1119 1226 758 
Q 1494 397 1959 397 
Q 2419 397 2687 759 
Q 2956 1122 2956 1747 
Q 2956 2369 2687 2733 
Q 2419 3097 1959 3097 
z
M 1959 3584 
Q 2709 3584 3137 3096 
Q 3566 2609 3566 1747 
Q 3566 888 3137 398 
Q 2709 -91 1959 -91 
Q 1206 -91 779 398 
Q 353 888 353 1747 
Q 353 2609 779 3096 
Q 1206 3584 1959 3584 
z
" transform="scale(0.015625)"/>
      <path id="DejaVuSans-79" d="M 2059 -325 
Q 1816 -950 1584 -1140 
Q 1353 -1331 966 -1331 
L 506 -1331 
L 506 -850 
L 844 -850 
Q 1081 -850 1212 -737 
Q 1344 -625 1503 -206 
L 1606 56 
L 191 3500 
L 800 3500 
L 1894 763 
L 2988 3500 
L 3597 3500 
L 2059 -325 
z
" transform="scale(0.015625)"/>
     </defs>
     <use xlink:href="#DejaVuSans-67"/>
     <use xlink:href="#DejaVuSans-65" transform="translate(63.476562 0)"/>
     <use xlink:href="#DejaVuSans-74" transform="translate(125 0)"/>
     <use xlink:href="#DejaVuSans-5f" transform="translate(164.208984 0)"/>
     <use xlink:href="#DejaVuSans-73" transform="translate(214.208984 0)"/>
     <use xlink:href="#DejaVuSans-75" transform="translate(266.308594 0)"/>
     <use xlink:href="#DejaVuSans-62" transform="translate(329.6875 0)"/>
     <use xlink:href="#DejaVuSans-73" transform="translate(393.164062 0)"/>
     <use xlink:href="#DejaVuSans-63" transform="translate(445.263672 0)"/>
     <use xlink:href="#DejaVuSans-72" transform="translate(500.244141 0)"/>
     <use xlink:href="#DejaVuSans-69" transform="translate(541.357422 0)"/>
     <use xlink:href="#DejaVuSans-62" transform="translate(569.140625 0)"/>
     <use xlink:href="#DejaVuSans-65" transform="translate(632.617188 0)"/>
     <use xlink:href="#DejaVuSans-20" transform="translate(694.140625 0)"/>
     <use xlink:href="#DejaVuSans-68" transform="translate(725.927734 0)"/>
     <use xlink:href="#DejaVuSans-69" transform="translate(789.306641 0)"/>
     <use xlink:href="#DejaVuSans-73" transform="translate(817.089844 0)"/>
     <use xlink:href="#DejaVuSans-74" transform="translate(869.189453 0)"/>
     <use xlink:href="#DejaVuSans-6f" transform="translate(908.398438 0)"/>
     <use xlink:href="#DejaVuSans-72" transform="translate(969.580078 0)"/>
     <use xlink:href="#DejaVuSans-79" transform="translate(1010.693359 0)"/>
    </g>
   </g>
   <g id="legend_1">
    <g id="line2d_39">
     <path d="M 815.08 328.498438 
L 825.08 328.498438 
L 835.08 328.498438 
" style="fill: none; stroke: #1f77b4; stroke-width: 1.5; stroke-linecap: square"/>
    </g>
    <g id="text_20">
     <!-- star -->
     <g style="fill: #a9a9a9" transform="translate(843.08 331.998438) scale(0.1 -0.1)">
      <defs>
       <path id="DejaVuSans-61" d="M 2194 1759 
Q 1497 1759 1228 1600 
Q 959 1441 959 1056 
Q 959 750 1161 570 
Q 1363 391 1709 391 
Q 2188 391 2477 730 
Q 2766 1069 2766 1631 
L 2766 1759 
L 2194 1759 
z
M 3341 1997 
L 3341 0 
L 2766 0 
L 2766 531 
Q 2569 213 2275 61 
Q 1981 -91 1556 -91 
Q 1019 -91 701 211 
Q 384 513 384 1019 
Q 384 1609 779 1909 
Q 1175 2209 1959 2209 
L 2766 2209 
L 2766 2266 
Q 2766 2663 2505 2880 
Q 2244 3097 1772 3097 
Q 1472 3097 1187 3025 
Q 903 2953 641 2809 
L 641 3341 
Q 956 3463 1253 3523 
Q 1550 3584 1831 3584 
Q 2591 3584 2966 3190 
Q 3341 2797 3341 1997 
z
" transform="scale(0.015625)"/>
      </defs>
      <use xlink:href="#DejaVuSans-73"/>
      <use xlink:href="#DejaVuSans-74" transform="translate(52.099609 0)"/>
      <use xlink:href="#DejaVuSans-61" transform="translate(91.308594 0)"/>
      <use xlink:href="#DejaVuSans-72" transform="translate(152.587891 0)"/>
     </g>
    </g>
    <g id="line2d_40">
     <path d="M 815.08 343.176562 
L 825.08 343.176562 
L 835.08 343.176562 
" style="fill: none; stroke: #ff7f0e; stroke-width: 1.5; stroke-linecap: square"/>
    </g>
    <g id="text_21">
     <!-- fork -->
     <g style="fill: #a9a9a9" transform="translate(843.08 346.676562) scale(0.1 -0.1)">
      <defs>
       <path id="DejaVuSans-66" d="M 2375 4863 
L 2375 4384 
L 1825 4384 
Q 1516 4384 1395 4259 
Q 1275 4134 1275 3809 
L 1275 3500 
L 2222 3500 
L 2222 3053 
L 1275 3053 
L 1275 0 
L 697 0 
L 697 3053 
L 147 3053 
L 147 3500 
L 697 3500 
L 697 3744 
Q 697 4328 969 4595 
Q 1241 4863 1831 4863 
L 2375 4863 
z
" transform="scale(0.015625)"/>
       <path id="DejaVuSans-6b" d="M 581 4863 
L 1159 4863 
L 1159 1991 
L 2875 3500 
L 3609 3500 
L 1753 1863 
L 3688 0 
L 2938 0 
L 1159 1709 
L 1159 0 
L 581 0 
L 581 4863 
z
" transform="scale(0.015625)"/>
      </defs>
      <use xlink:href="#DejaVuSans-66"/>
      <use xlink:href="#DejaVuSans-6f" transform="translate(35.205078 0)"/>
      <use xlink:href="#DejaVuSans-72" transform="translate(96.386719 0)"/>
      <use xlink:href="#DejaVuSans-6b" transform="translate(137.5 0)"/>
     </g>
    </g>
   </g>
  </g>
 </g>
 <defs>
  <clipPath id="p18204f1d11">
   <rect x="108" y="43.2" width="669.6" height="277.2"/>
  </clipPath>
 </defs>
</svg>
