<?xml version="1.0" encoding="utf-8" standalone="no"?>
<!DOCTYPE svg PUBLIC "-//W3C//DTD SVG 1.1//EN"
  "http://www.w3.org/Graphics/SVG/1.1/DTD/svg11.dtd">
<svg xmlns:xlink="http://www.w3.org/1999/xlink" width="864pt" height="360pt" viewBox="0 0 864 360" xmlns="http://www.w3.org/2000/svg" version="1.1">
 <metadata>
  <rdf:RDF xmlns:dc="http://purl.org/dc/elements/1.1/" xmlns:cc="http://creativecommons.org/ns#" xmlns:rdf="http://www.w3.org/1999/02/22-rdf-syntax-ns#">
   <cc:Work>
    <dc:type rdf:resource="http://purl.org/dc/dcmitype/StillImage"/>
    <dc:date>2025-05-20T08:16:32.375224</dc:date>
    <dc:format>image/svg+xml</dc:format>
    <dc:creator>
     <cc:Agent>
      <dc:title>Matplotlib v3.10.3, https://matplotlib.org/</dc:title>
     </cc:Agent>
    </dc:creator>
   </cc:Work>
  </rdf:RDF>
 </metadata>
 <defs>
  <style type="text/css">*{stroke-linejoin: round; stroke-linecap: butt}</style>
 </defs>
 <g id="figure_1">
  <g id="patch_1">
   <path d="M 0 360 
L 864 360 
L 864 0 
L 0 0 
L 0 360 
z
" style="fill: none; opacity: 0"/>
  </g>
  <g id="axes_1">
   <g id="patch_2">
    <path d="M 108 320.4 
L 777.6 320.4 
L 777.6 43.2 
L 108 43.2 
L 108 320.4 
z
" style="fill: none; opacity: 0"/>
   </g>
   <g id="matplotlib.axis_1">
    <g id="xtick_1">
     <g id="line2d_1">
      <path d="M 128.407189 320.4 
L 128.407189 43.2 
" clip-path="url(#pe72881c86a)" style="fill: none; stroke-dasharray: 5.12,1.28,0.8,1.28; stroke-dashoffset: 0; stroke: #b0b0b0; stroke-width: 0.8"/>
     </g>
     <g id="line2d_2">
      <defs>
       <path id="m531218a1ad" d="M 0 0 
L 0 3.5 
" style="stroke: #a9a9a9; stroke-width: 0.8"/>
      </defs>
      <g>
       <use xlink:href="#m531218a1ad" x="128.407189" y="320.4" style="fill: #a9a9a9; stroke: #a9a9a9; stroke-width: 0.8"/>
      </g>
     </g>
     <g id="text_1">
      <!-- 2021-07 -->
      <g style="fill: #a9a9a9" transform="translate(107.515783 334.998438) scale(0.1 -0.1)">
       <defs>
        <path id="DejaVuSans-32" d="M 1228 531 
L 3431 531 
L 3431 0 
L 469 0 
L 469 531 
Q 828 903 1448 1529 
Q 2069 2156 2228 2338 
Q 2531 2678 2651 2914 
Q 2772 3150 2772 3378 
Q 2772 3750 2511 3984 
Q 2250 4219 1831 4219 
Q 1534 4219 1204 4116 
Q 875 4013 500 3803 
L 500 4441 
Q 881 4594 1212 4672 
Q 1544 4750 1819 4750 
Q 2544 4750 2975 4387 
Q 3406 4025 3406 3419 
Q 3406 3131 3298 2873 
Q 3191 2616 2906 2266 
Q 2828 2175 2409 1742 
Q 1991 1309 1228 531 
z
" transform="scale(0.015625)"/>
        <path id="DejaVuSans-30" d="M 2034 4250 
Q 1547 4250 1301 3770 
Q 1056 3291 1056 2328 
Q 1056 1369 1301 889 
Q 1547 409 2034 409 
Q 2525 409 2770 889 
Q 3016 1369 3016 2328 
Q 3016 3291 2770 3770 
Q 2525 4250 2034 4250 
z
M 2034 4750 
Q 2819 4750 3233 4129 
Q 3647 3509 3647 2328 
Q 3647 1150 3233 529 
Q 2819 -91 2034 -91 
Q 1250 -91 836 529 
Q 422 1150 422 2328 
Q 422 3509 836 4129 
Q 1250 4750 2034 4750 
z
" transform="scale(0.015625)"/>
        <path id="DejaVuSans-31" d="M 794 531 
L 1825 531 
L 1825 4091 
L 703 3866 
L 703 4441 
L 1819 4666 
L 2450 4666 
L 2450 531 
L 3481 531 
L 3481 0 
L 794 0 
L 794 531 
z
" transform="scale(0.015625)"/>
        <path id="DejaVuSans-2d" d="M 313 2009 
L 1997 2009 
L 1997 1497 
L 313 1497 
L 313 2009 
z
" transform="scale(0.015625)"/>
        <path id="DejaVuSans-37" d="M 525 4666 
L 3525 4666 
L 3525 4397 
L 1831 0 
L 1172 0 
L 2766 4134 
L 525 4134 
L 525 4666 
z
" transform="scale(0.015625)"/>
       </defs>
       <use xlink:href="#DejaVuSans-32"/>
       <use xlink:href="#DejaVuSans-30" transform="translate(63.623047 0)"/>
       <use xlink:href="#DejaVuSans-32" transform="translate(127.246094 0)"/>
       <use xlink:href="#DejaVuSans-31" transform="translate(190.869141 0)"/>
       <use xlink:href="#DejaVuSans-2d" transform="translate(254.492188 0)"/>
       <use xlink:href="#DejaVuSans-30" transform="translate(290.576172 0)"/>
       <use xlink:href="#DejaVuSans-37" transform="translate(354.199219 0)"/>
      </g>
     </g>
    </g>
    <g id="xtick_2">
     <g id="line2d_3">
      <path d="M 208.640583 320.4 
L 208.640583 43.2 
" clip-path="url(#pe72881c86a)" style="fill: none; stroke-dasharray: 5.12,1.28,0.8,1.28; stroke-dashoffset: 0; stroke: #b0b0b0; stroke-width: 0.8"/>
     </g>
     <g id="line2d_4">
      <g>
       <use xlink:href="#m531218a1ad" x="208.640583" y="320.4" style="fill: #a9a9a9; stroke: #a9a9a9; stroke-width: 0.8"/>
      </g>
     </g>
     <g id="text_2">
      <!-- 2022-01 -->
      <g style="fill: #a9a9a9" transform="translate(187.749177 334.998438) scale(0.1 -0.1)">
       <use xlink:href="#DejaVuSans-32"/>
       <use xlink:href="#DejaVuSans-30" transform="translate(63.623047 0)"/>
       <use xlink:href="#DejaVuSans-32" transform="translate(127.246094 0)"/>
       <use xlink:href="#DejaVuSans-32" transform="translate(190.869141 0)"/>
       <use xlink:href="#DejaVuSans-2d" transform="translate(254.492188 0)"/>
       <use xlink:href="#DejaVuSans-30" transform="translate(290.576172 0)"/>
       <use xlink:href="#DejaVuSans-31" transform="translate(354.199219 0)"/>
      </g>
     </g>
    </g>
    <g id="xtick_3">
     <g id="line2d_5">
      <path d="M 287.565824 320.4 
L 287.565824 43.2 
" clip-path="url(#pe72881c86a)" style="fill: none; stroke-dasharray: 5.12,1.28,0.8,1.28; stroke-dashoffset: 0; stroke: #b0b0b0; stroke-width: 0.8"/>
     </g>
     <g id="line2d_6">
      <g>
       <use xlink:href="#m531218a1ad" x="287.565824" y="320.4" style="fill: #a9a9a9; stroke: #a9a9a9; stroke-width: 0.8"/>
      </g>
     </g>
     <g id="text_3">
      <!-- 2022-07 -->
      <g style="fill: #a9a9a9" transform="translate(266.674418 334.998438) scale(0.1 -0.1)">
       <use xlink:href="#DejaVuSans-32"/>
       <use xlink:href="#DejaVuSans-30" transform="translate(63.623047 0)"/>
       <use xlink:href="#DejaVuSans-32" transform="translate(127.246094 0)"/>
       <use xlink:href="#DejaVuSans-32" transform="translate(190.869141 0)"/>
       <use xlink:href="#DejaVuSans-2d" transform="translate(254.492188 0)"/>
       <use xlink:href="#DejaVuSans-30" transform="translate(290.576172 0)"/>
       <use xlink:href="#DejaVuSans-37" transform="translate(354.199219 0)"/>
      </g>
     </g>
    </g>
    <g id="xtick_4">
     <g id="line2d_7">
      <path d="M 367.799219 320.4 
L 367.799219 43.2 
" clip-path="url(#pe72881c86a)" style="fill: none; stroke-dasharray: 5.12,1.28,0.8,1.28; stroke-dashoffset: 0; stroke: #b0b0b0; stroke-width: 0.8"/>
     </g>
     <g id="line2d_8">
      <g>
       <use xlink:href="#m531218a1ad" x="367.799219" y="320.4" style="fill: #a9a9a9; stroke: #a9a9a9; stroke-width: 0.8"/>
      </g>
     </g>
     <g id="text_4">
      <!-- 2023-01 -->
      <g style="fill: #a9a9a9" transform="translate(346.907812 334.998438) scale(0.1 -0.1)">
       <defs>
        <path id="DejaVuSans-33" d="M 2597 2516 
Q 3050 2419 3304 2112 
Q 3559 1806 3559 1356 
Q 3559 666 3084 287 
Q 2609 -91 1734 -91 
Q 1441 -91 1130 -33 
Q 819 25 488 141 
L 488 750 
Q 750 597 1062 519 
Q 1375 441 1716 441 
Q 2309 441 2620 675 
Q 2931 909 2931 1356 
Q 2931 1769 2642 2001 
Q 2353 2234 1838 2234 
L 1294 2234 
L 1294 2753 
L 1863 2753 
Q 2328 2753 2575 2939 
Q 2822 3125 2822 3475 
Q 2822 3834 2567 4026 
Q 2313 4219 1838 4219 
Q 1578 4219 1281 4162 
Q 984 4106 628 3988 
L 628 4550 
Q 988 4650 1302 4700 
Q 1616 4750 1894 4750 
Q 2613 4750 3031 4423 
Q 3450 4097 3450 3541 
Q 3450 3153 3228 2886 
Q 3006 2619 2597 2516 
z
" transform="scale(0.015625)"/>
       </defs>
       <use xlink:href="#DejaVuSans-32"/>
       <use xlink:href="#DejaVuSans-30" transform="translate(63.623047 0)"/>
       <use xlink:href="#DejaVuSans-32" transform="translate(127.246094 0)"/>
       <use xlink:href="#DejaVuSans-33" transform="translate(190.869141 0)"/>
       <use xlink:href="#DejaVuSans-2d" transform="translate(254.492188 0)"/>
       <use xlink:href="#DejaVuSans-30" transform="translate(290.576172 0)"/>
       <use xlink:href="#DejaVuSans-31" transform="translate(354.199219 0)"/>
      </g>
     </g>
    </g>
    <g id="xtick_5">
     <g id="line2d_9">
      <path d="M 446.724459 320.4 
L 446.724459 43.2 
" clip-path="url(#pe72881c86a)" style="fill: none; stroke-dasharray: 5.12,1.28,0.8,1.28; stroke-dashoffset: 0; stroke: #b0b0b0; stroke-width: 0.8"/>
     </g>
     <g id="line2d_10">
      <g>
       <use xlink:href="#m531218a1ad" x="446.724459" y="320.4" style="fill: #a9a9a9; stroke: #a9a9a9; stroke-width: 0.8"/>
      </g>
     </g>
     <g id="text_5">
      <!-- 2023-07 -->
      <g style="fill: #a9a9a9" transform="translate(425.833053 334.998438) scale(0.1 -0.1)">
       <use xlink:href="#DejaVuSans-32"/>
       <use xlink:href="#DejaVuSans-30" transform="translate(63.623047 0)"/>
       <use xlink:href="#DejaVuSans-32" transform="translate(127.246094 0)"/>
       <use xlink:href="#DejaVuSans-33" transform="translate(190.869141 0)"/>
       <use xlink:href="#DejaVuSans-2d" transform="translate(254.492188 0)"/>
       <use xlink:href="#DejaVuSans-30" transform="translate(290.576172 0)"/>
       <use xlink:href="#DejaVuSans-37" transform="translate(354.199219 0)"/>
      </g>
     </g>
    </g>
    <g id="xtick_6">
     <g id="line2d_11">
      <path d="M 526.957854 320.4 
L 526.957854 43.2 
" clip-path="url(#pe72881c86a)" style="fill: none; stroke-dasharray: 5.12,1.28,0.8,1.28; stroke-dashoffset: 0; stroke: #b0b0b0; stroke-width: 0.8"/>
     </g>
     <g id="line2d_12">
      <g>
       <use xlink:href="#m531218a1ad" x="526.957854" y="320.4" style="fill: #a9a9a9; stroke: #a9a9a9; stroke-width: 0.8"/>
      </g>
     </g>
     <g id="text_6">
      <!-- 2024-01 -->
      <g style="fill: #a9a9a9" transform="translate(506.066447 334.998438) scale(0.1 -0.1)">
       <defs>
        <path id="DejaVuSans-34" d="M 2419 4116 
L 825 1625 
L 2419 1625 
L 2419 4116 
z
M 2253 4666 
L 3047 4666 
L 3047 1625 
L 3713 1625 
L 3713 1100 
L 3047 1100 
L 3047 0 
L 2419 0 
L 2419 1100 
L 313 1100 
L 313 1709 
L 2253 4666 
z
" transform="scale(0.015625)"/>
       </defs>
       <use xlink:href="#DejaVuSans-32"/>
       <use xlink:href="#DejaVuSans-30" transform="translate(63.623047 0)"/>
       <use xlink:href="#DejaVuSans-32" transform="translate(127.246094 0)"/>
       <use xlink:href="#DejaVuSans-34" transform="translate(190.869141 0)"/>
       <use xlink:href="#DejaVuSans-2d" transform="translate(254.492188 0)"/>
       <use xlink:href="#DejaVuSans-30" transform="translate(290.576172 0)"/>
       <use xlink:href="#DejaVuSans-31" transform="translate(354.199219 0)"/>
      </g>
     </g>
    </g>
    <g id="xtick_7">
     <g id="line2d_13">
      <path d="M 606.319146 320.4 
L 606.319146 43.2 
" clip-path="url(#pe72881c86a)" style="fill: none; stroke-dasharray: 5.12,1.28,0.8,1.28; stroke-dashoffset: 0; stroke: #b0b0b0; stroke-width: 0.8"/>
     </g>
     <g id="line2d_14">
      <g>
       <use xlink:href="#m531218a1ad" x="606.319146" y="320.4" style="fill: #a9a9a9; stroke: #a9a9a9; stroke-width: 0.8"/>
      </g>
     </g>
     <g id="text_7">
      <!-- 2024-07 -->
      <g style="fill: #a9a9a9" transform="translate(585.427739 334.998438) scale(0.1 -0.1)">
       <use xlink:href="#DejaVuSans-32"/>
       <use xlink:href="#DejaVuSans-30" transform="translate(63.623047 0)"/>
       <use xlink:href="#DejaVuSans-32" transform="translate(127.246094 0)"/>
       <use xlink:href="#DejaVuSans-34" transform="translate(190.869141 0)"/>
       <use xlink:href="#DejaVuSans-2d" transform="translate(254.492188 0)"/>
       <use xlink:href="#DejaVuSans-30" transform="translate(290.576172 0)"/>
       <use xlink:href="#DejaVuSans-37" transform="translate(354.199219 0)"/>
      </g>
     </g>
    </g>
    <g id="xtick_8">
     <g id="line2d_15">
      <path d="M 686.55254 320.4 
L 686.55254 43.2 
" clip-path="url(#pe72881c86a)" style="fill: none; stroke-dasharray: 5.12,1.28,0.8,1.28; stroke-dashoffset: 0; stroke: #b0b0b0; stroke-width: 0.8"/>
     </g>
     <g id="line2d_16">
      <g>
       <use xlink:href="#m531218a1ad" x="686.55254" y="320.4" style="fill: #a9a9a9; stroke: #a9a9a9; stroke-width: 0.8"/>
      </g>
     </g>
     <g id="text_8">
      <!-- 2025-01 -->
      <g style="fill: #a9a9a9" transform="translate(665.661133 334.998438) scale(0.1 -0.1)">
       <defs>
        <path id="DejaVuSans-35" d="M 691 4666 
L 3169 4666 
L 3169 4134 
L 1269 4134 
L 1269 2991 
Q 1406 3038 1543 3061 
Q 1681 3084 1819 3084 
Q 2600 3084 3056 2656 
Q 3513 2228 3513 1497 
Q 3513 744 3044 326 
Q 2575 -91 1722 -91 
Q 1428 -91 1123 -41 
Q 819 9 494 109 
L 494 744 
Q 775 591 1075 516 
Q 1375 441 1709 441 
Q 2250 441 2565 725 
Q 2881 1009 2881 1497 
Q 2881 1984 2565 2268 
Q 2250 2553 1709 2553 
Q 1456 2553 1204 2497 
Q 953 2441 691 2322 
L 691 4666 
z
" transform="scale(0.015625)"/>
       </defs>
       <use xlink:href="#DejaVuSans-32"/>
       <use xlink:href="#DejaVuSans-30" transform="translate(63.623047 0)"/>
       <use xlink:href="#DejaVuSans-32" transform="translate(127.246094 0)"/>
       <use xlink:href="#DejaVuSans-35" transform="translate(190.869141 0)"/>
       <use xlink:href="#DejaVuSans-2d" transform="translate(254.492188 0)"/>
       <use xlink:href="#DejaVuSans-30" transform="translate(290.576172 0)"/>
       <use xlink:href="#DejaVuSans-31" transform="translate(354.199219 0)"/>
      </g>
     </g>
    </g>
    <g id="xtick_9">
     <g id="line2d_17">
      <path d="M 765.477781 320.4 
L 765.477781 43.2 
" clip-path="url(#pe72881c86a)" style="fill: none; stroke-dasharray: 5.12,1.28,0.8,1.28; stroke-dashoffset: 0; stroke: #b0b0b0; stroke-width: 0.8"/>
     </g>
     <g id="line2d_18">
      <g>
       <use xlink:href="#m531218a1ad" x="765.477781" y="320.4" style="fill: #a9a9a9; stroke: #a9a9a9; stroke-width: 0.8"/>
      </g>
     </g>
     <g id="text_9">
      <!-- 2025-07 -->
      <g style="fill: #a9a9a9" transform="translate(744.586374 334.998438) scale(0.1 -0.1)">
       <use xlink:href="#DejaVuSans-32"/>
       <use xlink:href="#DejaVuSans-30" transform="translate(63.623047 0)"/>
       <use xlink:href="#DejaVuSans-32" transform="translate(127.246094 0)"/>
       <use xlink:href="#DejaVuSans-35" transform="translate(190.869141 0)"/>
       <use xlink:href="#DejaVuSans-2d" transform="translate(254.492188 0)"/>
       <use xlink:href="#DejaVuSans-30" transform="translate(290.576172 0)"/>
       <use xlink:href="#DejaVuSans-37" transform="translate(354.199219 0)"/>
      </g>
     </g>
    </g>
   </g>
   <g id="matplotlib.axis_2">
    <g id="ytick_1">
     <g id="line2d_19">
      <path d="M 108 307.83295 
L 777.6 307.83295 
" clip-path="url(#pe72881c86a)" style="fill: none; stroke-dasharray: 5.12,1.28,0.8,1.28; stroke-dashoffset: 0; stroke: #b0b0b0; stroke-width: 0.8"/>
     </g>
     <g id="line2d_20">
      <defs>
       <path id="m65102723a1" d="M 0 0 
L -3.5 0 
" style="stroke: #a9a9a9; stroke-width: 0.8"/>
      </defs>
      <g>
       <use xlink:href="#m65102723a1" x="108" y="307.83295" style="fill: #a9a9a9; stroke: #a9a9a9; stroke-width: 0.8"/>
      </g>
     </g>
     <g id="text_10">
      <!-- 0 -->
      <g style="fill: #a9a9a9" transform="translate(94.6375 311.632169) scale(0.1 -0.1)">
       <use xlink:href="#DejaVuSans-30"/>
      </g>
     </g>
    </g>
    <g id="ytick_2">
     <g id="line2d_21">
      <path d="M 108 274.883159 
L 777.6 274.883159 
" clip-path="url(#pe72881c86a)" style="fill: none; stroke-dasharray: 5.12,1.28,0.8,1.28; stroke-dashoffset: 0; stroke: #b0b0b0; stroke-width: 0.8"/>
     </g>
     <g id="line2d_22">
      <g>
       <use xlink:href="#m65102723a1" x="108" y="274.883159" style="fill: #a9a9a9; stroke: #a9a9a9; stroke-width: 0.8"/>
      </g>
     </g>
     <g id="text_11">
      <!-- 1000 -->
      <g style="fill: #a9a9a9" transform="translate(75.55 278.682378) scale(0.1 -0.1)">
       <use xlink:href="#DejaVuSans-31"/>
       <use xlink:href="#DejaVuSans-30" transform="translate(63.623047 0)"/>
       <use xlink:href="#DejaVuSans-30" transform="translate(127.246094 0)"/>
       <use xlink:href="#DejaVuSans-30" transform="translate(190.869141 0)"/>
      </g>
     </g>
    </g>
    <g id="ytick_3">
     <g id="line2d_23">
      <path d="M 108 241.933368 
L 777.6 241.933368 
" clip-path="url(#pe72881c86a)" style="fill: none; stroke-dasharray: 5.12,1.28,0.8,1.28; stroke-dashoffset: 0; stroke: #b0b0b0; stroke-width: 0.8"/>
     </g>
     <g id="line2d_24">
      <g>
       <use xlink:href="#m65102723a1" x="108" y="241.933368" style="fill: #a9a9a9; stroke: #a9a9a9; stroke-width: 0.8"/>
      </g>
     </g>
     <g id="text_12">
      <!-- 2000 -->
      <g style="fill: #a9a9a9" transform="translate(75.55 245.732587) scale(0.1 -0.1)">
       <use xlink:href="#DejaVuSans-32"/>
       <use xlink:href="#DejaVuSans-30" transform="translate(63.623047 0)"/>
       <use xlink:href="#DejaVuSans-30" transform="translate(127.246094 0)"/>
       <use xlink:href="#DejaVuSans-30" transform="translate(190.869141 0)"/>
      </g>
     </g>
    </g>
    <g id="ytick_4">
     <g id="line2d_25">
      <path d="M 108 208.983577 
L 777.6 208.983577 
" clip-path="url(#pe72881c86a)" style="fill: none; stroke-dasharray: 5.12,1.28,0.8,1.28; stroke-dashoffset: 0; stroke: #b0b0b0; stroke-width: 0.8"/>
     </g>
     <g id="line2d_26">
      <g>
       <use xlink:href="#m65102723a1" x="108" y="208.983577" style="fill: #a9a9a9; stroke: #a9a9a9; stroke-width: 0.8"/>
      </g>
     </g>
     <g id="text_13">
      <!-- 3000 -->
      <g style="fill: #a9a9a9" transform="translate(75.55 212.782796) scale(0.1 -0.1)">
       <use xlink:href="#DejaVuSans-33"/>
       <use xlink:href="#DejaVuSans-30" transform="translate(63.623047 0)"/>
       <use xlink:href="#DejaVuSans-30" transform="translate(127.246094 0)"/>
       <use xlink:href="#DejaVuSans-30" transform="translate(190.869141 0)"/>
      </g>
     </g>
    </g>
    <g id="ytick_5">
     <g id="line2d_27">
      <path d="M 108 176.033787 
L 777.6 176.033787 
" clip-path="url(#pe72881c86a)" style="fill: none; stroke-dasharray: 5.12,1.28,0.8,1.28; stroke-dashoffset: 0; stroke: #b0b0b0; stroke-width: 0.8"/>
     </g>
     <g id="line2d_28">
      <g>
       <use xlink:href="#m65102723a1" x="108" y="176.033787" style="fill: #a9a9a9; stroke: #a9a9a9; stroke-width: 0.8"/>
      </g>
     </g>
     <g id="text_14">
      <!-- 4000 -->
      <g style="fill: #a9a9a9" transform="translate(75.55 179.833005) scale(0.1 -0.1)">
       <use xlink:href="#DejaVuSans-34"/>
       <use xlink:href="#DejaVuSans-30" transform="translate(63.623047 0)"/>
       <use xlink:href="#DejaVuSans-30" transform="translate(127.246094 0)"/>
       <use xlink:href="#DejaVuSans-30" transform="translate(190.869141 0)"/>
      </g>
     </g>
    </g>
    <g id="ytick_6">
     <g id="line2d_29">
      <path d="M 108 143.083996 
L 777.6 143.083996 
" clip-path="url(#pe72881c86a)" style="fill: none; stroke-dasharray: 5.12,1.28,0.8,1.28; stroke-dashoffset: 0; stroke: #b0b0b0; stroke-width: 0.8"/>
     </g>
     <g id="line2d_30">
      <g>
       <use xlink:href="#m65102723a1" x="108" y="143.083996" style="fill: #a9a9a9; stroke: #a9a9a9; stroke-width: 0.8"/>
      </g>
     </g>
     <g id="text_15">
      <!-- 5000 -->
      <g style="fill: #a9a9a9" transform="translate(75.55 146.883215) scale(0.1 -0.1)">
       <use xlink:href="#DejaVuSans-35"/>
       <use xlink:href="#DejaVuSans-30" transform="translate(63.623047 0)"/>
       <use xlink:href="#DejaVuSans-30" transform="translate(127.246094 0)"/>
       <use xlink:href="#DejaVuSans-30" transform="translate(190.869141 0)"/>
      </g>
     </g>
    </g>
    <g id="ytick_7">
     <g id="line2d_31">
      <path d="M 108 110.134205 
L 777.6 110.134205 
" clip-path="url(#pe72881c86a)" style="fill: none; stroke-dasharray: 5.12,1.28,0.8,1.28; stroke-dashoffset: 0; stroke: #b0b0b0; stroke-width: 0.8"/>
     </g>
     <g id="line2d_32">
      <g>
       <use xlink:href="#m65102723a1" x="108" y="110.134205" style="fill: #a9a9a9; stroke: #a9a9a9; stroke-width: 0.8"/>
      </g>
     </g>
     <g id="text_16">
      <!-- 6000 -->
      <g style="fill: #a9a9a9" transform="translate(75.55 113.933424) scale(0.1 -0.1)">
       <defs>
        <path id="DejaVuSans-36" d="M 2113 2584 
Q 1688 2584 1439 2293 
Q 1191 2003 1191 1497 
Q 1191 994 1439 701 
Q 1688 409 2113 409 
Q 2538 409 2786 701 
Q 3034 994 3034 1497 
Q 3034 2003 2786 2293 
Q 2538 2584 2113 2584 
z
M 3366 4563 
L 3366 3988 
Q 3128 4100 2886 4159 
Q 2644 4219 2406 4219 
Q 1781 4219 1451 3797 
Q 1122 3375 1075 2522 
Q 1259 2794 1537 2939 
Q 1816 3084 2150 3084 
Q 2853 3084 3261 2657 
Q 3669 2231 3669 1497 
Q 3669 778 3244 343 
Q 2819 -91 2113 -91 
Q 1303 -91 875 529 
Q 447 1150 447 2328 
Q 447 3434 972 4092 
Q 1497 4750 2381 4750 
Q 2619 4750 2861 4703 
Q 3103 4656 3366 4563 
z
" transform="scale(0.015625)"/>
       </defs>
       <use xlink:href="#DejaVuSans-36"/>
       <use xlink:href="#DejaVuSans-30" transform="translate(63.623047 0)"/>
       <use xlink:href="#DejaVuSans-30" transform="translate(127.246094 0)"/>
       <use xlink:href="#DejaVuSans-30" transform="translate(190.869141 0)"/>
      </g>
     </g>
    </g>
    <g id="ytick_8">
     <g id="line2d_33">
      <path d="M 108 77.184414 
L 777.6 77.184414 
" clip-path="url(#pe72881c86a)" style="fill: none; stroke-dasharray: 5.12,1.28,0.8,1.28; stroke-dashoffset: 0; stroke: #b0b0b0; stroke-width: 0.8"/>
     </g>
     <g id="line2d_34">
      <g>
       <use xlink:href="#m65102723a1" x="108" y="77.184414" style="fill: #a9a9a9; stroke: #a9a9a9; stroke-width: 0.8"/>
      </g>
     </g>
     <g id="text_17">
      <!-- 7000 -->
      <g style="fill: #a9a9a9" transform="translate(75.55 80.983633) scale(0.1 -0.1)">
       <use xlink:href="#DejaVuSans-37"/>
       <use xlink:href="#DejaVuSans-30" transform="translate(63.623047 0)"/>
       <use xlink:href="#DejaVuSans-30" transform="translate(127.246094 0)"/>
       <use xlink:href="#DejaVuSans-30" transform="translate(190.869141 0)"/>
      </g>
     </g>
    </g>
    <g id="ytick_9">
     <g id="line2d_35">
      <path d="M 108 44.234623 
L 777.6 44.234623 
" clip-path="url(#pe72881c86a)" style="fill: none; stroke-dasharray: 5.12,1.28,0.8,1.28; stroke-dashoffset: 0; stroke: #b0b0b0; stroke-width: 0.8"/>
     </g>
     <g id="line2d_36">
      <g>
       <use xlink:href="#m65102723a1" x="108" y="44.234623" style="fill: #a9a9a9; stroke: #a9a9a9; stroke-width: 0.8"/>
      </g>
     </g>
     <g id="text_18">
      <!-- 8000 -->
      <g style="fill: #a9a9a9" transform="translate(75.55 48.033842) scale(0.1 -0.1)">
       <defs>
        <path id="DejaVuSans-38" d="M 2034 2216 
Q 1584 2216 1326 1975 
Q 1069 1734 1069 1313 
Q 1069 891 1326 650 
Q 1584 409 2034 409 
Q 2484 409 2743 651 
Q 3003 894 3003 1313 
Q 3003 1734 2745 1975 
Q 2488 2216 2034 2216 
z
M 1403 2484 
Q 997 2584 770 2862 
Q 544 3141 544 3541 
Q 544 4100 942 4425 
Q 1341 4750 2034 4750 
Q 2731 4750 3128 4425 
Q 3525 4100 3525 3541 
Q 3525 3141 3298 2862 
Q 3072 2584 2669 2484 
Q 3125 2378 3379 2068 
Q 3634 1759 3634 1313 
Q 3634 634 3220 271 
Q 2806 -91 2034 -91 
Q 1263 -91 848 271 
Q 434 634 434 1313 
Q 434 1759 690 2068 
Q 947 2378 1403 2484 
z
M 1172 3481 
Q 1172 3119 1398 2916 
Q 1625 2713 2034 2713 
Q 2441 2713 2670 2916 
Q 2900 3119 2900 3481 
Q 2900 3844 2670 4047 
Q 2441 4250 2034 4250 
Q 1625 4250 1398 4047 
Q 1172 3844 1172 3481 
z
" transform="scale(0.015625)"/>
       </defs>
       <use xlink:href="#DejaVuSans-38"/>
       <use xlink:href="#DejaVuSans-30" transform="translate(63.623047 0)"/>
       <use xlink:href="#DejaVuSans-30" transform="translate(127.246094 0)"/>
       <use xlink:href="#DejaVuSans-30" transform="translate(190.869141 0)"/>
      </g>
     </g>
    </g>
   </g>
   <g id="line2d_37">
    <path d="M 138.436364 307.7341 
L 141.05267 307.503452 
L 141.488721 307.305753 
L 143.232925 307.075105 
L 144.977129 306.712657 
L 145.849232 306.580858 
L 148.029487 306.383159 
L 148.901589 306.020711 
L 149.33764 305.427615 
L 149.773691 305.131067 
L 150.209742 304.142573 
L 150.645793 304.076674 
L 151.081844 303.714226 
L 151.953946 303.252929 
L 153.698151 301.803138 
L 155.442355 300.913494 
L 156.750508 300.287448 
L 157.186559 299.562552 
L 158.058661 298.903556 
L 158.494712 298.705858 
L 162.855223 298.046862 
L 163.291274 297.849163 
L 166.343631 297.585565 
L 168.087835 297.157218 
L 171.576244 296.662971 
L 172.012295 296.432322 
L 172.448346 296.366423 
L 173.320448 296.069874 
L 176.372805 295.542678 
L 177.244908 295.279079 
L 181.169367 294.620084 
L 182.041469 294.422385 
L 182.913571 294.389435 
L 184.657775 293.961088 
L 185.093827 293.335042 
L 186.40198 292.807845 
L 187.710133 292.445397 
L 188.146184 292.214749 
L 189.018286 292.05 
L 190.76249 291.522803 
L 191.634592 291.456904 
L 192.506694 291.226255 
L 194.250899 290.764958 
L 194.68695 290.732008 
L 195.559052 290.303661 
L 195.995103 290.237762 
L 196.431154 290.007113 
L 201.227716 289.183368 
L 202.97192 288.656172 
L 203.407971 288.359623 
L 205.588226 287.634728 
L 206.460328 287.008682 
L 207.768481 286.745084 
L 217.361605 283.878452 
L 217.797656 283.845502 
L 219.105809 283.450105 
L 219.54186 283.450105 
L 219.977911 283.252406 
L 220.850013 283.153556 
L 221.286064 282.988808 
L 223.030268 282.922908 
L 223.90237 282.758159 
L 224.774473 282.296862 
L 226.082626 281.802615 
L 226.954728 281.341318 
L 227.82683 280.880021 
L 228.698932 280.583473 
L 229.134983 280.451674 
L 230.007085 279.891527 
L 230.443136 279.39728 
L 231.315238 278.013389 
L 231.751289 277.88159 
L 232.18734 277.88159 
L 233.495494 277.090795 
L 233.931545 276.860146 
L 234.367596 276.761297 
L 234.803647 276.33295 
L 235.675749 275.970502 
L 236.547851 275.542155 
L 238.728106 272.675523 
L 241.344413 271.225732 
L 242.216515 270.500837 
L 242.652566 270.237238 
L 243.088617 269.611192 
L 243.524668 268.589749 
L 243.960719 267.897803 
L 244.39677 267.535356 
L 244.832821 267.337657 
L 248.321229 264.042678 
L 249.193332 263.218933 
L 251.809638 261.538494 
L 252.245689 261.373745 
L 253.989893 260.319351 
L 254.425944 260.121653 
L 256.6062 258.078766 
L 257.478302 257.716318 
L 258.350404 257.090272 
L 258.786455 256.826674 
L 259.222506 256.760774 
L 260.530659 256.002929 
L 260.96671 255.508682 
L 263.146965 254.28954 
L 263.583016 254.124791 
L 264.89117 253.202197 
L 271.431935 250.829812 
L 272.304038 250.006067 
L 273.612191 249.347071 
L 274.484293 248.786925 
L 275.356395 248.523326 
L 275.792446 248.226778 
L 276.228497 248.094979 
L 277.53665 247.205335 
L 279.716905 246.711088 
L 281.025059 245.920293 
L 282.333212 245.623745 
L 282.769263 245.524895 
L 284.077416 244.503452 
L 285.82162 244.009205 
L 286.257671 243.646757 
L 288.873978 242.724163 
L 289.74608 242.559414 
L 290.618182 242.196967 
L 293.670539 241.043724 
L 294.542641 240.911925 
L 295.850794 240.450628 
L 298.03105 239.363285 
L 299.775254 238.374791 
L 303.263662 236.89205 
L 303.699713 236.826151 
L 304.571816 236.266004 
L 305.443918 236.035356 
L 306.752071 235.508159 
L 308.496275 235.27751 
L 309.368377 234.816213 
L 309.804428 234.420816 
L 310.240479 233.630021 
L 311.984684 233.135774 
L 313.292837 232.443828 
L 314.164939 232.14728 
L 315.037041 231.685983 
L 317.653347 230.59864 
L 318.525449 230.400941 
L 319.397551 229.939644 
L 319.833603 229.741946 
L 320.269654 229.676046 
L 322.449909 228.588703 
L 323.322011 228.028556 
L 324.630164 227.764958 
L 326.810419 227.204812 
L 327.24647 226.842364 
L 328.118573 226.545816 
L 330.298828 225.656172 
L 330.734879 225.326674 
L 331.17093 225.161925 
L 332.043032 224.667678 
L 333.787236 224.107531 
L 334.659338 223.547385 
L 335.095389 223.086088 
L 335.53144 222.82249 
L 335.967492 222.72364 
L 336.839594 221.998745 
L 337.275645 221.932845 
L 337.711696 221.20795 
L 338.147747 221.010251 
L 338.583798 220.647803 
L 339.019849 220.581904 
L 339.891951 220.021757 
L 340.764053 219.725209 
L 341.200104 219.395711 
L 341.636155 219.230962 
L 343.380359 218.04477 
L 344.688513 217.352824 
L 345.560615 217.122176 
L 346.432717 216.627929 
L 346.868768 215.870084 
L 347.74087 215.211088 
L 348.176921 215.112238 
L 350.793227 213.827197 
L 351.66533 213.464749 
L 352.537432 212.838703 
L 353.409534 211.949059 
L 357.333993 208.851778 
L 357.770044 208.489331 
L 358.642146 208.192782 
L 359.514249 207.599686 
L 360.822402 206.907741 
L 361.258453 206.841841 
L 362.566606 206.116946 
L 363.438708 205.556799 
L 367.799219 203.90931 
L 368.23527 203.546862 
L 369.979474 202.854916 
L 370.415525 202.723117 
L 371.287627 202.130021 
L 372.159729 201.767573 
L 373.031831 201.141527 
L 373.903933 199.362238 
L 374.776035 198.307845 
L 376.084189 197.6159 
L 376.956291 197.253452 
L 377.392342 197.187552 
L 377.828393 196.923954 
L 380.008648 196.199059 
L 380.444699 196.00136 
L 381.316801 195.408264 
L 382.624954 194.848117 
L 383.497057 194.35387 
L 384.369159 193.826674 
L 384.80521 193.530126 
L 385.241261 193.035879 
L 386.549414 192.278033 
L 386.985465 192.113285 
L 387.857567 191.586088 
L 389.601771 190.630544 
L 390.037822 190.531695 
L 390.473873 190.169247 
L 393.526231 189.147803 
L 393.962282 188.818305 
L 394.834384 188.554707 
L 395.706486 188.192259 
L 396.142537 187.829812 
L 397.886741 187.203766 
L 398.758843 186.57772 
L 399.630946 186.215272 
L 400.503048 185.523326 
L 401.37515 185.259728 
L 401.811201 184.864331 
L 402.247252 184.798431 
L 403.119354 184.106485 
L 403.991456 183.645188 
L 404.427507 183.44749 
L 404.863558 182.986192 
L 407.915916 181.7341 
L 408.788018 181.338703 
L 410.096171 180.910356 
L 410.968273 180.778556 
L 411.404324 180.580858 
L 411.840375 180.514958 
L 412.712477 180.119561 
L 413.148528 180.086611 
L 414.892732 179.427615 
L 416.200886 178.472071 
L 416.636937 178.307322 
L 417.509039 177.813075 
L 417.94509 177.681276 
L 420.561396 176.198536 
L 420.997447 176.099686 
L 422.3056 175.308891 
L 423.613754 174.847594 
L 424.485856 174.551046 
L 426.23006 173.95795 
L 427.102162 173.661402 
L 428.846366 173.298954 
L 429.282417 173.101255 
L 430.154519 172.870607 
L 430.59057 172.672908 
L 431.026622 172.607008 
L 431.462673 172.37636 
L 432.334775 172.211611 
L 433.642928 171.717364 
L 434.51503 171.618515 
L 435.823183 171.321967 
L 438.003438 170.926569 
L 449.340766 167.499791 
L 449.776817 167.038494 
L 452.393123 165.951151 
L 454.137327 165.358054 
L 454.573378 165.094456 
L 455.881532 164.699059 
L 456.753634 164.46841 
L 457.189685 164.171862 
L 457.625736 164.073013 
L 458.061787 163.677615 
L 459.36994 163.414017 
L 460.242042 162.985669 
L 460.678093 162.458473 
L 462.422297 162.030126 
L 465.474655 161.37113 
L 465.910706 161.37113 
L 466.346757 161.173431 
L 468.090961 160.843933 
L 468.527012 160.646234 
L 470.271216 160.316736 
L 471.143319 159.954289 
L 472.015421 159.78954 
L 474.195676 159.229393 
L 475.93988 158.669247 
L 476.375931 158.570397 
L 476.811982 158.339749 
L 477.684084 158.1091 
L 478.556187 157.746653 
L 479.428289 157.417155 
L 479.86434 157.120607 
L 480.736442 156.857008 
L 483.788799 155.703766 
L 485.533003 155.473117 
L 489.021412 154.188075 
L 489.457463 153.858577 
L 489.893514 153.759728 
L 490.329565 153.529079 
L 490.765616 153.49613 
L 495.562178 151.749791 
L 497.742433 151.156695 
L 498.614535 150.728347 
L 499.922688 150.431799 
L 501.666892 148.982008 
L 503.411097 148.224163 
L 504.283199 147.828766 
L 506.899505 146.807322 
L 507.335556 146.510774 
L 509.515811 145.785879 
L 510.823965 145.028033 
L 511.260016 144.929184 
L 513.00422 143.94069 
L 514.748424 143.149895 
L 515.184475 142.820397 
L 516.056577 142.523849 
L 518.236833 141.403556 
L 519.544986 140.942259 
L 521.28919 140.217364 
L 522.597343 139.723117 
L 523.033394 139.558368 
L 523.905496 139.426569 
L 524.341547 139.130021 
L 526.085751 138.767573 
L 526.957854 138.405126 
L 528.702058 137.581381 
L 534.806773 134.879498 
L 536.114926 134.451151 
L 536.550977 134.154603 
L 537.423079 134.055753 
L 537.85913 133.759205 
L 538.731232 133.594456 
L 539.603334 133.166109 
L 540.039385 132.96841 
L 540.911487 132.737762 
L 541.783589 132.474163 
L 543.091743 131.979916 
L 544.399896 131.551569 
L 545.708049 131.255021 
L 547.452253 130.530126 
L 548.324355 130.035879 
L 550.06856 129.146234 
L 550.940662 128.948536 
L 551.376713 128.684937 
L 551.812764 128.586088 
L 553.120917 127.828243 
L 553.993019 127.465795 
L 563.586142 123.742469 
L 565.330346 122.918724 
L 569.690857 121.205335 
L 570.562959 120.776987 
L 570.99901 120.678138 
L 571.435061 120.44749 
L 573.179265 119.953243 
L 574.92347 118.503452 
L 575.359521 118.371653 
L 575.795572 118.108054 
L 577.103725 117.745607 
L 577.539776 117.416109 
L 577.975827 117.317259 
L 579.28398 116.526464 
L 579.720031 116.229916 
L 581.028184 115.735669 
L 581.464235 115.505021 
L 582.772389 115.208473 
L 584.952644 114.450628 
L 585.824746 114.154079 
L 587.132899 113.495084 
L 588.005001 113.066736 
L 588.877103 112.836088 
L 590.185257 112.210042 
L 594.109716 110.727301 
L 595.417869 109.903556 
L 595.85392 109.804707 
L 596.726022 109.37636 
L 597.598125 109.046862 
L 598.034176 108.651464 
L 598.906278 108.289017 
L 600.214431 107.82772 
L 600.650482 107.465272 
L 601.086533 107.432322 
L 601.958635 107.168724 
L 602.830737 106.872176 
L 603.266788 106.674477 
L 603.702839 106.608577 
L 605.010992 106.114331 
L 606.319146 105.620084 
L 608.06335 104.829289 
L 608.935452 104.59864 
L 609.371503 104.335042 
L 610.243605 104.104393 
L 611.551758 103.346548 
L 611.987809 103.313598 
L 613.295962 102.885251 
L 614.168065 102.819351 
L 614.604116 102.588703 
L 615.476218 102.358054 
L 615.912269 102.127406 
L 618.092524 101.699059 
L 618.964626 101.53431 
L 620.272779 101.040063 
L 621.580933 100.743515 
L 622.889086 100.051569 
L 623.325137 99.656172 
L 624.63329 98.865377 
L 625.069341 98.535879 
L 626.377494 98.107531 
L 627.249596 97.843933 
L 627.685647 97.613285 
L 628.121698 97.514435 
L 628.557749 97.151987 
L 631.174056 96.031695 
L 632.91826 95.570397 
L 633.790362 95.175 
L 634.226413 94.944351 
L 635.098515 94.680753 
L 635.534566 94.417155 
L 636.406668 94.252406 
L 639.895077 92.736715 
L 640.331128 92.670816 
L 641.639281 91.814121 
L 642.075332 91.748222 
L 643.819536 91.056276 
L 645.563741 90.627929 
L 645.999792 90.562029 
L 646.435843 90.364331 
L 646.871894 90.331381 
L 647.743996 90.034833 
L 648.180047 90.001883 
L 649.4882 89.474686 
L 651.232404 88.980439 
L 652.104506 88.321444 
L 653.848711 87.33295 
L 655.156864 86.871653 
L 658.645272 85.191213 
L 659.081323 84.960565 
L 659.517374 84.565167 
L 661.69763 83.972071 
L 663.005783 83.378975 
L 663.877885 83.148326 
L 664.313936 82.917678 
L 664.749987 82.55523 
L 666.494191 82.093933 
L 666.930242 81.764435 
L 672.598906 79.688598 
L 673.471008 79.523849 
L 675.651263 78.831904 
L 676.523365 78.469456 
L 677.395468 78.139958 
L 678.26757 77.90931 
L 678.703621 77.711611 
L 679.139672 77.711611 
L 680.011774 77.349163 
L 680.883876 76.821967 
L 683.936233 75.800523 
L 685.680438 75.207427 
L 686.988591 74.910879 
L 688.296744 74.482531 
L 688.732795 74.383682 
L 689.168846 74.087134 
L 690.040948 73.889435 
L 691.785152 73.395188 
L 692.221203 73.362238 
L 693.093306 72.966841 
L 696.145663 72.208996 
L 697.017765 71.846548 
L 701.378276 70.858054 
L 702.686429 70.166109 
L 703.994582 69.770711 
L 708.355092 68.156172 
L 708.791144 67.826674 
L 710.099297 67.530126 
L 710.971399 67.266527 
L 711.843501 66.83818 
L 712.279552 66.475732 
L 713.151654 66.212134 
L 713.587705 65.948536 
L 714.459807 65.849686 
L 717.512165 64.992992 
L 718.820318 64.729393 
L 721.436624 63.872699 
L 723.180828 63.048954 
L 727.97739 61.269665 
L 728.849492 61.137866 
L 729.721594 60.973117 
L 730.157645 60.973117 
L 731.901849 60.412971 
L 732.3379 60.347071 
L 733.210003 59.984623 
L 734.082105 59.753975 
L 736.698411 59.029079 
L 737.570513 58.798431 
L 738.006564 58.699582 
L 738.442615 58.435983 
L 739.314717 58.271234 
L 740.186819 58.172385 
L 740.622871 57.941736 
L 741.058922 57.908787 
L 741.931024 57.34864 
L 743.675228 56.953243 
L 744.54733 56.557845 
L 745.419432 56.261297 
L 746.291534 56.030649 
L 746.727585 55.8 
L 747.163636 55.8 
L 747.163636 55.8 
" clip-path="url(#pe72881c86a)" style="fill: none; stroke: #1f77b4; stroke-width: 1.5; stroke-linecap: square"/>
   </g>
   <g id="line2d_38">
    <path d="M 138.872415 307.8 
L 142.796874 307.701151 
L 146.285283 307.536402 
L 148.029487 307.536402 
L 148.465538 307.404603 
L 150.645793 307.305753 
L 153.2621 307.009205 
L 155.878406 306.910356 
L 156.750508 306.811506 
L 159.802865 306.679707 
L 162.855223 306.580858 
L 165.035478 306.514958 
L 170.704142 306.416109 
L 172.884397 306.350209 
L 176.808856 306.25136 
L 178.553061 306.21841 
L 182.913571 306.119561 
L 184.657775 305.954812 
L 186.40198 305.921862 
L 189.018286 305.823013 
L 190.76249 305.790063 
L 192.942746 305.724163 
L 194.68695 305.559414 
L 198.611409 305.460565 
L 199.483511 305.394665 
L 201.227716 305.295816 
L 203.844022 305.196967 
L 205.588226 305.098117 
L 213.437145 304.60387 
L 216.489502 304.505021 
L 217.797656 304.373222 
L 219.977911 304.274372 
L 224.338421 304.043724 
L 228.698932 303.977824 
L 230.443136 303.780126 
L 232.18734 303.681276 
L 236.983902 303.219979 
L 240.036259 302.857531 
L 241.344413 302.791632 
L 244.832821 302.330335 
L 247.449127 302.264435 
L 248.757281 302.132636 
L 250.065434 302.033787 
L 262.274863 301.078243 
L 263.146965 300.913494 
L 265.763272 300.814644 
L 272.740089 300.386297 
L 275.792446 300.287448 
L 277.53665 300.089749 
L 279.716905 299.9909 
L 282.333212 299.89205 
L 284.513467 299.793201 
L 286.257671 299.760251 
L 288.437927 299.694351 
L 289.310029 299.562552 
L 295.414743 299.463703 
L 296.286846 299.364854 
L 301.519458 299.266004 
L 305.443918 299.068305 
L 308.496275 298.969456 
L 310.240479 298.771757 
L 313.292837 298.672908 
L 314.164939 298.508159 
L 316.345194 298.442259 
L 320.705705 298.37636 
L 322.449909 298.211611 
L 324.194113 298.178661 
L 325.502266 298.079812 
L 327.24647 297.915063 
L 331.606981 297.684414 
L 335.967492 297.585565 
L 339.891951 297.387866 
L 341.200104 297.354916 
L 342.072206 297.223117 
L 344.252462 297.124268 
L 345.124564 297.058368 
L 345.996666 296.992469 
L 346.868768 296.926569 
L 350.793227 296.860669 
L 352.101381 296.76182 
L 363.874759 295.971025 
L 366.055014 295.872176 
L 368.23527 295.806276 
L 374.339984 295.707427 
L 375.212086 295.575628 
L 381.316801 295.476778 
L 385.677312 295.24613 
L 386.549414 295.21318 
L 387.421516 295.114331 
L 389.601771 295.015481 
L 391.782027 294.949582 
L 393.962282 294.850732 
L 396.142537 294.784833 
L 400.066997 294.685983 
L 402.683303 294.587134 
L 408.788018 294.488285 
L 413.584579 294.224686 
L 415.328784 294.158787 
L 416.636937 294.059937 
L 422.741651 293.961088 
L 425.357958 293.862238 
L 433.206877 293.763389 
L 434.951081 293.730439 
L 440.183694 293.66454 
L 441.055796 293.59864 
L 447.160511 293.499791 
L 448.904715 293.466841 
L 460.242042 293.367992 
L 462.858349 293.269142 
L 481.172493 293.170293 
L 483.352748 293.104393 
L 494.690076 293.038494 
L 495.562178 292.972594 
L 497.742433 292.906695 
L 499.050586 292.774895 
L 501.666892 292.676046 
L 504.71925 292.544247 
L 508.643709 292.445397 
L 510.823965 292.379498 
L 513.876322 292.280649 
L 517.36473 292.1159 
L 519.544986 292.01705 
L 521.28919 291.9841 
L 525.213649 291.885251 
L 526.957854 291.852301 
L 532.626517 291.753452 
L 534.370722 291.720502 
L 536.550977 291.621653 
L 539.167283 291.522803 
L 542.219641 291.456904 
L 543.091743 291.391004 
L 553.556968 291.292155 
L 559.225632 290.962657 
L 561.405887 290.896757 
L 562.277989 290.797908 
L 563.150091 290.732008 
L 566.6385 290.633159 
L 569.254806 290.53431 
L 573.615316 290.43546 
L 575.795572 290.204812 
L 580.156082 290.105962 
L 581.028184 290.007113 
L 585.388695 289.908264 
L 587.56895 289.842364 
L 592.365512 289.809414 
L 593.237614 289.710565 
L 598.034176 289.611715 
L 598.906278 289.545816 
L 608.499401 289.446967 
L 611.115707 289.348117 
L 617.656473 289.249268 
L 619.400677 289.216318 
L 623.325137 289.150418 
L 624.197239 289.051569 
L 629.865903 288.95272 
L 632.046158 288.88682 
L 639.895077 288.787971 
L 641.20323 288.689121 
L 642.511383 288.590272 
L 643.819536 288.491423 
L 650.360302 288.392573 
L 652.976608 288.293724 
L 664.749987 288.194874 
L 668.674446 287.997176 
L 673.907059 287.898326 
L 674.779161 287.832427 
L 681.319927 287.766527 
L 682.192029 287.700628 
L 686.988591 287.601778 
L 688.732795 287.568828 
L 694.83751 287.469979 
L 697.453816 287.37113 
L 704.866684 287.27228 
L 706.610888 287.239331 
L 710.535348 287.140481 
L 714.023756 286.975732 
L 718.820318 286.876883 
L 721.872675 286.745084 
L 725.797135 286.646234 
L 726.669237 286.580335 
L 735.390258 286.481485 
L 737.570513 286.415586 
L 740.186819 286.316736 
L 742.803126 286.217887 
L 747.163636 286.151987 
L 747.163636 286.151987 
" clip-path="url(#pe72881c86a)" style="fill: none; stroke: #ff7f0e; stroke-width: 1.5; stroke-linecap: square"/>
   </g>
   <g id="patch_3">
    <path d="M 108 320.4 
L 108 43.2 
" style="fill: none; stroke: #a9a9a9; stroke-width: 0.8; stroke-linejoin: miter; stroke-linecap: square"/>
   </g>
   <g id="patch_4">
    <path d="M 777.6 320.4 
L 777.6 43.2 
" style="fill: none"/>
   </g>
   <g id="patch_5">
    <path d="M 108 320.4 
L 777.6 320.4 
" style="fill: none; stroke: #a9a9a9; stroke-width: 0.8; stroke-linejoin: miter; stroke-linecap: square"/>
   </g>
   <g id="patch_6">
    <path d="M 108 43.2 
L 777.6 43.2 
" style="fill: none"/>
   </g>
   <g id="text_19">
    <!-- get_subscribe history -->
    <g style="fill: #a9a9a9" transform="translate(378.6075 37.2) scale(0.12 -0.12)">
     <defs>
      <path id="DejaVuSans-67" d="M 2906 1791 
Q 2906 2416 2648 2759 
Q 2391 3103 1925 3103 
Q 1463 3103 1205 2759 
Q 947 2416 947 1791 
Q 947 1169 1205 825 
Q 1463 481 1925 481 
Q 2391 481 2648 825 
Q 2906 1169 2906 1791 
z
M 3481 434 
Q 3481 -459 3084 -895 
Q 2688 -1331 1869 -1331 
Q 1566 -1331 1297 -1286 
Q 1028 -1241 775 -1147 
L 775 -588 
Q 1028 -725 1275 -790 
Q 1522 -856 1778 -856 
Q 2344 -856 2625 -561 
Q 2906 -266 2906 331 
L 2906 616 
Q 2728 306 2450 153 
Q 2172 0 1784 0 
Q 1141 0 747 490 
Q 353 981 353 1791 
Q 353 2603 747 3093 
Q 1141 3584 1784 3584 
Q 2172 3584 2450 3431 
Q 2728 3278 2906 2969 
L 2906 3500 
L 3481 3500 
L 3481 434 
z
" transform="scale(0.015625)"/>
      <path id="DejaVuSans-65" d="M 3597 1894 
L 3597 1613 
L 953 1613 
Q 991 1019 1311 708 
Q 1631 397 2203 397 
Q 2534 397 2845 478 
Q 3156 559 3463 722 
L 3463 178 
Q 3153 47 2828 -22 
Q 2503 -91 2169 -91 
Q 1331 -91 842 396 
Q 353 884 353 1716 
Q 353 2575 817 3079 
Q 1281 3584 2069 3584 
Q 2775 3584 3186 3129 
Q 3597 2675 3597 1894 
z
M 3022 2063 
Q 3016 2534 2758 2815 
Q 2500 3097 2075 3097 
Q 1594 3097 1305 2825 
Q 1016 2553 972 2059 
L 3022 2063 
z
" transform="scale(0.015625)"/>
      <path id="DejaVuSans-74" d="M 1172 4494 
L 1172 3500 
L 2356 3500 
L 2356 3053 
L 1172 3053 
L 1172 1153 
Q 1172 725 1289 603 
Q 1406 481 1766 481 
L 2356 481 
L 2356 0 
L 1766 0 
Q 1100 0 847 248 
Q 594 497 594 1153 
L 594 3053 
L 172 3053 
L 172 3500 
L 594 3500 
L 594 4494 
L 1172 4494 
z
" transform="scale(0.015625)"/>
      <path id="DejaVuSans-5f" d="M 3263 -1063 
L 3263 -1509 
L -63 -1509 
L -63 -1063 
L 3263 -1063 
z
" transform="scale(0.015625)"/>
      <path id="DejaVuSans-73" d="M 2834 3397 
L 2834 2853 
Q 2591 2978 2328 3040 
Q 2066 3103 1784 3103 
Q 1356 3103 1142 2972 
Q 928 2841 928 2578 
Q 928 2378 1081 2264 
Q 1234 2150 1697 2047 
L 1894 2003 
Q 2506 1872 2764 1633 
Q 3022 1394 3022 966 
Q 3022 478 2636 193 
Q 2250 -91 1575 -91 
Q 1294 -91 989 -36 
Q 684 19 347 128 
L 347 722 
Q 666 556 975 473 
Q 1284 391 1588 391 
Q 1994 391 2212 530 
Q 2431 669 2431 922 
Q 2431 1156 2273 1281 
Q 2116 1406 1581 1522 
L 1381 1569 
Q 847 1681 609 1914 
Q 372 2147 372 2553 
Q 372 3047 722 3315 
Q 1072 3584 1716 3584 
Q 2034 3584 2315 3537 
Q 2597 3491 2834 3397 
z
" transform="scale(0.015625)"/>
      <path id="DejaVuSans-75" d="M 544 1381 
L 544 3500 
L 1119 3500 
L 1119 1403 
Q 1119 906 1312 657 
Q 1506 409 1894 409 
Q 2359 409 2629 706 
Q 2900 1003 2900 1516 
L 2900 3500 
L 3475 3500 
L 3475 0 
L 2900 0 
L 2900 538 
Q 2691 219 2414 64 
Q 2138 -91 1772 -91 
Q 1169 -91 856 284 
Q 544 659 544 1381 
z
M 1991 3584 
L 1991 3584 
z
" transform="scale(0.015625)"/>
      <path id="DejaVuSans-62" d="M 3116 1747 
Q 3116 2381 2855 2742 
Q 2594 3103 2138 3103 
Q 1681 3103 1420 2742 
Q 1159 2381 1159 1747 
Q 1159 1113 1420 752 
Q 1681 391 2138 391 
Q 2594 391 2855 752 
Q 3116 1113 3116 1747 
z
M 1159 2969 
Q 1341 3281 1617 3432 
Q 1894 3584 2278 3584 
Q 2916 3584 3314 3078 
Q 3713 2572 3713 1747 
Q 3713 922 3314 415 
Q 2916 -91 2278 -91 
Q 1894 -91 1617 61 
Q 1341 213 1159 525 
L 1159 0 
L 581 0 
L 581 4863 
L 1159 4863 
L 1159 2969 
z
" transform="scale(0.015625)"/>
      <path id="DejaVuSans-63" d="M 3122 3366 
L 3122 2828 
Q 2878 2963 2633 3030 
Q 2388 3097 2138 3097 
Q 1578 3097 1268 2742 
Q 959 2388 959 1747 
Q 959 1106 1268 751 
Q 1578 397 2138 397 
Q 2388 397 2633 464 
Q 2878 531 3122 666 
L 3122 134 
Q 2881 22 2623 -34 
Q 2366 -91 2075 -91 
Q 1284 -91 818 406 
Q 353 903 353 1747 
Q 353 2603 823 3093 
Q 1294 3584 2113 3584 
Q 2378 3584 2631 3529 
Q 2884 3475 3122 3366 
z
" transform="scale(0.015625)"/>
      <path id="DejaVuSans-72" d="M 2631 2963 
Q 2534 3019 2420 3045 
Q 2306 3072 2169 3072 
Q 1681 3072 1420 2755 
Q 1159 2438 1159 1844 
L 1159 0 
L 581 0 
L 581 3500 
L 1159 3500 
L 1159 2956 
Q 1341 3275 1631 3429 
Q 1922 3584 2338 3584 
Q 2397 3584 2469 3576 
Q 2541 3569 2628 3553 
L 2631 2963 
z
" transform="scale(0.015625)"/>
      <path id="DejaVuSans-69" d="M 603 3500 
L 1178 3500 
L 1178 0 
L 603 0 
L 603 3500 
z
M 603 4863 
L 1178 4863 
L 1178 4134 
L 603 4134 
L 603 4863 
z
" transform="scale(0.015625)"/>
      <path id="DejaVuSans-20" transform="scale(0.015625)"/>
      <path id="DejaVuSans-68" d="M 3513 2113 
L 3513 0 
L 2938 0 
L 2938 2094 
Q 2938 2591 2744 2837 
Q 2550 3084 2163 3084 
Q 1697 3084 1428 2787 
Q 1159 2491 1159 1978 
L 1159 0 
L 581 0 
L 581 4863 
L 1159 4863 
L 1159 2956 
Q 1366 3272 1645 3428 
Q 1925 3584 2291 3584 
Q 2894 3584 3203 3211 
Q 3513 2838 3513 2113 
z
" transform="scale(0.015625)"/>
      <path id="DejaVuSans-6f" d="M 1959 3097 
Q 1497 3097 1228 2736 
Q 959 2375 959 1747 
Q 959 1119 1226 758 
Q 1494 397 1959 397 
Q 2419 397 2687 759 
Q 2956 1122 2956 1747 
Q 2956 2369 2687 2733 
Q 2419 3097 1959 3097 
z
M 1959 3584 
Q 2709 3584 3137 3096 
Q 3566 2609 3566 1747 
Q 3566 888 3137 398 
Q 2709 -91 1959 -91 
Q 1206 -91 779 398 
Q 353 888 353 1747 
Q 353 2609 779 3096 
Q 1206 3584 1959 3584 
z
" transform="scale(0.015625)"/>
      <path id="DejaVuSans-79" d="M 2059 -325 
Q 1816 -950 1584 -1140 
Q 1353 -1331 966 -1331 
L 506 -1331 
L 506 -850 
L 844 -850 
Q 1081 -850 1212 -737 
Q 1344 -625 1503 -206 
L 1606 56 
L 191 3500 
L 800 3500 
L 1894 763 
L 2988 3500 
L 3597 3500 
L 2059 -325 
z
" transform="scale(0.015625)"/>
     </defs>
     <use xlink:href="#DejaVuSans-67"/>
     <use xlink:href="#DejaVuSans-65" transform="translate(63.476562 0)"/>
     <use xlink:href="#DejaVuSans-74" transform="translate(125 0)"/>
     <use xlink:href="#DejaVuSans-5f" transform="translate(164.208984 0)"/>
     <use xlink:href="#DejaVuSans-73" transform="translate(214.208984 0)"/>
     <use xlink:href="#DejaVuSans-75" transform="translate(266.308594 0)"/>
     <use xlink:href="#DejaVuSans-62" transform="translate(329.6875 0)"/>
     <use xlink:href="#DejaVuSans-73" transform="translate(393.164062 0)"/>
     <use xlink:href="#DejaVuSans-63" transform="translate(445.263672 0)"/>
     <use xlink:href="#DejaVuSans-72" transform="translate(500.244141 0)"/>
     <use xlink:href="#DejaVuSans-69" transform="translate(541.357422 0)"/>
     <use xlink:href="#DejaVuSans-62" transform="translate(569.140625 0)"/>
     <use xlink:href="#DejaVuSans-65" transform="translate(632.617188 0)"/>
     <use xlink:href="#DejaVuSans-20" transform="translate(694.140625 0)"/>
     <use xlink:href="#DejaVuSans-68" transform="translate(725.927734 0)"/>
     <use xlink:href="#DejaVuSans-69" transform="translate(789.306641 0)"/>
     <use xlink:href="#DejaVuSans-73" transform="translate(817.089844 0)"/>
     <use xlink:href="#DejaVuSans-74" transform="translate(869.189453 0)"/>
     <use xlink:href="#DejaVuSans-6f" transform="translate(908.398438 0)"/>
     <use xlink:href="#DejaVuSans-72" transform="translate(969.580078 0)"/>
     <use xlink:href="#DejaVuSans-79" transform="translate(1010.693359 0)"/>
    </g>
   </g>
   <g id="legend_1">
    <g id="line2d_39">
     <path d="M 815.08 328.498438 
L 825.08 328.498438 
L 835.08 328.498438 
" style="fill: none; stroke: #1f77b4; stroke-width: 1.5; stroke-linecap: square"/>
    </g>
    <g id="text_20">
     <!-- star -->
     <g style="fill: #a9a9a9" transform="translate(843.08 331.998438) scale(0.1 -0.1)">
      <defs>
       <path id="DejaVuSans-61" d="M 2194 1759 
Q 1497 1759 1228 1600 
Q 959 1441 959 1056 
Q 959 750 1161 570 
Q 1363 391 1709 391 
Q 2188 391 2477 730 
Q 2766 1069 2766 1631 
L 2766 1759 
L 2194 1759 
z
M 3341 1997 
L 3341 0 
L 2766 0 
L 2766 531 
Q 2569 213 2275 61 
Q 1981 -91 1556 -91 
Q 1019 -91 701 211 
Q 384 513 384 1019 
Q 384 1609 779 1909 
Q 1175 2209 1959 2209 
L 2766 2209 
L 2766 2266 
Q 2766 2663 2505 2880 
Q 2244 3097 1772 3097 
Q 1472 3097 1187 3025 
Q 903 2953 641 2809 
L 641 3341 
Q 956 3463 1253 3523 
Q 1550 3584 1831 3584 
Q 2591 3584 2966 3190 
Q 3341 2797 3341 1997 
z
" transform="scale(0.015625)"/>
      </defs>
      <use xlink:href="#DejaVuSans-73"/>
      <use xlink:href="#DejaVuSans-74" transform="translate(52.099609 0)"/>
      <use xlink:href="#DejaVuSans-61" transform="translate(91.308594 0)"/>
      <use xlink:href="#DejaVuSans-72" transform="translate(152.587891 0)"/>
     </g>
    </g>
    <g id="line2d_40">
     <path d="M 815.08 343.176562 
L 825.08 343.176562 
L 835.08 343.176562 
" style="fill: none; stroke: #ff7f0e; stroke-width: 1.5; stroke-linecap: square"/>
    </g>
    <g id="text_21">
     <!-- fork -->
     <g style="fill: #a9a9a9" transform="translate(843.08 346.676562) scale(0.1 -0.1)">
      <defs>
       <path id="DejaVuSans-66" d="M 2375 4863 
L 2375 4384 
L 1825 4384 
Q 1516 4384 1395 4259 
Q 1275 4134 1275 3809 
L 1275 3500 
L 2222 3500 
L 2222 3053 
L 1275 3053 
L 1275 0 
L 697 0 
L 697 3053 
L 147 3053 
L 147 3500 
L 697 3500 
L 697 3744 
Q 697 4328 969 4595 
Q 1241 4863 1831 4863 
L 2375 4863 
z
" transform="scale(0.015625)"/>
       <path id="DejaVuSans-6b" d="M 581 4863 
L 1159 4863 
L 1159 1991 
L 2875 3500 
L 3609 3500 
L 1753 1863 
L 3688 0 
L 2938 0 
L 1159 1709 
L 1159 0 
L 581 0 
L 581 4863 
z
" transform="scale(0.015625)"/>
      </defs>
      <use xlink:href="#DejaVuSans-66"/>
      <use xlink:href="#DejaVuSans-6f" transform="translate(35.205078 0)"/>
      <use xlink:href="#DejaVuSans-72" transform="translate(96.386719 0)"/>
      <use xlink:href="#DejaVuSans-6b" transform="translate(137.5 0)"/>
     </g>
    </g>
   </g>
  </g>
 </g>
 <defs>
  <clipPath id="pe72881c86a">
   <rect x="108" y="43.2" width="669.6" height="277.2"/>
  </clipPath>
 </defs>
</svg>
