<?xml version="1.0" encoding="utf-8" standalone="no"?>
<!DOCTYPE svg PUBLIC "-//W3C//DTD SVG 1.1//EN"
  "http://www.w3.org/Graphics/SVG/1.1/DTD/svg11.dtd">
<svg xmlns:xlink="http://www.w3.org/1999/xlink" width="864pt" height="360pt" viewBox="0 0 864 360" xmlns="http://www.w3.org/2000/svg" version="1.1">
 <metadata>
  <rdf:RDF xmlns:dc="http://purl.org/dc/elements/1.1/" xmlns:cc="http://creativecommons.org/ns#" xmlns:rdf="http://www.w3.org/1999/02/22-rdf-syntax-ns#">
   <cc:Work>
    <dc:type rdf:resource="http://purl.org/dc/dcmitype/StillImage"/>
    <dc:date>2025-05-22T20:07:20.223478</dc:date>
    <dc:format>image/svg+xml</dc:format>
    <dc:creator>
     <cc:Agent>
      <dc:title>Matplotlib v3.10.3, https://matplotlib.org/</dc:title>
     </cc:Agent>
    </dc:creator>
   </cc:Work>
  </rdf:RDF>
 </metadata>
 <defs>
  <style type="text/css">*{stroke-linejoin: round; stroke-linecap: butt}</style>
 </defs>
 <g id="figure_1">
  <g id="patch_1">
   <path d="M 0 360 
L 864 360 
L 864 0 
L 0 0 
L 0 360 
z
" style="fill: none; opacity: 0"/>
  </g>
  <g id="axes_1">
   <g id="patch_2">
    <path d="M 108 320.4 
L 777.6 320.4 
L 777.6 43.2 
L 108 43.2 
L 108 320.4 
z
" style="fill: none; opacity: 0"/>
   </g>
   <g id="matplotlib.axis_1">
    <g id="xtick_1">
     <g id="line2d_1">
      <path d="M 128.421537 320.4 
L 128.421537 43.2 
" clip-path="url(#p38cc57a041)" style="fill: none; stroke-dasharray: 5.12,1.28,0.8,1.28; stroke-dashoffset: 0; stroke: #b0b0b0; stroke-width: 0.8"/>
     </g>
     <g id="line2d_2">
      <defs>
       <path id="meaa480db72" d="M 0 0 
L 0 3.5 
" style="stroke: #a9a9a9; stroke-width: 0.8"/>
      </defs>
      <g>
       <use xlink:href="#meaa480db72" x="128.421537" y="320.4" style="fill: #a9a9a9; stroke: #a9a9a9; stroke-width: 0.8"/>
      </g>
     </g>
     <g id="text_1">
      <!-- 2021-07 -->
      <g style="fill: #a9a9a9" transform="translate(107.530131 334.998438) scale(0.1 -0.1)">
       <defs>
        <path id="DejaVuSans-32" d="M 1228 531 
L 3431 531 
L 3431 0 
L 469 0 
L 469 531 
Q 828 903 1448 1529 
Q 2069 2156 2228 2338 
Q 2531 2678 2651 2914 
Q 2772 3150 2772 3378 
Q 2772 3750 2511 3984 
Q 2250 4219 1831 4219 
Q 1534 4219 1204 4116 
Q 875 4013 500 3803 
L 500 4441 
Q 881 4594 1212 4672 
Q 1544 4750 1819 4750 
Q 2544 4750 2975 4387 
Q 3406 4025 3406 3419 
Q 3406 3131 3298 2873 
Q 3191 2616 2906 2266 
Q 2828 2175 2409 1742 
Q 1991 1309 1228 531 
z
" transform="scale(0.015625)"/>
        <path id="DejaVuSans-30" d="M 2034 4250 
Q 1547 4250 1301 3770 
Q 1056 3291 1056 2328 
Q 1056 1369 1301 889 
Q 1547 409 2034 409 
Q 2525 409 2770 889 
Q 3016 1369 3016 2328 
Q 3016 3291 2770 3770 
Q 2525 4250 2034 4250 
z
M 2034 4750 
Q 2819 4750 3233 4129 
Q 3647 3509 3647 2328 
Q 3647 1150 3233 529 
Q 2819 -91 2034 -91 
Q 1250 -91 836 529 
Q 422 1150 422 2328 
Q 422 3509 836 4129 
Q 1250 4750 2034 4750 
z
" transform="scale(0.015625)"/>
        <path id="DejaVuSans-31" d="M 794 531 
L 1825 531 
L 1825 4091 
L 703 3866 
L 703 4441 
L 1819 4666 
L 2450 4666 
L 2450 531 
L 3481 531 
L 3481 0 
L 794 0 
L 794 531 
z
" transform="scale(0.015625)"/>
        <path id="DejaVuSans-2d" d="M 313 2009 
L 1997 2009 
L 1997 1497 
L 313 1497 
L 313 2009 
z
" transform="scale(0.015625)"/>
        <path id="DejaVuSans-37" d="M 525 4666 
L 3525 4666 
L 3525 4397 
L 1831 0 
L 1172 0 
L 2766 4134 
L 525 4134 
L 525 4666 
z
" transform="scale(0.015625)"/>
       </defs>
       <use xlink:href="#DejaVuSans-32"/>
       <use xlink:href="#DejaVuSans-30" transform="translate(63.623047 0)"/>
       <use xlink:href="#DejaVuSans-32" transform="translate(127.246094 0)"/>
       <use xlink:href="#DejaVuSans-31" transform="translate(190.869141 0)"/>
       <use xlink:href="#DejaVuSans-2d" transform="translate(254.492188 0)"/>
       <use xlink:href="#DejaVuSans-30" transform="translate(290.576172 0)"/>
       <use xlink:href="#DejaVuSans-37" transform="translate(354.199219 0)"/>
      </g>
     </g>
    </g>
    <g id="xtick_2">
     <g id="line2d_3">
      <path d="M 208.540148 320.4 
L 208.540148 43.2 
" clip-path="url(#p38cc57a041)" style="fill: none; stroke-dasharray: 5.12,1.28,0.8,1.28; stroke-dashoffset: 0; stroke: #b0b0b0; stroke-width: 0.8"/>
     </g>
     <g id="line2d_4">
      <g>
       <use xlink:href="#meaa480db72" x="208.540148" y="320.4" style="fill: #a9a9a9; stroke: #a9a9a9; stroke-width: 0.8"/>
      </g>
     </g>
     <g id="text_2">
      <!-- 2022-01 -->
      <g style="fill: #a9a9a9" transform="translate(187.648742 334.998438) scale(0.1 -0.1)">
       <use xlink:href="#DejaVuSans-32"/>
       <use xlink:href="#DejaVuSans-30" transform="translate(63.623047 0)"/>
       <use xlink:href="#DejaVuSans-32" transform="translate(127.246094 0)"/>
       <use xlink:href="#DejaVuSans-32" transform="translate(190.869141 0)"/>
       <use xlink:href="#DejaVuSans-2d" transform="translate(254.492188 0)"/>
       <use xlink:href="#DejaVuSans-30" transform="translate(290.576172 0)"/>
       <use xlink:href="#DejaVuSans-31" transform="translate(354.199219 0)"/>
      </g>
     </g>
    </g>
    <g id="xtick_3">
     <g id="line2d_5">
      <path d="M 287.352478 320.4 
L 287.352478 43.2 
" clip-path="url(#p38cc57a041)" style="fill: none; stroke-dasharray: 5.12,1.28,0.8,1.28; stroke-dashoffset: 0; stroke: #b0b0b0; stroke-width: 0.8"/>
     </g>
     <g id="line2d_6">
      <g>
       <use xlink:href="#meaa480db72" x="287.352478" y="320.4" style="fill: #a9a9a9; stroke: #a9a9a9; stroke-width: 0.8"/>
      </g>
     </g>
     <g id="text_3">
      <!-- 2022-07 -->
      <g style="fill: #a9a9a9" transform="translate(266.461071 334.998438) scale(0.1 -0.1)">
       <use xlink:href="#DejaVuSans-32"/>
       <use xlink:href="#DejaVuSans-30" transform="translate(63.623047 0)"/>
       <use xlink:href="#DejaVuSans-32" transform="translate(127.246094 0)"/>
       <use xlink:href="#DejaVuSans-32" transform="translate(190.869141 0)"/>
       <use xlink:href="#DejaVuSans-2d" transform="translate(254.492188 0)"/>
       <use xlink:href="#DejaVuSans-30" transform="translate(290.576172 0)"/>
       <use xlink:href="#DejaVuSans-37" transform="translate(354.199219 0)"/>
      </g>
     </g>
    </g>
    <g id="xtick_4">
     <g id="line2d_7">
      <path d="M 367.471089 320.4 
L 367.471089 43.2 
" clip-path="url(#p38cc57a041)" style="fill: none; stroke-dasharray: 5.12,1.28,0.8,1.28; stroke-dashoffset: 0; stroke: #b0b0b0; stroke-width: 0.8"/>
     </g>
     <g id="line2d_8">
      <g>
       <use xlink:href="#meaa480db72" x="367.471089" y="320.4" style="fill: #a9a9a9; stroke: #a9a9a9; stroke-width: 0.8"/>
      </g>
     </g>
     <g id="text_4">
      <!-- 2023-01 -->
      <g style="fill: #a9a9a9" transform="translate(346.579682 334.998438) scale(0.1 -0.1)">
       <defs>
        <path id="DejaVuSans-33" d="M 2597 2516 
Q 3050 2419 3304 2112 
Q 3559 1806 3559 1356 
Q 3559 666 3084 287 
Q 2609 -91 1734 -91 
Q 1441 -91 1130 -33 
Q 819 25 488 141 
L 488 750 
Q 750 597 1062 519 
Q 1375 441 1716 441 
Q 2309 441 2620 675 
Q 2931 909 2931 1356 
Q 2931 1769 2642 2001 
Q 2353 2234 1838 2234 
L 1294 2234 
L 1294 2753 
L 1863 2753 
Q 2328 2753 2575 2939 
Q 2822 3125 2822 3475 
Q 2822 3834 2567 4026 
Q 2313 4219 1838 4219 
Q 1578 4219 1281 4162 
Q 984 4106 628 3988 
L 628 4550 
Q 988 4650 1302 4700 
Q 1616 4750 1894 4750 
Q 2613 4750 3031 4423 
Q 3450 4097 3450 3541 
Q 3450 3153 3228 2886 
Q 3006 2619 2597 2516 
z
" transform="scale(0.015625)"/>
       </defs>
       <use xlink:href="#DejaVuSans-32"/>
       <use xlink:href="#DejaVuSans-30" transform="translate(63.623047 0)"/>
       <use xlink:href="#DejaVuSans-32" transform="translate(127.246094 0)"/>
       <use xlink:href="#DejaVuSans-33" transform="translate(190.869141 0)"/>
       <use xlink:href="#DejaVuSans-2d" transform="translate(254.492188 0)"/>
       <use xlink:href="#DejaVuSans-30" transform="translate(290.576172 0)"/>
       <use xlink:href="#DejaVuSans-31" transform="translate(354.199219 0)"/>
      </g>
     </g>
    </g>
    <g id="xtick_5">
     <g id="line2d_9">
      <path d="M 446.283418 320.4 
L 446.283418 43.2 
" clip-path="url(#p38cc57a041)" style="fill: none; stroke-dasharray: 5.12,1.28,0.8,1.28; stroke-dashoffset: 0; stroke: #b0b0b0; stroke-width: 0.8"/>
     </g>
     <g id="line2d_10">
      <g>
       <use xlink:href="#meaa480db72" x="446.283418" y="320.4" style="fill: #a9a9a9; stroke: #a9a9a9; stroke-width: 0.8"/>
      </g>
     </g>
     <g id="text_5">
      <!-- 2023-07 -->
      <g style="fill: #a9a9a9" transform="translate(425.392012 334.998438) scale(0.1 -0.1)">
       <use xlink:href="#DejaVuSans-32"/>
       <use xlink:href="#DejaVuSans-30" transform="translate(63.623047 0)"/>
       <use xlink:href="#DejaVuSans-32" transform="translate(127.246094 0)"/>
       <use xlink:href="#DejaVuSans-33" transform="translate(190.869141 0)"/>
       <use xlink:href="#DejaVuSans-2d" transform="translate(254.492188 0)"/>
       <use xlink:href="#DejaVuSans-30" transform="translate(290.576172 0)"/>
       <use xlink:href="#DejaVuSans-37" transform="translate(354.199219 0)"/>
      </g>
     </g>
    </g>
    <g id="xtick_6">
     <g id="line2d_11">
      <path d="M 526.402029 320.4 
L 526.402029 43.2 
" clip-path="url(#p38cc57a041)" style="fill: none; stroke-dasharray: 5.12,1.28,0.8,1.28; stroke-dashoffset: 0; stroke: #b0b0b0; stroke-width: 0.8"/>
     </g>
     <g id="line2d_12">
      <g>
       <use xlink:href="#meaa480db72" x="526.402029" y="320.4" style="fill: #a9a9a9; stroke: #a9a9a9; stroke-width: 0.8"/>
      </g>
     </g>
     <g id="text_6">
      <!-- 2024-01 -->
      <g style="fill: #a9a9a9" transform="translate(505.510623 334.998438) scale(0.1 -0.1)">
       <defs>
        <path id="DejaVuSans-34" d="M 2419 4116 
L 825 1625 
L 2419 1625 
L 2419 4116 
z
M 2253 4666 
L 3047 4666 
L 3047 1625 
L 3713 1625 
L 3713 1100 
L 3047 1100 
L 3047 0 
L 2419 0 
L 2419 1100 
L 313 1100 
L 313 1709 
L 2253 4666 
z
" transform="scale(0.015625)"/>
       </defs>
       <use xlink:href="#DejaVuSans-32"/>
       <use xlink:href="#DejaVuSans-30" transform="translate(63.623047 0)"/>
       <use xlink:href="#DejaVuSans-32" transform="translate(127.246094 0)"/>
       <use xlink:href="#DejaVuSans-34" transform="translate(190.869141 0)"/>
       <use xlink:href="#DejaVuSans-2d" transform="translate(254.492188 0)"/>
       <use xlink:href="#DejaVuSans-30" transform="translate(290.576172 0)"/>
       <use xlink:href="#DejaVuSans-31" transform="translate(354.199219 0)"/>
      </g>
     </g>
    </g>
    <g id="xtick_7">
     <g id="line2d_13">
      <path d="M 605.649785 320.4 
L 605.649785 43.2 
" clip-path="url(#p38cc57a041)" style="fill: none; stroke-dasharray: 5.12,1.28,0.8,1.28; stroke-dashoffset: 0; stroke: #b0b0b0; stroke-width: 0.8"/>
     </g>
     <g id="line2d_14">
      <g>
       <use xlink:href="#meaa480db72" x="605.649785" y="320.4" style="fill: #a9a9a9; stroke: #a9a9a9; stroke-width: 0.8"/>
      </g>
     </g>
     <g id="text_7">
      <!-- 2024-07 -->
      <g style="fill: #a9a9a9" transform="translate(584.758379 334.998438) scale(0.1 -0.1)">
       <use xlink:href="#DejaVuSans-32"/>
       <use xlink:href="#DejaVuSans-30" transform="translate(63.623047 0)"/>
       <use xlink:href="#DejaVuSans-32" transform="translate(127.246094 0)"/>
       <use xlink:href="#DejaVuSans-34" transform="translate(190.869141 0)"/>
       <use xlink:href="#DejaVuSans-2d" transform="translate(254.492188 0)"/>
       <use xlink:href="#DejaVuSans-30" transform="translate(290.576172 0)"/>
       <use xlink:href="#DejaVuSans-37" transform="translate(354.199219 0)"/>
      </g>
     </g>
    </g>
    <g id="xtick_8">
     <g id="line2d_15">
      <path d="M 685.768396 320.4 
L 685.768396 43.2 
" clip-path="url(#p38cc57a041)" style="fill: none; stroke-dasharray: 5.12,1.28,0.8,1.28; stroke-dashoffset: 0; stroke: #b0b0b0; stroke-width: 0.8"/>
     </g>
     <g id="line2d_16">
      <g>
       <use xlink:href="#meaa480db72" x="685.768396" y="320.4" style="fill: #a9a9a9; stroke: #a9a9a9; stroke-width: 0.8"/>
      </g>
     </g>
     <g id="text_8">
      <!-- 2025-01 -->
      <g style="fill: #a9a9a9" transform="translate(664.87699 334.998438) scale(0.1 -0.1)">
       <defs>
        <path id="DejaVuSans-35" d="M 691 4666 
L 3169 4666 
L 3169 4134 
L 1269 4134 
L 1269 2991 
Q 1406 3038 1543 3061 
Q 1681 3084 1819 3084 
Q 2600 3084 3056 2656 
Q 3513 2228 3513 1497 
Q 3513 744 3044 326 
Q 2575 -91 1722 -91 
Q 1428 -91 1123 -41 
Q 819 9 494 109 
L 494 744 
Q 775 591 1075 516 
Q 1375 441 1709 441 
Q 2250 441 2565 725 
Q 2881 1009 2881 1497 
Q 2881 1984 2565 2268 
Q 2250 2553 1709 2553 
Q 1456 2553 1204 2497 
Q 953 2441 691 2322 
L 691 4666 
z
" transform="scale(0.015625)"/>
       </defs>
       <use xlink:href="#DejaVuSans-32"/>
       <use xlink:href="#DejaVuSans-30" transform="translate(63.623047 0)"/>
       <use xlink:href="#DejaVuSans-32" transform="translate(127.246094 0)"/>
       <use xlink:href="#DejaVuSans-35" transform="translate(190.869141 0)"/>
       <use xlink:href="#DejaVuSans-2d" transform="translate(254.492188 0)"/>
       <use xlink:href="#DejaVuSans-30" transform="translate(290.576172 0)"/>
       <use xlink:href="#DejaVuSans-31" transform="translate(354.199219 0)"/>
      </g>
     </g>
    </g>
    <g id="xtick_9">
     <g id="line2d_17">
      <path d="M 764.580726 320.4 
L 764.580726 43.2 
" clip-path="url(#p38cc57a041)" style="fill: none; stroke-dasharray: 5.12,1.28,0.8,1.28; stroke-dashoffset: 0; stroke: #b0b0b0; stroke-width: 0.8"/>
     </g>
     <g id="line2d_18">
      <g>
       <use xlink:href="#meaa480db72" x="764.580726" y="320.4" style="fill: #a9a9a9; stroke: #a9a9a9; stroke-width: 0.8"/>
      </g>
     </g>
     <g id="text_9">
      <!-- 2025-07 -->
      <g style="fill: #a9a9a9" transform="translate(743.689319 334.998438) scale(0.1 -0.1)">
       <use xlink:href="#DejaVuSans-32"/>
       <use xlink:href="#DejaVuSans-30" transform="translate(63.623047 0)"/>
       <use xlink:href="#DejaVuSans-32" transform="translate(127.246094 0)"/>
       <use xlink:href="#DejaVuSans-35" transform="translate(190.869141 0)"/>
       <use xlink:href="#DejaVuSans-2d" transform="translate(254.492188 0)"/>
       <use xlink:href="#DejaVuSans-30" transform="translate(290.576172 0)"/>
       <use xlink:href="#DejaVuSans-37" transform="translate(354.199219 0)"/>
      </g>
     </g>
    </g>
   </g>
   <g id="matplotlib.axis_2">
    <g id="ytick_1">
     <g id="line2d_19">
      <path d="M 108 307.83289 
L 777.6 307.83289 
" clip-path="url(#p38cc57a041)" style="fill: none; stroke-dasharray: 5.12,1.28,0.8,1.28; stroke-dashoffset: 0; stroke: #b0b0b0; stroke-width: 0.8"/>
     </g>
     <g id="line2d_20">
      <defs>
       <path id="m761d454476" d="M 0 0 
L -3.5 0 
" style="stroke: #a9a9a9; stroke-width: 0.8"/>
      </defs>
      <g>
       <use xlink:href="#m761d454476" x="108" y="307.83289" style="fill: #a9a9a9; stroke: #a9a9a9; stroke-width: 0.8"/>
      </g>
     </g>
     <g id="text_10">
      <!-- 0 -->
      <g style="fill: #a9a9a9" transform="translate(94.6375 311.632108) scale(0.1 -0.1)">
       <use xlink:href="#DejaVuSans-30"/>
      </g>
     </g>
    </g>
    <g id="ytick_2">
     <g id="line2d_21">
      <path d="M 108 274.943305 
L 777.6 274.943305 
" clip-path="url(#p38cc57a041)" style="fill: none; stroke-dasharray: 5.12,1.28,0.8,1.28; stroke-dashoffset: 0; stroke: #b0b0b0; stroke-width: 0.8"/>
     </g>
     <g id="line2d_22">
      <g>
       <use xlink:href="#m761d454476" x="108" y="274.943305" style="fill: #a9a9a9; stroke: #a9a9a9; stroke-width: 0.8"/>
      </g>
     </g>
     <g id="text_11">
      <!-- 1000 -->
      <g style="fill: #a9a9a9" transform="translate(75.55 278.742523) scale(0.1 -0.1)">
       <use xlink:href="#DejaVuSans-31"/>
       <use xlink:href="#DejaVuSans-30" transform="translate(63.623047 0)"/>
       <use xlink:href="#DejaVuSans-30" transform="translate(127.246094 0)"/>
       <use xlink:href="#DejaVuSans-30" transform="translate(190.869141 0)"/>
      </g>
     </g>
    </g>
    <g id="ytick_3">
     <g id="line2d_23">
      <path d="M 108 242.05372 
L 777.6 242.05372 
" clip-path="url(#p38cc57a041)" style="fill: none; stroke-dasharray: 5.12,1.28,0.8,1.28; stroke-dashoffset: 0; stroke: #b0b0b0; stroke-width: 0.8"/>
     </g>
     <g id="line2d_24">
      <g>
       <use xlink:href="#m761d454476" x="108" y="242.05372" style="fill: #a9a9a9; stroke: #a9a9a9; stroke-width: 0.8"/>
      </g>
     </g>
     <g id="text_12">
      <!-- 2000 -->
      <g style="fill: #a9a9a9" transform="translate(75.55 245.852938) scale(0.1 -0.1)">
       <use xlink:href="#DejaVuSans-32"/>
       <use xlink:href="#DejaVuSans-30" transform="translate(63.623047 0)"/>
       <use xlink:href="#DejaVuSans-30" transform="translate(127.246094 0)"/>
       <use xlink:href="#DejaVuSans-30" transform="translate(190.869141 0)"/>
      </g>
     </g>
    </g>
    <g id="ytick_4">
     <g id="line2d_25">
      <path d="M 108 209.164135 
L 777.6 209.164135 
" clip-path="url(#p38cc57a041)" style="fill: none; stroke-dasharray: 5.12,1.28,0.8,1.28; stroke-dashoffset: 0; stroke: #b0b0b0; stroke-width: 0.8"/>
     </g>
     <g id="line2d_26">
      <g>
       <use xlink:href="#m761d454476" x="108" y="209.164135" style="fill: #a9a9a9; stroke: #a9a9a9; stroke-width: 0.8"/>
      </g>
     </g>
     <g id="text_13">
      <!-- 3000 -->
      <g style="fill: #a9a9a9" transform="translate(75.55 212.963353) scale(0.1 -0.1)">
       <use xlink:href="#DejaVuSans-33"/>
       <use xlink:href="#DejaVuSans-30" transform="translate(63.623047 0)"/>
       <use xlink:href="#DejaVuSans-30" transform="translate(127.246094 0)"/>
       <use xlink:href="#DejaVuSans-30" transform="translate(190.869141 0)"/>
      </g>
     </g>
    </g>
    <g id="ytick_5">
     <g id="line2d_27">
      <path d="M 108 176.27455 
L 777.6 176.27455 
" clip-path="url(#p38cc57a041)" style="fill: none; stroke-dasharray: 5.12,1.28,0.8,1.28; stroke-dashoffset: 0; stroke: #b0b0b0; stroke-width: 0.8"/>
     </g>
     <g id="line2d_28">
      <g>
       <use xlink:href="#m761d454476" x="108" y="176.27455" style="fill: #a9a9a9; stroke: #a9a9a9; stroke-width: 0.8"/>
      </g>
     </g>
     <g id="text_14">
      <!-- 4000 -->
      <g style="fill: #a9a9a9" transform="translate(75.55 180.073768) scale(0.1 -0.1)">
       <use xlink:href="#DejaVuSans-34"/>
       <use xlink:href="#DejaVuSans-30" transform="translate(63.623047 0)"/>
       <use xlink:href="#DejaVuSans-30" transform="translate(127.246094 0)"/>
       <use xlink:href="#DejaVuSans-30" transform="translate(190.869141 0)"/>
      </g>
     </g>
    </g>
    <g id="ytick_6">
     <g id="line2d_29">
      <path d="M 108 143.384965 
L 777.6 143.384965 
" clip-path="url(#p38cc57a041)" style="fill: none; stroke-dasharray: 5.12,1.28,0.8,1.28; stroke-dashoffset: 0; stroke: #b0b0b0; stroke-width: 0.8"/>
     </g>
     <g id="line2d_30">
      <g>
       <use xlink:href="#m761d454476" x="108" y="143.384965" style="fill: #a9a9a9; stroke: #a9a9a9; stroke-width: 0.8"/>
      </g>
     </g>
     <g id="text_15">
      <!-- 5000 -->
      <g style="fill: #a9a9a9" transform="translate(75.55 147.184184) scale(0.1 -0.1)">
       <use xlink:href="#DejaVuSans-35"/>
       <use xlink:href="#DejaVuSans-30" transform="translate(63.623047 0)"/>
       <use xlink:href="#DejaVuSans-30" transform="translate(127.246094 0)"/>
       <use xlink:href="#DejaVuSans-30" transform="translate(190.869141 0)"/>
      </g>
     </g>
    </g>
    <g id="ytick_7">
     <g id="line2d_31">
      <path d="M 108 110.49538 
L 777.6 110.49538 
" clip-path="url(#p38cc57a041)" style="fill: none; stroke-dasharray: 5.12,1.28,0.8,1.28; stroke-dashoffset: 0; stroke: #b0b0b0; stroke-width: 0.8"/>
     </g>
     <g id="line2d_32">
      <g>
       <use xlink:href="#m761d454476" x="108" y="110.49538" style="fill: #a9a9a9; stroke: #a9a9a9; stroke-width: 0.8"/>
      </g>
     </g>
     <g id="text_16">
      <!-- 6000 -->
      <g style="fill: #a9a9a9" transform="translate(75.55 114.294599) scale(0.1 -0.1)">
       <defs>
        <path id="DejaVuSans-36" d="M 2113 2584 
Q 1688 2584 1439 2293 
Q 1191 2003 1191 1497 
Q 1191 994 1439 701 
Q 1688 409 2113 409 
Q 2538 409 2786 701 
Q 3034 994 3034 1497 
Q 3034 2003 2786 2293 
Q 2538 2584 2113 2584 
z
M 3366 4563 
L 3366 3988 
Q 3128 4100 2886 4159 
Q 2644 4219 2406 4219 
Q 1781 4219 1451 3797 
Q 1122 3375 1075 2522 
Q 1259 2794 1537 2939 
Q 1816 3084 2150 3084 
Q 2853 3084 3261 2657 
Q 3669 2231 3669 1497 
Q 3669 778 3244 343 
Q 2819 -91 2113 -91 
Q 1303 -91 875 529 
Q 447 1150 447 2328 
Q 447 3434 972 4092 
Q 1497 4750 2381 4750 
Q 2619 4750 2861 4703 
Q 3103 4656 3366 4563 
z
" transform="scale(0.015625)"/>
       </defs>
       <use xlink:href="#DejaVuSans-36"/>
       <use xlink:href="#DejaVuSans-30" transform="translate(63.623047 0)"/>
       <use xlink:href="#DejaVuSans-30" transform="translate(127.246094 0)"/>
       <use xlink:href="#DejaVuSans-30" transform="translate(190.869141 0)"/>
      </g>
     </g>
    </g>
    <g id="ytick_8">
     <g id="line2d_33">
      <path d="M 108 77.605795 
L 777.6 77.605795 
" clip-path="url(#p38cc57a041)" style="fill: none; stroke-dasharray: 5.12,1.28,0.8,1.28; stroke-dashoffset: 0; stroke: #b0b0b0; stroke-width: 0.8"/>
     </g>
     <g id="line2d_34">
      <g>
       <use xlink:href="#m761d454476" x="108" y="77.605795" style="fill: #a9a9a9; stroke: #a9a9a9; stroke-width: 0.8"/>
      </g>
     </g>
     <g id="text_17">
      <!-- 7000 -->
      <g style="fill: #a9a9a9" transform="translate(75.55 81.405014) scale(0.1 -0.1)">
       <use xlink:href="#DejaVuSans-37"/>
       <use xlink:href="#DejaVuSans-30" transform="translate(63.623047 0)"/>
       <use xlink:href="#DejaVuSans-30" transform="translate(127.246094 0)"/>
       <use xlink:href="#DejaVuSans-30" transform="translate(190.869141 0)"/>
      </g>
     </g>
    </g>
    <g id="ytick_9">
     <g id="line2d_35">
      <path d="M 108 44.71621 
L 777.6 44.71621 
" clip-path="url(#p38cc57a041)" style="fill: none; stroke-dasharray: 5.12,1.28,0.8,1.28; stroke-dashoffset: 0; stroke: #b0b0b0; stroke-width: 0.8"/>
     </g>
     <g id="line2d_36">
      <g>
       <use xlink:href="#m761d454476" x="108" y="44.71621" style="fill: #a9a9a9; stroke: #a9a9a9; stroke-width: 0.8"/>
      </g>
     </g>
     <g id="text_18">
      <!-- 8000 -->
      <g style="fill: #a9a9a9" transform="translate(75.55 48.515429) scale(0.1 -0.1)">
       <defs>
        <path id="DejaVuSans-38" d="M 2034 2216 
Q 1584 2216 1326 1975 
Q 1069 1734 1069 1313 
Q 1069 891 1326 650 
Q 1584 409 2034 409 
Q 2484 409 2743 651 
Q 3003 894 3003 1313 
Q 3003 1734 2745 1975 
Q 2488 2216 2034 2216 
z
M 1403 2484 
Q 997 2584 770 2862 
Q 544 3141 544 3541 
Q 544 4100 942 4425 
Q 1341 4750 2034 4750 
Q 2731 4750 3128 4425 
Q 3525 4100 3525 3541 
Q 3525 3141 3298 2862 
Q 3072 2584 2669 2484 
Q 3125 2378 3379 2068 
Q 3634 1759 3634 1313 
Q 3634 634 3220 271 
Q 2806 -91 2034 -91 
Q 1263 -91 848 271 
Q 434 634 434 1313 
Q 434 1759 690 2068 
Q 947 2378 1403 2484 
z
M 1172 3481 
Q 1172 3119 1398 2916 
Q 1625 2713 2034 2713 
Q 2441 2713 2670 2916 
Q 2900 3119 2900 3481 
Q 2900 3844 2670 4047 
Q 2441 4250 2034 4250 
Q 1625 4250 1398 4047 
Q 1172 3844 1172 3481 
z
" transform="scale(0.015625)"/>
       </defs>
       <use xlink:href="#DejaVuSans-38"/>
       <use xlink:href="#DejaVuSans-30" transform="translate(63.623047 0)"/>
       <use xlink:href="#DejaVuSans-30" transform="translate(127.246094 0)"/>
       <use xlink:href="#DejaVuSans-30" transform="translate(190.869141 0)"/>
      </g>
     </g>
    </g>
   </g>
   <g id="line2d_37">
    <path d="M 138.436364 307.734221 
L 141.048927 307.503994 
L 141.484354 307.306656 
L 143.226063 307.076429 
L 144.967772 306.714644 
L 145.838627 306.583085 
L 148.015763 306.385748 
L 148.886617 306.023962 
L 149.322044 305.43195 
L 149.757472 305.135944 
L 150.192899 304.149256 
L 150.628326 304.083477 
L 151.063753 303.721691 
L 151.934608 303.261237 
L 153.676317 301.814096 
L 155.418026 300.926077 
L 156.724307 300.301175 
L 157.159735 299.577604 
L 158.030589 298.919812 
L 158.466016 298.722475 
L 162.820289 298.064683 
L 163.255716 297.867345 
L 166.303707 297.604229 
L 168.045416 297.176664 
L 171.528833 296.68332 
L 171.964261 296.453093 
L 172.399688 296.387314 
L 173.270542 296.091308 
L 176.318533 295.565074 
L 177.189387 295.301958 
L 181.108233 294.644166 
L 181.979087 294.446829 
L 182.849941 294.413939 
L 184.59165 293.986374 
L 185.027078 293.361472 
L 186.333359 292.835239 
L 187.639641 292.473453 
L 188.075068 292.243226 
L 188.945923 292.078778 
L 190.687632 291.552545 
L 191.558486 291.486766 
L 192.429341 291.256539 
L 194.17105 290.796085 
L 194.606477 290.763195 
L 195.477331 290.33563 
L 195.912758 290.269851 
L 196.348186 290.039624 
L 201.137885 289.217384 
L 202.879594 288.691151 
L 203.315021 288.395145 
L 205.492158 287.671574 
L 206.363012 287.046672 
L 207.669294 286.783555 
L 217.248693 283.922161 
L 217.68412 283.889272 
L 218.990402 283.494597 
L 219.425829 283.494597 
L 219.861256 283.297259 
L 220.732111 283.19859 
L 221.167538 283.034143 
L 222.909247 282.968363 
L 223.780101 282.803915 
L 224.650956 282.343461 
L 225.957238 281.850117 
L 226.828092 281.389663 
L 227.698947 280.929209 
L 228.569801 280.633203 
L 229.005228 280.501644 
L 229.876083 279.942522 
L 230.31151 279.449178 
L 231.182364 278.067815 
L 231.617792 277.936257 
L 232.053219 277.936257 
L 233.359501 277.146907 
L 233.794928 276.91668 
L 234.230355 276.818011 
L 234.665782 276.390446 
L 235.536637 276.028661 
L 236.407491 275.601096 
L 238.584627 272.739702 
L 241.197191 271.292561 
L 242.068045 270.56899 
L 242.503472 270.305873 
L 242.9389 269.680971 
L 243.374327 268.661394 
L 243.809754 267.970713 
L 244.245181 267.608927 
L 244.680609 267.41159 
L 248.164027 264.122631 
L 249.034881 263.300392 
L 251.647444 261.623023 
L 252.082872 261.458575 
L 253.824581 260.406108 
L 254.260008 260.208771 
L 256.437144 258.169616 
L 257.307998 257.807831 
L 258.178853 257.182929 
L 258.61428 256.919812 
L 259.049707 256.854033 
L 260.355989 256.097572 
L 260.791416 255.604229 
L 262.968552 254.387314 
L 263.40398 254.222866 
L 264.710261 253.301958 
L 271.24167 250.933908 
L 272.112524 250.111668 
L 273.418806 249.453876 
L 274.289661 248.894753 
L 275.160515 248.631637 
L 275.595942 248.33563 
L 276.031369 248.204072 
L 277.337651 247.316053 
L 279.514787 246.822709 
L 280.821069 246.033359 
L 282.127351 245.737353 
L 282.562778 245.638684 
L 283.86906 244.619107 
L 285.610769 244.125764 
L 286.046196 243.763978 
L 288.658759 242.84307 
L 289.529614 242.678622 
L 290.400468 242.316836 
L 293.448459 241.165701 
L 294.319313 241.034143 
L 295.625595 240.573688 
L 297.802731 239.488332 
L 299.54444 238.501644 
L 303.027858 237.021613 
L 303.463285 236.955834 
L 304.33414 236.396711 
L 305.204994 236.166484 
L 306.511276 235.640251 
L 308.252985 235.410023 
L 309.123839 234.949569 
L 309.559266 234.554894 
L 309.994694 233.765544 
L 311.736403 233.2722 
L 313.042684 232.581519 
L 313.913539 232.285513 
L 314.784393 231.825059 
L 317.396957 230.739702 
L 318.267811 230.542365 
L 319.138666 230.081911 
L 319.574093 229.884573 
L 320.00952 229.818794 
L 322.186656 228.733438 
L 323.057511 228.174315 
L 324.363792 227.911198 
L 326.540929 227.352075 
L 326.976356 226.99029 
L 327.84721 226.694283 
L 330.024346 225.806265 
L 330.459774 225.477369 
L 330.895201 225.312921 
L 331.766055 224.819577 
L 333.507764 224.260454 
L 334.378619 223.701331 
L 334.814046 223.240877 
L 335.249473 222.97776 
L 335.684901 222.879092 
L 336.555755 222.155521 
L 336.991182 222.089742 
L 337.426609 221.366171 
L 337.862037 221.168833 
L 338.297464 220.807048 
L 338.732891 220.741269 
L 339.603746 220.182146 
L 340.4746 219.886139 
L 340.910027 219.557244 
L 341.345455 219.392796 
L 343.087163 218.208771 
L 344.393445 217.518089 
L 345.2643 217.287862 
L 346.135154 216.794518 
L 346.570581 216.038058 
L 347.441436 215.380266 
L 347.876863 215.281597 
L 350.489426 213.998904 
L 351.360281 213.637118 
L 352.231135 213.012216 
L 353.10199 212.124197 
L 357.020835 209.032576 
L 357.456262 208.670791 
L 358.327117 208.374785 
L 359.197971 207.782772 
L 360.504253 207.092091 
L 360.93968 207.026312 
L 362.245962 206.302741 
L 363.116816 205.743618 
L 367.471089 204.099139 
L 367.906516 203.737353 
L 369.648225 203.046672 
L 370.083652 202.915114 
L 370.954506 202.323101 
L 371.825361 201.961316 
L 372.696215 201.336413 
L 373.56707 199.560376 
L 374.437924 198.507909 
L 375.744206 197.817228 
L 376.61506 197.455442 
L 377.050488 197.389663 
L 377.485915 197.126547 
L 379.663051 196.402976 
L 380.098478 196.205638 
L 380.969333 195.613626 
L 382.275615 195.054503 
L 383.146469 194.561159 
L 384.017323 194.034926 
L 384.452751 193.738919 
L 384.888178 193.245576 
L 386.19446 192.489115 
L 386.629887 192.324667 
L 387.500741 191.798434 
L 389.24245 190.844636 
L 389.677877 190.745967 
L 390.113305 190.384182 
L 393.161295 189.364605 
L 393.596723 189.035709 
L 394.467577 188.772592 
L 395.338432 188.410807 
L 395.773859 188.049021 
L 397.515568 187.424119 
L 398.386422 186.799217 
L 399.257277 186.437431 
L 400.128131 185.74675 
L 400.998986 185.483634 
L 401.434413 185.088958 
L 401.86984 185.023179 
L 402.740694 184.332498 
L 403.611549 183.872044 
L 404.046976 183.674706 
L 404.482403 183.214252 
L 407.530394 181.964448 
L 408.401249 181.569773 
L 409.70753 181.142208 
L 410.578385 181.01065 
L 411.013812 180.813312 
L 411.449239 180.747533 
L 412.320094 180.352858 
L 412.755521 180.319969 
L 414.49723 179.662177 
L 415.803512 178.708379 
L 416.238939 178.543931 
L 417.109793 178.050587 
L 417.54522 177.919029 
L 420.157784 176.438998 
L 420.593211 176.340329 
L 421.899493 175.550979 
L 423.205774 175.090525 
L 424.076629 174.794518 
L 425.818338 174.202506 
L 426.689192 173.9065 
L 428.430901 173.544714 
L 428.866329 173.347377 
L 429.737183 173.11715 
L 430.17261 172.919812 
L 430.608037 172.854033 
L 431.043465 172.623806 
L 431.914319 172.459358 
L 433.220601 171.966014 
L 434.091455 171.867345 
L 435.397737 171.571339 
L 437.574873 171.176664 
L 448.895981 167.756147 
L 449.331409 167.295693 
L 451.943972 166.210337 
L 453.685681 165.618324 
L 454.121108 165.355208 
L 455.42739 164.960532 
L 456.298244 164.730305 
L 456.733671 164.434299 
L 457.169099 164.33563 
L 457.604526 163.940955 
L 458.910808 163.677839 
L 459.781662 163.250274 
L 460.217089 162.724041 
L 461.958798 162.296476 
L 465.006789 161.638684 
L 465.442216 161.638684 
L 465.877643 161.441347 
L 467.619352 161.112451 
L 468.05478 160.915114 
L 469.796488 160.586218 
L 470.667343 160.224432 
L 471.538197 160.059984 
L 473.715334 159.500861 
L 475.457043 158.941738 
L 475.89247 158.84307 
L 476.327897 158.612843 
L 477.198751 158.382616 
L 478.069606 158.02083 
L 478.94046 157.691934 
L 479.375888 157.395928 
L 480.246742 157.132811 
L 483.294733 155.981676 
L 485.036442 155.751449 
L 488.51986 154.468755 
L 488.955287 154.139859 
L 489.390714 154.04119 
L 489.826141 153.810963 
L 490.261568 153.778074 
L 495.051268 152.034926 
L 497.228404 151.442913 
L 498.099259 151.015348 
L 499.40554 150.719342 
L 501.147249 149.2722 
L 502.888958 148.51574 
L 503.759813 148.121065 
L 506.372376 147.101488 
L 506.807803 146.805482 
L 508.98494 146.081911 
L 510.291221 145.32545 
L 510.726648 145.226782 
L 512.468357 144.240094 
L 514.210066 143.450744 
L 514.645494 143.121848 
L 515.516348 142.825842 
L 517.693484 141.707596 
L 518.999766 141.247142 
L 520.741475 140.523571 
L 522.047757 140.030227 
L 522.483184 139.865779 
L 523.354038 139.734221 
L 523.789465 139.438215 
L 525.531174 139.076429 
L 526.402029 138.714644 
L 528.143738 137.892404 
L 534.239719 135.195458 
L 535.546001 134.767894 
L 535.981428 134.471887 
L 536.852282 134.373218 
L 537.28771 134.077212 
L 538.158564 133.912764 
L 539.029419 133.4852 
L 539.464846 133.287862 
L 540.3357 133.057635 
L 541.206555 132.794518 
L 542.512837 132.301175 
L 543.819118 131.87361 
L 545.1254 131.577604 
L 546.867109 130.854033 
L 547.737963 130.360689 
L 549.479672 129.47267 
L 550.350527 129.275333 
L 550.785954 129.012216 
L 551.221381 128.913547 
L 552.527663 128.157087 
L 553.398517 127.795301 
L 562.977917 124.078778 
L 564.719625 123.256539 
L 569.073898 121.54628 
L 569.944752 121.118716 
L 570.380179 121.020047 
L 570.815607 120.78982 
L 572.557316 120.296476 
L 574.299025 118.849334 
L 574.734452 118.717776 
L 575.169879 118.454659 
L 576.476161 118.092874 
L 576.911588 117.763978 
L 577.347015 117.665309 
L 578.653297 116.875959 
L 579.088724 116.579953 
L 580.395006 116.086609 
L 580.830433 115.856382 
L 582.136715 115.560376 
L 584.313851 114.803915 
L 585.184705 114.507909 
L 586.490987 113.850117 
L 587.361842 113.422553 
L 588.232696 113.192326 
L 589.538978 112.567424 
L 593.457823 111.087392 
L 594.764105 110.265153 
L 595.199532 110.166484 
L 596.070386 109.738919 
L 596.941241 109.410023 
L 597.376668 109.015348 
L 598.247522 108.653563 
L 599.553804 108.193109 
L 599.989231 107.831323 
L 600.424659 107.798434 
L 601.295513 107.535317 
L 602.166368 107.239311 
L 602.601795 107.041973 
L 603.037222 106.976194 
L 604.343504 106.48285 
L 605.649785 105.989507 
L 607.391494 105.200157 
L 608.262349 104.96993 
L 608.697776 104.706813 
L 609.568631 104.476586 
L 610.874912 103.720125 
L 611.310339 103.687236 
L 612.616621 103.259671 
L 613.487476 103.193892 
L 613.922903 102.963665 
L 614.793757 102.733438 
L 615.229185 102.503211 
L 617.406321 102.075646 
L 618.277175 101.911198 
L 619.583457 101.417854 
L 620.889739 101.121848 
L 622.19602 100.431167 
L 622.631448 100.036492 
L 623.937729 99.247142 
L 624.373156 98.918246 
L 625.679438 98.490681 
L 626.550293 98.227565 
L 626.98572 97.997338 
L 627.421147 97.898669 
L 627.856574 97.536883 
L 630.469138 96.418637 
L 632.210847 95.958183 
L 633.081701 95.563508 
L 633.517128 95.333281 
L 634.387983 95.070164 
L 634.82341 94.807048 
L 635.694265 94.6426 
L 639.177682 93.129679 
L 639.61311 93.0639 
L 640.919391 92.208771 
L 641.354819 92.142991 
L 643.096528 91.45231 
L 644.838236 91.024745 
L 645.273664 90.958966 
L 645.709091 90.761629 
L 646.144518 90.728739 
L 647.015373 90.432733 
L 647.4508 90.399843 
L 648.757082 89.87361 
L 650.49879 89.380266 
L 651.369645 88.722475 
L 653.111354 87.735787 
L 654.417636 87.275333 
L 657.901053 85.597964 
L 658.336481 85.367737 
L 658.771908 84.973062 
L 660.949044 84.381049 
L 662.255326 83.789037 
L 663.12618 83.55881 
L 663.561607 83.328583 
L 663.997035 82.966797 
L 665.738744 82.506343 
L 666.174171 82.177447 
L 671.834725 80.105403 
L 672.705579 79.940955 
L 674.882716 79.250274 
L 675.75357 78.888489 
L 676.624425 78.559593 
L 677.495279 78.329366 
L 677.930706 78.132028 
L 678.366133 78.132028 
L 679.236988 77.770243 
L 680.107842 77.244009 
L 683.155833 76.224432 
L 684.897542 75.63242 
L 686.203824 75.336413 
L 687.510105 74.908849 
L 687.945533 74.81018 
L 688.38096 74.514174 
L 689.251814 74.316836 
L 690.993523 73.823493 
L 691.42895 73.790603 
L 692.299805 73.395928 
L 695.347796 72.639468 
L 696.21865 72.277682 
L 700.572922 71.290995 
L 701.879204 70.600313 
L 703.185486 70.205638 
L 707.539758 68.594049 
L 707.975185 68.265153 
L 709.281467 67.969146 
L 710.152321 67.70603 
L 711.023176 67.278465 
L 711.458603 66.91668 
L 712.329458 66.653563 
L 712.764885 66.390446 
L 713.635739 66.291778 
L 716.68373 65.436648 
L 717.990012 65.173532 
L 720.602575 64.318403 
L 722.344284 63.496163 
L 727.133984 61.720125 
L 728.004838 61.588567 
L 728.875693 61.424119 
L 729.31112 61.424119 
L 731.052829 60.864996 
L 731.488256 60.799217 
L 732.35911 60.437431 
L 733.229965 60.207204 
L 735.842528 59.483634 
L 736.713383 59.253406 
L 737.14881 59.154738 
L 737.584237 58.891621 
L 738.455092 58.727173 
L 739.325946 58.628504 
L 739.761373 58.398277 
L 740.196801 58.365388 
L 741.067655 57.806265 
L 742.809364 57.41159 
L 743.680218 57.016915 
L 744.551073 56.720908 
L 745.421927 56.490681 
L 746.292782 56.096006 
L 747.163636 55.8 
L 747.163636 55.8 
" clip-path="url(#p38cc57a041)" style="fill: none; stroke: #1f77b4; stroke-width: 1.5; stroke-linecap: square"/>
   </g>
   <g id="line2d_38">
    <path d="M 138.871791 307.8 
L 142.790636 307.701331 
L 146.274054 307.536883 
L 148.015763 307.536883 
L 148.45119 307.405325 
L 150.628326 307.306656 
L 153.24089 307.01065 
L 155.853453 306.911981 
L 156.724307 306.813312 
L 159.772298 306.681754 
L 162.820289 306.583085 
L 164.997425 306.517306 
L 170.657979 306.418637 
L 172.835115 306.352858 
L 176.75396 306.25419 
L 178.495669 306.2213 
L 182.849941 306.122631 
L 184.59165 305.958183 
L 186.333359 305.925294 
L 188.945923 305.826625 
L 190.687632 305.793735 
L 192.864768 305.727956 
L 194.606477 305.563508 
L 198.525322 305.464839 
L 199.396176 305.39906 
L 201.137885 305.300392 
L 203.750449 305.201723 
L 205.492158 305.103054 
L 213.329848 304.60971 
L 216.377838 304.511042 
L 217.68412 304.379483 
L 219.861256 304.280814 
L 224.215529 304.050587 
L 228.569801 303.984808 
L 230.31151 303.787471 
L 232.053219 303.688802 
L 236.842918 303.228348 
L 239.890909 302.866562 
L 241.197191 302.800783 
L 244.680609 302.340329 
L 247.293172 302.27455 
L 248.599454 302.142991 
L 249.905735 302.044323 
L 262.097698 301.090525 
L 262.968552 300.926077 
L 265.581116 300.827408 
L 272.547952 300.399843 
L 275.595942 300.301175 
L 277.337651 300.103837 
L 279.514787 300.005168 
L 282.127351 299.9065 
L 284.304487 299.807831 
L 286.046196 299.774941 
L 288.223332 299.709162 
L 289.094187 299.577604 
L 295.190168 299.478935 
L 296.061022 299.380266 
L 301.286149 299.281597 
L 305.204994 299.08426 
L 308.252985 298.985591 
L 309.994694 298.788254 
L 313.042684 298.689585 
L 313.913539 298.525137 
L 316.090675 298.459358 
L 320.444947 298.393579 
L 322.186656 298.229131 
L 323.928365 298.196241 
L 325.234647 298.097572 
L 326.976356 297.933125 
L 331.330628 297.702897 
L 335.684901 297.604229 
L 339.603746 297.406891 
L 340.910027 297.374002 
L 341.780882 297.242443 
L 343.958018 297.143774 
L 344.828872 297.077995 
L 345.699727 297.012216 
L 346.570581 296.946437 
L 350.489426 296.880658 
L 351.795708 296.781989 
L 363.552243 295.992639 
L 365.72938 295.89397 
L 367.906516 295.828191 
L 374.002497 295.729522 
L 374.873352 295.597964 
L 380.969333 295.499295 
L 385.323605 295.269068 
L 386.19446 295.236179 
L 387.065314 295.13751 
L 389.24245 295.038841 
L 391.419586 294.973062 
L 393.596723 294.874393 
L 395.773859 294.808614 
L 399.692704 294.709945 
L 402.305267 294.611276 
L 408.401249 294.512608 
L 413.190948 294.249491 
L 414.932657 294.183712 
L 416.238939 294.085043 
L 422.33492 293.986374 
L 424.947483 293.887706 
L 432.785174 293.789037 
L 434.526883 293.756147 
L 439.752009 293.690368 
L 440.622864 293.624589 
L 446.718845 293.52592 
L 448.460554 293.493031 
L 459.781662 293.394362 
L 462.394226 293.295693 
L 480.682169 293.197024 
L 482.859306 293.131245 
L 494.180414 293.065466 
L 495.051268 292.999687 
L 497.228404 292.933908 
L 498.534686 292.802349 
L 501.147249 292.703681 
L 504.19524 292.572122 
L 508.114085 292.473453 
L 510.291221 292.407674 
L 513.339212 292.309005 
L 516.82263 292.144558 
L 518.999766 292.045889 
L 520.741475 292.012999 
L 524.66032 291.91433 
L 526.402029 291.881441 
L 532.062583 291.782772 
L 533.804292 291.749883 
L 535.981428 291.651214 
L 538.593991 291.552545 
L 541.641982 291.486766 
L 542.512837 291.420987 
L 552.96309 291.322318 
L 558.623644 290.993422 
L 560.80078 290.927643 
L 561.671635 290.828974 
L 562.542489 290.763195 
L 566.025907 290.664526 
L 568.638471 290.565857 
L 572.992743 290.467189 
L 575.169879 290.236962 
L 579.524151 290.138293 
L 580.395006 290.039624 
L 584.749278 289.940955 
L 586.926414 289.875176 
L 591.716114 289.842287 
L 592.586968 289.743618 
L 597.376668 289.644949 
L 598.247522 289.57917 
L 607.826922 289.480501 
L 610.439485 289.381832 
L 616.970893 289.283164 
L 618.712602 289.250274 
L 622.631448 289.184495 
L 623.502302 289.085826 
L 629.162856 288.987157 
L 631.339992 288.921378 
L 639.177682 288.822709 
L 640.483964 288.724041 
L 641.790246 288.625372 
L 643.096528 288.526703 
L 649.627936 288.428034 
L 652.240499 288.329366 
L 663.997035 288.230697 
L 667.91588 288.033359 
L 673.141007 287.934691 
L 674.011861 287.868912 
L 680.54327 287.803132 
L 681.414124 287.737353 
L 686.203824 287.638684 
L 687.945533 287.605795 
L 694.041514 287.507126 
L 696.654077 287.408457 
L 704.05634 287.309789 
L 705.798049 287.276899 
L 709.716894 287.17823 
L 713.200312 287.013782 
L 717.990012 286.915114 
L 721.038002 286.783555 
L 724.956847 286.684886 
L 725.827702 286.619107 
L 734.536247 286.520439 
L 736.713383 286.454659 
L 739.325946 286.355991 
L 741.93851 286.257322 
L 747.163636 286.191543 
L 747.163636 286.191543 
" clip-path="url(#p38cc57a041)" style="fill: none; stroke: #ff7f0e; stroke-width: 1.5; stroke-linecap: square"/>
   </g>
   <g id="patch_3">
    <path d="M 108 320.4 
L 108 43.2 
" style="fill: none; stroke: #a9a9a9; stroke-width: 0.8; stroke-linejoin: miter; stroke-linecap: square"/>
   </g>
   <g id="patch_4">
    <path d="M 777.6 320.4 
L 777.6 43.2 
" style="fill: none"/>
   </g>
   <g id="patch_5">
    <path d="M 108 320.4 
L 777.6 320.4 
" style="fill: none; stroke: #a9a9a9; stroke-width: 0.8; stroke-linejoin: miter; stroke-linecap: square"/>
   </g>
   <g id="patch_6">
    <path d="M 108 43.2 
L 777.6 43.2 
" style="fill: none"/>
   </g>
   <g id="text_19">
    <!-- get_subscribe history -->
    <g style="fill: #a9a9a9" transform="translate(378.6075 37.2) scale(0.12 -0.12)">
     <defs>
      <path id="DejaVuSans-67" d="M 2906 1791 
Q 2906 2416 2648 2759 
Q 2391 3103 1925 3103 
Q 1463 3103 1205 2759 
Q 947 2416 947 1791 
Q 947 1169 1205 825 
Q 1463 481 1925 481 
Q 2391 481 2648 825 
Q 2906 1169 2906 1791 
z
M 3481 434 
Q 3481 -459 3084 -895 
Q 2688 -1331 1869 -1331 
Q 1566 -1331 1297 -1286 
Q 1028 -1241 775 -1147 
L 775 -588 
Q 1028 -725 1275 -790 
Q 1522 -856 1778 -856 
Q 2344 -856 2625 -561 
Q 2906 -266 2906 331 
L 2906 616 
Q 2728 306 2450 153 
Q 2172 0 1784 0 
Q 1141 0 747 490 
Q 353 981 353 1791 
Q 353 2603 747 3093 
Q 1141 3584 1784 3584 
Q 2172 3584 2450 3431 
Q 2728 3278 2906 2969 
L 2906 3500 
L 3481 3500 
L 3481 434 
z
" transform="scale(0.015625)"/>
      <path id="DejaVuSans-65" d="M 3597 1894 
L 3597 1613 
L 953 1613 
Q 991 1019 1311 708 
Q 1631 397 2203 397 
Q 2534 397 2845 478 
Q 3156 559 3463 722 
L 3463 178 
Q 3153 47 2828 -22 
Q 2503 -91 2169 -91 
Q 1331 -91 842 396 
Q 353 884 353 1716 
Q 353 2575 817 3079 
Q 1281 3584 2069 3584 
Q 2775 3584 3186 3129 
Q 3597 2675 3597 1894 
z
M 3022 2063 
Q 3016 2534 2758 2815 
Q 2500 3097 2075 3097 
Q 1594 3097 1305 2825 
Q 1016 2553 972 2059 
L 3022 2063 
z
" transform="scale(0.015625)"/>
      <path id="DejaVuSans-74" d="M 1172 4494 
L 1172 3500 
L 2356 3500 
L 2356 3053 
L 1172 3053 
L 1172 1153 
Q 1172 725 1289 603 
Q 1406 481 1766 481 
L 2356 481 
L 2356 0 
L 1766 0 
Q 1100 0 847 248 
Q 594 497 594 1153 
L 594 3053 
L 172 3053 
L 172 3500 
L 594 3500 
L 594 4494 
L 1172 4494 
z
" transform="scale(0.015625)"/>
      <path id="DejaVuSans-5f" d="M 3263 -1063 
L 3263 -1509 
L -63 -1509 
L -63 -1063 
L 3263 -1063 
z
" transform="scale(0.015625)"/>
      <path id="DejaVuSans-73" d="M 2834 3397 
L 2834 2853 
Q 2591 2978 2328 3040 
Q 2066 3103 1784 3103 
Q 1356 3103 1142 2972 
Q 928 2841 928 2578 
Q 928 2378 1081 2264 
Q 1234 2150 1697 2047 
L 1894 2003 
Q 2506 1872 2764 1633 
Q 3022 1394 3022 966 
Q 3022 478 2636 193 
Q 2250 -91 1575 -91 
Q 1294 -91 989 -36 
Q 684 19 347 128 
L 347 722 
Q 666 556 975 473 
Q 1284 391 1588 391 
Q 1994 391 2212 530 
Q 2431 669 2431 922 
Q 2431 1156 2273 1281 
Q 2116 1406 1581 1522 
L 1381 1569 
Q 847 1681 609 1914 
Q 372 2147 372 2553 
Q 372 3047 722 3315 
Q 1072 3584 1716 3584 
Q 2034 3584 2315 3537 
Q 2597 3491 2834 3397 
z
" transform="scale(0.015625)"/>
      <path id="DejaVuSans-75" d="M 544 1381 
L 544 3500 
L 1119 3500 
L 1119 1403 
Q 1119 906 1312 657 
Q 1506 409 1894 409 
Q 2359 409 2629 706 
Q 2900 1003 2900 1516 
L 2900 3500 
L 3475 3500 
L 3475 0 
L 2900 0 
L 2900 538 
Q 2691 219 2414 64 
Q 2138 -91 1772 -91 
Q 1169 -91 856 284 
Q 544 659 544 1381 
z
M 1991 3584 
L 1991 3584 
z
" transform="scale(0.015625)"/>
      <path id="DejaVuSans-62" d="M 3116 1747 
Q 3116 2381 2855 2742 
Q 2594 3103 2138 3103 
Q 1681 3103 1420 2742 
Q 1159 2381 1159 1747 
Q 1159 1113 1420 752 
Q 1681 391 2138 391 
Q 2594 391 2855 752 
Q 3116 1113 3116 1747 
z
M 1159 2969 
Q 1341 3281 1617 3432 
Q 1894 3584 2278 3584 
Q 2916 3584 3314 3078 
Q 3713 2572 3713 1747 
Q 3713 922 3314 415 
Q 2916 -91 2278 -91 
Q 1894 -91 1617 61 
Q 1341 213 1159 525 
L 1159 0 
L 581 0 
L 581 4863 
L 1159 4863 
L 1159 2969 
z
" transform="scale(0.015625)"/>
      <path id="DejaVuSans-63" d="M 3122 3366 
L 3122 2828 
Q 2878 2963 2633 3030 
Q 2388 3097 2138 3097 
Q 1578 3097 1268 2742 
Q 959 2388 959 1747 
Q 959 1106 1268 751 
Q 1578 397 2138 397 
Q 2388 397 2633 464 
Q 2878 531 3122 666 
L 3122 134 
Q 2881 22 2623 -34 
Q 2366 -91 2075 -91 
Q 1284 -91 818 406 
Q 353 903 353 1747 
Q 353 2603 823 3093 
Q 1294 3584 2113 3584 
Q 2378 3584 2631 3529 
Q 2884 3475 3122 3366 
z
" transform="scale(0.015625)"/>
      <path id="DejaVuSans-72" d="M 2631 2963 
Q 2534 3019 2420 3045 
Q 2306 3072 2169 3072 
Q 1681 3072 1420 2755 
Q 1159 2438 1159 1844 
L 1159 0 
L 581 0 
L 581 3500 
L 1159 3500 
L 1159 2956 
Q 1341 3275 1631 3429 
Q 1922 3584 2338 3584 
Q 2397 3584 2469 3576 
Q 2541 3569 2628 3553 
L 2631 2963 
z
" transform="scale(0.015625)"/>
      <path id="DejaVuSans-69" d="M 603 3500 
L 1178 3500 
L 1178 0 
L 603 0 
L 603 3500 
z
M 603 4863 
L 1178 4863 
L 1178 4134 
L 603 4134 
L 603 4863 
z
" transform="scale(0.015625)"/>
      <path id="DejaVuSans-20" transform="scale(0.015625)"/>
      <path id="DejaVuSans-68" d="M 3513 2113 
L 3513 0 
L 2938 0 
L 2938 2094 
Q 2938 2591 2744 2837 
Q 2550 3084 2163 3084 
Q 1697 3084 1428 2787 
Q 1159 2491 1159 1978 
L 1159 0 
L 581 0 
L 581 4863 
L 1159 4863 
L 1159 2956 
Q 1366 3272 1645 3428 
Q 1925 3584 2291 3584 
Q 2894 3584 3203 3211 
Q 3513 2838 3513 2113 
z
" transform="scale(0.015625)"/>
      <path id="DejaVuSans-6f" d="M 1959 3097 
Q 1497 3097 1228 2736 
Q 959 2375 959 1747 
Q 959 1119 1226 758 
Q 1494 397 1959 397 
Q 2419 397 2687 759 
Q 2956 1122 2956 1747 
Q 2956 2369 2687 2733 
Q 2419 3097 1959 3097 
z
M 1959 3584 
Q 2709 3584 3137 3096 
Q 3566 2609 3566 1747 
Q 3566 888 3137 398 
Q 2709 -91 1959 -91 
Q 1206 -91 779 398 
Q 353 888 353 1747 
Q 353 2609 779 3096 
Q 1206 3584 1959 3584 
z
" transform="scale(0.015625)"/>
      <path id="DejaVuSans-79" d="M 2059 -325 
Q 1816 -950 1584 -1140 
Q 1353 -1331 966 -1331 
L 506 -1331 
L 506 -850 
L 844 -850 
Q 1081 -850 1212 -737 
Q 1344 -625 1503 -206 
L 1606 56 
L 191 3500 
L 800 3500 
L 1894 763 
L 2988 3500 
L 3597 3500 
L 2059 -325 
z
" transform="scale(0.015625)"/>
     </defs>
     <use xlink:href="#DejaVuSans-67"/>
     <use xlink:href="#DejaVuSans-65" transform="translate(63.476562 0)"/>
     <use xlink:href="#DejaVuSans-74" transform="translate(125 0)"/>
     <use xlink:href="#DejaVuSans-5f" transform="translate(164.208984 0)"/>
     <use xlink:href="#DejaVuSans-73" transform="translate(214.208984 0)"/>
     <use xlink:href="#DejaVuSans-75" transform="translate(266.308594 0)"/>
     <use xlink:href="#DejaVuSans-62" transform="translate(329.6875 0)"/>
     <use xlink:href="#DejaVuSans-73" transform="translate(393.164062 0)"/>
     <use xlink:href="#DejaVuSans-63" transform="translate(445.263672 0)"/>
     <use xlink:href="#DejaVuSans-72" transform="translate(500.244141 0)"/>
     <use xlink:href="#DejaVuSans-69" transform="translate(541.357422 0)"/>
     <use xlink:href="#DejaVuSans-62" transform="translate(569.140625 0)"/>
     <use xlink:href="#DejaVuSans-65" transform="translate(632.617188 0)"/>
     <use xlink:href="#DejaVuSans-20" transform="translate(694.140625 0)"/>
     <use xlink:href="#DejaVuSans-68" transform="translate(725.927734 0)"/>
     <use xlink:href="#DejaVuSans-69" transform="translate(789.306641 0)"/>
     <use xlink:href="#DejaVuSans-73" transform="translate(817.089844 0)"/>
     <use xlink:href="#DejaVuSans-74" transform="translate(869.189453 0)"/>
     <use xlink:href="#DejaVuSans-6f" transform="translate(908.398438 0)"/>
     <use xlink:href="#DejaVuSans-72" transform="translate(969.580078 0)"/>
     <use xlink:href="#DejaVuSans-79" transform="translate(1010.693359 0)"/>
    </g>
   </g>
   <g id="legend_1">
    <g id="line2d_39">
     <path d="M 815.08 328.498438 
L 825.08 328.498438 
L 835.08 328.498438 
" style="fill: none; stroke: #1f77b4; stroke-width: 1.5; stroke-linecap: square"/>
    </g>
    <g id="text_20">
     <!-- star -->
     <g style="fill: #a9a9a9" transform="translate(843.08 331.998438) scale(0.1 -0.1)">
      <defs>
       <path id="DejaVuSans-61" d="M 2194 1759 
Q 1497 1759 1228 1600 
Q 959 1441 959 1056 
Q 959 750 1161 570 
Q 1363 391 1709 391 
Q 2188 391 2477 730 
Q 2766 1069 2766 1631 
L 2766 1759 
L 2194 1759 
z
M 3341 1997 
L 3341 0 
L 2766 0 
L 2766 531 
Q 2569 213 2275 61 
Q 1981 -91 1556 -91 
Q 1019 -91 701 211 
Q 384 513 384 1019 
Q 384 1609 779 1909 
Q 1175 2209 1959 2209 
L 2766 2209 
L 2766 2266 
Q 2766 2663 2505 2880 
Q 2244 3097 1772 3097 
Q 1472 3097 1187 3025 
Q 903 2953 641 2809 
L 641 3341 
Q 956 3463 1253 3523 
Q 1550 3584 1831 3584 
Q 2591 3584 2966 3190 
Q 3341 2797 3341 1997 
z
" transform="scale(0.015625)"/>
      </defs>
      <use xlink:href="#DejaVuSans-73"/>
      <use xlink:href="#DejaVuSans-74" transform="translate(52.099609 0)"/>
      <use xlink:href="#DejaVuSans-61" transform="translate(91.308594 0)"/>
      <use xlink:href="#DejaVuSans-72" transform="translate(152.587891 0)"/>
     </g>
    </g>
    <g id="line2d_40">
     <path d="M 815.08 343.176562 
L 825.08 343.176562 
L 835.08 343.176562 
" style="fill: none; stroke: #ff7f0e; stroke-width: 1.5; stroke-linecap: square"/>
    </g>
    <g id="text_21">
     <!-- fork -->
     <g style="fill: #a9a9a9" transform="translate(843.08 346.676562) scale(0.1 -0.1)">
      <defs>
       <path id="DejaVuSans-66" d="M 2375 4863 
L 2375 4384 
L 1825 4384 
Q 1516 4384 1395 4259 
Q 1275 4134 1275 3809 
L 1275 3500 
L 2222 3500 
L 2222 3053 
L 1275 3053 
L 1275 0 
L 697 0 
L 697 3053 
L 147 3053 
L 147 3500 
L 697 3500 
L 697 3744 
Q 697 4328 969 4595 
Q 1241 4863 1831 4863 
L 2375 4863 
z
" transform="scale(0.015625)"/>
       <path id="DejaVuSans-6b" d="M 581 4863 
L 1159 4863 
L 1159 1991 
L 2875 3500 
L 3609 3500 
L 1753 1863 
L 3688 0 
L 2938 0 
L 1159 1709 
L 1159 0 
L 581 0 
L 581 4863 
z
" transform="scale(0.015625)"/>
      </defs>
      <use xlink:href="#DejaVuSans-66"/>
      <use xlink:href="#DejaVuSans-6f" transform="translate(35.205078 0)"/>
      <use xlink:href="#DejaVuSans-72" transform="translate(96.386719 0)"/>
      <use xlink:href="#DejaVuSans-6b" transform="translate(137.5 0)"/>
     </g>
    </g>
   </g>
  </g>
 </g>
 <defs>
  <clipPath id="p38cc57a041">
   <rect x="108" y="43.2" width="669.6" height="277.2"/>
  </clipPath>
 </defs>
</svg>
