<?xml version="1.0" encoding="utf-8" standalone="no"?>
<!DOCTYPE svg PUBLIC "-//W3C//DTD SVG 1.1//EN"
  "http://www.w3.org/Graphics/SVG/1.1/DTD/svg11.dtd">
<svg xmlns:xlink="http://www.w3.org/1999/xlink" width="864pt" height="360pt" viewBox="0 0 864 360" xmlns="http://www.w3.org/2000/svg" version="1.1">
 <metadata>
  <rdf:RDF xmlns:dc="http://purl.org/dc/elements/1.1/" xmlns:cc="http://creativecommons.org/ns#" xmlns:rdf="http://www.w3.org/1999/02/22-rdf-syntax-ns#">
   <cc:Work>
    <dc:type rdf:resource="http://purl.org/dc/dcmitype/StillImage"/>
    <dc:date>2025-05-24T08:15:22.926824</dc:date>
    <dc:format>image/svg+xml</dc:format>
    <dc:creator>
     <cc:Agent>
      <dc:title>Matplotlib v3.10.3, https://matplotlib.org/</dc:title>
     </cc:Agent>
    </dc:creator>
   </cc:Work>
  </rdf:RDF>
 </metadata>
 <defs>
  <style type="text/css">*{stroke-linejoin: round; stroke-linecap: butt}</style>
 </defs>
 <g id="figure_1">
  <g id="patch_1">
   <path d="M 0 360 
L 864 360 
L 864 0 
L 0 0 
L 0 360 
z
" style="fill: none; opacity: 0"/>
  </g>
  <g id="axes_1">
   <g id="patch_2">
    <path d="M 108 320.4 
L 777.6 320.4 
L 777.6 43.2 
L 108 43.2 
L 108 320.4 
z
" style="fill: none; opacity: 0"/>
   </g>
   <g id="matplotlib.axis_1">
    <g id="xtick_1">
     <g id="line2d_1">
      <path d="M 128.435844 320.4 
L 128.435844 43.2 
" clip-path="url(#p6e4a5107c2)" style="fill: none; stroke-dasharray: 5.12,1.28,0.8,1.28; stroke-dashoffset: 0; stroke: #b0b0b0; stroke-width: 0.8"/>
     </g>
     <g id="line2d_2">
      <defs>
       <path id="m5df8a05b27" d="M 0 0 
L 0 3.5 
" style="stroke: #a9a9a9; stroke-width: 0.8"/>
      </defs>
      <g>
       <use xlink:href="#m5df8a05b27" x="128.435844" y="320.4" style="fill: #a9a9a9; stroke: #a9a9a9; stroke-width: 0.8"/>
      </g>
     </g>
     <g id="text_1">
      <!-- 2021-07 -->
      <g style="fill: #a9a9a9" transform="translate(107.544438 334.998438) scale(0.1 -0.1)">
       <defs>
        <path id="DejaVuSans-32" d="M 1228 531 
L 3431 531 
L 3431 0 
L 469 0 
L 469 531 
Q 828 903 1448 1529 
Q 2069 2156 2228 2338 
Q 2531 2678 2651 2914 
Q 2772 3150 2772 3378 
Q 2772 3750 2511 3984 
Q 2250 4219 1831 4219 
Q 1534 4219 1204 4116 
Q 875 4013 500 3803 
L 500 4441 
Q 881 4594 1212 4672 
Q 1544 4750 1819 4750 
Q 2544 4750 2975 4387 
Q 3406 4025 3406 3419 
Q 3406 3131 3298 2873 
Q 3191 2616 2906 2266 
Q 2828 2175 2409 1742 
Q 1991 1309 1228 531 
z
" transform="scale(0.015625)"/>
        <path id="DejaVuSans-30" d="M 2034 4250 
Q 1547 4250 1301 3770 
Q 1056 3291 1056 2328 
Q 1056 1369 1301 889 
Q 1547 409 2034 409 
Q 2525 409 2770 889 
Q 3016 1369 3016 2328 
Q 3016 3291 2770 3770 
Q 2525 4250 2034 4250 
z
M 2034 4750 
Q 2819 4750 3233 4129 
Q 3647 3509 3647 2328 
Q 3647 1150 3233 529 
Q 2819 -91 2034 -91 
Q 1250 -91 836 529 
Q 422 1150 422 2328 
Q 422 3509 836 4129 
Q 1250 4750 2034 4750 
z
" transform="scale(0.015625)"/>
        <path id="DejaVuSans-31" d="M 794 531 
L 1825 531 
L 1825 4091 
L 703 3866 
L 703 4441 
L 1819 4666 
L 2450 4666 
L 2450 531 
L 3481 531 
L 3481 0 
L 794 0 
L 794 531 
z
" transform="scale(0.015625)"/>
        <path id="DejaVuSans-2d" d="M 313 2009 
L 1997 2009 
L 1997 1497 
L 313 1497 
L 313 2009 
z
" transform="scale(0.015625)"/>
        <path id="DejaVuSans-37" d="M 525 4666 
L 3525 4666 
L 3525 4397 
L 1831 0 
L 1172 0 
L 2766 4134 
L 525 4134 
L 525 4666 
z
" transform="scale(0.015625)"/>
       </defs>
       <use xlink:href="#DejaVuSans-32"/>
       <use xlink:href="#DejaVuSans-30" transform="translate(63.623047 0)"/>
       <use xlink:href="#DejaVuSans-32" transform="translate(127.246094 0)"/>
       <use xlink:href="#DejaVuSans-31" transform="translate(190.869141 0)"/>
       <use xlink:href="#DejaVuSans-2d" transform="translate(254.492188 0)"/>
       <use xlink:href="#DejaVuSans-30" transform="translate(290.576172 0)"/>
       <use xlink:href="#DejaVuSans-37" transform="translate(354.199219 0)"/>
      </g>
     </g>
    </g>
    <g id="xtick_2">
     <g id="line2d_3">
      <path d="M 208.44 320.4 
L 208.44 43.2 
" clip-path="url(#p6e4a5107c2)" style="fill: none; stroke-dasharray: 5.12,1.28,0.8,1.28; stroke-dashoffset: 0; stroke: #b0b0b0; stroke-width: 0.8"/>
     </g>
     <g id="line2d_4">
      <g>
       <use xlink:href="#m5df8a05b27" x="208.44" y="320.4" style="fill: #a9a9a9; stroke: #a9a9a9; stroke-width: 0.8"/>
      </g>
     </g>
     <g id="text_2">
      <!-- 2022-01 -->
      <g style="fill: #a9a9a9" transform="translate(187.548594 334.998438) scale(0.1 -0.1)">
       <use xlink:href="#DejaVuSans-32"/>
       <use xlink:href="#DejaVuSans-30" transform="translate(63.623047 0)"/>
       <use xlink:href="#DejaVuSans-32" transform="translate(127.246094 0)"/>
       <use xlink:href="#DejaVuSans-32" transform="translate(190.869141 0)"/>
       <use xlink:href="#DejaVuSans-2d" transform="translate(254.492188 0)"/>
       <use xlink:href="#DejaVuSans-30" transform="translate(290.576172 0)"/>
       <use xlink:href="#DejaVuSans-31" transform="translate(354.199219 0)"/>
      </g>
     </g>
    </g>
    <g id="xtick_3">
     <g id="line2d_5">
      <path d="M 287.13974 320.4 
L 287.13974 43.2 
" clip-path="url(#p6e4a5107c2)" style="fill: none; stroke-dasharray: 5.12,1.28,0.8,1.28; stroke-dashoffset: 0; stroke: #b0b0b0; stroke-width: 0.8"/>
     </g>
     <g id="line2d_6">
      <g>
       <use xlink:href="#m5df8a05b27" x="287.13974" y="320.4" style="fill: #a9a9a9; stroke: #a9a9a9; stroke-width: 0.8"/>
      </g>
     </g>
     <g id="text_3">
      <!-- 2022-07 -->
      <g style="fill: #a9a9a9" transform="translate(266.248334 334.998438) scale(0.1 -0.1)">
       <use xlink:href="#DejaVuSans-32"/>
       <use xlink:href="#DejaVuSans-30" transform="translate(63.623047 0)"/>
       <use xlink:href="#DejaVuSans-32" transform="translate(127.246094 0)"/>
       <use xlink:href="#DejaVuSans-32" transform="translate(190.869141 0)"/>
       <use xlink:href="#DejaVuSans-2d" transform="translate(254.492188 0)"/>
       <use xlink:href="#DejaVuSans-30" transform="translate(290.576172 0)"/>
       <use xlink:href="#DejaVuSans-37" transform="translate(354.199219 0)"/>
      </g>
     </g>
    </g>
    <g id="xtick_4">
     <g id="line2d_7">
      <path d="M 367.143896 320.4 
L 367.143896 43.2 
" clip-path="url(#p6e4a5107c2)" style="fill: none; stroke-dasharray: 5.12,1.28,0.8,1.28; stroke-dashoffset: 0; stroke: #b0b0b0; stroke-width: 0.8"/>
     </g>
     <g id="line2d_8">
      <g>
       <use xlink:href="#m5df8a05b27" x="367.143896" y="320.4" style="fill: #a9a9a9; stroke: #a9a9a9; stroke-width: 0.8"/>
      </g>
     </g>
     <g id="text_4">
      <!-- 2023-01 -->
      <g style="fill: #a9a9a9" transform="translate(346.25249 334.998438) scale(0.1 -0.1)">
       <defs>
        <path id="DejaVuSans-33" d="M 2597 2516 
Q 3050 2419 3304 2112 
Q 3559 1806 3559 1356 
Q 3559 666 3084 287 
Q 2609 -91 1734 -91 
Q 1441 -91 1130 -33 
Q 819 25 488 141 
L 488 750 
Q 750 597 1062 519 
Q 1375 441 1716 441 
Q 2309 441 2620 675 
Q 2931 909 2931 1356 
Q 2931 1769 2642 2001 
Q 2353 2234 1838 2234 
L 1294 2234 
L 1294 2753 
L 1863 2753 
Q 2328 2753 2575 2939 
Q 2822 3125 2822 3475 
Q 2822 3834 2567 4026 
Q 2313 4219 1838 4219 
Q 1578 4219 1281 4162 
Q 984 4106 628 3988 
L 628 4550 
Q 988 4650 1302 4700 
Q 1616 4750 1894 4750 
Q 2613 4750 3031 4423 
Q 3450 4097 3450 3541 
Q 3450 3153 3228 2886 
Q 3006 2619 2597 2516 
z
" transform="scale(0.015625)"/>
       </defs>
       <use xlink:href="#DejaVuSans-32"/>
       <use xlink:href="#DejaVuSans-30" transform="translate(63.623047 0)"/>
       <use xlink:href="#DejaVuSans-32" transform="translate(127.246094 0)"/>
       <use xlink:href="#DejaVuSans-33" transform="translate(190.869141 0)"/>
       <use xlink:href="#DejaVuSans-2d" transform="translate(254.492188 0)"/>
       <use xlink:href="#DejaVuSans-30" transform="translate(290.576172 0)"/>
       <use xlink:href="#DejaVuSans-31" transform="translate(354.199219 0)"/>
      </g>
     </g>
    </g>
    <g id="xtick_5">
     <g id="line2d_9">
      <path d="M 445.843636 320.4 
L 445.843636 43.2 
" clip-path="url(#p6e4a5107c2)" style="fill: none; stroke-dasharray: 5.12,1.28,0.8,1.28; stroke-dashoffset: 0; stroke: #b0b0b0; stroke-width: 0.8"/>
     </g>
     <g id="line2d_10">
      <g>
       <use xlink:href="#m5df8a05b27" x="445.843636" y="320.4" style="fill: #a9a9a9; stroke: #a9a9a9; stroke-width: 0.8"/>
      </g>
     </g>
     <g id="text_5">
      <!-- 2023-07 -->
      <g style="fill: #a9a9a9" transform="translate(424.95223 334.998438) scale(0.1 -0.1)">
       <use xlink:href="#DejaVuSans-32"/>
       <use xlink:href="#DejaVuSans-30" transform="translate(63.623047 0)"/>
       <use xlink:href="#DejaVuSans-32" transform="translate(127.246094 0)"/>
       <use xlink:href="#DejaVuSans-33" transform="translate(190.869141 0)"/>
       <use xlink:href="#DejaVuSans-2d" transform="translate(254.492188 0)"/>
       <use xlink:href="#DejaVuSans-30" transform="translate(290.576172 0)"/>
       <use xlink:href="#DejaVuSans-37" transform="translate(354.199219 0)"/>
      </g>
     </g>
    </g>
    <g id="xtick_6">
     <g id="line2d_11">
      <path d="M 525.847792 320.4 
L 525.847792 43.2 
" clip-path="url(#p6e4a5107c2)" style="fill: none; stroke-dasharray: 5.12,1.28,0.8,1.28; stroke-dashoffset: 0; stroke: #b0b0b0; stroke-width: 0.8"/>
     </g>
     <g id="line2d_12">
      <g>
       <use xlink:href="#m5df8a05b27" x="525.847792" y="320.4" style="fill: #a9a9a9; stroke: #a9a9a9; stroke-width: 0.8"/>
      </g>
     </g>
     <g id="text_6">
      <!-- 2024-01 -->
      <g style="fill: #a9a9a9" transform="translate(504.956386 334.998438) scale(0.1 -0.1)">
       <defs>
        <path id="DejaVuSans-34" d="M 2419 4116 
L 825 1625 
L 2419 1625 
L 2419 4116 
z
M 2253 4666 
L 3047 4666 
L 3047 1625 
L 3713 1625 
L 3713 1100 
L 3047 1100 
L 3047 0 
L 2419 0 
L 2419 1100 
L 313 1100 
L 313 1709 
L 2253 4666 
z
" transform="scale(0.015625)"/>
       </defs>
       <use xlink:href="#DejaVuSans-32"/>
       <use xlink:href="#DejaVuSans-30" transform="translate(63.623047 0)"/>
       <use xlink:href="#DejaVuSans-32" transform="translate(127.246094 0)"/>
       <use xlink:href="#DejaVuSans-34" transform="translate(190.869141 0)"/>
       <use xlink:href="#DejaVuSans-2d" transform="translate(254.492188 0)"/>
       <use xlink:href="#DejaVuSans-30" transform="translate(290.576172 0)"/>
       <use xlink:href="#DejaVuSans-31" transform="translate(354.199219 0)"/>
      </g>
     </g>
    </g>
    <g id="xtick_7">
     <g id="line2d_13">
      <path d="M 604.982338 320.4 
L 604.982338 43.2 
" clip-path="url(#p6e4a5107c2)" style="fill: none; stroke-dasharray: 5.12,1.28,0.8,1.28; stroke-dashoffset: 0; stroke: #b0b0b0; stroke-width: 0.8"/>
     </g>
     <g id="line2d_14">
      <g>
       <use xlink:href="#m5df8a05b27" x="604.982338" y="320.4" style="fill: #a9a9a9; stroke: #a9a9a9; stroke-width: 0.8"/>
      </g>
     </g>
     <g id="text_7">
      <!-- 2024-07 -->
      <g style="fill: #a9a9a9" transform="translate(584.090931 334.998438) scale(0.1 -0.1)">
       <use xlink:href="#DejaVuSans-32"/>
       <use xlink:href="#DejaVuSans-30" transform="translate(63.623047 0)"/>
       <use xlink:href="#DejaVuSans-32" transform="translate(127.246094 0)"/>
       <use xlink:href="#DejaVuSans-34" transform="translate(190.869141 0)"/>
       <use xlink:href="#DejaVuSans-2d" transform="translate(254.492188 0)"/>
       <use xlink:href="#DejaVuSans-30" transform="translate(290.576172 0)"/>
       <use xlink:href="#DejaVuSans-37" transform="translate(354.199219 0)"/>
      </g>
     </g>
    </g>
    <g id="xtick_8">
     <g id="line2d_15">
      <path d="M 684.986494 320.4 
L 684.986494 43.2 
" clip-path="url(#p6e4a5107c2)" style="fill: none; stroke-dasharray: 5.12,1.28,0.8,1.28; stroke-dashoffset: 0; stroke: #b0b0b0; stroke-width: 0.8"/>
     </g>
     <g id="line2d_16">
      <g>
       <use xlink:href="#m5df8a05b27" x="684.986494" y="320.4" style="fill: #a9a9a9; stroke: #a9a9a9; stroke-width: 0.8"/>
      </g>
     </g>
     <g id="text_8">
      <!-- 2025-01 -->
      <g style="fill: #a9a9a9" transform="translate(664.095087 334.998438) scale(0.1 -0.1)">
       <defs>
        <path id="DejaVuSans-35" d="M 691 4666 
L 3169 4666 
L 3169 4134 
L 1269 4134 
L 1269 2991 
Q 1406 3038 1543 3061 
Q 1681 3084 1819 3084 
Q 2600 3084 3056 2656 
Q 3513 2228 3513 1497 
Q 3513 744 3044 326 
Q 2575 -91 1722 -91 
Q 1428 -91 1123 -41 
Q 819 9 494 109 
L 494 744 
Q 775 591 1075 516 
Q 1375 441 1709 441 
Q 2250 441 2565 725 
Q 2881 1009 2881 1497 
Q 2881 1984 2565 2268 
Q 2250 2553 1709 2553 
Q 1456 2553 1204 2497 
Q 953 2441 691 2322 
L 691 4666 
z
" transform="scale(0.015625)"/>
       </defs>
       <use xlink:href="#DejaVuSans-32"/>
       <use xlink:href="#DejaVuSans-30" transform="translate(63.623047 0)"/>
       <use xlink:href="#DejaVuSans-32" transform="translate(127.246094 0)"/>
       <use xlink:href="#DejaVuSans-35" transform="translate(190.869141 0)"/>
       <use xlink:href="#DejaVuSans-2d" transform="translate(254.492188 0)"/>
       <use xlink:href="#DejaVuSans-30" transform="translate(290.576172 0)"/>
       <use xlink:href="#DejaVuSans-31" transform="translate(354.199219 0)"/>
      </g>
     </g>
    </g>
    <g id="xtick_9">
     <g id="line2d_17">
      <path d="M 763.686234 320.4 
L 763.686234 43.2 
" clip-path="url(#p6e4a5107c2)" style="fill: none; stroke-dasharray: 5.12,1.28,0.8,1.28; stroke-dashoffset: 0; stroke: #b0b0b0; stroke-width: 0.8"/>
     </g>
     <g id="line2d_18">
      <g>
       <use xlink:href="#m5df8a05b27" x="763.686234" y="320.4" style="fill: #a9a9a9; stroke: #a9a9a9; stroke-width: 0.8"/>
      </g>
     </g>
     <g id="text_9">
      <!-- 2025-07 -->
      <g style="fill: #a9a9a9" transform="translate(742.794828 334.998438) scale(0.1 -0.1)">
       <use xlink:href="#DejaVuSans-32"/>
       <use xlink:href="#DejaVuSans-30" transform="translate(63.623047 0)"/>
       <use xlink:href="#DejaVuSans-32" transform="translate(127.246094 0)"/>
       <use xlink:href="#DejaVuSans-35" transform="translate(190.869141 0)"/>
       <use xlink:href="#DejaVuSans-2d" transform="translate(254.492188 0)"/>
       <use xlink:href="#DejaVuSans-30" transform="translate(290.576172 0)"/>
       <use xlink:href="#DejaVuSans-37" transform="translate(354.199219 0)"/>
      </g>
     </g>
    </g>
   </g>
   <g id="matplotlib.axis_2">
    <g id="ytick_1">
     <g id="line2d_19">
      <path d="M 108 307.832877 
L 777.6 307.832877 
" clip-path="url(#p6e4a5107c2)" style="fill: none; stroke-dasharray: 5.12,1.28,0.8,1.28; stroke-dashoffset: 0; stroke: #b0b0b0; stroke-width: 0.8"/>
     </g>
     <g id="line2d_20">
      <defs>
       <path id="m2ebab5b465" d="M 0 0 
L -3.5 0 
" style="stroke: #a9a9a9; stroke-width: 0.8"/>
      </defs>
      <g>
       <use xlink:href="#m2ebab5b465" x="108" y="307.832877" style="fill: #a9a9a9; stroke: #a9a9a9; stroke-width: 0.8"/>
      </g>
     </g>
     <g id="text_10">
      <!-- 0 -->
      <g style="fill: #a9a9a9" transform="translate(94.6375 311.632095) scale(0.1 -0.1)">
       <use xlink:href="#DejaVuSans-30"/>
      </g>
     </g>
    </g>
    <g id="ytick_2">
     <g id="line2d_21">
      <path d="M 108 274.956164 
L 777.6 274.956164 
" clip-path="url(#p6e4a5107c2)" style="fill: none; stroke-dasharray: 5.12,1.28,0.8,1.28; stroke-dashoffset: 0; stroke: #b0b0b0; stroke-width: 0.8"/>
     </g>
     <g id="line2d_22">
      <g>
       <use xlink:href="#m2ebab5b465" x="108" y="274.956164" style="fill: #a9a9a9; stroke: #a9a9a9; stroke-width: 0.8"/>
      </g>
     </g>
     <g id="text_11">
      <!-- 1000 -->
      <g style="fill: #a9a9a9" transform="translate(75.55 278.755383) scale(0.1 -0.1)">
       <use xlink:href="#DejaVuSans-31"/>
       <use xlink:href="#DejaVuSans-30" transform="translate(63.623047 0)"/>
       <use xlink:href="#DejaVuSans-30" transform="translate(127.246094 0)"/>
       <use xlink:href="#DejaVuSans-30" transform="translate(190.869141 0)"/>
      </g>
     </g>
    </g>
    <g id="ytick_3">
     <g id="line2d_23">
      <path d="M 108 242.079452 
L 777.6 242.079452 
" clip-path="url(#p6e4a5107c2)" style="fill: none; stroke-dasharray: 5.12,1.28,0.8,1.28; stroke-dashoffset: 0; stroke: #b0b0b0; stroke-width: 0.8"/>
     </g>
     <g id="line2d_24">
      <g>
       <use xlink:href="#m2ebab5b465" x="108" y="242.079452" style="fill: #a9a9a9; stroke: #a9a9a9; stroke-width: 0.8"/>
      </g>
     </g>
     <g id="text_12">
      <!-- 2000 -->
      <g style="fill: #a9a9a9" transform="translate(75.55 245.878671) scale(0.1 -0.1)">
       <use xlink:href="#DejaVuSans-32"/>
       <use xlink:href="#DejaVuSans-30" transform="translate(63.623047 0)"/>
       <use xlink:href="#DejaVuSans-30" transform="translate(127.246094 0)"/>
       <use xlink:href="#DejaVuSans-30" transform="translate(190.869141 0)"/>
      </g>
     </g>
    </g>
    <g id="ytick_4">
     <g id="line2d_25">
      <path d="M 108 209.20274 
L 777.6 209.20274 
" clip-path="url(#p6e4a5107c2)" style="fill: none; stroke-dasharray: 5.12,1.28,0.8,1.28; stroke-dashoffset: 0; stroke: #b0b0b0; stroke-width: 0.8"/>
     </g>
     <g id="line2d_26">
      <g>
       <use xlink:href="#m2ebab5b465" x="108" y="209.20274" style="fill: #a9a9a9; stroke: #a9a9a9; stroke-width: 0.8"/>
      </g>
     </g>
     <g id="text_13">
      <!-- 3000 -->
      <g style="fill: #a9a9a9" transform="translate(75.55 213.001958) scale(0.1 -0.1)">
       <use xlink:href="#DejaVuSans-33"/>
       <use xlink:href="#DejaVuSans-30" transform="translate(63.623047 0)"/>
       <use xlink:href="#DejaVuSans-30" transform="translate(127.246094 0)"/>
       <use xlink:href="#DejaVuSans-30" transform="translate(190.869141 0)"/>
      </g>
     </g>
    </g>
    <g id="ytick_5">
     <g id="line2d_27">
      <path d="M 108 176.326027 
L 777.6 176.326027 
" clip-path="url(#p6e4a5107c2)" style="fill: none; stroke-dasharray: 5.12,1.28,0.8,1.28; stroke-dashoffset: 0; stroke: #b0b0b0; stroke-width: 0.8"/>
     </g>
     <g id="line2d_28">
      <g>
       <use xlink:href="#m2ebab5b465" x="108" y="176.326027" style="fill: #a9a9a9; stroke: #a9a9a9; stroke-width: 0.8"/>
      </g>
     </g>
     <g id="text_14">
      <!-- 4000 -->
      <g style="fill: #a9a9a9" transform="translate(75.55 180.125246) scale(0.1 -0.1)">
       <use xlink:href="#DejaVuSans-34"/>
       <use xlink:href="#DejaVuSans-30" transform="translate(63.623047 0)"/>
       <use xlink:href="#DejaVuSans-30" transform="translate(127.246094 0)"/>
       <use xlink:href="#DejaVuSans-30" transform="translate(190.869141 0)"/>
      </g>
     </g>
    </g>
    <g id="ytick_6">
     <g id="line2d_29">
      <path d="M 108 143.449315 
L 777.6 143.449315 
" clip-path="url(#p6e4a5107c2)" style="fill: none; stroke-dasharray: 5.12,1.28,0.8,1.28; stroke-dashoffset: 0; stroke: #b0b0b0; stroke-width: 0.8"/>
     </g>
     <g id="line2d_30">
      <g>
       <use xlink:href="#m2ebab5b465" x="108" y="143.449315" style="fill: #a9a9a9; stroke: #a9a9a9; stroke-width: 0.8"/>
      </g>
     </g>
     <g id="text_15">
      <!-- 5000 -->
      <g style="fill: #a9a9a9" transform="translate(75.55 147.248534) scale(0.1 -0.1)">
       <use xlink:href="#DejaVuSans-35"/>
       <use xlink:href="#DejaVuSans-30" transform="translate(63.623047 0)"/>
       <use xlink:href="#DejaVuSans-30" transform="translate(127.246094 0)"/>
       <use xlink:href="#DejaVuSans-30" transform="translate(190.869141 0)"/>
      </g>
     </g>
    </g>
    <g id="ytick_7">
     <g id="line2d_31">
      <path d="M 108 110.572603 
L 777.6 110.572603 
" clip-path="url(#p6e4a5107c2)" style="fill: none; stroke-dasharray: 5.12,1.28,0.8,1.28; stroke-dashoffset: 0; stroke: #b0b0b0; stroke-width: 0.8"/>
     </g>
     <g id="line2d_32">
      <g>
       <use xlink:href="#m2ebab5b465" x="108" y="110.572603" style="fill: #a9a9a9; stroke: #a9a9a9; stroke-width: 0.8"/>
      </g>
     </g>
     <g id="text_16">
      <!-- 6000 -->
      <g style="fill: #a9a9a9" transform="translate(75.55 114.371821) scale(0.1 -0.1)">
       <defs>
        <path id="DejaVuSans-36" d="M 2113 2584 
Q 1688 2584 1439 2293 
Q 1191 2003 1191 1497 
Q 1191 994 1439 701 
Q 1688 409 2113 409 
Q 2538 409 2786 701 
Q 3034 994 3034 1497 
Q 3034 2003 2786 2293 
Q 2538 2584 2113 2584 
z
M 3366 4563 
L 3366 3988 
Q 3128 4100 2886 4159 
Q 2644 4219 2406 4219 
Q 1781 4219 1451 3797 
Q 1122 3375 1075 2522 
Q 1259 2794 1537 2939 
Q 1816 3084 2150 3084 
Q 2853 3084 3261 2657 
Q 3669 2231 3669 1497 
Q 3669 778 3244 343 
Q 2819 -91 2113 -91 
Q 1303 -91 875 529 
Q 447 1150 447 2328 
Q 447 3434 972 4092 
Q 1497 4750 2381 4750 
Q 2619 4750 2861 4703 
Q 3103 4656 3366 4563 
z
" transform="scale(0.015625)"/>
       </defs>
       <use xlink:href="#DejaVuSans-36"/>
       <use xlink:href="#DejaVuSans-30" transform="translate(63.623047 0)"/>
       <use xlink:href="#DejaVuSans-30" transform="translate(127.246094 0)"/>
       <use xlink:href="#DejaVuSans-30" transform="translate(190.869141 0)"/>
      </g>
     </g>
    </g>
    <g id="ytick_8">
     <g id="line2d_33">
      <path d="M 108 77.69589 
L 777.6 77.69589 
" clip-path="url(#p6e4a5107c2)" style="fill: none; stroke-dasharray: 5.12,1.28,0.8,1.28; stroke-dashoffset: 0; stroke: #b0b0b0; stroke-width: 0.8"/>
     </g>
     <g id="line2d_34">
      <g>
       <use xlink:href="#m2ebab5b465" x="108" y="77.69589" style="fill: #a9a9a9; stroke: #a9a9a9; stroke-width: 0.8"/>
      </g>
     </g>
     <g id="text_17">
      <!-- 7000 -->
      <g style="fill: #a9a9a9" transform="translate(75.55 81.495109) scale(0.1 -0.1)">
       <use xlink:href="#DejaVuSans-37"/>
       <use xlink:href="#DejaVuSans-30" transform="translate(63.623047 0)"/>
       <use xlink:href="#DejaVuSans-30" transform="translate(127.246094 0)"/>
       <use xlink:href="#DejaVuSans-30" transform="translate(190.869141 0)"/>
      </g>
     </g>
    </g>
    <g id="ytick_9">
     <g id="line2d_35">
      <path d="M 108 44.819178 
L 777.6 44.819178 
" clip-path="url(#p6e4a5107c2)" style="fill: none; stroke-dasharray: 5.12,1.28,0.8,1.28; stroke-dashoffset: 0; stroke: #b0b0b0; stroke-width: 0.8"/>
     </g>
     <g id="line2d_36">
      <g>
       <use xlink:href="#m2ebab5b465" x="108" y="44.819178" style="fill: #a9a9a9; stroke: #a9a9a9; stroke-width: 0.8"/>
      </g>
     </g>
     <g id="text_18">
      <!-- 8000 -->
      <g style="fill: #a9a9a9" transform="translate(75.55 48.618397) scale(0.1 -0.1)">
       <defs>
        <path id="DejaVuSans-38" d="M 2034 2216 
Q 1584 2216 1326 1975 
Q 1069 1734 1069 1313 
Q 1069 891 1326 650 
Q 1584 409 2034 409 
Q 2484 409 2743 651 
Q 3003 894 3003 1313 
Q 3003 1734 2745 1975 
Q 2488 2216 2034 2216 
z
M 1403 2484 
Q 997 2584 770 2862 
Q 544 3141 544 3541 
Q 544 4100 942 4425 
Q 1341 4750 2034 4750 
Q 2731 4750 3128 4425 
Q 3525 4100 3525 3541 
Q 3525 3141 3298 2862 
Q 3072 2584 2669 2484 
Q 3125 2378 3379 2068 
Q 3634 1759 3634 1313 
Q 3634 634 3220 271 
Q 2806 -91 2034 -91 
Q 1263 -91 848 271 
Q 434 634 434 1313 
Q 434 1759 690 2068 
Q 947 2378 1403 2484 
z
M 1172 3481 
Q 1172 3119 1398 2916 
Q 1625 2713 2034 2713 
Q 2441 2713 2670 2916 
Q 2900 3119 2900 3481 
Q 2900 3844 2670 4047 
Q 2441 4250 2034 4250 
Q 1625 4250 1398 4047 
Q 1172 3844 1172 3481 
z
" transform="scale(0.015625)"/>
       </defs>
       <use xlink:href="#DejaVuSans-38"/>
       <use xlink:href="#DejaVuSans-30" transform="translate(63.623047 0)"/>
       <use xlink:href="#DejaVuSans-30" transform="translate(127.246094 0)"/>
       <use xlink:href="#DejaVuSans-30" transform="translate(190.869141 0)"/>
      </g>
     </g>
    </g>
   </g>
   <g id="line2d_37">
    <path d="M 138.436364 307.734247 
L 141.045195 307.50411 
L 141.48 307.306849 
L 143.219221 307.076712 
L 144.958442 306.715068 
L 145.828052 306.583562 
L 148.002078 306.386301 
L 148.871688 306.024658 
L 149.306494 305.432877 
L 149.741299 305.136986 
L 150.176104 304.150685 
L 150.610909 304.084932 
L 151.045714 303.723288 
L 151.915325 303.263014 
L 153.654545 301.816438 
L 155.393766 300.928767 
L 156.698182 300.30411 
L 157.132987 299.580822 
L 158.002597 298.923288 
L 158.437403 298.726027 
L 162.785455 298.068493 
L 163.22026 297.871233 
L 166.263896 297.608219 
L 168.003117 297.180822 
L 171.481558 296.687671 
L 171.916364 296.457534 
L 172.351169 296.391781 
L 173.220779 296.09589 
L 176.264416 295.569863 
L 177.134026 295.306849 
L 181.047273 294.649315 
L 181.916883 294.452055 
L 182.786494 294.419178 
L 184.525714 293.991781 
L 184.960519 293.367123 
L 186.264935 292.841096 
L 187.569351 292.479452 
L 188.004156 292.249315 
L 188.873766 292.084932 
L 190.612987 291.558904 
L 191.482597 291.493151 
L 192.352208 291.263014 
L 194.091429 290.80274 
L 194.526234 290.769863 
L 195.395844 290.342466 
L 195.830649 290.276712 
L 196.265455 290.046575 
L 201.048312 289.224658 
L 202.787532 288.69863 
L 203.222338 288.40274 
L 205.396364 287.679452 
L 206.265974 287.054795 
L 207.57039 286.791781 
L 217.136104 283.931507 
L 217.570909 283.89863 
L 218.875325 283.50411 
L 219.31013 283.50411 
L 219.744935 283.306849 
L 220.614545 283.208219 
L 221.049351 283.043836 
L 222.788571 282.978082 
L 223.658182 282.813699 
L 224.527792 282.353425 
L 225.832208 281.860274 
L 226.701818 281.4 
L 227.571429 280.939726 
L 228.441039 280.643836 
L 228.875844 280.512329 
L 229.745455 279.953425 
L 230.18026 279.460274 
L 231.04987 278.079452 
L 231.484675 277.947945 
L 231.919481 277.947945 
L 233.223896 277.158904 
L 233.658701 276.928767 
L 234.093506 276.830137 
L 234.528312 276.40274 
L 235.397922 276.041096 
L 236.267532 275.613699 
L 238.441558 272.753425 
L 241.05039 271.306849 
L 241.92 270.583562 
L 242.354805 270.320548 
L 242.78961 269.69589 
L 243.224416 268.676712 
L 243.659221 267.986301 
L 244.094026 267.624658 
L 244.528831 267.427397 
L 248.007273 264.139726 
L 248.876883 263.317808 
L 251.485714 261.641096 
L 251.920519 261.476712 
L 253.65974 260.424658 
L 254.094545 260.227397 
L 256.268571 258.189041 
L 257.138182 257.827397 
L 258.007792 257.20274 
L 258.442597 256.939726 
L 258.877403 256.873973 
L 260.181818 256.117808 
L 260.616623 255.624658 
L 262.790649 254.408219 
L 263.225455 254.243836 
L 264.52987 253.323288 
L 271.051948 250.956164 
L 271.921558 250.134247 
L 273.225974 249.476712 
L 274.095584 248.917808 
L 274.965195 248.654795 
L 275.4 248.358904 
L 275.834805 248.227397 
L 277.139221 247.339726 
L 279.313247 246.846575 
L 280.617662 246.057534 
L 281.922078 245.761644 
L 282.356883 245.663014 
L 283.661299 244.643836 
L 285.400519 244.150685 
L 285.835325 243.789041 
L 288.444156 242.868493 
L 289.313766 242.70411 
L 290.183377 242.342466 
L 293.227013 241.191781 
L 294.096623 241.060274 
L 295.401039 240.6 
L 297.575065 239.515068 
L 299.314286 238.528767 
L 302.792727 237.049315 
L 303.227532 236.983562 
L 304.097143 236.424658 
L 304.966753 236.194521 
L 306.271169 235.668493 
L 308.01039 235.438356 
L 308.88 234.978082 
L 309.314805 234.583562 
L 309.74961 233.794521 
L 311.488831 233.30137 
L 312.793247 232.610959 
L 313.662857 232.315068 
L 314.532468 231.854795 
L 317.141299 230.769863 
L 318.010909 230.572603 
L 318.880519 230.112329 
L 319.315325 229.915068 
L 319.75013 229.849315 
L 321.924156 228.764384 
L 322.793766 228.205479 
L 324.098182 227.942466 
L 326.272208 227.383562 
L 326.707013 227.021918 
L 327.576623 226.726027 
L 329.750649 225.838356 
L 330.185455 225.509589 
L 330.62026 225.345205 
L 331.48987 224.852055 
L 333.229091 224.293151 
L 334.098701 223.734247 
L 334.533506 223.273973 
L 334.968312 223.010959 
L 335.403117 222.912329 
L 336.272727 222.189041 
L 336.707532 222.123288 
L 337.142338 221.4 
L 337.577143 221.20274 
L 338.011948 220.841096 
L 338.446753 220.775342 
L 339.316364 220.216438 
L 340.185974 219.920548 
L 340.620779 219.591781 
L 341.055584 219.427397 
L 342.794805 218.243836 
L 344.099221 217.553425 
L 344.968831 217.323288 
L 345.838442 216.830137 
L 346.273247 216.073973 
L 347.142857 215.416438 
L 347.577662 215.317808 
L 350.186494 214.035616 
L 351.056104 213.673973 
L 351.925714 213.049315 
L 352.795325 212.161644 
L 356.708571 209.071233 
L 357.143377 208.709589 
L 358.012987 208.413699 
L 358.882597 207.821918 
L 360.187013 207.131507 
L 360.621818 207.065753 
L 361.926234 206.342466 
L 362.795844 205.783562 
L 367.143896 204.139726 
L 367.578701 203.778082 
L 369.317922 203.087671 
L 369.752727 202.956164 
L 370.622338 202.364384 
L 371.491948 202.00274 
L 372.361558 201.378082 
L 373.231169 199.60274 
L 374.100779 198.550685 
L 375.405195 197.860274 
L 376.274805 197.49863 
L 376.70961 197.432877 
L 377.144416 197.169863 
L 379.318442 196.446575 
L 379.753247 196.249315 
L 380.622857 195.657534 
L 381.927273 195.09863 
L 382.796883 194.605479 
L 383.666494 194.079452 
L 384.101299 193.783562 
L 384.536104 193.290411 
L 385.840519 192.534247 
L 386.275325 192.369863 
L 387.144935 191.843836 
L 388.884156 190.890411 
L 389.318961 190.791781 
L 389.753766 190.430137 
L 392.797403 189.410959 
L 393.232208 189.082192 
L 394.101818 188.819178 
L 394.971429 188.457534 
L 395.406234 188.09589 
L 397.145455 187.471233 
L 398.015065 186.846575 
L 398.884675 186.484932 
L 399.754286 185.794521 
L 400.623896 185.531507 
L 401.058701 185.136986 
L 401.493506 185.071233 
L 402.363117 184.380822 
L 403.232727 183.920548 
L 403.667532 183.723288 
L 404.102338 183.263014 
L 407.145974 182.013699 
L 408.015584 181.619178 
L 409.32 181.191781 
L 410.18961 181.060274 
L 410.624416 180.863014 
L 411.059221 180.79726 
L 411.928831 180.40274 
L 412.363636 180.369863 
L 414.102857 179.712329 
L 415.407273 178.758904 
L 415.842078 178.594521 
L 416.711688 178.10137 
L 417.146494 177.969863 
L 419.755325 176.490411 
L 420.19013 176.391781 
L 421.494545 175.60274 
L 422.798961 175.142466 
L 423.668571 174.846575 
L 425.407792 174.254795 
L 426.277403 173.958904 
L 428.016623 173.59726 
L 428.451429 173.4 
L 429.321039 173.169863 
L 429.755844 172.972603 
L 430.190649 172.906849 
L 430.625455 172.676712 
L 431.495065 172.512329 
L 432.799481 172.019178 
L 433.669091 171.920548 
L 434.973506 171.624658 
L 437.147532 171.230137 
L 448.452468 167.810959 
L 448.887273 167.350685 
L 451.496104 166.265753 
L 453.235325 165.673973 
L 453.67013 165.410959 
L 454.974545 165.016438 
L 455.844156 164.786301 
L 456.278961 164.490411 
L 456.713766 164.391781 
L 457.148571 163.99726 
L 458.452987 163.734247 
L 459.322597 163.306849 
L 459.757403 162.780822 
L 461.496623 162.353425 
L 464.54026 161.69589 
L 464.975065 161.69589 
L 465.40987 161.49863 
L 467.149091 161.169863 
L 467.583896 160.972603 
L 469.323117 160.643836 
L 470.192727 160.282192 
L 471.062338 160.117808 
L 473.236364 159.558904 
L 474.975584 159 
L 475.41039 158.90137 
L 475.845195 158.671233 
L 476.714805 158.441096 
L 477.584416 158.079452 
L 478.454026 157.750685 
L 478.888831 157.454795 
L 479.758442 157.191781 
L 482.802078 156.041096 
L 484.541299 155.810959 
L 488.01974 154.528767 
L 488.454545 154.2 
L 488.889351 154.10137 
L 489.324156 153.871233 
L 489.758961 153.838356 
L 494.541818 152.09589 
L 496.715844 151.50411 
L 497.585455 151.076712 
L 498.88987 150.780822 
L 500.629091 149.334247 
L 502.368312 148.578082 
L 503.237922 148.183562 
L 505.846753 147.164384 
L 506.281558 146.868493 
L 508.455584 146.145205 
L 509.76 145.389041 
L 510.194805 145.290411 
L 511.934026 144.30411 
L 513.673247 143.515068 
L 514.108052 143.186301 
L 514.977662 142.890411 
L 517.151688 141.772603 
L 518.456104 141.312329 
L 520.195325 140.589041 
L 521.49974 140.09589 
L 521.934545 139.931507 
L 522.804156 139.8 
L 523.238961 139.50411 
L 524.978182 139.142466 
L 525.847792 138.780822 
L 527.587013 137.958904 
L 533.674286 135.263014 
L 534.978701 134.835616 
L 535.413506 134.539726 
L 536.283117 134.441096 
L 536.717922 134.145205 
L 537.587532 133.980822 
L 538.457143 133.553425 
L 538.891948 133.356164 
L 539.761558 133.126027 
L 540.631169 132.863014 
L 541.935584 132.369863 
L 543.24 131.942466 
L 544.544416 131.646575 
L 546.283636 130.923288 
L 547.153247 130.430137 
L 548.892468 129.542466 
L 549.762078 129.345205 
L 550.196883 129.082192 
L 550.631688 128.983562 
L 551.936104 128.227397 
L 552.805714 127.865753 
L 562.371429 124.150685 
L 564.110649 123.328767 
L 568.458701 121.619178 
L 569.328312 121.191781 
L 569.763117 121.093151 
L 570.197922 120.863014 
L 571.937143 120.369863 
L 573.676364 118.923288 
L 574.111169 118.791781 
L 574.545974 118.528767 
L 575.85039 118.167123 
L 576.285195 117.838356 
L 576.72 117.739726 
L 578.024416 116.950685 
L 578.459221 116.654795 
L 579.763636 116.161644 
L 580.198442 115.931507 
L 581.502857 115.635616 
L 583.676883 114.879452 
L 584.546494 114.583562 
L 585.850909 113.926027 
L 586.720519 113.49863 
L 587.59013 113.268493 
L 588.894545 112.643836 
L 592.807792 111.164384 
L 594.112208 110.342466 
L 594.547013 110.243836 
L 595.416623 109.816438 
L 596.286234 109.487671 
L 596.721039 109.093151 
L 597.590649 108.731507 
L 598.895065 108.271233 
L 599.32987 107.909589 
L 599.764675 107.876712 
L 600.634286 107.613699 
L 601.503896 107.317808 
L 601.938701 107.120548 
L 602.373506 107.054795 
L 603.677922 106.561644 
L 604.982338 106.068493 
L 606.721558 105.279452 
L 607.591169 105.049315 
L 608.025974 104.786301 
L 608.895584 104.556164 
L 610.2 103.8 
L 610.634805 103.767123 
L 611.939221 103.339726 
L 612.808831 103.273973 
L 613.243636 103.043836 
L 614.113247 102.813699 
L 614.548052 102.583562 
L 616.722078 102.156164 
L 617.591688 101.991781 
L 618.896104 101.49863 
L 620.200519 101.20274 
L 621.504935 100.512329 
L 621.93974 100.117808 
L 623.244156 99.328767 
L 623.678961 99 
L 624.983377 98.572603 
L 625.852987 98.309589 
L 626.287792 98.079452 
L 626.722597 97.980822 
L 627.157403 97.619178 
L 629.766234 96.50137 
L 631.505455 96.041096 
L 632.375065 95.646575 
L 632.80987 95.416438 
L 633.679481 95.153425 
L 634.114286 94.890411 
L 634.983896 94.726027 
L 638.462338 93.213699 
L 638.897143 93.147945 
L 640.201558 92.293151 
L 640.636364 92.227397 
L 642.375584 91.536986 
L 644.114805 91.109589 
L 644.54961 91.043836 
L 644.984416 90.846575 
L 645.419221 90.813699 
L 646.288831 90.517808 
L 646.723636 90.484932 
L 648.028052 89.958904 
L 649.767273 89.465753 
L 650.636883 88.808219 
L 652.376104 87.821918 
L 652.810909 87.723288 
L 653.245714 87.493151 
L 654.115325 87.19726 
L 654.55013 87.065753 
L 654.984935 86.70411 
L 656.289351 86.210959 
L 657.158961 85.717808 
L 657.593766 85.487671 
L 658.028571 85.093151 
L 660.202597 84.50137 
L 661.507013 83.909589 
L 662.376623 83.679452 
L 662.811429 83.449315 
L 663.246234 83.087671 
L 664.985455 82.627397 
L 665.42026 82.29863 
L 671.072727 80.227397 
L 671.942338 80.063014 
L 674.116364 79.372603 
L 674.985974 79.010959 
L 675.855584 78.682192 
L 676.725195 78.452055 
L 677.16 78.254795 
L 677.594805 78.254795 
L 678.464416 77.893151 
L 679.334026 77.367123 
L 682.377662 76.347945 
L 684.116883 75.756164 
L 685.421299 75.460274 
L 686.725714 75.032877 
L 687.160519 74.934247 
L 687.595325 74.638356 
L 688.464935 74.441096 
L 690.204156 73.947945 
L 690.638961 73.915068 
L 691.508571 73.520548 
L 694.552208 72.764384 
L 695.421818 72.40274 
L 699.76987 71.416438 
L 701.074286 70.726027 
L 702.378701 70.331507 
L 706.726753 68.720548 
L 707.161558 68.391781 
L 708.465974 68.09589 
L 709.335584 67.832877 
L 710.205195 67.405479 
L 710.64 67.043836 
L 711.50961 66.780822 
L 711.944416 66.517808 
L 712.814026 66.419178 
L 715.857662 65.564384 
L 717.162078 65.30137 
L 719.770909 64.446575 
L 721.51013 63.624658 
L 726.292987 61.849315 
L 727.162597 61.717808 
L 728.032208 61.553425 
L 728.467013 61.553425 
L 730.206234 60.994521 
L 730.641039 60.928767 
L 731.510649 60.567123 
L 732.38026 60.336986 
L 734.989091 59.613699 
L 735.858701 59.383562 
L 736.293506 59.284932 
L 736.728312 59.021918 
L 737.597922 58.857534 
L 738.467532 58.758904 
L 738.902338 58.528767 
L 739.337143 58.49589 
L 740.206753 57.936986 
L 741.945974 57.542466 
L 742.815584 57.147945 
L 743.685195 56.852055 
L 744.554805 56.621918 
L 745.424416 56.227397 
L 746.294026 55.931507 
L 746.728831 55.8 
L 747.163636 55.8 
L 747.163636 55.8 
" clip-path="url(#p6e4a5107c2)" style="fill: none; stroke: #1f77b4; stroke-width: 1.5; stroke-linecap: square"/>
   </g>
   <g id="line2d_38">
    <path d="M 138.871169 307.8 
L 142.784416 307.70137 
L 146.262857 307.536986 
L 148.002078 307.536986 
L 148.436883 307.405479 
L 150.610909 307.306849 
L 153.21974 307.010959 
L 155.828571 306.912329 
L 156.698182 306.813699 
L 159.741818 306.682192 
L 162.785455 306.583562 
L 164.959481 306.517808 
L 170.611948 306.419178 
L 172.785974 306.353425 
L 176.699221 306.254795 
L 178.438442 306.221918 
L 182.786494 306.123288 
L 184.525714 305.958904 
L 186.264935 305.926027 
L 188.873766 305.827397 
L 190.612987 305.794521 
L 192.787013 305.728767 
L 194.526234 305.564384 
L 198.439481 305.465753 
L 199.309091 305.4 
L 201.048312 305.30137 
L 203.657143 305.20274 
L 205.396364 305.10411 
L 213.222857 304.610959 
L 216.266494 304.512329 
L 217.570909 304.380822 
L 219.744935 304.282192 
L 224.092987 304.052055 
L 228.441039 303.986301 
L 230.18026 303.789041 
L 231.919481 303.690411 
L 236.702338 303.230137 
L 239.745974 302.868493 
L 241.05039 302.80274 
L 244.528831 302.342466 
L 247.137662 302.276712 
L 248.442078 302.145205 
L 249.746494 302.046575 
L 261.921039 301.093151 
L 262.790649 300.928767 
L 265.399481 300.830137 
L 272.356364 300.40274 
L 275.4 300.30411 
L 277.139221 300.106849 
L 279.313247 300.008219 
L 281.922078 299.909589 
L 284.096104 299.810959 
L 285.835325 299.778082 
L 288.009351 299.712329 
L 288.878961 299.580822 
L 294.966234 299.482192 
L 295.835844 299.383562 
L 301.053506 299.284932 
L 304.966753 299.087671 
L 308.01039 298.989041 
L 309.74961 298.791781 
L 312.793247 298.693151 
L 313.662857 298.528767 
L 315.836883 298.463014 
L 320.184935 298.39726 
L 321.924156 298.232877 
L 323.663377 298.2 
L 324.967792 298.10137 
L 326.707013 297.936986 
L 331.055065 297.706849 
L 335.403117 297.608219 
L 339.316364 297.410959 
L 340.620779 297.378082 
L 341.49039 297.246575 
L 343.664416 297.147945 
L 344.534026 297.082192 
L 345.403636 297.016438 
L 346.273247 296.950685 
L 350.186494 296.884932 
L 351.490909 296.786301 
L 363.230649 295.99726 
L 365.404675 295.89863 
L 367.578701 295.832877 
L 373.665974 295.734247 
L 374.535584 295.60274 
L 380.622857 295.50411 
L 384.970909 295.273973 
L 385.840519 295.241096 
L 386.71013 295.142466 
L 388.884156 295.043836 
L 391.058182 294.978082 
L 393.232208 294.879452 
L 395.406234 294.813699 
L 399.319481 294.715068 
L 401.928312 294.616438 
L 408.015584 294.517808 
L 412.798442 294.254795 
L 414.537662 294.189041 
L 415.842078 294.090411 
L 421.929351 293.991781 
L 424.538182 293.893151 
L 432.364675 293.794521 
L 434.103896 293.761644 
L 439.321558 293.69589 
L 440.191169 293.630137 
L 446.278442 293.531507 
L 448.017662 293.49863 
L 459.322597 293.4 
L 461.931429 293.30137 
L 480.193247 293.20274 
L 482.367273 293.136986 
L 493.672208 293.071233 
L 494.541818 293.005479 
L 496.715844 292.939726 
L 498.02026 292.808219 
L 500.629091 292.709589 
L 503.672727 292.578082 
L 507.585974 292.479452 
L 509.76 292.413699 
L 512.803636 292.315068 
L 516.282078 292.150685 
L 518.456104 292.052055 
L 520.195325 292.019178 
L 524.108571 291.920548 
L 525.847792 291.887671 
L 531.50026 291.789041 
L 533.239481 291.756164 
L 535.413506 291.657534 
L 538.022338 291.558904 
L 541.065974 291.493151 
L 541.935584 291.427397 
L 552.370909 291.328767 
L 558.023377 291 
L 560.197403 290.934247 
L 561.067013 290.835616 
L 561.936623 290.769863 
L 565.415065 290.671233 
L 568.023896 290.572603 
L 572.371948 290.473973 
L 574.545974 290.243836 
L 578.894026 290.145205 
L 579.763636 290.046575 
L 584.111688 289.947945 
L 586.285714 289.882192 
L 591.068571 289.849315 
L 591.938182 289.750685 
L 596.721039 289.652055 
L 597.590649 289.586301 
L 607.156364 289.487671 
L 609.765195 289.389041 
L 616.287273 289.290411 
L 618.026494 289.257534 
L 621.93974 289.191781 
L 622.809351 289.093151 
L 628.461818 288.994521 
L 630.635844 288.928767 
L 638.462338 288.830137 
L 639.766753 288.731507 
L 641.071169 288.632877 
L 642.375584 288.534247 
L 648.897662 288.435616 
L 651.506494 288.336986 
L 663.246234 288.238356 
L 667.159481 288.041096 
L 672.377143 287.942466 
L 673.246753 287.876712 
L 679.768831 287.810959 
L 680.638442 287.745205 
L 685.421299 287.646575 
L 687.160519 287.613699 
L 693.247792 287.515068 
L 695.856623 287.416438 
L 703.248312 287.317808 
L 704.987532 287.284932 
L 708.900779 287.186301 
L 712.379221 287.021918 
L 717.162078 286.923288 
L 720.205714 286.791781 
L 724.118961 286.693151 
L 724.988571 286.627397 
L 733.684675 286.528767 
L 735.858701 286.463014 
L 738.467532 286.364384 
L 741.076364 286.265753 
L 747.163636 286.2 
L 747.163636 286.2 
" clip-path="url(#p6e4a5107c2)" style="fill: none; stroke: #ff7f0e; stroke-width: 1.5; stroke-linecap: square"/>
   </g>
   <g id="patch_3">
    <path d="M 108 320.4 
L 108 43.2 
" style="fill: none; stroke: #a9a9a9; stroke-width: 0.8; stroke-linejoin: miter; stroke-linecap: square"/>
   </g>
   <g id="patch_4">
    <path d="M 777.6 320.4 
L 777.6 43.2 
" style="fill: none"/>
   </g>
   <g id="patch_5">
    <path d="M 108 320.4 
L 777.6 320.4 
" style="fill: none; stroke: #a9a9a9; stroke-width: 0.8; stroke-linejoin: miter; stroke-linecap: square"/>
   </g>
   <g id="patch_6">
    <path d="M 108 43.2 
L 777.6 43.2 
" style="fill: none"/>
   </g>
   <g id="text_19">
    <!-- get_subscribe history -->
    <g style="fill: #a9a9a9" transform="translate(378.6075 37.2) scale(0.12 -0.12)">
     <defs>
      <path id="DejaVuSans-67" d="M 2906 1791 
Q 2906 2416 2648 2759 
Q 2391 3103 1925 3103 
Q 1463 3103 1205 2759 
Q 947 2416 947 1791 
Q 947 1169 1205 825 
Q 1463 481 1925 481 
Q 2391 481 2648 825 
Q 2906 1169 2906 1791 
z
M 3481 434 
Q 3481 -459 3084 -895 
Q 2688 -1331 1869 -1331 
Q 1566 -1331 1297 -1286 
Q 1028 -1241 775 -1147 
L 775 -588 
Q 1028 -725 1275 -790 
Q 1522 -856 1778 -856 
Q 2344 -856 2625 -561 
Q 2906 -266 2906 331 
L 2906 616 
Q 2728 306 2450 153 
Q 2172 0 1784 0 
Q 1141 0 747 490 
Q 353 981 353 1791 
Q 353 2603 747 3093 
Q 1141 3584 1784 3584 
Q 2172 3584 2450 3431 
Q 2728 3278 2906 2969 
L 2906 3500 
L 3481 3500 
L 3481 434 
z
" transform="scale(0.015625)"/>
      <path id="DejaVuSans-65" d="M 3597 1894 
L 3597 1613 
L 953 1613 
Q 991 1019 1311 708 
Q 1631 397 2203 397 
Q 2534 397 2845 478 
Q 3156 559 3463 722 
L 3463 178 
Q 3153 47 2828 -22 
Q 2503 -91 2169 -91 
Q 1331 -91 842 396 
Q 353 884 353 1716 
Q 353 2575 817 3079 
Q 1281 3584 2069 3584 
Q 2775 3584 3186 3129 
Q 3597 2675 3597 1894 
z
M 3022 2063 
Q 3016 2534 2758 2815 
Q 2500 3097 2075 3097 
Q 1594 3097 1305 2825 
Q 1016 2553 972 2059 
L 3022 2063 
z
" transform="scale(0.015625)"/>
      <path id="DejaVuSans-74" d="M 1172 4494 
L 1172 3500 
L 2356 3500 
L 2356 3053 
L 1172 3053 
L 1172 1153 
Q 1172 725 1289 603 
Q 1406 481 1766 481 
L 2356 481 
L 2356 0 
L 1766 0 
Q 1100 0 847 248 
Q 594 497 594 1153 
L 594 3053 
L 172 3053 
L 172 3500 
L 594 3500 
L 594 4494 
L 1172 4494 
z
" transform="scale(0.015625)"/>
      <path id="DejaVuSans-5f" d="M 3263 -1063 
L 3263 -1509 
L -63 -1509 
L -63 -1063 
L 3263 -1063 
z
" transform="scale(0.015625)"/>
      <path id="DejaVuSans-73" d="M 2834 3397 
L 2834 2853 
Q 2591 2978 2328 3040 
Q 2066 3103 1784 3103 
Q 1356 3103 1142 2972 
Q 928 2841 928 2578 
Q 928 2378 1081 2264 
Q 1234 2150 1697 2047 
L 1894 2003 
Q 2506 1872 2764 1633 
Q 3022 1394 3022 966 
Q 3022 478 2636 193 
Q 2250 -91 1575 -91 
Q 1294 -91 989 -36 
Q 684 19 347 128 
L 347 722 
Q 666 556 975 473 
Q 1284 391 1588 391 
Q 1994 391 2212 530 
Q 2431 669 2431 922 
Q 2431 1156 2273 1281 
Q 2116 1406 1581 1522 
L 1381 1569 
Q 847 1681 609 1914 
Q 372 2147 372 2553 
Q 372 3047 722 3315 
Q 1072 3584 1716 3584 
Q 2034 3584 2315 3537 
Q 2597 3491 2834 3397 
z
" transform="scale(0.015625)"/>
      <path id="DejaVuSans-75" d="M 544 1381 
L 544 3500 
L 1119 3500 
L 1119 1403 
Q 1119 906 1312 657 
Q 1506 409 1894 409 
Q 2359 409 2629 706 
Q 2900 1003 2900 1516 
L 2900 3500 
L 3475 3500 
L 3475 0 
L 2900 0 
L 2900 538 
Q 2691 219 2414 64 
Q 2138 -91 1772 -91 
Q 1169 -91 856 284 
Q 544 659 544 1381 
z
M 1991 3584 
L 1991 3584 
z
" transform="scale(0.015625)"/>
      <path id="DejaVuSans-62" d="M 3116 1747 
Q 3116 2381 2855 2742 
Q 2594 3103 2138 3103 
Q 1681 3103 1420 2742 
Q 1159 2381 1159 1747 
Q 1159 1113 1420 752 
Q 1681 391 2138 391 
Q 2594 391 2855 752 
Q 3116 1113 3116 1747 
z
M 1159 2969 
Q 1341 3281 1617 3432 
Q 1894 3584 2278 3584 
Q 2916 3584 3314 3078 
Q 3713 2572 3713 1747 
Q 3713 922 3314 415 
Q 2916 -91 2278 -91 
Q 1894 -91 1617 61 
Q 1341 213 1159 525 
L 1159 0 
L 581 0 
L 581 4863 
L 1159 4863 
L 1159 2969 
z
" transform="scale(0.015625)"/>
      <path id="DejaVuSans-63" d="M 3122 3366 
L 3122 2828 
Q 2878 2963 2633 3030 
Q 2388 3097 2138 3097 
Q 1578 3097 1268 2742 
Q 959 2388 959 1747 
Q 959 1106 1268 751 
Q 1578 397 2138 397 
Q 2388 397 2633 464 
Q 2878 531 3122 666 
L 3122 134 
Q 2881 22 2623 -34 
Q 2366 -91 2075 -91 
Q 1284 -91 818 406 
Q 353 903 353 1747 
Q 353 2603 823 3093 
Q 1294 3584 2113 3584 
Q 2378 3584 2631 3529 
Q 2884 3475 3122 3366 
z
" transform="scale(0.015625)"/>
      <path id="DejaVuSans-72" d="M 2631 2963 
Q 2534 3019 2420 3045 
Q 2306 3072 2169 3072 
Q 1681 3072 1420 2755 
Q 1159 2438 1159 1844 
L 1159 0 
L 581 0 
L 581 3500 
L 1159 3500 
L 1159 2956 
Q 1341 3275 1631 3429 
Q 1922 3584 2338 3584 
Q 2397 3584 2469 3576 
Q 2541 3569 2628 3553 
L 2631 2963 
z
" transform="scale(0.015625)"/>
      <path id="DejaVuSans-69" d="M 603 3500 
L 1178 3500 
L 1178 0 
L 603 0 
L 603 3500 
z
M 603 4863 
L 1178 4863 
L 1178 4134 
L 603 4134 
L 603 4863 
z
" transform="scale(0.015625)"/>
      <path id="DejaVuSans-20" transform="scale(0.015625)"/>
      <path id="DejaVuSans-68" d="M 3513 2113 
L 3513 0 
L 2938 0 
L 2938 2094 
Q 2938 2591 2744 2837 
Q 2550 3084 2163 3084 
Q 1697 3084 1428 2787 
Q 1159 2491 1159 1978 
L 1159 0 
L 581 0 
L 581 4863 
L 1159 4863 
L 1159 2956 
Q 1366 3272 1645 3428 
Q 1925 3584 2291 3584 
Q 2894 3584 3203 3211 
Q 3513 2838 3513 2113 
z
" transform="scale(0.015625)"/>
      <path id="DejaVuSans-6f" d="M 1959 3097 
Q 1497 3097 1228 2736 
Q 959 2375 959 1747 
Q 959 1119 1226 758 
Q 1494 397 1959 397 
Q 2419 397 2687 759 
Q 2956 1122 2956 1747 
Q 2956 2369 2687 2733 
Q 2419 3097 1959 3097 
z
M 1959 3584 
Q 2709 3584 3137 3096 
Q 3566 2609 3566 1747 
Q 3566 888 3137 398 
Q 2709 -91 1959 -91 
Q 1206 -91 779 398 
Q 353 888 353 1747 
Q 353 2609 779 3096 
Q 1206 3584 1959 3584 
z
" transform="scale(0.015625)"/>
      <path id="DejaVuSans-79" d="M 2059 -325 
Q 1816 -950 1584 -1140 
Q 1353 -1331 966 -1331 
L 506 -1331 
L 506 -850 
L 844 -850 
Q 1081 -850 1212 -737 
Q 1344 -625 1503 -206 
L 1606 56 
L 191 3500 
L 800 3500 
L 1894 763 
L 2988 3500 
L 3597 3500 
L 2059 -325 
z
" transform="scale(0.015625)"/>
     </defs>
     <use xlink:href="#DejaVuSans-67"/>
     <use xlink:href="#DejaVuSans-65" transform="translate(63.476562 0)"/>
     <use xlink:href="#DejaVuSans-74" transform="translate(125 0)"/>
     <use xlink:href="#DejaVuSans-5f" transform="translate(164.208984 0)"/>
     <use xlink:href="#DejaVuSans-73" transform="translate(214.208984 0)"/>
     <use xlink:href="#DejaVuSans-75" transform="translate(266.308594 0)"/>
     <use xlink:href="#DejaVuSans-62" transform="translate(329.6875 0)"/>
     <use xlink:href="#DejaVuSans-73" transform="translate(393.164062 0)"/>
     <use xlink:href="#DejaVuSans-63" transform="translate(445.263672 0)"/>
     <use xlink:href="#DejaVuSans-72" transform="translate(500.244141 0)"/>
     <use xlink:href="#DejaVuSans-69" transform="translate(541.357422 0)"/>
     <use xlink:href="#DejaVuSans-62" transform="translate(569.140625 0)"/>
     <use xlink:href="#DejaVuSans-65" transform="translate(632.617188 0)"/>
     <use xlink:href="#DejaVuSans-20" transform="translate(694.140625 0)"/>
     <use xlink:href="#DejaVuSans-68" transform="translate(725.927734 0)"/>
     <use xlink:href="#DejaVuSans-69" transform="translate(789.306641 0)"/>
     <use xlink:href="#DejaVuSans-73" transform="translate(817.089844 0)"/>
     <use xlink:href="#DejaVuSans-74" transform="translate(869.189453 0)"/>
     <use xlink:href="#DejaVuSans-6f" transform="translate(908.398438 0)"/>
     <use xlink:href="#DejaVuSans-72" transform="translate(969.580078 0)"/>
     <use xlink:href="#DejaVuSans-79" transform="translate(1010.693359 0)"/>
    </g>
   </g>
   <g id="legend_1">
    <g id="line2d_39">
     <path d="M 815.08 328.498438 
L 825.08 328.498438 
L 835.08 328.498438 
" style="fill: none; stroke: #1f77b4; stroke-width: 1.5; stroke-linecap: square"/>
    </g>
    <g id="text_20">
     <!-- star -->
     <g style="fill: #a9a9a9" transform="translate(843.08 331.998438) scale(0.1 -0.1)">
      <defs>
       <path id="DejaVuSans-61" d="M 2194 1759 
Q 1497 1759 1228 1600 
Q 959 1441 959 1056 
Q 959 750 1161 570 
Q 1363 391 1709 391 
Q 2188 391 2477 730 
Q 2766 1069 2766 1631 
L 2766 1759 
L 2194 1759 
z
M 3341 1997 
L 3341 0 
L 2766 0 
L 2766 531 
Q 2569 213 2275 61 
Q 1981 -91 1556 -91 
Q 1019 -91 701 211 
Q 384 513 384 1019 
Q 384 1609 779 1909 
Q 1175 2209 1959 2209 
L 2766 2209 
L 2766 2266 
Q 2766 2663 2505 2880 
Q 2244 3097 1772 3097 
Q 1472 3097 1187 3025 
Q 903 2953 641 2809 
L 641 3341 
Q 956 3463 1253 3523 
Q 1550 3584 1831 3584 
Q 2591 3584 2966 3190 
Q 3341 2797 3341 1997 
z
" transform="scale(0.015625)"/>
      </defs>
      <use xlink:href="#DejaVuSans-73"/>
      <use xlink:href="#DejaVuSans-74" transform="translate(52.099609 0)"/>
      <use xlink:href="#DejaVuSans-61" transform="translate(91.308594 0)"/>
      <use xlink:href="#DejaVuSans-72" transform="translate(152.587891 0)"/>
     </g>
    </g>
    <g id="line2d_40">
     <path d="M 815.08 343.176562 
L 825.08 343.176562 
L 835.08 343.176562 
" style="fill: none; stroke: #ff7f0e; stroke-width: 1.5; stroke-linecap: square"/>
    </g>
    <g id="text_21">
     <!-- fork -->
     <g style="fill: #a9a9a9" transform="translate(843.08 346.676562) scale(0.1 -0.1)">
      <defs>
       <path id="DejaVuSans-66" d="M 2375 4863 
L 2375 4384 
L 1825 4384 
Q 1516 4384 1395 4259 
Q 1275 4134 1275 3809 
L 1275 3500 
L 2222 3500 
L 2222 3053 
L 1275 3053 
L 1275 0 
L 697 0 
L 697 3053 
L 147 3053 
L 147 3500 
L 697 3500 
L 697 3744 
Q 697 4328 969 4595 
Q 1241 4863 1831 4863 
L 2375 4863 
z
" transform="scale(0.015625)"/>
       <path id="DejaVuSans-6b" d="M 581 4863 
L 1159 4863 
L 1159 1991 
L 2875 3500 
L 3609 3500 
L 1753 1863 
L 3688 0 
L 2938 0 
L 1159 1709 
L 1159 0 
L 581 0 
L 581 4863 
z
" transform="scale(0.015625)"/>
      </defs>
      <use xlink:href="#DejaVuSans-66"/>
      <use xlink:href="#DejaVuSans-6f" transform="translate(35.205078 0)"/>
      <use xlink:href="#DejaVuSans-72" transform="translate(96.386719 0)"/>
      <use xlink:href="#DejaVuSans-6b" transform="translate(137.5 0)"/>
     </g>
    </g>
   </g>
  </g>
 </g>
 <defs>
  <clipPath id="p6e4a5107c2">
   <rect x="108" y="43.2" width="669.6" height="277.2"/>
  </clipPath>
 </defs>
</svg>
