<?xml version="1.0" encoding="utf-8" standalone="no"?>
<!DOCTYPE svg PUBLIC "-//W3C//DTD SVG 1.1//EN"
  "http://www.w3.org/Graphics/SVG/1.1/DTD/svg11.dtd">
<svg xmlns:xlink="http://www.w3.org/1999/xlink" width="864pt" height="360pt" viewBox="0 0 864 360" xmlns="http://www.w3.org/2000/svg" version="1.1">
 <metadata>
  <rdf:RDF xmlns:dc="http://purl.org/dc/elements/1.1/" xmlns:cc="http://creativecommons.org/ns#" xmlns:rdf="http://www.w3.org/1999/02/22-rdf-syntax-ns#">
   <cc:Work>
    <dc:type rdf:resource="http://purl.org/dc/dcmitype/StillImage"/>
    <dc:date>2024-09-30T08:14:03.167754</dc:date>
    <dc:format>image/svg+xml</dc:format>
    <dc:creator>
     <cc:Agent>
      <dc:title>Matplotlib v3.9.2, https://matplotlib.org/</dc:title>
     </cc:Agent>
    </dc:creator>
   </cc:Work>
  </rdf:RDF>
 </metadata>
 <defs>
  <style type="text/css">*{stroke-linejoin: round; stroke-linecap: butt}</style>
 </defs>
 <g id="figure_1">
  <g id="patch_1">
   <path d="M 0 360 
L 864 360 
L 864 0 
L 0 0 
L 0 360 
z
" style="fill: none; opacity: 0"/>
  </g>
  <g id="axes_1">
   <g id="patch_2">
    <path d="M 108 320.4 
L 777.6 320.4 
L 777.6 43.2 
L 108 43.2 
L 108 320.4 
z
" style="fill: none; opacity: 0"/>
   </g>
   <g id="matplotlib.axis_1">
    <g id="xtick_1">
     <g id="line2d_1">
      <path d="M 158.831865 320.4 
L 158.831865 43.2 
" clip-path="url(#p2b7917296b)" style="fill: none; stroke-dasharray: 5.12,1.28,0.8,1.28; stroke-dashoffset: 0; stroke: #b0b0b0; stroke-width: 0.8"/>
     </g>
     <g id="line2d_2">
      <defs>
       <path id="mcd880622a8" d="M 0 0 
L 0 3.5 
" style="stroke: #a9a9a9; stroke-width: 0.8"/>
      </defs>
      <g>
       <use xlink:href="#mcd880622a8" x="158.831865" y="320.4" style="fill: #a9a9a9; stroke: #a9a9a9; stroke-width: 0.8"/>
      </g>
     </g>
     <g id="text_1">
      <!-- 2021-09 -->
      <g style="fill: #a9a9a9" transform="translate(137.940459 334.998438) scale(0.1 -0.1)">
       <defs>
        <path id="DejaVuSans-32" d="M 1228 531 
L 3431 531 
L 3431 0 
L 469 0 
L 469 531 
Q 828 903 1448 1529 
Q 2069 2156 2228 2338 
Q 2531 2678 2651 2914 
Q 2772 3150 2772 3378 
Q 2772 3750 2511 3984 
Q 2250 4219 1831 4219 
Q 1534 4219 1204 4116 
Q 875 4013 500 3803 
L 500 4441 
Q 881 4594 1212 4672 
Q 1544 4750 1819 4750 
Q 2544 4750 2975 4387 
Q 3406 4025 3406 3419 
Q 3406 3131 3298 2873 
Q 3191 2616 2906 2266 
Q 2828 2175 2409 1742 
Q 1991 1309 1228 531 
z
" transform="scale(0.015625)"/>
        <path id="DejaVuSans-30" d="M 2034 4250 
Q 1547 4250 1301 3770 
Q 1056 3291 1056 2328 
Q 1056 1369 1301 889 
Q 1547 409 2034 409 
Q 2525 409 2770 889 
Q 3016 1369 3016 2328 
Q 3016 3291 2770 3770 
Q 2525 4250 2034 4250 
z
M 2034 4750 
Q 2819 4750 3233 4129 
Q 3647 3509 3647 2328 
Q 3647 1150 3233 529 
Q 2819 -91 2034 -91 
Q 1250 -91 836 529 
Q 422 1150 422 2328 
Q 422 3509 836 4129 
Q 1250 4750 2034 4750 
z
" transform="scale(0.015625)"/>
        <path id="DejaVuSans-31" d="M 794 531 
L 1825 531 
L 1825 4091 
L 703 3866 
L 703 4441 
L 1819 4666 
L 2450 4666 
L 2450 531 
L 3481 531 
L 3481 0 
L 794 0 
L 794 531 
z
" transform="scale(0.015625)"/>
        <path id="DejaVuSans-2d" d="M 313 2009 
L 1997 2009 
L 1997 1497 
L 313 1497 
L 313 2009 
z
" transform="scale(0.015625)"/>
        <path id="DejaVuSans-39" d="M 703 97 
L 703 672 
Q 941 559 1184 500 
Q 1428 441 1663 441 
Q 2288 441 2617 861 
Q 2947 1281 2994 2138 
Q 2813 1869 2534 1725 
Q 2256 1581 1919 1581 
Q 1219 1581 811 2004 
Q 403 2428 403 3163 
Q 403 3881 828 4315 
Q 1253 4750 1959 4750 
Q 2769 4750 3195 4129 
Q 3622 3509 3622 2328 
Q 3622 1225 3098 567 
Q 2575 -91 1691 -91 
Q 1453 -91 1209 -44 
Q 966 3 703 97 
z
M 1959 2075 
Q 2384 2075 2632 2365 
Q 2881 2656 2881 3163 
Q 2881 3666 2632 3958 
Q 2384 4250 1959 4250 
Q 1534 4250 1286 3958 
Q 1038 3666 1038 3163 
Q 1038 2656 1286 2365 
Q 1534 2075 1959 2075 
z
" transform="scale(0.015625)"/>
       </defs>
       <use xlink:href="#DejaVuSans-32"/>
       <use xlink:href="#DejaVuSans-30" x="63.623047"/>
       <use xlink:href="#DejaVuSans-32" x="127.246094"/>
       <use xlink:href="#DejaVuSans-31" x="190.869141"/>
       <use xlink:href="#DejaVuSans-2d" x="254.492188"/>
       <use xlink:href="#DejaVuSans-30" x="290.576172"/>
       <use xlink:href="#DejaVuSans-39" x="354.199219"/>
      </g>
     </g>
    </g>
    <g id="xtick_2">
     <g id="line2d_3">
      <path d="M 222.633177 320.4 
L 222.633177 43.2 
" clip-path="url(#p2b7917296b)" style="fill: none; stroke-dasharray: 5.12,1.28,0.8,1.28; stroke-dashoffset: 0; stroke: #b0b0b0; stroke-width: 0.8"/>
     </g>
     <g id="line2d_4">
      <g>
       <use xlink:href="#mcd880622a8" x="222.633177" y="320.4" style="fill: #a9a9a9; stroke: #a9a9a9; stroke-width: 0.8"/>
      </g>
     </g>
     <g id="text_2">
      <!-- 2022-01 -->
      <g style="fill: #a9a9a9" transform="translate(201.741771 334.998438) scale(0.1 -0.1)">
       <use xlink:href="#DejaVuSans-32"/>
       <use xlink:href="#DejaVuSans-30" x="63.623047"/>
       <use xlink:href="#DejaVuSans-32" x="127.246094"/>
       <use xlink:href="#DejaVuSans-32" x="190.869141"/>
       <use xlink:href="#DejaVuSans-2d" x="254.492188"/>
       <use xlink:href="#DejaVuSans-30" x="290.576172"/>
       <use xlink:href="#DejaVuSans-31" x="354.199219"/>
      </g>
     </g>
    </g>
    <g id="xtick_3">
     <g id="line2d_5">
      <path d="M 285.388566 320.4 
L 285.388566 43.2 
" clip-path="url(#p2b7917296b)" style="fill: none; stroke-dasharray: 5.12,1.28,0.8,1.28; stroke-dashoffset: 0; stroke: #b0b0b0; stroke-width: 0.8"/>
     </g>
     <g id="line2d_6">
      <g>
       <use xlink:href="#mcd880622a8" x="285.388566" y="320.4" style="fill: #a9a9a9; stroke: #a9a9a9; stroke-width: 0.8"/>
      </g>
     </g>
     <g id="text_3">
      <!-- 2022-05 -->
      <g style="fill: #a9a9a9" transform="translate(264.49716 334.998438) scale(0.1 -0.1)">
       <defs>
        <path id="DejaVuSans-35" d="M 691 4666 
L 3169 4666 
L 3169 4134 
L 1269 4134 
L 1269 2991 
Q 1406 3038 1543 3061 
Q 1681 3084 1819 3084 
Q 2600 3084 3056 2656 
Q 3513 2228 3513 1497 
Q 3513 744 3044 326 
Q 2575 -91 1722 -91 
Q 1428 -91 1123 -41 
Q 819 9 494 109 
L 494 744 
Q 775 591 1075 516 
Q 1375 441 1709 441 
Q 2250 441 2565 725 
Q 2881 1009 2881 1497 
Q 2881 1984 2565 2268 
Q 2250 2553 1709 2553 
Q 1456 2553 1204 2497 
Q 953 2441 691 2322 
L 691 4666 
z
" transform="scale(0.015625)"/>
       </defs>
       <use xlink:href="#DejaVuSans-32"/>
       <use xlink:href="#DejaVuSans-30" x="63.623047"/>
       <use xlink:href="#DejaVuSans-32" x="127.246094"/>
       <use xlink:href="#DejaVuSans-32" x="190.869141"/>
       <use xlink:href="#DejaVuSans-2d" x="254.492188"/>
       <use xlink:href="#DejaVuSans-30" x="290.576172"/>
       <use xlink:href="#DejaVuSans-35" x="354.199219"/>
      </g>
     </g>
    </g>
    <g id="xtick_4">
     <g id="line2d_7">
      <path d="M 349.71284 320.4 
L 349.71284 43.2 
" clip-path="url(#p2b7917296b)" style="fill: none; stroke-dasharray: 5.12,1.28,0.8,1.28; stroke-dashoffset: 0; stroke: #b0b0b0; stroke-width: 0.8"/>
     </g>
     <g id="line2d_8">
      <g>
       <use xlink:href="#mcd880622a8" x="349.71284" y="320.4" style="fill: #a9a9a9; stroke: #a9a9a9; stroke-width: 0.8"/>
      </g>
     </g>
     <g id="text_4">
      <!-- 2022-09 -->
      <g style="fill: #a9a9a9" transform="translate(328.821433 334.998438) scale(0.1 -0.1)">
       <use xlink:href="#DejaVuSans-32"/>
       <use xlink:href="#DejaVuSans-30" x="63.623047"/>
       <use xlink:href="#DejaVuSans-32" x="127.246094"/>
       <use xlink:href="#DejaVuSans-32" x="190.869141"/>
       <use xlink:href="#DejaVuSans-2d" x="254.492188"/>
       <use xlink:href="#DejaVuSans-30" x="290.576172"/>
       <use xlink:href="#DejaVuSans-39" x="354.199219"/>
      </g>
     </g>
    </g>
    <g id="xtick_5">
     <g id="line2d_9">
      <path d="M 413.514152 320.4 
L 413.514152 43.2 
" clip-path="url(#p2b7917296b)" style="fill: none; stroke-dasharray: 5.12,1.28,0.8,1.28; stroke-dashoffset: 0; stroke: #b0b0b0; stroke-width: 0.8"/>
     </g>
     <g id="line2d_10">
      <g>
       <use xlink:href="#mcd880622a8" x="413.514152" y="320.4" style="fill: #a9a9a9; stroke: #a9a9a9; stroke-width: 0.8"/>
      </g>
     </g>
     <g id="text_5">
      <!-- 2023-01 -->
      <g style="fill: #a9a9a9" transform="translate(392.622746 334.998438) scale(0.1 -0.1)">
       <defs>
        <path id="DejaVuSans-33" d="M 2597 2516 
Q 3050 2419 3304 2112 
Q 3559 1806 3559 1356 
Q 3559 666 3084 287 
Q 2609 -91 1734 -91 
Q 1441 -91 1130 -33 
Q 819 25 488 141 
L 488 750 
Q 750 597 1062 519 
Q 1375 441 1716 441 
Q 2309 441 2620 675 
Q 2931 909 2931 1356 
Q 2931 1769 2642 2001 
Q 2353 2234 1838 2234 
L 1294 2234 
L 1294 2753 
L 1863 2753 
Q 2328 2753 2575 2939 
Q 2822 3125 2822 3475 
Q 2822 3834 2567 4026 
Q 2313 4219 1838 4219 
Q 1578 4219 1281 4162 
Q 984 4106 628 3988 
L 628 4550 
Q 988 4650 1302 4700 
Q 1616 4750 1894 4750 
Q 2613 4750 3031 4423 
Q 3450 4097 3450 3541 
Q 3450 3153 3228 2886 
Q 3006 2619 2597 2516 
z
" transform="scale(0.015625)"/>
       </defs>
       <use xlink:href="#DejaVuSans-32"/>
       <use xlink:href="#DejaVuSans-30" x="63.623047"/>
       <use xlink:href="#DejaVuSans-32" x="127.246094"/>
       <use xlink:href="#DejaVuSans-33" x="190.869141"/>
       <use xlink:href="#DejaVuSans-2d" x="254.492188"/>
       <use xlink:href="#DejaVuSans-30" x="290.576172"/>
       <use xlink:href="#DejaVuSans-31" x="354.199219"/>
      </g>
     </g>
    </g>
    <g id="xtick_6">
     <g id="line2d_11">
      <path d="M 476.269541 320.4 
L 476.269541 43.2 
" clip-path="url(#p2b7917296b)" style="fill: none; stroke-dasharray: 5.12,1.28,0.8,1.28; stroke-dashoffset: 0; stroke: #b0b0b0; stroke-width: 0.8"/>
     </g>
     <g id="line2d_12">
      <g>
       <use xlink:href="#mcd880622a8" x="476.269541" y="320.4" style="fill: #a9a9a9; stroke: #a9a9a9; stroke-width: 0.8"/>
      </g>
     </g>
     <g id="text_6">
      <!-- 2023-05 -->
      <g style="fill: #a9a9a9" transform="translate(455.378135 334.998438) scale(0.1 -0.1)">
       <use xlink:href="#DejaVuSans-32"/>
       <use xlink:href="#DejaVuSans-30" x="63.623047"/>
       <use xlink:href="#DejaVuSans-32" x="127.246094"/>
       <use xlink:href="#DejaVuSans-33" x="190.869141"/>
       <use xlink:href="#DejaVuSans-2d" x="254.492188"/>
       <use xlink:href="#DejaVuSans-30" x="290.576172"/>
       <use xlink:href="#DejaVuSans-35" x="354.199219"/>
      </g>
     </g>
    </g>
    <g id="xtick_7">
     <g id="line2d_13">
      <path d="M 540.593814 320.4 
L 540.593814 43.2 
" clip-path="url(#p2b7917296b)" style="fill: none; stroke-dasharray: 5.12,1.28,0.8,1.28; stroke-dashoffset: 0; stroke: #b0b0b0; stroke-width: 0.8"/>
     </g>
     <g id="line2d_14">
      <g>
       <use xlink:href="#mcd880622a8" x="540.593814" y="320.4" style="fill: #a9a9a9; stroke: #a9a9a9; stroke-width: 0.8"/>
      </g>
     </g>
     <g id="text_7">
      <!-- 2023-09 -->
      <g style="fill: #a9a9a9" transform="translate(519.702408 334.998438) scale(0.1 -0.1)">
       <use xlink:href="#DejaVuSans-32"/>
       <use xlink:href="#DejaVuSans-30" x="63.623047"/>
       <use xlink:href="#DejaVuSans-32" x="127.246094"/>
       <use xlink:href="#DejaVuSans-33" x="190.869141"/>
       <use xlink:href="#DejaVuSans-2d" x="254.492188"/>
       <use xlink:href="#DejaVuSans-30" x="290.576172"/>
       <use xlink:href="#DejaVuSans-39" x="354.199219"/>
      </g>
     </g>
    </g>
    <g id="xtick_8">
     <g id="line2d_15">
      <path d="M 604.395127 320.4 
L 604.395127 43.2 
" clip-path="url(#p2b7917296b)" style="fill: none; stroke-dasharray: 5.12,1.28,0.8,1.28; stroke-dashoffset: 0; stroke: #b0b0b0; stroke-width: 0.8"/>
     </g>
     <g id="line2d_16">
      <g>
       <use xlink:href="#mcd880622a8" x="604.395127" y="320.4" style="fill: #a9a9a9; stroke: #a9a9a9; stroke-width: 0.8"/>
      </g>
     </g>
     <g id="text_8">
      <!-- 2024-01 -->
      <g style="fill: #a9a9a9" transform="translate(583.50372 334.998438) scale(0.1 -0.1)">
       <defs>
        <path id="DejaVuSans-34" d="M 2419 4116 
L 825 1625 
L 2419 1625 
L 2419 4116 
z
M 2253 4666 
L 3047 4666 
L 3047 1625 
L 3713 1625 
L 3713 1100 
L 3047 1100 
L 3047 0 
L 2419 0 
L 2419 1100 
L 313 1100 
L 313 1709 
L 2253 4666 
z
" transform="scale(0.015625)"/>
       </defs>
       <use xlink:href="#DejaVuSans-32"/>
       <use xlink:href="#DejaVuSans-30" x="63.623047"/>
       <use xlink:href="#DejaVuSans-32" x="127.246094"/>
       <use xlink:href="#DejaVuSans-34" x="190.869141"/>
       <use xlink:href="#DejaVuSans-2d" x="254.492188"/>
       <use xlink:href="#DejaVuSans-30" x="290.576172"/>
       <use xlink:href="#DejaVuSans-31" x="354.199219"/>
      </g>
     </g>
    </g>
    <g id="xtick_9">
     <g id="line2d_17">
      <path d="M 667.673477 320.4 
L 667.673477 43.2 
" clip-path="url(#p2b7917296b)" style="fill: none; stroke-dasharray: 5.12,1.28,0.8,1.28; stroke-dashoffset: 0; stroke: #b0b0b0; stroke-width: 0.8"/>
     </g>
     <g id="line2d_18">
      <g>
       <use xlink:href="#mcd880622a8" x="667.673477" y="320.4" style="fill: #a9a9a9; stroke: #a9a9a9; stroke-width: 0.8"/>
      </g>
     </g>
     <g id="text_9">
      <!-- 2024-05 -->
      <g style="fill: #a9a9a9" transform="translate(646.782071 334.998438) scale(0.1 -0.1)">
       <use xlink:href="#DejaVuSans-32"/>
       <use xlink:href="#DejaVuSans-30" x="63.623047"/>
       <use xlink:href="#DejaVuSans-32" x="127.246094"/>
       <use xlink:href="#DejaVuSans-34" x="190.869141"/>
       <use xlink:href="#DejaVuSans-2d" x="254.492188"/>
       <use xlink:href="#DejaVuSans-30" x="290.576172"/>
       <use xlink:href="#DejaVuSans-35" x="354.199219"/>
      </g>
     </g>
    </g>
    <g id="xtick_10">
     <g id="line2d_19">
      <path d="M 731.997751 320.4 
L 731.997751 43.2 
" clip-path="url(#p2b7917296b)" style="fill: none; stroke-dasharray: 5.12,1.28,0.8,1.28; stroke-dashoffset: 0; stroke: #b0b0b0; stroke-width: 0.8"/>
     </g>
     <g id="line2d_20">
      <g>
       <use xlink:href="#mcd880622a8" x="731.997751" y="320.4" style="fill: #a9a9a9; stroke: #a9a9a9; stroke-width: 0.8"/>
      </g>
     </g>
     <g id="text_10">
      <!-- 2024-09 -->
      <g style="fill: #a9a9a9" transform="translate(711.106344 334.998438) scale(0.1 -0.1)">
       <use xlink:href="#DejaVuSans-32"/>
       <use xlink:href="#DejaVuSans-30" x="63.623047"/>
       <use xlink:href="#DejaVuSans-32" x="127.246094"/>
       <use xlink:href="#DejaVuSans-34" x="190.869141"/>
       <use xlink:href="#DejaVuSans-2d" x="254.492188"/>
       <use xlink:href="#DejaVuSans-30" x="290.576172"/>
       <use xlink:href="#DejaVuSans-39" x="354.199219"/>
      </g>
     </g>
    </g>
   </g>
   <g id="matplotlib.axis_2">
    <g id="ytick_1">
     <g id="line2d_21">
      <path d="M 108 307.837378 
L 777.6 307.837378 
" clip-path="url(#p2b7917296b)" style="fill: none; stroke-dasharray: 5.12,1.28,0.8,1.28; stroke-dashoffset: 0; stroke: #b0b0b0; stroke-width: 0.8"/>
     </g>
     <g id="line2d_22">
      <defs>
       <path id="m75aba110ed" d="M 0 0 
L -3.5 0 
" style="stroke: #a9a9a9; stroke-width: 0.8"/>
      </defs>
      <g>
       <use xlink:href="#m75aba110ed" x="108" y="307.837378" style="fill: #a9a9a9; stroke: #a9a9a9; stroke-width: 0.8"/>
      </g>
     </g>
     <g id="text_11">
      <!-- 0 -->
      <g style="fill: #a9a9a9" transform="translate(94.6375 311.636596) scale(0.1 -0.1)">
       <use xlink:href="#DejaVuSans-30"/>
      </g>
     </g>
    </g>
    <g id="ytick_2">
     <g id="line2d_23">
      <path d="M 108 277.935271 
L 777.6 277.935271 
" clip-path="url(#p2b7917296b)" style="fill: none; stroke-dasharray: 5.12,1.28,0.8,1.28; stroke-dashoffset: 0; stroke: #b0b0b0; stroke-width: 0.8"/>
     </g>
     <g id="line2d_24">
      <g>
       <use xlink:href="#m75aba110ed" x="108" y="277.935271" style="fill: #a9a9a9; stroke: #a9a9a9; stroke-width: 0.8"/>
      </g>
     </g>
     <g id="text_12">
      <!-- 800 -->
      <g style="fill: #a9a9a9" transform="translate(81.9125 281.73449) scale(0.1 -0.1)">
       <defs>
        <path id="DejaVuSans-38" d="M 2034 2216 
Q 1584 2216 1326 1975 
Q 1069 1734 1069 1313 
Q 1069 891 1326 650 
Q 1584 409 2034 409 
Q 2484 409 2743 651 
Q 3003 894 3003 1313 
Q 3003 1734 2745 1975 
Q 2488 2216 2034 2216 
z
M 1403 2484 
Q 997 2584 770 2862 
Q 544 3141 544 3541 
Q 544 4100 942 4425 
Q 1341 4750 2034 4750 
Q 2731 4750 3128 4425 
Q 3525 4100 3525 3541 
Q 3525 3141 3298 2862 
Q 3072 2584 2669 2484 
Q 3125 2378 3379 2068 
Q 3634 1759 3634 1313 
Q 3634 634 3220 271 
Q 2806 -91 2034 -91 
Q 1263 -91 848 271 
Q 434 634 434 1313 
Q 434 1759 690 2068 
Q 947 2378 1403 2484 
z
M 1172 3481 
Q 1172 3119 1398 2916 
Q 1625 2713 2034 2713 
Q 2441 2713 2670 2916 
Q 2900 3119 2900 3481 
Q 2900 3844 2670 4047 
Q 2441 4250 2034 4250 
Q 1625 4250 1398 4047 
Q 1172 3844 1172 3481 
z
" transform="scale(0.015625)"/>
       </defs>
       <use xlink:href="#DejaVuSans-38"/>
       <use xlink:href="#DejaVuSans-30" x="63.623047"/>
       <use xlink:href="#DejaVuSans-30" x="127.246094"/>
      </g>
     </g>
    </g>
    <g id="ytick_3">
     <g id="line2d_25">
      <path d="M 108 248.033165 
L 777.6 248.033165 
" clip-path="url(#p2b7917296b)" style="fill: none; stroke-dasharray: 5.12,1.28,0.8,1.28; stroke-dashoffset: 0; stroke: #b0b0b0; stroke-width: 0.8"/>
     </g>
     <g id="line2d_26">
      <g>
       <use xlink:href="#m75aba110ed" x="108" y="248.033165" style="fill: #a9a9a9; stroke: #a9a9a9; stroke-width: 0.8"/>
      </g>
     </g>
     <g id="text_13">
      <!-- 1600 -->
      <g style="fill: #a9a9a9" transform="translate(75.55 251.832384) scale(0.1 -0.1)">
       <defs>
        <path id="DejaVuSans-36" d="M 2113 2584 
Q 1688 2584 1439 2293 
Q 1191 2003 1191 1497 
Q 1191 994 1439 701 
Q 1688 409 2113 409 
Q 2538 409 2786 701 
Q 3034 994 3034 1497 
Q 3034 2003 2786 2293 
Q 2538 2584 2113 2584 
z
M 3366 4563 
L 3366 3988 
Q 3128 4100 2886 4159 
Q 2644 4219 2406 4219 
Q 1781 4219 1451 3797 
Q 1122 3375 1075 2522 
Q 1259 2794 1537 2939 
Q 1816 3084 2150 3084 
Q 2853 3084 3261 2657 
Q 3669 2231 3669 1497 
Q 3669 778 3244 343 
Q 2819 -91 2113 -91 
Q 1303 -91 875 529 
Q 447 1150 447 2328 
Q 447 3434 972 4092 
Q 1497 4750 2381 4750 
Q 2619 4750 2861 4703 
Q 3103 4656 3366 4563 
z
" transform="scale(0.015625)"/>
       </defs>
       <use xlink:href="#DejaVuSans-31"/>
       <use xlink:href="#DejaVuSans-36" x="63.623047"/>
       <use xlink:href="#DejaVuSans-30" x="127.246094"/>
       <use xlink:href="#DejaVuSans-30" x="190.869141"/>
      </g>
     </g>
    </g>
    <g id="ytick_4">
     <g id="line2d_27">
      <path d="M 108 218.131059 
L 777.6 218.131059 
" clip-path="url(#p2b7917296b)" style="fill: none; stroke-dasharray: 5.12,1.28,0.8,1.28; stroke-dashoffset: 0; stroke: #b0b0b0; stroke-width: 0.8"/>
     </g>
     <g id="line2d_28">
      <g>
       <use xlink:href="#m75aba110ed" x="108" y="218.131059" style="fill: #a9a9a9; stroke: #a9a9a9; stroke-width: 0.8"/>
      </g>
     </g>
     <g id="text_14">
      <!-- 2400 -->
      <g style="fill: #a9a9a9" transform="translate(75.55 221.930278) scale(0.1 -0.1)">
       <use xlink:href="#DejaVuSans-32"/>
       <use xlink:href="#DejaVuSans-34" x="63.623047"/>
       <use xlink:href="#DejaVuSans-30" x="127.246094"/>
       <use xlink:href="#DejaVuSans-30" x="190.869141"/>
      </g>
     </g>
    </g>
    <g id="ytick_5">
     <g id="line2d_29">
      <path d="M 108 188.228953 
L 777.6 188.228953 
" clip-path="url(#p2b7917296b)" style="fill: none; stroke-dasharray: 5.12,1.28,0.8,1.28; stroke-dashoffset: 0; stroke: #b0b0b0; stroke-width: 0.8"/>
     </g>
     <g id="line2d_30">
      <g>
       <use xlink:href="#m75aba110ed" x="108" y="188.228953" style="fill: #a9a9a9; stroke: #a9a9a9; stroke-width: 0.8"/>
      </g>
     </g>
     <g id="text_15">
      <!-- 3200 -->
      <g style="fill: #a9a9a9" transform="translate(75.55 192.028172) scale(0.1 -0.1)">
       <use xlink:href="#DejaVuSans-33"/>
       <use xlink:href="#DejaVuSans-32" x="63.623047"/>
       <use xlink:href="#DejaVuSans-30" x="127.246094"/>
       <use xlink:href="#DejaVuSans-30" x="190.869141"/>
      </g>
     </g>
    </g>
    <g id="ytick_6">
     <g id="line2d_31">
      <path d="M 108 158.326847 
L 777.6 158.326847 
" clip-path="url(#p2b7917296b)" style="fill: none; stroke-dasharray: 5.12,1.28,0.8,1.28; stroke-dashoffset: 0; stroke: #b0b0b0; stroke-width: 0.8"/>
     </g>
     <g id="line2d_32">
      <g>
       <use xlink:href="#m75aba110ed" x="108" y="158.326847" style="fill: #a9a9a9; stroke: #a9a9a9; stroke-width: 0.8"/>
      </g>
     </g>
     <g id="text_16">
      <!-- 4000 -->
      <g style="fill: #a9a9a9" transform="translate(75.55 162.126065) scale(0.1 -0.1)">
       <use xlink:href="#DejaVuSans-34"/>
       <use xlink:href="#DejaVuSans-30" x="63.623047"/>
       <use xlink:href="#DejaVuSans-30" x="127.246094"/>
       <use xlink:href="#DejaVuSans-30" x="190.869141"/>
      </g>
     </g>
    </g>
    <g id="ytick_7">
     <g id="line2d_33">
      <path d="M 108 128.42474 
L 777.6 128.42474 
" clip-path="url(#p2b7917296b)" style="fill: none; stroke-dasharray: 5.12,1.28,0.8,1.28; stroke-dashoffset: 0; stroke: #b0b0b0; stroke-width: 0.8"/>
     </g>
     <g id="line2d_34">
      <g>
       <use xlink:href="#m75aba110ed" x="108" y="128.42474" style="fill: #a9a9a9; stroke: #a9a9a9; stroke-width: 0.8"/>
      </g>
     </g>
     <g id="text_17">
      <!-- 4800 -->
      <g style="fill: #a9a9a9" transform="translate(75.55 132.223959) scale(0.1 -0.1)">
       <use xlink:href="#DejaVuSans-34"/>
       <use xlink:href="#DejaVuSans-38" x="63.623047"/>
       <use xlink:href="#DejaVuSans-30" x="127.246094"/>
       <use xlink:href="#DejaVuSans-30" x="190.869141"/>
      </g>
     </g>
    </g>
    <g id="ytick_8">
     <g id="line2d_35">
      <path d="M 108 98.522634 
L 777.6 98.522634 
" clip-path="url(#p2b7917296b)" style="fill: none; stroke-dasharray: 5.12,1.28,0.8,1.28; stroke-dashoffset: 0; stroke: #b0b0b0; stroke-width: 0.8"/>
     </g>
     <g id="line2d_36">
      <g>
       <use xlink:href="#m75aba110ed" x="108" y="98.522634" style="fill: #a9a9a9; stroke: #a9a9a9; stroke-width: 0.8"/>
      </g>
     </g>
     <g id="text_18">
      <!-- 5600 -->
      <g style="fill: #a9a9a9" transform="translate(75.55 102.321853) scale(0.1 -0.1)">
       <use xlink:href="#DejaVuSans-35"/>
       <use xlink:href="#DejaVuSans-36" x="63.623047"/>
       <use xlink:href="#DejaVuSans-30" x="127.246094"/>
       <use xlink:href="#DejaVuSans-30" x="190.869141"/>
      </g>
     </g>
    </g>
    <g id="ytick_9">
     <g id="line2d_37">
      <path d="M 108 68.620528 
L 777.6 68.620528 
" clip-path="url(#p2b7917296b)" style="fill: none; stroke-dasharray: 5.12,1.28,0.8,1.28; stroke-dashoffset: 0; stroke: #b0b0b0; stroke-width: 0.8"/>
     </g>
     <g id="line2d_38">
      <g>
       <use xlink:href="#m75aba110ed" x="108" y="68.620528" style="fill: #a9a9a9; stroke: #a9a9a9; stroke-width: 0.8"/>
      </g>
     </g>
     <g id="text_19">
      <!-- 6400 -->
      <g style="fill: #a9a9a9" transform="translate(75.55 72.419747) scale(0.1 -0.1)">
       <use xlink:href="#DejaVuSans-36"/>
       <use xlink:href="#DejaVuSans-34" x="63.623047"/>
       <use xlink:href="#DejaVuSans-30" x="127.246094"/>
       <use xlink:href="#DejaVuSans-30" x="190.869141"/>
      </g>
     </g>
    </g>
   </g>
   <g id="line2d_39">
    <path d="M 138.436364 307.725245 
L 141.574133 307.463601 
L 142.097095 307.239336 
L 143.665979 307.089825 
L 147.32671 306.417028 
L 149.941518 306.192762 
L 150.987441 305.781608 
L 151.510403 305.10881 
L 152.033365 304.735034 
L 152.556326 303.576327 
L 153.079288 303.501572 
L 153.602249 303.090418 
L 154.648172 302.567131 
L 156.740019 300.922516 
L 158.831865 299.913319 
L 160.40075 299.203144 
L 160.923711 298.380837 
L 161.969634 297.633284 
L 162.492596 297.409018 
L 167.722212 296.661465 
L 168.245173 296.4372 
L 171.905904 296.138179 
L 173.997751 295.652269 
L 178.181443 295.091605 
L 178.704405 294.829961 
L 179.227366 294.755206 
L 180.27329 294.418807 
L 183.934021 293.820765 
L 184.979944 293.521744 
L 189.686598 292.736814 
L 190.732521 292.512548 
L 191.778444 292.475171 
L 193.870291 291.989261 
L 194.393252 291.279086 
L 195.962137 290.681044 
L 197.531022 290.26989 
L 198.053983 290.008247 
L 198.576945 289.970869 
L 201.191753 289.223317 
L 202.237676 289.148561 
L 203.283599 288.886918 
L 205.375445 288.363631 
L 205.898407 288.326253 
L 206.94433 287.840344 
L 207.467291 287.765589 
L 207.990253 287.503945 
L 213.74283 286.569505 
L 215.834677 285.971462 
L 216.357638 285.635064 
L 218.972446 284.775378 
L 220.018369 284.065203 
L 221.587254 283.766182 
L 231.523524 280.888104 
L 232.569447 280.47695 
L 233.61537 280.402195 
L 235.184255 279.953664 
L 235.707216 279.953664 
L 236.230178 279.729398 
L 237.276101 279.617265 
L 237.799063 279.430377 
L 238.844986 279.392999 
L 240.936832 279.131356 
L 241.982755 278.608069 
L 248.258294 275.804746 
L 248.781256 275.244082 
L 249.827179 273.674221 
L 250.350141 273.524711 
L 250.873102 273.524711 
L 251.919025 272.73978 
L 253.48791 272.216494 
L 254.010872 271.730584 
L 255.056795 271.31943 
L 256.102718 270.833521 
L 257.148641 269.338416 
L 257.671603 269.002017 
L 258.194564 268.104954 
L 258.717526 267.54429 
L 261.855295 265.899674 
L 262.901218 265.077366 
L 263.42418 264.740967 
L 263.947142 263.956037 
L 264.470103 262.79733 
L 264.993065 262.0124 
L 265.516026 261.601246 
L 266.038988 261.37698 
L 269.699719 258.312014 
L 270.745642 257.078552 
L 271.791565 256.331 
L 273.36045 255.284426 
L 273.883411 254.835894 
L 274.929335 254.499496 
L 276.498219 253.602433 
L 278.067104 252.593236 
L 280.15895 250.724355 
L 281.204873 250.313201 
L 282.250797 249.603026 
L 282.773758 249.304005 
L 283.29672 249.229249 
L 286.957451 246.949214 
L 289.049297 245.827885 
L 289.572259 245.341976 
L 297.939644 242.42652 
L 298.985567 241.49208 
L 300.03149 241.00617 
L 301.077413 240.445506 
L 301.600375 240.146485 
L 302.646298 239.847464 
L 303.16926 239.511065 
L 303.692221 239.361554 
L 305.261106 238.352358 
L 307.875914 237.754316 
L 309.444799 236.857253 
L 311.013683 236.520854 
L 311.536645 236.371344 
L 313.10553 235.17526 
L 315.197376 234.614595 
L 315.720337 234.203441 
L 318.858107 233.156867 
L 319.381068 233.11949 
L 320.949953 232.558825 
L 324.610684 231.250608 
L 325.656607 231.101098 
L 327.225492 230.577811 
L 329.8403 229.344349 
L 331.932146 228.22302 
L 336.115839 226.541026 
L 336.6388 226.466271 
L 337.684724 225.830851 
L 338.207685 225.756096 
L 340.299531 224.896411 
L 342.391378 224.597389 
L 343.437301 224.074103 
L 343.960262 223.625571 
L 344.483224 222.69113 
L 346.57507 222.130466 
L 348.143955 221.345535 
L 348.666917 221.233403 
L 352.850609 219.252388 
L 354.419494 218.915989 
L 355.465417 218.392702 
L 355.988379 218.168437 
L 356.51134 218.093681 
L 358.603187 217.159241 
L 360.172071 216.187422 
L 361.740956 215.888401 
L 364.355764 215.252981 
L 364.878725 214.841827 
L 366.44761 214.281163 
L 368.539456 213.458855 
L 369.062418 213.085079 
L 369.58538 212.89819 
L 370.631303 212.337526 
L 373.246111 211.47784 
L 374.814995 210.244379 
L 375.337957 210.132246 
L 376.38388 209.309938 
L 376.906842 209.235182 
L 377.429803 208.412875 
L 377.952765 208.188609 
L 378.475726 207.777455 
L 378.998688 207.702699 
L 380.044611 207.06728 
L 381.090534 206.730881 
L 381.613496 206.319727 
L 382.136457 206.132839 
L 383.705342 205.048888 
L 385.797188 203.964936 
L 386.32015 203.890181 
L 387.889035 203.105251 
L 388.411996 202.245565 
L 388.934958 201.797034 
L 389.457919 201.498012 
L 389.980881 201.38588 
L 391.026804 200.713082 
L 391.549766 200.600949 
L 392.595689 200.077662 
L 394.687535 199.068466 
L 395.210497 198.69469 
L 396.779381 197.27434 
L 397.825305 196.676298 
L 398.348266 196.115633 
L 400.440112 194.695283 
L 400.963074 194.097241 
L 401.486036 193.686087 
L 402.531959 193.312311 
L 403.577882 192.602136 
L 405.146767 191.817206 
L 405.669728 191.74245 
L 407.238613 190.920142 
L 408.284536 190.284723 
L 413.514152 188.415841 
L 414.037113 188.004687 
L 416.12896 187.219757 
L 416.651921 187.070246 
L 417.174883 186.659092 
L 419.789691 185.238742 
L 420.835614 183.182972 
L 421.881537 181.986888 
L 422.92746 181.351468 
L 424.496345 180.716049 
L 425.019306 180.641293 
L 425.542268 180.342272 
L 428.157076 179.519964 
L 428.680037 179.295699 
L 429.725961 178.585524 
L 431.294845 177.912726 
L 432.340769 177.352062 
L 432.86373 176.978285 
L 433.386692 176.75402 
L 433.909653 176.380243 
L 434.432615 175.819579 
L 435.478538 175.258914 
L 438.093346 173.875942 
L 441.231115 172.343459 
L 442.277038 172.00706 
L 443.845923 171.521151 
L 445.937769 170.58671 
L 446.983693 170.175556 
L 447.506654 169.764402 
L 448.552577 169.428004 
L 451.690347 167.820765 
L 452.73627 166.998457 
L 453.782193 166.624681 
L 454.305155 166.17615 
L 454.828116 166.101394 
L 455.874039 165.316464 
L 456.919963 164.793177 
L 457.442924 164.568911 
L 457.965886 164.045624 
L 461.626617 162.625274 
L 462.67254 162.176743 
L 464.241425 161.690834 
L 465.287348 161.541323 
L 465.810309 161.317057 
L 466.333271 161.242302 
L 467.379194 160.79377 
L 467.902156 160.756393 
L 469.994002 159.971462 
L 471.562887 158.887511 
L 472.085848 158.700623 
L 473.131771 158.139958 
L 473.654733 157.990448 
L 476.792502 156.271077 
L 477.315464 156.158944 
L 478.884349 155.261881 
L 480.453233 154.738594 
L 481.499157 154.402195 
L 483.591003 153.729398 
L 484.636926 153.392999 
L 486.728772 152.981845 
L 487.251734 152.757579 
L 487.774695 152.682824 
L 488.820619 152.234292 
L 489.34358 152.159537 
L 489.866542 151.897894 
L 490.912465 151.711006 
L 492.48135 151.150341 
L 493.527273 151.038208 
L 495.096157 150.70181 
L 497.710965 150.253278 
L 511.307966 146.366004 
L 511.830928 145.842717 
L 512.876851 145.431563 
L 516.01462 144.310234 
L 516.537582 143.973836 
L 517.060544 143.861703 
L 517.583505 143.562682 
L 519.15239 143.11415 
L 520.198313 142.852507 
L 520.721275 142.516108 
L 521.244236 142.403975 
L 521.767198 141.955443 
L 523.336082 141.656422 
L 524.382006 141.170513 
L 524.904967 140.572471 
L 526.996813 140.086562 
L 530.657545 139.339009 
L 531.180506 139.339009 
L 531.703468 139.114743 
L 533.795314 138.740967 
L 534.318276 138.516701 
L 536.410122 138.142925 
L 537.456045 137.694393 
L 537.979007 137.657016 
L 546.869353 135.003204 
L 547.392315 134.778938 
L 547.915276 134.405162 
L 548.9612 134.106141 
L 550.007123 133.769742 
L 551.053046 133.358588 
L 552.621931 132.685791 
L 554.190815 132.573658 
L 556.282662 131.975616 
L 556.805623 131.676594 
L 557.851546 131.377573 
L 560.466354 130.218867 
L 560.989316 130.181489 
L 566.741893 128.200475 
L 569.356701 127.527677 
L 570.402624 127.041768 
L 571.971509 126.705369 
L 572.49447 126.294215 
L 573.017432 126.032572 
L 573.540394 125.397152 
L 574.063355 125.023376 
L 575.109278 124.724355 
L 575.63224 124.313201 
L 578.770009 123.154494 
L 579.292971 122.818096 
L 580.338894 122.519074 
L 580.861856 122.182676 
L 583.476664 121.32299 
L 585.045548 120.425927 
L 585.56851 120.313794 
L 586.614433 119.715752 
L 587.137395 119.491486 
L 588.183318 118.856066 
L 589.752202 118.108514 
L 590.275164 117.734737 
L 591.321087 117.398339 
L 592.36701 116.800297 
L 592.889972 116.613408 
L 593.412933 116.239632 
L 600.211434 113.884841 
L 600.734396 113.772708 
L 601.257357 113.43631 
L 603.349203 113.025156 
L 604.395127 112.614002 
L 604.918088 112.314981 
L 605.44105 112.16547 
L 607.532896 111.081519 
L 608.055858 111.006764 
L 609.624742 110.147078 
L 612.762512 108.913616 
L 614.854358 108.091308 
L 615.37732 107.941798 
L 615.900281 107.605399 
L 616.946204 107.455888 
L 617.469166 107.11949 
L 617.992127 107.082112 
L 619.038051 106.745713 
L 620.083974 106.222427 
L 620.606935 106.147671 
L 623.221743 105.101098 
L 624.790628 104.652566 
L 625.836551 104.390923 
L 627.405436 103.942391 
L 628.451359 103.531237 
L 630.543205 102.409908 
L 631.589128 101.998754 
L 632.11209 101.662355 
L 633.158013 101.43809 
L 633.680975 101.139069 
L 634.203936 101.026936 
L 635.772821 100.16725 
L 636.818744 99.756096 
L 638.387629 99.045921 
L 639.956514 98.634767 
L 643.094283 97.401305 
L 644.663168 96.878018 
L 652.507591 93.514031 
L 653.553515 93.252388 
L 658.260169 91.308751 
L 658.78313 91.308751 
L 659.829053 90.86022 
L 660.874977 89.925779 
L 661.397938 89.477247 
L 662.966823 88.729694 
L 663.489784 88.617562 
L 664.012746 88.355918 
L 664.535708 88.281163 
L 665.058669 87.907387 
L 665.581631 87.795254 
L 666.627554 87.159834 
L 668.196439 86.374904 
L 669.242362 85.96375 
L 669.765323 85.702106 
L 672.380131 85.066686 
L 672.903093 84.805043 
L 674.471978 84.356511 
L 676.563824 83.347315 
L 677.609747 82.861406 
L 678.65567 82.599763 
L 680.747516 81.627944 
L 681.270478 81.478434 
L 681.79344 81.142035 
L 684.931209 80.020706 
L 686.500094 79.086265 
L 687.023055 78.974132 
L 688.068978 78.450845 
L 689.114902 78.077069 
L 689.637863 77.628538 
L 690.160825 77.329516 
L 691.729709 76.843607 
L 692.775633 76.133432 
L 693.298594 76.096055 
L 694.344517 75.797034 
L 695.39044 75.460635 
L 695.913402 75.198991 
L 696.436364 75.124236 
L 698.005248 74.563572 
L 699.574133 74.002907 
L 700.620056 73.591753 
L 701.143018 73.180599 
L 702.711903 72.769445 
L 703.234864 72.470424 
L 704.280787 72.208781 
L 705.849672 71.349095 
L 706.372634 71.311718 
L 707.941518 70.825808 
L 708.987441 70.713675 
L 710.033365 70.302522 
L 713.171134 69.405458 
L 714.217057 69.368081 
L 717.354827 68.358885 
L 717.877788 68.284129 
L 719.446673 67.461821 
L 719.969634 67.01329 
L 721.538519 66.116227 
L 722.061481 65.705073 
L 723.107404 65.293919 
L 725.722212 64.396856 
L 726.245173 63.985702 
L 727.814058 63.275527 
L 728.33702 63.163394 
L 729.382943 62.677484 
L 730.951828 62.26633 
L 732.520712 61.593533 
L 733.566635 61.107624 
L 735.13552 60.472204 
L 735.658482 60.360071 
L 737.227366 59.612519 
L 737.750328 59.500386 
L 738.796251 58.790211 
L 740.365136 58.341679 
L 741.934021 57.295105 
L 742.456982 57.22035 
L 745.07179 56.173776 
L 746.640675 55.8 
L 747.163636 55.8 
L 747.163636 55.8 
" clip-path="url(#p2b7917296b)" style="fill: none; stroke: #1f77b4; stroke-width: 1.5; stroke-linecap: square"/>
   </g>
   <g id="line2d_40">
    <path d="M 138.959325 307.8 
L 140.52821 307.725245 
L 142.097095 307.687867 
L 145.234864 307.613112 
L 147.849672 307.500979 
L 149.941518 307.500979 
L 150.46448 307.351468 
L 152.556326 307.276713 
L 154.125211 307.089825 
L 156.217057 306.902937 
L 157.785942 306.828182 
L 163.015558 306.52916 
L 167.19925 306.454405 
L 169.814058 306.342272 
L 176.089597 306.267517 
L 178.704405 306.155384 
L 181.842174 306.080629 
L 183.934021 306.005874 
L 188.640675 305.931118 
L 190.20956 305.893741 
L 191.778444 305.856363 
L 193.870291 305.669475 
L 195.439175 305.632097 
L 198.053983 305.557342 
L 200.145829 305.482587 
L 203.80656 305.407832 
L 205.898407 305.220943 
L 208.513215 305.146188 
L 210.082099 305.10881 
L 212.696907 305.034055 
L 214.265792 304.884545 
L 217.926523 304.809789 
L 220.541331 304.585524 
L 221.587254 304.473391 
L 226.293908 304.211747 
L 229.431678 304.136992 
L 234.138332 303.875349 
L 235.707216 303.800593 
L 240.936832 303.501572 
L 246.68941 303.426817 
L 248.781256 303.202551 
L 249.827179 303.127796 
L 256.625679 302.567131 
L 260.28641 302.155977 
L 261.855295 302.081222 
L 266.561949 301.520558 
L 269.176757 301.445802 
L 270.745642 301.296292 
L 271.791565 301.258914 
L 273.36045 301.146781 
L 274.406373 301.072026 
L 275.975258 300.84776 
L 276.498219 300.84776 
L 278.067104 300.623495 
L 280.15895 300.548739 
L 281.204873 300.473984 
L 283.29672 300.399229 
L 284.342643 300.324473 
L 286.957451 300.06283 
L 288.003374 299.875942 
L 289.572259 299.838564 
L 290.618182 299.763809 
L 293.23299 299.689054 
L 300.03149 299.2779 
L 301.600375 299.203144 
L 308.398875 298.791991 
L 312.059606 298.717235 
L 313.10553 298.605102 
L 316.766261 298.530347 
L 320.426992 298.343459 
L 326.179569 298.268704 
L 329.8403 298.081815 
L 334.023993 298.00706 
L 338.207685 297.782794 
L 341.868416 297.708039 
L 351.804686 297.072619 
L 357.034302 296.997864 
L 359.64911 296.736221 
L 362.263918 296.698843 
L 364.878725 296.4372 
L 369.58538 296.175556 
L 372.723149 296.100801 
L 374.292034 296.063423 
L 375.860918 296.026046 
L 377.429803 295.876535 
L 381.613496 295.80178 
L 382.659419 295.652269 
L 383.705342 295.577514 
L 386.32015 295.465381 
L 387.366073 295.390626 
L 388.411996 295.315871 
L 393.11865 295.241115 
L 394.687535 295.128982 
L 408.284536 294.231919 
L 410.376382 294.157164 
L 412.99119 294.045031 
L 420.312652 293.970276 
L 423.973383 293.783388 
L 428.157076 293.708632 
L 430.248922 293.633877 
L 432.340769 293.5965 
L 433.909653 293.484367 
L 438.616307 293.222723 
L 439.662231 293.147968 
L 441.754077 293.073213 
L 444.368885 292.998457 
L 446.983693 292.886325 
L 450.644424 292.811569 
L 452.73627 292.736814 
L 459.011809 292.662059 
L 461.626617 292.549926 
L 464.764386 292.475171 
L 466.856232 292.288282 
L 468.425117 292.250905 
L 470.516963 292.17615 
L 472.085848 292.064017 
L 477.838425 291.989261 
L 479.930272 291.914506 
L 487.251734 291.839751 
L 488.820619 291.802373 
L 491.958388 291.727618 
L 493.527273 291.69024 
L 500.325773 291.615485 
L 501.371696 291.54073 
L 507.124274 291.465974 
L 509.21612 291.391219 
L 519.15239 291.316464 
L 520.721275 291.279086 
L 525.427929 291.204331 
L 526.473852 291.129576 
L 539.02493 291.054821 
L 540.593814 291.017443 
L 554.713777 290.942688 
L 556.282662 290.90531 
L 565.69597 290.830555 
L 566.741893 290.755799 
L 569.356701 290.681044 
L 570.925586 290.531534 
L 573.540394 290.456778 
L 576.678163 290.307268 
L 580.861856 290.232513 
L 581.907779 290.157757 
L 586.091471 290.083002 
L 589.229241 289.933492 
L 591.844049 289.858736 
L 596.027741 289.63447 
L 599.165511 289.559715 
L 601.257357 289.48496 
L 608.055858 289.410205 
L 610.147704 289.335449 
L 614.331396 289.260694 
L 617.992127 289.073806 
L 622.698782 288.999051 
L 623.744705 288.924295 
L 633.158013 288.84954 
L 634.726898 288.812163 
L 637.341706 288.774785 
L 639.956514 288.513142 
L 644.140206 288.438386 
L 649.369822 288.139365 
L 651.98463 288.06461 
L 654.076476 287.989855 
L 659.829053 287.915099 
L 662.966823 287.578701 
L 666.627554 287.503945 
L 669.765323 287.354435 
L 673.426054 287.27968 
L 676.040862 287.167547 
L 682.839363 287.130169 
L 683.885286 287.018036 
L 687.546017 286.943281 
L 689.114902 286.905903 
L 691.729709 286.831148 
L 693.298594 286.79377 
L 702.188941 286.719015 
L 704.803749 286.606882 
L 712.125211 286.532127 
L 714.217057 286.457372 
L 719.969634 286.382616 
L 721.015558 286.270484 
L 725.722212 286.233106 
L 726.768135 286.158351 
L 729.382943 286.083595 
L 730.951828 286.046218 
L 737.750328 285.971462 
L 739.319213 285.934085 
L 740.365136 285.85933 
L 741.934021 285.821952 
L 742.456982 285.821952 
L 743.502905 285.635064 
L 747.163636 285.560309 
L 747.163636 285.560309 
" clip-path="url(#p2b7917296b)" style="fill: none; stroke: #ff7f0e; stroke-width: 1.5; stroke-linecap: square"/>
   </g>
   <g id="patch_3">
    <path d="M 108 320.4 
L 108 43.2 
" style="fill: none; stroke: #a9a9a9; stroke-width: 0.8; stroke-linejoin: miter; stroke-linecap: square"/>
   </g>
   <g id="patch_4">
    <path d="M 777.6 320.4 
L 777.6 43.2 
" style="fill: none"/>
   </g>
   <g id="patch_5">
    <path d="M 108 320.4 
L 777.6 320.4 
" style="fill: none; stroke: #a9a9a9; stroke-width: 0.8; stroke-linejoin: miter; stroke-linecap: square"/>
   </g>
   <g id="patch_6">
    <path d="M 108 43.2 
L 777.6 43.2 
" style="fill: none"/>
   </g>
   <g id="text_20">
    <!-- get_subscribe history -->
    <g style="fill: #a9a9a9" transform="translate(378.6075 37.2) scale(0.12 -0.12)">
     <defs>
      <path id="DejaVuSans-67" d="M 2906 1791 
Q 2906 2416 2648 2759 
Q 2391 3103 1925 3103 
Q 1463 3103 1205 2759 
Q 947 2416 947 1791 
Q 947 1169 1205 825 
Q 1463 481 1925 481 
Q 2391 481 2648 825 
Q 2906 1169 2906 1791 
z
M 3481 434 
Q 3481 -459 3084 -895 
Q 2688 -1331 1869 -1331 
Q 1566 -1331 1297 -1286 
Q 1028 -1241 775 -1147 
L 775 -588 
Q 1028 -725 1275 -790 
Q 1522 -856 1778 -856 
Q 2344 -856 2625 -561 
Q 2906 -266 2906 331 
L 2906 616 
Q 2728 306 2450 153 
Q 2172 0 1784 0 
Q 1141 0 747 490 
Q 353 981 353 1791 
Q 353 2603 747 3093 
Q 1141 3584 1784 3584 
Q 2172 3584 2450 3431 
Q 2728 3278 2906 2969 
L 2906 3500 
L 3481 3500 
L 3481 434 
z
" transform="scale(0.015625)"/>
      <path id="DejaVuSans-65" d="M 3597 1894 
L 3597 1613 
L 953 1613 
Q 991 1019 1311 708 
Q 1631 397 2203 397 
Q 2534 397 2845 478 
Q 3156 559 3463 722 
L 3463 178 
Q 3153 47 2828 -22 
Q 2503 -91 2169 -91 
Q 1331 -91 842 396 
Q 353 884 353 1716 
Q 353 2575 817 3079 
Q 1281 3584 2069 3584 
Q 2775 3584 3186 3129 
Q 3597 2675 3597 1894 
z
M 3022 2063 
Q 3016 2534 2758 2815 
Q 2500 3097 2075 3097 
Q 1594 3097 1305 2825 
Q 1016 2553 972 2059 
L 3022 2063 
z
" transform="scale(0.015625)"/>
      <path id="DejaVuSans-74" d="M 1172 4494 
L 1172 3500 
L 2356 3500 
L 2356 3053 
L 1172 3053 
L 1172 1153 
Q 1172 725 1289 603 
Q 1406 481 1766 481 
L 2356 481 
L 2356 0 
L 1766 0 
Q 1100 0 847 248 
Q 594 497 594 1153 
L 594 3053 
L 172 3053 
L 172 3500 
L 594 3500 
L 594 4494 
L 1172 4494 
z
" transform="scale(0.015625)"/>
      <path id="DejaVuSans-5f" d="M 3263 -1063 
L 3263 -1509 
L -63 -1509 
L -63 -1063 
L 3263 -1063 
z
" transform="scale(0.015625)"/>
      <path id="DejaVuSans-73" d="M 2834 3397 
L 2834 2853 
Q 2591 2978 2328 3040 
Q 2066 3103 1784 3103 
Q 1356 3103 1142 2972 
Q 928 2841 928 2578 
Q 928 2378 1081 2264 
Q 1234 2150 1697 2047 
L 1894 2003 
Q 2506 1872 2764 1633 
Q 3022 1394 3022 966 
Q 3022 478 2636 193 
Q 2250 -91 1575 -91 
Q 1294 -91 989 -36 
Q 684 19 347 128 
L 347 722 
Q 666 556 975 473 
Q 1284 391 1588 391 
Q 1994 391 2212 530 
Q 2431 669 2431 922 
Q 2431 1156 2273 1281 
Q 2116 1406 1581 1522 
L 1381 1569 
Q 847 1681 609 1914 
Q 372 2147 372 2553 
Q 372 3047 722 3315 
Q 1072 3584 1716 3584 
Q 2034 3584 2315 3537 
Q 2597 3491 2834 3397 
z
" transform="scale(0.015625)"/>
      <path id="DejaVuSans-75" d="M 544 1381 
L 544 3500 
L 1119 3500 
L 1119 1403 
Q 1119 906 1312 657 
Q 1506 409 1894 409 
Q 2359 409 2629 706 
Q 2900 1003 2900 1516 
L 2900 3500 
L 3475 3500 
L 3475 0 
L 2900 0 
L 2900 538 
Q 2691 219 2414 64 
Q 2138 -91 1772 -91 
Q 1169 -91 856 284 
Q 544 659 544 1381 
z
M 1991 3584 
L 1991 3584 
z
" transform="scale(0.015625)"/>
      <path id="DejaVuSans-62" d="M 3116 1747 
Q 3116 2381 2855 2742 
Q 2594 3103 2138 3103 
Q 1681 3103 1420 2742 
Q 1159 2381 1159 1747 
Q 1159 1113 1420 752 
Q 1681 391 2138 391 
Q 2594 391 2855 752 
Q 3116 1113 3116 1747 
z
M 1159 2969 
Q 1341 3281 1617 3432 
Q 1894 3584 2278 3584 
Q 2916 3584 3314 3078 
Q 3713 2572 3713 1747 
Q 3713 922 3314 415 
Q 2916 -91 2278 -91 
Q 1894 -91 1617 61 
Q 1341 213 1159 525 
L 1159 0 
L 581 0 
L 581 4863 
L 1159 4863 
L 1159 2969 
z
" transform="scale(0.015625)"/>
      <path id="DejaVuSans-63" d="M 3122 3366 
L 3122 2828 
Q 2878 2963 2633 3030 
Q 2388 3097 2138 3097 
Q 1578 3097 1268 2742 
Q 959 2388 959 1747 
Q 959 1106 1268 751 
Q 1578 397 2138 397 
Q 2388 397 2633 464 
Q 2878 531 3122 666 
L 3122 134 
Q 2881 22 2623 -34 
Q 2366 -91 2075 -91 
Q 1284 -91 818 406 
Q 353 903 353 1747 
Q 353 2603 823 3093 
Q 1294 3584 2113 3584 
Q 2378 3584 2631 3529 
Q 2884 3475 3122 3366 
z
" transform="scale(0.015625)"/>
      <path id="DejaVuSans-72" d="M 2631 2963 
Q 2534 3019 2420 3045 
Q 2306 3072 2169 3072 
Q 1681 3072 1420 2755 
Q 1159 2438 1159 1844 
L 1159 0 
L 581 0 
L 581 3500 
L 1159 3500 
L 1159 2956 
Q 1341 3275 1631 3429 
Q 1922 3584 2338 3584 
Q 2397 3584 2469 3576 
Q 2541 3569 2628 3553 
L 2631 2963 
z
" transform="scale(0.015625)"/>
      <path id="DejaVuSans-69" d="M 603 3500 
L 1178 3500 
L 1178 0 
L 603 0 
L 603 3500 
z
M 603 4863 
L 1178 4863 
L 1178 4134 
L 603 4134 
L 603 4863 
z
" transform="scale(0.015625)"/>
      <path id="DejaVuSans-20" transform="scale(0.015625)"/>
      <path id="DejaVuSans-68" d="M 3513 2113 
L 3513 0 
L 2938 0 
L 2938 2094 
Q 2938 2591 2744 2837 
Q 2550 3084 2163 3084 
Q 1697 3084 1428 2787 
Q 1159 2491 1159 1978 
L 1159 0 
L 581 0 
L 581 4863 
L 1159 4863 
L 1159 2956 
Q 1366 3272 1645 3428 
Q 1925 3584 2291 3584 
Q 2894 3584 3203 3211 
Q 3513 2838 3513 2113 
z
" transform="scale(0.015625)"/>
      <path id="DejaVuSans-6f" d="M 1959 3097 
Q 1497 3097 1228 2736 
Q 959 2375 959 1747 
Q 959 1119 1226 758 
Q 1494 397 1959 397 
Q 2419 397 2687 759 
Q 2956 1122 2956 1747 
Q 2956 2369 2687 2733 
Q 2419 3097 1959 3097 
z
M 1959 3584 
Q 2709 3584 3137 3096 
Q 3566 2609 3566 1747 
Q 3566 888 3137 398 
Q 2709 -91 1959 -91 
Q 1206 -91 779 398 
Q 353 888 353 1747 
Q 353 2609 779 3096 
Q 1206 3584 1959 3584 
z
" transform="scale(0.015625)"/>
      <path id="DejaVuSans-79" d="M 2059 -325 
Q 1816 -950 1584 -1140 
Q 1353 -1331 966 -1331 
L 506 -1331 
L 506 -850 
L 844 -850 
Q 1081 -850 1212 -737 
Q 1344 -625 1503 -206 
L 1606 56 
L 191 3500 
L 800 3500 
L 1894 763 
L 2988 3500 
L 3597 3500 
L 2059 -325 
z
" transform="scale(0.015625)"/>
     </defs>
     <use xlink:href="#DejaVuSans-67"/>
     <use xlink:href="#DejaVuSans-65" x="63.476562"/>
     <use xlink:href="#DejaVuSans-74" x="125"/>
     <use xlink:href="#DejaVuSans-5f" x="164.208984"/>
     <use xlink:href="#DejaVuSans-73" x="214.208984"/>
     <use xlink:href="#DejaVuSans-75" x="266.308594"/>
     <use xlink:href="#DejaVuSans-62" x="329.6875"/>
     <use xlink:href="#DejaVuSans-73" x="393.164062"/>
     <use xlink:href="#DejaVuSans-63" x="445.263672"/>
     <use xlink:href="#DejaVuSans-72" x="500.244141"/>
     <use xlink:href="#DejaVuSans-69" x="541.357422"/>
     <use xlink:href="#DejaVuSans-62" x="569.140625"/>
     <use xlink:href="#DejaVuSans-65" x="632.617188"/>
     <use xlink:href="#DejaVuSans-20" x="694.140625"/>
     <use xlink:href="#DejaVuSans-68" x="725.927734"/>
     <use xlink:href="#DejaVuSans-69" x="789.306641"/>
     <use xlink:href="#DejaVuSans-73" x="817.089844"/>
     <use xlink:href="#DejaVuSans-74" x="869.189453"/>
     <use xlink:href="#DejaVuSans-6f" x="908.398438"/>
     <use xlink:href="#DejaVuSans-72" x="969.580078"/>
     <use xlink:href="#DejaVuSans-79" x="1010.693359"/>
    </g>
   </g>
   <g id="legend_1">
    <g id="line2d_41">
     <path d="M 815.08 328.498438 
L 825.08 328.498438 
L 835.08 328.498438 
" style="fill: none; stroke: #1f77b4; stroke-width: 1.5; stroke-linecap: square"/>
    </g>
    <g id="text_21">
     <!-- star -->
     <g style="fill: #a9a9a9" transform="translate(843.08 331.998438) scale(0.1 -0.1)">
      <defs>
       <path id="DejaVuSans-61" d="M 2194 1759 
Q 1497 1759 1228 1600 
Q 959 1441 959 1056 
Q 959 750 1161 570 
Q 1363 391 1709 391 
Q 2188 391 2477 730 
Q 2766 1069 2766 1631 
L 2766 1759 
L 2194 1759 
z
M 3341 1997 
L 3341 0 
L 2766 0 
L 2766 531 
Q 2569 213 2275 61 
Q 1981 -91 1556 -91 
Q 1019 -91 701 211 
Q 384 513 384 1019 
Q 384 1609 779 1909 
Q 1175 2209 1959 2209 
L 2766 2209 
L 2766 2266 
Q 2766 2663 2505 2880 
Q 2244 3097 1772 3097 
Q 1472 3097 1187 3025 
Q 903 2953 641 2809 
L 641 3341 
Q 956 3463 1253 3523 
Q 1550 3584 1831 3584 
Q 2591 3584 2966 3190 
Q 3341 2797 3341 1997 
z
" transform="scale(0.015625)"/>
      </defs>
      <use xlink:href="#DejaVuSans-73"/>
      <use xlink:href="#DejaVuSans-74" x="52.099609"/>
      <use xlink:href="#DejaVuSans-61" x="91.308594"/>
      <use xlink:href="#DejaVuSans-72" x="152.587891"/>
     </g>
    </g>
    <g id="line2d_42">
     <path d="M 815.08 343.176562 
L 825.08 343.176562 
L 835.08 343.176562 
" style="fill: none; stroke: #ff7f0e; stroke-width: 1.5; stroke-linecap: square"/>
    </g>
    <g id="text_22">
     <!-- fork -->
     <g style="fill: #a9a9a9" transform="translate(843.08 346.676562) scale(0.1 -0.1)">
      <defs>
       <path id="DejaVuSans-66" d="M 2375 4863 
L 2375 4384 
L 1825 4384 
Q 1516 4384 1395 4259 
Q 1275 4134 1275 3809 
L 1275 3500 
L 2222 3500 
L 2222 3053 
L 1275 3053 
L 1275 0 
L 697 0 
L 697 3053 
L 147 3053 
L 147 3500 
L 697 3500 
L 697 3744 
Q 697 4328 969 4595 
Q 1241 4863 1831 4863 
L 2375 4863 
z
" transform="scale(0.015625)"/>
       <path id="DejaVuSans-6b" d="M 581 4863 
L 1159 4863 
L 1159 1991 
L 2875 3500 
L 3609 3500 
L 1753 1863 
L 3688 0 
L 2938 0 
L 1159 1709 
L 1159 0 
L 581 0 
L 581 4863 
z
" transform="scale(0.015625)"/>
      </defs>
      <use xlink:href="#DejaVuSans-66"/>
      <use xlink:href="#DejaVuSans-6f" x="35.205078"/>
      <use xlink:href="#DejaVuSans-72" x="96.386719"/>
      <use xlink:href="#DejaVuSans-6b" x="137.5"/>
     </g>
    </g>
   </g>
  </g>
 </g>
 <defs>
  <clipPath id="p2b7917296b">
   <rect x="108" y="43.2" width="669.6" height="277.2"/>
  </clipPath>
 </defs>
</svg>
